<?xml version="1.0" encoding="utf-8"?><svg viewBox="0 0 36 36" xmlns="http://www.w3.org/2000/svg" xmlns:xlink="http://www.w3.org/1999/xlink"><style>:root>svg{display:none}:root>svg:target{display:block}</style><svg viewBox="0 0 33 35" id="airbnb" xmlns="http://www.w3.org/2000/svg"><path fill-rule="evenodd" clip-rule="evenodd" d="M31.423 24.1c.056.138.112.276.168.41.448 1.278.586 2.485.31 3.692-.38 2.553-2.072 4.763-4.488 5.73-.865.38-1.83.552-2.797.552-.277 0-.621-.034-.898-.07a9.112 9.112 0 0 1-3.452-1.172c-1.38-.794-2.761-1.933-4.28-3.59-1.519 1.657-2.864 2.796-4.28 3.59a9.112 9.112 0 0 1-3.452 1.173 7.755 7.755 0 0 1-.898.069 7.09 7.09 0 0 1-2.797-.552 7.335 7.335 0 0 1-4.487-5.73c-.173-1.243-.034-2.45.415-3.729.16-.418.333-.833.518-1.242.123-.276.246-.546.366-.809.15-.328.295-.645.429-.951l.034-.07c2.381-5.178 4.97-10.425 7.629-15.603l.103-.206c.254-.477.507-.982.762-1.49l.066-.132c.345-.621.724-1.278 1.242-1.899C12.777.76 14.33 0 16.056 0c1.692 0 3.28.76 4.386 2.142.505.568.836 1.166 1.153 1.739l.089.16.066.131c.255.508.508 1.014.763 1.49l.103.208a360.577 360.577 0 0 1 7.629 15.604l.033.034c.131.297.271.604.416.92l.38.84c.115.256.232.544.349.831Zm-1.627 3.823a5.128 5.128 0 0 1-3.141 4.04 5.228 5.228 0 0 1-2.625.343c-.862-.102-1.726-.38-2.622-.896-1.243-.692-2.487-1.76-3.936-3.349 2.278-2.796 3.659-5.35 4.177-7.628a8.636 8.636 0 0 0 .172-2.936 5.615 5.615 0 0 0-.932-2.347c-1.07-1.553-2.866-2.45-4.867-2.45-2.002 0-3.798.93-4.868 2.45a5.616 5.616 0 0 0-.932 2.347 7.183 7.183 0 0 0 .173 2.936c.518 2.278 1.932 4.867 4.177 7.662-1.416 1.588-2.692 2.659-3.936 3.349-.898.518-1.76.795-2.623.898-.89.1-1.79-.02-2.623-.345a5.13 5.13 0 0 1-3.14-4.038 5.732 5.732 0 0 1 .31-2.692c.07-.24.176-.477.29-.738a68.712 68.712 0 0 1 .886-1.954l.066-.139.035-.07a376.134 376.134 0 0 1 7.595-15.5l.104-.208c.14-.263.282-.536.422-.81.136-.262.27-.524.406-.778.277-.552.587-1.07.967-1.519.726-.829 1.692-1.278 2.762-1.278s2.037.45 2.76 1.278c.38.45.691.967.968 1.52.135.253.27.514.405.776.141.273.282.546.424.81l.104.207a456.796 456.796 0 0 1 7.56 15.535v.034c.14.28.271.577.402.874.128.29.255.58.391.852.055.132.11.256.162.375.113.258.217.494.287.73.275.899.378 1.761.24 2.66Zm-13.764-1.626c-1.863-2.348-3.071-4.557-3.487-6.42-.172-.796-.207-1.486-.103-2.107.07-.552.277-1.036.552-1.45.657-.931 1.76-1.519 3.038-1.519 1.278 0 2.417.554 3.038 1.52.277.414.483.897.552 1.449.103.621.07 1.347-.103 2.106-.413 1.83-1.622 4.04-3.487 6.42Z"/></svg><svg viewBox="0 0 30 30" id="alert-circle" xmlns="http://www.w3.org/2000/svg"><path d="M15 0C6.72 0 0 6.72 0 15c0 8.28 6.72 15 15 15 8.28 0 15-6.72 15-15 0-8.28-6.72-15-15-15Zm0 24c-1.1 0-2-.9-2-2s.9-2 2-2 2 .9 2 2-.9 2-2 2Zm2.29-15.51-.67 8.02c-.07.84-.77 1.49-1.62 1.49-.85 0-1.55-.65-1.62-1.49l-.67-8.02C12.6 7.15 13.65 6 15 6a2.3 2.3 0 0 1 2.3 2.3c0 .06 0 .13-.01.19Z"/></svg><svg viewBox="0 0 30 26" id="arrow" xmlns="http://www.w3.org/2000/svg"><path d="m7.5 9.36 7.5 7.5 7.5-7.5"/></svg><svg viewBox="0 0 20 20" id="arrow-left" xmlns="http://www.w3.org/2000/svg"><path d="M15.102 10.075H3.977m0 0 5.562 5.562m-5.562-5.563 5.562-5.562"/></svg><svg viewBox="0 0 20 20" id="arrow-pagination" xmlns="http://www.w3.org/2000/svg"><path d="M15.1 10.07H3.973m0 0 5.562 5.563m-5.562-5.562 5.562-5.563"/></svg><svg viewBox="0 0 20 20" id="arrow-right" xmlns="http://www.w3.org/2000/svg"><path d="M4.453 10.075H15.58m0 0-5.563-5.563m5.563 5.563-5.563 5.562"/></svg><svg viewBox="0 0 23 20" id="arrow-select" xmlns="http://www.w3.org/2000/svg"><path d="m5.945 7.16 5.686 5.686 5.686-5.686"/></svg><svg viewBox="0 0 17 19" id="arrows-sort" xmlns="http://www.w3.org/2000/svg"><path d="m4.21 12.32 4 4 4-4m-8-5 4-4 4 4"/></svg><svg viewBox="0 0 26 27" id="bell" xmlns="http://www.w3.org/2000/svg"><path d="M12.992 4.234a7.313 7.313 0 0 0-7.312 7.314v3.903l-1.567 3.921a.813.813 0 0 0 .754 1.115h4.875a3.242 3.242 0 0 0 3.25 3.25 3.242 3.242 0 0 0 3.25-3.25h4.875a.812.812 0 0 0 .755-1.114l-1.567-3.922v-3.903a7.313 7.313 0 0 0-7.313-7.314Zm1.625 16.253c0 .903-.721 1.625-1.625 1.625a1.617 1.617 0 0 1-1.625-1.625h3.25Zm-7.312-8.94a5.688 5.688 0 1 1 11.375 0v4.06c0 .103.02.206.058.302l1.18 2.952H6.067l1.18-2.952a.813.813 0 0 0 .058-.302v-4.06Z"/></svg><svg viewBox="0 0 19 19" id="block" xmlns="http://www.w3.org/2000/svg"><path d="M12.93 8.99h-.717V6.615c0-.75-.604-1.357-1.349-1.357H8.25c-.745 0-1.348.607-1.348 1.357V8.99h-.717a.338.338 0 0 0-.337.34v4.07c0 .188.15.34.337.34h6.745a.338.338 0 0 0 .337-.34V9.33c0-.188-.15-.34-.337-.34Zm-3.078 2.513v.562a.085.085 0 0 1-.084.085h-.421a.085.085 0 0 1-.085-.085v-.562a.508.508 0 0 1 .593-.825.509.509 0 0 1-.003.825Zm1.602-2.513H7.66V6.615c0-.328.265-.594.59-.594h2.614c.326 0 .59.266.59.594V8.99Z"/><path d="M18.499 9.5c0 4.973-4.007 9-8.943 9S.613 14.473.613 9.5 4.62.5 9.556.5s8.943 4.027 8.943 9Z"/></svg><svg viewBox="0 0 28 24" id="burger" xmlns="http://www.w3.org/2000/svg"><path d="M1.273 2.044h25.454M1.273 12.227h25.454M1.273 22.407h25.454"/></svg><svg viewBox="0 0 21 22" id="calendar" xmlns="http://www.w3.org/2000/svg"><path d="M18.375 9.586H2.625m11.375-7v3.5m-7-3.5v3.5m-.175 14h7.35c1.47 0 2.205 0 2.767-.286a2.625 2.625 0 0 0 1.147-1.147c.286-.562.286-1.297.286-2.767v-7.35c0-1.47 0-2.205-.286-2.767a2.625 2.625 0 0 0-1.147-1.147c-.562-.286-1.297-.286-2.767-.286h-7.35c-1.47 0-2.205 0-2.767.286A2.625 2.625 0 0 0 2.911 5.77c-.286.562-.286 1.297-.286 2.767v7.35c0 1.47 0 2.205.286 2.767.252.494.653.895 1.147 1.147.562.286 1.297.286 2.767.286Z"/></svg><svg viewBox="0 0 12 12" id="check" xmlns="http://www.w3.org/2000/svg"><path d="m9.992 3-5.5 5.5-2.5-2.5"/></svg><svg viewBox="0 0 12 11" id="check-alt" xmlns="http://www.w3.org/2000/svg"><path fill-rule="evenodd" clip-rule="evenodd" d="m10.671.627-6.563 6.55-1.742-1.924c-.32-.313-.825-.332-1.191-.067a.887.887 0 0 0-.239 1.147L3 9.802c.201.322.55.521.944.521.376 0 .733-.199.935-.521.33-.446 6.627-8.208 6.627-8.208.825-.872-.174-1.64-.834-.976v.01Z"/></svg><svg viewBox="0 0 16 17" id="check-circle" xmlns="http://www.w3.org/2000/svg"><rect x=".75" y="1.535" width="14.5" height="14.5" rx="7.25"/><path d="m11.467 6.21-5.134 5.134L4 9.011"/></svg><svg viewBox="0 0 36 36" id="check-success" xmlns="http://www.w3.org/2000/svg"><g clip-path="url(#aoa)"><path d="M34.97 4.922a1.356 1.356 0 0 0-1.919-.002L16.774 21.154l-5.872-6.379a1.357 1.357 0 0 0-1.997 1.838l6.83 7.417a1.355 1.355 0 0 0 1.956.042L34.967 6.841c.531-.53.532-1.389.003-1.92Z"/><path d="M34.643 16.643c-.75 0-1.357.607-1.357 1.357 0 8.43-6.857 15.286-15.286 15.286C9.571 33.286 2.714 26.43 2.714 18 2.714 9.571 9.57 2.714 18 2.714A1.357 1.357 0 1 0 18 0C8.075 0 0 8.075 0 18s8.075 18 18 18 18-8.075 18-18c0-.75-.607-1.357-1.357-1.357Z"/></g><defs><clipPath id="aoa"><path d="M0 0h36v36H0z"/></clipPath></defs></svg><svg viewBox="0 0 16 16" id="checkbox" xmlns="http://www.w3.org/2000/svg"><rect x=".55" y=".55" width="14.9" height="14.9" rx="7.45"/><path d="m11.467 5.43-5.134 5.133L4 8.23"/></svg><svg viewBox="0 0 16 17" id="checkbox-empty" xmlns="http://www.w3.org/2000/svg"><rect x=".55" y="1.214" width="14.9" height="14.9" rx="7.45"/></svg><svg viewBox="0 0 14 18" id="chevron-back" xmlns="http://www.w3.org/2000/svg"><path d="m9.5 4-5 5 5 5"/></svg><svg viewBox="0 0 12 8" id="chevron-up" xmlns="http://www.w3.org/2000/svg"><path d="m1 6.5 5-5 5 5"/></svg><svg viewBox="0 0 19 20" id="clipboard" xmlns="http://www.w3.org/2000/svg"><g clip-path="url(#aua)" stroke-linecap="round" stroke-linejoin="round"><path d="M12.823 3.16c.773 0 1.16 0 1.476.087a2.53 2.53 0 0 1 1.764 1.813c.085.327.085.724.085 1.52v7.865c0 1.437 0 2.155-.272 2.704-.24.482-.62.875-1.09 1.12-.533.28-1.232.28-2.628.28h-5.32c-1.397 0-2.095 0-2.629-.28a2.531 2.531 0 0 1-1.09-1.12c-.271-.549-.271-1.267-.271-2.704V6.58c0-.795 0-1.192.085-1.519a2.53 2.53 0 0 1 1.763-1.813c.317-.088.704-.088 1.477-.088m1.33 1.71h3.99c.465 0 .698 0 .876-.093a.844.844 0 0 0 .363-.374c.09-.183.09-.422.09-.9v-.685c0-.479 0-.718-.09-.9a.844.844 0 0 0-.363-.375c-.178-.093-.41-.093-.876-.093h-3.99c-.466 0-.699 0-.876.093a.843.843 0 0 0-.364.374c-.09.183-.09.422-.09.901v.684c0 .48 0 .718.09.901.08.161.207.292.364.374.177.093.41.093.876.093ZM11.148 11.667h-4.75m1.584 3.166H6.398M12.732 8.5H6.398"/></g><defs><clipPath id="aua"><path transform="translate(0 .5)" d="M0 0h19v19H0z"/></clipPath></defs></svg><svg viewBox="0 0 14 14" id="close" xmlns="http://www.w3.org/2000/svg"><path fill-rule="evenodd" clip-rule="evenodd" d="M12.755 1.003a1.072 1.072 0 0 1 0 1.5l-4.44 4.503 4.44 4.502a1.072 1.072 0 0 1 0 1.5 1.036 1.036 0 0 1-1.48 0l-4.44-4.502-4.438 4.503a1.036 1.036 0 0 1-1.48 0 1.072 1.072 0 0 1 0-1.501l4.44-4.502-4.44-4.502a1.072 1.072 0 0 1 0-1.501 1.036 1.036 0 0 1 1.48 0l4.439 4.502 4.439-4.502a1.036 1.036 0 0 1 1.48 0Z"/></svg><svg viewBox="0 0 14 14" id="correct-pass" xmlns="http://www.w3.org/2000/svg"><rect x="1.063" y="1.063" width="11.875" height="11.875" rx="5.938"/><path d="m9.92 4.813-4.011 4.01L4.086 7"/></svg><svg viewBox="0 0 19 20" id="credit-card" xmlns="http://www.w3.org/2000/svg"><path d="M17.417 8.415H1.584m7.125 3.167H4.751M1.584 6.99v6.017c0 .887 0 1.33.173 1.669.151.298.394.54.692.692.338.172.782.172 1.668.172h10.767c.887 0 1.33 0 1.669-.172.298-.152.54-.394.692-.692.172-.339.172-.782.172-1.669V6.99c0-.886 0-1.33-.172-1.668a1.583 1.583 0 0 0-.692-.692c-.339-.173-.782-.173-1.669-.173H4.117c-.886 0-1.33 0-1.668.173a1.58 1.58 0 0 0-.692.692c-.173.338-.173.782-.173 1.668Z"/></svg><svg viewBox="0 0 23 24" id="danger" xmlns="http://www.w3.org/2000/svg"><path fill-rule="evenodd" clip-rule="evenodd" d="M1.603 16.827a3.042 3.042 0 0 0-.018 3.012 2.966 2.966 0 0 0 2.583 1.52h14.659a2.966 2.966 0 0 0 2.582-1.52 3.042 3.042 0 0 0-.018-3.012L14.063 4.16a2.966 2.966 0 0 0-2.566-1.488c-1.054 0-2.03.564-2.565 1.488L1.603 16.827Zm1.244.72 7.33-12.667c.275-.476.777-.77 1.32-.77.544 0 1.046.294 1.32.77l7.33 12.667c.283.489.287 1.095.01 1.587a1.53 1.53 0 0 1-1.33.788H4.166a1.53 1.53 0 0 1-1.33-.788 1.605 1.605 0 0 1 .01-1.587Z"/><path d="M11.497 18.604a.958.958 0 1 0 0-1.916.958.958 0 0 0 0 1.916Z"/><path fill-rule="evenodd" clip-rule="evenodd" d="m10.297 9.01.479 5.75a.719.719 0 0 0 1.438 0l.479-5.75c0-.396-.24-1.197-1.198-1.197s-1.198.8-1.198 1.197Z"/></svg><svg viewBox="0 0 11 2" id="dash" xmlns="http://www.w3.org/2000/svg"><path d="M1.71.785h7.584"/></svg><svg viewBox="0 0 14 16" id="delete" xmlns="http://www.w3.org/2000/svg"><path d="M9.778 3.833v-.555c0-.778 0-1.167-.152-1.464a1.389 1.389 0 0 0-.607-.607c-.297-.151-.686-.151-1.463-.151H6.444c-.777 0-1.166 0-1.463.151a1.389 1.389 0 0 0-.607.607c-.152.297-.152.686-.152 1.464v.555m1.39 3.82v3.472m2.777-3.472v3.472M.75 3.833h12.5m-1.389 0v7.778c0 1.167 0 1.75-.227 2.196-.2.392-.518.71-.91.91-.446.228-1.03.228-2.196.228H5.472c-1.167 0-1.75 0-2.196-.228-.392-.2-.71-.518-.91-.91-.227-.446-.227-1.029-.227-2.196V3.833"/></svg><svg viewBox="0 0 14 16" id="document" xmlns="http://www.w3.org/2000/svg"><path d="M8.467 1.158v2.904c0 .394 0 .591.08.741a.72.72 0 0 0 .321.308c.157.076.362.076.773.076h3.03m-4.204 6.328H4.065m5.87-2.812h-5.87m8.804-2.118v5.07c0 1.182 0 1.773-.24 2.224-.21.397-.547.72-.961.921-.471.23-1.088.23-2.32.23H4.652c-1.232 0-1.849 0-2.32-.23a2.157 2.157 0 0 1-.961-.921c-.24-.451-.24-1.042-.24-2.223V4.344c0-1.182 0-1.772.24-2.224.21-.396.547-.72.962-.921.47-.23 1.087-.23 2.32-.23h2.356c.538 0 .807 0 1.06.058.225.052.44.137.637.253.222.13.412.312.793.677L11.838 4.2c.38.365.57.547.707.76.12.189.21.394.264.61.06.242.06.5.06 1.016Z"/></svg><svg viewBox="0 0 12 18" id="dots-grid" xmlns="http://www.w3.org/2000/svg"><path d="M3.534 4.334a.706.706 0 1 0 0-1.412.706.706 0 0 0 0 1.412Zm0 4.941a.706.706 0 1 0 0-1.412.706.706 0 0 0 0 1.412Zm0 4.941a.706.706 0 1 0 0-1.412.706.706 0 0 0 0 1.412Zm4.941-9.882a.706.706 0 1 0 0-1.412.706.706 0 0 0 0 1.412Zm0 4.941a.706.706 0 1 0 0-1.412.706.706 0 0 0 0 1.412Zm0 4.941a.706.706 0 1 0 0-1.412.706.706 0 0 0 0 1.412Z"/></svg><svg viewBox="0 0 20 4" id="dots-vertical" xmlns="http://www.w3.org/2000/svg"><g clip-path="url(#bda)" stroke-width="1.5" stroke-linecap="round" stroke-linejoin="round"><path d="M9.185 1.989a.817.817 0 1 0 1.633 0 .817.817 0 0 0-1.633 0Zm5.717 0a.817.817 0 1 0 1.633 0 .817.817 0 0 0-1.633 0Zm-11.434 0a.817.817 0 1 0 1.634 0 .817.817 0 0 0-1.634 0Z"/></g><defs><clipPath id="bda"><path transform="rotate(90 9.717 10.084)" d="M0 0h3.267v19.6H0z"/></clipPath></defs></svg><svg viewBox="0 0 15 17" id="download" xmlns="http://www.w3.org/2000/svg"><g clip-path="url(#bea)"><path d="M13.75 10.785v.8c0 1.12 0 1.68-.218 2.108a2 2 0 0 1-.874.874c-.428.218-.988.218-2.108.218h-5.6c-1.12 0-1.68 0-2.108-.218a2 2 0 0 1-.874-.874c-.218-.428-.218-.988-.218-2.108v-.8m9.333-3.333L7.75 10.785m0 0L4.417 7.452m3.333 3.333v-8"/></g><defs><clipPath id="bea"><path transform="translate(.75 .785)" d="M0 0h14v16H0z"/></clipPath></defs></svg><svg viewBox="0 0 21 20" id="edit" xmlns="http://www.w3.org/2000/svg"><path d="M10.5 16.666H18m-15 0h1.395c.408 0 .612 0 .804-.046.17-.04.332-.108.482-.2.168-.103.312-.247.6-.535L16.75 5.416a1.768 1.768 0 1 0-2.5-2.5L3.781 13.386c-.288.287-.432.432-.535.6-.092.149-.16.311-.2.481C3 14.66 3 14.864 3 15.271v1.395Z"/></svg><svg viewBox="0 0 30 30" id="exclamation-mark" xmlns="http://www.w3.org/2000/svg"><path d="M15 0C6.72 0 0 6.72 0 15c0 8.28 6.72 15 15 15 8.28 0 15-6.72 15-15 0-8.28-6.72-15-15-15Zm0 24c-1.1 0-2-.9-2-2s.9-2 2-2 2 .9 2 2-.9 2-2 2Zm2.29-15.51-.67 8.02c-.07.84-.77 1.49-1.62 1.49-.85 0-1.55-.65-1.62-1.49l-.67-8.02C12.6 7.15 13.65 6 15 6a2.3 2.3 0 0 1 2.3 2.3c0 .06 0 .13-.01.19Z"/></svg><svg viewBox="0 0 16 16" id="eye" xmlns="http://www.w3.org/2000/svg"><path d="M8 2.543c-3.42 0-6.4 2.148-8 5.333 1.6 3.186 4.58 5.334 8 5.334s6.4-2.148 8-5.334c-1.6-3.185-4.58-5.333-8-5.333Zm0 8.667a3.333 3.333 0 1 1 0-6.666 3.333 3.333 0 0 1 0 6.666Z"/><path d="M8 9.875a2 2 0 1 0 0-4 2 2 0 0 0 0 4Z"/></svg><svg viewBox="0 0 16 16" id="eye-closed" xmlns="http://www.w3.org/2000/svg"><g clip-path="url(#bha)"><path d="m7.875 5.468 2.29 2.29.011-.12a2.183 2.183 0 0 0-2.181-2.181l-.12.01Z"/><path d="M7.999 4.001a3.637 3.637 0 0 1 3.636 3.636c0 .469-.095.916-.258 1.327l2.126 2.127a8.635 8.635 0 0 0 2.498-3.454c-1.262-3.192-4.363-5.453-8.002-5.453a8.504 8.504 0 0 0-2.897.509l1.57 1.566a3.65 3.65 0 0 1 1.327-.258ZM.727 2.02l1.658 1.66.33.33A8.612 8.612 0 0 0 0 7.638c1.258 3.192 4.363 5.453 7.998 5.453a8.525 8.525 0 0 0 3.189-.614l.309.309 2.12 2.123.926-.924L1.654 1.094l-.927.927Zm4.021 4.018 1.123 1.123a2.304 2.304 0 0 0-.054.477c0 1.203.978 2.181 2.181 2.181.164 0 .32-.022.473-.054l1.123 1.123a3.577 3.577 0 0 1-1.596.385 3.637 3.637 0 0 1-3.635-3.635c0-.575.145-1.113.385-1.6Z"/></g><defs><clipPath id="bha"><path d="M0 0h16v16H0z"/></clipPath></defs></svg><svg viewBox="0 0 20 20" id="filter-icon" xmlns="http://www.w3.org/2000/svg"><path d="M5 10h10M2.5 5h15m-10 10h5"/></svg><svg viewBox="0 0 20 20" id="filter-lines" xmlns="http://www.w3.org/2000/svg"><path d="M5 10h10M2.5 5h15m-10 10h5"/></svg><svg viewBox="0 0 18 18" id="forward" xmlns="http://www.w3.org/2000/svg"><path fill-rule="evenodd" clip-rule="evenodd" d="M10.14 5.779V3.624a.887.887 0 0 1 1.512-.627l4.812 4.812a.886.886 0 0 1 0 1.252l-4.812 4.812a.886.886 0 0 1-1.511-.626v-2.155H8.582a5.914 5.914 0 0 0-4.731 2.365L2.597 15.13a.532.532 0 0 1-.956-.319v-.708A8.323 8.323 0 0 1 9.964 5.78h.177Zm-7.372 7.352L3 12.82a6.978 6.978 0 0 1 5.581-2.79h2.09a.53.53 0 0 1 .531.53v2.26l4.384-4.385-4.384-4.384v2.26a.531.531 0 0 1-.531.53h-.708a7.262 7.262 0 0 0-7.196 6.29Z"/></svg><svg viewBox="0 0 18 18" id="globe" xmlns="http://www.w3.org/2000/svg"><path d="M2 9h14M2 9a7 7 0 0 0 7 7M2 9a7 7 0 0 1 7-7m7 7a7 7 0 0 1-7 7m7-7a7 7 0 0 0-7-7m0 0a10.71 10.71 0 0 1 2.8 7A10.71 10.71 0 0 1 9 16M9 2a10.71 10.71 0 0 0-2.8 7A10.71 10.71 0 0 0 9 16"/></svg><svg viewBox="0 0 15 14" id="info-circle" xmlns="http://www.w3.org/2000/svg"><g clip-path="url(#bna)"><path d="M7.499 9.334V7m0-2.333h-.006M1.665 7a5.833 5.833 0 1 0 11.667 0A5.833 5.833 0 0 0 1.665 7Z"/></g><defs><clipPath id="bna"><path transform="matrix(-1 0 0 1 14.5 0)" d="M0 0h14v14H0z"/></clipPath></defs></svg><svg viewBox="0 0 18 18" id="input-details" xmlns="http://www.w3.org/2000/svg"><path d="M11.389.438h-4.78C2.278.438.433 2.284.433 6.612v4.78c0 4.33 1.846 6.175 6.174 6.175h4.78c4.33 0 6.176-1.846 6.176-6.174v-4.78c0-4.33-1.847-6.176-6.175-6.176Zm-.598 15.934H6.608c-3.676 0-4.98-1.303-4.98-4.98v-4.78c0-3.676 1.304-4.98 4.98-4.98h4.183v14.74Zm5.578-4.98c0 3.47-1.163 4.824-4.383 4.966V1.647c3.22.142 4.383 1.496 4.383 4.965v4.78ZM6.234 6.542l2.04 2.04a.597.597 0 0 1 0 .844l-2.04 2.04a.598.598 0 0 1-.845-.846l1.618-1.617-1.618-1.616a.598.598 0 0 1 .845-.845Z"/></svg><svg viewBox="0 0 18 18" id="link-external" xmlns="http://www.w3.org/2000/svg"><path d="M15.75 6.75v-4.5m0 0h-4.5m4.5 0L9 9M7.5 2.25H5.85c-1.26 0-1.89 0-2.371.245a2.25 2.25 0 0 0-.984.984c-.245.48-.245 1.11-.245 2.371v6.3c0 1.26 0 1.89.245 2.371.216.424.56.768.984.984.48.245 1.11.245 2.371.245h6.3c1.26 0 1.89 0 2.371-.245a2.25 2.25 0 0 0 .984-.984c.245-.48.245-1.11.245-2.371V10.5"/></svg><svg viewBox="0 0 9 9" id="lock" xmlns="http://www.w3.org/2000/svg"><path d="M7.816 3.99H7.1V1.615C7.1.865 6.496.258 5.75.258H3.138c-.745 0-1.349.607-1.349 1.357V3.99h-.716a.338.338 0 0 0-.338.34V8.4c0 .188.151.34.338.34h6.744a.338.338 0 0 0 .338-.34V4.33a.339.339 0 0 0-.338-.34ZM4.74 6.503v.562a.085.085 0 0 1-.084.085h-.422a.085.085 0 0 1-.084-.085v-.562a.509.509 0 0 1 .593-.825.509.509 0 0 1-.003.825ZM6.341 3.99H2.547V1.615c0-.328.265-.594.59-.594h2.614c.325 0 .59.266.59.594V3.99Z"/></svg><svg viewBox="0 0 18 18" id="log-out" xmlns="http://www.w3.org/2000/svg"><path d="M12 12.75 15.75 9m0 0L12 5.25M15.75 9h-9m0-6.75h-.9c-1.26 0-1.89 0-2.371.245a2.25 2.25 0 0 0-.984.984c-.245.48-.245 1.11-.245 2.371v6.3c0 1.26 0 1.89.245 2.371.216.424.56.768.984.984.48.245 1.11.245 2.371.245h.9"/></svg><svg viewBox="0 0 36 36" id="mark-success" xmlns="http://www.w3.org/2000/svg"><g clip-path="url(#bsa)"><path d="M34.97 4.922a1.356 1.356 0 0 0-1.919-.002L16.774 21.154l-5.872-6.379a1.357 1.357 0 0 0-1.997 1.838l6.83 7.417a1.355 1.355 0 0 0 1.956.042L34.967 6.841c.531-.53.532-1.389.003-1.92Z"/><path d="M34.643 16.643c-.75 0-1.357.607-1.357 1.357 0 8.43-6.857 15.286-15.286 15.286C9.571 33.286 2.714 26.43 2.714 18 2.714 9.571 9.57 2.714 18 2.714A1.357 1.357 0 1 0 18 0C8.075 0 0 8.075 0 18s8.075 18 18 18 18-8.075 18-18c0-.75-.607-1.357-1.357-1.357Z"/></g><defs><clipPath id="bsa"><path d="M0 0h36v36H0z"/></clipPath></defs></svg><svg viewBox="0 0 22 22" id="nav-billing" xmlns="http://www.w3.org/2000/svg"><path d="M11.655 10.598V8.267a3.1 3.1 0 0 1 1.37.596.49.49 0 0 0 .272.086.57.57 0 0 0 .57-.563.506.506 0 0 0-.146-.358 3.495 3.495 0 0 0-2.073-.834v-.782a.404.404 0 0 0-.403-.403l-.014-.001a.41.41 0 0 0-.417.404v.755c-1.49.106-2.503 1.027-2.503 2.252 0 1.503 1.278 1.92 2.503 2.252v2.649a3.437 3.437 0 0 1-1.755-.775.552.552 0 0 0-.331-.12.576.576 0 0 0-.537.583c0 .134.052.263.146.358a3.9 3.9 0 0 0 2.484 1v.743a.41.41 0 0 0 .43.39.404.404 0 0 0 .404-.404v-.742c1.808-.12 2.536-1.219 2.536-2.384 0-1.563-1.31-2.04-2.536-2.371Zm-.834-.212c-.722-.212-1.285-.43-1.285-1.046 0-.616.51-1.06 1.285-1.12v2.166Zm.834 3.947v-2.41c.748.211 1.331.496 1.325 1.191 0 .504-.345 1.1-1.325 1.219Z"/><path d="m17.744 3.179-.111-.095a4.252 4.252 0 0 0-.278-.223 10.2 10.2 0 0 0-1.35-.89 11.57 11.57 0 0 0-1.208-.572A10.307 10.307 0 0 0 3.183 4.26l-.096.112a3.744 3.744 0 0 0-.222.278c-.064.079-.12.166-.183.254L2.348 3.75a.8.8 0 0 0-.985-.548.8.8 0 0 0-.548.985l.874 3.05a.784.784 0 0 0 .763.572c.071 0 .15-.008.222-.031l3.059-.874a.797.797 0 1 0-.437-1.533l-1.271.365c.04-.048.071-.103.11-.151.048-.071.112-.135.168-.199l.095-.119a8.713 8.713 0 0 1 10.836-1.914c.42.238.794.476 1.167.77.072.048.136.104.2.16l.118.095a8.733 8.733 0 0 1 3.011 6.601c0 .437.357.794.794.794a.797.797 0 0 0 .795-.794c0-3.003-1.295-5.847-3.583-7.825l.008.024ZM4.255 18.823l.11.095c.104.087.207.175.279.223.405.325.85.611 1.35.89.43.23.826.42 1.208.571a10.2 10.2 0 0 0 3.797.723c2.94 0 5.815-1.263 7.825-3.583l.095-.11a4.24 4.24 0 0 0 .223-.279c.063-.08.119-.167.182-.254l.326 1.152a.789.789 0 0 0 .985.54.8.8 0 0 0 .548-.985l-.873-3.059a.802.802 0 0 0-.985-.548l-3.059.874a.8.8 0 0 0-.548.985.8.8 0 0 0 .985.548l1.27-.365c-.039.048-.07.103-.11.15a1.907 1.907 0 0 1-.16.2l-.102.119a8.713 8.713 0 0 1-9.811 2.399 8.45 8.45 0 0 1-1.025-.493 8.248 8.248 0 0 1-1.168-.77 1.306 1.306 0 0 1-.199-.167l-.119-.096a8.72 8.72 0 0 1-3.01-6.601.797.797 0 0 0-.795-.794.797.797 0 0 0-.794.794c0 3.003 1.303 5.847 3.582 7.825l-.007.016Z"/></svg><svg viewBox="0 0 18 22" id="nav-cases" xmlns="http://www.w3.org/2000/svg"><path d="M11.017 1.597V5.59c0 .541 0 .812.11 1.019a.99.99 0 0 0 .441.422c.216.105.498.105 1.063.105h4.167m-5.78 8.701H4.964m8.07-3.867h-8.07M17.07 9.058v6.972c0 1.625 0 2.437-.33 3.057-.29.546-.753.99-1.322 1.268-.648.316-1.495.316-3.19.316H5.772c-1.695 0-2.543 0-3.19-.316a2.966 2.966 0 0 1-1.322-1.268c-.33-.62-.33-1.432-.33-3.057V5.976c0-1.624 0-2.436.33-3.057a2.97 2.97 0 0 1 1.322-1.267c.647-.316 1.495-.316 3.19-.316h3.24c.74 0 1.11 0 1.458.08.31.071.604.188.875.347.305.18.567.43 1.09.932l3.217 3.082c.523.502.785.753.972 1.045.166.26.288.543.362.839.084.333.084.688.084 1.397Z"/></svg><svg viewBox="0 0 18 18" id="nav-home" xmlns="http://www.w3.org/2000/svg"><path d="M5.8 1H2.422c-.498 0-.747 0-.937.097a.889.889 0 0 0-.388.388C1 1.675 1 1.925 1 2.422V5.8c0 .498 0 .747.097.937a.889.889 0 0 0 .388.388c.19.097.44.097.937.097H5.8c.498 0 .747 0 .937-.097a.889.889 0 0 0 .388-.388c.097-.19.097-.44.097-.937V2.422c0-.498 0-.747-.097-.937a.889.889 0 0 0-.388-.388C6.547 1 6.297 1 5.8 1Zm9.778 0H12.2c-.498 0-.747 0-.937.097a.889.889 0 0 0-.388.388c-.097.19-.097.44-.097.937V5.8c0 .498 0 .747.097.937a.889.889 0 0 0 .388.388c.19.097.44.097.937.097h3.378c.498 0 .747 0 .937-.097a.889.889 0 0 0 .388-.388C17 6.547 17 6.297 17 5.8V2.422c0-.498 0-.747-.097-.937a.889.889 0 0 0-.388-.388C16.325 1 16.075 1 15.578 1Zm0 9.778H12.2c-.498 0-.747 0-.937.097a.889.889 0 0 0-.388.388c-.097.19-.097.44-.097.937v3.378c0 .498 0 .747.097.937a.889.889 0 0 0 .388.388c.19.097.44.097.937.097h3.378c.498 0 .747 0 .937-.097a.889.889 0 0 0 .388-.388c.097-.19.097-.44.097-.937V12.2c0-.498 0-.747-.097-.937a.889.889 0 0 0-.388-.388c-.19-.097-.44-.097-.937-.097Zm-9.778 0H2.422c-.498 0-.747 0-.937.097a.889.889 0 0 0-.388.388C1 11.453 1 11.703 1 12.2v3.378c0 .498 0 .747.097.937a.889.889 0 0 0 .388.388c.19.097.44.097.937.097H5.8c.498 0 .747 0 .937-.097a.889.889 0 0 0 .388-.388c.097-.19.097-.44.097-.937V12.2c0-.498 0-.747-.097-.937a.889.889 0 0 0-.388-.388c-.19-.097-.44-.097-.937-.097Z"/></svg><svg viewBox="0 0 22 22" id="nav-management" xmlns="http://www.w3.org/2000/svg"><path d="M20.097 19.188v-1.82a3.64 3.64 0 0 0-2.729-3.524M14.184 3.077a3.64 3.64 0 0 1 0 6.749m1.365 9.362c0-1.696 0-2.543-.277-3.212a3.64 3.64 0 0 0-1.97-1.97c-.669-.277-1.516-.277-3.212-.277H7.36c-1.695 0-2.543 0-3.211.277a3.64 3.64 0 0 0-1.97 1.97c-.277.668-.277 1.516-.277 3.212M12.364 6.45a3.639 3.639 0 1 1-7.277 0 3.639 3.639 0 0 1 7.277 0Z"/></svg><svg viewBox="0 0 20 20" id="nav-settings" xmlns="http://www.w3.org/2000/svg"><path d="M3.42 18.457v-5.64m0 0a1.88 1.88 0 1 0 0-3.759 1.88 1.88 0 0 0 0 3.76Zm0-7.518v-3.76M10 18.457v-5.64M10 5.3V1.54m0 3.76a1.88 1.88 0 1 0 0 3.76 1.88 1.88 0 0 0 0-3.76Zm6.58 13.158v-3.76m0 0a1.88 1.88 0 1 0 0-3.76 1.88 1.88 0 0 0 0 3.76Zm0-7.519V1.54"/></svg><svg viewBox="0 0 20 20" id="nav-support" xmlns="http://www.w3.org/2000/svg"><path d="M9.724 13.063a.941.941 0 0 0-.931.943c0 .502.404.944.931.944a.952.952 0 0 0 .944-.944.952.952 0 0 0-.944-.944Zm.159-7.141c-1.654 0-2.414.98-2.414 1.642 0 .478.404.698.735.698.662 0 .392-.943 1.642-.943.613 0 1.103.27 1.103.833 0 .662-.686 1.042-1.09 1.385-.356.306-.822.809-.822 1.863 0 .637.172.82.674.82.6 0 .723-.269.723-.502 0-.637.013-1.005.687-1.531.33-.258 1.372-1.091 1.372-2.243s-1.042-2.022-2.61-2.022Z"/><path d="M10 .5C4.75.5.5 4.749.5 10v8.758c0 .41.332.742.742.742H10c5.25 0 9.5-4.249 9.5-9.5 0-5.25-4.249-9.5-9.5-9.5Zm0 17.516H1.984V10A8.011 8.011 0 0 1 10 1.984 8.011 8.011 0 0 1 18.016 10 8.011 8.011 0 0 1 10 18.016Z"/></svg><svg viewBox="0 0 16 18" id="order-details" xmlns="http://www.w3.org/2000/svg"><path d="M9.022 8.23H4.39m1.544 3.087H4.39m6.178-6.176H4.389m9.267 2.702V4.987c0-1.297 0-1.946-.253-2.441a2.316 2.316 0 0 0-1.012-1.012c-.496-.253-1.145-.253-2.442-.253H5.007c-1.298 0-1.947 0-2.442.253a2.32 2.32 0 0 0-1.013 1.012C1.3 3.04 1.3 3.69 1.3 4.986v8.03c0 1.297 0 1.945.252 2.44.222.437.577.79 1.013 1.013.495.252 1.144.252 2.442.252h2.085m8.108 0-1.158-1.158m.772-1.93a2.702 2.702 0 1 1-5.405 0 2.702 2.702 0 0 1 5.405 0Z"/></svg><svg viewBox="0 0 8 7" id="pass-novalid" xmlns="http://www.w3.org/2000/svg"><path fill-rule="evenodd" clip-rule="evenodd" d="M6.806.35a.51.51 0 0 1 0 .713L4.702 3.2l2.104 2.137a.51.51 0 0 1 0 .713.49.49 0 0 1-.701 0L4 3.913 1.895 6.051a.49.49 0 0 1-.701 0 .51.51 0 0 1 0-.713l2.104-2.137-2.104-2.138a.51.51 0 0 1 0-.713.49.49 0 0 1 .701 0L4 2.488 6.105.35a.49.49 0 0 1 .701 0Z"/></svg><svg viewBox="0 0 8 6" id="pass-valid" xmlns="http://www.w3.org/2000/svg"><path d="m6.833 1-4.01 4.01L1 3.188"/></svg><svg viewBox="0 0 13 14" id="plus" xmlns="http://www.w3.org/2000/svg"><path d="M6.502 3.21v7.584M2.71 7.003h7.583"/></svg><svg viewBox="0 0 15 18" id="reports" xmlns="http://www.w3.org/2000/svg"><path d="M12.985 9.381V5.022c0-1.285 0-1.927-.25-2.418a2.295 2.295 0 0 0-1.002-1.002c-.491-.25-1.133-.25-2.418-.25H4.42c-1.285 0-1.928 0-2.418.25-.432.22-.783.57-1.003 1.002-.25.49-.25 1.133-.25 2.418v7.953c0 1.285 0 1.927.25 2.418.22.432.57.783 1.003 1.003.49.25 1.133.25 2.418.25h2.447m1.53-8.412h-4.59m1.53 3.059h-1.53m6.118-6.118H3.81m4.97 9.177 1.53 1.529 3.441-3.441"/></svg><svg viewBox="0 0 25 25" id="search" xmlns="http://www.w3.org/2000/svg"><path d="m21.098 21.188-3.5-3.5m2.5-6a8.5 8.5 0 1 1-17 0 8.5 8.5 0 0 1 17 0Z"/></svg><svg viewBox="0 0 9 10" id="secure" xmlns="http://www.w3.org/2000/svg"><path d="M7.93 4.49h-.717V2.117c0-.75-.604-1.357-1.349-1.357H3.251c-.746 0-1.35.607-1.35 1.357V4.49h-.716a.338.338 0 0 0-.337.34V8.9c0 .188.15.34.337.34H7.93a.338.338 0 0 0 .337-.34V4.83c0-.188-.15-.34-.337-.34ZM4.852 7.005v.562a.085.085 0 0 1-.084.085h-.421a.085.085 0 0 1-.085-.085v-.562a.509.509 0 0 1 .593-.825.509.509 0 0 1-.003.825ZM6.454 4.49H2.66V2.116c0-.328.265-.594.59-.594h2.614c.326 0 .59.266.59.594V4.49Z"/></svg><svg viewBox="0 0 19 20" id="settings" xmlns="http://www.w3.org/2000/svg"><path d="M9.5 12.374a2.375 2.375 0 1 0 0-4.75 2.375 2.375 0 0 0 0 4.75Z"/><path d="M14.826 12.158a1.187 1.187 0 0 0 .238 1.31l.043.043a1.439 1.439 0 0 1-1.018 2.459 1.44 1.44 0 0 1-1.019-.422l-.043-.044a1.189 1.189 0 0 0-1.31-.237 1.188 1.188 0 0 0-.72 1.087v.122a1.44 1.44 0 1 1-2.878 0v-.065a1.188 1.188 0 0 0-.777-1.087 1.188 1.188 0 0 0-1.31.238l-.043.043a1.44 1.44 0 1 1-2.037-2.037l.043-.043a1.187 1.187 0 0 0 .237-1.31 1.187 1.187 0 0 0-1.086-.72h-.123a1.44 1.44 0 0 1 0-2.878h.065a1.187 1.187 0 0 0 1.087-.777 1.187 1.187 0 0 0-.238-1.31l-.043-.043A1.44 1.44 0 1 1 5.931 4.45l.043.043a1.188 1.188 0 0 0 1.31.238h.058a1.188 1.188 0 0 0 .72-1.087V3.52a1.44 1.44 0 1 1 2.878 0v.065a1.188 1.188 0 0 0 .72 1.087 1.188 1.188 0 0 0 1.31-.238l.043-.043A1.44 1.44 0 1 1 15.05 6.43l-.044.043a1.187 1.187 0 0 0-.237 1.31v.058a1.188 1.188 0 0 0 1.087.72h.122a1.44 1.44 0 1 1 0 2.878h-.065a1.187 1.187 0 0 0-1.087.72Z"/></svg><svg viewBox="0 0 19 18" id="share" xmlns="http://www.w3.org/2000/svg"><path d="M16.25 6.75v-4.5m0 0h-4.5m4.5 0L9.5 9M8 2.25H6.35c-1.26 0-1.89 0-2.371.245a2.25 2.25 0 0 0-.984.984c-.245.48-.245 1.11-.245 2.371v6.3c0 1.26 0 1.89.245 2.371.216.424.56.768.984.984.48.245 1.11.245 2.371.245h6.3c1.26 0 1.89 0 2.371-.245a2.25 2.25 0 0 0 .984-.984c.245-.48.245-1.11.245-2.371V10.5"/></svg><svg viewBox="0 0 16 19" id="shield" xmlns="http://www.w3.org/2000/svg"><g clip-path="url(#cia)"><path d="M10.928 6.922a.587.587 0 0 0-.839 0l-3.295 3.336-.884-.895a.587.587 0 0 0-.838 0 .605.605 0 0 0 0 .848l1.303 1.32a.587.587 0 0 0 .839 0l3.713-3.76a.605.605 0 0 0 0-.85Z"/><path d="M15.02 4.252 8.3.205a.586.586 0 0 0-.606 0L.977 4.252a.602.602 0 0 0-.29.516v2.31c0 4.865 2.777 9.309 7.097 11.003a.59.59 0 0 0 .428 0c4.31-1.69 7.097-6.124 7.097-11.003v-2.31a.601.601 0 0 0-.29-.516Zm-.896 2.826c0 4.477-2.55 8.29-6.126 9.797-3.578-1.508-6.125-5.323-6.125-9.797V5.109l6.125-3.69 6.126 3.69v1.969Z"/></g><defs><clipPath id="cia"><path transform="translate(0 .121)" d="M0 0h16v18H0z"/></clipPath></defs></svg><svg viewBox="0 0 36 36" id="slide-arrow" xmlns="http://www.w3.org/2000/svg"><path d="M19.863 11.981a.56.56 0 0 0-.815 0 .62.62 0 0 0 0 .851l4.366 4.559H11.813c-.32 0-.579.27-.579.604 0 .333.26.604.579.604h11.596l-4.367 4.559a.615.615 0 0 0-.17.425c0 .16.062.313.17.426a.556.556 0 0 0 .41.175.58.58 0 0 0 .411-.175l5.35-5.585a.612.612 0 0 0 .168-.43.637.637 0 0 0-.168-.428l-5.35-5.585Z"/><path fill-rule="evenodd" clip-rule="evenodd" d="M1.979 11.222A17.682 17.682 0 0 1 18.318.305a17.571 17.571 0 0 1 12.503 5.182c6.905 6.906 6.905 18.103 0 25.008-6.905 6.906-18.1 6.906-25.006 0A17.684 17.684 0 0 1 1.98 11.222Zm.298 6.77c0 8.843 7.198 16.042 16.04 16.042 8.842 0 16.04-7.198 16.04-16.042 0-8.843-7.198-16.04-16.04-16.04-8.842 0-16.04 7.197-16.04 16.04Z"/></svg><svg viewBox="0 0 14 12" id="sort-arrows" xmlns="http://www.w3.org/2000/svg"><path fill-rule="evenodd" clip-rule="evenodd" d="M11.029 1.955v8.121c0 .274-.268.495-.597.495-.33 0-.597-.221-.597-.495v-8.12L8.044 3.438a.687.687 0 0 1-.844 0 .438.438 0 0 1 0-.7L10.01.412a.687.687 0 0 1 .844 0l2.81 2.329a.438.438 0 0 1 0 .7.687.687 0 0 1-.845 0l-1.79-1.485Zm-7.025-.03c0-.273-.267-.495-.597-.495-.33 0-.597.222-.597.495v8.12L1.02 8.563a.687.687 0 0 0-.845 0 .438.438 0 0 0 0 .7l2.81 2.329a.688.688 0 0 0 .844 0l2.81-2.33a.438.438 0 0 0 0-.7.687.687 0 0 0-.844 0l-1.79 1.485V1.925Z"/></svg><svg viewBox="0 0 16 16" id="star" xmlns="http://www.w3.org/2000/svg"><path d="m8.531.42 1.858 3.918a.723.723 0 0 0 .543.405l4.208.644a.724.724 0 0 1 .404 1.221l-3.087 3.16a.724.724 0 0 0-.195.629l.752 4.063a.723.723 0 0 1-1.012.788L8.206 13.52a.724.724 0 0 0-.6 0L3.78 15.241a.724.724 0 0 1-1.012-.78l.723-4.02a.723.723 0 0 0-.195-.63L.21 6.637a.723.723 0 0 1 .404-1.214l4.208-.644a.723.723 0 0 0 .543-.44L7.23.418a.723.723 0 0 1 1.301 0Z"/></svg><svg viewBox="0 0 19 19" id="transaction" xmlns="http://www.w3.org/2000/svg"><g clip-path="url(#cma)"><path d="M9.5 5.563a.658.658 0 0 0-.656.656v.118a1.962 1.962 0 0 0-1.313 1.85c0 1.083.886 1.97 1.969 1.97.36 0 .656.295.656.655a.659.659 0 0 1-.656.657.657.657 0 0 1-.617-.446.66.66 0 0 0-.827-.42.66.66 0 0 0-.42.826c.197.591.65 1.037 1.208 1.234v.118c0 .361.295.656.656.656.36 0 .656-.295.656-.656v-.118a1.963 1.963 0 0 0 1.313-1.85A1.975 1.975 0 0 0 9.5 8.842a.658.658 0 0 1-.656-.655c0-.361.295-.657.656-.657.276 0 .532.184.617.447a.66.66 0 0 0 .827.42.66.66 0 0 0 .42-.827 1.962 1.962 0 0 0-1.208-1.234v-.118a.658.658 0 0 0-.656-.657Z"/><path d="m15.072 3.036-.092-.079a8.422 8.422 0 0 0-1.345-.919 8.514 8.514 0 0 0-10.592 1.89l-.079.092c-.072.086-.144.17-.184.23-.052.066-.098.138-.15.21l-.276-.952a.661.661 0 0 0-.814-.452.661.661 0 0 0-.453.813l.722 2.52a.647.647 0 0 0 .63.473.61.61 0 0 0 .184-.026l2.526-.722a.658.658 0 1 0-.36-1.267l-1.05.302c.032-.04.059-.085.091-.125.04-.059.092-.111.138-.164l.079-.098a7.198 7.198 0 0 1 8.951-1.582c.348.197.657.394.965.637.059.04.112.085.164.131l.098.079a7.214 7.214 0 0 1 2.488 5.453c0 .361.295.656.656.656.36 0 .656-.295.656-.656 0-2.48-1.07-4.83-2.96-6.464l.007.02ZM3.93 15.966l.092.078c.085.072.17.145.23.184.334.269.701.505 1.115.735a8.427 8.427 0 0 0 4.134 1.07 8.557 8.557 0 0 0 6.464-2.96l.08-.092a3.48 3.48 0 0 0 .183-.23c.052-.065.098-.137.15-.21l.27.952a.652.652 0 0 0 .814.446.661.661 0 0 0 .452-.813l-.722-2.527a.662.662 0 0 0-.814-.453l-2.526.722a.661.661 0 0 0-.453.814.661.661 0 0 0 .814.452l1.05-.301c-.033.039-.059.085-.092.124-.04.06-.085.112-.131.164l-.085.099a7.198 7.198 0 0 1-8.105 1.982 6.965 6.965 0 0 1-.847-.407 6.81 6.81 0 0 1-.964-.637 1.076 1.076 0 0 1-.164-.137l-.099-.08A7.204 7.204 0 0 1 2.29 9.489a.658.658 0 0 0-.656-.656.658.658 0 0 0-.656.656c0 2.48 1.076 4.83 2.96 6.464l-.007.014Z"/></g><defs><clipPath id="cma"><path d="M0 0h19v19H0z"/></clipPath></defs></svg><svg viewBox="0 0 20 20" id="trash" xmlns="http://www.w3.org/2000/svg"><path d="M13.333 5.001v-.666c0-.934 0-1.4-.181-1.757a1.667 1.667 0 0 0-.729-.728c-.356-.182-.823-.182-1.756-.182H9.333c-.933 0-1.4 0-1.756.182-.314.16-.569.414-.729.728-.181.357-.181.823-.181 1.757V5m1.666 4.584v4.166m3.334-4.166v4.166M2.5 5.001h15m-1.667 0v9.334c0 1.4 0 2.1-.272 2.635a2.5 2.5 0 0 1-1.093 1.092c-.534.273-1.235.273-2.635.273H8.167c-1.4 0-2.1 0-2.635-.273a2.5 2.5 0 0 1-1.093-1.092c-.272-.535-.272-1.235-.272-2.635V5"/></svg><svg viewBox="0 0 26 27" id="upload" xmlns="http://www.w3.org/2000/svg"><path d="M15.456 2.933V7.42c0 .609 0 .913.119 1.145.104.204.27.37.474.475.233.118.537.118 1.145.118h4.487m-11.656 7.604 3.259-3.26m0 0 3.258 3.26m-3.258-3.26v6.647m2.172-17.508H9.808c-1.825 0-2.738 0-3.435.355A3.259 3.259 0 0 0 4.95 4.42c-.355.697-.355 1.61-.355 3.435v11.297c0 1.825 0 2.737.355 3.434a3.258 3.258 0 0 0 1.424 1.424c.697.356 1.61.356 3.435.356h6.952c1.825 0 2.737 0 3.434-.356a3.259 3.259 0 0 0 1.425-1.424c.355-.697.355-1.61.355-3.434V9.158l-6.518-6.517Z"/></svg><svg viewBox="0 0 19 20" id="user" xmlns="http://www.w3.org/2000/svg"><path d="M15.835 17.125c0-1.105 0-1.657-.137-2.107a3.167 3.167 0 0 0-2.11-2.11c-.45-.137-1.003-.137-2.107-.137h-3.96c-1.105 0-1.657 0-2.107.136a3.167 3.167 0 0 0-2.11 2.111c-.137.45-.137 1.002-.137 2.107m9.896-10.688a3.563 3.563 0 1 1-7.125 0 3.563 3.563 0 0 1 7.125 0Z"/></svg><svg viewBox="0 0 19 19" id="users" xmlns="http://www.w3.org/2000/svg"><path d="M17.854 17.017v-1.67a3.343 3.343 0 0 0-2.506-3.237m-2.924-9.887a3.343 3.343 0 0 1 0 6.198m1.253 8.596c0-1.557 0-2.335-.254-2.95a3.341 3.341 0 0 0-1.809-1.808c-.614-.254-1.392-.254-2.95-.254H6.16c-1.557 0-2.336 0-2.95.254-.819.34-1.469.99-1.808 1.809-.255.614-.255 1.392-.255 2.95m9.607-11.696a3.342 3.342 0 1 1-6.683 0 3.342 3.342 0 0 1 6.683 0Z"/></svg><svg viewBox="0 0 14 14" id="wrong-pass" xmlns="http://www.w3.org/2000/svg"><rect x="1.063" y="1.063" width="11.875" height="11.875" rx="5.938"/><path fill-rule="evenodd" clip-rule="evenodd" d="M9.806 4.35a.51.51 0 0 1 0 .713L7.702 7.2l2.104 2.137a.51.51 0 0 1 0 .713.49.49 0 0 1-.701 0L7 7.913l-2.105 2.138a.49.49 0 0 1-.701 0 .51.51 0 0 1 0-.713l2.104-2.137-2.104-2.138a.51.51 0 0 1 0-.713.49.49 0 0 1 .701 0L7 6.488 9.105 4.35a.49.49 0 0 1 .701 0Z"/></svg></svg>