<svg width="60" height="60" fill="none" xmlns="http://www.w3.org/2000/svg"><rect x="60" width="60" height="60" rx="30" transform="rotate(90 60 0)" fill="#5DA0EF"/><path d="M35.544 35.313c-.678 0-1.231.553-1.231 1.231s.553 1.232 1.231 1.232 1.232-.554 1.232-1.232c0-.678-.554-1.231-1.232-1.231Z" fill="#fff"/><path d="M35.548 31.152a5.39 5.39 0 0 0-5.384 5.384 5.39 5.39 0 0 0 5.384 5.384 5.39 5.39 0 0 0 5.383-5.384 5.39 5.39 0 0 0-5.383-5.384Zm0 8a2.618 2.618 0 0 1-2.616-2.616c0-1.44 1.17-2.616 2.616-2.616a2.618 2.618 0 0 1 2.615 2.616 2.618 2.618 0 0 1-2.615 2.616ZM36.297 43.264l1.495 3.605c.11.256.366.422.643.422h.055a.685.685 0 0 0 .616-.526l.505-2.131 1.869 1.149a.699.699 0 0 0 .816-.07.682.682 0 0 0 .187-.788l-1.702-4.097a6.727 6.727 0 0 1-4.484 2.436ZM29.614 45.79l1.875-1.148.505 2.131c.07.29.319.505.616.526h.055a.687.687 0 0 0 .637-.422l1.502-3.605a6.784 6.784 0 0 1-4.484-2.436l-1.703 4.09a.682.682 0 0 0 .187.788.689.689 0 0 0 .81.077Z" fill="#fff"/><path d="M20.208 42.434h7.48c.187 0 .36-.076.492-.208l.104-.104 1.134-2.733a6.646 6.646 0 0 1-.636-2.851c0-3.73 3.038-6.768 6.767-6.768 1.405 0 2.706.43 3.792 1.163l.388-.387a.681.681 0 0 0 .2-.485V15.44a2.748 2.748 0 0 0-2.747-2.74H24.706v6.545c0 .381-.311.692-.692.692h-6.553v19.75a2.75 2.75 0 0 0 2.747 2.747Zm8.352-25.168h7.024c.38 0 .692.312.692.692 0 .38-.311.692-.692.692H28.56a.694.694 0 0 1-.692-.692c0-.38.312-.692.692-.692ZM21.8 22.43h13.784c.38 0 .692.31.692.692 0 .38-.311.692-.692.692H21.8a.694.694 0 0 1-.692-.692c0-.381.311-.692.692-.692Zm0 5.162h13.784c.38 0 .692.311.692.692 0 .38-.311.692-.692.692H21.8a.694.694 0 0 1-.692-.692c0-.38.311-.692.692-.692Z" fill="#fff"/><path d="m23.324 13.676-4.879 4.878h4.879v-4.878Z" fill="#fff"/></svg>