<svg width="60" height="60" fill="none" xmlns="http://www.w3.org/2000/svg"><rect x="60" width="60" height="60" rx="30" transform="rotate(90 60 0)" fill="#5DA0EF"/><path d="m25.513 32.098-1.24 2.59h2.48l-1.24-2.59ZM37.18 14.55v5.076h4.858l-4.858-5.075Z" fill="#fff"/><path d="M36.283 21.5c-.495 0-.897-.42-.897-.938V14H20.132c-.496 0-.898.42-.898.938v10.374h18.844c.496 0 .897.42.897.938v15c0 .518-.401.938-.897.938H19.234v2.874c0 .518.402.938.898.938h21.535c.496 0 .898-.42.898-.938V21.5h-6.282Z" fill="#fff"/><path d="M18.343 27.188c-.496 0-.898.42-.898.937v11.25c0 .518.402.938.898.938h18.843V27.187H18.343Zm11.169 11.15a.867.867 0 0 1-.4.1.894.894 0 0 1-.804-.519l-.65-1.356h-4.274l-.65 1.356a.883.883 0 0 1-1.203.42c-.444-.232-.623-.795-.402-1.258l3.59-7.5a.88.88 0 0 1 1.605 0l3.59 7.5c.22.463.041 1.026-.402 1.258Zm4.085-.838c0 .518-.401.938-.897.938s-.898-.42-.898-.938v-3.75c0-.518.402-.938.898-.938s.897.42.897.938v3.75Zm-.897-6.563c-.496 0-.898-.42-.898-.937 0-.518.402-.938.898-.938.495 0 .897.42.897.938s-.402.938-.897.938Z" fill="#fff"/></svg>