<svg width="30" height="30" fill="none" xmlns="http://www.w3.org/2000/svg"><g clip-path="url(#a)" fill="#088C5E"><path d="M28.672 4.8a1.093 1.093 0 0 0-1.546-.003L14.014 17.875l-4.73-5.139a1.093 1.093 0 0 0-1.608 1.481l5.5 5.975a1.091 1.091 0 0 0 1.577.034L28.67 6.345a1.093 1.093 0 0 0 .002-1.546Z"/><path d="M28.407 14.241c-.604 0-1.093.49-1.093 1.093 0 6.79-5.524 12.314-12.314 12.314S2.686 22.124 2.686 15.334 8.21 3.02 15 3.02a1.093 1.093 0 1 0 0-2.186C7.005.834.5 7.339.5 15.334s6.505 14.5 14.5 14.5 14.5-6.505 14.5-14.5c0-.604-.49-1.093-1.093-1.093Z"/></g><defs><clipPath id="a"><path fill="#fff" transform="translate(.5 .834)" d="M0 0h29v29H0z"/></clipPath></defs></svg>