<svg width="19" height="20" fill="none" xmlns="http://www.w3.org/2000/svg"><path d="M12.93 9.492h-.717V7.117c0-.75-.604-1.357-1.349-1.357H8.25c-.745 0-1.348.607-1.348 1.357v2.375h-.717a.338.338 0 0 0-.337.34v4.07c0 .188.15.34.337.34h6.745a.338.338 0 0 0 .337-.34v-4.07c0-.188-.15-.34-.337-.34Zm-3.078 2.513v.562a.085.085 0 0 1-.084.085h-.421a.085.085 0 0 1-.085-.085v-.562a.509.509 0 0 1 .593-.825.51.51 0 0 1-.003.825Zm1.602-2.513H7.66V7.117c0-.328.265-.594.59-.594h2.614c.326 0 .59.266.59.594v2.375Z" fill="#9AA2AC"/><path d="M18.499 10c0 4.973-4.007 9-8.943 9S.613 14.973.613 10 4.62 1 9.556 1 18.5 5.027 18.5 10Z" stroke="#9AA2AC"/></svg>