<svg width="30" height="31" fill="none" xmlns="http://www.w3.org/2000/svg"><path d="M18.03 27.547c-.248.062-.5.117-.75.163a1.207 1.207 0 0 0 .439 2.372c.298-.056.598-.12.893-.194a1.206 1.206 0 1 0-.583-2.34ZM26.948 11.382a1.205 1.205 0 1 0 2.29-.758 15.036 15.036 0 0 0-.314-.858 1.206 1.206 0 1 0-2.24.895c.095.237.184.48.264.721ZM21.948 25.826c-.212.14-.432.276-.653.403a1.206 1.206 0 0 0 1.205 2.09c.263-.152.525-.313.778-.481a1.206 1.206 0 0 0-1.33-2.012ZM29.99 14.75a1.206 1.206 0 0 0-2.41.095c.01.255.012.513.006.767a1.204 1.204 0 0 0 1.179 1.232 1.206 1.206 0 0 0 1.232-1.179c.007-.303.004-.611-.008-.914ZM26.753 22.653a1.206 1.206 0 0 0-1.69.24c-.152.205-.313.406-.479.6a1.206 1.206 0 0 0 1.837 1.564c.197-.231.39-.472.572-.716.4-.533.292-1.288-.24-1.688ZM28.526 18.293a1.206 1.206 0 0 0-1.511.79c-.076.243-.16.487-.252.726a1.207 1.207 0 0 0 2.254.859c.108-.284.208-.575.3-.863a1.206 1.206 0 0 0-.79-1.512ZM12.769 27.72a12.453 12.453 0 0 1-3.094-.982l-.034-.019a13.143 13.143 0 0 1-.685-.347l-.004-.002c-.41-.226-.81-.476-1.2-.75C2.08 21.624.715 13.757 4.712 8.084a12.532 12.532 0 0 1 3.093-3.077l.043-.03c4.132-2.847 9.742-3.04 14.129-.114l-.942 1.362c-.262.378-.101.655.357.613l4.093-.366c.46-.041.734-.439.61-.882l-1.099-3.96c-.123-.444-.438-.497-.7-.118l-.944 1.364A14.894 14.894 0 0 0 12.438.556c-.386.067-.767.148-1.142.244h-.008c-.014.004-.029.01-.043.013A14.871 14.871 0 0 0 2.999 6.34c-.018.02-.036.04-.052.063a14.208 14.208 0 0 0-.521.752c-.013.019-.023.038-.034.058a14.868 14.868 0 0 0-2.377 8.77v.03c.014.303.038.61.07.912.002.02.007.037.01.057a14.884 14.884 0 0 0 4.326 8.984l.015.016.006.004c.59.582 1.23 1.12 1.921 1.606a14.87 14.87 0 0 0 5.98 2.503 1.206 1.206 0 1 0 .426-2.374Z" fill="#5DA0EF"/><path d="M14.261 5.588a.976.976 0 0 0-.976.976v9.721l8.891 4.596a.976.976 0 0 0 .896-1.733l-7.836-4.051V6.564a.976.976 0 0 0-.975-.976Z" fill="#5DA0EF"/></svg>