<svg width="60" height="60" fill="none" xmlns="http://www.w3.org/2000/svg"><rect x="60" width="60" height="60" rx="30" transform="rotate(90 60 0)" fill="#5DA0EF"/><path d="M40.003 38.344c-.12.12-.24.239-.359.299l-4.307 1.914c-.179.06-.299.12-.478.12H25.169c-1.136 0-1.136-1.795 0-1.795h8.673l1.256-4.247c.06-.18.12-.299.24-.418l5.383-6.042 1.794-2.033V23.809h-6.52c-1.076 0-1.914-.897-1.914-1.914v-6.34H20.384a2.936 2.936 0 0 0-2.93 2.93v23.029a2.936 2.936 0 0 0 2.93 2.93h19.14a2.936 2.936 0 0 0 2.931-2.93v-5.922l-1.794 2.034-.658.718Zm-6.101-3.769h-8.733c-1.136 0-1.136-1.794 0-1.794h8.733c1.136 0 1.136 1.794 0 1.794Zm.837-7.237c1.137 0 1.137 1.794 0 1.794h-9.57c-1.136 0-1.136-1.794 0-1.794h9.57Z" fill="#fff"/><path d="M35.813 21.895c0 .06.06.12.12.12h5.741c0-.06-.06-.06-.06-.12l-5.502-5.503c-.06-.06-.18-.18-.3-.24v5.742ZM44.938 26.023l.632-.718 1.977 1.74-.633.718-1.977-1.74ZM37.188 34.753l2.033 1.794 6.52-7.417-1.974-1.794-6.58 7.417ZM35.813 38.344l1.854-.778-1.256-1.136-.599 1.914Z" fill="#fff"/></svg>