<svg width="161" height="510" fill="none" xmlns="http://www.w3.org/2000/svg"><mask id="a" maskUnits="userSpaceOnUse" x="0" y="60.494" width="161" height="450" fill="#000"><path fill="#fff" d="M0 60.494h161v450H0z"/><path d="M154.372 257.842c-.569-1.846-.052-2.415-.396-3.901-.249-1.078-.33-1.611-1.093-3.136-.178-.356-.637-5.615-.843-9.303-.869-8.406-1.992-48.954-3.359-56.336-1.498-8.088-4.275-14.188-5.356-19.581-1.08-5.393-.33-10.983-.81-22.367-.178-4.211-1.317-13.181-.718-20.972.599-7.791-.249-24.377-6.291-32.656-3.295-4.511-11.418-6.104-19.427-8.228-8.007-2.125-17.182-5.007-19.792-9.387-.623-1.045-2.267-5.984-2.267-9.749l-26.51-.29c-.25 3.506-1.72 8.748-2.462 9.995-2.609 4.376-11.614 7.306-19.622 9.43C37.418 83.487 29.294 85.08 26 89.59c-6.042 8.28-6.89 24.866-6.291 32.657.599 7.791-.54 16.761-.718 20.972-.48 11.384.27 16.974-.81 22.367-1.08 5.393-3.859 11.493-5.356 19.581-1.366 7.375-2.488 47.857-3.357 56.314-.203 3.631-.676 8.871-.852 9.224-.764 1.529-.855 2.064-1.104 3.145-.344 1.49.182 2.058-.388 3.909-.235.763-.752 3.609-1.744 6.477-1.412 4.082-3.379 8.482-3.38 9.322-.003 2.649 1.787 11.939 3.54 14.22 1.608 2.089 8.557 6.349 9.696 6.349 1.139 0 1.708-1.14 1.708-1.14s1.96.675 2.278-.712c.427-1.862-1.853-2.999-2.707-3.71-.854-.712-3.006-1.884-4.144-4.162-1.14-2.277-.844-11.033.447-11.272 2.043-.378 2.081 2.586 1.944 5.067-.096 1.711-.276 5.512 1.81 5.717 3.849.378 2.794-7.225 2.794-9.503 0-2.277 1.352-5.131 1.565-7.117.427-3.985-2.847-8.256-2.847-11.671 0-.925 1.014-5.019 2.49-10.624 3.33-13.936 16.016-56.11 16.016-62.845 0-5.021 1.026-13.222 1.507-18.41.296-3.205 1.942-16.047 3.25-26.714 1.3 2.763 2.276 3.577 3.09 4.717.287 6.221 1.397 19.7 1.744 23.517.511 5.619 2.554 10.475 1.506 18.113-.73 5.31-4.278 10.036-6.023 13.743-3.759 7.988-6.52 18.947-7.549 25.259-1.924 11.801-2.46 17.03-3.141 21.117s-4.309 19.438-4.139 29.315c.17 9.876 13.112 70.328 13.283 72.714.17 2.383-.51 7.318-.34 10.384.17 3.065 1.361 8.684 1.361 11.583 0 2.895-4.21 17.019-4.257 24.35-.17 26.735 7.171 72.115 7.342 76.03.17 3.915-.885 6.278-1.093 7.735-.208 1.458-1.025 4.257-.713 6.024-2.707 5.206-10.41 13.12-12.493 14.16-2.082 1.041-3.325 2.454-3.873 3.65-.237.516.003 1.215.41 1.501-.544 1.564.65 2.299 1.413 2.164-.018.707.458 1.203.831 1.398 1.435.75 2.388-.489 2.388-.489s-.133 1.179 1.447 1.993c1.446.751 3.422-.849 3.422-.849s-.912 1.783 1.121 2.863c1.52.806 4.064.512 6.063-.366 3.2-1.405 5.55-4.427 5.83-4.681.494-.457 2.43-.894 3.768-2.077 2.148-1.898 1.88-3.074 2.582-3.86.429-.476 3.795-.544 6.232-2.994 1.785-1.795 1.077-5.706.695-7.175-.644-2.474-1.306-5.341-1.306-6.175 0-.83-.051-3.498-.155-5.162-.105-1.668-1.943-5.023-2.091-9.506-.13-3.932 9.669-57.157 9.395-64.817-.274-7.664-2.147-11.754-1.977-16.861.17-5.106 4.939-16.689 5.79-27.415.852-10.729-2.043-13.453-1.702-18.734.34-5.278 6.81-55.852 7.152-61.812.26-4.558-.084-7.075-.032-9.529.91.218 2.35.452 3.27.429 1.465-.037 2.323-.305 3.614-.543.176 2.609-.36 4.5-.065 9.643.34 5.96 6.81 56.534 7.151 61.812.34 5.281-2.554 8.005-1.703 18.734.852 10.726 5.62 22.309 5.79 27.415.17 5.107-1.703 9.197-1.976 16.861-.274 7.66 9.525 60.885 9.396 64.817-.149 4.483-1.988 7.838-2.092 9.506-.104 1.664-.155 4.332-.155 5.162 0 .834-.662 3.701-1.306 6.175-.381 1.469-1.09 5.38.695 7.175 2.437 2.45 5.803 2.518 6.233 2.994.701.786.433 1.962 2.581 3.86 1.338 1.183 3.274 1.62 3.769 2.077.28.254 2.629 3.276 5.829 4.681 1.999.878 4.543 1.172 6.063.366 2.033-1.08 1.121-2.863 1.121-2.863s1.976 1.6 3.423.849c1.58-.814 1.446-1.993 1.446-1.993s.953 1.239 2.387.489c.374-.195.85-.691.832-1.398.763.135 1.957-.6 1.413-2.164.407-.286.648-.985.41-1.501-.548-1.196-1.792-2.609-3.873-3.65-2.082-1.04-9.786-8.954-12.493-14.16.312-1.767-.505-4.566-.713-6.024-.208-1.457-1.263-3.82-1.093-7.735.17-3.915 7.512-49.295 7.342-76.03-.047-7.331-4.258-21.455-4.258-24.35 0-2.899 1.192-8.518 1.363-11.583.17-3.066-.511-8.001-.341-10.384.17-2.386 13.112-62.838 13.282-72.714.17-9.877-3.457-25.228-4.138-29.315s-1.217-9.316-3.141-21.117c-1.03-6.312-3.79-17.271-7.549-25.259-1.745-3.707-5.294-8.433-6.023-13.743-1.048-7.638.994-12.494 1.506-18.113.347-3.817 1.285-17.62 1.573-23.841 1.366-1.105 2.792-2.801 3.16-4.739 1.307 10.666 3.054 23.855 3.352 27.06.479 5.188 1.505 13.389 1.505 18.41 0 6.718 12.093 48.126 15.459 62.17-.008.001-.016.003 0 0 1.211 4.651 3.063 10.568 3.063 11.388 0 3.408-3.266 7.669-2.841 11.645.213 1.982 1.562 4.829 1.562 7.101 0 2.271-1.108 9.431 2.748 9.309 1.871-.058 1.591-4.004 1.733-5.708.142-1.704.013-5.257 2.052-4.879 1.287.237 1.582 8.973.446 11.245-1.136 2.273-3.28 3.441-4.133 4.151-.852.71-3.126 1.844-2.699 3.702.317 1.383 2.272.708 2.272.708s.568 1.14 1.704 1.14c1.136 0 8.067-4.249 9.671-6.333 1.749-2.276 3.535-11.544 3.532-14.188-.001-.838-1.964-5.228-3.373-9.3-.99-2.862-1.505-5.701-1.739-6.463Z"/></mask><path d="M154.372 257.842c-.569-1.846-.052-2.415-.396-3.901-.249-1.078-.33-1.611-1.093-3.136-.178-.356-.637-5.615-.843-9.303-.869-8.406-1.992-48.954-3.359-56.336-1.498-8.088-4.275-14.188-5.356-19.581-1.08-5.393-.33-10.983-.81-22.367-.178-4.211-1.317-13.181-.718-20.972.599-7.791-.249-24.377-6.291-32.656-3.295-4.511-11.418-6.104-19.427-8.228-8.007-2.125-17.182-5.007-19.792-9.387-.623-1.045-2.267-5.984-2.267-9.749l-26.51-.29c-.25 3.506-1.72 8.748-2.462 9.995-2.609 4.376-11.614 7.306-19.622 9.43C37.418 83.487 29.294 85.08 26 89.59c-6.042 8.28-6.89 24.866-6.291 32.657.599 7.791-.54 16.761-.718 20.972-.48 11.384.27 16.974-.81 22.367-1.08 5.393-3.859 11.493-5.356 19.581-1.366 7.375-2.488 47.857-3.357 56.314-.203 3.631-.676 8.871-.852 9.224-.764 1.529-.855 2.064-1.104 3.145-.344 1.49.182 2.058-.388 3.909-.235.763-.752 3.609-1.744 6.477-1.412 4.082-3.379 8.482-3.38 9.322-.003 2.649 1.787 11.939 3.54 14.22 1.608 2.089 8.557 6.349 9.696 6.349 1.139 0 1.708-1.14 1.708-1.14s1.96.675 2.278-.712c.427-1.862-1.853-2.999-2.707-3.71-.854-.712-3.006-1.884-4.144-4.162-1.14-2.277-.844-11.033.447-11.272 2.043-.378 2.081 2.586 1.944 5.067-.096 1.711-.276 5.512 1.81 5.717 3.849.378 2.794-7.225 2.794-9.503 0-2.277 1.352-5.131 1.565-7.117.427-3.985-2.847-8.256-2.847-11.671 0-.925 1.014-5.019 2.49-10.624 3.33-13.936 16.016-56.11 16.016-62.845 0-5.021 1.026-13.222 1.507-18.41.296-3.205 1.942-16.047 3.25-26.714 1.3 2.763 2.276 3.577 3.09 4.717.287 6.221 1.397 19.7 1.744 23.517.511 5.619 2.554 10.475 1.506 18.113-.73 5.31-4.278 10.036-6.023 13.743-3.759 7.988-6.52 18.947-7.549 25.259-1.924 11.801-2.46 17.03-3.141 21.117s-4.309 19.438-4.139 29.315c.17 9.876 13.112 70.328 13.283 72.714.17 2.383-.51 7.318-.34 10.384.17 3.065 1.361 8.684 1.361 11.583 0 2.895-4.21 17.019-4.257 24.35-.17 26.735 7.171 72.115 7.342 76.03.17 3.915-.885 6.278-1.093 7.735-.208 1.458-1.025 4.257-.713 6.024-2.707 5.206-10.41 13.12-12.493 14.16-2.082 1.041-3.325 2.454-3.873 3.65-.237.516.003 1.215.41 1.501-.544 1.564.65 2.299 1.413 2.164-.018.707.458 1.203.831 1.398 1.435.75 2.388-.489 2.388-.489s-.133 1.179 1.447 1.993c1.446.751 3.422-.849 3.422-.849s-.912 1.783 1.121 2.863c1.52.806 4.064.512 6.063-.366 3.2-1.405 5.55-4.427 5.83-4.681.494-.457 2.43-.894 3.768-2.077 2.148-1.898 1.88-3.074 2.582-3.86.429-.476 3.795-.544 6.232-2.994 1.785-1.795 1.077-5.706.695-7.175-.644-2.474-1.306-5.341-1.306-6.175 0-.83-.051-3.498-.155-5.162-.105-1.668-1.943-5.023-2.091-9.506-.13-3.932 9.669-57.157 9.395-64.817-.274-7.664-2.147-11.754-1.977-16.861.17-5.106 4.939-16.689 5.79-27.415.852-10.729-2.043-13.453-1.702-18.734.34-5.278 6.81-55.852 7.152-61.812.26-4.558-.084-7.075-.032-9.529.91.218 2.35.452 3.27.429 1.465-.037 2.323-.305 3.614-.543.176 2.609-.36 4.5-.065 9.643.34 5.96 6.81 56.534 7.151 61.812.34 5.281-2.554 8.005-1.703 18.734.852 10.726 5.62 22.309 5.79 27.415.17 5.107-1.703 9.197-1.976 16.861-.274 7.66 9.525 60.885 9.396 64.817-.149 4.483-1.988 7.838-2.092 9.506-.104 1.664-.155 4.332-.155 5.162 0 .834-.662 3.701-1.306 6.175-.381 1.469-1.09 5.38.695 7.175 2.437 2.45 5.803 2.518 6.233 2.994.701.786.433 1.962 2.581 3.86 1.338 1.183 3.274 1.62 3.769 2.077.28.254 2.629 3.276 5.829 4.681 1.999.878 4.543 1.172 6.063.366 2.033-1.08 1.121-2.863 1.121-2.863s1.976 1.6 3.423.849c1.58-.814 1.446-1.993 1.446-1.993s.953 1.239 2.387.489c.374-.195.85-.691.832-1.398.763.135 1.957-.6 1.413-2.164.407-.286.648-.985.41-1.501-.548-1.196-1.792-2.609-3.873-3.65-2.082-1.04-9.786-8.954-12.493-14.16.312-1.767-.505-4.566-.713-6.024-.208-1.457-1.263-3.82-1.093-7.735.17-3.915 7.512-49.295 7.342-76.03-.047-7.331-4.258-21.455-4.258-24.35 0-2.899 1.192-8.518 1.363-11.583.17-3.066-.511-8.001-.341-10.384.17-2.386 13.112-62.838 13.282-72.714.17-9.877-3.457-25.228-4.138-29.315s-1.217-9.316-3.141-21.117c-1.03-6.312-3.79-17.271-7.549-25.259-1.745-3.707-5.294-8.433-6.023-13.743-1.048-7.638.994-12.494 1.506-18.113.347-3.817 1.285-17.62 1.573-23.841 1.366-1.105 2.792-2.801 3.16-4.739 1.307 10.666 3.054 23.855 3.352 27.06.479 5.188 1.505 13.389 1.505 18.41 0 6.718 12.093 48.126 15.459 62.17-.008.001-.016.003 0 0 1.211 4.651 3.063 10.568 3.063 11.388 0 3.408-3.266 7.669-2.841 11.645.213 1.982 1.562 4.829 1.562 7.101 0 2.271-1.108 9.431 2.748 9.309 1.871-.058 1.591-4.004 1.733-5.708.142-1.704.013-5.257 2.052-4.879 1.287.237 1.582 8.973.446 11.245-1.136 2.273-3.28 3.441-4.133 4.151-.852.71-3.126 1.844-2.699 3.702.317 1.383 2.272.708 2.272.708s.568 1.14 1.704 1.14c1.136 0 8.067-4.249 9.671-6.333 1.749-2.276 3.535-11.544 3.532-14.188-.001-.838-1.964-5.228-3.373-9.3-.99-2.862-1.505-5.701-1.739-6.463Z" fill="#F6F9FE"/><path d="M154.372 257.842c-.569-1.846-.052-2.415-.396-3.901-.249-1.078-.33-1.611-1.093-3.136-.178-.356-.637-5.615-.843-9.303-.869-8.406-1.992-48.954-3.359-56.336-1.498-8.088-4.275-14.188-5.356-19.581-1.08-5.393-.33-10.983-.81-22.367-.178-4.211-1.317-13.181-.718-20.972.599-7.791-.249-24.377-6.291-32.656-3.295-4.511-11.418-6.104-19.427-8.228-8.007-2.125-17.182-5.007-19.792-9.387-.623-1.045-2.267-5.984-2.267-9.749l-26.51-.29c-.25 3.506-1.72 8.748-2.462 9.995-2.609 4.376-11.614 7.306-19.622 9.43C37.418 83.487 29.294 85.08 26 89.59c-6.042 8.28-6.89 24.866-6.291 32.657.599 7.791-.54 16.761-.718 20.972-.48 11.384.27 16.974-.81 22.367-1.08 5.393-3.859 11.493-5.356 19.581-1.366 7.375-2.488 47.857-3.357 56.314-.203 3.631-.676 8.871-.852 9.224-.764 1.529-.855 2.064-1.104 3.145-.344 1.49.182 2.058-.388 3.909-.235.763-.752 3.609-1.744 6.477-1.412 4.082-3.379 8.482-3.38 9.322-.003 2.649 1.787 11.939 3.54 14.22 1.608 2.089 8.557 6.349 9.696 6.349 1.139 0 1.708-1.14 1.708-1.14s1.96.675 2.278-.712c.427-1.862-1.853-2.999-2.707-3.71-.854-.712-3.006-1.884-4.144-4.162-1.14-2.277-.844-11.033.447-11.272 2.043-.378 2.081 2.586 1.944 5.067-.096 1.711-.276 5.512 1.81 5.717 3.849.378 2.794-7.225 2.794-9.503 0-2.277 1.352-5.131 1.565-7.117.427-3.985-2.847-8.256-2.847-11.671 0-.925 1.014-5.019 2.49-10.624 3.33-13.936 16.016-56.11 16.016-62.845 0-5.021 1.026-13.222 1.507-18.41.296-3.205 1.942-16.047 3.25-26.714 1.3 2.763 2.276 3.577 3.09 4.717.287 6.221 1.397 19.7 1.744 23.517.511 5.619 2.554 10.475 1.506 18.113-.73 5.31-4.278 10.036-6.023 13.743-3.759 7.988-6.52 18.947-7.549 25.259-1.924 11.801-2.46 17.03-3.141 21.117s-4.309 19.438-4.139 29.315c.17 9.876 13.112 70.328 13.283 72.714.17 2.383-.51 7.318-.34 10.384.17 3.065 1.361 8.684 1.361 11.583 0 2.895-4.21 17.019-4.257 24.35-.17 26.735 7.171 72.115 7.342 76.03.17 3.915-.885 6.278-1.093 7.735-.208 1.458-1.025 4.257-.713 6.024-2.707 5.206-10.41 13.12-12.493 14.16-2.082 1.041-3.325 2.454-3.873 3.65-.237.516.003 1.215.41 1.501-.544 1.564.65 2.299 1.413 2.164-.018.707.458 1.203.831 1.398 1.435.75 2.388-.489 2.388-.489s-.133 1.179 1.447 1.993c1.446.751 3.422-.849 3.422-.849s-.912 1.783 1.121 2.863c1.52.806 4.064.512 6.063-.366 3.2-1.405 5.55-4.427 5.83-4.681.494-.457 2.43-.894 3.768-2.077 2.148-1.898 1.88-3.074 2.582-3.86.429-.476 3.795-.544 6.232-2.994 1.785-1.795 1.077-5.706.695-7.175-.644-2.474-1.306-5.341-1.306-6.175 0-.83-.051-3.498-.155-5.162-.105-1.668-1.943-5.023-2.091-9.506-.13-3.932 9.669-57.157 9.395-64.817-.274-7.664-2.147-11.754-1.977-16.861.17-5.106 4.939-16.689 5.79-27.415.852-10.729-2.043-13.453-1.702-18.734.34-5.278 6.81-55.852 7.152-61.812.26-4.558-.084-7.075-.032-9.529.91.218 2.35.452 3.27.429 1.465-.037 2.323-.305 3.614-.543.176 2.609-.36 4.5-.065 9.643.34 5.96 6.81 56.534 7.151 61.812.34 5.281-2.554 8.005-1.703 18.734.852 10.726 5.62 22.309 5.79 27.415.17 5.107-1.703 9.197-1.976 16.861-.274 7.66 9.525 60.885 9.396 64.817-.149 4.483-1.988 7.838-2.092 9.506-.104 1.664-.155 4.332-.155 5.162 0 .834-.662 3.701-1.306 6.175-.381 1.469-1.09 5.38.695 7.175 2.437 2.45 5.803 2.518 6.233 2.994.701.786.433 1.962 2.581 3.86 1.338 1.183 3.274 1.62 3.769 2.077.28.254 2.629 3.276 5.829 4.681 1.999.878 4.543 1.172 6.063.366 2.033-1.08 1.121-2.863 1.121-2.863s1.976 1.6 3.423.849c1.58-.814 1.446-1.993 1.446-1.993s.953 1.239 2.387.489c.374-.195.85-.691.832-1.398.763.135 1.957-.6 1.413-2.164.407-.286.648-.985.41-1.501-.548-1.196-1.792-2.609-3.873-3.65-2.082-1.04-9.786-8.954-12.493-14.16.312-1.767-.505-4.566-.713-6.024-.208-1.457-1.263-3.82-1.093-7.735.17-3.915 7.512-49.295 7.342-76.03-.047-7.331-4.258-21.455-4.258-24.35 0-2.899 1.192-8.518 1.363-11.583.17-3.066-.511-8.001-.341-10.384.17-2.386 13.112-62.838 13.282-72.714.17-9.877-3.457-25.228-4.138-29.315s-1.217-9.316-3.141-21.117c-1.03-6.312-3.79-17.271-7.549-25.259-1.745-3.707-5.294-8.433-6.023-13.743-1.048-7.638.994-12.494 1.506-18.113.347-3.817 1.285-17.62 1.573-23.841 1.366-1.105 2.792-2.801 3.16-4.739 1.307 10.666 3.054 23.855 3.352 27.06.479 5.188 1.505 13.389 1.505 18.41 0 6.718 12.093 48.126 15.459 62.17-.008.001-.016.003 0 0 1.211 4.651 3.063 10.568 3.063 11.388 0 3.408-3.266 7.669-2.841 11.645.213 1.982 1.562 4.829 1.562 7.101 0 2.271-1.108 9.431 2.748 9.309 1.871-.058 1.591-4.004 1.733-5.708.142-1.704.013-5.257 2.052-4.879 1.287.237 1.582 8.973.446 11.245-1.136 2.273-3.28 3.441-4.133 4.151-.852.71-3.126 1.844-2.699 3.702.317 1.383 2.272.708 2.272.708s.568 1.14 1.704 1.14c1.136 0 8.067-4.249 9.671-6.333 1.749-2.276 3.535-11.544 3.532-14.188-.001-.838-1.964-5.228-3.373-9.3-.99-2.862-1.505-5.701-1.739-6.463Z" stroke="#9AA0A9" stroke-width="2.384" mask="url(#a)"/><path d="M73.319 65.091c-.5-3.502 7.667-.258 7.667-.258s-.319 21.804-.263 24.302c-2.775-4.678-6.715-19.223-7.404-24.044Z" fill="#9AA0A9"/><path d="M88.135 65.091c.5-3.502-7.666-.258-7.666-.258s.317 21.804.262 24.302c2.775-4.678 6.715-19.223 7.404-24.044ZM78.654 95.44c-3.81-9.523-3.087-25.188-10.351-30.37-.211 2.95-.66 8.494-.109 11.095.955 4.499 5.085 12.853 10.46 19.274ZM41.34 104.593c9.166-5.5 25.105-7.334 33.457-4.276 6.11 7.941 4.555 39.232 4.555 39.232s-20.845 3.71-28.03-1.346c-6.636-4.67-9.982-19.759-9.982-33.61Z" fill="#9AA0A9"/><path d="M59.62 94.308c-6.486-1.822-13.123-6.58-17.061-7.41-4.685-.98-12.807 2.82-16.562 9.134-2.628 4.415-5.497 13.576-3.604 23.603 11.356-2.867 11.394-12.1 18.019-17.587 4.334-3.59 14.572-7.033 19.208-7.74Z" fill="#9AA0A9"/><path d="M39.76 106.401c.709 15.034-5.313 48.91-11.005 60.392-1.619 1.089-5.599 1.004-6.679-.085-2.159-8.712-1.503-36.109.53-44.313 6.152-.714 10.877-6.277 17.153-15.994ZM79.325 142.34v12.457c-6.962.408-15.34 2.92-20.56 5.932V143.23l20.56-.89ZM79.325 157.94c-7.568.413-15.749 3.047-20.56 6.041v12.751l20.56-.519V157.94ZM58.766 179.382l.55 13.245h20.009v-13.245h-20.56ZM59.535 195.809c2.55.083 19.806 0 19.806 0v63.658c-2.924-.014-8.473-2.505-10.574-4.174-.163-.408-9.232-34.918-9.232-59.484ZM38.414 215.149c3.286 7.558 18.872 30.459 26.796 37.408-8.669-26.308-5.43-48.319-9.729-54.813-2.578-3.894-4.283-6.607-7.58-11.174-.908 10.619-7.563 13.505-9.487 28.579ZM46.59 147.818c2.14 7.277 9.978 9.065 9.978 9.065v7.732s-6.012-1.614-8.153-4.776c-1.69-2.496-2.408-6.336-1.824-12.021ZM47.414 160.132c1.962 6.673 9.148 8.312 9.148 8.312v7.089s-5.513-1.479-7.476-4.378c-1.55-2.29-2.207-5.81-1.672-11.023ZM48.927 173.366c1.642 6.215 7.655 7.741 7.655 7.741v6.602s-4.613-1.378-6.256-4.078c-1.297-2.131-1.846-5.41-1.399-10.265ZM45.836 134.557c2.529 7.659 10.741 8.784 10.741 8.784v9.626s-6.05-1.398-8.636-5.144c-2.004-2.904-2.3-6.135-2.105-13.266ZM38.565 136.325c1.153 7.576-1.823 30.919-8.01 30.647 1.766-4.015 7.322-25.201 8.01-30.647ZM18.774 169.222c7.722 7.04.583 27.143-3.633 52.36-1.405 8.406-2.054 18-2.583 26.628-.493.47-.99.201-1.471-.066-.434-23.166 1.63-57.119 7.687-78.922ZM36.378 166.687c-.193 6.745-.68 11.061-1.734 17.151-2.608 15.061-13.555 49.475-16.23 65.27-.534.267-1.329.102-1.656-.359 4.489-22.993 10.002-56.078 14.224-69.729 1.755-5.674 4.047-8.093 5.396-12.333Z" fill="#9AA0A9"/><path d="M33.3 169.683c-.942 1.801-2.735 5.154-3.987 9.709-3.366 12.255-10.623 48.288-14.098 69.24-.534.427-1.227.098-1.668-.255 3.409-25.57 8.05-60.004 11.111-70.109 1.346-4.442 6.235-6.182 8.641-8.585ZM36.486 223.469c9.312 17.451 32.09 51.9 33.522 86.194.573 13.712.022 63.475-13.67 70.722 8.054-16.646 10.594-48.548 8.399-67.108-2.954-24.968-21.952-59.832-29.12-86.323.028-1.068.238-2.749.869-3.485Z" fill="#9AA0A9"/><path d="M34.6 234.613c4.891 14.442 17.247 38.152 20.38 62.512 1.072 8.327-1.692 21.042-3.942 28.618-1.714 5.353-5.382 4.277-5.934 1.243-2.599-12.373-10.407-24.687-12.093-36.121-2.873-19.469-2.1-38.546 1.588-56.252ZM43.37 374.3c-11.05 39.018 3.545 80.303 3.335 95.587-.047 3.383 2.917 3.777 3.132.044.79-13.775 2.359-71.571-6.467-95.631ZM64.316 379.38c-17.931 21.514-8.574 46.105-10.455 90.599-.127 2.982 3.096 3.022 3.137.044.185-13.422 11.118-71.007 7.318-90.643ZM60.438 257.47c4.922 4.375 11.76 7.247 13.673 11.896 2.218 5.386.547 21.605-1.367 27.073-2.461-17.638-9.572-31.175-12.306-38.969ZM58.244 296.467s11.87 47.25-2.63 46.007c-11.501-.985 2.63-20.375 2.63-46.007ZM35.203 308.745c-1.37-7.537 9.339 21.395 9.685 27.363.27 4.67-3.382 10.742-3.593 7.16-.46-7.851-4.932-25.239-6.092-34.523ZM12.165 269.61c1.05-2.739 1.748-9.159 1.58-14.147 0 0-2.859-.824-3.984-.886-2.546 7.923-11.851 22.858 1.495 34.12-5.592-11.429-.337-15.835.91-19.087ZM19.26 266.627c-.363-3.42-1.524-7.356-3.2-10.782-.812 3.254-1.913 10.162-1.36 12.765.623 2.934 1.87 4.518 1.713 9.919 1.145-2.797 3.21-8.482 2.847-11.902ZM47.36 478.254c-3.314 7.39-11.482 15.657-16.915 19.112 2.233 3.947 6.407 6.135 9.975 7.155 7.137-5.607 15.001-17.603 16.785-25.759-2.038.767-7.297.254-9.845-.508ZM47.742 83.4c3.505-.933 14.018-3.97 17.522-6.075 2.103 5.142 4.673 10.78 7.243 15.45-5.869-.508-18.223-4.237-24.765-9.375ZM82.793 95.44c3.81-9.523 3.088-25.188 10.352-30.37.21 2.95.66 8.494.108 11.095-.954 4.499-5.085 12.853-10.46 19.274ZM120.13 104.593c-9.166-5.5-25.105-7.334-33.456-4.276-6.111 7.941-4.556 39.232-4.556 39.232s20.845 3.71 28.031-1.346c6.635-4.67 9.981-19.759 9.981-33.61Z" fill="#9AA0A9"/><path d="M101.844 94.308c6.486-1.822 13.123-6.58 17.061-7.41 4.685-.98 12.807 2.82 16.562 9.134 2.628 4.415 5.497 13.576 3.604 23.603-11.357-2.867-11.394-12.1-18.019-17.587-4.334-3.59-14.572-7.033-19.208-7.74Z" fill="#9AA0A9"/><path d="M121.682 106.401c-.709 15.034 5.312 48.91 11.004 60.392 1.62 1.089 5.6 1.004 6.679-.085 2.159-8.712 1.503-36.109-.531-44.313-6.151-.714-10.876-6.277-17.152-15.994ZM82.117 142.34v12.457c6.962.408 15.34 2.92 20.559 5.932V143.23l-20.559-.89ZM82.117 157.94c7.567.413 15.75 3.047 20.559 6.041v12.751l-20.559-.519V157.94ZM102.676 179.382l-.551 13.245H82.117v-13.245h20.559ZM101.923 195.809c-2.55.083-19.806 0-19.806 0v63.658c2.924-.014 8.473-2.505 10.574-4.174.164-.408 9.232-34.918 9.232-59.484ZM123.042 215.149c-3.286 7.558-18.871 30.459-26.796 37.408 8.669-26.308 5.43-48.319 9.729-54.813 2.578-3.894 4.284-6.607 7.581-11.174.907 10.619 7.562 13.505 9.486 28.579ZM114.852 147.818c-2.139 7.277-9.977 9.065-9.977 9.065v7.732s6.013-1.614 8.153-4.776c1.691-2.496 2.408-6.336 1.824-12.021ZM114.023 160.132c-1.961 6.673-9.148 8.312-9.148 8.312v7.089s5.513-1.479 7.476-4.378c1.55-2.29 2.207-5.81 1.672-11.023ZM112.53 173.366c-1.641 6.215-7.655 7.741-7.655 7.741v6.602s4.613-1.378 6.256-4.078c1.297-2.131 1.847-5.41 1.399-10.265ZM115.616 134.557c-2.528 7.659-10.741 8.784-10.741 8.784v9.626s6.05-1.398 8.636-5.144c2.004-2.904 2.301-6.135 2.105-13.266ZM122.873 136.325c-1.153 7.576 1.823 30.919 8.01 30.647-1.766-4.015-7.323-25.201-8.01-30.647ZM142.681 169.222c-7.722 7.04-.584 27.143 3.632 52.36 1.406 8.406 2.055 18 2.584 26.628.493.47.991.201 1.471-.066.434-23.166-1.631-57.119-7.687-78.922ZM125.074 166.687c.193 6.745.68 11.061 1.735 17.151 2.607 15.061 13.555 49.475 16.23 65.27.534.267 1.328.102 1.656-.359-4.489-22.993-10.002-56.078-14.225-69.729-1.755-5.674-4.046-8.093-5.396-12.333Z" fill="#9AA0A9"/><path d="M128.145 169.683c.941 1.801 2.734 5.154 3.986 9.709 3.366 12.255 10.623 48.288 14.098 69.24.534.427 1.227.098 1.669-.255-3.41-25.57-8.052-60.004-11.112-70.109-1.346-4.442-6.236-6.182-8.641-8.585ZM124.964 223.469c-9.312 17.451-32.09 51.9-33.522 86.194-.572 13.712-.021 63.475 13.67 70.722-8.054-16.646-10.593-48.548-8.397-67.108 2.952-24.968 21.951-59.832 29.119-86.323-.029-1.068-.239-2.749-.87-3.485Z" fill="#9AA0A9"/><path d="M126.845 234.613c-4.891 14.442-17.246 38.152-20.381 62.512-1.071 8.327 1.694 21.042 3.943 28.618 1.713 5.353 5.382 4.277 5.934 1.243 2.599-12.373 10.406-24.687 12.093-36.121 2.873-19.469 2.1-38.546-1.589-56.252ZM118.084 374.3c11.051 39.018-3.544 80.303-3.334 95.587.046 3.383-2.918 3.777-3.132.044-.791-13.775-2.36-71.571 6.466-95.631ZM97.145 379.38c17.932 21.514 8.575 46.105 10.456 90.599.126 2.982-3.096 3.022-3.137.044-.185-13.422-11.118-71.007-7.319-90.643ZM101.009 257.47c-4.923 4.375-11.76 7.247-13.675 11.896-2.218 5.386-.547 21.605 1.368 27.073 2.461-17.638 9.572-31.175 12.307-38.969ZM103.227 296.467s-11.87 47.25 2.63 46.007c11.501-.985-2.63-20.375-2.63-46.007ZM126.25 308.745c1.37-7.537-9.339 21.395-9.685 27.363-.271 4.67 3.382 10.742 3.593 7.16.461-7.851 4.931-25.239 6.092-34.523ZM149.296 269.61c-1.05-2.739-1.748-9.159-1.58-14.147 0 0 2.859-.824 3.984-.886 2.546 7.923 11.851 22.858-1.495 34.12 5.591-11.429.337-15.835-.909-19.087ZM142.198 266.627c.363-3.42 1.524-7.356 3.201-10.782.811 3.254 1.912 10.162 1.359 12.765-.624 2.934-1.869 4.518-1.713 9.919-1.145-2.797-3.209-8.482-2.847-11.902ZM114.104 478.254c3.313 7.39 11.482 15.657 16.914 19.112-2.233 3.947-6.407 6.135-9.975 7.155-7.136-5.607-15.001-17.603-16.785-25.759 2.039.767 7.298.254 9.846-.508ZM113.698 83.4c-3.505-.933-14.018-3.97-17.522-6.075-2.103 5.142-4.673 10.78-7.242 15.45 5.868-.508 18.222-4.237 24.764-9.375ZM41.775 112.159c-2.014 12.421.55 23.834 3.603 27.412 4.595 5.385 19.901 7.333 25.662-.783 4.833-6.81 3.986-19.632-1.877-24.139-6.464-4.967-21.653-5.849-27.388-2.49ZM119.762 112.159c2.013 12.421-.55 23.834-3.603 27.412-4.595 5.385-19.901 7.333-25.662-.783-4.833-6.81-3.986-19.632 1.876-24.139 6.465-4.967 21.654-5.849 27.389-2.49Z" fill="#9AA0A9"/><path d="M106.612 12.49c-2.797-5.104-8.45-8.783-14.785-10.607C85.493.06 78.593.126 73.384 2.38l-.16.069-.17-.028c-8.765-1.397-13.893 3.912-17.797 8.27-.919 1.026-2.344 3.325-3.882 6.428a82.91 82.91 0 0 0-4.462 10.968c-1.316 4.055-2.323 8.313-2.643 12.257-.321 3.954.054 7.532 1.441 10.273 4.653 9.195 14.502 11.59 18.081 12.053h.002l.924.123 1.319.174 28.707.587c9.164-1.192 18.287-4.158 24.683-10.538-4.39-.95-6.956-3.404-8.335-6.434-1.472-3.234-1.569-7.067-1.239-10.302.32-3.143.262-7.733-.26-12.236-.523-4.52-1.504-8.86-2.981-11.555Z" fill="#9AA0A9" stroke="#9AA0A9" stroke-width="1.192"/><path d="M101.268 20.017v.001c1.387 3.63 1.69 8.434 1.677 12.202a71.476 71.476 0 0 1-.194 4.973c.385.13.728.364 1.016.677l-1.029.95-1.47-18.803Zm0 0C99.084 14.313 92.4 6.6 80.482 6.6H80.46c-11.917 0-18.602 7.713-20.786 13.417v.001m41.594 0H59.674m-2.292 17.893c-.804.832-.826 2.032-.757 2.837.078.909.332 1.912.617 2.827.288.928.63 1.834.916 2.563l.28.708c.149.373.248.623.293.764l-1.349-9.699Zm0 0c.264-.274.547-.463.835-.586m-.835.586.835-.586m3.028 16.57a3.174 3.174 0 0 1-1.382-1.162c-.464-.682-.686-1.494-.811-2.18-.126-.69-.178-1.396-.218-1.938l-.002-.027a20.2 20.2 0 0 0-.06-.706 2.45 2.45 0 0 0-.04-.271l2.513 6.283Zm0 0c1.025 3.127 3.117 6.993 5.876 9.982 2.428 2.625 7.797 4.666 14.203 4.515L61.245 53.894Zm-1.57-33.877c-1.387 3.63-1.688 8.411-1.672 12.158m1.671-12.158-1.671 12.158m0 0a70.65 70.65 0 0 0 .186 4.787m-.186-4.787.186 4.787m0 0 .028.362m-.028-.362.028.362m36.5 26c-2.85 2.921-6.908 4.917-13.392 5.067l13.391-5.068Zm0 0c2.597-2.664 4.162-6.712 4.99-9.435m-4.99 9.434 4.99-9.434m0 0a3.175 3.175 0 0 0 1.373-1.157c.463-.682.685-1.494.81-2.18m-2.183 3.337 2.183-3.337m0 0c.127-.69.179-1.396.219-1.938m-.219 1.938.219-1.938m0 0 .002-.027m-.002.027.002-.027m0 0c.021-.287.038-.516.059-.706m-.059.706.059-.706m0 0c.021-.184.038-.26.041-.271l-.041.27Z" fill="#9AA0A9" stroke="#F6F9FE" stroke-width="2.8"/></svg>