<svg width="161" height="500" fill="none" xmlns="http://www.w3.org/2000/svg"><path d="M106.264 12.492c-2.797-5.104-8.449-8.783-14.785-10.607C85.145.062 78.245.128 73.036 2.382l-.159.069-.171-.028c-8.764-1.397-13.893 3.912-17.797 8.27-.918 1.026-2.343 3.325-3.882 6.428a82.91 82.91 0 0 0-4.462 10.968c-1.316 4.055-2.323 8.313-2.643 12.257-.32 3.954.054 7.532 1.442 10.273 4.652 9.195 14.501 11.59 18.08 12.053h.002l.924.123 1.319.174 28.708.587c9.163-1.192 18.286-4.158 24.682-10.538-4.389-.95-6.956-3.404-8.335-6.434-1.472-3.234-1.569-7.067-1.239-10.302.32-3.143.262-7.733-.26-12.236-.523-4.52-1.504-8.86-2.981-11.554Z" fill="#9AA0A9" stroke="#9AA0A9" stroke-width="1.192"/><mask id="a" maskUnits="userSpaceOnUse" x="-.246" y="61.316" width="161" height="439" fill="#000"><path fill="#fff" d="M-.246 61.316h161v439h-161z"/><path d="M159.243 275.088c0 2.646-1.783 11.915-3.534 14.187-1.604 2.085-8.537 6.332-9.669 6.332-1.14 0-1.707-1.132-1.707-1.132s-1.958.671-2.272-.711c-.429-1.86 1.851-2.993 2.704-3.702.85-.71 2.99-1.882 4.13-4.154 1.132-2.272.842-11.007-.445-11.244-2.041-.379-1.91 3.174-2.053 4.88-.143 1.705.139 5.649-1.731 5.71-3.86.12-2.752-7.041-2.752-9.314 0-2.271-1.346-5.115-1.56-7.101-.425-3.972 2.843-8.235 2.843-11.64 0-.825-1.855-6.739-3.066-11.393-3.367-14.044-15.458-55.449-15.458-62.166 0-2.619-.278-6.095-.608-9.56-.047-.457-.095-.914-.139-1.37-.051-.463-.095-.93-.139-1.387-.055-.489-.103-.968-.155-1.441l-.151-1.48c-.055-.522-.107-1.028-.154-1.518-.056-.55-.104-1.078-.155-1.579 0-.027-.004-.049-.004-.077-.036-.352-.088-.885-.159-1.568-.052-.5-.119-1.083-.183-1.738-.067-.566-.131-1.182-.202-1.848-.068-.61-.143-1.265-.215-1.953-.079-.682-.162-1.397-.242-2.14-.083-.743-.171-1.507-.262-2.299v-.006l-.29-2.569v-.005l-.341-2.921v-.006a919.117 919.117 0 0 0-.39-3.416v-.005c-.17-1.442-.341-2.884-.5-4.278-.008 0-.008-.008 0-.012-.254-2.14-.5-4.193-.727-6.056-.004 0 0-.007 0-.007-.055-.429-.103-.846-.154-1.255-.127.695-.401 1.699-.719 2.883-.187.694-.393 1.445-.596 2.235a98.225 98.225 0 0 0-.532 2.184c-.163.723-.31 1.457-.437 2.172-.035.254-.083.505-.115.758a61.23 61.23 0 0 0-.186 1.475v.005c-.072.644-.147 1.381-.227 2.184-.063.649-.131 1.348-.198 2.074-.06.628-.115 1.282-.175 1.948-.048.61-.103 1.237-.155 1.864a85.182 85.182 0 0 0-.147 1.772c-.051.566-.095 1.133-.143 1.694-.039.55-.083 1.1-.127 1.639-.044.533-.087 1.057-.127 1.562-.04.523-.083 1.035-.119 1.524-.04.512-.083 1.007-.123 1.474-.04.512-.076.99-.115 1.431-.04.522-.076.995-.111 1.403-.028.307-.048.583-.072.819-.512 5.622-2.549 10.98-1.501 18.615.727 5.309 4.273 10.034 6.02 13.742 3.76 7.987 6.516 18.95 7.553 25.26 1.918 11.8 2.458 17.031 3.141 21.118.679 4.087 4.304 19.435 4.137 29.315-.171 9.874-13.116 70.327-13.286 72.71-.171 2.382.512 7.322.341 10.388-.171 3.069-1.358 8.684-1.358 11.579 0 2.898 4.205 17.027 4.257 24.353.004 1.628-.012 3.256-.052 4.88a251.302 251.302 0 0 1-.572 11.992 439.898 439.898 0 0 1-1.06 12.743c-.409 4.225-.862 8.45-1.354 12.671-.457 3.927-.941 7.851-1.441 11.77-.433 3.351-.878 6.703-1.331 10.05-.341 2.506-.683 5.003-1.016 7.505-.254 1.914-.496 3.741-.425 5.659.024.567.044 1.139.067 1.707.036 1.144.08 2.287.088 3.431.028 6.58 2.783 7.592 6.325 9.872 3.324 2.136 7.235 4.57 13.124 5.825 2.208.472 4.15 4.368-.587 4.967-2.462.306-22.357 1.918-28.114 1.918-2.609 0-5.695-.615-6.695-2.882-1.096-2.462-.981-5.957-.199-10.468.64-3.677.048-5.805.012-7.965-.071-3.765 1.112-7.35.675-11.139a215.78 215.78 0 0 0-.782-5.805c-.862-6.012-1.799-12.02-2.716-18.028-1.04-6.826-2.08-13.652-3.058-20.49-.738-5.194-1.509-10.395-1.953-15.629-.096-1.064-.191-2.144-.155-3.217.274-7.663 2.144-11.749 1.973-16.86-.166-5.11-4.932-16.69-5.785-27.415-.854-10.729 2.04-13.453 1.7-18.731-.334-5.281-6.81-55.858-7.152-61.815-.29-5.144.242-7.036.067-9.644-1.286.237-2.144.506-3.613.545-.922.022-2.36-.215-3.268-.429-.056 2.453.29 4.972.031 9.528-.341 5.957-6.814 56.534-7.155 61.815-.338 5.278 2.557 8.002 1.703 18.731-.85 10.725-5.618 22.305-5.785 27.415-.171 5.111 1.7 9.197 1.973 16.86.052 1.343-.099 2.701-.218 4.031-.508 5.392-1.283 10.757-2.041 16.114-.961 6.806-1.986 13.604-3.01 20.402-.874 5.822-1.771 11.647-2.585 17.476-.246 1.795-.504 3.59-.691 5.389-.111 1.048-.21 2.005-.21 3.061 0 2.609.87 5.222.825 7.835-.04 2.16-.635 4.288.008 7.965.783 4.511.894 8.006-.194 10.468-1.009 2.267-4.094 2.882-6.703 2.882-5.754 0-25.644-1.612-28.11-1.918-4.741-.599-2.8-4.495-.592-4.967 5.897-1.255 9.808-3.689 13.128-5.825 3.546-2.28 6.302-3.292 6.33-9.872.008-2.911.313-5.774-.052-8.668-.258-2.069-.544-4.13-.826-6.191-.405-3.006-.818-6.016-1.215-9.03-.484-3.685-.957-7.37-1.41-11.063-.5-4.094-.972-8.192-1.405-12.29a594.227 594.227 0 0 1-1.207-12.718c-.334-4.11-.62-8.216-.807-12.338-.154-3.367-.254-6.739-.23-10.11.048-7.326 4.257-21.455 4.257-24.353 0-2.895-1.187-8.51-1.358-11.579-.17-3.066.512-8.006.341-10.388-.17-2.383-13.115-62.836-13.286-72.71-.17-9.88 3.454-25.228 4.137-29.315.683-4.087 1.22-9.318 3.141-21.118 1.029-6.31 3.789-17.273 7.553-25.26 1.743-3.708 5.293-8.433 6.016-13.742 1.052-7.635-.989-12.492-1.501-18.114-.346-3.818-1.712-21.448-1.977-23.369-.27-1.913-.763-4.415-1.648-7.953-1.303 10.665-4.162 26.597-4.46 29.803-.48 5.188-1.509 13.39-1.509 18.412 0 6.733-12.683 48.909-16.01 62.843-1.481 5.605-2.494 9.698-2.494 10.623 0 3.415 3.272 7.69 2.851 11.672-.214 1.986-1.568 4.841-1.568 7.118 0 2.278 1.056 9.88-2.796 9.501-2.085-.204-1.902-4.005-1.81-5.716.138-2.481.099-5.446-1.942-5.066-1.291.236-1.589 8.994-.445 11.271 1.131 2.278 3.288 3.449 4.141 4.164.854.71 3.137 1.843 2.709 3.708-.322 1.388-2.28.709-2.28.709s-.572 1.14-1.711 1.14c-1.136 0-8.085-4.258-9.693-6.343-1.751-2.283-3.542-11.574-3.542-14.22 0-.842 1.97-5.243 3.383-9.324.993-2.872 1.509-5.716 1.743-6.48.568-1.849.048-2.415.385-3.906.255-1.084.342-1.617 1.108-3.147.175-.351.648-5.594.854-9.225.866-8.455 1.99-48.936 3.355-56.313 1.493-8.086 4.273-14.187 5.357-19.578 1.076-5.396.33-10.985.81-22.367.175-4.212 1.315-13.186.715-20.973-.596-7.791.25-24.378 6.294-32.657 3.292-4.51 11.416-6.103 19.426-8.227 8.005-2.125 17.01-5.055 19.624-9.435.714-1.204 2.116-6.155 2.43-9.654v-.004c.012-.119.024-.226.028-.337l26.51.29c0 .067 0 .127.003.194.052 3.74 1.652 8.53 2.264 9.562 2.612 4.376 11.785 7.259 19.791 9.384 8.009 2.124 16.133 3.716 19.429 8.227 6.04 8.28 6.89 24.866 6.294 32.657-.06.798-.103 1.612-.131 2.426-.099 2.827-.012 5.726.143 8.43v.008c.107 1.966.25 3.832.385 5.492v.008c.135 1.731.258 3.24.306 4.411v.006c.008.066.012.132.012.192a213.268 213.268 0 0 1 .174 7.768v.005c.008 1.117.008 2.162.008 3.147 0 .929-.008 1.81.004 2.646v.005c-.004.787 0 1.54.016 2.256.016.648.032 1.271.068 1.875.028.55.059 1.09.107 1.612v.006c.048.467.095.929.155 1.386a25.521 25.521 0 0 0 .429 2.365c1.167 5.221 3.776 11.14 5.205 18.874 1.363 7.382 2.49 47.93 3.356 56.335.21 3.692.667 8.95.846 9.308.758 1.524.842 2.057 1.096 3.136.341 1.485-.175 2.051.389 3.9.238.759.754 3.597 1.747 6.464 1.406 4.07 3.371 8.46 3.371 9.296Z"/></mask><path d="M159.243 275.088c0 2.646-1.783 11.915-3.534 14.187-1.604 2.085-8.537 6.332-9.669 6.332-1.14 0-1.707-1.132-1.707-1.132s-1.958.671-2.272-.711c-.429-1.86 1.851-2.993 2.704-3.702.85-.71 2.99-1.882 4.13-4.154 1.132-2.272.842-11.007-.445-11.244-2.041-.379-1.91 3.174-2.053 4.88-.143 1.705.139 5.649-1.731 5.71-3.86.12-2.752-7.041-2.752-9.314 0-2.271-1.346-5.115-1.56-7.101-.425-3.972 2.843-8.235 2.843-11.64 0-.825-1.855-6.739-3.066-11.393-3.367-14.044-15.458-55.449-15.458-62.166 0-2.619-.278-6.095-.608-9.56-.047-.457-.095-.914-.139-1.37-.051-.463-.095-.93-.139-1.387-.055-.489-.103-.968-.155-1.441l-.151-1.48c-.055-.522-.107-1.028-.154-1.518-.056-.55-.104-1.078-.155-1.579 0-.027-.004-.049-.004-.077-.036-.352-.088-.885-.159-1.568-.052-.5-.119-1.083-.183-1.738-.067-.566-.131-1.182-.202-1.848-.068-.61-.143-1.265-.215-1.953-.079-.682-.162-1.397-.242-2.14-.083-.743-.171-1.507-.262-2.299v-.006l-.29-2.569v-.005l-.341-2.921v-.006a919.117 919.117 0 0 0-.39-3.416v-.005c-.17-1.442-.341-2.884-.5-4.278-.008 0-.008-.008 0-.012-.254-2.14-.5-4.193-.727-6.056-.004 0 0-.007 0-.007-.055-.429-.103-.846-.154-1.255-.127.695-.401 1.699-.719 2.883-.187.694-.393 1.445-.596 2.235a98.225 98.225 0 0 0-.532 2.184c-.163.723-.31 1.457-.437 2.172-.035.254-.083.505-.115.758a61.23 61.23 0 0 0-.186 1.475v.005c-.072.644-.147 1.381-.227 2.184-.063.649-.131 1.348-.198 2.074-.06.628-.115 1.282-.175 1.948-.048.61-.103 1.237-.155 1.864a85.182 85.182 0 0 0-.147 1.772c-.051.566-.095 1.133-.143 1.694-.039.55-.083 1.1-.127 1.639-.044.533-.087 1.057-.127 1.562-.04.523-.083 1.035-.119 1.524-.04.512-.083 1.007-.123 1.474-.04.512-.076.99-.115 1.431-.04.522-.076.995-.111 1.403-.028.307-.048.583-.072.819-.512 5.622-2.549 10.98-1.501 18.615.727 5.309 4.273 10.034 6.02 13.742 3.76 7.987 6.516 18.95 7.553 25.26 1.918 11.8 2.458 17.031 3.141 21.118.679 4.087 4.304 19.435 4.137 29.315-.171 9.874-13.116 70.327-13.286 72.71-.171 2.382.512 7.322.341 10.388-.171 3.069-1.358 8.684-1.358 11.579 0 2.898 4.205 17.027 4.257 24.353.004 1.628-.012 3.256-.052 4.88a251.302 251.302 0 0 1-.572 11.992 439.898 439.898 0 0 1-1.06 12.743c-.409 4.225-.862 8.45-1.354 12.671-.457 3.927-.941 7.851-1.441 11.77-.433 3.351-.878 6.703-1.331 10.05-.341 2.506-.683 5.003-1.016 7.505-.254 1.914-.496 3.741-.425 5.659.024.567.044 1.139.067 1.707.036 1.144.08 2.287.088 3.431.028 6.58 2.783 7.592 6.325 9.872 3.324 2.136 7.235 4.57 13.124 5.825 2.208.472 4.15 4.368-.587 4.967-2.462.306-22.357 1.918-28.114 1.918-2.609 0-5.695-.615-6.695-2.882-1.096-2.462-.981-5.957-.199-10.468.64-3.677.048-5.805.012-7.965-.071-3.765 1.112-7.35.675-11.139a215.78 215.78 0 0 0-.782-5.805c-.862-6.012-1.799-12.02-2.716-18.028-1.04-6.826-2.08-13.652-3.058-20.49-.738-5.194-1.509-10.395-1.953-15.629-.096-1.064-.191-2.144-.155-3.217.274-7.663 2.144-11.749 1.973-16.86-.166-5.11-4.932-16.69-5.785-27.415-.854-10.729 2.04-13.453 1.7-18.731-.334-5.281-6.81-55.858-7.152-61.815-.29-5.144.242-7.036.067-9.644-1.286.237-2.144.506-3.613.545-.922.022-2.36-.215-3.268-.429-.056 2.453.29 4.972.031 9.528-.341 5.957-6.814 56.534-7.155 61.815-.338 5.278 2.557 8.002 1.703 18.731-.85 10.725-5.618 22.305-5.785 27.415-.171 5.111 1.7 9.197 1.973 16.86.052 1.343-.099 2.701-.218 4.031-.508 5.392-1.283 10.757-2.041 16.114-.961 6.806-1.986 13.604-3.01 20.402-.874 5.822-1.771 11.647-2.585 17.476-.246 1.795-.504 3.59-.691 5.389-.111 1.048-.21 2.005-.21 3.061 0 2.609.87 5.222.825 7.835-.04 2.16-.635 4.288.008 7.965.783 4.511.894 8.006-.194 10.468-1.009 2.267-4.094 2.882-6.703 2.882-5.754 0-25.644-1.612-28.11-1.918-4.741-.599-2.8-4.495-.592-4.967 5.897-1.255 9.808-3.689 13.128-5.825 3.546-2.28 6.302-3.292 6.33-9.872.008-2.911.313-5.774-.052-8.668-.258-2.069-.544-4.13-.826-6.191-.405-3.006-.818-6.016-1.215-9.03-.484-3.685-.957-7.37-1.41-11.063-.5-4.094-.972-8.192-1.405-12.29a594.227 594.227 0 0 1-1.207-12.718c-.334-4.11-.62-8.216-.807-12.338-.154-3.367-.254-6.739-.23-10.11.048-7.326 4.257-21.455 4.257-24.353 0-2.895-1.187-8.51-1.358-11.579-.17-3.066.512-8.006.341-10.388-.17-2.383-13.115-62.836-13.286-72.71-.17-9.88 3.454-25.228 4.137-29.315.683-4.087 1.22-9.318 3.141-21.118 1.029-6.31 3.789-17.273 7.553-25.26 1.743-3.708 5.293-8.433 6.016-13.742 1.052-7.635-.989-12.492-1.501-18.114-.346-3.818-1.712-21.448-1.977-23.369-.27-1.913-.763-4.415-1.648-7.953-1.303 10.665-4.162 26.597-4.46 29.803-.48 5.188-1.509 13.39-1.509 18.412 0 6.733-12.683 48.909-16.01 62.843-1.481 5.605-2.494 9.698-2.494 10.623 0 3.415 3.272 7.69 2.851 11.672-.214 1.986-1.568 4.841-1.568 7.118 0 2.278 1.056 9.88-2.796 9.501-2.085-.204-1.902-4.005-1.81-5.716.138-2.481.099-5.446-1.942-5.066-1.291.236-1.589 8.994-.445 11.271 1.131 2.278 3.288 3.449 4.141 4.164.854.71 3.137 1.843 2.709 3.708-.322 1.388-2.28.709-2.28.709s-.572 1.14-1.711 1.14c-1.136 0-8.085-4.258-9.693-6.343-1.751-2.283-3.542-11.574-3.542-14.22 0-.842 1.97-5.243 3.383-9.324.993-2.872 1.509-5.716 1.743-6.48.568-1.849.048-2.415.385-3.906.255-1.084.342-1.617 1.108-3.147.175-.351.648-5.594.854-9.225.866-8.455 1.99-48.936 3.355-56.313 1.493-8.086 4.273-14.187 5.357-19.578 1.076-5.396.33-10.985.81-22.367.175-4.212 1.315-13.186.715-20.973-.596-7.791.25-24.378 6.294-32.657 3.292-4.51 11.416-6.103 19.426-8.227 8.005-2.125 17.01-5.055 19.624-9.435.714-1.204 2.116-6.155 2.43-9.654v-.004c.012-.119.024-.226.028-.337l26.51.29c0 .067 0 .127.003.194.052 3.74 1.652 8.53 2.264 9.562 2.612 4.376 11.785 7.259 19.791 9.384 8.009 2.124 16.133 3.716 19.429 8.227 6.04 8.28 6.89 24.866 6.294 32.657-.06.798-.103 1.612-.131 2.426-.099 2.827-.012 5.726.143 8.43v.008c.107 1.966.25 3.832.385 5.492v.008c.135 1.731.258 3.24.306 4.411v.006c.008.066.012.132.012.192a213.268 213.268 0 0 1 .174 7.768v.005c.008 1.117.008 2.162.008 3.147 0 .929-.008 1.81.004 2.646v.005c-.004.787 0 1.54.016 2.256.016.648.032 1.271.068 1.875.028.55.059 1.09.107 1.612v.006c.048.467.095.929.155 1.386a25.521 25.521 0 0 0 .429 2.365c1.167 5.221 3.776 11.14 5.205 18.874 1.363 7.382 2.49 47.93 3.356 56.335.21 3.692.667 8.95.846 9.308.758 1.524.842 2.057 1.096 3.136.341 1.485-.175 2.051.389 3.9.238.759.754 3.597 1.747 6.464 1.406 4.07 3.371 8.46 3.371 9.296Z" fill="#F6F9FE"/><path d="M159.243 275.088c0 2.646-1.783 11.915-3.534 14.187-1.604 2.085-8.537 6.332-9.669 6.332-1.14 0-1.707-1.132-1.707-1.132s-1.958.671-2.272-.711c-.429-1.86 1.851-2.993 2.704-3.702.85-.71 2.99-1.882 4.13-4.154 1.132-2.272.842-11.007-.445-11.244-2.041-.379-1.91 3.174-2.053 4.88-.143 1.705.139 5.649-1.731 5.71-3.86.12-2.752-7.041-2.752-9.314 0-2.271-1.346-5.115-1.56-7.101-.425-3.972 2.843-8.235 2.843-11.64 0-.825-1.855-6.739-3.066-11.393-3.367-14.044-15.458-55.449-15.458-62.166 0-2.619-.278-6.095-.608-9.56-.047-.457-.095-.914-.139-1.37-.051-.463-.095-.93-.139-1.387-.055-.489-.103-.968-.155-1.441l-.151-1.48c-.055-.522-.107-1.028-.154-1.518-.056-.55-.104-1.078-.155-1.579 0-.027-.004-.049-.004-.077-.036-.352-.088-.885-.159-1.568-.052-.5-.119-1.083-.183-1.738-.067-.566-.131-1.182-.202-1.848-.068-.61-.143-1.265-.215-1.953-.079-.682-.162-1.397-.242-2.14-.083-.743-.171-1.507-.262-2.299v-.006l-.29-2.569v-.005l-.341-2.921v-.006a919.117 919.117 0 0 0-.39-3.416v-.005c-.17-1.442-.341-2.884-.5-4.278-.008 0-.008-.008 0-.012-.254-2.14-.5-4.193-.727-6.056-.004 0 0-.007 0-.007-.055-.429-.103-.846-.154-1.255-.127.695-.401 1.699-.719 2.883-.187.694-.393 1.445-.596 2.235a98.225 98.225 0 0 0-.532 2.184c-.163.723-.31 1.457-.437 2.172-.035.254-.083.505-.115.758a61.23 61.23 0 0 0-.186 1.475v.005c-.072.644-.147 1.381-.227 2.184-.063.649-.131 1.348-.198 2.074-.06.628-.115 1.282-.175 1.948-.048.61-.103 1.237-.155 1.864a85.182 85.182 0 0 0-.147 1.772c-.051.566-.095 1.133-.143 1.694-.039.55-.083 1.1-.127 1.639-.044.533-.087 1.057-.127 1.562-.04.523-.083 1.035-.119 1.524-.04.512-.083 1.007-.123 1.474-.04.512-.076.99-.115 1.431-.04.522-.076.995-.111 1.403-.028.307-.048.583-.072.819-.512 5.622-2.549 10.98-1.501 18.615.727 5.309 4.273 10.034 6.02 13.742 3.76 7.987 6.516 18.95 7.553 25.26 1.918 11.8 2.458 17.031 3.141 21.118.679 4.087 4.304 19.435 4.137 29.315-.171 9.874-13.116 70.327-13.286 72.71-.171 2.382.512 7.322.341 10.388-.171 3.069-1.358 8.684-1.358 11.579 0 2.898 4.205 17.027 4.257 24.353.004 1.628-.012 3.256-.052 4.88a251.302 251.302 0 0 1-.572 11.992 439.898 439.898 0 0 1-1.06 12.743c-.409 4.225-.862 8.45-1.354 12.671-.457 3.927-.941 7.851-1.441 11.77-.433 3.351-.878 6.703-1.331 10.05-.341 2.506-.683 5.003-1.016 7.505-.254 1.914-.496 3.741-.425 5.659.024.567.044 1.139.067 1.707.036 1.144.08 2.287.088 3.431.028 6.58 2.783 7.592 6.325 9.872 3.324 2.136 7.235 4.57 13.124 5.825 2.208.472 4.15 4.368-.587 4.967-2.462.306-22.357 1.918-28.114 1.918-2.609 0-5.695-.615-6.695-2.882-1.096-2.462-.981-5.957-.199-10.468.64-3.677.048-5.805.012-7.965-.071-3.765 1.112-7.35.675-11.139a215.78 215.78 0 0 0-.782-5.805c-.862-6.012-1.799-12.02-2.716-18.028-1.04-6.826-2.08-13.652-3.058-20.49-.738-5.194-1.509-10.395-1.953-15.629-.096-1.064-.191-2.144-.155-3.217.274-7.663 2.144-11.749 1.973-16.86-.166-5.11-4.932-16.69-5.785-27.415-.854-10.729 2.04-13.453 1.7-18.731-.334-5.281-6.81-55.858-7.152-61.815-.29-5.144.242-7.036.067-9.644-1.286.237-2.144.506-3.613.545-.922.022-2.36-.215-3.268-.429-.056 2.453.29 4.972.031 9.528-.341 5.957-6.814 56.534-7.155 61.815-.338 5.278 2.557 8.002 1.703 18.731-.85 10.725-5.618 22.305-5.785 27.415-.171 5.111 1.7 9.197 1.973 16.86.052 1.343-.099 2.701-.218 4.031-.508 5.392-1.283 10.757-2.041 16.114-.961 6.806-1.986 13.604-3.01 20.402-.874 5.822-1.771 11.647-2.585 17.476-.246 1.795-.504 3.59-.691 5.389-.111 1.048-.21 2.005-.21 3.061 0 2.609.87 5.222.825 7.835-.04 2.16-.635 4.288.008 7.965.783 4.511.894 8.006-.194 10.468-1.009 2.267-4.094 2.882-6.703 2.882-5.754 0-25.644-1.612-28.11-1.918-4.741-.599-2.8-4.495-.592-4.967 5.897-1.255 9.808-3.689 13.128-5.825 3.546-2.28 6.302-3.292 6.33-9.872.008-2.911.313-5.774-.052-8.668-.258-2.069-.544-4.13-.826-6.191-.405-3.006-.818-6.016-1.215-9.03-.484-3.685-.957-7.37-1.41-11.063-.5-4.094-.972-8.192-1.405-12.29a594.227 594.227 0 0 1-1.207-12.718c-.334-4.11-.62-8.216-.807-12.338-.154-3.367-.254-6.739-.23-10.11.048-7.326 4.257-21.455 4.257-24.353 0-2.895-1.187-8.51-1.358-11.579-.17-3.066.512-8.006.341-10.388-.17-2.383-13.115-62.836-13.286-72.71-.17-9.88 3.454-25.228 4.137-29.315.683-4.087 1.22-9.318 3.141-21.118 1.029-6.31 3.789-17.273 7.553-25.26 1.743-3.708 5.293-8.433 6.016-13.742 1.052-7.635-.989-12.492-1.501-18.114-.346-3.818-1.712-21.448-1.977-23.369-.27-1.913-.763-4.415-1.648-7.953-1.303 10.665-4.162 26.597-4.46 29.803-.48 5.188-1.509 13.39-1.509 18.412 0 6.733-12.683 48.909-16.01 62.843-1.481 5.605-2.494 9.698-2.494 10.623 0 3.415 3.272 7.69 2.851 11.672-.214 1.986-1.568 4.841-1.568 7.118 0 2.278 1.056 9.88-2.796 9.501-2.085-.204-1.902-4.005-1.81-5.716.138-2.481.099-5.446-1.942-5.066-1.291.236-1.589 8.994-.445 11.271 1.131 2.278 3.288 3.449 4.141 4.164.854.71 3.137 1.843 2.709 3.708-.322 1.388-2.28.709-2.28.709s-.572 1.14-1.711 1.14c-1.136 0-8.085-4.258-9.693-6.343-1.751-2.283-3.542-11.574-3.542-14.22 0-.842 1.97-5.243 3.383-9.324.993-2.872 1.509-5.716 1.743-6.48.568-1.849.048-2.415.385-3.906.255-1.084.342-1.617 1.108-3.147.175-.351.648-5.594.854-9.225.866-8.455 1.99-48.936 3.355-56.313 1.493-8.086 4.273-14.187 5.357-19.578 1.076-5.396.33-10.985.81-22.367.175-4.212 1.315-13.186.715-20.973-.596-7.791.25-24.378 6.294-32.657 3.292-4.51 11.416-6.103 19.426-8.227 8.005-2.125 17.01-5.055 19.624-9.435.714-1.204 2.116-6.155 2.43-9.654v-.004c.012-.119.024-.226.028-.337l26.51.29c0 .067 0 .127.003.194.052 3.74 1.652 8.53 2.264 9.562 2.612 4.376 11.785 7.259 19.791 9.384 8.009 2.124 16.133 3.716 19.429 8.227 6.04 8.28 6.89 24.866 6.294 32.657-.06.798-.103 1.612-.131 2.426-.099 2.827-.012 5.726.143 8.43v.008c.107 1.966.25 3.832.385 5.492v.008c.135 1.731.258 3.24.306 4.411v.006c.008.066.012.132.012.192a213.268 213.268 0 0 1 .174 7.768v.005c.008 1.117.008 2.162.008 3.147 0 .929-.008 1.81.004 2.646v.005c-.004.787 0 1.54.016 2.256.016.648.032 1.271.068 1.875.028.55.059 1.09.107 1.612v.006c.048.467.095.929.155 1.386a25.521 25.521 0 0 0 .429 2.365c1.167 5.221 3.776 11.14 5.205 18.874 1.363 7.382 2.49 47.93 3.356 56.335.21 3.692.667 8.95.846 9.308.758 1.524.842 2.057 1.096 3.136.341 1.485-.175 2.051.389 3.9.238.759.754 3.597 1.747 6.464 1.406 4.07 3.371 8.46 3.371 9.296Z" stroke="#9AA0A9" stroke-width="2.38" mask="url(#a)"/><path d="M80.962 217.788c-.005 1.915-.072 3.83-.087 5.744-.002.23.133.466.205.698.22-.138.513-.227.646-.424.755-1.12 1.524-2.239 2.194-3.41 1.997-3.488 3.055-7.343 4.323-11.119.88-2.613 1.723-5.254 3.265-7.575.877-1.319 1.79-2.626 3.454-3.104 1.155-.332 1.17-.36 1.086-1.58-.327-4.658-1.61-9.052-4.41-12.795-2.117-2.83-4.65-5.351-7.01-7.997-.197-.22-.488-.371-.757-.506-.46-.23-.91-.159-1.076.35-.575 1.764-1.373 3.513-1.575 5.325-.294 2.654-.174 5.354-.184 8.035-.02 5.06-.005 10.117-.005 15.176h-.064c0 4.395.01 8.79-.005 13.182ZM79.838 184.807c-.095 0-.093-2.889-.333-4.274-.248-1.442-.887-2.818-1.4-4.206-.303-.818-.745-.948-1.473-.483-.3.192-.57.44-.808.703-1 1.092-1.987 2.196-2.966 3.303-1.066 1.204-2.15 2.393-3.175 3.628-1.42 1.708-2.332 3.702-3.168 5.744-1.089 2.657-1.628 5.413-1.782 8.266-.03.598.187.902.76 1.02 1.153.238 2.017.907 2.766 1.797 2.007 2.385 2.993 5.259 3.983 8.14.974 2.825 1.887 5.673 2.95 8.465.949 2.487 2.23 4.822 3.873 6.933.141.179.394.269.596.399.092-.22.256-.44.26-.662.011-.534-.081-1.069-.081-1.603-.005-12.392-.002-24.781-.002-37.17ZM103.812 95.713c6.58-2.99 10.599-7.647 14.645-8.58 4.809-1.112 13.148 3.184 17.003 10.316 2.701 4.991 5.647 15.343 3.701 26.668-11.658-3.236-11.698-13.668-18.5-19.87-4.451-4.058-12.087-7.731-16.849-8.534ZM128.89 253.342c3.021 6.486 2.958 15.745 2.283 23.247-1.307 14.564-4.932 26.744-6.687 39.399-6.914-39.412 2.164-43.371 4.404-62.646ZM113.375 484.525c.727-2.601 1.191-6.683 1.997-10.583.818 4.742 2.224 7.986 3.812 9.602 3.121 3.169 8.856 6.774 13.823 8.819-12.397.394-16.713-2.545-19.632-7.838ZM119.941 428.034c-2.439 7.925-5.087 10.979-6.548 17.805-1.879 8.756-2.49 21.097-.656 37.485 1.998-15.363 3.618-20.394 4.626-29.841.842-7.87 1.517-17.174 2.578-25.449ZM99.012 433.387c2.069 8.053 5.273 12.401 6.464 19.294 1.529 8.843.501 20.192-1.509 31.342-.301-10.511-1.088-15.422-1.798-24.893-.592-7.894-2.375-17.432-3.157-25.743ZM92.753 326.395c.103-17.897 4.296-48.935 4.296-48.935l-10.72-9.409s3.16 42.968 6.424 58.344ZM101.295 277.211c-5.225 18.617-6.27 37.534-5.333 53.005 1.1 18.159 3.586 35.376-1.763 42.286-.008.373 2.176 5.65 2.506 5.658 13.255-14.573 13.02-75.816 4.59-100.949Z" fill="#9AA0A9"/><path d="M106.043 277.649c11.992-1.067 14.502 14.511 14.879 33.885.282 14.299-5.821 39.888-1.847 50.994.116-.039-.734 6.616-.377 6.66-12.02-8.887-7.711-67.962-12.655-91.539ZM128 181.344c11.011 5.338 7.31 36.574 16.999 69.376-.278.558-1.024.662-1.493.564-6.746-21.959-14.589-48.932-15.506-69.94ZM142.724 174.031c1.664 6.017 3.149 10.528 3.928 16.213 1.933 14.059 2.033 44.407 4.105 59.134-.365.389-1.346.523-1.739.21-2.533-21.609-7.632-49.822-7.854-63.099-.092-5.519 1.596-8.324 1.56-12.458Z" fill="#9AA0A9"/><path d="M140.782 176.906c-.286 1.862-1.096 5.994-.889 10.38.544 11.797 5.031 43.08 7.842 62.593-.322.531-1.068.635-1.529.45-4.114-23.576-10.689-52.883-10.908-62.691-.091-4.313 4.154-7.917 5.484-10.732ZM85.833 55.28a44.66 44.66 0 0 1-3.391.357c-.071 3.351-.095 9.724.528 14.906.894 7.462 2.815 10.694 2.815 17.71 0 9.296-2.2 15.618-2.803 24.588-.874 12.898-.469 48.007-.469 48.007 4.15-15.369 9.519-24.043 12.43-33.307 4.117-13.104 3.478-24.488 6.317-31.143 1.787-4.186 6.615-5.083 14.506-10.69-12.159-3.677-29.087-5.674-29.933-30.429ZM97.215 128.501c6.012 3.685 14.188 5.282 19.37 4.884-.548 13.73-2.395 31.298-3.876 39.897-3.653 14.292-11.432 19.473-10.884 30.589-5.44-11.592-6.103-15.725-17.56-41.341 3.312-9.034 9.46-24.03 12.95-34.029ZM85.943 219.095c-8.069 12.639-7.549 36.262 1.08 46.477 7.453 8.82 26.013 8.061 32.399-.716 8.874-12.203 6.452-40.531.401-53.169-12.505-7.409-27.594-2.443-33.88 7.408ZM111.774 181.892c-.512 2.892-6.496 12.794-6.969 16.351-.258 1.955-.15 4.355 1.529 5.676 2.264 1.783 11.341 3.343 15.602 4.94-1.6-9.848-9.471-11.883-10.162-26.967ZM103.076 373.257c1.945 1.954 4.566 7.843 4.618 12.568.048 4.725.361 34.269.413 38.994.051 4.726-3.761 7.493-7.596 8.708-1.998-6.679-4.726-23.952-4.444-36.103.127-5.639 2.49-14.279 2.085-16.245 2.366-2.394 3.407-5.543 4.924-7.922ZM113.046 365.586c-1.902 1.986-4.011 15.491-3.959 20.216.048 4.726.361 34.269.413 38.994.051 4.726 3.335 6.803 7.199 7.95 1.855-6.711 5.897-20.573 5.389-35.885-.191-5.638-3.32-17.071-3.725-22.769-2.422-2.351-3.753-6.155-5.317-8.506Z" fill="#9AA0A9"/><path d="M103.82 98.063c-3.09 2.692-1.184 15.788-5.968 27.347 12.559-.198 16.145-13.155 20.93-19.735-3.59-3.189-9.069-6.715-14.962-7.612Z" fill="#9AA0A9"/><path d="M97.86 126.931c5.173 2.315 14.592 4.57 19.766 4.074 1.446-2.807 5.095-15.217 5.921-19.017-10.964 5.949-13.894 13.954-25.688 14.943ZM141.448 170.142c-.048-2.631-1.096-33.887-2.085-42.754-3.613-.6-12.214-8.188-14.029-13.628-2.101 6.992-3.776 17.074-3.927 23.42-.127 5.373 1.219 15.533 1.66 19.488.44 3.956 3.3 21.951 8.891 24.82-.616-6.066-5.429-32.893-.044-33.564 6.079-.759 5.118 22.95 4.709 31.183 2.689-4.651 4.873-6.333 4.825-8.965ZM87.797 54.954c.21 7.608 1.87 13.092 3.725 15.562 0-4.607-.012-13.756-.012-16.436a46.57 46.57 0 0 1-3.713.874ZM148.857 271.325c-.897-2.519-1.33-8.418-.993-12.997 0 0 2.744-.744 3.816-.795 2.133 7.286 10.424 21.04-2.648 31.322 5.718-10.47.889-14.538-.175-17.53ZM142.111 268.797c.377-3.151 1.513-6.795 3.137-9.981.739 2.971 1.72 9.293 1.172 11.698-.62 2.709-1.819 4.194-1.72 9.154-1.06-2.544-2.966-7.72-2.589-10.871ZM57.04 95.713c-6.576-2.99-10.598-7.647-14.644-8.58-4.81-1.112-13.148 3.184-17.004 10.316-2.7 4.991-5.646 15.343-3.7 26.668 11.662-3.236 11.698-13.668 18.5-19.87 4.451-4.058 12.087-7.731 16.848-8.534ZM31.985 253.342c-3.021 6.486-2.954 15.745-2.283 23.247 1.306 14.564 4.932 26.744 6.687 39.399 6.913-39.412-2.164-43.371-4.404-62.646ZM47.511 484.525c-.727-2.601-1.191-6.683-1.997-10.583-.818 4.742-2.224 7.986-3.812 9.602-3.122 3.169-8.855 6.774-13.823 8.819 12.397.394 16.713-2.545 19.632-7.838ZM40.93 428.034c2.438 7.925 5.086 10.979 6.548 17.805 1.878 8.756 2.49 21.097.655 37.485-1.998-15.363-3.618-20.394-4.626-29.841-.842-7.87-1.517-17.174-2.577-25.449ZM61.856 433.387c-2.07 8.053-5.274 12.401-6.465 19.294-1.529 8.843-.5 20.192 1.509 31.342.302-10.511 1.088-15.422 1.799-24.893.592-7.894 2.374-17.432 3.157-25.743ZM68.12 326.395c-.103-17.897-4.292-48.935-4.292-48.935l10.718-9.409s-3.161 42.968-6.425 58.344ZM59.591 277.211c5.226 18.617 6.27 37.534 5.333 53.005-1.1 18.159-3.586 35.376 1.763 42.286.008.373-2.176 5.65-2.505 5.658-13.255-14.573-13.02-75.816-4.59-100.949Z" fill="#9AA0A9"/><path d="M54.822 277.649c-11.992-1.067-14.502 14.511-14.879 33.885-.282 14.299 5.821 39.888 1.847 50.994-.116-.039.734 6.616.377 6.66 12.02-8.887 7.711-67.962 12.655-91.539ZM32.87 181.344c-11.01 5.338-7.31 36.574-16.999 69.376.278.558 1.025.662 1.493.564 6.747-21.959 14.59-48.932 15.506-69.94ZM18.142 174.031c-1.663 6.017-3.148 10.528-3.927 16.213-1.93 14.059-2.033 44.407-4.106 59.134.366.389 1.347.523 1.744.21 2.53-21.609 7.628-49.822 7.85-63.099.091-5.519-1.596-8.324-1.56-12.458Z" fill="#9AA0A9"/><path d="M20.098 176.906c.285 1.862 1.096 5.994.889 10.38-.544 11.797-5.031 43.08-7.842 62.593.321.531 1.068.635 1.528.45 4.114-23.576 10.69-52.883 10.908-62.691.096-4.313-4.153-7.917-5.483-10.732ZM78.425 55.7a41.538 41.538 0 0 1-3.395-.226c-.929 24.572-17.805 26.565-29.928 30.234 7.89 5.607 12.718 6.504 14.505 10.69 2.84 6.655 2.2 18.039 6.318 31.143 2.91 9.264 8.28 17.938 12.429 33.307 0 0 .405-35.109-.465-48.007-.607-8.97-2.807-15.292-2.807-24.587 0-7.017 1.922-10.25 2.82-17.71.615-5.147.595-11.473.523-14.844ZM63.667 128.501c-6.012 3.685-14.188 5.282-19.37 4.884.548 13.73 2.394 31.298 3.876 39.897 3.653 14.292 11.432 19.473 10.884 30.589 5.44-11.592 6.103-15.725 17.559-41.341-3.312-9.034-9.459-24.03-12.95-34.029ZM74.92 219.095c8.068 12.639 7.548 36.262-1.081 46.477-7.453 8.82-26.013 8.061-32.398-.716-8.875-12.203-6.453-40.531-.402-53.169 12.505-7.409 27.594-2.443 33.88 7.408ZM49.118 181.892c.513 2.892 6.497 12.794 6.97 16.351.257 1.955.15 4.355-1.53 5.676-2.263 1.783-11.34 3.343-15.597 4.94 1.596-9.848 9.467-11.883 10.157-26.967ZM57.801 373.257c-1.946 1.954-4.566 7.843-4.618 12.568-.048 4.725-.361 34.269-.413 38.994-.052 4.726 3.76 7.493 7.6 8.708 1.994-6.679 4.722-23.952 4.44-36.103-.127-5.639-2.49-14.279-2.085-16.245-2.367-2.394-3.407-5.543-4.924-7.922ZM47.82 365.586c1.902 1.986 4.011 15.491 3.96 20.216-.048 4.726-.362 34.269-.413 38.994-.048 4.726-3.336 6.803-7.2 7.95-1.854-6.711-5.897-20.573-5.384-35.885.186-5.638 3.315-17.071 3.72-22.769 2.423-2.351 3.753-6.155 5.318-8.506Z" fill="#9AA0A9"/><path d="M57.064 98.063c3.09 2.692 1.183 15.788 5.968 27.347-12.556-.198-16.145-13.155-20.93-19.735 3.59-3.189 9.07-6.715 14.962-7.612Z" fill="#9AA0A9"/><path d="M63.004 126.931c-5.17 2.315-14.593 4.57-19.763 4.074-1.45-2.807-5.099-15.217-5.925-19.017 10.964 5.949 13.895 13.954 25.688 14.943ZM19.415 170.142c.047-2.631 1.096-33.887 2.085-42.754 3.613-.6 12.214-8.188 14.029-13.628 2.1 6.992 3.776 17.074 3.927 23.42.127 5.373-1.22 15.533-1.66 19.488-.44 3.956-3.3 21.951-8.89 24.82.615-6.066 5.427-32.893.043-33.564-6.08-.759-5.119 22.95-4.71 31.183-2.688-4.651-4.872-6.333-4.824-8.965ZM69.364 54.465c-.005 3.086-.012 11.643-.012 16.05 1.83-2.442 3.47-7.826 3.712-15.291a42.73 42.73 0 0 1-3.7-.759ZM12.016 271.325c.897-2.519 1.33-8.418.993-12.997 0 0-2.744-.744-3.816-.795-2.133 7.286-10.424 21.04 2.648 31.322-5.718-10.47-.89-14.538.175-17.53ZM18.75 268.797c-.378-3.151-1.514-6.795-3.138-9.981-.738 2.971-1.72 9.293-1.171 11.698.62 2.709 1.818 4.194 1.72 9.154 1.06-2.544 2.965-7.72 2.588-10.871Z" fill="#9AA0A9"/></svg>