<svg width="60" height="60" fill="none" xmlns="http://www.w3.org/2000/svg"><rect x="60" width="60" height="60" rx="30" transform="rotate(90 60 0)" fill="#5DA0EF"/><g clip-path="url(#a)" fill="#fff"><path d="M37.605 23.037h-3.75c-.888 0-1.607-.72-1.607-1.607v-3.75h-11.25c-.888 0-1.607.72-1.607 1.607h8.035c.012 0 .022.006.034.006a.52.52 0 0 1 .138.028c.018.006.033.01.05.018a.531.531 0 0 1 .157.107l5.357 5.357a.537.537 0 0 1 .108.157c.007.017.011.033.017.05a.53.53 0 0 1 .028.139c0 .011.006.021.006.033v17.14H36c.887 0 1.607-.72 1.607-1.607l-.002-17.678Z"/><path d="M32.253 25.713h-3.75c-.887 0-1.607-.72-1.607-1.608v-3.75h-11.25c-.887 0-1.607.72-1.607 1.608V43.39c0 .888.72 1.607 1.607 1.607h15c.888 0 1.607-.72 1.607-1.607V25.713ZM18.86 27.855h1.072v1.072H18.86v-1.072Zm-3.214 0h2.143v1.072h-2.143v-1.072Zm0 3.215h6.429v1.071h-6.429V31.07Zm9.643 1.071h-2.143V31.07h2.143v1.071Zm1.071 5.357v1.072h-3.214v-1.072h3.214Zm-1.07-3.214v1.072h-4.287v-1.072h4.286Zm-9.644 0h4.286v1.072h-4.286v-1.072Zm0 3.214h6.429v1.072h-6.429v-1.072Zm4.286 4.286h-4.286v-1.071h4.286v1.071Zm5.357 0h-4.286v-1.071h4.286v1.071Zm2.143 0H26.36v-1.071h1.072v1.071Zm-1.072-6.428v-1.072h1.072v1.072H26.36Zm4.286 6.428h-2.143v-1.071h2.143v1.071Zm0-3.214h-3.214v-1.072h3.214v1.072Zm0-3.215h-2.143v-1.071h2.143v1.072Zm0-3.214H26.36V31.07h4.286v1.071Zm0-3.214h-9.643v-1.072h9.643v1.072Z"/><path d="M42.964 20.357h-3.75c-.887 0-1.607-.72-1.607-1.607V15h-11.25c-.887 0-1.607.72-1.607 1.607h8.036c.011 0 .021.006.032.007a.532.532 0 0 1 .14.027c.017.006.033.01.049.018a.52.52 0 0 1 .157.107l5.358 5.357a.537.537 0 0 1 .107.157c.007.017.012.033.017.05a.537.537 0 0 1 .028.139c0 .012.007.022.007.033v17.14h2.678c.888 0 1.607-.719 1.607-1.606l-.002-17.679Z"/><path d="m31.49 24.642-3.53-3.529v2.993c0 .296.24.535.537.535h2.992ZM42.208 19.286l-3.528-3.528v2.992c0 .296.24.536.535.536h2.993ZM36.849 21.966l-3.529-3.529v2.993c0 .296.24.536.536.536h2.992Z"/></g><defs><clipPath id="a"><path fill="#fff" transform="translate(13.5 15)" d="M0 0h30v30H0z"/></clipPath></defs></svg>