<svg width="34" height="34" fill="none" xmlns="http://www.w3.org/2000/svg"><path d="M27.982 17.807V9.984c0-2.306 0-3.459-.449-4.34a4.117 4.117 0 0 0-1.8-1.799c-.88-.449-2.033-.449-4.339-.449h-8.783c-2.306 0-3.459 0-4.34.45a4.117 4.117 0 0 0-1.799 1.799c-.449.88-.449 2.033-.449 4.339v14.273c0 2.306 0 3.459.45 4.34a4.118 4.118 0 0 0 1.798 1.799c.881.448 2.034.448 4.34.448h4.392m2.744-15.096h-8.234m2.745 5.49h-2.745m10.98-10.98h-10.98m8.92 16.47 2.745 2.744 6.176-6.176" stroke="#5DA0EF" stroke-width="2" stroke-linecap="round" stroke-linejoin="round"/></svg>