<svg width="41" height="41" fill="none" xmlns="http://www.w3.org/2000/svg"><rect width="41" height="41" rx="20.5" fill="#5DA0EF"/><path d="m20.652 20.203-1.855-1.855a.438.438 0 0 0-.621 0l-10.5 10.5a1.75 1.75 0 1 0 2.476 2.476l10.5-10.5a.439.439 0 0 0 0-.62ZM31.375 29.063h-10.5a1.313 1.313 0 0 0 0 2.625h10.5a1.313 1.313 0 0 0 0-2.625Z" fill="#fff"/><path d="M28.751 15.808a.439.439 0 0 0-.337-.302c-2.752-.542-4.375-2.143-4.904-4.904a.436.436 0 0 0-.74-.227l-7 7a.437.437 0 0 0 .22.739c2.699.573 4.3 2.196 4.886 4.913a.437.437 0 0 0 .438.346.438.438 0 0 0 .31-.127l7-7a.437.437 0 0 0 .127-.438Z" fill="#fff"/><path d="M30.805 16.239a2.626 2.626 0 0 0-3.714 0l-5.565 5.565a2.63 2.63 0 1 0 3.723 3.714l5.556-5.57a2.625 2.625 0 0 0 0-3.71ZM23.535 10.049a2.626 2.626 0 0 0-4.48-1.856l-5.569 5.557a2.625 2.625 0 1 0 3.714 3.71l5.565-5.552a2.625 2.625 0 0 0 .77-1.86Z" fill="#5DA0EF"/><path d="M28.206 16.48a.438.438 0 0 1-.368-.198 6.484 6.484 0 0 1-5.123-5.123l-.07-.035a.436.436 0 0 1 0-.621l.105-.105a.438.438 0 0 1 .74.228c.546 2.76 2.152 4.375 4.904 4.904a.437.437 0 0 1 .227.74l-.105.104a.437.437 0 0 1-.31.105ZM21.315 23.374a.47.47 0 0 1-.113 0 .437.437 0 0 1-.315-.32c-.595-2.743-2.197-4.366-4.913-4.93a.436.436 0 0 1-.22-.74.437.437 0 0 1 .495-.096c2.953.657 4.79 2.49 5.469 5.456a.438.438 0 0 1-.074.494.481.481 0 0 1-.329.136ZM31.375 31.688h-10.5a1.313 1.313 0 0 1 0-2.625h10.5a1.313 1.313 0 0 1 0 2.625Zm-10.5-1.75a.438.438 0 0 0 0 .875h10.5a.438.438 0 0 0 0-.875h-10.5Z" fill="#fff"/><path d="M23.388 26.283a2.624 2.624 0 0 1-1.855-4.48l5.565-5.565a2.626 2.626 0 1 1 3.715 3.71l-5.557 5.57a2.624 2.624 0 0 1-1.868.765Zm5.57-9.94a1.748 1.748 0 0 0-1.238.512l-5.57 5.57a1.75 1.75 0 1 0 2.476 2.476l5.565-5.57a1.75 1.75 0 0 0-1.233-2.988ZM15.339 18.242a2.625 2.625 0 0 1-1.855-4.493l5.57-5.556a2.625 2.625 0 1 1 3.71 3.714l-5.566 5.565a2.625 2.625 0 0 1-1.859.77Zm5.57-9.944a1.75 1.75 0 0 0-1.239.516L14.1 14.38a1.75 1.75 0 1 0 2.477 2.476l5.57-5.569a1.75 1.75 0 0 0-1.239-2.988Z" fill="#fff" stroke="#fff"/><path d="M8.898 31.855a1.75 1.75 0 0 1-1.238-2.988l10.5-10.5a.44.44 0 0 1 .622.621l-10.5 10.5a.875.875 0 0 0 0 1.234.875.875 0 0 0 1.233 0l10.5-10.5a.44.44 0 0 1 .622.621l-10.5 10.5a1.75 1.75 0 0 1-1.239.512Z" fill="#fff"/></svg>