<svg width="60" height="60" fill="none" xmlns="http://www.w3.org/2000/svg"><rect x="60" width="60" height="60" rx="30" transform="rotate(90 60 0)" fill="#5DA0EF"/><path fill-rule="evenodd" clip-rule="evenodd" d="M28.813 14.164a1.188 1.188 0 0 1 2.375 0v6.333a1.188 1.188 0 0 1-2.375 0v-6.333ZM39.11 17.332a1.188 1.188 0 0 1 2.374 0v7.125a1.188 1.188 0 0 1-2.375 0v-7.125ZM18.523 17.332a1.188 1.188 0 0 1 2.375 0v7.125a1.188 1.188 0 0 1-2.375 0v-7.125Z" fill="#fff"/><path fill-rule="evenodd" clip-rule="evenodd" d="M33.214 15.7a1.188 1.188 0 0 1-1.679 1.68L30 15.843l-1.536 1.535a1.188 1.188 0 0 1-1.678-1.68l2.374-2.375a1.186 1.186 0 0 1 1.679 0l2.375 2.376ZM43.51 18.867a1.188 1.188 0 0 1-1.678 1.68l-1.535-1.535-1.536 1.535a1.188 1.188 0 0 1-1.678-1.68l2.374-2.375a1.186 1.186 0 0 1 1.679 0l2.375 2.375ZM22.925 18.867a1.188 1.188 0 0 1-1.679 1.68l-1.535-1.535-1.536 1.535a1.188 1.188 0 0 1-1.678-1.68l2.374-2.375a1.186 1.186 0 0 1 1.679 0l2.375 2.375ZM30.005 22.477c6.772 0 12.271 5.498 12.271 12.27 0 6.774-5.499 12.271-12.27 12.271-6.773 0-12.272-5.497-12.272-12.27 0-6.772 5.5-12.271 12.271-12.271Zm-1.187 5.937v6.333c0 .418.218.805.576 1.02l3.958 2.375a1.188 1.188 0 0 0 1.223-2.038l-3.382-2.028v-5.662a1.188 1.188 0 0 0-2.375 0Z" fill="#fff"/></svg>