<svg width="41" height="41" fill="none" xmlns="http://www.w3.org/2000/svg"><rect width="41" height="41" rx="20.5" fill="#5DA0EF"/><g clip-path="url(#a)" fill="#fff"><path d="M32.478 16.27a1.35 1.35 0 0 0-1.804-.093c-.076.062-.017.007-1.182 1.172l3.024 3.024 1.087-1.073a1.35 1.35 0 0 0 0-1.906l-1.125-1.125ZM23.295 23.606l-1.779 3.812a.674.674 0 0 0 .896.896l3.812-1.78c.15-.07-.306.358 5.337-5.215L28.543 18.3c-5.595 5.595-5.176 5.152-5.248 5.305Z"/><path d="M27.357 27.363a2.017 2.017 0 0 1-.565.393l-3.812 1.779c-.75.35-1.665.216-2.284-.402a2.028 2.028 0 0 1-.403-2.285l1.78-3.812c.1-.214.235-.407.401-.574l5.731-5.73v-5.71A2.024 2.024 0 0 0 26.184 9H13.02A2.024 2.024 0 0 0 11 11.021v18.957c0 1.115.907 2.022 2.021 2.022h13.163a2.024 2.024 0 0 0 2.021-2.021v-3.454l-.848.838ZM14.594 13.357h10.062a.674.674 0 0 1 0 1.348H14.594a.674.674 0 0 1 0-1.348Zm0 3.594H22.5a.674.674 0 1 1 0 1.348h-7.906a.674.674 0 0 1 0-1.348Zm-.674 4.268c0-.372.302-.674.674-.674h5.75a.674.674 0 0 1 0 1.348h-5.75a.674.674 0 0 1-.674-.674Z"/></g><defs><clipPath id="a"><path fill="#fff" transform="translate(11 9)" d="M0 0h23v23H0z"/></clipPath></defs></svg>