<svg width="60" height="60" fill="none" xmlns="http://www.w3.org/2000/svg"><rect x="60" width="60" height="60" rx="30" transform="rotate(90 60 0)" fill="#5DA0EF"/><path d="M24.1 32.746h-2.173a2.144 2.144 0 0 0-2.138 2.138v8.977c0 1.188.962 2.138 2.138 2.138H24.1V32.746ZM40.097 36.64l-1.971 7.102a3.064 3.064 0 0 1-2.957 2.256h-9.286V32.746l3.919-5.546a2.24 2.24 0 0 1 1.816-.938 2.225 2.225 0 0 1 2.138 2.826l-1.033 3.657h4.417a3.07 3.07 0 0 1 2.957 3.896ZM18.222 19.075l.892 1.807c.085.17.246.288.435.316l1.994.29c.472.068.661.649.32.983l-1.444 1.405a.579.579 0 0 0-.166.511l.34 1.986a.577.577 0 0 1-.836.608l-1.784-.937a.58.58 0 0 0-.537 0l-1.783.937a.577.577 0 0 1-.838-.608l.341-1.986a.576.576 0 0 0-.166-.51l-1.44-1.406a.577.577 0 0 1 .32-.984l1.993-.29a.58.58 0 0 0 .434-.315l.892-1.807a.576.576 0 0 1 1.033 0ZM30.52 14.325l.891 1.807c.084.17.246.288.435.316l1.994.29c.472.068.661.649.319.983l-1.443 1.405a.579.579 0 0 0-.166.511l.34 1.986a.577.577 0 0 1-.836.608l-1.784-.937a.58.58 0 0 0-.537 0l-1.783.937a.577.577 0 0 1-.838-.608l.341-1.986a.576.576 0 0 0-.166-.51l-1.44-1.406a.577.577 0 0 1 .319-.984l1.994-.29a.577.577 0 0 0 .434-.315l.892-1.807a.576.576 0 0 1 1.033 0ZM42.81 19.075l.893 1.807c.084.17.245.288.434.316l1.994.29c.473.068.661.649.32.983l-1.443 1.405a.579.579 0 0 0-.167.511l.341 1.986a.577.577 0 0 1-.837.608l-1.784-.937a.58.58 0 0 0-.536 0l-1.784.937a.577.577 0 0 1-.837-.608l.34-1.986a.576.576 0 0 0-.166-.51l-1.442-1.406a.577.577 0 0 1 .319-.984l1.994-.29a.577.577 0 0 0 .434-.315l.892-1.807a.578.578 0 0 1 1.036 0Z" fill="#fff"/></svg>