<svg width="243" height="504" fill="none" xmlns="http://www.w3.org/2000/svg"><path d="M75.976 467.6c-1.706 0-2.923.114-3.832.359-3.782 1.023-7.22 4.309-8.556 8.178-1.25 3.624-.574 7.477 1.855 10.568 2.365 3.007 5.44 3.937 8.152 4.757 2.18.66 4.06 1.227 5.34 2.711.46.529.903 1.197 1.369 1.903.508.765 1.004 1.518 1.6 2.237 2.182 2.656 8.118 3.641 11.347 3.641 2.524 0 4.643-.448 6.295-1.336l.83-.449.398-.934c3.055-7.257 2.524-12.285 1.91-18.108l-.007-.072.007-.071a490.4 490.4 0 0 0 1.008-8.91l.016-.127c.25-2.449.538-5.223.276-8.027l-1.156-8.114a35.161 35.161 0 0 1-.11-.669 12.126 12.126 0 0 0-.291-1.463 76.366 76.366 0 0 0-.554-1.873c-.227-.74-.451-1.48-.648-2.229-.671-2.566-.788-7.074-.25-9.84.58-2.994 1.001-5.548 1.41-8.018.466-2.824.906-5.497 1.565-8.766l1.493-7.201c.323-.478.58-.905.713-1.168 1.846-3.594 2.899-7.002 3.229-10.419.576-6.013.027-11.955-1.686-18.167-.41-1.488-.793-2.787-1.145-3.966-.876-2.961-1.505-5.092-1.838-7.891l-.027-.241 3.529-4.986c3.335-8.656 4.555-14.259 5.969-20.746.406-1.861.826-3.794 1.319-5.904 2.073-8.867 3.604-18.454 3.9-24.425.273-5.459.436-11.988.595-18.298.167-6.664.337-13.468.629-19.109.05-.982-.204-5.447-.796-15.089l-.019-.291c-.2-3.295-.409-6.695-.42-7.139l.015-3.619a6.658 6.658 0 0 0-.015-1.003 4.462 4.462 0 0 0-.895-2.325l-.307-.402.33-.381a28.206 28.206 0 0 0 2.782-3.839l.432-.724.432.724a27.868 27.868 0 0 0 2.782 3.839l.33.381-.307.402a4.46 4.46 0 0 0-.899 2.334 6.87 6.87 0 0 0-.011.968l.015 3.552c-.011.533-.22 3.95-.42 7.253l-.019.27c-.592 9.638-.849 14.107-.8 15.093.296 5.637.466 12.441.629 19.025.163 6.394.326 12.919.599 18.378.296 5.975 1.827 15.562 3.9 24.425.493 2.11.913 4.043 1.315 5.891 1.414 6.5 2.634 12.103 5.973 20.759l3.529 4.981-.027.246c-.333 2.799-.962 4.93-1.838 7.882-.36 1.214-.739 2.499-1.145 3.975-1.713 6.208-2.262 12.149-1.686 18.167.33 3.417 1.383 6.825 3.225 10.419.133.258.394.681.713 1.168l.091.219 1.406 6.982c.659 3.269 1.099 5.942 1.565 8.766.409 2.47.83 5.024 1.41 8.018.534 2.77.421 7.274-.25 9.836-.193.744-.417 1.476-.641 2.212-.193.63-.382 1.26-.561 1.89-.14.503-.216.981-.288 1.446l-.022.131a28.23 28.23 0 0 1-.095.58l-1.16 8.127c-.254 2.774.034 5.544.284 7.989l.016.135c.329 3.231.712 6.457 1.008 8.906l.007.071-.007.072c-.614 5.823-1.145 10.851 1.91 18.108l.394.934.834.449c1.649.888 3.767 1.336 6.291 1.336 3.233 0 9.169-.985 11.352-3.641.595-.727 1.099-1.484 1.588-2.22.477-.723.921-1.391 1.376-1.916 1.284-1.488 3.164-2.055 5.34-2.715 2.717-.82 5.791-1.75 8.156-4.757 2.429-3.091 3.104-6.944 1.853-10.568-1.338-3.873-4.775-7.159-8.554-8.178-1.808-.491-4.957-.482-10.275-.008l-.618.055.118-1.51c.004-.059.015-.131.023-.203.064-.512.132-1.087.064-1.759-.064-.592-.121-1.189-.178-1.781-.189-1.911-.383-3.89-.72-5.873-.629-3.688-.466-7.599.523-12.31 2.081-9.942 4.233-20.226 7.11-30.126.152-.516.307-1.036.47-1.565.974-3.247 2.073-6.892 2.054-10.817l-.007-1.772.03-.097c.307-.955.5-1.966.584-3.002.166-2.165.227-7.316-.031-9.984-.314-3.223-1.205-6.445-2.061-9.566l-.038-.131c-.269-.981-.542-1.975-.8-2.981-1.652-6.419-3.013-9.502-4.897-13.773l-.527-1.197.201-.651c.084-.271.178-.537.273-.804.296-.828.641-1.801.766-2.888l.068-.566c.277-2.381.565-4.842.508-7.371-.061-2.402-.209-4.808-.353-7.134-.17-2.719-.326-5.261-.356-7.844l-.004-.368 2.051-12.615c.159-.803.326-1.632.443-2.524.372-2.842.762-5.679 1.156-8.517.967-7.003 1.956-14.145 2.615-21.228.736-7.904.899-15.913 1.058-23.656l.019-1.023c.094-4.69-.034-9.828-.41-16.167-.269-4.567-.86-9.142-1.402-13.02-.318-2.288-1.402-3.937-3.055-4.647l-.364-.157.034-.435c.069-.939.41-7.096.414-7.16l.083-.338c.163-.516.466-1.463.269-2.563l-.25-1.42c-.61-3.43-1.239-6.965-2.013-10.437-.564-2.55-1.319-5.523-2.619-8.263l-.166-.347.231-.3c.758-.99 1.095-2.326.883-3.48a413.061 413.061 0 0 0-2.32-11.634c-.284-1.323-1.099-2.342-2.175-2.727l-.565-.203.25-.601c2.612-6.207 4.279-13.134 5.405-22.45.114-.935.39-3.772.39-3.772l.201-2.051.789 1.865c.034.072.435.892.89 1.818l1.035 2.119c1.668 3.413 3.362 6.884 5.219 10.263.534.977 1.27 1.928 2.316 2.994l.276.279-.151.381a4.402 4.402 0 0 0-.307 1.704c.011.397.007.799.007 1.201-.007 1.412-.015 2.998.448 4.592.538 1.873 1.322 3.569 2.076 5.21.258.558.505 1.095.74 1.632.257.588.549 1.163.841 1.738.421.829.819 1.611 1.031 2.335 2.418 8.161 5.503 16.399 9.176 24.488 2.342 5.155 4.79 10.344 7.155 15.363 1.497 3.172 2.983 6.318 4.45 9.477.519 1.116 1.254 1.865 2.183 2.22l.352.131v.419c0 2.233.046 4.474.091 6.652l.035 1.919c-.334 3.024.659 5.718 1.459 7.887.14.381.276.757.409 1.129.807 2.322 1.724 4.762 3.225 6.91l.076.152c.065.182.137.372.235.575l.739 1.565c.777 1.645 1.581 3.345 2.449 5.011 1.019 1.958 1.993 3.586 2.979 4.982.856 1.205 2.289 1.636 3.342 1.636.247 0 .489-.025.724-.072l.383-.076.175.389c1.171 2.622 2.918 4.017 5.192 4.153 1.008.05 1.914-.212 2.638-.808l.284-.233.474.33c.561.372 1.251.567 1.993.567.546 0 1.922-.114 2.9-1.176 1.053-1.133 1.288-2.693 1.444-3.725a4.073 4.073 0 0 0-.091-1.662l-.106-.406.314-.237c.743-.562 1.164-1.362 1.444-1.916.061-.329.277-1.822.463-3.192-.114-.355-.216-.698-.315-1.028l-.038-.114c-.288-.956-.583-1.941-1.023-2.909a316.847 316.847 0 0 0-3.222-6.868l-1.137-2.385 1.118.292c.933.245 1.858.461 2.771.677l.5.114c2.593.613 5.049-.398 6.633-2.741.322-.477 1.304-1.924.894-3.691-.413-1.772-1.804-2.457-2.399-2.749-2.823-1.395-5.484-2.711-7.129-5.235-.549-.846-1.133-1.628-1.698-2.385l-.549-.74c-1.899-2.584-4.594-5.785-8.638-7.658a8.17 8.17 0 0 0-1.198-.428l-.329-.092-.057-.373a7.508 7.508 0 0 0-.288-1.201l-1.732-5.231c-1.611-4.867-3.279-9.899-4.848-14.923-.61-1.954-1.099-3.941-1.614-6.043-.213-.875-2.642-5.92-4.223-9.104l-.06-.203-.739-6.098-.034-2.14c-.152-10.052-4.446-18.145-9.627-26.924l-1.804-1.705-.008-.262c-.079-4.833-.868-9.1-2.41-13.05a5.997 5.997 0 0 0-.569-1.12l-.186-.292.148-.317a8.38 8.38 0 0 0 .482-1.366c.227-.88.435-1.937.269-3.091-.08-.558-.152-1.117-.224-1.675-.269-2.038-.546-4.14-1.145-6.246-.712-2.499-1.66-4.884-2.577-7.184l-.14-.351c-.205-.52-.409-1.036-.61-1.557-.349-.892-.823-1.598-1.414-2.101l-.22-.19.019-.314c.008-.228-.114-1.843-.235-3.209-.14-1.632-.303-3.485-.591-5.294-1.08-6.762-3.108-11.723-6.383-15.609-4.244-5.036-9.642-8.736-16.509-11.316-.682-.254-2.24-.66-2.255-.668l-2.509-.782c-.796-.25-1.592-.512-2.384-.77l-.114-.038a126.78 126.78 0 0 0-4.385-1.383l-.14-.063-4.302-2.91c-.55-.363-1.099-.727-1.653-1.086l-.265-.174a174.488 174.488 0 0 1-4.169-2.787c-1.74-1.213-2.6-2.956-2.706-5.489-.053-1.234-.129-2.47-.208-3.7l-.023-.36.28-.185c1.202-.782 2.843-2.11 3.237-4.55.224-1.4.352-2.774.481-4.106l.015-.161c.08-.829.16-1.658.266-2.483l.288-2.291.462-.187c.504-.203 1.046-.414 1.592-.769.917-.592 1.285-1.53 1.501-2.093 1.114-2.61 2.217-5.202 3.309-7.807.178-.422.28-.816.36-1.133l.125-.427.011-.427c.053-2.17-1.986-5.54-4.355-6.242l-.58-.266.012-.402c.102-3.599-.152-6.901-.777-10.094-2.221-11.396-10.916-19.355-21.145-19.355-.887 0-1.789.068-2.672.19-4.76.664-8.812 2.732-12.045 6.145-4.734 4.998-7.178 11.595-7.474 20.17-.03.982-.03 1.963.004 2.99l.015.495-.436.098c-1.28.292-2.448 1.268-3.29 2.753-1.038 1.835-1.27 3.903-.617 5.54l.113.287c.724 1.814 1.444 3.624 2.202 5.421l.103.237c.428 1.019.913 2.173 1.622 3.243.724 1.091 1.853 1.493 2.46 1.633l.363.084.163 1.408c.129 1.163.232 2.322.33 3.485l.03.334c.088 1.032.179 2.06.285 3.087.22 2.08 1.228 3.687 3.085 4.926l.277.182-.023.36c-.114 1.59-.231 3.192-.379 4.761-.284 2.994-1.323 4.094-2.195 4.72-1.353.968-2.778 1.911-4.157 2.824L98.257 77.6c-.163.11-.333.211-.542.334l-4.984 2.96a190.19 190.19 0 0 0-3.213.939c-1.092.325-2.153.642-3.215.938l-2.357.656c-.023.008-2.323.647-3.074.926-6.864 2.58-12.262 6.28-16.506 11.316-3.274 3.886-5.302 8.847-6.383 15.609-.29 1.814-.45 3.67-.594 5.307l-.014.173c-.063.706-.126 1.412-.197 2.11-.033.313-.04.617-.02.913l.018.314-.222.19c-.59.503-1.064 1.209-1.41 2.101-.19.491-.384.982-.58 1.472l-.166.419c-.92 2.313-1.87 4.706-2.581 7.201-.603 2.106-.878 4.208-1.146 6.242-.074.567-.147 1.125-.227 1.683-.166 1.15.043 2.207.271 3.087.128.486.289.947.483 1.366l.147.317-.188.292a6.02 6.02 0 0 0-.566 1.116c-1.543 3.95-2.33 8.217-2.413 13.054l-.005.262-1.804 1.705c-5.184 8.783-9.477 16.872-9.627 26.924l-.783 8.352-2.38 3.683c-.278.436-1.588 4.259-1.887 5.476-.531 2.166-1.014 4.136-1.62 6.077-1.553 4.969-3.22 10.001-4.832 14.868l-1.748 5.286a7.282 7.282 0 0 0-.29 1.201l-.055.373-.329.092c-.374.11-.778.237-1.2.432-4.04 1.869-6.738 5.07-8.636 7.654l-.536.723c-.584.782-1.164 1.56-1.712 2.402-1.644 2.524-4.305 3.84-7.121 5.231-.602.296-1.997.985-2.407 2.753-.412 1.767.57 3.214.892 3.687 1.588 2.347 4.044 3.358 6.635 2.745.001 0 2.339-.546 3.27-.791l1.12-.292-1.133 2.372c-1.072 2.242-2.18 4.559-3.228 6.881-.433.955-.728 1.936-1.015 2.884l-.042.135c-.102.334-.206.681-.322 1.036l.337 2.935c.79 1.454 1.324 1.979 1.578 2.173l.313.233-.104.406a4.296 4.296 0 0 0-.092 1.717c.147.951.39 2.541 1.433 3.662.99 1.07 2.362 1.184 2.907 1.184.743 0 1.431-.199 1.99-.567l.421-.292.342.195c.723.596 1.565.871 2.643.808 2.267-.136 4.012-1.531 5.185-4.153l.174-.389.384.076c.235.047.478.072.722.072 1.057 0 2.49-.431 3.342-1.636.986-1.396 1.961-3.024 2.982-4.982.869-1.666 1.665-3.353 2.434-4.981l.756-1.599c.093-.199.166-.385.23-.571l.075-.148c1.507-2.156 2.422-4.596 3.227-6.914.113-.317.23-.634.348-.956l.063-.173c.799-2.169 1.792-4.863 1.462-7.802l.034-2.068c.043-2.152.086-4.377.088-6.588v-.419l.353-.131c.928-.355 1.662-1.099 2.181-2.22 1.46-3.138 2.934-6.263 4.41-9.392 2.38-5.041 4.84-10.255 7.196-15.448 3.673-8.089 6.76-16.327 9.174-24.488.217-.728.613-1.51 1.036-2.339.29-.571.58-1.146.838-1.734.223-.511.457-1.019.69-1.526.8-1.738 1.585-3.434 2.128-5.312.465-1.606.456-3.192.447-4.596-.001-.402-.004-.804.006-1.193a4.493 4.493 0 0 0-.31-1.712l-.146-.381.273-.279c1.046-1.07 1.784-2.021 2.32-2.994 1.863-3.4 3.56-6.88 5.206-10.242.595-1.226 2.626-6.246 2.649-6.292l.875-2.17.118 2.373c.004.055.273 5.421.436 6.626.697 5.121 1.417 10.411 3.024 15.575.527 1.695 1.259 3.945 2.233 6.296l.257.622-.59.182c-1.145.351-2.006 1.387-2.305 2.769a405.361 405.361 0 0 0-2.316 11.638c-.212 1.154.125 2.486.883 3.476l.227.3-.166.351c-1.296 2.736-2.05 5.709-2.62 8.259-.769 3.467-1.398 7.003-2.004 10.42l-.254 1.433c-.197 1.104.09 2.013.265 2.559l.08.334c.004.063.349 6.233.42 7.172l.035.435-.368.157c-1.649.706-2.733 2.359-3.055 4.647-.538 3.865-1.13 8.432-1.398 13.02-.376 6.352-.504 11.49-.41 16.167l.02 1.027c.158 7.743.321 15.753 1.057 23.652.663 7.125 1.656 14.293 2.615 21.228.394 2.838.784 5.675 1.156 8.513.117.892.28 1.725.44 2.528l.12.614 1.922 11.895.008.469c-.03 2.605-.19 5.151-.356 7.845-.144 2.326-.292 4.736-.353 7.134-.06 2.533.231 5.002.512 7.392l.064.549c.125 1.087.47 2.06.747 2.842.114.313.208.579.288.846l.2.659-.526 1.197c-1.888 4.28-3.248 7.367-4.893 13.769-.265 1.04-.546 2.068-.826 3.083-.872 3.154-1.763 6.385-2.073 9.595-.258 2.655-.198 7.806-.03 9.984.079 1.032.276 2.042.583 2.998l.03.097-.011 1.781c-.015 3.924 1.084 7.577 2.054 10.8l.076.254c.136.448.269.888.398 1.327 2.877 9.896 5.03 20.18 7.11 30.122.986 4.711 1.152 8.622.523 12.31-.341 1.983-.534 3.962-.72 5.873l-.178 1.785c-.072.681.004 1.277.053 1.675.019.152.026.224.034.291l.118 1.502-.618-.055c-2.646-.237-4.753-.351-6.443-.351Zm74.247 35.521h-.004c-2.683-.004-4.953-.491-6.742-1.455l-1.171-.626-.55-1.31c-3.168-7.528-2.638-12.699-2.009-18.666a511.712 511.712 0 0 1-1.004-8.855l-.011-.14c-.258-2.499-.55-5.336-.281-8.267l1.259-8.758.534-.029-.512-.102c.08-.499.159-1.015.322-1.59.175-.638.372-1.277.565-1.92.22-.718.44-1.437.629-2.16.629-2.411.736-6.652.232-9.261-.584-3.016-1.005-5.578-1.414-8.056-.466-2.817-.906-5.476-1.558-8.724l-1.383-6.863a13.437 13.437 0 0 1-.717-1.184c-1.914-3.734-3.013-7.291-3.358-10.872-.591-6.174-.026-12.268 1.729-18.628.409-1.489.792-2.783 1.14-3.963.842-2.841 1.448-4.892 1.774-7.467l-3.365-4.783c-3.396-8.788-4.628-14.45-6.057-21.004a382.494 382.494 0 0 0-1.311-5.883c-2.089-8.935-3.635-18.61-3.934-24.657-.273-5.472-.436-12.01-.595-18.328-.171-6.656-.338-13.451-.63-19.076-.053-1.053.19-5.353.8-15.236l.015-.271c.194-3.133.41-6.689.421-7.18l-.015-3.51a7.339 7.339 0 0 1 .019-1.12 5.752 5.752 0 0 1 .849-2.559 28.774 28.774 0 0 1-2.153-2.93 29.862 29.862 0 0 1-2.153 2.93c.47.749.762 1.62.849 2.55.034.364.038.744.015 1.159l-.007 3.573c.007.398.223 3.941.413 7.066l.019.292c.606 9.883.853 14.188.8 15.236-.292 5.625-.463 12.42-.626 18.996-.163 6.398-.326 12.931-.599 18.408-.299 6.042-1.845 15.722-3.934 24.657-.492 2.102-.909 4.026-1.311 5.87-1.429 6.567-2.661 12.229-6.057 21.017l-.068.131-3.297 4.656c.326 2.571.932 4.622 1.762 7.425.353 1.197.739 2.5 1.152 4.001 1.755 6.364 2.32 12.458 1.729 18.628-.349 3.581-1.444 7.138-3.362 10.872-.144.287-.398.706-.713 1.188l-1.383 6.859c-.652 3.248-1.092 5.907-1.558 8.724-.409 2.478-.83 5.04-1.414 8.056-.507 2.609-.401 6.85.232 9.261.189.735.413 1.458.633 2.182.193.634.386 1.264.561 1.903.163.57.242 1.086.322 1.585.034.22.068.44.113.69l1.164 8.165c.273 2.965-.019 5.802-.277 8.306l-.011.131a514.95 514.95 0 0 1-1.004 8.859c.629 5.967 1.159 11.138-2.013 18.666l-.55 1.31-1.167.626c-1.793.964-4.063 1.455-6.746 1.455-3.047 0-9.502-.841-12.117-4.021-.63-.766-1.145-1.544-1.645-2.297-.47-.71-.895-1.349-1.304-1.818-1.084-1.256-2.835-1.785-4.862-2.402-2.855-.863-6.091-1.839-8.663-5.113-2.694-3.425-3.439-7.709-2.044-11.751 1.452-4.208 5.183-7.781 9.281-8.893 1.869-.504 4.901-.52 9.991-.089l-.026-.283c-.065-.508-.152-1.223-.069-2.051l.182-1.776c.19-1.933.383-3.933.728-5.967.603-3.519.44-7.278-.512-11.828-2.077-9.916-4.222-20.175-7.087-30.028-.125-.432-.258-.872-.39-1.311l-.076-.241c-1-3.324-2.13-7.075-2.111-11.194l.007-1.573a14.512 14.512 0 0 1-.607-3.193c-.17-2.224-.233-7.493.032-10.212.325-3.32 1.227-6.601 2.103-9.773.288-1.044.568-2.063.833-3.099 1.672-6.504 3.048-9.629 4.958-13.955l.337-.77-.06-.203c-.076-.249-.167-.499-.254-.748-.315-.888-.686-1.937-.83-3.164l-.065-.549c-.284-2.432-.58-4.948-.52-7.574.058-2.427.21-4.846.353-7.185.167-2.681.323-5.209.357-7.772v-.359l-2.024-12.361c-.156-.782-.334-1.675-.455-2.609-.371-2.833-.762-5.671-1.156-8.504-.963-6.948-1.956-14.133-2.619-21.288-.743-7.946-.906-15.976-1.064-23.744l-.02-1.028c-.097-4.711.035-9.882.413-16.268.27-4.635.864-9.231 1.406-13.122.353-2.516 1.566-4.453 3.35-5.383-.098-1.573-.348-6.026-.386-6.702l-.034-.102c-.178-.567-.553-1.751-.3-3.163l.25-1.412c.615-3.451 1.244-7.003 2.02-10.496.562-2.516 1.3-5.438 2.555-8.187-.803-1.222-1.144-2.778-.89-4.153.78-4.22 1.542-8.034 2.327-11.675.337-1.569 1.243-2.795 2.467-3.396-.88-2.182-1.546-4.237-2.039-5.823-1.633-5.265-2.361-10.606-3.066-15.777-.099-.724-.224-2.753-.319-4.398-.64 1.552-1.455 3.505-1.811 4.237-1.649 3.379-3.354 6.872-5.234 10.297-.541.981-1.258 1.932-2.242 2.973.188.604.276 1.226.259 1.818-.01.376-.008.761-.006 1.15.008 1.489.02 3.18-.498 4.961-.568 1.966-1.374 3.712-2.15 5.4-.272.588-.503 1.087-.724 1.594a36.124 36.124 0 0 1-.867 1.797c-.395.778-.768 1.51-.952 2.127-2.43 8.217-5.539 16.509-9.235 24.65-2.36 5.201-4.822 10.419-7.203 15.464-1.474 3.13-2.948 6.254-4.406 9.388-.573 1.235-1.405 2.136-2.419 2.63a369.526 369.526 0 0 1-.087 6.217l-.037 1.983c.36 3.154-.693 6.009-1.537 8.305l-.064.169c-.115.317-.23.63-.339.939-.826 2.372-1.765 4.876-3.331 7.138-.07.199-.15.402-.25.613l-.758 1.599c-.773 1.641-1.574 3.336-2.454 5.024-1.047 2.008-2.05 3.683-3.064 5.116-1.082 1.535-2.859 2.081-4.162 2.081a4.3 4.3 0 0 1-.52-.03c-1.352 2.783-3.332 4.271-5.893 4.424-.117.008-.224.008-.327.008-1.012 0-1.916-.275-2.695-.82a4.574 4.574 0 0 1-2.426.668c-.672 0-2.37-.148-3.632-1.51-1.288-1.387-1.568-3.209-1.734-4.305a5.505 5.505 0 0 1 .03-1.843c-.508-.491-1.06-1.286-1.617-2.326l-.104-.288-.382-3.336.045-.136c.13-.393.246-.769.357-1.137l.037-.123c.302-.998.61-2.017 1.076-3.049 1.054-2.334 2.164-4.656 3.24-6.905l.057-.119c-1.017.246-2.179.52-2.179.52-2.985.707-5.851-.477-7.682-3.184-.397-.583-1.608-2.368-1.07-4.681.537-2.317 2.318-3.193 2.987-3.523 2.691-1.332 5.228-2.579 6.708-4.854a45.15 45.15 0 0 1 1.73-2.432l.556-.748c1.973-2.685 4.785-6.018 9.04-7.992.36-.165.698-.284 1.021-.385.067-.339.159-.686.274-1.036l1.735-5.253c1.625-4.901 3.29-9.924 4.838-14.885.596-1.903 1.074-3.852 1.58-5.92.279-1.129 1.69-5.434 2.092-5.962l2.194-3.4.75-7.993c.152-10.335 4.545-18.602 9.836-27.563l.099-.122 1.503-1.421c.108-4.884.925-9.215 2.494-13.232.145-.368.313-.719.5-1.04a10.36 10.36 0 0 1-.421-1.26c-.259-1.007-.497-2.221-.298-3.599.077-.55.151-1.104.222-1.658.274-2.085.559-4.237 1.185-6.432.728-2.558 1.692-4.981 2.623-7.32l.166-.418c.194-.487.386-.977.578-1.468.374-.964.883-1.763 1.516-2.364-.005-.27.008-.545.038-.82.07-.693.132-1.391.194-2.093l.015-.169c.143-1.662.308-3.544.605-5.4 1.118-6.995 3.23-12.141 6.65-16.2 4.364-5.185 9.901-8.983 16.936-11.621.784-.296 3.054-.926 3.15-.956l2.357-.656c1.057-.291 2.11-.608 3.164-.921 1.073-.322 2.13-.639 3.203-.94l4.737-2.837a8.14 8.14 0 0 0 .565-.342l1.611-1.066c1.368-.905 2.786-1.844 4.124-2.8.678-.486 1.485-1.365 1.72-3.864.137-1.442.247-2.914.353-4.373-1.952-1.396-3.066-3.277-3.309-5.599-.11-1.036-.197-2.072-.288-3.108l-.03-.334c-.099-1.154-.197-2.305-.326-3.45l-.068-.601c-1.141-.347-2.1-1.04-2.722-1.98-.77-1.162-1.28-2.372-1.728-3.437l-.102-.241c-.762-1.806-1.486-3.624-2.21-5.443l-.114-.287c-.796-1.992-.538-4.474.686-6.635.902-1.59 2.145-2.694 3.537-3.15a45.933 45.933 0 0 1 .01-2.61c.308-8.893 2.859-15.752 7.801-20.97C110.06 3.067 114.308.898 119.296.2a20.047 20.047 0 0 1 2.801-.199c10.722 0 19.837 8.335 22.164 20.269.618 3.163.884 6.427.812 9.958 2.539.854 4.983 4.436 4.911 7.329l-.037.676-.144.487c-.08.313-.198.773-.41 1.285a1494.592 1494.592 0 0 1-3.305 7.79c-.246.634-.716 1.839-1.929 2.621-.603.39-1.171.622-1.633.808l-.201 1.594a73.778 73.778 0 0 0-.258 2.445l-.019.16c-.129 1.35-.262 2.744-.489 4.187-.44 2.723-2.115 4.241-3.46 5.163.072 1.125.14 2.25.189 3.375.091 2.173.754 3.539 2.217 4.558 1.342.93 2.703 1.827 4.067 2.72l.341.223c.554.364 1.111.723 1.66 1.091l4.241 2.867c1.482.432 2.938.905 4.344 1.366l.117.038c.789.263 1.581.52 2.373.77l2.486.778c.042.013 1.6.419 2.327.694 7.031 2.638 12.572 6.436 16.934 11.616 3.419 4.064 5.534 9.21 6.652 16.205.296 1.852.459 3.729.603 5.383.038.423.197 2.275.231 3.083.64.608 1.156 1.408 1.535 2.385.201.515.405 1.031.61 1.547l.136.347c.929 2.334 1.888 4.745 2.619 7.303.626 2.199.91 4.347 1.183 6.424.072.562.144 1.12.224 1.67.2 1.378-.038 2.592-.3 3.594-.114.44-.254.863-.417 1.265.186.321.353.672.497 1.044 1.573 4.018 2.387 8.348 2.494 13.228l1.603 1.543c5.291 8.961 9.683 17.224 9.839 27.614l.03 2.076.724 5.916c.58 1.176 3.961 8.022 4.26 9.24.519 2.11 1.001 4.077 1.6 5.992 1.565 5.016 3.232 10.044 4.843 14.907l1.729 5.231c.113.35.208.697.272 1.036.315.097.664.22 1.024.385 4.256 1.974 7.068 5.307 9.039 7.992l.538.723c.584.782 1.179 1.581 1.747 2.457 1.482 2.271 4.018 3.527 6.701 4.85.614.305 2.456 1.21 2.995 3.527.538 2.309-.675 4.098-1.073 4.685-1.827 2.703-4.688 3.882-7.679 3.18l-.5-.118c-.553-.131-1.114-.262-1.675-.397l.03.063c1.103 2.309 2.213 4.626 3.263 6.956.47 1.045.781 2.068 1.08 3.062l.035.114c.11.368.227.744.356 1.138l.045.143-.019.148c-.477 3.481-.515 3.553-.572 3.667-.28.554-.72 1.425-1.508 2.131.113.605.121 1.201.034 1.78-.167 1.112-.451 2.969-1.751 4.369-1.251 1.357-2.949 1.501-3.624 1.501-.89 0-1.728-.233-2.425-.668-.861.604-1.854.879-3.017.812-2.566-.153-4.548-1.641-5.898-4.424-.174.021-.348.03-.523.03-1.3 0-3.073-.546-4.157-2.081-1.02-1.437-2.02-3.108-3.066-5.112-.88-1.687-1.687-3.4-2.468-5.058l-.735-1.556a6.597 6.597 0 0 1-.262-.626c-1.561-2.258-2.501-4.766-3.331-7.138-.125-.368-.262-.74-.402-1.108-.845-2.296-1.895-5.15-1.531-8.39l-.042-1.835c-.038-2.055-.083-4.17-.087-6.28-1.012-.494-1.846-1.395-2.418-2.63a1599.163 1599.163 0 0 0-4.438-9.451c-2.376-5.045-4.829-10.238-7.171-15.401-3.699-8.141-6.807-16.433-9.236-24.65-.182-.613-.554-1.344-.948-2.127a32.675 32.675 0 0 1-.872-1.797 69.675 69.675 0 0 0-.72-1.59c-.784-1.704-1.588-3.446-2.152-5.408-.512-1.768-.505-3.455-.501-4.948.004-.398.004-.783-.004-1.163a5.608 5.608 0 0 1 .258-1.814c-.981-1.036-1.698-1.988-2.24-2.973-1.868-3.408-3.57-6.889-5.215-10.255l-1.065-2.178a5.93 5.93 0 0 0-.11-.228 92.138 92.138 0 0 1-.212 1.966c-1.103 9.16-2.733 16.053-5.261 22.231 1.152.626 2.005 1.827 2.331 3.32a402.3 402.3 0 0 1 2.324 11.671c.253 1.379-.084 2.939-.891 4.161 1.258 2.749 1.997 5.671 2.554 8.187.781 3.493 1.41 7.045 2.02 10.479l.254 1.429c.251 1.417-.125 2.605-.307 3.176l-.03.101c-.038.677-.284 5.117-.387 6.69 1.789.93 3.002 2.867 3.351 5.383.546 3.899 1.141 8.513 1.41 13.122.379 6.373.508 11.545.413 16.268l-.019 1.024c-.159 7.768-.322 15.802-1.065 23.748-.659 7.113-1.649 14.272-2.608 21.19-.405 2.931-.796 5.769-1.167 8.602-.121.939-.299 1.827-.455 2.613l-.121.605-1.914 11.857.011.258c.031 2.542.186 5.066.353 7.743.148 2.368.295 4.787.356 7.21.061 2.622-.231 5.134-.515 7.557l-.069.566c-.144 1.227-.515 2.276-.814 3.117-.107.296-.194.546-.27.795l-.06.203.333.761c1.907 4.322 3.286 7.447 4.962 13.964.257 1.002.526 1.987.795 2.964l.038.127c.872 3.171 1.778 6.449 2.1 9.781.265 2.736.205 8.001.034 10.212a14.504 14.504 0 0 1-.61 3.193l.008 1.573c.022 4.115-1.107 7.857-2.1 11.164-.167.554-.326 1.07-.474 1.582-2.865 9.853-5.014 20.112-7.087 30.028-.955 4.55-1.118 8.309-.516 11.828.349 2.034.542 4.034.732 5.967.057.592.117 1.184.178 1.771.087.821 0 1.51-.057 1.967l-.034.372c5.09-.431 8.122-.415 9.991.093 4.097 1.104 7.826 4.677 9.281 8.889 1.395 4.042.649 8.326-2.046 11.751-2.57 3.274-5.807 4.25-8.661 5.113-2.027.613-3.778 1.146-4.866 2.402-.406.469-.83 1.108-1.277 1.785-.516.773-1.035 1.56-1.668 2.33-2.615 3.18-9.07 4.021-12.117 4.021Z" fill="#9AA0A9"/><path d="M117.356 89.61c-1.258-3.357-3.204-5.923-6.772-6.521-4.371-.733-8.753-1.159-13.101-.3-3.545.7-7.01 1.892-10.514 2.865 0 .181 0 .367-.004.548 5.158 1.706 7.204 6.223 8.423 11.447.466 1.993.796 4.027 1.205 6.037.856 4.243 1.681 8.54 3.863 12.205a544.52 544.52 0 0 0 10.912 17.539c3.344 5.17 6.802 10.238 8.529 16.427.36 1.298.595 2.637.955 4.272.102-2.157.276-3.994.261-5.827-.106-13.848-.288-27.7-.36-41.549-.03-6.008-1.352-11.67-3.397-17.143ZM135.083 82.7c-3.242.372-6.072 1.48-7.748 4.872-1.941 3.925-3.288 8.193-3.72 12.562-.654 6.655-.813 13.386-.911 20.091-.144 9.629-.05 19.263-.035 28.892.004 1.534.137 3.068.205 4.602 1.29-7.948 5.501-14.108 9.621-20.332 2.562-3.871 5.123-7.745 7.601-11.683 2.596-4.124 4.934-8.425 6.039-13.39.844-3.807 1.532-7.661 2.433-11.455.896-3.794 2.429-7.212 5.565-9.367.818-.562 1.737-.938 2.611-1.399l.03-.363c-2.72-.858-5.414-1.821-8.161-2.54-4.468-1.17-8.993-1.01-13.53-.49ZM122.753 220.15c-.007 3.161-.105 6.322-.128 9.483-.004.38.196.768.301 1.152.324-.228.757-.376.953-.701 1.11-1.848 2.243-3.697 3.23-5.63 2.94-5.756 4.498-12.121 6.365-18.354 1.295-4.314 2.537-8.673 4.807-12.506 1.292-2.177 2.635-4.334 5.086-5.123 1.702-.549 1.724-.595 1.6-2.609-.482-7.689-2.372-14.944-6.494-21.123-3.117-4.672-6.847-8.833-10.322-13.201-.29-.363-.719-.612-1.114-.836-.678-.38-1.34-.262-1.585.578-.847 2.912-2.021 5.799-2.319 8.791-.433 4.381-.256 8.838-.271 13.265-.03 8.353-.007 16.701-.007 25.053h-.094c0 7.255.015 14.51-.008 21.761ZM120.992 165.725c-.14 0-.136-4.767-.49-7.053-.365-2.379-1.307-4.648-2.065-6.938-.444-1.35-1.096-1.565-2.169-.797a6.222 6.222 0 0 0-1.191 1.16 416.53 416.53 0 0 0-4.37 5.449c-1.571 1.987-3.168 3.948-4.679 5.985-2.091 2.818-3.436 6.108-4.668 9.478-1.605 4.382-2.4 8.929-2.625 13.636-.046.987.275 1.489 1.118 1.683 1.7.392 2.973 1.498 4.077 2.965 2.957 3.936 4.411 8.676 5.869 13.43 1.435 4.661 2.78 9.359 4.348 13.965 1.397 4.104 3.285 7.955 5.707 11.439.207.295.58.443.878.658.135-.363.376-.725.384-1.092.015-.882-.121-1.763-.121-2.645-.007-20.444-.003-40.884-.003-61.323Z" fill="#9AA0A9"/><path d="m162.588 127.151-.174-4.856-.012.005a5.623 5.623 0 0 0-.182-1.048 55.805 55.805 0 0 0-1-3.356c-1.911-5.844-5.167-10.552-9.72-14.128-1.959-1.541-2.896-1.073-3.32 1.516-.637 3.88-1.6 7.672-3.382 11.079-1.558 2.977-3.434 5.747-5.17 8.605l-2.51 4.56c-2.816 4.801-5.648 9.593-8.453 14.402-.963 1.656-.978 3.323.099 4.953 3.241 4.907 7.035 9.158 11.743 12.334 3.533 2.385 7.142 2.28 10.739.295 3.878-2.136 6.304-5.827 8.203-10.007 2.616-5.746 3.367-11.936 3.408-19.27-.053-1.043-.136-3.066-.269-5.084ZM114.164 150.024c2.016-2.783 2.167-3.919.454-6.93-2.572-4.514-5.28-8.936-7.9-13.421l-2.043-3.885-.166-.025a5.346 5.346 0 0 0-.492-.946c-1.312-2.061-2.711-4.058-3.925-6.187-2.432-4.252-3.858-8.94-4.622-13.902-.291-1.867-1.188-2.306-2.666-1.351-.617.401-1.207.87-1.766 1.372-4.728 4.232-7.742 9.709-9.402 16.174-.14.545-.22.984-.242 1.364h-.004l-.185 4.941c-.125 1.934-.212 3.869-.314 5.824.09 1.837.14 3.695.28 5.541.499 6.486 2.34 12.441 5.831 17.69 2.14 3.222 4.962 5.426 8.453 6.406 3.407.95 6.41-.363 9.194-2.441 3.714-2.77 6.724-6.372 9.515-10.224Z" fill="#9AA0A9"/><path d="m160.579 151.813-.337-.101c-.17.392-.322.797-.515 1.173-1.14 2.232-2.178 4.54-3.466 6.658-1.326 2.173-2.951 4.122-5.368 4.818-3.288.95-6.526.684-9.674-.776-.277-.127-.572-.198-1.129-.393 3.875 7.844 5.807 16.043 7.246 24.831.83-.632 1.425-.987 1.913-1.472 2.44-2.435 4.11-5.485 5.52-8.73 3.03-6.991 4.481-14.464 5.405-22.093.159-1.303.273-2.611.405-3.915ZM103.29 163.201c-.357.092-.503.105-.631.164-2.202 1.084-4.513 1.581-6.9 1.434-2.6-.16-5.17-.692-6.825-3.209-1.726-2.628-3.242-5.436-4.817-8.19-.29-.502-.417-1.122-.623-1.691-.09.025-.184.046-.278.067-.011.203-.056.405-.026.599.915 6.309 1.512 12.668 3.395 18.779 1.4 4.533 3.05 8.877 5.64 12.706.765 1.126 1.692 2.143 2.649 3.079 1.1 1.075 1.448.89 1.71-.683.02-.127.034-.249.053-.376 1.025-6.271 2.454-12.406 4.807-18.235.578-1.429 1.182-2.846 1.846-4.444ZM129.516 82.394l5.4-1.442c3.357.118 6.72.085 10.076.144.171.004.338-.085.793-.211a76.7 76.7 0 0 0-1.02-.688c-2.048-1.353-4.119-2.665-6.14-4.069-2.575-1.788-3.792-4.448-3.932-7.805-.122-2.896-.387-5.793-.493-8.694-.16-4.356-1.293-8.366-3.246-12.11-.175-.33-.437-.603-.66-.903-.125.047-.251.093-.376.144.44 5.709.88 11.418 1.32 17.153-.083-.359-.201-.7-.243-1.054-.679-5.503-1.323-11.01-2.044-16.509-.079-.607-.447-1.391-.899-1.686-3.75-2.433-7.588-2.48-11.505-.384-1.157.62-1.521 1.476-1.582 2.86-.276 6.197-1.039 12.328-2.48 18.333-.151.628-.405 1.223-.614 1.834 1.342-8.754 2.203-19.19 1.464-20.737-.319.476-.649.873-.888 1.328-1.471 2.804-2.434 5.81-2.696 9.049-.33 4.111-.523 8.235-.91 12.338-.262 2.757-1.16 5.262-3.383 6.847-1.911 1.362-3.879 2.62-5.828 3.918-.342.228-.706.426-1.274.767.455.14.656.262.857.262 3.564-.06 7.133-.114 10.697-.203l-.003.009 4.679 1.556c4.782 4.182 6.724 9.765 7.285 16.41.842-3.36 1.407-6.329 2.336-9.145.971-2.93 2.932-5.157 5.309-7.312Z" fill="#9AA0A9"/><path d="M100.408 43.991c.437 1.028.865 2.09 1.465 2.991.262.398.956.597 1.446.575h1.582c.156 1.308.3 2.615.452 3.922.261 2.302.406 4.624.648 6.93.175 1.659 1.245 2.467 2.607 3.232.088-.558.156-.96.217-1.362.364-2.5.603-5.034 1.127-7.488.709-3.321 1.745-6.583 4.322-8.707 4.447-3.668 9.198-3.87 14.162-1.248 2.565 1.358 4.03 3.74 4.929 6.507.831 2.56 1.275 5.288 1.802 7.962.27 1.379.346 2.805.536 4.43 1.221-.758 2.242-1.498 2.458-2.856.357-2.196.467-4.438.752-6.65.197-1.55.387-3.106.588-4.659l1.491.009c.516-.224 1.063-.394 1.537-.703.228-.143.338-.541.471-.846a1537.08 1537.08 0 0 0 3.293-7.771c.126-.3.194-.635.251-.838.03-1.142-1.609-3.325-2.546-3.376l-2.493-1.159-.008.03c.277-3.918.175-7.848-.6-11.808-2.132-10.932-11.167-18.272-20.973-16.906-4.011.563-7.616 2.243-10.587 5.377-4.671 4.93-6.428 11.237-6.667 18.175-.065 1.853.011 3.693.17 5.525l-2.424.77c-1.461.043-2.9 2.793-2.3 4.294.752 1.887 1.503 3.778 2.292 5.648ZM99.063 191.336a2.316 2.316 0 0 0-.493-.5l-.011-.009-.004.005c-.252-.195-.531-.374-.772-.543-.252-.178-.618-.149-1.141-.255-4.267.301-7.852 2.57-10.533 6.565-1.97 2.939-2.945 6.476-3.725 10.022-.858 3.884-1.525 7.824-2.222 11.755-.079.463.196 1.01.306 1.515.448-.2 1.061-.255 1.314-.628.922-1.361 1.871-2.748 2.55-4.275.222-.505.455-1.001.685-1.497l3.871-4.356 2.2-1.577c.749-.492 1.513-.946 2.327-1.247 3.008-1.124 6.127-1.921 9.218-2.765 1.292-.352 1.638-.56 1.296-1.968-.554-2.264-1.25-4.491-1.989-6.696-.207-.624-.455-1.044-.749-1.264l.023-.11-2.15-2.172ZM88.587 247.177c-.124-4.154-.638-8.228-2.868-11.885-1.04-1.709-2.377-3.111-4.313-3.774-2.316-.794-3.68-.152-4.013 2.233-.59 4.226-1.119 8.478-1.372 12.742-.31 5.282-.51 10.588-.4 15.887.165 8.135.305 16.296 1.057 24.402.922 9.884 2.46 19.721 3.746 29.574.132 1.005.351 1.997.544 2.994l1.973 12.235c-.004.24 0 .477-.004.717-.06 5.003-.59 9.989-.707 14.988-.06 2.483.265 4.995.552 7.477.121 1.06.601 2.081.919 3.116.128-.017.257-.034.385-.055.106-.215.223-.427.314-.65 1.708-4.307 3.212-8.71 5.166-12.89 3.802-8.144 5.715-16.714 6.047-25.719.261-7.076.51-14.148.824-21.219.099-2.158.45-4.294.59-6.451.351-5.455.752-10.91.926-16.373.098-3.124-.125-6.273-.37-9.398-.133-1.667-.734-2.068-2.29-1.566-.999.321-1.978.697-2.949 1.093-1.708.63-5.801 1.824-5.85-1.017 1.24-5.404 2.256-10.846 2.093-16.461ZM94.551 357.066c.529-.448.9-.742 1.245-1.063 1.03-.956 1.988-2.006 3.088-2.856 1.072-.828 1.275-1.281.555-2.493-1.927-3.262-3.505-6.686-4.355-10.443-.043-.188-.165-.359-.414-.897-1.188 2.485-2.245 4.705-3.306 6.925-.429.897-.192 1.657.222 2.532.824 1.75 1.506 3.578 2.184 5.401.318.858.482 1.776.781 2.894Z" fill="#9AA0A9"/><path d="M106.318 206.581c-.509-2.047-1.474-2.654-3.643-2.349-4.567.654-8.357 2.744-11.585 5.755-4.816 4.493-7.746 10.087-9.907 16.096-.622 1.729-.302 2.459 1.456 3.398 2.862 1.533 4.714 3.818 5.607 6.782 1.335 4.451 2.075 8.991 1.87 13.599-.146 3.355-.61 6.693-.934 10.044-.344 2.336.788 3.228 3.11 2.515 5.975-1.831 11.635-4.294 16.779-7.713 4.718-3.139 8.742-6.859 11.163-11.998 1.279-2.705 1.226-4.931-.603-7.581-6.087-8.808-10.767-18.249-13.313-28.548ZM85.66 194.771c.788-.815 1.4-1.832 2.238-2.576 1.375-1.226 2.873-2.292 4.383-3.476-1.502-2.033-2.997-4.103-4.54-6.14-.636-.837-1.33-.82-1.518.046-.819 3.793-1.57 7.6-2.28 11.414-.068.373.244 1.075.54 1.209.29.126.887-.176 1.176-.477ZM89.87 350.206c-.406.013-.933.61-1.157 1.085-1.16 2.458-3.045 5.116-4.118 7.62-2.601 6.057-4.103 8.778-6.03 16.301-1.091 4.246-2.433 8.281-2.816 12.219-.24 2.454-.175 7.493-.027 9.438.364 4.679 3.34 7.163 7.318 8.345 3.022.895 5.09-.487 5.324-3.81.277-3.941.194-7.917.527-11.846a508.073 508.073 0 0 1 2.017-19.508c.57-4.633 1.377-9.219 1.377-13.923-.004-1.784-.444-3.37-1.229-4.874-.246-.466-.796-1.056-1.186-1.047ZM116.87 254.32a3.718 3.718 0 0 0 0-.578c-.098-1.077-1.236-1.571-1.942-.786-1.893 2.12-4.414 3.256-6.923 4.329-4.152 1.782-6.068 5.14-6.665 9.313-.68 4.772-1.092 9.591-1.508 14.406a700.263 700.263 0 0 0-1.277 17.125c-.314 4.992-.718 9.993-.673 14.993.004.461.023.921.034 1.381l-.007.03-1.806 20.091c-.363 1.267-.514 2.576-.28 3.932.862 4.949 3.148 9.278 6.326 13.143.99 1.203 1.568 2.39 1.534 3.919-.023 1.073.079 2.145.128 3.222l.095 11.412c.226.042.449.084.676.131.438-.849.839-1.706 1.315-2.543 4.205-10.913 4.954-16.8 7.164-26.269 1.904-8.155 3.507-17.683 3.809-23.824.552-11.103.65-26.265 1.224-37.364.079-1.554-1.209-20.779-1.239-22.346l.015-3.717Z" fill="#9AA0A9"/><path d="M101.98 368.605c.011-2.216.075-5.933.188-8.145.079-1.568.075-3.144.018-4.717-.037-.936-.654-1.36-1.56-.928-1.015.483-2.098.958-2.903 1.683-2.105 1.915-3.233 4.454-3.873 7.09-1.722 7.111-2.538 14.37-3.087 21.676-.131 3.912-.368 7.823-.365 11.743.004 4.145.516 8.268 1.832 12.282 1.019 3.102 2.617 5.865 5.591 7.725 1.282.801 2.485.78 3.557-.186.632-.572 2.271-2.907 2.632-3.615 1.831-3.607 2.621-6.615 2.877-9.306.552-5.828-.012-11.311-1.572-17.041-2.027-7.425-3.373-9.916-3.335-18.261ZM97.188 456.589c-2.293-.953-6.907.81-7.713 3.332-.467 1.455-1.02 2.885-1.585 4.302l-.022-.013c-1.589 3.897-1.74 4.032-3.607 6.95-1.648-.147-8.86-.94-11.398-.253-2.793.759-5.622 3.273-6.69 6.381-.81 2.358-.61 5.053 1.373 7.583 3.57 4.563 9.68 3.121 13.32 7.351 1.084 1.261 1.927 2.88 2.989 4.179 1.697 2.071 10.269 3.922 14.489 1.649 2.683-6.397 2.292-10.56 1.622-16.924.373-3.083.734-6.17 1.05-9.262.328-3.192.67-6.406-.038-9.615-.538-2.438-1.396-4.665-3.79-5.66Z" fill="#9AA0A9"/><path d="M94.048 416.39c-1.645-1.669-2.607-3.753-3.254-6.028-.165-.57-.304-.921-1.052-.845-1.164.118-2.374.106-3.528-.097-1.303-.233-2.566-.74-4.106-1.201a6647.46 6647.46 0 0 0 1.683 8.18c.552 2.705 1.127 5.402 1.657 8.107.522 2.668 1.03 5.339 1.48 8.019.451 2.663.827 5.339 1.236 8.011-.293-.119-.353-.275-.383-.436-1.89-10.407-4.133-20.721-6.876-30.925-.672-2.507-2.833-4.714-4.565-6.912-.019 4.046 1.356 7.926 2.378 11.464 2.879 9.989 4.994 20.164 7.11 30.347.935 4.506 1.31 8.957.54 13.514-.417 2.456-.605 4.958-.864 7.448-.045.444.056.913.094 1.37.113.004.23.004.346.008.082-.478.176-.951.255-1.433.459-2.798 1.27-5.428 3.055-7.613 2.45-3.001 6.515-3.889 9.39-2.029.462.3.882.672 1.585 1.213-.147-.82-.195-1.348-.334-1.851-.384-1.387-.842-2.756-1.206-4.151-.797-3.078-.91-8.036-.294-11.261 1.195-6.227 1.714-10.581 2.954-16.799.372-1.873.747-3.745 1.172-5.871-3.367 3.081-5.317 2.976-8.473-.229ZM141.119 203.546c3.096.844 6.214 1.641 9.224 2.765.809.301 1.574.755 2.327 1.247l2.2 1.577 3.871 4.352c.23.5.464.996.686 1.501.678 1.527 1.623 2.914 2.546 4.275.252.373.87.428 1.318.628.109-.505.384-1.052.301-1.515-.693-3.931-1.363-7.871-2.218-11.755-.783-3.546-1.755-7.083-3.729-10.022-2.677-3.995-6.263-6.264-10.53-6.565-.524.106-.893.077-1.141.255-.241.169-.52.348-.776.543v-.005l-.011.009c-.2.153-.369.318-.494.5l-2.15 2.172.022.11c-.297.22-.542.64-.753 1.264-.738 2.205-1.435 4.432-1.985 6.696-.342 1.408.004 1.616 1.292 1.968ZM144.875 353.147c1.103.85 2.061 1.9 3.088 2.856.348.321.72.615 1.249 1.063.295-1.118.463-2.036.781-2.894.674-1.823 1.356-3.651 2.184-5.401.41-.875.651-1.635.222-2.532-1.065-2.22-2.122-4.44-3.31-6.925-.249.538-.368.709-.41.897-.854 3.757-2.429 7.181-4.356 10.443-.72 1.212-.517 1.665.552 2.493ZM156.023 182.579c-1.544 2.037-3.043 4.107-4.543 6.14 1.511 1.184 3.01 2.25 4.385 3.476.838.744 1.45 1.761 2.239 2.576.29.301.887.603 1.173.477.3-.134.612-.836.541-1.209a396.31 396.31 0 0 0-2.277-11.414c-.188-.866-.887-.883-1.518-.046ZM154.874 389.558c.334 3.929.247 7.905.524 11.846.235 3.323 2.305 4.705 5.327 3.81 3.978-1.182 6.955-3.666 7.315-8.345.152-1.945.216-6.984-.023-9.438-.383-3.938-1.729-7.973-2.817-12.219-1.93-7.523-3.428-10.244-6.029-16.301-1.073-2.504-2.958-5.162-4.118-7.62-.228-.475-.751-1.072-1.157-1.085-.391-.009-.94.581-1.187 1.047-.789 1.504-1.229 3.09-1.229 4.874 0 4.704.808 9.29 1.377 13.923a514.56 514.56 0 0 1 2.017 19.508ZM142.4 416.828c1.071.966 2.274.987 3.557.186 2.974-1.86 4.568-4.623 5.587-7.725 1.32-4.014 1.831-8.137 1.835-12.282 0-3.92-.233-7.831-.365-11.743-.549-7.306-1.365-14.565-3.087-21.676-.639-2.636-1.767-5.175-3.876-7.09-.801-.725-1.884-1.2-2.899-1.683-.907-.432-1.527-.008-1.561.928a54.957 54.957 0 0 0 .019 4.717c.113 2.212.177 5.929.188 8.145.034 8.345-1.309 10.836-3.335 18.261-1.564 5.73-2.125 11.213-1.572 17.041.256 2.691 1.045 5.699 2.873 9.306.361.708 2.004 3.043 2.636 3.615Z" fill="#9AA0A9"/><path d="M134.665 254.708c5.144 3.419 10.804 5.882 16.774 7.713 2.323.713 3.458-.179 3.115-2.515-.324-3.351-.788-6.689-.935-10.044-.204-4.608.532-9.148 1.87-13.599.89-2.964 2.746-5.249 5.608-6.782 1.758-.939 2.078-1.669 1.456-3.398-2.161-6.009-5.091-11.603-9.907-16.096-3.228-3.011-7.018-5.101-11.585-5.755-2.169-.305-3.138.302-3.643 2.349-2.546 10.299-7.229 19.74-13.312 28.548-1.829 2.65-1.882 4.876-.607 7.581 2.424 5.139 6.448 8.859 11.166 11.998ZM145.049 439.289c.629 3.225.515 8.183-.297 11.261-.366 1.395-.831 2.764-1.22 4.151-.141.503-.194 1.031-.339 1.851.709-.541 1.14-.913 1.608-1.213 2.917-1.86 7.042-.972 9.527 2.029 1.807 2.185 2.635 4.815 3.1 7.613.076.482.171.955.259 1.433.118-.004.233-.004.351-.008.034-.457.141-.926.095-1.37-.263-2.49-.454-4.992-.877-7.448-.781-4.557-.4-9.008.549-13.514 2.147-10.183 4.289-20.358 7.213-30.347 1.037-3.538 2.432-7.418 2.409-11.464-1.753 2.198-3.945 4.405-4.628 6.912-2.783 10.204-5.059 20.518-6.98 30.925-.027.161-.088.317-.389.436.416-2.672.797-5.348 1.254-8.011.462-2.68.976-5.351 1.506-8.019.534-2.705 1.117-5.402 1.681-8.107.553-2.642 1.102-5.284 1.708-8.18-1.563.461-2.844.968-4.17 1.201-1.171.203-2.394.215-3.576.097-.763-.076-.904.275-1.068.845-.655 2.275-1.635 4.359-3.301 6.028-3.202 3.205-5.181 3.31-8.597.229.431 2.126.808 3.998 1.19 5.871 1.258 6.218 1.78 10.572 2.992 16.799ZM139.184 370.383c.223-.047.449-.089.676-.131l.095-11.412c.045-1.077.147-2.149.124-3.222-.03-1.529.548-2.716 1.538-3.919 3.178-3.865 5.464-8.194 6.325-13.143.235-1.356.084-2.665-.279-3.932l-1.81-20.091-.004-.03c.008-.46.03-.92.034-1.381.042-5-.363-10.001-.672-14.993a719.693 719.693 0 0 0-1.278-17.125c-.415-4.815-.827-9.634-1.511-14.406-.597-4.173-2.509-7.531-6.662-9.313-2.509-1.073-5.029-2.209-6.926-4.329-.703-.785-1.84-.291-1.938.786a3.282 3.282 0 0 0 0 .578l.011 3.717c-.026 1.567-1.315 20.792-1.236 22.346.575 11.099.673 26.261 1.225 37.364.302 6.141 1.904 15.669 3.809 23.824 2.21 9.469 2.958 15.356 7.164 26.269.476.837.876 1.694 1.315 2.543Z" fill="#9AA0A9"/><path d="M170.831 470.907c-2.564-.687-9.853.106-11.523.253-1.888-2.918-2.036-3.053-3.641-6.95l-.023.013c-.575-1.417-1.134-2.847-1.602-4.302-.814-2.522-5.478-4.285-7.795-3.332-2.42.995-3.291 3.222-3.831 5.66-.716 3.209-.369 6.423-.038 9.615.319 3.092.684 6.179 1.057 9.262-.677 6.364-1.069 10.527 1.644 16.924 4.261 2.273 12.927.422 14.643-1.649 1.073-1.299 1.925-2.918 3.021-4.179 3.675-4.23 9.854-2.788 13.46-7.351 2.005-2.53 2.207-5.225 1.389-7.583-1.081-3.108-3.938-5.622-6.761-6.381ZM151.421 264.655a42.25 42.25 0 0 0-2.947-1.093c-1.558-.502-2.159-.101-2.291 1.566-.245 3.125-.468 6.274-.37 9.398.174 5.463.574 10.918.926 16.373.136 2.157.491 4.293.586 6.451.317 7.071.566 14.143.827 21.219.333 9.005 2.241 17.575 6.047 25.719 1.954 4.18 3.455 8.583 5.167 12.89.087.223.208.435.31.65.132.021.261.038.389.055.318-1.035.794-2.056.918-3.116.288-2.482.613-4.994.552-7.477-.121-4.999-.646-9.985-.706-14.988-.004-.24 0-.477-.004-.717l1.973-12.235c.192-.997.412-1.989.54-2.994 1.289-9.853 2.827-19.69 3.745-29.574.756-8.106.896-16.267 1.063-24.402.109-5.299-.091-10.605-.405-15.887-.249-4.264-.778-8.516-1.368-12.742-.336-2.385-1.697-3.027-4.014-2.233-1.935.663-3.273 2.065-4.312 3.774-2.23 3.657-2.748 7.731-2.869 11.885-.166 5.615.851 11.057 2.094 16.461-.049 2.841-4.142 1.647-5.851 1.017ZM237.803 252.144c-3.072-1.525-6.125-3.067-8.142-6.18-.667-1.031-1.417-1.998-2.141-2.987-2.077-2.838-4.421-5.339-7.577-6.804-.459-.212-.961-.317-1.443-.474l-4.735-.477.042.089a4.83 4.83 0 0 0-2.296.367c-2.126.904-4.176 2.041-6.219 3.16-.347.19-.698.828-.698 1.263-.007 3.075.076 6.15.128 9.225-.384 2.678.818 5.255 1.678 7.734.874 2.518 1.738 4.74 3.144 6.594.09.3.15.524.248.726 1.026 2.163 2.021 4.351 3.118 6.472.833 1.601 1.737 3.176 2.759 4.633.294.414 1.206.647 1.681.465.762-.292.437-1.132.181-1.74-.852-2.028-1.836-3.992-2.578-6.066a6.585 6.585 0 0 0-.434-.946c.351-.241.731-.642 1.139-1.284.444 1.06.908 2.112 1.345 3.176 1.142 2.805 2.281 5.61 3.404 8.423.615 1.542 1.433 2.792 3.125 2.893.946.055 1.436-.464 1.417-1.689-.071-.22-.177-.625-.331-1.006-1.335-3.307-2.635-6.636-4.041-9.905-.6-1.39-1.274-2.737-1.968-4.072.226-.296.49-.6.777-.908.588 1.259 1.179 2.518 1.745 3.793 1.677 3.776 3.287 7.595 5.032 11.333.407.87 1.176 1.639 1.945 2.15.419.279 1.391.165 1.734-.207.441-.473.569-1.373.682-2.116.053-.359-.199-.803-.369-1.174-2.556-5.644-5.108-11.291-7.697-16.917.222-.258.422-.516.588-.769 2.344 4.612 4.693 9.225 7.083 13.808.256.494 1.138 1.077 1.462.925.494-.232.758-1.077 1.112-1.643-.475-1.453-.776-2.729-1.297-3.886-1.406-3.13-2.906-6.209-4.368-9.306a375.23 375.23 0 0 0-2.33-4.874 2.32 2.32 0 0 0-.113-.397c.46-1.031 1.451-1.36 1.451-1.36.445.815 1.263 1.643 2.077 1.943 2.002.726 4.09 1.199 6.163 1.685 1.636.389 3.001-.173 3.992-1.647.724-1.073.63-1.479-.475-2.023ZM187.411 145.27a10.158 10.158 0 0 1-3.603-1.047c-1.893-.967-3.642-2.157-5.694-3.401.034.504.068.794.068 1.084-.003 2.22.178 4.453-.075 6.656-.307 2.64-1.393 5.032-4.255 6.496-.046.025-.084.084-.125.138-.174.017-.496.013-1.102-.05-1.181-.118-2.748-1.606-3.615-2.531a81.068 81.068 0 0 0-.651-.728l.008.009c-.587-.643-1.178-1.287-1.742-1.942-.121.067-.238.13-.359.193.068.227.098.467.204.681 2.305 4.621 4.486 9.279 6.992 13.828.882 1.598 2.483 2.968 3.929 4.318.428.404 1.454.395 2.207.576l3.589.294c.401.076.859-.012 1.393-.227 1.537-.613 3.119-1.211 4.747-1.551 1.086-.231 1.582-.652 1.673-1.53.261-2.611.727-5.231.685-7.829-.06-4.07-.681-8.089-2.195-11.949-.349-.895-.863-1.383-2.079-1.488ZM192.501 172.935c3.761 4.319 7.146 8.918 9.96 13.937.158.28.429.498.645.745.12-.071.236-.146.356-.218-.147-9.538-4.684-17.409-9.418-25.2l-.48.012c-.193.432-.479.847-.564 1.303-.441 2.291-.815 4.595-1.244 6.891-.186.989.092 1.78.745 2.53Z" fill="#9AA0A9"/><path d="M175.839 150.787c.065-.221.129-.446.152-.676.205-2.203.399-4.406.535-5.937-.303-2.122-.55-3.534-.706-4.959-.866-7.901-5.167-14.089-9.481-20.247-.357-.515-1.344-.813-1.997-.744-.364.034-.683 1.003-.941 1.59-.141.323-.152.727-.149 1.093.019 4.81-.072 9.628.111 14.434.25 6.609 3.098 12.112 7.388 16.828 2.275 2.505 4.12 1.923 5.088-1.382ZM174.663 122.073c-1.276-.293-2.544-.616-4.225-1.027.31.973.432 1.564.681 2.114 1.426 3.083 3.058 6.099 4.276 9.25 1.77 4.568 5.375 7.731 9.271 10.705 2.214 1.686 4.222 1.015 4.892-1.535.153-.588.291-1.221.203-1.808-.364-2.488-.59-5.026-1.295-7.438-.862-2.974-2.122-5.852-3.271-8.751-.315-.792-.805-1.476-2.027-1.174-2.869.717-5.701.306-8.505-.336ZM215.623 233.872c1.11.245 1.329-.313.925-1.544-2.204-6.728-4.462-13.435-6.568-20.201-1.004-3.227-1.695-6.568-2.567-9.85-.102-.393-.438-.718-.668-1.074-.295.347-.65.652-.861 1.049-.162.313-.178.736-.2 1.112-.125 2.233-.332 4.47-.317 6.707.034 4.263.196 8.526.305 12.788l-.411.013c-1.129-6.876-1.367-13.833-1.121-20.781.245-6.888-.963-13.185-5.051-18.645-.268-.359-.536-.723-.812-1.078v-.004a15.672 15.672 0 0 0-.423-.52l-3.084-3.823c-1.355-1.079-2.563-2.06-3.794-3.003l-2.344-2.461a.85.85 0 0 0-.264-.279l-.023-.026v.004c-.309-.186-.762-.211-1.363-.05-1.03.279-1.997.939-2.921 1.552-1.027.681-1.231 1.768-.74 2.888.528 1.218 1.113 2.423 1.823 3.523 1.325 2.051 2.677 4.034 3.371 6.483 2.416 8.525 4.926 17.017 7.392 25.525.721 2.483 1.404 4.978 2.102 7.468l-.181.064c-.068-.14-.155-.275-.2-.427-2.548-8.614-5.059-17.237-7.644-25.834-1.22-4.052-2.292-8.188-4.764-11.66-1.503-2.114-2.975-4.254-4.493-6.356a116.24 116.24 0 0 0-3.276-4.317c-.2-.254-.638-.508-.884-.436-.211.063-.438.592-.43.909.049 1.671-.121 3.434.328 4.99.646 2.233 1.737 4.322 2.669 6.458.653 1.489 1.54 2.888 1.997 4.436 2.439 8.276 5.466 16.294 8.992 24.088 3.76 8.318 7.713 16.535 11.548 24.815.487 1.053 1.061 1.007 1.895.579 3.809-1.958 7.561-4.085 12.057-3.082ZM149.581 98.967c-.057.944.252 1.543.984 2.095 1.785 1.356 3.628 2.682 5.195 4.323 3.052 3.192 5.798 6.758 8.915 9.865 3.944 3.932 8.681 5.891 14.639 5.789.611-.081 1.82-.242 3.033-.391.751-.093 1.068-.548.984-1.381-.256-2.482-.393-4.994-.786-7.455-.843-5.254-2.395-10.214-5.756-14.192-4.303-5.105-9.639-8.395-15.536-10.61-.824-.305-1.846-.34-2.697-.123-4.348 1.127-8.681 7.047-8.975 12.08ZM37.695 238.838c-2.044-1.119-4.091-2.256-6.216-3.16a4.886 4.886 0 0 0-2.296-.367c.026-.055.04-.089.04-.089l-4.735.477c-.481.157-.983.262-1.441.474-3.154 1.465-5.501 3.966-7.576 6.804-.725.989-1.475 1.956-2.144 2.987-2.017 3.113-5.068 4.655-8.14 6.18-1.105.544-1.2.95-.476 2.023.99 1.474 2.357 2.036 3.991 1.647 2.072-.486 4.163-.959 6.162-1.685.818-.3 1.635-1.128 2.081-1.943 0 0 .988.329 1.447 1.36-.05.139-.088.274-.113.397-.79 1.618-1.556 3.244-2.326 4.874-1.465 3.097-2.963 6.176-4.369 9.306-.52 1.157-.822 2.433-1.297 3.886.353.566.617 1.411 1.112 1.643.325.152 1.205-.431 1.463-.925a1455.62 1455.62 0 0 0 7.08-13.808 8.2 8.2 0 0 0 .588.769c-2.588 5.626-5.14 11.273-7.696 16.917-.17.371-.423.815-.368 1.174.113.743.241 1.643.68 2.116.343.372 1.318.486 1.736.207.766-.511 1.536-1.28 1.942-2.15 1.75-3.738 3.357-7.557 5.034-11.333.566-1.275 1.156-2.534 1.745-3.793.289.308.552.612.777.908-.695 1.335-1.37 2.682-1.967 4.072-1.406 3.269-2.706 6.598-4.043 9.905-.153.381-.259.786-.33 1.006-.02 1.225.472 1.744 1.418 1.689 1.69-.101 2.51-1.351 3.125-2.893a1239.85 1239.85 0 0 1 3.404-8.423c.434-1.064.9-2.116 1.343-3.176.409.642.79 1.043 1.14 1.284-.161.291-.31.604-.434.946-.743 2.074-1.727 4.038-2.578 6.066-.254.608-.58 1.448.182 1.74.472.182 1.387-.051 1.678-.465 1.025-1.457 1.927-3.032 2.76-4.633 1.099-2.121 2.091-4.309 3.12-6.472.095-.202.158-.426.247-.726 1.404-1.854 2.27-4.076 3.145-6.594.86-2.479 2.062-5.056 1.675-7.734.055-3.075.137-6.15.13-9.225-.002-.435-.354-1.073-.7-1.263ZM40.875 186.872c2.723-5.019 5.998-9.618 9.64-13.937.632-.75.9-1.541.72-2.53-.416-2.296-.778-4.6-1.204-6.891-.085-.456-.36-.871-.547-1.303l-.463-.012c-4.583 7.791-8.973 15.662-9.115 25.2.114.072.23.147.344.218.212-.247.473-.465.625-.745ZM66.857 171.588c.01-.317-.218-.846-.429-.909-.248-.072-.686.182-.885.436a120.39 120.39 0 0 0-3.278 4.317c-1.517 2.102-2.989 4.242-4.491 6.356-2.47 3.472-3.544 7.608-4.762 11.66-2.588 8.597-5.1 17.22-7.646 25.834-.044.152-.131.287-.2.427l-.182-.064c.7-2.49 1.385-4.985 2.103-7.468 2.466-8.508 4.974-17 7.392-25.525.696-2.449 2.047-4.432 3.37-6.483.71-1.1 1.296-2.305 1.825-3.523.49-1.12.285-2.207-.74-2.888-.924-.613-1.89-1.273-2.923-1.552-.601-.161-1.053-.136-1.361.05l-.001-.004-.022.026a.864.864 0 0 0-.266.279l-2.341 2.461c-1.232.943-2.44 1.924-3.798 3.003l-3.08 3.818c-.431.516-.833 1.066-1.236 1.607-4.089 5.46-5.295 11.757-5.052 18.645.246 6.948.006 13.905-1.122 20.781l-.413-.013c.11-4.262.276-8.525.306-12.788.018-2.237-.193-4.474-.315-6.707-.02-.376-.037-.799-.202-1.112-.208-.397-.566-.702-.86-1.049-.228.356-.565.681-.668 1.074-.871 3.282-1.563 6.623-2.567 9.85-2.104 6.766-4.364 13.473-6.567 20.201-.404 1.231-.186 1.789.925 1.544 4.495-1.003 8.247 1.124 12.055 3.082.836.428 1.41.474 1.898-.579 3.836-8.28 7.786-16.497 11.548-24.815 3.524-7.794 6.552-15.812 8.99-24.088.456-1.548 1.347-2.947 1.996-4.436.933-2.136 2.026-4.225 2.67-6.458.449-1.556.282-3.319.33-4.99ZM61.016 120.648c1.196.149 2.392.31 2.996.391 5.892.102 10.577-1.857 14.476-5.789 3.078-3.107 5.793-6.673 8.814-9.865 1.546-1.641 3.372-2.967 5.137-4.323.724-.552 1.026-1.151.973-2.095-.29-5.032-4.575-10.953-8.874-12.08-.841-.216-1.852-.182-2.667.124-5.83 2.214-11.108 5.504-15.363 10.609-3.32 3.978-4.856 8.938-5.688 14.192-.389 2.461-.526 4.973-.78 7.455-.084.833.23 1.288.976 1.381ZM79.75 120.907c0-.366-.007-.77-.144-1.093-.25-.587-.56-1.556-.918-1.59-.63-.069-1.59.229-1.936.744-4.193 6.158-8.368 12.346-9.21 20.247-.15 1.425-.388 2.837-.686 4.959.134 1.531.322 3.734.52 5.937.023.23.086.455.148.676.94 3.305 2.733 3.887 4.943 1.382 4.167-4.716 6.933-10.219 7.176-16.828.177-4.806.089-9.624.107-14.434Z" fill="#9AA0A9"/><path d="M53.667 168.066c1.628.34 3.207.938 4.747 1.551.53.215.992.303 1.393.227l3.585-.294c.753-.181 1.78-.172 2.21-.576 1.447-1.35 3.048-2.72 3.926-4.318 2.508-4.549 4.69-9.207 6.99-13.828.11-.214.14-.454.209-.681a10.342 10.342 0 0 1-.36-.193c-.564.655-1.154 1.299-1.741 1.942l.004-.009-.023.026c-.208.235-.416.466-.624.702-.871.925-2.438 2.413-3.615 2.531-.608.063-.93.067-1.104.05-.04-.054-.08-.113-.126-.138-2.861-1.464-3.948-3.856-4.252-6.496-.255-2.203-.073-4.436-.078-6.656-.001-.29.036-.58.07-1.084-2.052 1.244-3.8 2.434-5.694 3.401a10.163 10.163 0 0 1-3.602 1.047c-1.216.105-1.729.593-2.08 1.488-1.513 3.86-2.133 7.879-2.195 11.949-.04 2.598.423 5.218.686 7.829.089.878.586 1.299 1.674 1.53ZM58.597 143.115c3.821-2.974 7.356-6.137 9.09-10.705 1.196-3.151 2.797-6.167 4.192-9.25.246-.55.367-1.141.667-2.114-1.647.411-2.888.734-4.14 1.027-2.753.642-5.527 1.053-8.339.336-1.197-.302-1.681.382-1.988 1.174-1.125 2.899-2.362 5.777-3.209 8.751-.688 2.412-.911 4.95-1.27 7.438-.084.587.05 1.22.202 1.808.659 2.55 2.623 3.221 4.795 1.535Z" fill="#9AA0A9"/></svg>