<svg width="243" height="504" fill="none" xmlns="http://www.w3.org/2000/svg"><path d="m78.203 145.421.073 3.159c.029 1.201.074 2.393.134 3.582.104 2.03.37 4.487.627 6.863.122 1.117.235 2.183.33 3.177l.006.042-.005.093.75 8.208c.049 3.007.869 5.477 2.509 7.545l1.2 1.514-.235.647c-.048.131-.1.258-.153.389-.225.55-.47 1.146-.61 1.852-.158.791-.319 1.582-.482 2.373-.514 2.516-1.047 5.113-1.408 7.752-.636 4.669-.515 8.682.37 12.26l.047.182-.07.173c-.751 1.89-2.231 5.68-2.449 6.475-.257.939-.64 2.047-1.047 3.218-.403 1.159-.817 2.36-1.104 3.396l-.57 2.055c-2.956 10.657-6.306 22.735-7.21 33.613-.21 2.545-.554 5.218-.919 8.052-.685 5.32-1.392 10.822-1.152 15.41.305 5.84.946 9.981 1.755 15.225l.017.114c.293 1.895.608 3.946.939 6.276l9.275 31.984c.131 3.294.235 6.652.312 9.981.065 2.858.067 5.662.069 8.627v.321c.001 1.252.003 2.516.008 3.806l.023 4.635-.056.123c-3.476 7.337-5.746 15.381-6.748 23.915-.874 7.443-1.33 18.519.014 27.265.274 1.776.514 3.408.74 4.948l.04.275c1.225 8.331 2.035 13.837 5.076 23.226.67 2.063 1.871 4.867 3.3 7.696l.189.373-.293.296c-.599.604-1.018 1.446-1.115 2.249l-.149 1.193c-.213 1.666-.432 3.387-.504 5.151l-1.911 11.829-2.874 3.087c-3.579 4.846-6.478 7.608-11.08 10.543-1.004.643-4.765 4.026-7.199 7.193-1.376 1.789-3.136 4.47-2.525 7.076.313 1.34 1.206 2.414 2.514 3.023 4.726 2.161 9.366 4.107 14.139 4.107 4.268 0 8.208-1.557 12.045-4.754.309-.258.606-.511.9-.761 1.613-1.37 2.848-2.423 4.549-3.117.382-.156.793-.3 1.212-.452 2.54-.905 6.283-2.246 7.278-6.348l1.562-6.428c.122-.47.274-1.045.325-1.671a613.9 613.9 0 0 0 .56-7.823l.14-2.073c.032-.477.036-.955.014-1.416l-.003-.06.56-3.687a8.03 8.03 0 0 1 .092-.482c.122-.571.259-1.223.129-2.022-.172-1.061-.32-2.131-.466-3.205-.398-2.91-.801-5.853-1.67-8.721-1.15-3.793-1.377-9.65-.543-13.926 1.083-5.544 2.422-9.384 3.842-13.448 1.395-3.997 2.83-8.107 4.007-13.863 1.201-5.891 1.282-13.064.204-18.265-.657-3.164-1.128-5.967-1.627-8.936l-.025-.157c-.247-1.454-.498-2.939-.779-4.516-.018-.305-.029-.702-.045-1.206l-.014-.503c-.195-6.568-.286-7.117-.524-7.743l-.333-.876.686.081.806-1.95c4.438-10.729 6.973-22.376 7.536-34.615.377-8.259-.008-16.353-1.145-24.054l-.045-.305.344-.313c.755-.693 1.223-1.577 1.391-2.622.214-1.336.716-3.442 1.202-5.476.601-2.512 1.218-5.096 1.474-6.927 2.076-9.964 2.373-12.4 3.252-19.632l.416-3.459c.911-7.917 1.128-9.795 1.128-14.802v-.554c.002-2.757.003-4.931-.481-6.584l-.22-.749.755.017c1.105.026 5.158-.072 5.198-.072l.718-.017-.173.719c-.529 2.229-.756 4.229-.754 6.686v.554c0 5.003.217 6.877 1.127 14.768l.415 3.472c.882 7.253 1.178 9.689 3.248 19.614.262 1.865.878 4.445 1.474 6.945.49 2.046.994 4.148 1.208 5.497.168 1.045.636 1.925 1.391 2.622l.344.313-.045.305c-1.137 7.709-1.522 15.799-1.143 24.054.561 12.235 3.096 23.882 7.534 34.615l.834 1.946.66-.081-.335.88c-.236.626-.329 1.18-.524 7.739l-.013.461c-.016.524-.028.943-.038 1.176a631.775 631.775 0 0 0-.778 4.563l-.034.19c-.499 2.969-.97 5.773-1.626 8.932-1.077 5.201-.997 12.374.205 18.265 1.178 5.768 2.613 9.875 4.002 13.85 1.421 4.073 2.762 7.913 3.844 13.461.836 4.276.608 10.133-.541 13.926-.87 2.868-1.273 5.811-1.663 8.661-.155 1.129-.302 2.204-.474 3.265-.13.799.009 1.451.119 1.971.043.203.076.355.103.533l.561 3.683-.004.059c-.023.461-.019.939.015 1.421l.142 2.119c.174 2.597.349 5.189.558 7.777.051.63.193 1.172.312 1.574l.021.118 1.552 6.407c.997 4.106 4.742 5.443 7.219 6.327.467.169.884.317 1.271.473 1.701.694 2.936 1.743 4.501 3.075.316.27.628.537.948.803 3.836 3.197 7.776 4.75 12.045 4.754 4.774 0 9.424-1.95 14.165-4.119 1.29-.601 2.175-1.671 2.488-3.011.611-2.606-1.147-5.287-2.523-7.076-2.431-3.167-6.194-6.55-7.2-7.193-4.601-2.935-7.501-5.697-11.081-10.547l-.12-.161-2.752-2.922-1.906-11.757c-.079-1.84-.298-3.561-.509-5.227l-.151-1.189c-.095-.803-.514-1.645-1.115-2.249l-.294-.292.19-.377c1.429-2.829 2.631-5.633 3.301-7.696 3.04-9.385 3.848-14.891 5.074-23.226l.039-.258c.227-1.54.468-3.181.741-4.965 1.346-8.742.889-19.817.015-27.265-1.001-8.53-3.272-16.578-6.746-23.915l-.057-.123.023-4.635c.006-1.395.007-2.757.007-4.102.002-2.986.004-5.806.069-8.652.075-3.308.181-6.665.312-9.981l.022-.135 8.742-31.092c.171-1.243.505-2.69.828-4.09.26-1.133.508-2.199.639-3.057.81-5.244 1.45-9.385 1.757-15.225.24-4.584-.469-10.086-1.153-15.406-.364-2.829-.708-5.502-.921-8.056-.903-10.882-4.253-22.96-7.21-33.617l-.569-2.051c-.617-2.233-1.173-3.857-1.982-5.785-.928-2.221-2.963-7.308-2.963-7.308l-.07-.178.046-.182a20.74 20.74 0 0 0 .617-3.912c.334-5.764-.417-11.832-2.367-19.102-.157-.584-.379-1.041-.615-1.523l-.28-.579 1.165-1.493c1.581-2.03 2.407-4.246 2.6-6.973l.799-8.649.133-.816c.12-.71.239-1.421.322-2.136.412-3.514.644-6.99.709-10.632l.058-3.091 1.009 2.914c.824 2.381 1.914 4.787 3.48 8.191.488 1.058 1.481 2.72 2.633 4.623.264.435.499.824.67 1.116.26.44.543.838.84 1.189l.24.279-.156.338a6.09 6.09 0 0 0-.363 1.011c-.985 3.789-.515 7.735 1.36 11.41 1.229 2.41 1.726 4.753 2.303 7.468.405 1.899.82 3.853 1.519 5.946 2.405 7.185 5.616 15.504 8.73 23.421 1.699 4.322 3.737 8.403 5.708 12.353 1.876 3.755 3.815 7.642 5.405 11.646.182.457.376.91.57 1.366l1.141 2.711.5-.122-.224.938c-1.824 5.82-1.042 10.328 2.612 15.073l4.889 6.724c1.69 3.447 3.56 6.982 6.13 10.099.307.38 1.018 1.256 2.307 1.412.663.076 1.376.123 1.981.017l.406-.067.179.384c.224.483.451.965.688 1.438 1.003 2.026 2.909 3.185 5.225 3.185 1.082 0 2.031-.309 2.768-.893l.336-.266.967.778 1.064.026c1.827 0 3.397-.855 4.293-2.343.753-1.244.919-2.792.459-4.246l-.126-.402.335-.241c1.423-1.015 2.258-2.432 2.347-3.984.152-2.575-1.188-4.588-2.166-6.056-.329-.499-.622-.939-.826-1.328a456.172 456.172 0 0 0-4.006-7.396l-.615-1.117 1.212.284c.546.122 3.497.799 4.083.934l.513-.084c2.727-.444 4.644-1.781 5.697-3.967.652-1.358.216-2.829.065-3.248-.413-1.163-1.15-1.696-1.697-1.937l-1.133-.508c-1.225-.545-2.452-1.095-3.686-1.624l-.13-.05-2.331-2.973-2.077-2.144c-2.103-2.178-4.239-4.394-6.421-6.513a11.057 11.057 0 0 0-3.281-2.199l-.765-.339.773-.765-1.074-1.928c-.117-.212-.24-.423-.361-.63-.309-.538-.548-.952-.723-1.324-4.927-10.577-7.723-20.997-8.541-31.862-.905-11.976-4.559-22.46-10.859-31.155-.293-.402-.904-1.243-1.829-1.852l-.44-.288.258-.469c2.094-3.828 2.656-8.429 2.501-11.207-.331-5.925-.887-9.004-3.35-14.485-1.432-3.188-3.056-5.764-4.966-7.87l-.192-.216.054-.283c.053-.275.074-.541.066-.808-.05-1.429-.064-2.897-.078-4.377l-.002-.165c-.058-6.047-.115-12.302-2.249-18.032-1.558-4.187-6.245-9.672-9.694-12.353-5.494-4.272-9.914-5.22-16.543-6.272a9.134 9.134 0 0 0-1.308-.123l-.21-.046-7.358-3.32c-.706-.305-1.266-.546-1.815-.808a2018.575 2018.575 0 0 1-10.521-5.096c-.097-.046-.208-.101-.329-.152l-.365-.16.029-.407c.054-.782.021-1.586-.102-2.385-.169-1.125-.278-2.309-.393-3.565-.058-.622-.116-1.264-.184-1.933l-.067-.642-.948-1.582.363-.317c1.669-1.455 2.623-3.574 2.755-6.12.106-2.013.29-4.077.472-6.01l.041-.426.413-.077c3.115-.558 4.707-4.888 5.76-7.756l.088-.24c.123-.339.226-.618.312-.804 1.972-4.33 1.261-7.041-2.534-9.655l-1.494-1.036-.005-.3c-.012-.893-.005-2.064.002-2.821.014-1.831.014-2.567-.048-3.05-.272-2.088-.764-5.188-1.892-7.946-3.771-9.215-12.066-14.937-21.649-14.937-2.113 0-4.237.288-6.315.863-5.94 1.632-12.242 7.304-14.658 13.195-1.46 3.56-2.304 7.536-2.505 11.811a54.705 54.705 0 0 0-.064 3.126l.003.342-.756.41c-1.374.42-2.643 1.544-3.483 3.084-.895 1.64-1.066 3.383-.468 4.778a307.327 307.327 0 0 0 3.218 7.236c.388.85.87 1.827 1.683 2.622.557.55 1.336.93 2.194 1.078l.414.077.042.431c.216 2.313.43 4.699.615 7.067.163 2.08 1.028 3.802 2.503 4.977l.313.25-.928 2.795-.165 1.958c-.15 1.734-.305 3.523-.385 5.329l-.019.406-.378.114a5.673 5.673 0 0 0-.935.372 1721.568 1721.568 0 0 1-10.517 5.092c-.556.266-1.12.512-1.75.782l-1.211.529-6.456 2.897c-.243.02-.496.05-.753.093-6.629 1.053-11.05 2-16.541 6.272-3.45 2.68-8.138 8.166-9.695 12.353-2.134 5.73-2.19 11.98-2.249 18.028l-.001.118a173.44 173.44 0 0 1-.077 4.428c-.01.267.011.533.064.808l.056.283-.193.216c-1.91 2.11-3.536 4.682-4.967 7.87-2.462 5.485-3.019 8.564-3.35 14.485-.155 2.778.406 7.379 2.502 11.207l.257.469-.441.288c-.924.604-1.533 1.446-1.825 1.852-6.304 8.699-9.958 19.179-10.861 31.155-.82 10.865-3.614 21.285-8.543 31.862-.119.253-1.182 2.93-1.867 4.669l-.087.215-.207.089a11.22 11.22 0 0 0-3.307 2.212c-2.189 2.127-4.33 4.347-6.402 6.492l-2.134 2.207-2.293 2.931-.13.05a230.88 230.88 0 0 0-3.666 1.616l-1.145.512c-.55.245-1.293.782-1.707 1.945-.148.419-.583 1.89.07 3.244 1.05 2.186 2.967 3.523 5.696 3.967l.513.084 5.293-1.218-.614 1.117a430.982 430.982 0 0 0-4.005 7.396c-.21.398-.508.846-.827 1.324-.98 1.472-2.319 3.485-2.167 6.06.091 1.552.924 2.969 2.347 3.984l.335.241-.126.402c-.46 1.454-.292 3.002.459 4.246.885 1.467 2.495 2.343 4.306 2.343h1.024l.994-.804.336.266c.735.584 1.686.893 2.748.893 2.337 0 4.242-1.159 5.244-3.18.236-.478.465-.96.69-1.443l.178-.384.408.067c.581.102 1.29.064 2.005-.021 1.263-.152 1.976-1.028 2.318-1.45 2.537-3.075 4.404-6.61 6.043-9.972l4.874-6.725c3.705-4.808 4.5-9.342 2.675-15.165l-.297-.947.612.143 1.141-2.715c.202-.469.392-.917.571-1.366 1.586-3.992 3.523-7.874 5.396-11.629 1.984-3.976 4.02-8.057 5.718-12.37 3.109-7.909 6.318-16.219 8.73-23.421.7-2.097 1.115-4.047 1.517-5.937.577-2.72 1.075-5.067 2.305-7.477 1.874-3.675 2.344-7.621 1.361-11.41a6.379 6.379 0 0 0-.366-1.011l-.155-.338.24-.279c.297-.351.58-.749.839-1.189.171-.287.403-.672.665-1.108 1.154-1.907 2.151-3.573 2.639-4.631 1.7-3.687 2.792-6.11 3.64-8.661l.994-2.985Zm94.503 357.7h-.002c-4.53 0-8.695-1.637-12.734-5.007-.323-.267-.636-.533-.946-.795-1.501-1.277-2.678-2.28-4.217-2.906-.374-.152-.775-.296-1.186-.444-2.741-.977-6.825-2.435-7.966-7.138l-1.576-6.53a8.938 8.938 0 0 1-.339-1.746c-.209-2.597-.383-5.198-.559-7.795l-.142-2.118a13.263 13.263 0 0 1-.018-1.502l-.543-3.565c-.023-.152-.052-.287-.077-.406-.13-.613-.307-1.446-.143-2.461.171-1.053.317-2.119.462-3.18.405-2.952.814-5.942 1.709-8.898 1.101-3.633 1.317-9.253.515-13.364-1.066-5.464-2.395-9.27-3.8-13.296-1.403-4.013-2.853-8.162-4.045-14.006-1.233-6.035-1.312-13.39-.205-18.735.651-3.138 1.121-5.929 1.618-8.885l.033-.195c.245-1.45.494-2.931.773-4.495.001-.157.014-.567.028-1.083l.014-.461c.165-5.548.259-6.919.453-7.667l-.996-2.33c-4.494-10.865-7.058-22.643-7.625-35.013-.378-8.221-.004-16.286 1.109-23.978-.887-.854-1.44-1.924-1.642-3.185-.209-1.302-.706-3.387-1.189-5.404-.604-2.534-1.227-5.143-1.491-7.025-2.073-9.934-2.371-12.382-3.255-19.652l-.419-3.489c-.917-7.955-1.134-9.841-1.134-14.912v-.554c-.002-2.254.193-4.207.625-6.242-.971.026-2.713.06-3.819.064.349 1.679.349 3.704.347 6.178v.554c0 5.075-.217 6.966-1.136 14.925l-.414 3.459c-.886 7.287-1.185 9.735-3.264 19.707-.258 1.848-.882 4.462-1.485 6.987-.484 2.03-.981 4.11-1.188 5.404-.203 1.261-.756 2.331-1.642 3.185 1.112 7.684 1.486 15.749 1.108 23.978-.565 12.375-3.131 24.153-7.621 35.008l-.987 2.381c.185.766.28 2.195.44 7.625l.015.499c.015.499.026.893.036 1.117.273 1.501.524 2.99.77 4.449l.026.156c.498 2.956.966 5.747 1.619 8.894 1.107 5.345 1.028 12.7-.203 18.735-1.193 5.836-2.641 9.984-4.041 13.993-1.413 4.043-2.74 7.845-3.806 13.309-.802 4.111-.587 9.731.515 13.364.895 2.956 1.304 5.946 1.701 8.839.153 1.125.299 2.186.47 3.239.166 1.011-.012 1.848-.13 2.402-.035.169-.064.309-.09.465l-.541 3.57c.021.49.016.993-.02 1.497l-.132 1.975c-.182 2.71-.358 5.324-.57 7.933a9.005 9.005 0 0 1-.338 1.755l-.014.098-1.56 6.428c-1.141 4.703-5.222 6.157-7.922 7.126-.47.165-.865.304-1.232.456-1.54.626-2.716 1.629-4.207 2.897-.343.292-.646.55-.956.808-4.04 3.366-8.206 5.003-12.734 5.003-4.987 0-9.745-1.988-14.587-4.204-1.627-.761-2.738-2.106-3.132-3.793-.726-3.087 1.211-6.073 2.731-8.048 2.508-3.265 6.429-6.779 7.483-7.451 4.473-2.859 7.294-5.545 10.783-10.269l.122-.164 2.598-2.77 1.848-11.41c.067-1.743.29-3.489.504-5.181l.15-1.188c.112-.914.535-1.865 1.156-2.61-1.376-2.753-2.532-5.472-3.19-7.502-3.071-9.481-3.885-15.026-5.119-23.416l-.04-.275a781.17 781.17 0 0 0-.738-4.935c-1.363-8.864-.903-20.063-.02-27.586 1.011-8.611 3.297-16.739 6.794-24.157l-.022-4.368c-.007-1.294-.007-2.563-.009-3.815v-.321c0-2.956-.003-5.752-.067-8.598-.076-3.298-.18-6.627-.308-9.892l-9.251-31.857c-.348-2.406-.662-4.449-.953-6.343l.524-.203-.542.088c-.815-5.273-1.459-9.439-1.767-15.343-.247-4.694.468-10.246 1.16-15.622.363-2.816.705-5.476.914-7.997.912-10.983 4.277-23.12 7.247-33.828l.57-2.059c.297-1.066.718-2.284 1.126-3.46.4-1.154.778-2.241 1.024-3.146.264-.964 2.042-5.464 2.422-6.42-.88-3.683-.996-7.781-.348-12.522.364-2.673.901-5.295 1.42-7.828.162-.787.322-1.573.478-2.36.164-.82.443-1.501.648-2 .075-.186.123-.3.166-.419l.011-.029-.8-1.011c-1.802-2.275-2.703-4.973-2.756-8.255l-.002-.14-.75-8.098.005-.089c-.094-.905-.209-1.962-.324-3.032-.264-2.436-.53-4.914-.636-6.974l-.038-.812c-.71 1.768-1.578 3.675-2.716 6.145-.513 1.112-1.526 2.808-2.7 4.749-.26.427-.489.808-.658 1.091-.226.385-.468.74-.723 1.07.142.351.234.656.288.867 1.057 4.068.555 8.297-1.451 12.23-1.16 2.276-1.644 4.551-2.203 7.186-.407 1.924-.83 3.911-1.553 6.072-2.419 7.224-5.635 15.555-8.75 23.476-1.715 4.36-3.763 8.466-5.743 12.433-1.878 3.764-3.806 7.625-5.372 11.571-.182.457-.376.913-.569 1.366l-1.312 3.117c1.801 6.047.903 10.805-2.968 15.829l-4.813 6.627c-1.62 3.341-3.524 6.944-6.133 10.107-.363.448-1.333 1.645-3.03 1.844-.58.072-1.301.127-1.9.072-.173.368-.35.736-.53 1.104-1.199 2.41-3.459 3.793-6.201 3.793-1.164 0-2.217-.3-3.085-.871l-.635.512-1.402.004c-2.194 0-4.152-1.074-5.24-2.872-.854-1.421-1.095-3.146-.682-4.804-1.508-1.201-2.39-2.821-2.496-4.605-.175-2.969 1.29-5.164 2.357-6.767.302-.456.585-.884.768-1.226a382.844 382.844 0 0 1 3.406-6.306l-3.08.707-.721-.119c-3.098-.507-5.288-2.047-6.506-4.58-.848-1.759-.305-3.616-.118-4.144.55-1.544 1.557-2.263 2.303-2.593l1.143-.511c1.183-.529 2.366-1.058 3.555-1.565l2.158-2.749 2.154-2.233c2.093-2.169 4.24-4.398 6.442-6.534a12.152 12.152 0 0 1 3.422-2.334c.37-.943 1.654-4.183 1.81-4.517 4.868-10.45 7.628-20.735 8.438-31.46.92-12.192 4.646-22.874 11.074-31.747.267-.364.837-1.154 1.694-1.823-2.015-3.945-2.56-8.555-2.402-11.376.34-6.081.913-9.249 3.45-14.899 1.436-3.197 3.065-5.802 4.977-7.963a4.888 4.888 0 0 1-.039-.778c.05-1.438.064-2.91.078-4.398l.55-.11-.548-.009c.056-6.144.117-12.501 2.32-18.421 1.628-4.377 6.489-10.078 10.06-12.857 5.697-4.432 10.237-5.404 17.035-6.483.252-.042.498-.072.738-.097l7.348-3.311c.692-.3 1.245-.538 1.787-.8a1980.76 1980.76 0 0 0 10.511-5.092 9.87 9.87 0 0 1 .722-.312c.085-1.692.23-3.363.371-4.982l.198-2.161.697-2.098c-1.539-1.366-2.444-3.269-2.62-5.527-.174-2.22-.372-4.458-.575-6.636-.908-.228-1.731-.676-2.352-1.29-.947-.926-1.488-2.013-1.92-2.96a316.716 316.716 0 0 1-3.228-7.257c-.74-1.73-.551-3.844.517-5.798.965-1.772 2.447-3.079 4.069-3.595l.022-.012c-.003-.9.02-1.84.068-2.85.207-4.412 1.08-8.518 2.59-12.201 2.537-6.179 9.151-12.133 15.388-13.85A24.884 24.884 0 0 1 121.406 0c10.031 0 18.714 5.988 22.659 15.626 1.179 2.885 1.689 6.086 1.97 8.243.072.558.074 1.281.058 3.205-.005.669-.013 1.662-.005 2.504l1.015.702c4.247 2.927 5.118 6.242 2.915 11.08-.076.17-.167.419-.276.723l-.089.241c-1.099 2.99-2.739 7.456-6.186 8.382-.169 1.797-.334 3.7-.43 5.544-.141 2.686-1.103 4.957-2.789 6.602l.588.981.092.9c.069.673.129 1.32.186 1.946.114 1.235.219 2.402.385 3.493.114.749.159 1.506.133 2.246.005.004.01.004.016.008 3.504 1.709 7.007 3.405 10.516 5.092.537.258 1.085.495 1.692.757l1.201.525 6.16 2.795c.426.013.879.055 1.342.131 6.8 1.079 11.339 2.051 17.037 6.483 3.569 2.779 8.432 8.48 10.059 12.857 2.204 5.92 2.265 12.277 2.322 18.43l.002.16c.012 1.472.027 2.927.077 4.348.007.262-.004.52-.039.778 1.91 2.161 3.539 4.766 4.976 7.963 2.538 5.65 3.11 8.814 3.451 14.899.158 2.821-.387 7.431-2.403 11.376.857.669 1.429 1.459 1.693 1.823 6.428 8.873 10.156 19.551 11.075 31.747.809 10.721 3.569 21.01 8.438 31.456.161.347.385.732.621 1.138.18.312.306.528.425.748l1.501 2.702-.209.208a12.122 12.122 0 0 1 2.856 2.059c2.195 2.132 4.335 4.348 6.406 6.496l2.154 2.224 2.194 2.796c1.196.512 2.386 1.04 3.574 1.573l1.13.503c.743.33 1.746 1.049 2.295 2.593.187.524.734 2.376-.113 4.144-1.221 2.533-3.411 4.073-6.509 4.58l-.719.119-.101-.026-2.979-.681a388.843 388.843 0 0 1 3.404 6.306c.18.338.456.753.749 1.197 1.088 1.632 2.551 3.827 2.376 6.796-.104 1.784-.986 3.404-2.495 4.605.414 1.658.171 3.388-.684 4.804-1.103 1.827-3.011 2.872-5.238 2.872l-1.44-.03-.599-.486c-.867.571-1.916.871-3.063.871-2.763 0-5.023-1.383-6.222-3.797-.18-.364-.356-.732-.529-1.1-.603.059-1.268.004-1.875-.068-1.723-.203-2.665-1.366-3.019-1.801-2.641-3.206-4.551-6.817-6.221-10.239l-4.827-6.627c-3.783-4.91-4.682-9.798-2.887-15.799l-1.28-3.037a60.04 60.04 0 0 1-.58-1.396c-1.571-3.954-3.501-7.819-5.366-11.553-1.98-3.971-4.029-8.078-5.749-12.446-3.119-7.934-6.336-16.265-8.75-23.48-.72-2.152-1.142-4.14-1.55-6.06-.563-2.647-1.045-4.918-2.204-7.194-2.008-3.933-2.51-8.162-1.45-12.234.053-.208.144-.512.286-.863a9.856 9.856 0 0 1-.724-1.07 83.542 83.542 0 0 0-.665-1.104c-1.17-1.932-2.18-3.624-2.691-4.736-1.031-2.237-1.858-4.052-2.542-5.714a106.955 106.955 0 0 1-.634 7.98 46.18 46.18 0 0 1-.33 2.196l-.126.769-.794 8.593c-.208 2.957-1.111 5.371-2.839 7.592l-.722.926c.231.478.479 1.002.655 1.653 1.983 7.393 2.747 13.58 2.405 19.475a21.716 21.716 0 0 1-.605 3.946c.366.909 2.063 5.146 2.886 7.113.831 1.979 1.401 3.641 2.03 5.925l.569 2.051c2.972 10.708 6.338 22.841 7.25 33.832.21 2.529.552 5.189.915 8.002.69 5.375 1.405 10.927 1.16 15.617-.31 5.904-.953 10.07-1.768 15.343-.139.901-.39 1.988-.656 3.143-.319 1.374-.647 2.795-.825 4.064l-8.74 31.104c-.131 3.29-.234 6.619-.31 9.896-.064 2.829-.066 5.646-.067 8.623 0 1.345-.002 2.711-.009 4.107l-.02 4.372c3.495 7.422 5.781 15.551 6.793 24.157.884 7.527 1.342 18.722-.019 27.586-.274 1.776-.515 3.413-.742 4.952l-.038.262c-1.234 8.39-2.049 13.935-5.118 23.412-.659 2.03-1.815 4.749-3.191 7.507.621.744 1.046 1.691 1.157 2.605l.149 1.188c.214 1.687.437 3.434.511 5.252l1.842 11.339 2.719 2.934c3.489 4.724 6.312 7.414 10.785 10.269 1.056.676 4.976 4.191 7.483 7.451 1.518 1.979 3.455 4.961 2.731 8.048-.396 1.687-1.499 3.028-3.109 3.781-4.854 2.22-9.622 4.216-14.61 4.216Z" fill="#9AA0A9"/><path d="M135.63 131.588c4.443.727 8.781.355 12.92-1.322 5.504-2.229 10.176-5.835 14.462-9.982.793-.768 1.033-1.74.716-2.749-.483-1.541-.928-3.133-1.692-4.531-3.224-5.89-6.376-11.806-8.717-18.149-1.163-3.15-5.621-6.976-9.056-5.899-4.609 1.449-9.156 3.125-13.675 4.852-4.406 1.685-6.734 5.181-7.074 9.894-.318 4.4-.512 8.838-.331 13.242.271 6.621 5.654 13.525 12.447 14.644ZM131.208 234.58c3.83-6.066 5.944-12.821 7.509-19.8 1.332-5.935 2.233-11.942 2.54-18.051.143-2.843-1.012-4.174-3.731-3.823-4.128.537-8.022 1.931-11.911 3.38-1.324.498-2.047 1.402-2.241 2.801-.349 2.475-.851 4.946-.97 7.434-.327 6.831-.563 20.51-.487 20.514 0 4.132-.005 8.267.003 12.399.001 1.542.168 1.647 1.618 1.195 3.284-1.022 5.779-3.054 7.67-6.049ZM119.773 199.581c-.168-1.77-1.025-2.929-2.713-3.4-.77-.212-1.49-.628-2.261-.836-3.132-.836-6.253-1.74-9.42-2.393-2.308-.476-3.76.976-3.629 3.242.465 8.021 1.668 15.915 3.822 23.63 1.68 6.023 3.843 11.815 7.605 16.823 1.979 2.636 4.702 3.714 7.805 4.63.054-1.044.13-1.791.126-2.538-.042-8.806.021-17.612-.197-26.409-.104-4.257-.735-8.501-1.138-12.749Z" fill="#9AA0A9"/><path d="M132.669 234.73c-.191.355-.184.825-.271 1.244.423 0 .903.135 1.256-.025 1.252-.572 2.566-1.092 3.666-1.904 8.286-6.115 14.679-13.931 19.278-23.299 1.559-3.174 2.955-6.462 3.165-10.067.36-6.195-.679-12.233-2.274-18.178-.131-.491-.411-.94-.774-1.748l-1 1.908c-2.182 4.151-4.985 7.812-9.013 10.088-2.325 1.312-3.229 2.932-3.214 5.556.028 5.471-1.06 10.782-2.516 16.021-1.986 7.138-4.833 13.904-8.303 20.404ZM102.627 231.671c2.079 1.78 4.181 3.572 6.867 4.325.338.097.742-.059 1.114-.102-.067-.35-.064-.735-.212-1.044-1.108-2.27-2.332-4.486-3.358-6.794-4.352-9.779-7.525-19.888-7.597-30.804-.01-1.823-.694-3.108-2.264-3.932-4.293-2.266-7.212-5.94-9.644-10.109-.386-.664-.707-1.366-1.056-2.055h-.426c-.22.605-.52 1.188-.645 1.814-.655 3.306-1.401 6.604-1.856 9.944-.642 4.71-.602 9.39 1.195 13.922 3.914 9.868 9.977 18.062 17.882 24.835ZM122.385 191.657c.021 2.325 1.329 3.244 3.475 2.638 3.526-.999 7.061-1.99 10.628-2.818 1.496-.347 2.614-1.033 3.374-2.337 2.226-3.818 3.487-7.957 3.825-12.393.075-.987-.306-1.601-1.093-2.145-4.685-3.24-9.884-4.541-15.463-4.307-3.535.147-3.983-.104-4.749 4.52-.06.364-.065.74-.067 1.112-.004 2.559-.002 5.118-.002 7.677h.068c0 2.684-.018 5.369.004 8.053ZM106.184 191.334c3.728.933 7.436 1.95 11.134 3.001 1.82.517 3.052-.404 3.088-2.388.092-4.808.307-9.617.28-14.426-.009-1.916-.472-3.846-.837-5.75-.193-1.005-.955-1.517-1.954-1.501-2.464.034-4.949-.096-7.388.185-3.617.421-6.938 1.829-9.98 3.935-.9.622-1.377 1.362-1.177 2.509.476 4.368 1.625 8.516 3.893 12.283.686 1.139 1.632 1.828 2.941 2.152ZM122.343 166.107c.023 1.753.31 2.034 2.029 2.076 2.152.06 4.307.072 6.461.055 4.234-.034 8.08 1.227 11.63 3.571.376.247.856.323 1.288.48.123-.471.392-.959.343-1.41-.397-3.49-.77-6.984-1.349-10.441-.159-.951-.837-1.944-1.538-2.637-3.917-3.876-8.685-5.753-14.061-6.089-.69.034-1.383.043-2.069.119-1.916.2-2.361.641-2.668 2.599a7.37 7.37 0 0 0-.093 1.129c0 3.516-.018 7.032.027 10.548ZM120.602 153.601c-.171-1.051-.767-1.557-1.823-1.702-6.066-.834-11.308 1.187-16.022 4.902-.904.71-1.802 1.736-2.167 2.812-1.257 3.711-1.806 7.583-1.66 11.531.014.383.245.762.377 1.145.361-.136.766-.2 1.074-.408 2.554-1.753 5.303-3.026 8.373-3.379 2.031-.23 4.082-.276 6.123-.408l.006.059c1.476 0 2.951.005 4.425 0 .809-.004 1.313-.353 1.404-1.238.45-4.442.612-8.885-.11-13.314ZM122.34 139.084a593.101 593.101 0 0 0-.024 8.003c.003 1.014.537 1.644 1.472 1.868.585.143 1.19.215 1.79.274 5.482.554 10.684 2.037 15.459 4.952.338.207.697.377 1.409.753 0-.905.1-1.484-.016-2.012a1195.181 1195.181 0 0 0-3.125-13.859c-.477-2.053-1.618-3.663-3.487-4.546-2.409-1.137-4.878-2.142-7.321-3.207-.924-.402-1.693-.119-2.22.697a212.118 212.118 0 0 0-3.654 5.882c-.201.329-.278.794-.283 1.195ZM120.39 137.949c-1.2-2.063-2.487-4.071-3.789-6.062-.478-.731-1.206-.928-2.039-.609-1.777.676-3.581 1.29-5.334 2.033-3.174 1.34-5.341 3.55-6.042 7.188-.753 3.899-1.758 7.751-2.59 11.638-.157.731-.023 1.525-.023 2.394.339-.038.47-.021.571-.071.292-.139.577-.299.855-.467 3.518-2.104 7.259-3.592 11.296-4.243 1.832-.294 3.678-.529 5.503-.878 1.509-.29 1.881-.823 1.886-2.382.006-2.243.021-4.487-.01-6.726-.01-.613.002-1.327-.284-1.815Z" fill="#9AA0A9"/><path d="M142.17 192.782c1.594-.645 3.319-1.134 4.696-2.13 4.077-2.948 6.685-7.158 8.461-11.887.838-2.231.53-4.526-.806-6.568-2.297-3.509-5.148-6.487-8.286-9.178-.344-.296-.799-.452-1.476-.823.132.747.183 1.185.288 1.607 1.235 4.957 1.857 9.985 1.496 15.101-.344 4.915-1.757 9.394-5.331 12.891-.195.19-.332.443-.751 1.008.805 0 1.313.139 1.709-.021ZM102.077 191.881c-3.243-2.992-4.788-6.862-5.35-11.187-.746-5.74-.1-11.382 1.321-16.953.114-.443.148-.912.22-1.368-.093-.059-.186-.114-.28-.177-.481.333-1.039.591-1.432 1.013-2.602 2.785-5.29 5.499-7.707 8.445-1.93 2.355-2.123 5.224-.828 7.989 1.014 2.165 2.189 4.287 3.546 6.241 2.027 2.917 4.531 5.352 7.935 6.533.919.321 1.899.764 3.025.089-.213-.3-.306-.49-.45-.625ZM110.078 64.543c-1.028-.35-1.978-.955-3.291-1.603l-.905 2.766c-.194 2.387-.429 4.774-.524 7.17-.029.707.23 1.503.561 2.143 1.941 3.759 4.298 7.232 7.15 10.275 1.527 1.628 3.348 2.984 5.154 4.284 1.054.758 1.58.409 1.619-.917.05-1.675.083-3.38-.112-5.037-.521-4.424-2.044-8.533-3.584-12.667-1.178-3.166-2.966-5.366-6.068-6.414ZM123.113 88.736c-.001 1.242.46 1.523 1.417.957 1.311-.778 2.736-1.548 3.731-2.684 2.397-2.752 4.642-5.662 6.817-8.61 1.63-2.212 2.922-4.616 2.468-7.64-.267-1.791-.382-3.608-.589-5.666l-1.033-1.749c-1.863.685-3.549 1.46-5.154 2.387-.876.506-1.929 1.097-2.362 1.952-2.273 4.51-4.119 9.227-4.932 14.28-.357 2.221-.358 4.514-.363 6.773Z" fill="#9AA0A9"/><path d="M116.181 68.794c2.101 4.999 3.83 10.1 4.262 15.58.032.41.136.844.319 1.206.151.303.468.516.71.768.245-.256.598-.473.714-.784a6.78 6.78 0 0 0 .374-1.714c.454-4.73 1.821-9.205 3.62-13.556.341-.83.648-1.67.969-2.506h-11.297c.105.324.189.678.329 1.006ZM122.416 133.723c.941-1.34 1.855-2.7 2.745-4.078.31-.476.516-1.02.782-1.555-.109-.345-.146-.699-.312-.96-1.026-1.635-2.015-3.299-3.147-4.849-.812-1.116-1.347-1.108-2.171.046-1.119 1.559-2.115 3.223-3.081 4.891-.204.354-.227 1.054-.025 1.395a91.337 91.337 0 0 0 3.335 5.161c.567.813 1.298.775 1.874-.051ZM52.592 177.323c.022.933.193 1.863.32 3.032.267-.329.377-.43.449-.557 1.496-2.614 2.783-5.389 4.521-7.822 3.732-5.233 6.45-10.951 8.426-17.08 1.12-3.48 2.241-6.96 3.261-10.474a106.318 106.318 0 0 0 3.895-21.354c.23-2.918-1.442-4.308-4.115-3.319-7.307 2.698-14.42 2.834-19.783 14.778-2.317 5.156-2.78 7.821-3.094 13.434-.162 2.914.698 7.995 3.094 11.091 3.302 4.266 2.895 12.73 3.026 18.271Z" fill="#9AA0A9"/><path d="M56.761 123.578c1.672-1.143 4.31-2.341 6.083-3.276 2.071-1.092 7.916-2.065 10.04-3.055 4.121-1.921 4.312-.642 6.776-5.15 3.248-5.941 7.65-13.445 9.085-20.044.25-1.151-.066-2.146-.89-2.834-1.468-1.22-2.98-2.401-4.586-3.404-.59-.365-1.554-.301-2.256-.187C74.526 86.67 70.691 87.54 65.8 91.39c-2.982 2.342-7.384 7.504-8.73 11.159-2.468 6.705-1.89 14.643-2.131 21.76-.008.187.086.382.181.769.402-.37 1.327-1.283 1.642-1.5ZM65.88 175.849c1.477-2.916 1.976-6.098 1.132-9.365-.143-.546-.506-1.232-.946-1.435-.307-.144-1.044.305-1.377.686-1.341 1.548-2.59 3.178-3.891 4.765-2.876 3.512-5.586 7.202-7.35 11.426-2.012 4.815-3.638 9.817-5.27 14.798-4.183 12.759-6.958 25.818-7.381 39.343-.029.893.124 1.79.194 2.683.15.038.301.072.454.105.263-.63.538-1.256.787-1.891 3.281-8.311 7.797-15.683 11.05-24.007 2.844-7.274 6.165-15.877 8.632-23.292 1.618-4.866 1.648-9.246 3.966-13.816ZM28.372 226.477c3.954-4.639 7.388-9.673 10.462-14.965 6.679-11.504 11.294-23.727 12.3-37.218.274-3.661.36-7.258-1.269-10.686-1.076-2.267-2.092-2.411-3.549-.411-6.423 8.817-9.571 18.91-10.392 29.731-.88 11.614-3.985 22.508-8.868 32.935-.346.737-.787 1.428-1.185 2.14.124.123.248.241.37.364.717-.627 1.522-1.169 2.131-1.89ZM66.283 163.004c.613-.055 1.285-.974 1.594-1.495.737-1.245 2.582-4.179 3.188-5.492 3.042-6.563 4.023-8.757 5.27-15.396.143-.762.484-5.725.346-6.483-.09-.495-.012-3.019-.07-3.565-.347-3.277-.971-7.897-1.179-7.486-.555 2.57-2.718 14.303-3.098 15.658-1.658 5.899-3.236 11.823-4.82 17.746-.46 1.715-.848 3.451-1.27 5.179.15.102-.14 1.351.04 1.334ZM169.525 123.068a106.24 106.24 0 0 0 3.895 21.354c1.02 3.514 2.142 6.994 3.262 10.474 1.975 6.129 4.691 11.847 8.425 17.08 1.738 2.433 3.026 5.208 4.521 7.822.072.127.182.228.449.557.127-1.169.298-2.099.319-3.032.132-5.541-.275-14.005 3.027-18.271 2.397-3.096 3.257-8.177 3.094-11.091-.315-5.613-.779-8.278-3.094-13.434-5.365-11.944-12.477-12.08-19.784-14.778-2.671-.989-4.344.401-4.114 3.319Z" fill="#9AA0A9"/><path d="M154.267 92.053c1.435 6.6 5.835 14.103 9.085 20.044 2.464 4.508 2.653 3.229 6.777 5.15 2.124.99 7.968 1.963 10.039 3.055 1.773.935 4.412 2.133 6.083 3.276.316.217 1.24 1.13 1.642 1.5.096-.387.188-.582.181-.769-.241-7.117.336-15.055-2.131-21.76-1.346-3.655-5.748-8.817-8.729-11.159-4.893-3.85-8.728-4.72-15.215-5.762-.703-.114-1.665-.178-2.256.187-1.606 1.003-3.118 2.184-4.586 3.404-.826.688-1.139 1.683-.89 2.834ZM194.811 196.724c-1.632-4.981-3.259-9.983-5.271-14.798-1.763-4.224-4.474-7.914-7.349-11.426-1.301-1.587-2.55-3.217-3.892-4.765-.332-.381-1.07-.83-1.377-.686-.44.203-.802.889-.946 1.435-.844 3.267-.344 6.449 1.132 9.365 2.318 4.57 2.348 8.95 3.967 13.816 2.465 7.415 5.788 16.018 8.632 23.292 3.252 8.324 7.768 15.696 11.05 24.007.249.635.523 1.261.787 1.891.152-.033.303-.067.454-.105.069-.893.221-1.79.194-2.683-.423-13.525-3.198-26.584-7.381-39.343ZM193.135 163.608c-1.629 3.428-1.542 7.025-1.27 10.686 1.008 13.491 5.623 25.714 12.302 37.218 3.074 5.292 6.508 10.326 10.459 14.965.612.721 1.417 1.263 2.132 1.89.123-.123.247-.241.371-.364-.397-.712-.838-1.403-1.184-2.14-4.884-10.427-7.988-21.321-8.868-32.935-.821-10.821-3.97-20.914-10.394-29.731-1.455-2-2.471-1.856-3.548.411ZM176.699 163.004c.179.017-.111-1.232.037-1.334-.419-1.728-.807-3.464-1.267-5.179-1.585-5.923-3.163-11.847-4.821-17.746-.381-1.355-2.545-13.088-3.098-15.658-.207-.411-.831 4.209-1.179 7.486-.058.546.021 3.07-.069 3.565-.138.758.202 5.721.346 6.483 1.246 6.639 2.228 8.833 5.269 15.396.607 1.313 2.452 4.247 3.188 5.492.309.521.982 1.44 1.594 1.495ZM121.43 101.676c.189-.251.296-.335.322-.439.678-2.668 1.715-5.13 3.511-7.196.216-.25.179-.744.259-1.12-.366-.034-.769-.193-1.09-.084-1.851.636-3.683.682-5.555.092-.432-.138-.948.013-1.424.033.175.473.252 1.03.543 1.397 1.404 1.781 2.349 3.796 2.974 5.996.115.409.278.802.46 1.321ZM98.975 44.794c.292.638.616 1.31 1.094 1.779.312.308.953.422 1.403.346l1.795.05c.32 3.354.634 6.712.897 10.07.118 1.508.773 2.657 2.019 3.341 4.264 2.349 9.215 5.795 14.329 5.804 5.62.012 11.167-2.737 16.008-5.407 1.748-.959 2.566-2.61 2.678-4.722.154-2.995.468-5.985.75-8.971l1.801-.22c2.302.798 4.092-5.673 4.766-7.155 1.374-3.024 1.09-4.25-1.573-6.087l-2.527-1.757c-.339-.232-.088-6.547-.201-7.412-.309-2.387-.784-4.985-1.696-7.215-4.147-10.158-14.48-15.227-24.653-12.422-5.075 1.398-10.718 6.467-12.799 11.544-1.413 3.455-2.108 7.112-2.283 10.834a46.036 46.036 0 0 0 .009 4.971l-2.532 1.424c-1.452.19-3.032 2.707-2.46 4.046a311.002 311.002 0 0 0 3.175 7.16ZM84.297 448.762c-.104-.241-.513-.547-.705-.5-.23.059-.505.453-.54.729-.254 2.106-.564 4.212-.634 6.326l-2.063 12.868-3.227 3.47c-3.57 4.885-6.685 8.012-11.719 11.262-.537.347-4.105 3.487-6.436 6.555-1.863 2.449-2.935 4.856-1.04 5.75 8.42 3.898 15.246 6.397 23.15-.259 2.012-1.699 3.639-3.301 6.109-4.318 2.489-1.025 6.014-1.686 6.776-4.859l1.484-6.174.014-.169c.133-.437.263-.873.297-1.318.264-3.288.471-6.584.693-9.877.166-2.47-.643-4.461-2.277-6.321-3.612-4.115-7.629-7.924-9.882-13.165ZM100.191 376.244c-.046-.257-.192-8.16-.41-8.734-.212.645-1.406 5.158-1.483 5.499-.3 1.337-.58 2.678-.87 4.015-1.54 7.11-3.115 14.211-4.609 21.33-.793 3.782-1.722 7.565-2.094 11.403-.59 6.081-.9 12.204-1.072 18.318-.179 6.347.43 12.643 2.123 18.791.789 2.868 1.546 5.744 2.317 8.616a.473.473 0 0 1-.346-.321c-.668-1.918-1.403-3.816-1.985-5.76-2.835-9.488-3.673-19.293-3.767-29.131-.103-10.876-.63-21.718-1.387-32.56a244.74 244.74 0 0 1-.596-15.207c-.045-5.963.725-11.871 1.702-17.745.33-1.986.584-3.989.898-6.161-.327.131-.43.135-.469.19-.382.535-.755 1.075-1.126 1.615-6.658 9.699-10.527 20.63-11.911 32.441-.93 7.945-1.217 18.479 0 26.407 1.745 11.378 2.184 16.978 5.72 27.913 1.327 4.112 4.787 11.032 7.446 14.486 2.507 3.255 5.012 6.511 7.528 9.762.31.401.687.746 1.266 1.366.114-.755.288-1.193.224-1.589-.625-3.851-.922-7.819-2.039-11.513-1.33-4.394-1.492-10.775-.61-15.295 2.199-11.302 5.514-15.974 7.812-27.259 1.015-4.976 1.274-11.875.205-17.037-1.008-4.879-1.59-8.932-2.467-13.84Z" fill="#9AA0A9"/><path d="M95.057 337.277c-.593 1.14-1.218 2.296-1.59 3.52-1.306 4.307-2.62 8.613-3.73 12.975-1.35 5.307-2.24 10.71-2.116 16.228.134 5.929.239 11.862.496 17.787.216 4.967.627 9.926.977 14.885.037.538.233 1.063.355 1.597.116 0 .234.004.35.008.16-.529.36-1.054.472-1.592 1.535-7.271 3.02-14.555 4.601-21.814.799-3.659 1.778-7.28 2.661-10.922.492-2.02 1.125-4.027 1.395-6.081.74-5.59.273-11.193-.288-16.757-.324-3.227-1.1-6.403-1.738-9.588-.082-.406-.51-.902-.881-1.021-.23-.072-.777.42-.964.775ZM104.164 292.562c-.069.395-.166.789-.199 1.189-.357 4.257-.661 8.523-1.069 12.777-.309 3.205-.572 6.435-1.17 9.593-1.052 5.544-2.356 11.041-3.522 16.564-.117.552-.15 1.197.013 1.724 2.391 7.73 2.799 15.697 2.744 23.729-.011 1.515-.09 3.031-.138 4.55l.332.039c4.431-10.774 6.767-22.057 7.3-33.76.562-12.362-.528-24.536-3.797-36.443l-.494.038ZM101.309 292.518c.086-5.239-.07-10.499-1.2-15.607-1.757-7.946-3.88-15.803-5.757-23.723-2.52-10.64-4.95-21.304-7.43-31.957a55.51 55.51 0 0 0-1.041-3.858c-.09-.284-.48-.47-.732-.703-.174.301-.395.584-.508.906-.094.267-.081.581-.081.873-.004 3.303.057 6.607-.012 9.906-.086 4.058-.151 8.12-.46 12.16-.332 4.329-1.009 8.632-1.403 12.961-.766 8.458-1.54 16.916-2.118 25.387-.387 5.672-.741 11.372-.583 17.044.28 9.987.99 19.961 1.468 29.944.242 5.053.42 10.11.535 15.168.096 4.176.056 8.352.077 12.829.365-.411.604-.623.774-.881 2.667-4.083 5.424-8.107 7.957-12.275 2.387-3.93 4.547-8.017 5.892-12.477 2.498-8.276 3.341-16.862 4.203-25.426.341-3.405.363-6.844.419-10.271ZM115.414 243.769c-2.345-1.982-8.502-4.939-10.743-7.043-5.967-5.603-8.941-7.361-13.352-14.387-1.005-1.601-1.953-3.241-2.928-4.863-.128.025-.256.046-.383.072.081.802.127 1.609.252 2.404 1.2 7.597 3.147 14.999 5.413 22.325 5.202 16.829 9.398 33.941 13.221 51.15.647 2.916 1.213 5.852 1.815 8.776.331-.304.456-.629.511-.967.501-3.127 2.264-9.308 2.681-12.448 2.274-10.88 2.396-12.658 3.513-21.764 1.033-8.961 1.24-10.52 1.24-15.574 0-4.694.054-6.587-1.24-7.681Z" fill="#9AA0A9"/><path d="M72.17 298.842c.024.296 7.744 31.316 7.822 31.603.25-1.983-2.017-32.085-1.853-40.998.228-12.445 1.712-23.024 2.803-35.418.19-2.16.5-4.313.689-6.473.41-4.698 1.014-9.4 1.105-14.106.118-6.047-.167-12.102-.327-18.157-.058-2.233-.254-4.466-.387-6.694-.135 0-.27.004-.404.009-.08.308-.169.617-.237.93-.718 3.256-1.29 6.554-2.174 9.763-3.025 10.981-6.722 23.832-7.655 35.126-.618 7.476-2.405 16.44-2.059 23.062.41 7.835 1.441 12.6 2.677 21.353ZM148.35 337.277c-.185-.355-.733-.847-.963-.775-.369.119-.799.615-.879 1.021-.64 3.185-1.417 6.361-1.74 9.588-.561 5.564-1.028 11.167-.289 16.757.271 2.054.906 4.061 1.395 6.081.885 3.642 1.864 7.263 2.662 10.922 1.581 7.259 3.065 14.543 4.601 21.814.114.538.312 1.063.471 1.592.118-.004.234-.008.352-.008.122-.534.317-1.059.356-1.597.348-4.959.76-9.918.976-14.885.258-5.925.361-11.858.495-17.787.123-5.518-.766-10.921-2.115-16.228-1.111-4.362-2.425-8.668-3.732-12.975-.372-1.224-.997-2.38-1.59-3.52ZM161.339 353.848c.021-4.477-.017-8.653.078-12.829.115-5.058.293-10.115.535-15.168.477-9.983 1.188-19.957 1.467-29.944.159-5.672-.196-11.372-.584-17.044-.578-8.471-1.349-16.929-2.118-25.387-.392-4.329-1.071-8.632-1.402-12.961-.308-4.04-.375-8.102-.459-12.16-.07-3.299-.01-6.603-.013-9.906 0-.292.013-.606-.08-.873-.114-.322-.334-.605-.51-.906-.252.233-.642.419-.731.703a54.74 54.74 0 0 0-1.041 3.858c-2.48 10.653-4.909 21.317-7.431 31.957-1.876 7.92-4 15.777-5.757 23.723-1.13 5.108-1.285 10.368-1.199 15.607.056 3.427.077 6.866.42 10.271.86 8.564 1.705 17.15 4.201 25.426 1.346 4.46 3.506 8.547 5.893 12.477 2.534 4.168 5.29 8.192 7.958 12.275.169.258.41.47.773.881ZM142.598 362.688c-.048-1.519-.128-3.035-.137-4.55-.058-8.032.352-15.999 2.742-23.729.163-.527.129-1.172.013-1.724-1.166-5.523-2.468-11.02-3.521-16.564-.599-3.158-.862-6.388-1.17-9.593-.41-4.254-.712-8.52-1.07-12.777-.033-.4-.131-.794-.199-1.189l-.495-.038c-3.268 11.907-4.358 24.081-3.796 36.443.533 11.703 2.87 22.986 7.299 33.76l.334-.039Z" fill="#9AA0A9"/><path d="M147.604 461.411c2.516-3.251 5.021-6.507 7.528-9.762 2.659-3.454 6.118-10.374 7.448-14.486 3.534-10.935 3.973-16.535 5.72-27.913 1.216-7.928.93-18.462 0-26.407-1.386-11.811-5.256-22.742-11.913-32.441-.371-.54-.743-1.08-1.125-1.615-.04-.055-.143-.059-.47-.19.314 2.172.567 4.175.898 6.161.977 5.874 1.747 11.782 1.702 17.745a244.817 244.817 0 0 1-.596 15.207c-.756 10.842-1.284 21.684-1.386 32.56-.093 9.838-.932 19.643-3.768 29.131-.582 1.944-1.315 3.842-1.985 5.76a.469.469 0 0 1-.346.321c.771-2.872 1.528-5.748 2.319-8.616 1.692-6.148 2.3-12.444 2.121-18.791-.171-6.114-.481-12.237-1.072-18.318-.37-3.838-1.301-7.621-2.092-11.403-1.494-7.119-3.07-14.22-4.61-21.33-.291-1.337-.571-2.678-.871-4.015-.077-.341-1.271-4.854-1.481-5.499-.219.574-.366 8.477-.412 8.734-.876 4.908-1.459 8.961-2.467 13.84-1.067 5.162-.809 12.061.206 17.037 2.298 11.285 5.612 15.957 7.813 27.259.88 4.52.718 10.901-.61 15.295-1.118 3.694-1.414 7.662-2.039 11.513-.066.396.109.834.224 1.589.579-.62.954-.965 1.264-1.366ZM171.24 298.842c1.234-8.753 2.266-13.518 2.675-21.353.346-6.622-1.441-15.586-2.059-23.062-.933-11.294-4.629-24.145-7.654-35.126-.884-3.209-1.457-6.507-2.175-9.763-.069-.313-.156-.622-.236-.93a10.988 10.988 0 0 0-.404-.009c-.134 2.228-.33 4.461-.389 6.694-.159 6.055-.442 12.11-.326 18.157.092 4.706.696 9.408 1.106 14.106.188 2.16.499 4.313.688 6.473 1.093 12.394 2.575 22.973 2.803 35.418.164 8.913-2.104 39.015-1.852 40.998.076-.287 7.797-31.307 7.823-31.603ZM136.908 293.427c3.824-17.209 8.02-34.321 13.221-51.15 2.267-7.326 4.213-14.728 5.412-22.325.126-.795.171-1.602.254-2.404-.128-.026-.258-.047-.385-.072-.975 1.622-1.923 3.262-2.928 4.863-4.411 7.026-7.384 8.784-13.35 14.387-2.242 2.104-8.399 5.061-10.743 7.043-1.295 1.094-1.24 2.987-1.24 7.681 0 5.054.207 6.613 1.24 15.574 1.117 9.106 1.24 10.884 3.512 21.764.417 3.14 2.181 9.321 2.682 12.448.054.338.179.663.51.967.602-2.924 1.167-5.86 1.815-8.776ZM178.294 482.917c-5.085-3.25-8.231-6.377-11.836-11.262l-3.262-3.47-2.084-12.868c-.07-2.114-.384-4.22-.64-6.326-.033-.276-.314-.67-.546-.729-.192-.047-.606.259-.712.5-2.274 5.241-6.334 9.05-9.981 13.165-1.652 1.86-2.468 3.851-2.302 6.321.225 3.293.434 6.589.7 9.877.037.445.168.881.302 1.318l.015.169 1.496 6.174c.772 3.173 4.333 3.834 6.846 4.859 2.495 1.017 4.139 2.619 6.173 4.318 7.982 6.656 14.877 4.157 23.386.259 1.914-.894.829-3.301-1.053-5.75-2.355-3.068-5.959-6.208-6.502-6.555ZM141.337 136.307c1.222 6.372 2.393 12.757 3.818 19.086.395 1.752 1.414 3.452 2.481 4.917 1.398 1.916 3.07 3.633 4.727 5.329 2.574 2.634 4.509 5.634 5.457 9.28.099.38.253.743.482 1.405 1.386-1.789 1.863-3.599 1.995-5.464l.807-8.736c.151-.966.333-1.928.447-2.899.77-6.596.872-13.212.476-19.833a347.044 347.044 0 0 0-.825-10.706c-.142-1.566-.622-1.874-1.984-1.347l-15.042 5.896a5.508 5.508 0 0 0-.716.076c-1.579.249-2.436 1.358-2.123 2.996ZM84.43 127.438c-.045-.021-.077-.03-.119-.046l-.137-.056v.005c-1.606-.657-1.934-.005-2.193 2.499-.757 7.371-1.044 14.759-.668 22.164.15 2.944.667 6.96.972 10.197l-.002.055.742 8.057c.001.068-.005.131-.004.199.032 2.063.479 4.037 1.882 5.812.217-.271.324-.356.362-.461.14-.39.264-.788.378-1.191.758-2.635 1.892-5.058 3.744-7.074 1.585-1.725 3.175-3.445 4.748-5.181 2.45-2.712 4.244-5.774 4.759-9.536.12-.868.316-1.724.485-2.584.893-4.546 1.832-9.083 2.663-13.641.382-2.093-.507-3.16-2.542-3.38-.084-.013-.158-.009-.237-.017v-.005l-14.834-5.816ZM137.944 76.604c-1.572 3.68-4.236 6.532-6.822 9.435-1.335 1.497-2.748 2.924-4.093 4.413-.186.205-.191.583-.279.877.291.092.597.293.869.251.757-.113 1.504-.306 2.246-.499 3.369-.88 6.741-1.745 10.098-2.66 1.583-.432 3.175-.843 4.745-1.317a.41.41 0 0 0 .061-.017c2.128-.604 5.721.92 7.635 2.16 1.062-2.78 6.22-4.391 6.22-4.391l-5.201-2.337c-1.17-.516-2.101-.89-3.009-1.326-3.52-1.673-7.034-3.36-10.545-5.055-.784-.381-1.505-.52-1.925.466ZM119.096 103.702c-.34-4.713-2.667-8.21-7.074-9.894-4.519-1.727-9.067-3.403-13.676-4.852-3.435-1.077-7.892 2.75-9.056 5.9-2.341 6.342-5.493 12.258-8.717 18.148-.764 1.398-1.209 2.99-1.692 4.531-.316 1.009-.077 1.981.716 2.749 4.288 4.147 8.958 7.753 14.462 9.982 4.139 1.677 8.477 2.049 12.92 1.322 6.794-1.119 12.176-8.023 12.447-14.644.182-4.404-.012-8.842-.33-13.242Z" fill="#9AA0A9"/><path d="M89.802 89.248c1.914-1.242 5.507-2.765 7.635-2.16.024.008.04.012.06.016 1.57.474 3.163.885 4.746 1.317 3.358.915 6.729 1.78 10.095 2.66.745.193 1.492.386 2.249.5.272.041.578-.16.869-.252-.088-.294-.095-.672-.279-.877-1.345-1.49-2.757-2.916-4.091-4.413-2.588-2.903-5.253-5.756-6.824-9.435-.421-.986-1.141-.847-1.925-.466a1982.456 1982.456 0 0 1-10.546 5.055c-.907.437-1.838.81-3.008 1.326l-5.201 2.337s5.158 1.61 6.22 4.392ZM39.115 237.718c.252-4.878.785-9.748 1.206-14.618.062-.706.124-1.413.184-2.119l1.515-8.032-.001.004c.13-.585.244-1.173.349-1.766.087-.492.012-1.014.012-1.788-4.462 6.556-8.735 12.843-13.01 19.126l-2.953 2.927c-1.913.278-3.701 1.035-5.1 2.393-2.838 2.75-5.564 5.631-8.326 8.47l-2.648 3.364.008.004c-1.862.778-3.703 1.611-5.548 2.431-.24.105-.417.979-.258 1.312.718 1.488 2.03 2.149 3.653 2.409 2.53-.576 5.113-1.156 7.69-1.77l2.25.9c-.069.105-.136.21-.212.336a12.23 12.23 0 0 0-.303.539c-2.096 3.818-4.232 7.611-6.265 11.467-.97 1.842-2.786 3.596-2.655 5.825.05.862.694 1.489 1.207 1.846.223.151 1.03-.442 1.478-.816.394-.332.695-.807.964-1.261 1.981-3.365 3.958-6.733 5.908-10.118.899-1.561 1.78-3.129 2.614-4.723l.658.812c-2.109 3.763-4.237 7.519-6.262 11.333-1.426 2.687-2.703 5.463-4.01 8.217-.735 1.552.127 3.259 2.088 3.213.408-.328 1.334-.782 1.832-1.539.92-1.396 1.586-2.969 2.364-4.466 2.143-4.134 4.283-8.268 6.441-12.393l.731 1.32c-1.577 2.914-3.144 5.841-4.625 8.81-1.065 2.137-2.019 4.332-2.952 6.531-.558 1.316-.056 2.094 1.221 2.09 1.23.004 2.22-.488 2.787-1.627.732-1.476 1.371-2.999 2.085-4.483 1.306-2.712 2.61-5.429 3.966-8.116l1.032 1.156a6.608 6.608 0 0 0-.401.791c-.867 2.044-1.974 3.974-2.9 5.992-.173.375-.127 1.245.049 1.321.453.193 1.04.118 1.56.05.198-.021.388-.281.54-.471 2.424-2.931 4.168-6.282 5.826-9.689l.027-.012 4.977-6.834c3.305-4.281 3.727-7.961 2.018-12.986-.574-1.686-.902-3.587-.811-5.362ZM238.193 248.114c-1.843-.82-3.686-1.653-5.548-2.431l.008-.004-2.648-3.364c-2.76-2.839-5.486-5.72-8.326-8.47-1.398-1.358-3.186-2.115-5.1-2.393l-2.951-2.927c-4.275-6.283-8.55-12.57-13.012-19.126 0 .774-.075 1.296.012 1.788.106.593.221 1.181.349 1.766v-.004l1.514 8.032c.062.706.124 1.413.184 2.119.422 4.87.955 9.74 1.206 14.618.091 1.775-.237 3.676-.81 5.362-1.708 5.025-1.286 8.705 2.018 12.986l4.976 6.834.027.012c1.66 3.407 3.404 6.758 5.826 9.689.154.19.343.45.539.471.523.068 1.109.143 1.563-.05.174-.076.22-.946.048-1.321-.927-2.018-2.034-3.948-2.899-5.992a6.654 6.654 0 0 0-.402-.791l1.031-1.156c1.357 2.687 2.662 5.404 3.968 8.116.712 1.484 1.351 3.007 2.084 4.483.567 1.139 1.556 1.631 2.786 1.627 1.277.004 1.781-.774 1.221-2.09-.933-2.199-1.886-4.394-2.952-6.531-1.481-2.969-3.047-5.896-4.625-8.814l.732-1.316c2.157 4.125 4.298 8.259 6.441 12.393.777 1.497 1.444 3.07 2.363 4.466.499.757 1.425 1.211 1.833 1.539 1.96.046 2.824-1.661 2.086-3.213-1.306-2.754-2.582-5.53-4.009-8.217-2.025-3.814-4.151-7.57-6.262-11.333l.659-.812a133.32 133.32 0 0 0 2.613 4.723c1.95 3.385 3.927 6.753 5.908 10.118.269.454.572.929.965 1.261.446.374 1.254.967 1.477.816.513-.357 1.158-.984 1.207-1.846.133-2.229-1.683-3.983-2.655-5.825-2.031-3.856-4.169-7.649-6.263-11.467a9.938 9.938 0 0 0-.517-.875l2.251-.9c2.576.614 5.16 1.194 7.689 1.77 1.624-.26 2.936-.921 3.653-2.409.159-.333-.018-1.207-.258-1.312Z" fill="#9AA0A9"/></svg>