<svg width="17" height="16" fill="none" xmlns="http://www.w3.org/2000/svg"><g clip-path="url(#a)"><path d="M12.404 9.738c-.299-.31-.658-.476-1.04-.476-.378 0-.74.163-1.051.473l-.972.969c-.08-.043-.16-.083-.237-.123-.11-.055-.215-.108-.305-.163-.91-.578-1.737-1.332-2.53-2.307-.385-.485-.643-.895-.83-1.31.251-.23.485-.47.713-.7l.258-.262c.646-.646.646-1.483 0-2.128l-.84-.84c-.095-.095-.193-.194-.286-.292a14.52 14.52 0 0 0-.578-.572c-.298-.295-.655-.452-1.03-.452s-.738.157-1.046.452l-.006.006-1.046 1.055a2.25 2.25 0 0 0-.667 1.43c-.074.898.19 1.734.394 2.282.498 1.344 1.242 2.59 2.352 3.924a14.472 14.472 0 0 0 4.82 3.773c.707.336 1.651.732 2.706.8.065.003.132.006.194.006.71 0 1.307-.255 1.774-.762.003-.007.01-.01.013-.016.16-.194.344-.369.538-.557.132-.126.267-.258.4-.396.304-.317.464-.686.464-1.064 0-.382-.163-.748-.474-1.055l-1.688-1.695Zm1.1 3.239c-.002 0-.002.003 0 0-.12.129-.242.246-.374.375-.2.19-.403.39-.594.615-.31.332-.676.489-1.156.489-.046 0-.096 0-.142-.003-.913-.058-1.762-.415-2.399-.72A13.662 13.662 0 0 1 4.3 10.178C3.251 8.914 2.55 7.745 2.086 6.491c-.286-.766-.39-1.363-.345-1.925.031-.36.17-.659.425-.914l1.049-1.049c.15-.141.31-.218.467-.218.194 0 .35.117.449.215l.01.01c.187.175.365.356.553.55l.292.298.84.84c.326.326.326.627 0 .953-.09.09-.176.179-.265.265-.258.264-.504.51-.772.75-.006.006-.012.01-.015.016-.265.264-.215.522-.16.698l.01.027c.217.53.525 1.028.992 1.621l.004.003c.848 1.046 1.743 1.86 2.73 2.485.127.08.256.145.379.206.11.056.215.108.304.163.013.006.025.016.037.022a.666.666 0 0 0 .305.077c.255 0 .415-.16.467-.213l1.052-1.051c.104-.105.27-.231.464-.231.19 0 .348.12.443.224l.006.007 1.695 1.694c.316.314.316.637.003.963Z" fill="#9AA2AC"/><path d="M13.505 12.977c-.003 0-.003.003 0 0Zm0 0c-.12.129-.243.246-.375.375-.2.19-.403.39-.594.615-.31.332-.676.489-1.156.489-.046 0-.096 0-.142-.003-.913-.058-1.762-.415-2.399-.72A13.662 13.662 0 0 1 4.3 10.178C3.251 8.914 2.55 7.745 2.086 6.491c-.286-.766-.39-1.363-.345-1.925.031-.36.17-.659.425-.914l1.049-1.049c.15-.141.31-.218.467-.218.194 0 .35.117.449.215l.01.01c.187.175.365.356.553.55l.292.298.84.84c.326.326.326.627 0 .953-.09.09-.176.179-.265.265-.258.264-.504.51-.772.75-.006.006-.012.01-.015.016-.265.264-.215.522-.16.698l.01.027c.217.53.525 1.028.992 1.621l.004.003c.848 1.046 1.743 1.86 2.73 2.485.127.08.256.145.379.206.11.056.215.108.304.163.013.006.025.016.037.022a.666.666 0 0 0 .305.077c.255 0 .415-.16.467-.213l1.052-1.051c.104-.105.27-.231.464-.231.19 0 .348.12.443.224l.006.007 1.695 1.694c.316.314.316.637.003.963Zm-1.101-3.239c-.299-.31-.658-.476-1.04-.476-.378 0-.74.163-1.051.473l-.972.969c-.08-.043-.16-.083-.237-.123-.11-.055-.215-.108-.305-.163-.91-.578-1.737-1.332-2.53-2.307-.385-.485-.643-.895-.83-1.31.251-.23.485-.47.713-.7l.258-.262c.646-.646.646-1.483 0-2.128l-.84-.84c-.095-.095-.193-.194-.286-.292a14.52 14.52 0 0 0-.578-.572c-.298-.295-.655-.452-1.03-.452s-.738.157-1.046.452l-.006.006-1.046 1.055a2.25 2.25 0 0 0-.667 1.43c-.074.898.19 1.734.394 2.282.498 1.344 1.242 2.59 2.352 3.924a14.472 14.472 0 0 0 4.82 3.773c.707.336 1.651.732 2.706.8.065.003.132.006.194.006.71 0 1.307-.255 1.774-.762.003-.007.01-.01.013-.016.16-.194.344-.369.538-.557.132-.126.267-.258.4-.396.304-.317.464-.686.464-1.064 0-.382-.163-.748-.474-1.055l-1.688-1.695Z" stroke="#9AA2AC" stroke-width=".452"/><path d="M8.764 4.175a3.9 3.9 0 0 1 2.122 1.101 3.92 3.92 0 0 1 1.1 2.122c.034.203.21.345.41.345a.416.416 0 0 0 .412-.486 4.743 4.743 0 0 0-1.332-2.568 4.743 4.743 0 0 0-2.568-1.332.417.417 0 0 0-.48.338.41.41 0 0 0 .336.48ZM15.443 7.139A7.803 7.803 0 0 0 13.25 2.91 7.804 7.804 0 0 0 9.021.717a.414.414 0 1 0-.135.818 6.988 6.988 0 0 1 3.78 1.96 6.968 6.968 0 0 1 1.959 3.779c.034.203.209.344.409.344.024 0 .046-.003.07-.006a.407.407 0 0 0 .339-.473Z" fill="#9AA2AC" stroke="#9AA2AC" stroke-width=".452"/></g><defs><clipPath id="a"><path fill="#fff" transform="translate(0 .313)" d="M0 0h17v15.381H0z"/></clipPath></defs></svg>