<svg width="60" height="60" fill="none" xmlns="http://www.w3.org/2000/svg"><rect x="60" width="60" height="60" rx="30" transform="rotate(90 60 0)" fill="#5DA0EF"/><g clip-path="url(#a)" fill="#fff"><path d="M35.974 38.966h-1.91v-2.614a13.023 13.023 0 0 1-7.969.05v2.564h-2.074c-.883 0-1.33 1.067-.71 1.696l5.963 6.043a.996.996 0 0 0 1.417.001l5.99-6.043c.623-.626.177-1.697-.707-1.697ZM20.497 15.148C16.25 15.857 13 19.56 13 24.005c0 4.447 3.249 8.147 7.497 8.856a12.972 12.972 0 0 1 0-17.713ZM39.5 15.148a12.971 12.971 0 0 1 0 17.713c4.249-.709 7.497-4.41 7.497-8.856s-3.248-8.148-7.497-8.857Z"/><path d="M29.997 13c-6.068 0-11.005 4.936-11.005 11.004S23.93 35.01 29.997 35.01C36.064 35.009 41 30.072 41 24.004 41 17.936 36.064 13 29.997 13Zm-.801 9.509 2.476 1.211c.82.401 1.35 1.25 1.35 2.164a2.412 2.412 0 0 1-1.991 2.372v.737a.996.996 0 0 1-1.992 0v-.7h-1.066a.996.996 0 0 1 0-1.993h2.641c.44 0 .578-.597.183-.79l-2.476-1.211c-2.068-1.011-1.69-4.194.641-4.602v-.671a.996.996 0 0 1 1.992 0v.634h1.073a.996.996 0 1 1 0 1.992h-2.648c-.466 0-.566.67-.183.857Z"/></g><defs><clipPath id="a"><path fill="#fff" transform="translate(13 13)" d="M0 0h34v34H0z"/></clipPath></defs></svg>