<svg width="41" height="41" fill="none" xmlns="http://www.w3.org/2000/svg"><rect width="41" height="41" rx="20.5" fill="#5DA0EF"/><g clip-path="url(#a)" fill="#fff"><path d="M20.5 10.008c-3.234 0-6.165 1.517-8.084 3.817l-.787-.775a.571.571 0 0 0-.627-.148.568.568 0 0 0-.406.492l-.59 4.059c-.067.5.509.784.7.688l4.059-.578a.582.582 0 0 0 .492-.406.62.62 0 0 0-.148-.64l-.934-.934a8.056 8.056 0 0 1 6.325-3.075c4.39 0 8.023 3.58 8.035 7.97v.025c0 .156-.005.313-.015.468a.615.615 0 0 0 .704.646l1.24-.181a.615.615 0 0 0 .525-.587c.004-.116.006-.232.006-.346 0-5.758-4.711-10.495-10.495-10.495ZM30.289 22.742l-4.059.578a.582.582 0 0 0-.492.406.62.62 0 0 0 .148.64l.984.983a8.036 8.036 0 0 1-6.375 3.149c-4.403 0-8.035-3.592-8.035-7.995.004-.08-.01-.252.017-.58a.616.616 0 0 0-.699-.66l-1.24.175a.615.615 0 0 0-.528.581c-.015.343-.008.618-.01.743.136 5.645 4.813 10.236 10.495 10.236 3.271 0 6.227-1.541 8.146-3.89l.726.726c.161.179.43.226.627.147a.568.568 0 0 0 .406-.492l.59-4.058c.05-.381-.3-.756-.701-.69Z"/></g><defs><clipPath id="a"><path fill="#fff" transform="translate(10 10)" d="M0 0h21v21H0z"/></clipPath></defs></svg>