<svg width="41" height="41" fill="none" xmlns="http://www.w3.org/2000/svg"><rect width="41" height="41" rx="20" fill="#5DA0EF"/><g clip-path="url(#a)" fill="#fff"><path d="M32.04 28.92 26.52 24c1.08-1.44 1.68-3.36 1.68-5.4 0-5.28-4.32-9.6-9.6-9.6C13.32 9 9 13.32 9 18.6c0 5.28 4.32 9.6 9.6 9.6a9.3 9.3 0 0 0 5.4-1.68l4.92 5.52c.72 1.08 2.4 1.32 3.36.36.96-.96.84-2.64-.24-3.48ZM18.6 25.8c-3.96 0-7.2-3.24-7.2-7.2s3.24-7.2 7.2-7.2 7.2 3.24 7.2 7.2-3.24 7.2-7.2 7.2Z"/><path d="M17.406 17.398h2.4v6h-2.4v-6ZM18.606 16.197a1.2 1.2 0 1 0 0-2.4 1.2 1.2 0 0 0 0 2.4Z"/></g><defs><clipPath id="a"><path fill="#fff" transform="translate(9 9)" d="M0 0h24v24H0z"/></clipPath></defs></svg>