<svg width="36" height="36" fill="none" xmlns="http://www.w3.org/2000/svg"><path d="M19.863 11.981a.56.56 0 0 0-.815 0 .62.62 0 0 0 0 .851l4.366 4.559H11.813c-.32 0-.579.27-.579.604 0 .333.26.604.579.604h11.596l-4.367 4.559a.615.615 0 0 0-.17.425c0 .16.062.313.17.426a.556.556 0 0 0 .41.175.58.58 0 0 0 .411-.175l5.35-5.585a.612.612 0 0 0 .168-.43.637.637 0 0 0-.168-.428l-5.35-5.585Z" fill="#131316"/><path fill-rule="evenodd" clip-rule="evenodd" d="M1.979 11.222A17.682 17.682 0 0 1 18.318.305a17.571 17.571 0 0 1 12.503 5.182c6.905 6.906 6.905 18.103 0 25.008-6.905 6.906-18.1 6.906-25.006 0A17.684 17.684 0 0 1 1.98 11.222Zm.298 6.77c0 8.843 7.198 16.042 16.04 16.042 8.842 0 16.04-7.198 16.04-16.042 0-8.843-7.198-16.04-16.04-16.04-8.842 0-16.04 7.197-16.04 16.04Z" fill="#131316"/></svg>