<svg width="60" height="60" fill="none" xmlns="http://www.w3.org/2000/svg"><rect x="60" width="60" height="60" rx="30" transform="rotate(90 60 0)" fill="#5DA0EF"/><path d="M33.265 21.227c-4.837 0-8.773 3.935-8.773 8.773 0 4.837 3.936 8.773 8.773 8.773 4.838 0 8.773-3.936 8.773-8.774 0-4.837-3.935-8.772-8.773-8.772Zm4.137 9.797H32.24V23.83h2.05v5.145h3.112v2.05Z" fill="#fff"/><path d="M33.304 15.774a14.16 14.16 0 0 0-8.357 2.685H17.19a2.214 2.214 0 1 0 0 4.428h3.752a14.136 14.136 0 0 0-1.566 4.026h-4.654a2.214 2.214 0 0 0 0 4.429h4.381c.133 1.412.471 2.764.986 4.026h-1.581a2.214 2.214 0 0 0 0 4.428h4.444a14.184 14.184 0 0 0 10.313 4.427c7.856 0 14.225-6.368 14.225-14.224 0-7.86-6.327-14.204-14.186-14.225Zm-.04 25.047c-5.967 0-10.822-4.855-10.822-10.822 0-5.968 4.855-10.823 10.823-10.823 5.967 0 10.822 4.855 10.822 10.823 0 5.967-4.855 10.822-10.822 10.822Z" fill="#fff"/></svg>