<svg width="1360" height="78" fill="none" xmlns="http://www.w3.org/2000/svg"><g clip-path="url(#a)"><path fill-rule="evenodd" clip-rule="evenodd" d="M32.834 16.11c220.05 36.894 682.31 114.398 1280.476 6.316 16.25-2.936 31.81-4.998 46.69-6.23V78H0V10.635c10.258 1.69 21.208 3.525 32.834 5.475ZM0 10.635V0h1360v16.196c353.01-29.227 328.32 408.167 284.23 704.044l-177.47 195.056c-91.9 159.454-1056.929 294.534-1657.562-17.555-600.634-312.09-141.786-684.323 61.545-840.205L-76.983 0C-58.823 1.288-32.989 5.203 0 10.635Z" fill="#EA2828"/></g><defs><clipPath id="a"><path fill="#fff" d="M0 0h1360v78H0z"/></clipPath></defs></svg>