<svg width="60" height="60" fill="none" xmlns="http://www.w3.org/2000/svg"><rect x="60" width="60" height="60" rx="30" transform="rotate(90 60 0)" fill="#5DA0EF"/><path d="M29.333 30.327a7.333 7.333 0 1 0 0-14.667 7.333 7.333 0 0 0 0 14.667Z" fill="#fff"/><path fill-rule="evenodd" clip-rule="evenodd" d="M31.23 43.01a8.302 8.302 0 0 1-2.233-5.675c0-2.244.89-4.282 2.335-5.781a25.878 25.878 0 0 0-2.001-.077c-4.43 0-8.35 1.108-10.786 2.768-1.857 1.266-2.88 2.876-2.88 4.565v1.933a2.263 2.263 0 0 0 2.266 2.267h13.3Z" fill="#fff"/><path fill-rule="evenodd" clip-rule="evenodd" d="M37.328 30.336c-3.864 0-7 3.136-7 7s3.136 7 7 7 7-3.136 7-7-3.136-7-7-7ZM34.107 38.5l2 1.334a1 1 0 0 0 1.261-.126l3.334-3.333a.999.999 0 1 0-1.414-1.413l-2.755 2.753-1.317-.879a1 1 0 0 0-1.11 1.664Z" fill="#fff"/></svg>