<svg width="41" height="41" fill="none" xmlns="http://www.w3.org/2000/svg"><rect width="41" height="41" rx="20.5" fill="#5DA0EF"/><g clip-path="url(#a)" fill="#fff"><path d="M27.09 32.477h-.33a3.81 3.81 0 0 0-3.733-3.047h-4.062a3.81 3.81 0 0 0-3.732 3.047h-.33a.762.762 0 0 0 0 1.523H27.09a.762.762 0 1 0 0-1.523ZM19.477 17.605v10.302h3.046V17.605a4.04 4.04 0 0 1-3.046 0ZM22.523 10.075v-.552a1.523 1.523 0 1 0-3.046 0v.552a4.04 4.04 0 0 1 3.046 0ZM21 16.379a2.54 2.54 0 1 0 0-5.078 2.54 2.54 0 0 0 0 5.078ZM16.633 21.965a.76.76 0 0 0-.064-.305l-3.088-7.058h3.53a4.07 4.07 0 0 1 0-1.524H9.776a.762.762 0 0 0 0 1.524h1.375L8.064 21.66a.762.762 0 0 0-.064.305 4.321 4.321 0 0 0 4.316 4.316 4.321 4.321 0 0 0 4.317-4.316Zm-6.906-.305 2.59-5.92 2.59 5.92h-5.18ZM33.938 21.66l-3.087-7.058h1.374a.762.762 0 0 0 0-1.524h-7.233a4.069 4.069 0 0 1 0 1.524h3.53l-3.089 7.058a.762.762 0 0 0-.064.305 4.321 4.321 0 0 0 4.317 4.316 4.321 4.321 0 0 0 4.316-4.316.762.762 0 0 0-.064-.305Zm-6.842 0 2.59-5.92 2.59 5.92h-5.18Z"/></g><defs><clipPath id="a"><path fill="#fff" transform="translate(8 8)" d="M0 0h26v26H0z"/></clipPath></defs></svg>