<svg width="21" height="15" fill="none" xmlns="http://www.w3.org/2000/svg"><g clip-path="url(#a)"><path d="M19.5 0h-18A1.5 1.5 0 0 0 0 1.5v12A1.5 1.5 0 0 0 1.5 15h18a1.5 1.5 0 0 0 1.5-1.5v-12A1.5 1.5 0 0 0 19.5 0Z" fill="#fff"/><mask id="b" style="mask-type:alpha" maskUnits="userSpaceOnUse" x="0" y="0" width="21" height="15"><path d="M19.5 0h-18A1.5 1.5 0 0 0 0 1.5v12A1.5 1.5 0 0 0 1.5 15h18a1.5 1.5 0 0 0 1.5-1.5v-12A1.5 1.5 0 0 0 19.5 0Z" fill="#fff"/></mask><g mask="url(#b)"><path d="M21 0H0v15h21V0Z" fill="#1537D1"/><path d="M21 0H10v15h11V0Z" fill="#EA3058"/><path fill-rule="evenodd" clip-rule="evenodd" d="M7 15h7V0H7v15Z" fill="#FFCF3C"/><path fill-rule="evenodd" clip-rule="evenodd" d="M9.5 6.5h1V7h-1v-.5Z" fill="#FFEDB1"/><path d="M9.298 6.52a.25.25 0 0 1 .249-.27h1.913a.25.25 0 0 1 .25.27l-.13 1.542a.75.75 0 0 1-.747.688h-.66a.75.75 0 0 1-.747-.688l-.128-1.541Z" stroke="#D32E28" stroke-width=".667"/><path fill-rule="evenodd" clip-rule="evenodd" d="M9.5 7h2v.5h-2V7Z" fill="#D32E28"/></g></g><defs><clipPath id="a"><path fill="#fff" d="M0 0h21v15H0z"/></clipPath></defs></svg>