<svg width="21" height="15" fill="none" xmlns="http://www.w3.org/2000/svg"><g clip-path="url(#a)"><mask id="b" style="mask-type:alpha" maskUnits="userSpaceOnUse" x="0" y="0" width="21" height="15"><path d="M19.5 0h-18A1.5 1.5 0 0 0 0 1.5v12A1.5 1.5 0 0 0 1.5 15h18a1.5 1.5 0 0 0 1.5-1.5v-12A1.5 1.5 0 0 0 19.5 0Z" fill="#fff"/></mask><g mask="url(#b)"><path d="M21 0H0v15h21V0Z" fill="#EE343C"/><path fill-rule="evenodd" clip-rule="evenodd" d="M9.29 3.287a.5.5 0 0 0-.631-.062l-.442.294a.5.5 0 0 0 .053.864l.953.476a.5.5 0 0 1 .277.447v.191a.5.5 0 0 1-.5.5h-.382a.5.5 0 0 1-.224-.053l-1.572-.786a.5.5 0 0 0-.577.094l-.255.255a.5.5 0 0 0 .13.8l.708.354c.3.15.325.567.047.753a.436.436 0 0 0 .156.79l.422.084c.404.08.523.602.193.85l-.378.283a.32.32 0 0 0 .27.567l.946-.237c.36-.09.64.31.435.617-.18.269.014.63.337.63h.437c.183 0 .346.116.404.29.129.387.677.387.806 0a.425.425 0 0 1 .403-.29h.438c.323 0 .516-.361.336-.63a.405.405 0 0 1 .435-.617l.946.237a.32.32 0 0 0 .27-.567l-.377-.283a.477.477 0 0 1 .193-.85l.421-.084a.436.436 0 0 0 .156-.79.436.436 0 0 1 .047-.753l.708-.354a.5.5 0 0 0 .13-.8l-.254-.255a.5.5 0 0 0-.578-.094l-1.572.786a.5.5 0 0 1-.223.053H12a.5.5 0 0 1-.5-.5v-.19a.5.5 0 0 1 .276-.448l.953-.477a.5.5 0 0 0 .054-.863l-.442-.294a.5.5 0 0 0-.631.062l-.857.857a.5.5 0 0 1-.707 0l-.856-.857Z" fill="#262626"/></g></g><defs><clipPath id="a"><path fill="#fff" d="M0 0h21v15H0z"/></clipPath></defs></svg>