<svg width="21" height="15" fill="none" xmlns="http://www.w3.org/2000/svg"><g clip-path="url(#a)"><path d="M19.5 0h-18A1.5 1.5 0 0 0 0 1.5v12A1.5 1.5 0 0 0 1.5 15h18a1.5 1.5 0 0 0 1.5-1.5v-12A1.5 1.5 0 0 0 19.5 0Z" fill="#fff"/><mask id="b" style="mask-type:alpha" maskUnits="userSpaceOnUse" x="0" y="0" width="21" height="15"><path d="M19.5 0h-18A1.5 1.5 0 0 0 0 1.5v12A1.5 1.5 0 0 0 1.5 15h18a1.5 1.5 0 0 0 1.5-1.5v-12A1.5 1.5 0 0 0 19.5 0Z" fill="#fff"/></mask><g mask="url(#b)"><path d="M21 0H0v15h21V0Z" fill="#0A17A7"/><path d="M-.004-.252H-.68l.513.44 3.413 2.925v.756L-.149 6.294l-.105.075v1.08l.383-.24 3.939-2.461h.848L8.308 7.17a.415.415 0 0 0 .511-.654L5.746 3.883v-.756l3.29-2.35a.5.5 0 0 0 .21-.408V-.453l-.382.239-3.94 2.462h-.848L.641-.205.576-.252h-.58Z" fill="#FF2E3B" stroke="#fff" stroke-width=".667"/><path fill-rule="evenodd" clip-rule="evenodd" d="M0 2.5v2h3.5V7a.5.5 0 0 0 .5.5h1a.5.5 0 0 0 .5-.5V4.5H9a.5.5 0 0 0 .5-.5V3a.5.5 0 0 0-.5-.5H5.5V0h-2v2.5H0Z" fill="url(#c)"/><path fill-rule="evenodd" clip-rule="evenodd" d="M0 3h4V0h1v3h4v1H5v3H4V4H0V3Z" fill="url(#d)"/><path fill-rule="evenodd" clip-rule="evenodd" d="m4.497 12.25-.882.464.169-.982-.714-.695.986-.144.44-.893.442.893.985.143-.713.696.169.982-.882-.464ZM14.996 12.996l-.707.207.207-.707-.207-.707.707.207.707-.207-.207.707.207.707-.707-.207ZM14.996 3.496l-.707.207.207-.707-.207-.707.707.207.707-.207-.207.707.207.707-.707-.207ZM17.996 6.496l-.707.207.207-.707-.207-.707.707.207.707-.207-.207.707.207.707-.707-.207ZM11.996 7.496l-.707.207.207-.707-.207-.707.707.207.707-.207-.207.707.207.707-.707-.207ZM16.494 8.744l-.353.104.103-.354-.103-.353.353.103.354-.103-.104.353.104.354-.354-.104Z" fill="#fff"/></g></g><defs><linearGradient id="c" x1="0" y1="0" x2="0" y2="7.5" gradientUnits="userSpaceOnUse"><stop stop-color="#fff"/><stop offset="1" stop-color="#F0F0F0"/></linearGradient><linearGradient id="d" x1="0" y1="0" x2="0" y2="7" gradientUnits="userSpaceOnUse"><stop stop-color="#FF2E3B"/><stop offset="1" stop-color="#FC0D1B"/></linearGradient><clipPath id="a"><path fill="#fff" d="M0 0h21v15H0z"/></clipPath></defs></svg>