<svg width="21" height="15" fill="none" xmlns="http://www.w3.org/2000/svg"><g clip-path="url(#a)"><path d="M19.5 0h-18A1.5 1.5 0 0 0 0 1.5v12A1.5 1.5 0 0 0 1.5 15h18a1.5 1.5 0 0 0 1.5-1.5v-12A1.5 1.5 0 0 0 19.5 0Z" fill="#fff"/><mask id="b" style="mask-type:alpha" maskUnits="userSpaceOnUse" x="0" y="0" width="21" height="15"><path d="M19.5 0h-18A1.5 1.5 0 0 0 0 1.5v12A1.5 1.5 0 0 0 1.5 15h18a1.5 1.5 0 0 0 1.5-1.5v-12A1.5 1.5 0 0 0 19.5 0Z" fill="#fff"/></mask><g mask="url(#b)"><path d="M21 0H0v15h21V0Z" fill="#0B36B2"/><g filter="url(#c)"><path fill-rule="evenodd" clip-rule="evenodd" d="M17 15V0H6.5L17 15Z" fill="#FFD045"/></g><path fill-rule="evenodd" clip-rule="evenodd" d="m12.996 13.996-.707.207.207-.707-.207-.707.707.207.707-.207-.207.707.207.707-.707-.207ZM10.996 10.996l-.707.207.207-.707-.207-.707.707.207.707-.207-.207.707.207.707-.707-.207ZM8.996 7.996l-.707.207.207-.707-.207-.707.707.207.707-.207-.207.707.207.707-.707-.207ZM6.996 4.996l-.707.207.207-.707-.207-.707.707.207.707-.207-.207.707.207.707-.707-.207ZM4.996 1.996l-.707.207.207-.707L4.29.79l.707.207.707-.207-.207.707.207.707-.707-.207Z" fill="#fff"/></g></g><defs><clipPath id="a"><path fill="#fff" d="M0 0h21v15H0z"/></clipPath><filter id="c" x="6.5" y="0" width="10.5" height="15" filterUnits="userSpaceOnUse" color-interpolation-filters="sRGB"><feFlood flood-opacity="0" result="BackgroundImageFix"/><feColorMatrix in="SourceAlpha" values="0 0 0 0 0 0 0 0 0 0 0 0 0 0 0 0 0 0 127 0" result="hardAlpha"/><feOffset/><feColorMatrix values="0 0 0 0 0 0 0 0 0 0 0 0 0 0 0 0 0 0 0.06 0"/><feBlend in2="BackgroundImageFix" result="effect1_dropShadow_7792_49938"/><feBlend in="SourceGraphic" in2="effect1_dropShadow_7792_49938" result="shape"/></filter></defs></svg>