<svg width="21" height="15" fill="none" xmlns="http://www.w3.org/2000/svg"><g clip-path="url(#a)"><path d="M19.5 0h-18A1.5 1.5 0 0 0 0 1.5v12A1.5 1.5 0 0 0 1.5 15h18a1.5 1.5 0 0 0 1.5-1.5v-12A1.5 1.5 0 0 0 19.5 0Z" fill="#fff"/><mask id="b" style="mask-type:alpha" maskUnits="userSpaceOnUse" x="0" y="0" width="21" height="15"><path d="M19.5 0h-18A1.5 1.5 0 0 0 0 1.5v12A1.5 1.5 0 0 0 1.5 15h18a1.5 1.5 0 0 0 1.5-1.5v-12A1.5 1.5 0 0 0 19.5 0Z" fill="#fff"/></mask><g mask="url(#b)" fill-rule="evenodd" clip-rule="evenodd"><path d="M0 15h21v-5H0v5ZM0 5h21V0H0v5Z" fill="#22B7D5"/><path d="M0 10h21V5H0v5Z" fill="url(#c)"/><path d="m0 0 10 7.5L0 15V0Z" fill="#262626"/></g></g><defs><linearGradient id="c" x1="0" y1="5" x2="0" y2="10" gradientUnits="userSpaceOnUse"><stop stop-color="#FCE569"/><stop offset="1" stop-color="#FADF52"/></linearGradient><clipPath id="a"><path fill="#fff" d="M0 0h21v15H0z"/></clipPath></defs></svg>