<svg width="21" height="15" fill="none" xmlns="http://www.w3.org/2000/svg"><g clip-path="url(#a)"><path d="M19.5.188h-18C.775.188.187.774.187 1.5v12c0 .725.588 1.313 1.313 1.313h18c.725 0 1.313-.588 1.313-1.313v-12c0-.725-.588-1.313-1.313-1.313Z" fill="#fff" stroke="#F5F5F5" stroke-width=".5"/><mask id="b" style="mask-type:alpha" maskUnits="userSpaceOnUse" x="-1" y="-1" width="23" height="17"><path d="M19.5.188h-18C.775.188.187.774.187 1.5v12c0 .725.588 1.313 1.313 1.313h18c.725 0 1.313-.588 1.313-1.313v-12c0-.725-.588-1.313-1.313-1.313Z" fill="#fff" stroke="#fff" stroke-width=".5"/></mask><g mask="url(#b)" fill="#FF3131"><path d="M21 0h-6v15h6V0Z"/><path fill-rule="evenodd" clip-rule="evenodd" d="M0 15h6V0H0v15ZM12.084 6.916a.25.25 0 0 1-.422-.226L12 5l-1 .5-.5-1.5-.5 1.5L9 5l.338 1.69a.25.25 0 0 1-.422.226l-.24-.24a.25.25 0 0 0-.353 0L8 7l-1-.5.5 1-.323.323a.25.25 0 0 0 0 .354L8.5 9.5H10l.25 1.5h.5L11 9.5h1.5l1.323-1.323a.25.25 0 0 0 0-.354L13.5 7.5l.5-1-1 .5-.323-.323a.25.25 0 0 0-.354 0l-.24.24Z"/></g></g><defs><clipPath id="a"><path fill="#fff" d="M0 0h21v15H0z"/></clipPath></defs></svg>