<svg width="21" height="15" fill="none" xmlns="http://www.w3.org/2000/svg"><g clip-path="url(#a)"><path d="M19.5 0h-18A1.5 1.5 0 0 0 0 1.5v12A1.5 1.5 0 0 0 1.5 15h18a1.5 1.5 0 0 0 1.5-1.5v-12A1.5 1.5 0 0 0 19.5 0Z" fill="#fff"/><mask id="b" style="mask-type:alpha" maskUnits="userSpaceOnUse" x="0" y="0" width="21" height="15"><path d="M19.5 0h-18A1.5 1.5 0 0 0 0 1.5v12A1.5 1.5 0 0 0 1.5 15h18a1.5 1.5 0 0 0 1.5-1.5v-12A1.5 1.5 0 0 0 19.5 0Z" fill="#fff"/></mask><g mask="url(#b)"><path d="M21 0H0v15h21V0Z" fill="red"/><path fill-rule="evenodd" clip-rule="evenodd" d="M9 9H6.25A.25.25 0 0 1 6 8.75v-2.5A.25.25 0 0 1 6.25 6H9V3.25A.25.25 0 0 1 9.25 3h2.5a.25.25 0 0 1 .25.25V6h2.75a.25.25 0 0 1 .25.25v2.5a.25.25 0 0 1-.25.25H12v2.75a.25.25 0 0 1-.25.25h-2.5a.25.25 0 0 1-.25-.25V9Z" fill="#fff"/></g></g><defs><clipPath id="a"><path fill="#fff" d="M0 0h21v15H0z"/></clipPath></defs></svg>