<svg width="21" height="15" fill="none" xmlns="http://www.w3.org/2000/svg"><g clip-path="url(#a)"><path d="M19.5.188h-18C.775.188.187.774.187 1.5v12c0 .725.588 1.313 1.313 1.313h18c.725 0 1.313-.588 1.313-1.313v-12c0-.725-.588-1.313-1.313-1.313Z" fill="#fff" stroke="#F5F5F5" stroke-width=".5"/><mask id="b" style="mask-type:alpha" maskUnits="userSpaceOnUse" x="-1" y="-1" width="23" height="17"><path d="M19.5.188h-18C.775.188.187.774.187 1.5v12c0 .725.588 1.313 1.313 1.313h18c.725 0 1.313-.588 1.313-1.313v-12c0-.725-.588-1.313-1.313-1.313Z" fill="#fff" stroke="#fff" stroke-width=".5"/></mask><g mask="url(#b)"><path fill-rule="evenodd" clip-rule="evenodd" d="M0 15h21V7H0v8Z" fill="#EA3B2E"/><path d="M7 0H0v7h7V0Z" fill="#0B48C2"/><path fill-rule="evenodd" clip-rule="evenodd" d="m3.504 4.28-1.176.838.434-1.377-1.16-.859 1.443-.013.459-1.369.458 1.369 1.444.013-1.16.859.433 1.377-1.175-.838Z" fill="#fff"/></g></g><defs><clipPath id="a"><path fill="#fff" d="M0 0h21v15H0z"/></clipPath></defs></svg>