<svg width="21" height="15" fill="none" xmlns="http://www.w3.org/2000/svg"><g clip-path="url(#a)"><path d="M19.5 0h-18A1.5 1.5 0 0 0 0 1.5v12A1.5 1.5 0 0 0 1.5 15h18a1.5 1.5 0 0 0 1.5-1.5v-12A1.5 1.5 0 0 0 19.5 0Z" fill="#fff"/><mask id="b" style="mask-type:alpha" maskUnits="userSpaceOnUse" x="0" y="0" width="21" height="15"><path d="M19.5 0h-18A1.5 1.5 0 0 0 0 1.5v12A1.5 1.5 0 0 0 1.5 15h18a1.5 1.5 0 0 0 1.5-1.5v-12A1.5 1.5 0 0 0 19.5 0Z" fill="#fff"/></mask><g mask="url(#b)"><g filter="url(#c)"><path fill-rule="evenodd" clip-rule="evenodd" d="M0 11h21V7H0v4Z" fill="#0748AE"/></g><g filter="url(#d)"><path fill-rule="evenodd" clip-rule="evenodd" d="M0 15h21v-4H0v4Z" fill="#DE2035"/></g><path fill-rule="evenodd" clip-rule="evenodd" d="M0 7h21V0H0v7Z" fill="#FFD935"/></g></g><defs><filter id="c" x="0" y="7" width="21" height="4" filterUnits="userSpaceOnUse" color-interpolation-filters="sRGB"><feFlood flood-opacity="0" result="BackgroundImageFix"/><feColorMatrix in="SourceAlpha" values="0 0 0 0 0 0 0 0 0 0 0 0 0 0 0 0 0 0 127 0" result="hardAlpha"/><feOffset/><feColorMatrix values="0 0 0 0 0 0 0 0 0 0 0 0 0 0 0 0 0 0 0.06 0"/><feBlend in2="BackgroundImageFix" result="effect1_dropShadow_7792_50005"/><feBlend in="SourceGraphic" in2="effect1_dropShadow_7792_50005" result="shape"/></filter><filter id="d" x="0" y="11" width="21" height="4" filterUnits="userSpaceOnUse" color-interpolation-filters="sRGB"><feFlood flood-opacity="0" result="BackgroundImageFix"/><feColorMatrix in="SourceAlpha" values="0 0 0 0 0 0 0 0 0 0 0 0 0 0 0 0 0 0 127 0" result="hardAlpha"/><feOffset/><feColorMatrix values="0 0 0 0 0 0 0 0 0 0 0 0 0 0 0 0 0 0 0.06 0"/><feBlend in2="BackgroundImageFix" result="effect1_dropShadow_7792_50005"/><feBlend in="SourceGraphic" in2="effect1_dropShadow_7792_50005" result="shape"/></filter><clipPath id="a"><path fill="#fff" d="M0 0h21v15H0z"/></clipPath></defs></svg>