<svg width="21" height="15" fill="none" xmlns="http://www.w3.org/2000/svg"><g clip-path="url(#a)"><path d="M19.5.188h-18C.775.188.187.774.187 1.5v12c0 .725.588 1.313 1.313 1.313h18c.725 0 1.313-.588 1.313-1.313v-12c0-.725-.588-1.313-1.313-1.313Z" fill="#fff" stroke="#F5F5F5" stroke-width=".5"/><mask id="b" style="mask-type:alpha" maskUnits="userSpaceOnUse" x="-1" y="-1" width="23" height="17"><path d="M19.5.188h-18C.775.188.187.774.187 1.5v12c0 .725.588 1.313 1.313 1.313h18c.725 0 1.313-.588 1.313-1.313v-12c0-.725-.588-1.313-1.313-1.313Z" fill="#fff" stroke="#fff" stroke-width=".5"/></mask><g mask="url(#b)"><path fill-rule="evenodd" clip-rule="evenodd" d="M15 2.502c.272-.136.549.177.38.43l-.33.494a.454.454 0 0 1-.126.126l-1.383.922a.496.496 0 0 0-.076.063l-.111.111a.5.5 0 0 0 0 .707l.292.293a.5.5 0 0 1 0 .707l-.391.392a.5.5 0 0 1-.577.094l-.23-.116a.5.5 0 0 0-.672.224l-.183.368a.5.5 0 0 1-.29.25l-1.226.41a.498.498 0 0 1-.158.025h-.61a.5.5 0 0 0-.447.276l-.138.277a.5.5 0 0 1-.671.223l-1.48-.74a.5.5 0 0 1-.13-.094l-.797-.796a.5.5 0 0 1-.146-.353v-.44c0-.195.158-.353.354-.353a.354.354 0 0 0 .25-.104l.75-.75a.5.5 0 0 1 .353-.146h.433a.5.5 0 0 0 .474-.342l.246-.74a.5.5 0 0 1 .573-.332l1.957.392a.5.5 0 0 0 .22-.006l1.837-.459a.5.5 0 0 0 .102-.038L14 3.002l1-.5Z" fill="#E7832C"/><path fill-rule="evenodd" clip-rule="evenodd" d="M10.5 12a.5.5 0 1 0 0-1 .5.5 0 0 0 0 1Z" fill="#445128"/><path opacity=".75" d="M12 11s1.5-.5 2-1.5M9 11s-1.5-.5-2-1.5" stroke="#445128" stroke-width="1.333" stroke-linecap="round"/></g></g><defs><clipPath id="a"><path fill="#fff" d="M0 0h21v15H0z"/></clipPath></defs></svg>