<svg width="21" height="15" fill="none" xmlns="http://www.w3.org/2000/svg"><g clip-path="url(#a)"><path d="M19.5.188h-18C.775.188.187.774.187 1.5v12c0 .725.588 1.313 1.313 1.313h18c.725 0 1.313-.588 1.313-1.313v-12c0-.725-.588-1.313-1.313-1.313Z" fill="#fff" stroke="#F5F5F5" stroke-width=".5"/><mask id="b" style="mask-type:alpha" maskUnits="userSpaceOnUse" x="-1" y="-1" width="23" height="17"><path d="M19.5.188h-18C.775.188.187.774.187 1.5v12c0 .725.588 1.313 1.313 1.313h18c.725 0 1.313-.588 1.313-1.313v-12c0-.725-.588-1.313-1.313-1.313Z" fill="#fff" stroke="#fff" stroke-width=".5"/></mask><g mask="url(#b)"><path fill-rule="evenodd" clip-rule="evenodd" d="M0 5h21V0H0v5Z" fill="#E41D33"/><path fill-rule="evenodd" clip-rule="evenodd" d="M0 15h21v-5H0v5Z" fill="#262626"/><path d="m9.276 7.112.214.426.229-.418.001-.001.004-.007.017-.03a3.886 3.886 0 0 1 .288-.429c.09-.118.189-.226.283-.303.1-.082.163-.1.188-.1.043 0 .113.023.211.101.094.076.19.183.277.299a3.387 3.387 0 0 1 .284.454l.004.006v.002l.224.447.224-.447.43-.862h.346a.25.25 0 0 1 .25.25v1.566a.25.25 0 0 1-.389.208l-.722-.482-.063-.042h-.826v.75a.25.25 0 1 1-.5 0v-.75h-.826l-.063.042-.722.482a.25.25 0 0 1-.389-.208V6.5a.25.25 0 0 1 .25-.25h.345l.431.862Z" fill="#F4B32E" fill-opacity=".25" stroke="#C6A846" stroke-width=".667"/></g></g><defs><clipPath id="a"><path fill="#fff" d="M0 0h21v15H0z"/></clipPath></defs></svg>