<svg width="21" height="15" fill="none" xmlns="http://www.w3.org/2000/svg"><g clip-path="url(#a)"><path d="M19.5 0h-18A1.5 1.5 0 0 0 0 1.5v12A1.5 1.5 0 0 0 1.5 15h18a1.5 1.5 0 0 0 1.5-1.5v-12A1.5 1.5 0 0 0 19.5 0Z" fill="#fff"/><mask id="b" style="mask-type:alpha" maskUnits="userSpaceOnUse" x="0" y="0" width="21" height="15"><path d="M19.5 0h-18A1.5 1.5 0 0 0 0 1.5v12A1.5 1.5 0 0 0 1.5 15h18a1.5 1.5 0 0 0 1.5-1.5v-12A1.5 1.5 0 0 0 19.5 0Z" fill="#fff"/></mask><g mask="url(#b)"><path fill-rule="evenodd" clip-rule="evenodd" d="M0 4h21V0H0v4ZM0 15h21v-4H0v4Z" fill="#DD172C"/><path fill-rule="evenodd" clip-rule="evenodd" d="M0 11h21V4H0v7Z" fill="#FFD133"/><path fill-rule="evenodd" clip-rule="evenodd" d="M5.5 7h1v.5h-1V7Z" fill="#FFEDB1"/><path d="M4.548 7.02a.25.25 0 0 1 .249-.27H6.21a.25.25 0 0 1 .25.27l-.13 1.542a.75.75 0 0 1-.747.688h-.16a.75.75 0 0 1-.747-.688l-.128-1.541Z" stroke="#A41517" stroke-width=".667"/><path fill-rule="evenodd" clip-rule="evenodd" d="M4.5 7.5h2V8H6l-.5 1L5 8h-.5v-.5Z" fill="#A41517"/><path d="M4 6.5a.5.5 0 0 0-1 0V9a.5.5 0 0 0 1 0V6.5ZM8 6.5a.5.5 0 0 0-1 0V9a.5.5 0 0 0 1 0V6.5ZM4.5 5.8a.8.8 0 0 1 .8-.8h.4a.8.8 0 0 1 .8.8.2.2 0 0 1-.2.2H4.7a.2.2 0 0 1-.2-.2Z" fill="#A41517"/></g></g><defs><clipPath id="a"><path fill="#fff" d="M0 0h21v15H0z"/></clipPath></defs></svg>