<svg width="21" height="15" fill="none" xmlns="http://www.w3.org/2000/svg"><g clip-path="url(#a)"><path d="M19.5 0h-18A1.5 1.5 0 0 0 0 1.5v12A1.5 1.5 0 0 0 1.5 15h18a1.5 1.5 0 0 0 1.5-1.5v-12A1.5 1.5 0 0 0 19.5 0Z" fill="#fff"/><mask id="b" style="mask-type:alpha" maskUnits="userSpaceOnUse" x="0" y="0" width="21" height="15"><path d="M19.5 0h-18A1.5 1.5 0 0 0 0 1.5v12A1.5 1.5 0 0 0 1.5 15h18a1.5 1.5 0 0 0 1.5-1.5v-12A1.5 1.5 0 0 0 19.5 0Z" fill="#fff"/></mask><g mask="url(#b)"><path d="M21 0H0v15h21V0Z" fill="#0A17A7"/><path fill-rule="evenodd" clip-rule="evenodd" d="m-.96-1.438 8.962 6.045V-1h5v5.607l8.962-6.045L23.082.222 15.997 5h5.005v5h-5.005l7.085 4.78-1.118 1.657-8.962-6.045V16h-5v-5.608L-.96 16.437l-1.118-1.658L5.007 10H.002V5h5.005L-2.078.222-.96-1.438Z" fill="#fff"/><path d="m14.008 4.75 9.499-6.25M15.016 10.273l8.515 5.74M6.007 4.736-2.875-1.25M6.97 10.203l-9.845 6.53" stroke="#DB1F35" stroke-width=".667" stroke-linecap="round"/><path fill-rule="evenodd" clip-rule="evenodd" d="M0 9h9v6h3V9h9V6h-9V0H9v6H0v3Z" fill="#E6273E"/></g></g><defs><clipPath id="a"><path fill="#fff" d="M0 0h21v15H0z"/></clipPath></defs></svg>