<svg width="21" height="15" fill="none" xmlns="http://www.w3.org/2000/svg"><g clip-path="url(#a)"><path d="M19.5 0h-18A1.5 1.5 0 0 0 0 1.5v12A1.5 1.5 0 0 0 1.5 15h18a1.5 1.5 0 0 0 1.5-1.5v-12A1.5 1.5 0 0 0 19.5 0Z" fill="#fff"/><mask id="b" style="mask-type:alpha" maskUnits="userSpaceOnUse" x="0" y="0" width="21" height="15"><path d="M19.5 0h-18A1.5 1.5 0 0 0 0 1.5v12A1.5 1.5 0 0 0 1.5 15h18a1.5 1.5 0 0 0 1.5-1.5v-12A1.5 1.5 0 0 0 19.5 0Z" fill="#fff"/></mask><g mask="url(#b)" fill-rule="evenodd" clip-rule="evenodd"><path d="M0 15h21V0H0v15Z" fill="#F0371D"/><path d="M10.491 6.112c.722-.604.766-.74.94-1.272.057-.177.016-.323-.032-.496-.07-.248-.154-.552.02-1.085-.789-.256-1.704.388-2.045 1.439-.342 1.05.02 2.11.808 2.365.141.046.125.013.083-.077-.075-.157-.234-.489.226-.874ZM8.996 7.216c-.352-.873-.467-.957-.92-1.286-.151-.11-.303-.116-.481-.124-.258-.01-.573-.024-1.026-.353-.487.67-.158 1.74.736 2.389.894.65 2.013.632 2.5-.038.087-.12.05-.115-.048-.102-.173.023-.537.07-.761-.486Zm4.507.477c-.56 0-.702 0-1.5-.5-.508-.318-.775-.065-.901.055-.072.069-.099.094-.099-.054 0-.829.896-1.5 2-1.5 1.105 0 2 .671 2 1.5-.56 0-.823.174-1.038.317-.149.099-.275.182-.462.182Zm0-.94a.25.25 0 1 1-.5 0 .25.25 0 0 1 .5 0Zm-2.06 2.213c-.23.913-.186 1.048-.013 1.58.058.178.177.273.317.384.202.16.45.356.622.889.788-.256 1.15-1.315.809-2.366-.342-1.05-1.257-1.694-2.045-1.438-.14.045-.109.063-.021.11.153.084.476.259.33.84Zm.882 1.29a.25.25 0 1 1-.155-.475.25.25 0 0 1 .155.475ZM9.584 8.98c-.94.064-1.055.148-1.508.477-.151.11-.204.252-.266.42-.09.241-.2.537-.653.866.486.67 1.606.687 2.5.038.893-.65 1.223-1.719.736-2.39-.088-.119-.094-.083-.112.015-.032.171-.099.533-.697.574Zm-.955 1.238a.25.25 0 1 1 .404-.294.25.25 0 0 1-.404.294ZM7.523 6.69a.25.25 0 1 1 .405.294.25.25 0 0 1-.405-.294Zm3.013-2.141a.25.25 0 1 1-.155.475.25.25 0 0 1 .155-.475Z" fill="#fff"/></g></g><defs><clipPath id="a"><path fill="#fff" d="M0 0h21v15H0z"/></clipPath></defs></svg>