<svg width="21" height="15" fill="none" xmlns="http://www.w3.org/2000/svg"><g clip-path="url(#a)"><path d="M19.5.188h-18C.775.188.187.774.187 1.5v12c0 .725.588 1.313 1.313 1.313h18c.725 0 1.313-.588 1.313-1.313v-12c0-.725-.588-1.313-1.313-1.313Z" fill="#fff" stroke="#F5F5F5" stroke-width=".5"/><mask id="b" style="mask-type:alpha" maskUnits="userSpaceOnUse" x="-1" y="-1" width="23" height="17"><path d="M19.5.188h-18C.775.188.187.774.187 1.5v12c0 .725.588 1.313 1.313 1.313h18c.725 0 1.313-.588 1.313-1.313v-12c0-.725-.588-1.313-1.313-1.313Z" fill="#fff" stroke="#fff" stroke-width=".5"/></mask><g mask="url(#b)"><path fill-rule="evenodd" clip-rule="evenodd" d="M0 3h21V0H0v3ZM0 15h21v-3H0v3Z" fill="#0E46D4"/><path d="m7.784 8.878-.206.371h5.85l-.207-.371-2.5-4.5-.218-.394-.219.394-2.5 4.5Z" stroke="#093EC5" stroke-width=".667"/><path d="m7.784 6.121-.206-.371h5.85l-.207.371-2.5 4.5-.218.394-.219-.394-2.5-4.5Z" stroke="#093EC5" stroke-width=".667"/></g></g><defs><clipPath id="a"><path fill="#fff" d="M0 0h21v15H0z"/></clipPath></defs></svg>