<svg width="21" height="15" fill="none" xmlns="http://www.w3.org/2000/svg"><g clip-path="url(#a)"><path d="M19.5 0h-18A1.5 1.5 0 0 0 0 1.5v12A1.5 1.5 0 0 0 1.5 15h18a1.5 1.5 0 0 0 1.5-1.5v-12A1.5 1.5 0 0 0 19.5 0Z" fill="#fff"/><mask id="b" style="mask-type:alpha" maskUnits="userSpaceOnUse" x="0" y="0" width="21" height="15"><path d="M19.5 0h-18A1.5 1.5 0 0 0 0 1.5v12A1.5 1.5 0 0 0 1.5 15h18a1.5 1.5 0 0 0 1.5-1.5v-12A1.5 1.5 0 0 0 19.5 0Z" fill="#fff"/></mask><g mask="url(#b)"><path d="M21 0H0v15h21V0Z" fill="#1DBE4F"/><path fill-rule="evenodd" clip-rule="evenodd" d="m0 0 9 7.5L0 15V0ZM21 0l-9 7.5 9 7.5V0Z" fill="#262626"/><path fill-rule="evenodd" clip-rule="evenodd" d="M10.502 6.294-.96-1.437-2.078.22 8.714 7.5l-10.792 7.28 1.118 1.657 11.462-7.731 11.462 7.731 1.118-1.658L12.29 7.5 23.082.222l-1.118-1.659-11.462 7.732Z" fill="#FFD646"/></g></g><defs><clipPath id="a"><path fill="#fff" d="M0 0h21v15H0z"/></clipPath></defs></svg>