<svg width="21" height="15" fill="none" xmlns="http://www.w3.org/2000/svg"><g clip-path="url(#a)"><path d="M19.5.188h-18C.775.188.187.774.187 1.5v12c0 .725.588 1.313 1.313 1.313h18c.725 0 1.313-.588 1.313-1.313v-12c0-.725-.588-1.313-1.313-1.313Z" fill="#fff" stroke="#F5F5F5" stroke-width=".5"/><mask id="b" style="mask-type:alpha" maskUnits="userSpaceOnUse" x="-1" y="-1" width="23" height="17"><path d="M19.5.188h-18C.775.188.187.774.187 1.5v12c0 .725.588 1.313 1.313 1.313h18c.725 0 1.313-.588 1.313-1.313v-12c0-.725-.588-1.313-1.313-1.313Z" fill="#fff" stroke="#fff" stroke-width=".5"/></mask><g mask="url(#b)" fill-rule="evenodd" clip-rule="evenodd"><path d="M0 15h21v-5H0v5Z" fill="#199E56"/><path d="M0 5h21V0H0v5Z" fill="#262626"/><path d="m0 0 10 7.5L0 15V0Z" fill="#E6223A"/><path d="m3.501 8.25-.65.601.064-.883-.876-.134.731-.5-.441-.77.847.26L3.501 6l.326.824.847-.26-.441.77.73.5-.875.134.064.883-.65-.601Z" fill="#fff"/></g></g><defs><clipPath id="a"><path fill="#fff" d="M0 0h21v15H0z"/></clipPath></defs></svg>