<svg width="21" height="15" fill="none" xmlns="http://www.w3.org/2000/svg"><g clip-path="url(#a)"><path d="M19.5.188h-18C.775.188.187.774.187 1.5v12c0 .725.588 1.313 1.313 1.313h18c.725 0 1.313-.588 1.313-1.313v-12c0-.725-.588-1.313-1.313-1.313Z" fill="#fff" stroke="#F5F5F5" stroke-width=".5"/><mask id="b" style="mask-type:alpha" maskUnits="userSpaceOnUse" x="-1" y="-1" width="23" height="17"><path d="M19.5.188h-18C.775.188.187.774.187 1.5v12c0 .725.588 1.313 1.313 1.313h18c.725 0 1.313-.588 1.313-1.313v-12c0-.725-.588-1.313-1.313-1.313Z" fill="#fff" stroke="#fff" stroke-width=".5"/></mask><g mask="url(#b)"><path fill-rule="evenodd" clip-rule="evenodd" d="M10.5 12a4.5 4.5 0 1 0 0-9 4.5 4.5 0 0 0 0 9Z" fill="url(#c)"/></g></g><defs><linearGradient id="c" x1="6" y1="3" x2="6" y2="12" gradientUnits="userSpaceOnUse"><stop stop-color="#D81441"/><stop offset="1" stop-color="#BB0831"/></linearGradient><clipPath id="a"><path fill="#fff" d="M0 0h21v15H0z"/></clipPath></defs></svg>