<svg width="21" height="15" fill="none" xmlns="http://www.w3.org/2000/svg"><g clip-path="url(#a)"><path d="M19.5.188h-18C.775.188.187.774.187 1.5v12c0 .725.588 1.313 1.313 1.313h18c.725 0 1.313-.588 1.313-1.313v-12c0-.725-.588-1.313-1.313-1.313Z" fill="#fff" stroke="#F5F5F5" stroke-width=".5"/><mask id="b" style="mask-type:alpha" maskUnits="userSpaceOnUse" x="-1" y="-1" width="23" height="17"><path d="M19.5.188h-18C.775.188.187.774.187 1.5v12c0 .725.588 1.313 1.313 1.313h18c.725 0 1.313-.588 1.313-1.313v-12c0-.725-.588-1.313-1.313-1.313Z" fill="#fff" stroke="#fff" stroke-width=".5"/></mask><g mask="url(#b)"><path fill-rule="evenodd" clip-rule="evenodd" d="M10.5 11a3.5 3.5 0 1 0 0-7 3.5 3.5 0 0 0 0 7Z" fill="#E01B41"/><mask id="c" style="mask-type:alpha" maskUnits="userSpaceOnUse" x="7" y="4" width="7" height="7"><path fill-rule="evenodd" clip-rule="evenodd" d="M10.5 11a3.5 3.5 0 1 0 0-7 3.5 3.5 0 0 0 0 7Z" fill="#fff"/></mask><g mask="url(#c)"><path fill-rule="evenodd" clip-rule="evenodd" d="M7 8c1 .937 2.5 1.5 3.5 0s3-1.5 3.5 0 0 3 0 3H7S6 7.063 7 8Z" fill="#0E4B9C"/></g><path opacity=".75" fill-rule="evenodd" clip-rule="evenodd" d="M4.627 2.664a.25.25 0 0 1 .342-.091l.433.25a.25.25 0 0 1 .091.341L4.243 5.33a.25.25 0 0 1-.341.092l-.433-.25a.25.25 0 0 1-.092-.342l1.25-2.165Zm10.966.159a.25.25 0 0 0-.091.341l1.25 2.165a.25.25 0 0 0 .341.092l.433-.25a.25.25 0 0 0 .092-.342l-1.25-2.165a.25.25 0 0 0-.342-.091l-.433.25Zm-1.299.75a.25.25 0 0 0-.091.341l1.25 2.165a.25.25 0 0 0 .341.092l.433-.25a.25.25 0 0 0 .092-.342l-1.25-2.165a.25.25 0 0 0-.342-.091l-.433.25ZM3.377 10.164a.25.25 0 0 1 .092-.341l.433-.25a.25.25 0 0 1 .341.091l1.25 2.165a.25.25 0 0 1-.091.342l-.433.25a.25.25 0 0 1-.342-.092l-1.25-2.165Zm1.39-1.091a.25.25 0 0 0-.09.341l1.25 2.165a.25.25 0 0 0 .34.092l.434-.25a.25.25 0 0 0 .091-.342l-1.25-2.165a.25.25 0 0 0-.341-.091l-.433.25Zm10.686-.159a.25.25 0 0 1 .341-.091l.433.25a.25.25 0 0 1 .092.341l-1.25 2.165a.25.25 0 0 1-.342.092l-.433-.25a.25.25 0 0 1-.091-.342l1.25-2.165Zm1.64.659a.25.25 0 0 0-.341.091l-1.25 2.165a.25.25 0 0 0 .091.342l.433.25a.25.25 0 0 0 .342-.092l1.25-2.165a.25.25 0 0 0-.092-.341l-.433-.25ZM6.268 3.323a.25.25 0 0 0-.342.091L4.676 5.58a.25.25 0 0 0 .092.342l.433.25a.25.25 0 0 0 .341-.092l1.25-2.165a.25.25 0 0 0-.091-.341l-.433-.25Z" fill="#262626"/></g></g><defs><clipPath id="a"><path fill="#fff" d="M0 0h21v15H0z"/></clipPath></defs></svg>