<svg width="21" height="15" fill="none" xmlns="http://www.w3.org/2000/svg"><g clip-path="url(#a)"><path d="M19.5 0h-18A1.5 1.5 0 0 0 0 1.5v12A1.5 1.5 0 0 0 1.5 15h18a1.5 1.5 0 0 0 1.5-1.5v-12A1.5 1.5 0 0 0 19.5 0Z" fill="#fff"/><mask id="b" style="mask-type:alpha" maskUnits="userSpaceOnUse" x="0" y="0" width="21" height="15"><path d="M19.5 0h-18A1.5 1.5 0 0 0 0 1.5v12A1.5 1.5 0 0 0 1.5 15h18a1.5 1.5 0 0 0 1.5-1.5v-12A1.5 1.5 0 0 0 19.5 0Z" fill="#fff"/></mask><g mask="url(#b)"><path d="M21 0H0v15h21V0Z" fill="#E6BE53"/><path fill-rule="evenodd" clip-rule="evenodd" d="M1 13.25c0 .414.336.75.75.75h17.5a.75.75 0 0 0 .75-.75V1.75a.75.75 0 0 0-.75-.75H1.75a.75.75 0 0 0-.75.75v11.5Z" fill="#E01826"/><path fill-rule="evenodd" clip-rule="evenodd" d="M9.767 2.74a.5.5 0 0 0-.195.828l.282.282a.5.5 0 0 0 .353.146h.586a.5.5 0 0 0 .353-.146l.282-.282a.5.5 0 0 0-.196-.827l-.574-.192a.5.5 0 0 0-.316 0l-.575.192Zm1.087 2.403a.5.5 0 0 1-.707 0L10 4.996l-.745-.745a.5.5 0 0 0-.577-.093l-.058.028a.5.5 0 0 0-.13.8l.01.01.745.746a.5.5 0 0 1 .094.577l-.31.62A.27.27 0 0 0 9 7.06c0 .2-.211.33-.39.241l-.242-.12a.296.296 0 0 1-.077-.475.296.296 0 0 0 0-.419l-.234-.233a.5.5 0 0 1-.093-.13l-.44-.879a.502.502 0 0 1-.037-.102l-.232-.927a.5.5 0 0 0-.885-.18L5.6 4.864a.5.5 0 0 0-.1.3v1.715a.5.5 0 0 0 .053.224l.41.822a.5.5 0 0 0 .094.13l.886.885a.5.5 0 0 0 .13.094l.88.44a.224.224 0 0 0 .1.023c.236 0 .31.319.1.424l-.116.058a.257.257 0 0 0-.066.047l-.221.221a.353.353 0 0 1-.5 0 .354.354 0 0 0-.5 0l-.04.04a.411.411 0 0 0-.078.475l.23.459a.5.5 0 0 0 .447.276h.573a.5.5 0 0 0 .224-.052l.745-.373a.5.5 0 0 0 .224-.224l.226-.453a.32.32 0 1 1 .553.32l-.577.866a.5.5 0 0 0 .139.694l.807.538a.5.5 0 0 0 .554 0l.807-.538a.5.5 0 0 0 .139-.694l-.577-.865a.32.32 0 1 1 .553-.321l.226.453a.5.5 0 0 0 .224.224l.745.373a.5.5 0 0 0 .224.052h.573a.5.5 0 0 0 .447-.276l.23-.459a.411.411 0 0 0-.077-.474l-.041-.04a.354.354 0 0 0-.5 0 .354.354 0 0 1-.5 0l-.22-.222a.26.26 0 0 0-.067-.047l-.116-.058c-.21-.105-.136-.424.1-.424a.224.224 0 0 0 .1-.023l.88-.44a.498.498 0 0 0 .13-.094l.886-.885a.502.502 0 0 0 .093-.13l.411-.822a.5.5 0 0 0 .053-.224V5.163a.5.5 0 0 0-.1-.3l-.77-1.026a.5.5 0 0 0-.885.179l-.232.927a.503.503 0 0 1-.037.102l-.44.879a.502.502 0 0 1-.093.13l-.234.233a.296.296 0 0 0 0 .419.296.296 0 0 1-.076.474l-.243.121a.27.27 0 0 1-.39-.24.269.269 0 0 0-.028-.122l-.31-.62a.5.5 0 0 1 .093-.577l.745-.746.01-.01a.5.5 0 0 0-.13-.8l-.058-.028a.5.5 0 0 0-.577.093L11 4.996l-.146.147Z" fill="#E6BE53"/><path fill-rule="evenodd" clip-rule="evenodd" d="M9.5 8.5c0 .184.31.245.4.085.174-.313.387-.585.6-.585.213 0 .426.272.6.585.09.16.4.1.4-.085 0-.828-.448-1.5-1-1.5s-1 .672-1 1.5Z" fill="#215F90"/></g></g><defs><clipPath id="a"><path fill="#fff" d="M0 0h21v15H0z"/></clipPath></defs></svg>