<svg width="21" height="15" fill="none" xmlns="http://www.w3.org/2000/svg"><g clip-path="url(#a)"><path d="M19.5 0h-18A1.5 1.5 0 0 0 0 1.5v12A1.5 1.5 0 0 0 1.5 15h18a1.5 1.5 0 0 0 1.5-1.5v-12A1.5 1.5 0 0 0 19.5 0Z" fill="#fff"/><mask id="b" style="mask-type:alpha" maskUnits="userSpaceOnUse" x="0" y="0" width="21" height="15"><path d="M19.5 0h-18A1.5 1.5 0 0 0 0 1.5v12A1.5 1.5 0 0 0 1.5 15h18a1.5 1.5 0 0 0 1.5-1.5v-12A1.5 1.5 0 0 0 19.5 0Z" fill="#fff"/></mask><g mask="url(#b)"><path d="M21 0H0v15h21V0Z" fill="#E81B26"/><path fill-rule="evenodd" clip-rule="evenodd" d="M10.5 10a2.5 2.5 0 1 0 0-5 2.5 2.5 0 0 0 0 5ZM7.653 5.459a3.52 3.52 0 0 1 .518-.574L1.468-2.648-.539-.42l8.192 5.878Zm.518 4.655a3.517 3.517 0 0 1-.518-.574l-8.192 5.878 2.007 2.23 6.703-7.534Zm1.64.818L8.997 15h3l-.813-4.067a3.513 3.513 0 0 1-1.373 0Zm3.53-1.392c-.151.21-.325.403-.517.574l6.702 7.534 2.007-2.23-8.192-5.878Zm-6.31-1.545a3.53 3.53 0 0 1 0-.99L-.002 6v3l7.035-1.005Zm2.78-3.928L8.997 0h3l-.813 4.067a3.517 3.517 0 0 0-1.373 0Zm4.151 2.938a3.545 3.545 0 0 1 0 .99L20.997 9V6l-7.035 1.005Zm-.621-1.546a3.52 3.52 0 0 0-.517-.574l6.702-7.533L21.533-.42l-8.192 5.878Z" fill="#FFE94F"/></g></g><defs><clipPath id="a"><path fill="#fff" d="M0 0h21v15H0z"/></clipPath></defs></svg>