<svg width="21" height="15" fill="none" xmlns="http://www.w3.org/2000/svg"><g clip-path="url(#a)"><path d="M19.5.188h-18C.775.188.187.774.187 1.5v12c0 .725.588 1.313 1.313 1.313h18c.725 0 1.313-.588 1.313-1.313v-12c0-.725-.588-1.313-1.313-1.313Z" fill="#fff" stroke="#F5F5F5" stroke-width=".5"/><mask id="b" style="mask-type:alpha" maskUnits="userSpaceOnUse" x="-1" y="-1" width="23" height="17"><path d="M19.5.188h-18C.775.188.187.774.187 1.5v12c0 .725.588 1.313 1.313 1.313h18c.725 0 1.313-.588 1.313-1.313v-12c0-.725-.588-1.313-1.313-1.313Z" fill="#fff" stroke="#fff" stroke-width=".5"/></mask><g mask="url(#b)"><path fill-rule="evenodd" clip-rule="evenodd" d="M11 15h10V0H11v15Z" fill="#DE233C"/><path fill-rule="evenodd" clip-rule="evenodd" d="M4 2H3v1H2v1h1v1h1V4h1V3H4V2Z" fill="#CCCCCD"/><mask id="c" style="mask-type:luminance" maskUnits="userSpaceOnUse" x="1" y="1" width="5" height="5"><path d="M5.75 1.25h-4.5v4.5h4.5v-4.5Z" fill="#fff"/><path fill-rule="evenodd" clip-rule="evenodd" d="M4 2H3v1H2v1h1v1h1V4h1V3H4V2Z" fill="#000"/></mask><g mask="url(#c)"><path d="M3 2v-.5h-.5V2H3Zm1 0h.5v-.5H4V2ZM3 3v.5h.5V3H3ZM2 3v-.5h-.5V3H2Zm0 1h-.5v.5H2V4Zm1 0h.5v-.5H3V4Zm0 1h-.5v.5H3V5Zm1 0v.5h.5V5H4Zm0-1v-.5h-.5V4H4Zm1 0v.5h.5V4H5Zm0-1h.5v-.5H5V3ZM4 3h-.5v.5H4V3Zm-1-.5h1v-1H3v1Zm.5.5V2h-1v1h1ZM2 3.5h1v-1H2v1Zm.5.5V3h-1v1h1Zm.5-.5H2v1h1v-1ZM3.5 5V4h-1v1h1Zm.5-.5H3v1h1v-1ZM3.5 4v1h1V4h-1ZM5 3.5H4v1h1v-1ZM4.5 3v1h1V3h-1Zm-.5.5h1v-1H4v1ZM3.5 2v1h1V2h-1Z" fill="#7B716A" fill-opacity=".66"/></g><path fill-rule="evenodd" clip-rule="evenodd" d="M3.5 4a.5.5 0 1 0 0-1 .5.5 0 0 0 0 1Z" fill="#7B716A"/></g></g><defs><clipPath id="a"><path fill="#fff" d="M0 0h21v15H0z"/></clipPath></defs></svg>