<svg width="21" height="15" fill="none" xmlns="http://www.w3.org/2000/svg"><g clip-path="url(#a)"><path d="M19.5.188h-18C.775.188.187.774.187 1.5v12c0 .725.588 1.313 1.313 1.313h18c.725 0 1.313-.588 1.313-1.313v-12c0-.725-.588-1.313-1.313-1.313Z" fill="#fff" stroke="#F5F5F5" stroke-width=".5"/><mask id="b" style="mask-type:alpha" maskUnits="userSpaceOnUse" x="-1" y="-1" width="23" height="17"><path d="M19.5.188h-18C.775.188.187.774.187 1.5v12c0 .725.588 1.313 1.313 1.313h18c.725 0 1.313-.588 1.313-1.313v-12c0-.725-.588-1.313-1.313-1.313Z" fill="#fff" stroke="#fff" stroke-width=".5"/></mask><g mask="url(#b)"><path d="M21 0h-7v15h7V0Z" fill="#E3283E"/><path fill-rule="evenodd" clip-rule="evenodd" d="M0 15h7V0H0v15Z" fill="#128A60"/><path d="M9 7a.5.5 0 0 0-1 0h1Zm.247 2.164a.5.5 0 1 0 .502-.865l-.502.865Zm2.06-.9a.5.5 0 0 0 .538.843l-.538-.842ZM13 7a.5.5 0 0 0-1 0h1ZM8 7a2.5 2.5 0 0 0 1.247 2.164l.502-.865A1.5 1.5 0 0 1 9 7H8Zm3.845 2.107A2.498 2.498 0 0 0 13 7h-1c0 .53-.275.998-.693 1.265l.538.842Z" fill="#8C9157"/><path fill-rule="evenodd" clip-rule="evenodd" d="M10.5 8c.552 0 1-.672 1-1.5s-.448-1.5-1-1.5-1 .672-1 1.5.448 1.5 1 1.5Z" fill="#C59262"/></g></g><defs><clipPath id="a"><path fill="#fff" d="M0 0h21v15H0z"/></clipPath></defs></svg>