<svg width="21" height="15" fill="none" xmlns="http://www.w3.org/2000/svg"><g clip-path="url(#a)"><path d="M19.5 0h-18A1.5 1.5 0 0 0 0 1.5v12A1.5 1.5 0 0 0 1.5 15h18a1.5 1.5 0 0 0 1.5-1.5v-12A1.5 1.5 0 0 0 19.5 0Z" fill="#fff"/><mask id="b" style="mask-type:alpha" maskUnits="userSpaceOnUse" x="0" y="0" width="21" height="15"><path d="M19.5 0h-18A1.5 1.5 0 0 0 0 1.5v12A1.5 1.5 0 0 0 1.5 15h18a1.5 1.5 0 0 0 1.5-1.5v-12A1.5 1.5 0 0 0 19.5 0Z" fill="#fff"/></mask><g mask="url(#b)"><path fill-rule="evenodd" clip-rule="evenodd" d="M21 0H10v1h11V0Zm0 2H10v1h11V2ZM10 4h11v1H10V4Zm11 2H10v1h11V6ZM0 8h21v1H0V8Zm21 2H0v1h21v-1ZM0 12h21v1H0v-1Zm21 2H0v1h21v-1Z" fill="#E1244A"/><path d="M12 0H0v8h12V0Z" fill="#0C3F8E"/><path fill-rule="evenodd" clip-rule="evenodd" d="M5 7c.709 0 1.36-.246 1.874-.657a2.5 2.5 0 1 1 0-4.686A3 3 0 1 0 5 7Zm2.132-1.198L8 4.82l.868.982-.227-1.29 1.309-.067-1.15-.627.764-1.065-1.208.508L8 2l-.356 1.261-1.208-.508.765 1.065-1.15.627 1.308.066-.227 1.29Z" fill="#FFD34F"/></g></g><defs><clipPath id="a"><path fill="#fff" d="M0 0h21v15H0z"/></clipPath></defs></svg>