<svg width="21" height="15" fill="none" xmlns="http://www.w3.org/2000/svg"><g clip-path="url(#a)"><path d="M19.5.188h-18C.775.188.187.774.187 1.5v12c0 .725.588 1.313 1.313 1.313h18c.725 0 1.313-.588 1.313-1.313v-12c0-.725-.588-1.313-1.313-1.313Z" fill="#fff" stroke="#F5F5F5" stroke-width=".5"/><mask id="b" style="mask-type:alpha" maskUnits="userSpaceOnUse" x="-1" y="-1" width="22" height="16"><path d="M19.313 0h-18C.588 0 0 .588 0 1.313v12c0 .724.588 1.312 1.313 1.312h18c.724 0 1.312-.588 1.312-1.313v-12C20.625.589 20.037 0 19.312 0Z" fill="#fff" stroke="#fff" stroke-width=".5"/></mask><g mask="url(#b)" fill-rule="evenodd" clip-rule="evenodd"><path d="M5.813-.188h-6v6h6v-6Zm3 0v6h12v-6h-12Zm12 9h-12v6h12v-6Zm-15 6v-6h-6v6h6Z" fill="#F14247"/><path d="M-.188 7.813h7v7h1v-7h13v-1h-13v-7h-1v7h-7v1Z" fill="#0A3A85"/></g></g><defs><clipPath id="a"><path fill="#fff" d="M0 0h21v15H0z"/></clipPath></defs></svg>