<svg width="21" height="15" fill="none" xmlns="http://www.w3.org/2000/svg"><g clip-path="url(#a)"><path d="M19.5.188h-18C.775.188.187.774.187 1.5v12c0 .725.588 1.313 1.313 1.313h18c.725 0 1.313-.588 1.313-1.313v-12c0-.725-.588-1.313-1.313-1.313Z" fill="#fff" stroke="#F5F5F5" stroke-width=".5"/><mask id="b" style="mask-type:alpha" maskUnits="userSpaceOnUse" x="-1" y="-1" width="22" height="16"><path d="M19.313 0h-18C.588 0 0 .588 0 1.313v12c0 .724.588 1.312 1.313 1.312h18c.724 0 1.312-.588 1.312-1.313v-12C20.625.589 20.037 0 19.312 0Z" fill="#fff" stroke="#fff" stroke-width=".5"/></mask><g mask="url(#b)" fill-rule="evenodd" clip-rule="evenodd"><path d="M20.813 6.813h-11v-7h11v7Z" fill="#E52448"/><path d="M9.812 14.813h-10v-8h10v8ZM4.816 4.133l-1.175.798.395-1.365-1.122-.872 1.42-.045.482-1.337.482 1.337 1.42.045-1.122.872.396 1.365-1.176-.798Z" fill="#1367AE"/><path d="m15.316 11.633-1.175.798.395-1.365-1.122-.872 1.42-.045.482-1.336.482 1.336 1.42.045-1.122.872.396 1.364-1.176-.797Z" fill="#E52448"/></g></g><defs><clipPath id="a"><path fill="#fff" d="M0 0h21v15H0z"/></clipPath></defs></svg>