<svg width="21" height="15" fill="none" xmlns="http://www.w3.org/2000/svg"><g clip-path="url(#a)"><path d="M19.5.188h-18C.775.188.187.774.187 1.5v12c0 .725.588 1.313 1.313 1.313h18c.725 0 1.313-.588 1.313-1.313v-12c0-.725-.588-1.313-1.313-1.313Z" fill="#fff" stroke="#F5F5F5" stroke-width=".5"/><mask id="b" style="mask-type:alpha" maskUnits="userSpaceOnUse" x="-1" y="-1" width="23" height="17"><path d="M19.5.188h-18C.775.188.187.774.187 1.5v12c0 .725.588 1.313 1.313 1.313h18c.725 0 1.313-.588 1.313-1.313v-12c0-.725-.588-1.313-1.313-1.313Z" fill="#fff" stroke="#fff" stroke-width=".5"/></mask><g mask="url(#b)" fill-rule="evenodd" clip-rule="evenodd"><path d="M0 15h21V7H9.333l.667.5L0 15Z" fill="#DD1C34"/><path d="M21 7H9.333L0 0h21v7Z" fill="#0D4BC3"/><path d="M1.5 3a.5.5 0 1 0 0-1 .5.5 0 0 0 0 1Zm6 5a.5.5 0 1 0 0-1 .5.5 0 0 0 0 1ZM2 12.5a.5.5 0 1 1-1 0 .5.5 0 0 1 1 0Zm1.4-4.005L2.542 9.81l.325-1.535c-.052-.043-.1-.09-.143-.143l-1.535.325L2.505 7.6a1.013 1.013 0 0 1 0-.202L1.19 6.543l1.535.325c.043-.052.09-.1.143-.143L2.543 5.19 3.4 6.505a1.011 1.011 0 0 1 .202 0l.856-1.315-.325 1.535c.052.043.1.09.143.143l1.535-.325-1.315.856a1.01 1.01 0 0 1 0 .202l1.315.856-1.535-.325c-.043.052-.09.1-.143.143l.325 1.535L3.6 8.495a.996.996 0 0 1-.202 0Z" fill="#FDD64D"/></g></g><defs><clipPath id="a"><path fill="#fff" d="M0 0h21v15H0z"/></clipPath></defs></svg>