<svg width="21" height="15" fill="none" xmlns="http://www.w3.org/2000/svg"><g clip-path="url(#a)"><path d="M19.5.188h-18C.775.188.187.774.187 1.5v12c0 .725.588 1.313 1.313 1.313h18c.725 0 1.313-.588 1.313-1.313v-12c0-.725-.588-1.313-1.313-1.313Z" fill="#fff" stroke="#F5F5F5" stroke-width=".5"/><mask id="b" style="mask-type:alpha" maskUnits="userSpaceOnUse" x="-1" y="-1" width="23" height="17"><path d="M19.5.188h-18C.775.188.187.774.187 1.5v12c0 .725.588 1.313 1.313 1.313h18c.725 0 1.313-.588 1.313-1.313v-12c0-.725-.588-1.313-1.313-1.313Z" fill="#fff" stroke="#fff" stroke-width=".5"/></mask><g mask="url(#b)"><path fill-rule="evenodd" clip-rule="evenodd" d="M0 0h21v3H0V0Zm0 6h21v3H0V6Zm0 6v3h21v-3H0Z" fill="#FA2222"/><path fill-rule="evenodd" clip-rule="evenodd" d="m0 0 10 7.5L0 15V0Z" fill="#1D63F9"/><g filter="url(#c)"><path fill-rule="evenodd" clip-rule="evenodd" d="m3.503 8.456-1.47 1.067.56-1.728-1.468-1.068h1.816L3.503 5l.561 1.727H5.88L4.411 7.795l.561 1.728-1.47-1.067Z" fill="url(#d)"/></g></g></g><defs><linearGradient id="d" x1="1.003" y1="5" x2="1.003" y2="10" gradientUnits="userSpaceOnUse"><stop stop-color="#fff"/><stop offset="1" stop-color="#F0F0F0"/></linearGradient><clipPath id="a"><path fill="#fff" d="M0 0h21v15H0z"/></clipPath><filter id="c" x="1.125" y="5" width="4.758" height="5.523" filterUnits="userSpaceOnUse" color-interpolation-filters="sRGB"><feFlood flood-opacity="0" result="BackgroundImageFix"/><feColorMatrix in="SourceAlpha" values="0 0 0 0 0 0 0 0 0 0 0 0 0 0 0 0 0 0 127 0" result="hardAlpha"/><feOffset dy="1"/><feColorMatrix values="0 0 0 0 0 0 0 0 0 0 0 0 0 0 0 0 0 0 0.06 0"/><feBlend in2="BackgroundImageFix" result="effect1_dropShadow_7792_50417"/><feBlend in="SourceGraphic" in2="effect1_dropShadow_7792_50417" result="shape"/></filter></defs></svg>