<svg width="21" height="15" fill="none" xmlns="http://www.w3.org/2000/svg"><g clip-path="url(#a)"><path d="M19.5 0h-18A1.5 1.5 0 0 0 0 1.5v12A1.5 1.5 0 0 0 1.5 15h18a1.5 1.5 0 0 0 1.5-1.5v-12A1.5 1.5 0 0 0 19.5 0Z" fill="#fff"/><mask id="b" style="mask-type:alpha" maskUnits="userSpaceOnUse" x="0" y="0" width="21" height="15"><path d="M19.5 0h-18A1.5 1.5 0 0 0 0 1.5v12A1.5 1.5 0 0 0 1.5 15h18a1.5 1.5 0 0 0 1.5-1.5v-12A1.5 1.5 0 0 0 19.5 0Z" fill="#fff"/></mask><g mask="url(#b)"><path d="M21 0H0v15h21V0Z" fill="#FF2936"/><path fill-rule="evenodd" clip-rule="evenodd" d="M0 15h8V0H0v15Z" fill="#128415"/><path d="M8 10a2.5 2.5 0 1 0 0-5 2.5 2.5 0 0 0 0 5Z" stroke="#FAF94F" stroke-width="1.333"/><path fill-rule="evenodd" clip-rule="evenodd" d="M7 6.25A.25.25 0 0 1 7.25 6h1.5a.25.25 0 0 1 .25.25V8a1 1 0 0 1-2 0V6.25Z" fill="#fff"/><path fill-rule="evenodd" clip-rule="evenodd" d="M8 8c.276 0 .5-.724.5-1a.5.5 0 1 0-1 0c0 .276.224 1 .5 1Z" fill="#1D50B5"/></g></g><defs><clipPath id="a"><path fill="#fff" d="M0 0h21v15H0z"/></clipPath></defs></svg>