<svg width="21" height="15" fill="none" xmlns="http://www.w3.org/2000/svg"><g clip-path="url(#a)"><path d="M19.5.188h-18C.775.188.187.774.187 1.5v12c0 .725.588 1.313 1.313 1.313h18c.725 0 1.313-.588 1.313-1.313v-12c0-.725-.588-1.313-1.313-1.313Z" fill="#fff" stroke="#F5F5F5" stroke-width=".5"/><mask id="b" style="mask-type:alpha" maskUnits="userSpaceOnUse" x="-1" y="-1" width="23" height="17"><path d="M19.5.188h-18C.775.188.187.774.187 1.5v12c0 .725.588 1.313 1.313 1.313h18c.725 0 1.313-.588 1.313-1.313v-12c0-.725-.588-1.313-1.313-1.313Z" fill="#fff" stroke="#fff" stroke-width=".5"/></mask><g mask="url(#b)"><path fill-rule="evenodd" clip-rule="evenodd" d="M0 10h21V5H0v5Z" fill="#17508F"/><path fill-rule="evenodd" clip-rule="evenodd" d="M0 5h21V0H0v5Z" fill="#E1444D"/><path fill-rule="evenodd" clip-rule="evenodd" d="M4.5 7.5c0-.484.258-1.562.403-2.131A.492.492 0 0 1 5.382 5h2.237c.225 0 .422.15.478.368.146.566.403 1.637.403 2.132 0 .559-.375 2.026-.476 2.408a.43.43 0 0 1-.084.167c-.191.232-.816.925-1.44.925-.625 0-1.25-.694-1.44-.926a.431.431 0 0 1-.084-.166c-.1-.38-.476-1.835-.476-2.408Z" fill="#fff"/><mask id="c" style="mask-type:alpha" maskUnits="userSpaceOnUse" x="4" y="5" width="5" height="6"><path fill-rule="evenodd" clip-rule="evenodd" d="M4.5 7.5c0-.484.258-1.562.403-2.131A.492.492 0 0 1 5.382 5h2.237c.225 0 .422.15.478.368.146.566.403 1.637.403 2.132 0 .559-.375 2.026-.476 2.408a.43.43 0 0 1-.084.167c-.191.232-.816.925-1.44.925-.625 0-1.25-.694-1.44-.926a.431.431 0 0 1-.084-.166c-.1-.38-.476-1.835-.476-2.408Z" fill="#fff"/></mask><g mask="url(#c)" stroke="#E1444D" stroke-width="1.333" stroke-linecap="square"><path d="m8.5 5.5-4 5M4.5 5.5l4 5"/></g></g></g><defs><clipPath id="a"><path fill="#fff" d="M0 0h21v15H0z"/></clipPath></defs></svg>