<svg width="21" height="15" fill="none" xmlns="http://www.w3.org/2000/svg"><g clip-path="url(#a)"><path d="M19.5 0h-18A1.5 1.5 0 0 0 0 1.5v12A1.5 1.5 0 0 0 1.5 15h18a1.5 1.5 0 0 0 1.5-1.5v-12A1.5 1.5 0 0 0 19.5 0Z" fill="#fff"/><mask id="b" style="mask-type:alpha" maskUnits="userSpaceOnUse" x="0" y="0" width="21" height="15"><path d="M19.5 0h-18A1.5 1.5 0 0 0 0 1.5v12A1.5 1.5 0 0 0 1.5 15h18a1.5 1.5 0 0 0 1.5-1.5v-12A1.5 1.5 0 0 0 19.5 0Z" fill="#fff"/></mask><g mask="url(#b)"><path d="M21 0H0v15h21V0Z" fill="#128C4B"/><path fill-rule="evenodd" clip-rule="evenodd" d="M5 8.996h8v-.69a.5.5 0 0 1 .724-.448l.276.138v1h1.5a.5.5 0 0 1 .5.5v.5a1 1 0 0 1-1 1h-1.5a.5.5 0 0 1-.5-.5v-.5H6.207a.5.5 0 0 1-.353-.146L5 8.996ZM5 6.104a.25.25 0 0 1 .073-.177l.25-.25a.25.25 0 0 0 0-.354l-.25-.25A.25.25 0 0 1 5 4.896V4.25A.25.25 0 0 1 5.25 4h.559c.105 0 .191.086.191.191 0 .202.272.266.362.085l.074-.149A.23.23 0 0 1 6.642 4H7.75a.25.25 0 1 1 0 .5h-.5a.25.25 0 0 0 0 .5h.5a.25.25 0 0 1 .25.25v1.5a.25.25 0 0 1-.25.25h-.5A.25.25 0 0 1 7 6.75v-.5A.25.25 0 0 1 7.25 6a.25.25 0 0 0 0-.5h-.5a.25.25 0 0 0-.25.25v1a.25.25 0 0 1-.5 0v-.5a.25.25 0 0 0-.5 0v.5a.25.25 0 0 1-.5 0v-.646ZM13 6.104a.25.25 0 0 1 .073-.177l.25-.25a.25.25 0 0 0 0-.354l-.25-.25A.25.25 0 0 1 13 4.896V4.25a.25.25 0 0 1 .25-.25h.559c.106 0 .191.086.191.191 0 .202.272.266.362.085l.074-.149A.23.23 0 0 1 14.642 4h1.108a.25.25 0 1 1 0 .5h-.5a.25.25 0 1 0 0 .5h.5a.25.25 0 0 1 .25.25v1.5a.25.25 0 0 1-.25.25h-.5a.25.25 0 0 1-.25-.25v-.5a.25.25 0 0 1 .25-.25.25.25 0 1 0 0-.5h-.5a.25.25 0 0 0-.25.25v1a.25.25 0 1 1-.5 0v-.5a.25.25 0 0 0-.5 0v.5a.25.25 0 1 1-.5 0v-.646ZM12 4.748c0 .139-.078.33-.18.433l-.14.138c-.1.1-.102.26 0 .362l.14.138c.1.1.18.288.18.433v.496c0 .139-.107.252-.252.252h-.496A.249.249 0 0 1 11 6.748v-.496c0-.139-.046-.16-.116-.02l-.268.536a.46.46 0 0 1-.364.232H9.248A.252.252 0 0 1 9 6.75c0-.138.107-.25.252-.25h.496c.139 0 .252-.116.252-.25A.247.247 0 0 0 9.748 6h-.496A.247.247 0 0 1 9 5.755v-1.51C9 4.11 9.107 4 9.252 4h.496c.139 0 .252.107.252.252v.496c0 .139-.116.252-.25.252a.253.253 0 0 0-.25.25c0 .138.107.25.252.25h.496c.139 0 .252-.118.252-.248V4.248c0-.137.116-.248.25-.248.138 0 .25.107.25.252v.496c0 .139.116.252.25.252.138 0 .25-.107.25-.252v-.496c0-.139.116-.252.25-.252.138 0 .25.107.25.252v.496Z" fill="#fff"/></g></g><defs><clipPath id="a"><path fill="#fff" d="M0 0h21v15H0z"/></clipPath></defs></svg>