<svg width="21" height="15" fill="none" xmlns="http://www.w3.org/2000/svg"><g clip-path="url(#a)"><path d="M19.5.188h-18C.775.188.187.774.187 1.5v12c0 .725.588 1.313 1.313 1.313h18c.725 0 1.313-.588 1.313-1.313v-12c0-.725-.588-1.313-1.313-1.313Z" fill="#fff" stroke="#F5F5F5" stroke-width=".5"/><mask id="b" style="mask-type:alpha" maskUnits="userSpaceOnUse" x="-1" y="-1" width="23" height="17"><path d="M19.5.188h-18C.775.188.187.774.187 1.5v12c0 .725.588 1.313 1.313 1.313h18c.725 0 1.313-.588 1.313-1.313v-12c0-.725-.588-1.313-1.313-1.313Z" fill="#fff" stroke="#fff" stroke-width=".5"/></mask><g mask="url(#b)" fill-rule="evenodd" clip-rule="evenodd"><path d="M0 8h21V0H0v8Z" fill="#E12237"/><path d="M5 7c.709 0 1.36-.246 1.874-.657a2.5 2.5 0 1 1 0-4.686A3 3 0 1 0 5 7Zm1-3.5a.5.5 0 1 1-1 0 .5.5 0 0 1 1 0ZM6.5 6a.5.5 0 1 0 0-1 .5.5 0 0 0 0 1ZM9 5.5a.5.5 0 1 1-1 0 .5.5 0 0 1 1 0ZM9.5 4a.5.5 0 1 0 0-1 .5.5 0 0 0 0 1ZM8 2a.5.5 0 1 1-1 0 .5.5 0 0 1 1 0Z" fill="#fff"/></g></g><defs><clipPath id="a"><path fill="#fff" d="M0 0h21v15H0z"/></clipPath></defs></svg>