<svg width="21" height="15" fill="none" xmlns="http://www.w3.org/2000/svg"><g clip-path="url(#a)"><path d="M19.5.188h-18C.775.188.187.774.187 1.5v12c0 .725.588 1.313 1.313 1.313h18c.725 0 1.313-.588 1.313-1.313v-12c0-.725-.588-1.313-1.313-1.313Z" fill="#fff" stroke="#F5F5F5" stroke-width=".5"/><mask id="b" style="mask-type:alpha" maskUnits="userSpaceOnUse" x="-1" y="-1" width="23" height="17"><path d="M19.5.188h-18C.775.188.187.774.187 1.5v12c0 .725.588 1.313 1.313 1.313h18c.725 0 1.313-.588 1.313-1.313v-12c0-.725-.588-1.313-1.313-1.313Z" fill="#fff" stroke="#fff" stroke-width=".5"/></mask><g mask="url(#b)"><path fill-rule="evenodd" clip-rule="evenodd" d="M0 10h21V5H0v5Z" fill="#0C47B7"/><path fill-rule="evenodd" clip-rule="evenodd" d="M0 15h21v-5H0v5Z" fill="#E53B35"/><path d="M5.21 2.5a1.5 1.5 0 0 0-1.499 1.442l-.194 5.056a1.5 1.5 0 0 0 .522 1.196l2.157 1.849a2 2 0 0 0 2.603 0l2.157-1.849a1.5 1.5 0 0 0 .523-1.196l-.195-5.056A1.5 1.5 0 0 0 9.786 2.5H5.21Z" fill="#F73744" stroke="#fff" stroke-width="1.333"/><mask id="c" style="mask-type:alpha" maskUnits="userSpaceOnUse" x="2" y="1" width="11" height="13"><path d="M5.21 2.5a1.5 1.5 0 0 0-1.499 1.442l-.194 5.056a1.5 1.5 0 0 0 .522 1.196l2.157 1.849a2 2 0 0 0 2.603 0l2.157-1.849a1.5 1.5 0 0 0 .523-1.196l-.195-5.056A1.5 1.5 0 0 0 9.786 2.5H5.21Z" fill="#fff" stroke="#fff" stroke-width="1.333"/></mask><g mask="url(#c)" fill-rule="evenodd" clip-rule="evenodd"><path d="M7 8.25A.25.25 0 0 0 6.75 8h-1a.25.25 0 0 1-.25-.25v-.5A.25.25 0 0 1 5.75 7h1A.25.25 0 0 0 7 6.75v-.5A.25.25 0 0 0 6.75 6h-.5A.25.25 0 0 1 6 5.75v-.5A.25.25 0 0 1 6.25 5h.5A.25.25 0 0 0 7 4.75v-.5A.25.25 0 0 1 7.25 4h.5a.25.25 0 0 1 .25.25v.5c0 .138.112.25.25.25h.5a.25.25 0 0 1 .25.25v.5a.25.25 0 0 1-.25.25h-.5a.25.25 0 0 0-.25.25v.5c0 .138.112.25.25.25h1a.25.25 0 0 1 .25.25v.5a.25.25 0 0 1-.25.25h-1a.25.25 0 0 0-.25.25v1.5a.25.25 0 0 1-.25.25h-.5A.25.25 0 0 1 7 9.75v-1.5Z" fill="#fff"/><path d="M8.403 10.07a1 1 0 0 0-1.806 0c-1.215.19-2.097.759-2.097 1.43 0 .829 1.343 1.5 3 1.5s3-.671 3-1.5c0-.671-.882-1.24-2.097-1.43Z" fill="#1251A1"/></g></g></g><defs><clipPath id="a"><path fill="#fff" d="M0 0h21v15H0z"/></clipPath></defs></svg>