<svg width="21" height="15" fill="none" xmlns="http://www.w3.org/2000/svg"><g clip-path="url(#a)"><path d="M19.5 0h-18A1.5 1.5 0 0 0 0 1.5v12A1.5 1.5 0 0 0 1.5 15h18a1.5 1.5 0 0 0 1.5-1.5v-12A1.5 1.5 0 0 0 19.5 0Z" fill="#fff"/><mask id="b" style="mask-type:alpha" maskUnits="userSpaceOnUse" x="0" y="0" width="21" height="15"><path d="M19.5 0h-18A1.5 1.5 0 0 0 0 1.5v12A1.5 1.5 0 0 0 1.5 15h18a1.5 1.5 0 0 0 1.5-1.5v-12A1.5 1.5 0 0 0 19.5 0Z" fill="#fff"/></mask><g mask="url(#b)"><path d="M21 0H0v15h21V0Z" fill="#E92434"/><path fill-rule="evenodd" clip-rule="evenodd" d="m14.27 8.076-.92 1.114.063-1.443-1.343-.53 1.391-.385.089-1.441.797 1.203 1.398-.36-.899 1.13.776 1.217-1.353-.505Z" fill="#fff"/><path fill-rule="evenodd" clip-rule="evenodd" d="M13.052 10.263a4.5 4.5 0 1 1 0-5.526A3.907 3.907 0 0 0 10.75 4C8.679 4 7 5.567 7 7.5S8.679 11 10.75 11c.868 0 1.667-.275 2.302-.737Z" fill="#fff"/></g></g><defs><clipPath id="a"><path fill="#fff" d="M0 0h21v15H0z"/></clipPath></defs></svg>