<svg width="21" height="15" fill="none" xmlns="http://www.w3.org/2000/svg"><g clip-path="url(#a)"><path d="M19.5 0h-18A1.5 1.5 0 0 0 0 1.5v12A1.5 1.5 0 0 0 1.5 15h18a1.5 1.5 0 0 0 1.5-1.5v-12A1.5 1.5 0 0 0 19.5 0Z" fill="#fff"/><mask id="b" style="mask-type:alpha" maskUnits="userSpaceOnUse" x="0" y="0" width="21" height="15"><path d="M19.5 0h-18A1.5 1.5 0 0 0 0 1.5v12A1.5 1.5 0 0 0 1.5 15h18a1.5 1.5 0 0 0 1.5-1.5v-12A1.5 1.5 0 0 0 19.5 0Z" fill="#fff"/></mask><g mask="url(#b)"><path fill-rule="evenodd" clip-rule="evenodd" d="M21 0H0v1h21V0Zm0 2H0v1h21V2ZM0 4h21v1H0V4Zm21 2H0v1h21V6ZM0 8h21v1H0V8Zm21 2H0v1h21v-1ZM0 12h21v1H0v-1Zm21 2H0v1h21v-1Z" fill="#D02F44"/><path d="M9 0H0v7h9V0Z" fill="#46467F"/><g filter="url(#c)"><path fill-rule="evenodd" clip-rule="evenodd" d="M2 1.5a.5.5 0 1 1-1 0 .5.5 0 0 1 1 0Zm2 0a.5.5 0 1 1-1 0 .5.5 0 0 1 1 0Zm1.5.5a.5.5 0 1 0 0-1 .5.5 0 0 0 0 1ZM8 1.5a.5.5 0 1 1-1 0 .5.5 0 0 1 1 0ZM2.5 3a.5.5 0 1 0 0-1 .5.5 0 0 0 0 1ZM5 2.5a.5.5 0 1 1-1 0 .5.5 0 0 1 1 0Zm1.5.5a.5.5 0 1 0 0-1 .5.5 0 0 0 0 1Zm1.5.5a.5.5 0 1 1-1 0 .5.5 0 0 1 1 0ZM5.5 4a.5.5 0 1 0 0-1 .5.5 0 0 0 0 1ZM4 3.5a.5.5 0 1 1-1 0 .5.5 0 0 1 1 0ZM1.5 4a.5.5 0 1 0 0-1 .5.5 0 0 0 0 1Zm1.5.5a.5.5 0 1 1-1 0 .5.5 0 0 1 1 0Zm1.5.5a.5.5 0 1 0 0-1 .5.5 0 0 0 0 1ZM7 4.5a.5.5 0 1 1-1 0 .5.5 0 0 1 1 0ZM7.5 6a.5.5 0 1 0 0-1 .5.5 0 0 0 0 1ZM6 5.5a.5.5 0 1 1-1 0 .5.5 0 0 1 1 0ZM3.5 6a.5.5 0 1 0 0-1 .5.5 0 0 0 0 1ZM2 5.5a.5.5 0 1 1-1 0 .5.5 0 0 1 1 0Z" fill="url(#d)"/></g></g></g><defs><linearGradient id="d" x1="1" y1="1" x2="1" y2="6" gradientUnits="userSpaceOnUse"><stop stop-color="#fff"/><stop offset="1" stop-color="#F0F0F0"/></linearGradient><clipPath id="a"><path fill="#fff" d="M0 0h21v15H0z"/></clipPath><filter id="c" x="1" y="1" width="7" height="6" filterUnits="userSpaceOnUse" color-interpolation-filters="sRGB"><feFlood flood-opacity="0" result="BackgroundImageFix"/><feColorMatrix in="SourceAlpha" values="0 0 0 0 0 0 0 0 0 0 0 0 0 0 0 0 0 0 127 0" result="hardAlpha"/><feOffset dy="1"/><feColorMatrix values="0 0 0 0 0 0 0 0 0 0 0 0 0 0 0 0 0 0 0.06 0"/><feBlend in2="BackgroundImageFix" result="effect1_dropShadow_7792_50549"/><feBlend in="SourceGraphic" in2="effect1_dropShadow_7792_50549" result="shape"/></filter></defs></svg>