<svg width="21" height="15" fill="none" xmlns="http://www.w3.org/2000/svg"><g clip-path="url(#a)"><path d="M19.5.188h-18C.775.188.187.774.187 1.5v12c0 .725.588 1.313 1.313 1.313h18c.725 0 1.313-.588 1.313-1.313v-12c0-.725-.588-1.313-1.313-1.313Z" fill="#fff" stroke="#F5F5F5" stroke-width=".5"/><mask id="b" style="mask-type:alpha" maskUnits="userSpaceOnUse" x="-1" y="-3" width="23" height="17"><path d="M19.5-1.813h-18C.775-1.813.187-1.224.187-.5v12c0 .725.588 1.313 1.313 1.313h18c.725 0 1.313-.588 1.313-1.313v-12c0-.725-.588-1.313-1.313-1.313Z" fill="#fff" stroke="#fff" stroke-width=".5"/></mask><g mask="url(#b)" fill-rule="evenodd" clip-rule="evenodd"><path d="M21 0H10v2h11V0ZM10 4v2h11V4H10Zm0 4H0v2h21V8H10ZM0 13v-1h21v1H0Z" fill="#0E4DC5"/><path d="m5 4.994-.668.996-.169-1.187-1.033.608.362-1.143-1.195.1.823-.874L2 3.065l1.12-.429-.823-.872 1.195.1L3.13.72l1.033.608.17-1.187.667.996.668-.996.169 1.187L6.87.72l-.362 1.143 1.195-.1-.823.873 1.12.43-1.12.428.823.873-1.195-.1.362 1.144-1.033-.608-.17 1.187L5 4.994Zm0-.02a1.91 1.91 0 1 0 0-3.818 1.91 1.91 0 0 0 0 3.818Zm1.5-1.971a1.5 1.5 0 1 1-3 0 1.5 1.5 0 0 1 3 0Z" fill="#FED443"/></g></g><defs><clipPath id="a"><path fill="#fff" d="M0 0h21v15H0z"/></clipPath></defs></svg>