<svg width="21" height="15" fill="none" xmlns="http://www.w3.org/2000/svg"><g clip-path="url(#a)"><path d="M19.5 0h-18A1.5 1.5 0 0 0 0 1.5v12A1.5 1.5 0 0 0 1.5 15h18a1.5 1.5 0 0 0 1.5-1.5v-12A1.5 1.5 0 0 0 19.5 0Z" fill="#06A86E"/><mask id="b" style="mask-type:alpha" maskUnits="userSpaceOnUse" x="0" y="0" width="21" height="15"><path d="M19.5 0h-18A1.5 1.5 0 0 0 0 1.5v12A1.5 1.5 0 0 0 1.5 15h18a1.5 1.5 0 0 0 1.5-1.5v-12A1.5 1.5 0 0 0 19.5 0Z" fill="#fff"/></mask><g mask="url(#b)" fill-rule="evenodd" clip-rule="evenodd"><path d="m0 2 7 5.5L0 13V2Z" fill="#FFBF2E"/><path d="M-1 2.25 5.75 7.5-1 12.75V2.25Z" fill="#262626"/><path d="M9 6 2 0h19v6H9Z" fill="#fff"/><path d="m9.25 5-6-5H21v5H9.25Z" fill="#F44E46"/><path d="M2 15h19V9H9l-7 6Z" fill="#fff"/><path d="M3.25 15H21v-5H9.25l-6 5Z" fill="#072CB4"/></g></g><defs><clipPath id="a"><path fill="#fff" d="M0 0h21v15H0z"/></clipPath></defs></svg>