<svg width="60" height="60" viewBox="0 0 60 60" fill="none" xmlns="http://www.w3.org/2000/svg">
<rect x="60" width="60" height="60" rx="30" transform="rotate(90 60 0)" fill="#5DA0EF"/>
<path d="M35.5442 35.3125C34.8661 35.3125 34.3125 35.8661 34.3125 36.5442C34.3125 37.2224 34.8661 37.776 35.5442 37.776C36.2224 37.776 36.776 37.2224 36.776 36.5442C36.776 35.8661 36.2224 35.3125 35.5442 35.3125Z" fill="white"/>
<path d="M35.5477 31.1523C32.5791 31.1523 30.1641 33.5674 30.1641 36.536C30.1641 39.5046 32.5791 41.9196 35.5477 41.9196C38.5163 41.9196 40.9313 39.5046 40.9313 36.536C40.9313 33.5674 38.5163 31.1523 35.5477 31.1523ZM35.5477 39.1517C34.1084 39.1517 32.932 37.9822 32.932 36.536C32.932 35.0966 34.1014 33.9203 35.5477 33.9203C36.9939 33.9203 38.1634 35.0966 38.1634 36.536C38.1634 37.9822 36.987 39.1517 35.5477 39.1517Z" fill="white"/>
<path d="M36.2969 43.2639L37.7916 46.8691C37.9023 47.1252 38.1583 47.2912 38.4351 47.2912H38.4905C38.788 47.2705 39.0371 47.056 39.1063 46.7653L39.6115 44.634L41.4798 45.7827C41.7359 45.935 42.068 45.9142 42.2964 45.7135C42.5247 45.5198 42.6008 45.2015 42.4832 44.9247L40.7809 40.8281C39.6876 42.1637 38.096 43.0701 36.2969 43.2639Z" fill="white"/>
<path d="M29.6137 45.7905L31.489 44.6418L31.9942 46.7732C32.0634 47.0638 32.3125 47.2783 32.61 47.2991H32.6654C32.9422 47.2991 33.1982 47.133 33.302 46.8769L34.8036 43.2717C33.0045 43.071 31.4129 42.1645 30.3196 40.8359L28.6173 44.9256C28.4997 45.2024 28.5758 45.5207 28.8041 45.7144C29.0325 45.922 29.3577 45.9359 29.6137 45.7905Z" fill="white"/>
<path d="M20.2081 42.4337H27.6884C27.8753 42.4337 28.0483 42.3576 28.1798 42.2261L28.2836 42.1223L29.4184 39.389C29.0101 38.524 28.7818 37.5622 28.7818 36.538C28.7818 32.8082 31.8196 29.7704 35.5494 29.7704C36.9541 29.7704 38.255 30.1995 39.3414 30.933L39.729 30.5455C39.8604 30.414 39.9296 30.241 39.9296 30.0611V15.4395C39.9296 13.9309 38.6979 12.6992 37.1825 12.6992H24.706V19.2454C24.706 19.626 24.3946 19.9374 24.014 19.9374H17.4609V39.6866C17.4609 41.202 18.6927 42.4337 20.2081 42.4337ZM28.5603 17.2663H35.584C35.9646 17.2663 36.276 17.5777 36.276 17.9583C36.276 18.3389 35.9646 18.6503 35.584 18.6503H28.5603C28.1798 18.6503 27.8684 18.3389 27.8684 17.9583C27.8684 17.5777 28.1798 17.2663 28.5603 17.2663ZM21.7997 22.4285H35.584C35.9646 22.4285 36.276 22.7399 36.276 23.1205C36.276 23.5011 35.9646 23.8125 35.584 23.8125H21.7997C21.4191 23.8125 21.1077 23.5011 21.1077 23.1205C21.1077 22.7399 21.4191 22.4285 21.7997 22.4285ZM21.7997 27.5907H35.584C35.9646 27.5907 36.276 27.9021 36.276 28.2827C36.276 28.6633 35.9646 28.9747 35.584 28.9747H21.7997C21.4191 28.9747 21.1077 28.6633 21.1077 28.2827C21.1077 27.9021 21.4191 27.5907 21.7997 27.5907Z" fill="white"/>
<path d="M23.3238 13.6758L18.4453 18.5543H23.3238V13.6758Z" fill="white"/>
</svg>
