<svg width="60" height="60" viewBox="0 0 60 60" fill="none" xmlns="http://www.w3.org/2000/svg">
<rect x="60" width="60" height="60" rx="30" transform="rotate(90 60 0)" fill="#5DA0EF"/>
<path d="M25.5134 32.0977L24.2734 34.6886H26.7534L25.5134 32.0977Z" fill="white"/>
<path d="M37.1797 14.5508V19.6265H42.0378L37.1797 14.5508Z" fill="white"/>
<path d="M36.2835 21.5C35.7879 21.5 35.3862 21.0803 35.3862 20.5625V14H20.1317C19.6361 14 19.2344 14.4196 19.2344 14.9375V25.3125H38.0781C38.5737 25.3125 38.9754 25.7321 38.9754 26.25V41.25C38.9754 41.7678 38.5737 42.1875 38.0781 42.1875H19.2344V45.0625C19.2344 45.5803 19.6361 46 20.1317 46H41.6674C42.163 46 42.5647 45.5803 42.5647 45.0625V21.5H36.2835Z" fill="white"/>
<path d="M18.3426 27.1875C17.8471 27.1875 17.4453 27.6071 17.4453 28.125V39.375C17.4453 39.8928 17.8471 40.3125 18.3426 40.3125H37.1864V27.1875H18.3426ZM29.5118 38.3386C29.383 38.4054 29.2463 38.4375 29.1114 38.4375C28.7819 38.4375 28.4656 38.248 28.3078 37.9193L27.6585 36.5625H23.384L22.7347 37.9193C22.5121 38.3816 21.9749 38.5675 21.5306 38.3386C21.0872 38.107 20.9076 37.5439 21.1293 37.0807L24.7186 29.5807C25.0493 28.8896 25.9933 28.8896 26.324 29.5807L29.9132 37.0807C30.1349 37.5439 29.9552 38.107 29.5118 38.3386ZM33.5971 37.5C33.5971 38.0182 33.1958 38.4375 32.6998 38.4375C32.2038 38.4375 31.8025 38.0182 31.8025 37.5V33.75C31.8025 33.2318 32.2038 32.8125 32.6998 32.8125C33.1958 32.8125 33.5971 33.2318 33.5971 33.75V37.5ZM32.6998 30.9375C32.2042 30.9375 31.8025 30.5178 31.8025 30C31.8025 29.4821 32.2042 29.0625 32.6998 29.0625C33.1953 29.0625 33.5971 29.4821 33.5971 30C33.5971 30.5178 33.1953 30.9375 32.6998 30.9375Z" fill="white"/>
</svg>
