<svg width="30" height="30" viewBox="0 0 30 30" fill="none" xmlns="http://www.w3.org/2000/svg">
<g clip-path="url(#clip0_2516_102896)">
<path d="M28.6718 4.79905C28.2452 4.37169 27.553 4.37096 27.1264 4.79723L14.0145 17.8745L9.28374 12.7365C8.87496 12.2928 8.18384 12.264 7.73938 12.6727C7.29526 13.0815 7.26682 13.773 7.6756 14.2171L13.1769 20.1916C13.3783 20.4106 13.6603 20.5377 13.9576 20.5439C13.9656 20.5442 13.9733 20.5442 13.9809 20.5442C14.2699 20.5442 14.5478 20.4295 14.7526 20.2255L28.6697 6.34483C29.0974 5.9186 29.0981 5.2264 28.6718 4.79905Z" fill="#088C5E"/>
<path d="M28.407 14.241C27.8033 14.241 27.3141 14.7303 27.3141 15.334C27.3141 22.1242 21.7902 27.6481 15 27.6481C8.21015 27.6481 2.68593 22.1242 2.68593 15.334C2.68593 8.54413 8.21015 3.01992 15 3.01992C15.6037 3.01992 16.093 2.53065 16.093 1.92698C16.093 1.32325 15.6037 0.833984 15 0.833984C7.00461 0.833984 0.5 7.33859 0.5 15.334C0.5 23.329 7.00461 29.834 15 29.834C22.9951 29.834 29.5 23.329 29.5 15.334C29.5 14.7303 29.0107 14.241 28.407 14.241Z" fill="#088C5E"/>
</g>
<defs>
<clipPath id="clip0_2516_102896">
<rect width="29" height="29" fill="white" transform="translate(0.5 0.833984)"/>
</clipPath>
</defs>
</svg>
