<svg width="19" height="20" viewBox="0 0 19 20" fill="none" xmlns="http://www.w3.org/2000/svg">
<path d="M12.9297 9.49191H12.2131V7.11691C12.2131 6.3673 11.6092 5.75977 10.8641 5.75977H8.2505C7.50541 5.75977 6.90154 6.3673 6.90154 7.11691V9.49191H6.1849C5.99836 9.49191 5.84766 9.64353 5.84766 9.83119V13.9026C5.84766 14.0903 5.99836 14.2419 6.1849 14.2419H12.9297C13.1163 14.2419 13.267 14.0903 13.267 13.9026V9.83119C13.267 9.64353 13.1163 9.49191 12.9297 9.49191ZM9.8524 12.0047V12.5667C9.8524 12.6133 9.81446 12.6515 9.76809 12.6515H9.34654C9.30017 12.6515 9.26223 12.6133 9.26223 12.5667V12.0047C9.17524 11.9419 9.1103 11.8529 9.07678 11.7506C9.04325 11.6483 9.04287 11.5379 9.07567 11.4353C9.10848 11.3327 9.17279 11.2433 9.25934 11.1798C9.34589 11.1164 9.45022 11.0822 9.55732 11.0822C9.66441 11.0822 9.76874 11.1164 9.85529 11.1798C9.94184 11.2433 10.0062 11.3327 10.039 11.4353C10.0718 11.5379 10.0714 11.6483 10.0379 11.7506C10.0043 11.8529 9.9394 11.9419 9.8524 12.0047ZM11.4543 9.49191H7.66033V7.11691C7.66033 6.78929 7.92485 6.52316 8.2505 6.52316H10.8641C11.1898 6.52316 11.4543 6.78929 11.4543 7.11691V9.49191Z" fill="#9AA2AC"/>
<path d="M18.4988 10C18.4988 14.9734 14.4922 19 9.55605 19C4.61994 19 0.613281 14.9734 0.613281 10C0.613281 5.02658 4.61994 1 9.55605 1C14.4922 1 18.4988 5.02658 18.4988 10Z" stroke="#9AA2AC"/>
</svg>
