<svg width="30" height="31" viewBox="0 0 30 31" fill="none" xmlns="http://www.w3.org/2000/svg">
<path d="M18.0292 27.5473C17.7819 27.6089 17.5297 27.6637 17.2793 27.7098C16.6249 27.8315 16.1922 28.4609 16.3133 29.1159C16.3731 29.4381 16.5561 29.7065 16.8045 29.8817C17.0606 30.062 17.3866 30.1434 17.7187 30.0816C18.0168 30.0263 18.3172 29.9612 18.6121 29.8876C19.2583 29.7268 19.652 29.0721 19.4908 28.4262C19.33 27.7797 18.6759 27.3863 18.0292 27.5473Z" fill="#5DA0EF"/>
<path d="M26.9477 11.3824C27.0321 11.637 27.1934 11.8448 27.3971 11.9885C27.6992 12.2012 28.0945 12.2728 28.4717 12.1481C29.104 11.9381 29.4467 11.2562 29.2375 10.6241C29.1421 10.336 29.0364 10.047 28.9237 9.76554C28.6763 9.1471 27.9748 8.846 27.3561 9.09338C26.7379 9.34063 26.4367 10.0423 26.6843 10.661C26.779 10.8975 26.8676 11.1403 26.9477 11.3824Z" fill="#5DA0EF"/>
<path d="M21.9485 25.8255C21.7358 25.966 21.5162 26.1019 21.295 26.2293C20.7179 26.5622 20.5202 27.2998 20.853 27.8767C20.9433 28.0336 21.0637 28.1619 21.2022 28.2599C21.5743 28.5216 22.0795 28.5609 22.5002 28.3185C22.7632 28.1668 23.0247 28.0055 23.2781 27.8379C23.8336 27.4709 23.9865 26.7227 23.6193 26.1669C23.2521 25.611 22.5042 25.4583 21.9485 25.8255Z" fill="#5DA0EF"/>
<path d="M29.9892 14.7505C29.9629 14.0848 29.4023 13.5667 28.7364 13.5927C28.0714 13.619 27.553 14.1798 27.5791 14.8452C27.5891 15.0996 27.5916 15.3578 27.5858 15.612C27.5764 16.0294 27.7806 16.4015 28.0979 16.6252C28.2869 16.7583 28.5163 16.8388 28.765 16.8445C29.4307 16.8593 29.9823 16.3313 29.9971 15.6653C30.0037 15.3616 30.0012 15.054 29.9892 14.7505Z" fill="#5DA0EF"/>
<path d="M26.7525 22.6528C26.2188 22.2523 25.4636 22.3611 25.0638 22.8939C24.9107 23.0979 24.7495 23.2994 24.5844 23.4935C24.153 24.0004 24.2139 24.7617 24.7208 25.1935C24.7497 25.218 24.7789 25.2405 24.8092 25.2616C25.3131 25.6169 26.0135 25.5352 26.4209 25.0571C26.6181 24.8256 26.8102 24.5849 26.9932 24.3412C27.393 23.8084 27.2848 23.0527 26.7525 22.6528Z" fill="#5DA0EF"/>
<path d="M28.5262 18.2933C27.8907 18.0941 27.2139 18.4479 27.0148 19.0834C26.9385 19.3262 26.8541 19.5701 26.7629 19.8091C26.5626 20.335 26.7545 20.9138 27.1943 21.2239C27.275 21.2806 27.3638 21.3286 27.4604 21.3651C28.0826 21.6026 28.7794 21.2904 29.0166 20.6679C29.1249 20.3838 29.2254 20.0935 29.3162 19.8049C29.5152 19.1692 29.1617 18.4926 28.5262 18.2933Z" fill="#5DA0EF"/>
<path d="M12.7686 27.7207C11.6904 27.5271 10.656 27.1974 9.67523 26.7376C9.66363 26.7316 9.65324 26.7247 9.64106 26.7191C9.40993 26.6103 9.17919 26.4938 8.95554 26.372C8.95477 26.3711 8.95335 26.3706 8.95213 26.37C8.54179 26.1441 8.14131 25.8941 7.75225 25.6202C2.07908 21.6238 0.715023 13.757 4.71163 8.08391C5.58067 6.85076 6.63235 5.82198 7.80481 5.00659C7.81926 4.99653 7.8337 4.98653 7.84802 4.97641C11.9796 2.12963 17.5896 1.93778 21.9767 4.8631L21.0345 6.22451C20.7725 6.60345 20.9337 6.87959 21.3923 6.83831L25.4851 6.47189C25.9443 6.43062 26.2189 6.03343 26.0954 5.59001L24.9963 1.63004C24.8733 1.1861 24.5583 1.13296 24.296 1.51183L23.3516 2.87647C20.1321 0.715271 16.2706 -0.108826 12.4379 0.555791C12.0518 0.622601 11.6712 0.704372 11.2958 0.799557C11.2929 0.800073 11.2906 0.800395 11.2883 0.800911C11.2738 0.804458 11.2591 0.809166 11.2449 0.8131C7.93992 1.66183 5.05632 3.58945 2.99869 6.33975C2.98134 6.36033 2.96348 6.38045 2.9471 6.40282C2.87867 6.49498 2.81077 6.58926 2.74428 6.68354C2.63555 6.83806 2.52837 6.99644 2.42584 7.15482C2.413 7.17391 2.4032 7.19332 2.39198 7.2126C0.694 9.8438 -0.125003 12.8857 0.0154528 15.9826C0.0157752 15.9928 0.0151948 16.003 0.0154528 16.0135C0.0290598 16.316 0.0530495 16.6227 0.0856161 16.9246C0.0873573 16.9441 0.091678 16.9625 0.094967 16.982C0.12863 17.2856 0.17087 17.5899 0.223815 17.8942C0.761906 20.9985 2.22631 23.792 4.42066 25.9656C4.42575 25.9707 4.43104 25.9762 4.4362 25.9815C4.438 25.9835 4.44 25.9845 4.44174 25.9864C5.0313 26.5679 5.67257 27.1057 6.36305 27.592C8.17001 28.8653 10.1821 29.7069 12.343 30.0947C12.9986 30.2125 13.625 29.7761 13.7426 29.1207C13.8601 28.4649 13.4241 27.8381 12.7686 27.7207Z" fill="#5DA0EF"/>
<path d="M14.2613 5.58789C13.722 5.58789 13.2852 6.02512 13.2852 6.56366V16.2851L22.1762 20.8812C22.3193 20.9553 22.4725 20.9902 22.6233 20.9902C22.9764 20.9902 23.3175 20.7979 23.4909 20.4624C23.7382 19.9835 23.5511 19.3952 23.0722 19.1479L15.2364 15.0968V6.56366C15.2363 6.02512 14.8 5.58789 14.2613 5.58789Z" fill="#5DA0EF"/>
</svg>
