<svg width="60" height="60" viewBox="0 0 60 60" fill="none" xmlns="http://www.w3.org/2000/svg">
<rect x="60" width="60" height="60" rx="30" transform="rotate(90 60 0)" fill="#5DA0EF"/>
<path d="M40.0029 38.3437C39.8833 38.4633 39.7636 38.5829 39.644 38.6428L35.3374 40.5568C35.158 40.6166 35.0383 40.6764 34.8589 40.6764C34.7991 40.6764 34.7991 40.6764 34.7393 40.6764C34.3206 40.6764 33.9617 40.6764 33.543 40.6764C30.7318 40.6764 27.9803 40.6764 25.1691 40.6764C24.0326 40.6764 24.0326 38.882 25.1691 38.882H26.3654H33.8421L35.0982 34.6352C35.158 34.4558 35.2178 34.3362 35.3374 34.2166L40.7206 28.1754L42.5151 26.1417V23.9884C42.5151 23.9286 42.5151 23.8688 42.5151 23.809H40.7206H35.9954C34.9187 23.809 34.0813 22.9118 34.0813 21.8949V17.3491V15.5547H20.384C18.769 15.5547 17.4531 16.8706 17.4531 18.4856V41.5138C17.4531 43.1288 18.769 44.4447 20.384 44.4447H39.5244C41.1393 44.4447 42.4552 43.1288 42.4552 41.5138V35.5923L40.6608 37.6259L40.0029 38.3437ZM33.9019 34.5754C33.543 34.5754 33.1841 34.5754 32.8252 34.5754C30.2532 34.5754 27.7411 34.5754 25.1691 34.5754C24.0326 34.5754 24.0326 32.781 25.1691 32.781H26.2457H33.9019C35.0383 32.781 35.0383 34.5754 33.9019 34.5754ZM34.7393 27.338C35.8757 27.338 35.8757 29.1324 34.7393 29.1324C34.3206 29.1324 33.9617 29.1324 33.543 29.1324C30.7318 29.1324 27.9803 29.1324 25.1691 29.1324C24.0326 29.1324 24.0326 27.338 25.1691 27.338H26.3654H34.7393Z" fill="white"/>
<path d="M35.8125 21.8945C35.8125 21.9543 35.8723 22.0141 35.9321 22.0141H39.1621H41.6742C41.6742 21.9543 41.6144 21.9543 41.6144 21.8945L36.1116 16.3916C36.0518 16.3318 35.9321 16.2122 35.8125 16.1523V18.6645V21.8945Z" fill="white"/>
<path d="M44.9375 26.0234L45.5701 25.3047L47.5466 27.0443L46.914 27.7631L44.9375 26.0234Z" fill="white"/>
<path d="M37.1875 34.7528L39.2212 36.5472L45.7409 29.1303L43.767 27.3359L37.1875 34.7528Z" fill="white"/>
<path d="M35.8125 38.3437L37.6667 37.5661L36.4106 36.4297L35.8125 38.3437Z" fill="white"/>
</svg>
