<svg width="14" height="14" viewBox="0 0 14 14" fill="none" xmlns="http://www.w3.org/2000/svg">
<path d="M11.875 5.16993L11.875 1.91993M11.875 1.91993H8.62499M11.875 1.91993L7 6.79492M5.91667 1.91992H4.725C3.81491 1.91992 3.35987 1.91992 3.01227 2.09704C2.7065 2.25283 2.45791 2.50142 2.30211 2.80719C2.125 3.15479 2.125 3.60984 2.125 4.51992V9.06992C2.125 9.98001 2.125 10.4351 2.30211 10.7827C2.45791 11.0884 2.7065 11.337 3.01227 11.4928C3.35987 11.6699 3.81491 11.6699 4.725 11.6699H9.275C10.1851 11.6699 10.6401 11.6699 10.9877 11.4928C11.2935 11.337 11.5421 11.0884 11.6979 10.7827C11.875 10.4351 11.875 9.98001 11.875 9.06992V7.87826" stroke="#088C5E" stroke-width="1.3" stroke-linecap="round" stroke-linejoin="round"/>
</svg>
