<svg width="161" height="510" viewBox="0 0 161 510" fill="none" xmlns="http://www.w3.org/2000/svg">
<mask id="path-1-outside-1_3071_61278" maskUnits="userSpaceOnUse" x="0" y="60.4941" width="161" height="450" fill="black">
<rect fill="white" y="60.4941" width="161" height="450"/>
<path d="M154.372 257.842C153.803 255.996 154.32 255.427 153.976 253.941C153.727 252.863 153.646 252.33 152.883 250.805C152.705 250.449 152.246 245.19 152.04 241.502C151.171 233.096 150.048 192.548 148.681 185.166C147.183 177.078 144.406 170.978 143.325 165.585C142.245 160.192 142.995 154.602 142.515 143.218C142.337 139.007 141.198 130.037 141.797 122.246C142.396 114.455 141.548 97.8688 135.506 89.5895C132.211 85.0786 124.088 83.4862 116.079 81.3618C108.072 79.2374 98.8968 76.3545 96.2872 71.9746C95.6645 70.9303 94.0202 65.9905 94.0202 62.2261L67.5105 61.9362C67.26 65.4425 65.7895 70.6841 65.0482 71.931C62.4393 76.3069 53.4345 79.2374 45.4264 81.3618C37.4183 83.4862 29.2943 85.0786 26.0001 89.5895C19.9584 97.8688 19.1094 114.455 19.709 122.246C20.3078 130.037 19.1689 139.007 18.9914 143.218C18.5106 154.602 19.2607 160.192 18.1806 165.585C17.1001 170.978 14.3225 177.078 12.8251 185.166C11.4591 192.541 10.3369 233.023 9.46845 241.48C9.26475 245.111 8.79221 250.351 8.6163 250.704C7.85191 252.233 7.76137 252.768 7.512 253.849C7.16772 255.339 7.69387 255.907 7.12445 257.758C6.88897 258.521 6.37236 261.367 5.38044 264.235C3.96839 268.317 2.0012 272.717 2 273.557C1.99683 276.206 3.78692 285.496 5.54086 287.777C7.14828 289.866 14.0973 294.126 15.2362 294.126C16.3746 294.126 16.9441 292.986 16.9441 292.986C16.9441 292.986 18.9037 293.661 19.2218 292.274C19.6486 290.412 17.3689 289.275 16.5148 288.564C15.6611 287.852 13.5088 286.68 12.3708 284.402C11.2319 282.125 11.5274 273.369 12.8179 273.13C14.8613 272.752 14.8994 275.716 14.7617 278.197C14.666 279.908 14.4857 283.709 16.5724 283.914C20.4206 284.292 19.3655 276.689 19.3655 274.411C19.3655 272.134 20.7184 269.28 20.9312 267.294C21.3581 263.309 18.0845 259.038 18.0845 255.623C18.0845 254.698 19.0979 250.604 20.5738 244.999C23.9034 231.063 36.5904 188.889 36.5904 182.154C36.5904 177.133 37.6165 168.932 38.097 163.744C38.3932 160.539 40.0387 147.697 41.3463 137.03C42.6476 139.793 43.6229 140.607 44.4365 141.747C44.7244 147.968 45.8343 161.447 46.1813 165.264C46.6924 170.883 48.7346 175.739 47.6867 183.377C46.9576 188.687 43.4088 193.413 41.6644 197.12C37.9052 205.108 35.1446 216.067 34.1154 222.379C32.1907 234.18 31.655 239.409 30.9736 243.496C30.2926 247.583 26.6652 262.934 26.8355 272.811C27.0059 282.687 39.9474 343.139 40.1178 345.525C40.2881 347.908 39.6071 352.843 39.7775 355.909C39.9474 358.974 41.1395 364.593 41.1395 367.492C41.1395 370.387 36.9291 384.511 36.8823 391.842C36.7119 418.577 44.0533 463.957 44.2236 467.872C44.394 471.787 43.3389 474.15 43.1309 475.607C42.9228 477.065 42.1056 479.864 42.4177 481.631C39.7107 486.837 32.0072 494.751 29.9253 495.791C27.8433 496.832 26.6001 498.245 26.0517 499.441C25.815 499.957 26.0545 500.656 26.4627 500.942C25.9179 502.506 27.1115 503.241 27.8755 503.106C27.8569 503.813 28.333 504.309 28.7062 504.504C30.1413 505.254 31.0939 504.015 31.0939 504.015C31.0939 504.015 30.9609 505.194 32.5405 506.008C33.9867 506.759 35.963 505.159 35.963 505.159C35.963 505.159 35.0513 506.942 37.084 508.022C38.6041 508.828 41.1478 508.534 43.1471 507.656C46.3469 506.251 48.6961 503.229 48.9764 502.975C49.4708 502.518 51.4066 502.081 52.7448 500.898C54.8926 499 54.6242 497.824 55.3267 497.038C55.7559 496.562 59.1224 496.494 61.559 494.044C63.3443 492.249 62.6359 488.338 62.2539 486.869C61.6098 484.395 60.9478 481.528 60.9478 480.694C60.9478 479.864 60.8966 477.196 60.7926 475.532C60.6885 473.864 58.8496 470.509 58.7019 466.026C58.5721 462.094 68.3706 408.869 68.097 401.209C67.8234 393.545 65.9504 389.455 66.1203 384.348C66.2907 379.242 71.0589 367.659 71.9103 356.933C72.762 346.204 69.8669 343.48 70.2076 338.199C70.5483 332.921 77.0188 282.347 77.3599 276.387C77.6196 271.829 77.2761 269.312 77.3277 266.858C78.2387 267.076 79.6789 267.31 80.5974 267.287C82.0626 267.25 82.9211 266.982 84.2121 266.744C84.3876 269.353 83.8527 271.244 84.1466 276.387C84.4869 282.347 90.9574 332.921 91.2981 338.199C91.6388 343.48 88.7437 346.204 89.5954 356.933C90.4468 367.659 95.215 379.242 95.3853 384.348C95.5553 389.455 93.6822 393.545 93.4086 401.209C93.1355 408.869 102.934 462.094 102.805 466.026C102.656 470.509 100.817 473.864 100.713 475.532C100.609 477.196 100.558 479.864 100.558 480.694C100.558 481.528 99.8959 484.395 99.2518 486.869C98.8706 488.338 98.1614 492.249 99.9467 494.044C102.384 496.494 105.75 496.562 106.18 497.038C106.881 497.824 106.613 499 108.761 500.898C110.099 502.081 112.035 502.518 112.53 502.975C112.81 503.229 115.159 506.251 118.359 507.656C120.358 508.534 122.902 508.828 124.422 508.022C126.455 506.942 125.543 505.159 125.543 505.159C125.543 505.159 127.519 506.759 128.966 506.008C130.546 505.194 130.412 504.015 130.412 504.015C130.412 504.015 131.365 505.254 132.799 504.504C133.173 504.309 133.649 503.813 133.631 503.106C134.394 503.241 135.588 502.506 135.044 500.942C135.451 500.656 135.692 499.957 135.454 499.441C134.906 498.245 133.662 496.832 131.581 495.791C129.499 494.751 121.795 486.837 119.088 481.631C119.4 479.864 118.583 477.065 118.375 475.607C118.167 474.15 117.112 471.787 117.282 467.872C117.452 463.957 124.794 418.577 124.624 391.842C124.577 384.511 120.366 370.387 120.366 367.492C120.366 364.593 121.558 358.974 121.729 355.909C121.899 352.843 121.218 347.908 121.388 345.525C121.558 343.139 134.5 282.687 134.67 272.811C134.84 262.934 131.213 247.583 130.532 243.496C129.851 239.409 129.315 234.18 127.391 222.379C126.361 216.067 123.601 205.108 119.842 197.12C118.097 193.413 114.548 188.687 113.819 183.377C112.771 175.739 114.813 170.883 115.325 165.264C115.672 161.447 116.61 147.644 116.898 141.423C118.264 140.318 119.69 138.622 120.058 136.684C121.365 147.35 123.112 160.539 123.41 163.744C123.889 168.932 124.915 177.133 124.915 182.154C124.915 188.872 137.008 230.28 140.374 244.324C140.366 244.325 140.358 244.327 140.374 244.324C141.585 248.975 143.437 254.892 143.437 255.712C143.437 259.12 140.171 263.381 140.596 267.357C140.809 269.339 142.158 272.186 142.158 274.458C142.158 276.729 141.05 283.889 144.906 283.767C146.777 283.709 146.497 279.763 146.639 278.059C146.781 276.355 146.652 272.802 148.691 273.18C149.978 273.417 150.273 282.153 149.137 284.425C148.001 286.698 145.857 287.866 145.004 288.576C144.152 289.286 141.878 290.42 142.305 292.278C142.622 293.661 144.577 292.986 144.577 292.986C144.577 292.986 145.145 294.126 146.281 294.126C147.417 294.126 154.348 289.877 155.952 287.793C157.701 285.517 159.487 276.249 159.484 273.605C159.483 272.767 157.52 268.377 156.111 264.305C155.121 261.443 154.606 258.604 154.372 257.842Z"/>
</mask>
<path d="M154.372 257.842C153.803 255.996 154.32 255.427 153.976 253.941C153.727 252.863 153.646 252.33 152.883 250.805C152.705 250.449 152.246 245.19 152.04 241.502C151.171 233.096 150.048 192.548 148.681 185.166C147.183 177.078 144.406 170.978 143.325 165.585C142.245 160.192 142.995 154.602 142.515 143.218C142.337 139.007 141.198 130.037 141.797 122.246C142.396 114.455 141.548 97.8688 135.506 89.5895C132.211 85.0786 124.088 83.4862 116.079 81.3618C108.072 79.2374 98.8968 76.3545 96.2872 71.9746C95.6645 70.9303 94.0202 65.9905 94.0202 62.2261L67.5105 61.9362C67.26 65.4425 65.7895 70.6841 65.0482 71.931C62.4393 76.3069 53.4345 79.2374 45.4264 81.3618C37.4183 83.4862 29.2943 85.0786 26.0001 89.5895C19.9584 97.8688 19.1094 114.455 19.709 122.246C20.3078 130.037 19.1689 139.007 18.9914 143.218C18.5106 154.602 19.2607 160.192 18.1806 165.585C17.1001 170.978 14.3225 177.078 12.8251 185.166C11.4591 192.541 10.3369 233.023 9.46845 241.48C9.26475 245.111 8.79221 250.351 8.6163 250.704C7.85191 252.233 7.76137 252.768 7.512 253.849C7.16772 255.339 7.69387 255.907 7.12445 257.758C6.88897 258.521 6.37236 261.367 5.38044 264.235C3.96839 268.317 2.0012 272.717 2 273.557C1.99683 276.206 3.78692 285.496 5.54086 287.777C7.14828 289.866 14.0973 294.126 15.2362 294.126C16.3746 294.126 16.9441 292.986 16.9441 292.986C16.9441 292.986 18.9037 293.661 19.2218 292.274C19.6486 290.412 17.3689 289.275 16.5148 288.564C15.6611 287.852 13.5088 286.68 12.3708 284.402C11.2319 282.125 11.5274 273.369 12.8179 273.13C14.8613 272.752 14.8994 275.716 14.7617 278.197C14.666 279.908 14.4857 283.709 16.5724 283.914C20.4206 284.292 19.3655 276.689 19.3655 274.411C19.3655 272.134 20.7184 269.28 20.9312 267.294C21.3581 263.309 18.0845 259.038 18.0845 255.623C18.0845 254.698 19.0979 250.604 20.5738 244.999C23.9034 231.063 36.5904 188.889 36.5904 182.154C36.5904 177.133 37.6165 168.932 38.097 163.744C38.3932 160.539 40.0387 147.697 41.3463 137.03C42.6476 139.793 43.6229 140.607 44.4365 141.747C44.7244 147.968 45.8343 161.447 46.1813 165.264C46.6924 170.883 48.7346 175.739 47.6867 183.377C46.9576 188.687 43.4088 193.413 41.6644 197.12C37.9052 205.108 35.1446 216.067 34.1154 222.379C32.1907 234.18 31.655 239.409 30.9736 243.496C30.2926 247.583 26.6652 262.934 26.8355 272.811C27.0059 282.687 39.9474 343.139 40.1178 345.525C40.2881 347.908 39.6071 352.843 39.7775 355.909C39.9474 358.974 41.1395 364.593 41.1395 367.492C41.1395 370.387 36.9291 384.511 36.8823 391.842C36.7119 418.577 44.0533 463.957 44.2236 467.872C44.394 471.787 43.3389 474.15 43.1309 475.607C42.9228 477.065 42.1056 479.864 42.4177 481.631C39.7107 486.837 32.0072 494.751 29.9253 495.791C27.8433 496.832 26.6001 498.245 26.0517 499.441C25.815 499.957 26.0545 500.656 26.4627 500.942C25.9179 502.506 27.1115 503.241 27.8755 503.106C27.8569 503.813 28.333 504.309 28.7062 504.504C30.1413 505.254 31.0939 504.015 31.0939 504.015C31.0939 504.015 30.9609 505.194 32.5405 506.008C33.9867 506.759 35.963 505.159 35.963 505.159C35.963 505.159 35.0513 506.942 37.084 508.022C38.6041 508.828 41.1478 508.534 43.1471 507.656C46.3469 506.251 48.6961 503.229 48.9764 502.975C49.4708 502.518 51.4066 502.081 52.7448 500.898C54.8926 499 54.6242 497.824 55.3267 497.038C55.7559 496.562 59.1224 496.494 61.559 494.044C63.3443 492.249 62.6359 488.338 62.2539 486.869C61.6098 484.395 60.9478 481.528 60.9478 480.694C60.9478 479.864 60.8966 477.196 60.7926 475.532C60.6885 473.864 58.8496 470.509 58.7019 466.026C58.5721 462.094 68.3706 408.869 68.097 401.209C67.8234 393.545 65.9504 389.455 66.1203 384.348C66.2907 379.242 71.0589 367.659 71.9103 356.933C72.762 346.204 69.8669 343.48 70.2076 338.199C70.5483 332.921 77.0188 282.347 77.3599 276.387C77.6196 271.829 77.2761 269.312 77.3277 266.858C78.2387 267.076 79.6789 267.31 80.5974 267.287C82.0626 267.25 82.9211 266.982 84.2121 266.744C84.3876 269.353 83.8527 271.244 84.1466 276.387C84.4869 282.347 90.9574 332.921 91.2981 338.199C91.6388 343.48 88.7437 346.204 89.5954 356.933C90.4468 367.659 95.215 379.242 95.3853 384.348C95.5553 389.455 93.6822 393.545 93.4086 401.209C93.1355 408.869 102.934 462.094 102.805 466.026C102.656 470.509 100.817 473.864 100.713 475.532C100.609 477.196 100.558 479.864 100.558 480.694C100.558 481.528 99.8959 484.395 99.2518 486.869C98.8706 488.338 98.1614 492.249 99.9467 494.044C102.384 496.494 105.75 496.562 106.18 497.038C106.881 497.824 106.613 499 108.761 500.898C110.099 502.081 112.035 502.518 112.53 502.975C112.81 503.229 115.159 506.251 118.359 507.656C120.358 508.534 122.902 508.828 124.422 508.022C126.455 506.942 125.543 505.159 125.543 505.159C125.543 505.159 127.519 506.759 128.966 506.008C130.546 505.194 130.412 504.015 130.412 504.015C130.412 504.015 131.365 505.254 132.799 504.504C133.173 504.309 133.649 503.813 133.631 503.106C134.394 503.241 135.588 502.506 135.044 500.942C135.451 500.656 135.692 499.957 135.454 499.441C134.906 498.245 133.662 496.832 131.581 495.791C129.499 494.751 121.795 486.837 119.088 481.631C119.4 479.864 118.583 477.065 118.375 475.607C118.167 474.15 117.112 471.787 117.282 467.872C117.452 463.957 124.794 418.577 124.624 391.842C124.577 384.511 120.366 370.387 120.366 367.492C120.366 364.593 121.558 358.974 121.729 355.909C121.899 352.843 121.218 347.908 121.388 345.525C121.558 343.139 134.5 282.687 134.67 272.811C134.84 262.934 131.213 247.583 130.532 243.496C129.851 239.409 129.315 234.18 127.391 222.379C126.361 216.067 123.601 205.108 119.842 197.12C118.097 193.413 114.548 188.687 113.819 183.377C112.771 175.739 114.813 170.883 115.325 165.264C115.672 161.447 116.61 147.644 116.898 141.423C118.264 140.318 119.69 138.622 120.058 136.684C121.365 147.35 123.112 160.539 123.41 163.744C123.889 168.932 124.915 177.133 124.915 182.154C124.915 188.872 137.008 230.28 140.374 244.324C140.366 244.325 140.358 244.327 140.374 244.324C141.585 248.975 143.437 254.892 143.437 255.712C143.437 259.12 140.171 263.381 140.596 267.357C140.809 269.339 142.158 272.186 142.158 274.458C142.158 276.729 141.05 283.889 144.906 283.767C146.777 283.709 146.497 279.763 146.639 278.059C146.781 276.355 146.652 272.802 148.691 273.18C149.978 273.417 150.273 282.153 149.137 284.425C148.001 286.698 145.857 287.866 145.004 288.576C144.152 289.286 141.878 290.42 142.305 292.278C142.622 293.661 144.577 292.986 144.577 292.986C144.577 292.986 145.145 294.126 146.281 294.126C147.417 294.126 154.348 289.877 155.952 287.793C157.701 285.517 159.487 276.249 159.484 273.605C159.483 272.767 157.52 268.377 156.111 264.305C155.121 261.443 154.606 258.604 154.372 257.842Z" fill="#F6F9FE"/>
<path d="M154.372 257.842C153.803 255.996 154.32 255.427 153.976 253.941C153.727 252.863 153.646 252.33 152.883 250.805C152.705 250.449 152.246 245.19 152.04 241.502C151.171 233.096 150.048 192.548 148.681 185.166C147.183 177.078 144.406 170.978 143.325 165.585C142.245 160.192 142.995 154.602 142.515 143.218C142.337 139.007 141.198 130.037 141.797 122.246C142.396 114.455 141.548 97.8688 135.506 89.5895C132.211 85.0786 124.088 83.4862 116.079 81.3618C108.072 79.2374 98.8968 76.3545 96.2872 71.9746C95.6645 70.9303 94.0202 65.9905 94.0202 62.2261L67.5105 61.9362C67.26 65.4425 65.7895 70.6841 65.0482 71.931C62.4393 76.3069 53.4345 79.2374 45.4264 81.3618C37.4183 83.4862 29.2943 85.0786 26.0001 89.5895C19.9584 97.8688 19.1094 114.455 19.709 122.246C20.3078 130.037 19.1689 139.007 18.9914 143.218C18.5106 154.602 19.2607 160.192 18.1806 165.585C17.1001 170.978 14.3225 177.078 12.8251 185.166C11.4591 192.541 10.3369 233.023 9.46845 241.48C9.26475 245.111 8.79221 250.351 8.6163 250.704C7.85191 252.233 7.76137 252.768 7.512 253.849C7.16772 255.339 7.69387 255.907 7.12445 257.758C6.88897 258.521 6.37236 261.367 5.38044 264.235C3.96839 268.317 2.0012 272.717 2 273.557C1.99683 276.206 3.78692 285.496 5.54086 287.777C7.14828 289.866 14.0973 294.126 15.2362 294.126C16.3746 294.126 16.9441 292.986 16.9441 292.986C16.9441 292.986 18.9037 293.661 19.2218 292.274C19.6486 290.412 17.3689 289.275 16.5148 288.564C15.6611 287.852 13.5088 286.68 12.3708 284.402C11.2319 282.125 11.5274 273.369 12.8179 273.13C14.8613 272.752 14.8994 275.716 14.7617 278.197C14.666 279.908 14.4857 283.709 16.5724 283.914C20.4206 284.292 19.3655 276.689 19.3655 274.411C19.3655 272.134 20.7184 269.28 20.9312 267.294C21.3581 263.309 18.0845 259.038 18.0845 255.623C18.0845 254.698 19.0979 250.604 20.5738 244.999C23.9034 231.063 36.5904 188.889 36.5904 182.154C36.5904 177.133 37.6165 168.932 38.097 163.744C38.3932 160.539 40.0387 147.697 41.3463 137.03C42.6476 139.793 43.6229 140.607 44.4365 141.747C44.7244 147.968 45.8343 161.447 46.1813 165.264C46.6924 170.883 48.7346 175.739 47.6867 183.377C46.9576 188.687 43.4088 193.413 41.6644 197.12C37.9052 205.108 35.1446 216.067 34.1154 222.379C32.1907 234.18 31.655 239.409 30.9736 243.496C30.2926 247.583 26.6652 262.934 26.8355 272.811C27.0059 282.687 39.9474 343.139 40.1178 345.525C40.2881 347.908 39.6071 352.843 39.7775 355.909C39.9474 358.974 41.1395 364.593 41.1395 367.492C41.1395 370.387 36.9291 384.511 36.8823 391.842C36.7119 418.577 44.0533 463.957 44.2236 467.872C44.394 471.787 43.3389 474.15 43.1309 475.607C42.9228 477.065 42.1056 479.864 42.4177 481.631C39.7107 486.837 32.0072 494.751 29.9253 495.791C27.8433 496.832 26.6001 498.245 26.0517 499.441C25.815 499.957 26.0545 500.656 26.4627 500.942C25.9179 502.506 27.1115 503.241 27.8755 503.106C27.8569 503.813 28.333 504.309 28.7062 504.504C30.1413 505.254 31.0939 504.015 31.0939 504.015C31.0939 504.015 30.9609 505.194 32.5405 506.008C33.9867 506.759 35.963 505.159 35.963 505.159C35.963 505.159 35.0513 506.942 37.084 508.022C38.6041 508.828 41.1478 508.534 43.1471 507.656C46.3469 506.251 48.6961 503.229 48.9764 502.975C49.4708 502.518 51.4066 502.081 52.7448 500.898C54.8926 499 54.6242 497.824 55.3267 497.038C55.7559 496.562 59.1224 496.494 61.559 494.044C63.3443 492.249 62.6359 488.338 62.2539 486.869C61.6098 484.395 60.9478 481.528 60.9478 480.694C60.9478 479.864 60.8966 477.196 60.7926 475.532C60.6885 473.864 58.8496 470.509 58.7019 466.026C58.5721 462.094 68.3706 408.869 68.097 401.209C67.8234 393.545 65.9504 389.455 66.1203 384.348C66.2907 379.242 71.0589 367.659 71.9103 356.933C72.762 346.204 69.8669 343.48 70.2076 338.199C70.5483 332.921 77.0188 282.347 77.3599 276.387C77.6196 271.829 77.2761 269.312 77.3277 266.858C78.2387 267.076 79.6789 267.31 80.5974 267.287C82.0626 267.25 82.9211 266.982 84.2121 266.744C84.3876 269.353 83.8527 271.244 84.1466 276.387C84.4869 282.347 90.9574 332.921 91.2981 338.199C91.6388 343.48 88.7437 346.204 89.5954 356.933C90.4468 367.659 95.215 379.242 95.3853 384.348C95.5553 389.455 93.6822 393.545 93.4086 401.209C93.1355 408.869 102.934 462.094 102.805 466.026C102.656 470.509 100.817 473.864 100.713 475.532C100.609 477.196 100.558 479.864 100.558 480.694C100.558 481.528 99.8959 484.395 99.2518 486.869C98.8706 488.338 98.1614 492.249 99.9467 494.044C102.384 496.494 105.75 496.562 106.18 497.038C106.881 497.824 106.613 499 108.761 500.898C110.099 502.081 112.035 502.518 112.53 502.975C112.81 503.229 115.159 506.251 118.359 507.656C120.358 508.534 122.902 508.828 124.422 508.022C126.455 506.942 125.543 505.159 125.543 505.159C125.543 505.159 127.519 506.759 128.966 506.008C130.546 505.194 130.412 504.015 130.412 504.015C130.412 504.015 131.365 505.254 132.799 504.504C133.173 504.309 133.649 503.813 133.631 503.106C134.394 503.241 135.588 502.506 135.044 500.942C135.451 500.656 135.692 499.957 135.454 499.441C134.906 498.245 133.662 496.832 131.581 495.791C129.499 494.751 121.795 486.837 119.088 481.631C119.4 479.864 118.583 477.065 118.375 475.607C118.167 474.15 117.112 471.787 117.282 467.872C117.452 463.957 124.794 418.577 124.624 391.842C124.577 384.511 120.366 370.387 120.366 367.492C120.366 364.593 121.558 358.974 121.729 355.909C121.899 352.843 121.218 347.908 121.388 345.525C121.558 343.139 134.5 282.687 134.67 272.811C134.84 262.934 131.213 247.583 130.532 243.496C129.851 239.409 129.315 234.18 127.391 222.379C126.361 216.067 123.601 205.108 119.842 197.12C118.097 193.413 114.548 188.687 113.819 183.377C112.771 175.739 114.813 170.883 115.325 165.264C115.672 161.447 116.61 147.644 116.898 141.423C118.264 140.318 119.69 138.622 120.058 136.684C121.365 147.35 123.112 160.539 123.41 163.744C123.889 168.932 124.915 177.133 124.915 182.154C124.915 188.872 137.008 230.28 140.374 244.324C140.366 244.325 140.358 244.327 140.374 244.324C141.585 248.975 143.437 254.892 143.437 255.712C143.437 259.12 140.171 263.381 140.596 267.357C140.809 269.339 142.158 272.186 142.158 274.458C142.158 276.729 141.05 283.889 144.906 283.767C146.777 283.709 146.497 279.763 146.639 278.059C146.781 276.355 146.652 272.802 148.691 273.18C149.978 273.417 150.273 282.153 149.137 284.425C148.001 286.698 145.857 287.866 145.004 288.576C144.152 289.286 141.878 290.42 142.305 292.278C142.622 293.661 144.577 292.986 144.577 292.986C144.577 292.986 145.145 294.126 146.281 294.126C147.417 294.126 154.348 289.877 155.952 287.793C157.701 285.517 159.487 276.249 159.484 273.605C159.483 272.767 157.52 268.377 156.111 264.305C155.121 261.443 154.606 258.604 154.372 257.842Z" stroke="#9AA0A9" stroke-width="2.38414" mask="url(#path-1-outside-1_3071_61278)"/>
<path d="M73.319 65.091C72.8186 61.5887 80.9856 64.8329 80.9856 64.8329C80.9856 64.8329 80.6675 86.6371 80.7235 89.1348C77.9478 84.4571 74.0083 69.9117 73.319 65.091Z" fill="#9AA0A9"/>
<path d="M88.1349 65.091C88.6353 61.5887 80.4688 64.8329 80.4688 64.8329C80.4688 64.8329 80.7864 86.6371 80.7308 89.1348C83.5061 84.4571 87.446 69.9117 88.1349 65.091Z" fill="#9AA0A9"/>
<path d="M78.6545 95.4395C74.844 85.9173 75.5671 70.2521 68.3028 65.0701C68.0919 68.0205 67.6424 73.5639 68.1944 76.1648C69.1486 80.6638 73.2795 89.0185 78.6545 95.4395Z" fill="#9AA0A9"/>
<path d="M41.3398 104.593C50.5062 99.0935 66.445 97.2589 74.7966 100.317C80.9077 108.258 79.3524 139.549 79.3524 139.549C79.3524 139.549 58.5072 143.259 51.3215 138.203C44.6857 133.533 41.3398 118.444 41.3398 104.593Z" fill="#9AA0A9"/>
<path d="M59.6202 94.3085C53.1341 92.4858 46.4968 87.7287 42.5585 86.8988C37.874 85.9179 29.7519 89.7181 25.9967 96.0318C23.3691 100.447 20.4998 109.608 22.3927 119.635C33.749 116.768 33.7868 107.535 40.4118 102.048C44.746 98.458 54.9841 95.0153 59.6202 94.3085Z" fill="#9AA0A9"/>
<path d="M39.7591 106.401C40.4687 121.435 34.4472 155.311 28.7554 166.793C27.136 167.882 23.156 167.797 22.0763 166.708C19.9173 157.996 20.5729 130.599 22.6068 122.395C28.7585 121.681 33.4835 116.118 39.7591 106.401Z" fill="#9AA0A9"/>
<path d="M79.3249 142.34C79.3249 142.34 79.3249 152.9 79.3249 154.797C72.3635 155.205 63.985 157.717 58.7656 160.729C58.7656 158.229 58.7656 143.23 58.7656 143.23L79.3249 142.34Z" fill="#9AA0A9"/>
<path d="M79.3249 157.94C71.7568 158.353 63.576 160.987 58.7656 163.981C58.7656 166.205 58.7656 176.732 58.7656 176.732L79.3249 176.213C79.3249 176.213 79.3249 159.805 79.3249 157.94Z" fill="#9AA0A9"/>
<path d="M58.7656 179.382L59.316 192.627H79.3249V179.382H58.7656Z" fill="#9AA0A9"/>
<path d="M59.5352 195.809C62.0849 195.892 79.3415 195.809 79.3415 195.809C79.3415 195.809 79.3415 258.726 79.3415 259.467C76.417 259.453 70.8681 256.962 68.7671 255.293C68.6035 254.885 59.5352 220.375 59.5352 195.809Z" fill="#9AA0A9"/>
<path d="M38.4141 215.149C41.7004 222.707 57.2857 245.608 65.2104 252.557C56.5412 226.249 59.7802 204.238 55.4813 197.744C52.903 193.85 51.1979 191.137 47.9009 186.57C46.9932 197.189 40.3384 200.075 38.4141 215.149Z" fill="#9AA0A9"/>
<path d="M46.5908 147.818C48.7303 155.095 56.568 156.883 56.568 156.883V164.615C56.568 164.615 50.5557 163.001 48.4146 159.839C46.7242 157.343 46.0074 153.503 46.5908 147.818Z" fill="#9AA0A9"/>
<path d="M47.4142 160.132C49.3758 166.805 56.5619 168.444 56.5619 168.444V175.533C56.5619 175.533 51.0491 174.054 49.0863 171.155C47.5365 168.865 46.8789 165.345 47.4142 160.132Z" fill="#9AA0A9"/>
<path d="M48.927 173.366C50.5685 179.581 56.5821 181.107 56.5821 181.107V187.709C56.5821 187.709 51.9691 186.331 50.3263 183.631C49.0294 181.5 48.4795 178.221 48.927 173.366Z" fill="#9AA0A9"/>
<path d="M45.8363 134.557C48.3649 142.216 56.5771 143.341 56.5771 143.341V152.967C56.5771 152.967 50.5275 151.569 47.9413 147.823C45.9367 144.919 45.6409 141.688 45.8363 134.557Z" fill="#9AA0A9"/>
<path d="M38.5652 136.325C39.7175 143.901 36.7421 167.244 30.5547 166.972C32.3209 162.957 37.8774 141.771 38.5652 136.325Z" fill="#9AA0A9"/>
<path d="M18.774 169.222C26.4958 176.262 19.3573 196.365 15.141 221.582C13.7357 229.988 13.0869 239.582 12.5576 248.21C12.0648 248.68 11.5672 248.411 11.0868 248.144C10.6531 224.978 12.7176 191.025 18.774 169.222Z" fill="#9AA0A9"/>
<path d="M36.378 166.687C36.1854 173.432 35.6978 177.748 34.6435 183.838C32.0358 198.899 21.0885 233.313 18.4141 249.108C17.88 249.375 17.0854 249.21 16.7578 248.749C21.2465 225.756 26.7597 192.671 30.9819 179.02C32.7371 173.346 35.0286 170.927 36.378 166.687Z" fill="#9AA0A9"/>
<path d="M33.2992 169.683C32.3578 171.484 30.5645 174.837 29.3133 179.392C25.9468 191.647 18.69 227.68 15.215 248.632C14.681 249.059 13.9876 248.73 13.5469 248.377C16.9559 222.807 21.5974 188.373 24.6582 178.268C26.0039 173.826 30.8933 172.086 33.2992 169.683Z" fill="#9AA0A9"/>
<path d="M36.486 223.469C45.7981 240.92 68.5763 275.369 70.0079 309.663C70.5808 323.375 70.0297 373.138 56.3381 380.385C64.3922 363.739 66.9316 331.837 64.7365 313.277C61.7829 288.309 42.785 253.445 35.6172 226.954C35.6454 225.886 35.8554 224.205 36.486 223.469Z" fill="#9AA0A9"/>
<path d="M34.5994 234.613C39.4911 249.055 51.8469 272.765 54.9804 297.125C56.0517 305.452 53.2876 318.167 51.0381 325.743C49.3243 331.096 45.6559 330.02 45.1036 326.986C42.505 314.613 34.6975 302.299 33.0106 290.865C30.1385 271.396 30.9109 252.319 34.5994 234.613Z" fill="#9AA0A9"/>
<path d="M43.3702 374.3C32.3192 413.318 46.915 454.603 46.7046 469.887C46.6581 473.27 49.6224 473.664 49.8368 469.931C50.6274 456.156 52.1959 398.36 43.3702 374.3Z" fill="#9AA0A9"/>
<path d="M64.3164 379.38C46.3847 400.894 55.7421 425.485 53.8611 469.979C53.7344 472.961 56.9572 473.001 56.9977 470.023C57.1827 456.601 68.1158 399.016 64.3164 379.38Z" fill="#9AA0A9"/>
<path d="M60.4375 257.47C65.3602 261.845 72.1973 264.717 74.1113 269.366C76.3294 274.752 74.6585 290.971 72.7441 296.439C70.2829 278.801 63.1723 265.264 60.4375 257.47Z" fill="#9AA0A9"/>
<path d="M58.2437 296.467C58.2437 296.467 70.1142 343.717 55.6149 342.474C44.1128 341.489 58.2437 322.099 58.2437 296.467Z" fill="#9AA0A9"/>
<path d="M35.2031 308.745C33.8327 301.208 44.5418 330.14 44.8881 336.108C45.1585 340.778 41.5057 346.85 41.2952 343.268C40.8342 335.417 36.3634 318.029 35.2031 308.745Z" fill="#9AA0A9"/>
<path d="M12.1651 269.61C13.215 266.871 13.9127 260.451 13.7443 255.463C13.7443 255.463 10.8864 254.639 9.76109 254.577C7.21496 262.5 -2.09041 277.435 11.2557 288.697C5.66433 277.268 10.9194 272.862 12.1651 269.61Z" fill="#9AA0A9"/>
<path d="M19.2598 266.627C18.8969 263.207 17.7358 259.271 16.0593 255.845C15.2484 259.099 14.1469 266.007 14.7004 268.61C15.3234 271.544 16.5695 273.128 16.4131 278.529C17.5579 275.732 19.6223 270.047 19.2598 266.627Z" fill="#9AA0A9"/>
<path d="M47.3597 478.254C44.0464 485.644 35.8779 493.911 30.4453 497.366C32.6785 501.313 36.8523 503.501 40.4202 504.521C47.5567 498.914 55.4214 486.918 57.2055 478.762C55.1669 479.529 49.9082 479.016 47.3597 478.254Z" fill="#9AA0A9"/>
<path d="M47.7422 83.4001C51.2469 82.467 61.7598 79.4293 65.2641 77.3247C67.3667 82.467 69.9367 88.1056 72.5066 92.7754C66.6381 92.2671 54.2838 88.5385 47.7422 83.4001Z" fill="#9AA0A9"/>
<path d="M82.793 95.4395C86.6034 85.9173 85.8811 70.2521 93.1455 65.0701C93.3559 68.0205 93.8054 73.5639 93.2531 76.1648C92.2993 80.6638 88.168 89.0185 82.793 95.4395Z" fill="#9AA0A9"/>
<path d="M120.13 104.593C110.964 99.0935 95.0251 97.2589 86.6735 100.317C80.5627 108.258 82.1185 139.549 82.1185 139.549C82.1185 139.549 102.963 143.259 110.149 138.203C116.784 133.533 120.13 118.444 120.13 104.593Z" fill="#9AA0A9"/>
<path d="M101.844 94.3085C108.33 92.4858 114.967 87.7287 118.905 86.8988C123.59 85.9179 131.712 89.7181 135.467 96.0318C138.095 100.447 140.964 109.608 139.071 119.635C127.714 116.768 127.677 107.535 121.052 102.048C116.718 98.458 106.48 95.0153 101.844 94.3085Z" fill="#9AA0A9"/>
<path d="M121.682 106.401C120.973 121.435 126.994 155.311 132.686 166.793C134.306 167.882 138.286 167.797 139.365 166.708C141.524 157.996 140.868 130.599 138.834 122.395C132.683 121.681 127.958 116.118 121.682 106.401Z" fill="#9AA0A9"/>
<path d="M82.1172 142.34C82.1172 142.34 82.1172 152.9 82.1172 154.797C89.0786 155.205 97.4563 157.717 102.676 160.729C102.676 158.229 102.676 143.23 102.676 143.23L82.1172 142.34Z" fill="#9AA0A9"/>
<path d="M82.1172 157.94C89.6845 158.353 97.8661 160.987 102.676 163.981C102.676 166.205 102.676 176.732 102.676 176.732L82.1172 176.213C82.1172 176.213 82.1172 159.805 82.1172 157.94Z" fill="#9AA0A9"/>
<path d="M102.676 179.382L102.125 192.627H82.1172V179.382H102.676Z" fill="#9AA0A9"/>
<path d="M101.923 195.809C99.3735 195.892 82.1172 195.809 82.1172 195.809C82.1172 195.809 82.1172 258.726 82.1172 259.467C85.0413 259.453 90.5899 256.962 92.6913 255.293C92.8549 254.885 101.923 220.375 101.923 195.809Z" fill="#9AA0A9"/>
<path d="M123.042 215.149C119.756 222.707 104.171 245.608 96.2461 252.557C104.915 226.249 101.676 204.238 105.975 197.744C108.553 193.85 110.259 191.137 113.556 186.57C114.463 197.189 121.118 200.075 123.042 215.149Z" fill="#9AA0A9"/>
<path d="M114.852 147.818C112.713 155.095 104.875 156.883 104.875 156.883V164.615C104.875 164.615 110.888 163.001 113.028 159.839C114.719 157.343 115.436 153.503 114.852 147.818Z" fill="#9AA0A9"/>
<path d="M114.023 160.132C112.062 166.805 104.875 168.444 104.875 168.444V175.533C104.875 175.533 110.388 174.054 112.351 171.155C113.901 168.865 114.558 165.345 114.023 160.132Z" fill="#9AA0A9"/>
<path d="M112.53 173.366C110.889 179.581 104.875 181.107 104.875 181.107V187.709C104.875 187.709 109.488 186.331 111.131 183.631C112.428 181.5 112.978 178.221 112.53 173.366Z" fill="#9AA0A9"/>
<path d="M115.616 134.557C113.088 142.216 104.875 143.341 104.875 143.341V152.967C104.875 152.967 110.925 151.569 113.511 147.823C115.515 144.919 115.812 141.688 115.616 134.557Z" fill="#9AA0A9"/>
<path d="M122.873 136.325C121.72 143.901 124.696 167.244 130.883 166.972C129.117 162.957 123.56 141.771 122.873 136.325Z" fill="#9AA0A9"/>
<path d="M142.681 169.222C134.959 176.262 142.097 196.365 146.313 221.582C147.719 229.988 148.368 239.582 148.897 248.21C149.39 248.68 149.888 248.411 150.368 248.144C150.802 224.978 148.737 191.025 142.681 169.222Z" fill="#9AA0A9"/>
<path d="M125.074 166.687C125.267 173.432 125.754 177.748 126.809 183.838C129.416 198.899 140.364 233.313 143.039 249.108C143.573 249.375 144.367 249.21 144.695 248.749C140.206 225.756 134.693 192.671 130.47 179.02C128.715 173.346 126.424 170.927 125.074 166.687Z" fill="#9AA0A9"/>
<path d="M128.145 169.683C129.086 171.484 130.879 174.837 132.131 179.392C135.497 191.647 142.754 227.68 146.229 248.632C146.763 249.059 147.456 248.73 147.898 248.377C144.488 222.807 139.846 188.373 136.786 178.268C135.44 173.826 130.55 172.086 128.145 169.683Z" fill="#9AA0A9"/>
<path d="M124.964 223.469C115.652 240.92 92.8743 275.369 91.4424 309.663C90.8698 323.375 91.4205 373.138 105.112 380.385C97.0584 363.739 94.519 331.837 96.7145 313.277C99.6673 288.309 118.666 253.445 125.834 226.954C125.805 225.886 125.595 224.205 124.964 223.469Z" fill="#9AA0A9"/>
<path d="M126.845 234.613C121.954 249.055 109.599 272.765 106.464 297.125C105.393 305.452 108.158 318.167 110.407 325.743C112.12 331.096 115.789 330.02 116.341 326.986C118.94 314.613 126.747 302.299 128.434 290.865C131.307 271.396 130.534 252.319 126.845 234.613Z" fill="#9AA0A9"/>
<path d="M118.084 374.3C129.135 413.318 114.54 454.603 114.75 469.887C114.796 473.27 111.832 473.664 111.618 469.931C110.827 456.156 109.258 398.36 118.084 374.3Z" fill="#9AA0A9"/>
<path d="M97.1453 379.38C115.077 400.894 105.72 425.485 107.601 469.979C107.727 472.961 104.505 473.001 104.464 470.023C104.279 456.601 93.3456 399.016 97.1453 379.38Z" fill="#9AA0A9"/>
<path d="M101.009 257.47C96.0858 261.845 89.2488 264.717 87.3344 269.366C85.1163 274.752 86.7872 290.971 88.702 296.439C91.1631 278.801 98.2738 265.264 101.009 257.47Z" fill="#9AA0A9"/>
<path d="M103.227 296.467C103.227 296.467 91.3573 343.717 105.857 342.474C117.358 341.489 103.227 322.099 103.227 296.467Z" fill="#9AA0A9"/>
<path d="M126.25 308.745C127.62 301.208 116.911 330.14 116.565 336.108C116.294 340.778 119.947 346.85 120.158 343.268C120.619 335.417 125.089 318.029 126.25 308.745Z" fill="#9AA0A9"/>
<path d="M149.296 269.61C148.246 266.871 147.548 260.451 147.716 255.463C147.716 255.463 150.575 254.639 151.7 254.577C154.246 262.5 163.551 277.435 150.205 288.697C155.796 277.268 150.542 272.862 149.296 269.61Z" fill="#9AA0A9"/>
<path d="M142.198 266.627C142.561 263.207 143.722 259.271 145.399 255.845C146.21 259.099 147.311 266.007 146.758 268.61C146.134 271.544 144.889 273.128 145.045 278.529C143.9 275.732 141.836 270.047 142.198 266.627Z" fill="#9AA0A9"/>
<path d="M114.104 478.254C117.417 485.644 125.586 493.911 131.018 497.366C128.785 501.313 124.611 503.501 121.043 504.521C113.907 498.914 106.042 486.918 104.258 478.762C106.297 479.529 111.556 479.016 114.104 478.254Z" fill="#9AA0A9"/>
<path d="M113.698 83.4001C110.193 82.467 99.68 79.4293 96.1757 77.3247C94.0731 82.467 91.5032 88.1056 88.9336 92.7754C94.8018 92.2671 107.156 88.5385 113.698 83.4001Z" fill="#9AA0A9"/>
<path d="M41.7748 112.159C39.7607 124.58 42.3243 135.993 45.3783 139.571C49.973 144.956 65.2792 146.904 71.0398 138.788C75.8728 131.978 75.0258 119.156 69.1632 114.649C62.6989 109.682 47.5095 108.8 41.7748 112.159Z" fill="#9AA0A9"/>
<path d="M119.762 112.159C121.775 124.58 119.212 135.993 116.159 139.571C111.564 144.956 96.2577 146.904 90.4968 138.788C85.6638 131.978 86.5108 119.156 92.3734 114.649C98.8376 109.682 114.027 108.8 119.762 112.159Z" fill="#9AA0A9"/>
<path d="M106.612 12.4895L106.612 12.4895C103.815 7.38603 98.1629 3.7072 91.8269 1.88347C85.4929 0.060318 78.5925 0.126144 73.3839 2.3797L73.2247 2.44859L73.0533 2.42126C64.2892 1.0236 59.1609 6.3332 55.2566 10.6917C54.3383 11.7167 52.9133 14.016 51.375 17.1189C49.8453 20.2045 48.2278 24.0353 46.9127 28.0873C45.5969 32.1416 44.5897 36.3996 44.2697 40.344C43.949 44.2978 44.3239 47.8763 45.7112 50.6172L45.7112 50.6173C50.3641 59.8122 60.2128 62.2066 63.7925 62.6703L63.7936 62.6704C64.0808 62.7082 64.3861 62.7487 64.7175 62.7927C65.115 62.8455 65.55 62.9033 66.0367 62.9672L94.7442 63.5536C103.908 62.3625 113.031 59.3956 119.427 53.0161C115.037 52.0659 112.471 49.6124 111.092 46.5817C109.62 43.3483 109.523 39.5147 109.853 36.2799C110.173 33.1371 110.115 28.5469 109.593 24.044C109.07 19.5248 108.089 15.1838 106.612 12.4895Z" fill="#9AA0A9" stroke="#9AA0A9" stroke-width="1.19207"/>
<path d="M101.268 20.0175L101.268 20.0183C102.655 23.6472 102.958 28.4517 102.945 32.2201C102.939 34.1294 102.85 35.8216 102.763 37.037C102.759 37.0899 102.755 37.1419 102.751 37.193C103.136 37.3239 103.479 37.5572 103.767 37.8703C103.767 37.8703 103.767 37.8704 103.767 37.8704L102.738 38.8195L101.268 20.0175ZM101.268 20.0175C99.0844 14.3129 92.3995 6.6 80.4823 6.6H80.4823H80.4822H80.4822H80.4822H80.4822H80.4821H80.4821H80.4821H80.4821H80.4821H80.482H80.482H80.482H80.482H80.482H80.4819H80.4819H80.4819H80.4819H80.4818H80.4818H80.4818H80.4818H80.4818H80.4817H80.4817H80.4817H80.4817H80.4816H80.4816H80.4816H80.4816H80.4816H80.4815H80.4815H80.4815H80.4815H80.4815H80.4814H80.4814H80.4814H80.4814H80.4813H80.4813H80.4813H80.4813H80.4813H80.4812H80.4812H80.4812H80.4812H80.4811H80.4811H80.4811H80.4811H80.4811H80.481H80.481H80.481H80.481H80.481H80.4809H80.4809H80.4809H80.4809H80.4808H80.4808H80.4808H80.4808H80.4808H80.4807H80.4807H80.4807H80.4807H80.4806H80.4806H80.4806H80.4806H80.4806H80.4805H80.4805H80.4805H80.4805H80.4805H80.4804H80.4804H80.4804H80.4804H80.4803H80.4803H80.4803H80.4803H80.4803H80.4802H80.4802H80.4802H80.4802H80.4801H80.4801H80.4801H80.4801H80.4801H80.48H80.48H80.48H80.48H80.48H80.4799H80.4799H80.4799H80.4799H80.4798H80.4798H80.4798H80.4798H80.4798H80.4797H80.4797H80.4797H80.4797H80.4797H80.4796H80.4796H80.4796H80.4796H80.4795H80.4795H80.4795H80.4795H80.4795H80.4794H80.4794H80.4794H80.4794H80.4793H80.4793H80.4793H80.4793H80.4793H80.4792H80.4792H80.4792H80.4792H80.4792H80.4791H80.4791H80.4791H80.4791H80.479H80.479H80.479H80.479H80.479H80.4789H80.4789H80.4789H80.4789H80.4788H80.4788H80.4788H80.4788H80.4788H80.4787H80.4787H80.4787H80.4787H80.4787H80.4786H80.4786H80.4786H80.4786H80.4785H80.4785H80.4785H80.4785H80.4785H80.4784H80.4784H80.4784H80.4784H80.4784H80.4783H80.4783H80.4783H80.4783H80.4782H80.4782H80.4782H80.4782H80.4782H80.4781H80.4781H80.4781H80.4781H80.478H80.478H80.478H80.478H80.478H80.4779H80.4779H80.4779H80.4779H80.4779H80.4778H80.4778H80.4778H80.4778H80.4777H80.4777H80.4777H80.4777H80.4777H80.4776H80.4776H80.4776H80.4776H80.4776H80.4775H80.4775H80.4775H80.4775H80.4774H80.4774H80.4774H80.4774H80.4774H80.4773H80.4773H80.4773H80.4773H80.4772H80.4772H80.4772H80.4772H80.4772H80.4771H80.4771H80.4771H80.4771H80.4771H80.477H80.477H80.477H80.477H80.4769H80.4769H80.4769H80.4769H80.4769H80.4768H80.4768H80.4768H80.4768H80.4767H80.4767H80.4767H80.4767H80.4767H80.4766H80.4766H80.4766H80.4766H80.4766H80.4765H80.4765H80.4765H80.4765H80.4764H80.4764H80.4764H80.4764H80.4764H80.4763H80.4763H80.4763H80.4763H80.4763H80.4762H80.4762H80.4762H80.4762H80.4761H80.4761H80.4761H80.4761H80.4761H80.476H80.476H80.476H80.476H80.476H80.4759H80.4759H80.4759H80.4759H80.4758H80.4758H80.4758H80.4758H80.4758H80.4757H80.4757H80.4757H80.4757H80.4756H80.4756H80.4756H80.4756H80.4756H80.4755H80.4755H80.4755H80.4755H80.4755H80.4754H80.4754H80.4754H80.4754H80.4753H80.4753H80.4753H80.4753H80.4753H80.4752H80.4752H80.4752H80.4752H80.4751H80.4751H80.4751H80.4751H80.4751H80.475H80.475H80.475H80.475H80.475H80.4749H80.4749H80.4749H80.4749H80.4748H80.4748H80.4748H80.4748H80.4748H80.4747H80.4747H80.4747H80.4747H80.4747H80.4746H80.4746H80.4746H80.4746H80.4745H80.4745H80.4745H80.4745H80.4745H80.4744H80.4744H80.4744H80.4744H80.4743H80.4743H80.4743H80.4743H80.4743H80.4742H80.4742H80.4742H80.4742H80.4742H80.4741H80.4741H80.4741H80.4741H80.474H80.474H80.474H80.474H80.474H80.4739H80.4739H80.4739H80.4739H80.4739H80.4738H80.4738H80.4738H80.4738H80.4737H80.4737H80.4737H80.4737H80.4737H80.4736H80.4736H80.4736H80.4736H80.4735H80.4735H80.4735H80.4735H80.4735H80.4734H80.4734H80.4734H80.4734H80.4734H80.4733H80.4733H80.4733H80.4733H80.4732H80.4732H80.4732H80.4732H80.4732H80.4731H80.4731H80.4731H80.4731H80.473H80.473H80.473H80.473H80.473H80.4729H80.4729H80.4729H80.4729H80.4729H80.4728H80.4728H80.4728H80.4728H80.4727H80.4727H80.4727H80.4727H80.4727H80.4726H80.4726H80.4726H80.4726H80.4725H80.4725H80.4725H80.4725H80.4725H80.4724H80.4724H80.4724H80.4724H80.4724H80.4723H80.4723H80.4723H80.4723H80.4722H80.4722H80.4722H80.4722H80.4722H80.4721H80.4721H80.4721H80.4721H80.472H80.472H80.472H80.472H80.472H80.4719H80.4719H80.4719H80.4719H80.4719H80.4718H80.4718H80.4718H80.4718H80.4717H80.4717H80.4717H80.4717H80.4717H80.4716H80.4716H80.4716H80.4716H80.4715H80.4715H80.4715H80.4715H80.4715H80.4714H80.4714H80.4714H80.4714H80.4714H80.4713H80.4713H80.4713H80.4713H80.4712H80.4712H80.4712H80.4712H80.4712H80.4711H80.4711H80.4711H80.4711H80.4711H80.471H80.471H80.471H80.471H80.4709H80.4709H80.4709H80.4709H80.4709H80.4708H80.4708H80.4708H80.4708H80.4707H80.4707H80.4707H80.4707H80.4707H80.4706H80.4706H80.4706H80.4706H80.4705H80.4705H80.4705H80.4705H80.4705H80.4704H80.4704H80.4704H80.4704H80.4704H80.4703H80.4703H80.4703H80.4703H80.4702H80.4702H80.4702H80.4702H80.4702H80.4701H80.4701H80.4701H80.4701H80.47H80.47H80.47H80.47H80.47H80.4699H80.4699H80.4699H80.4699H80.4699H80.4698H80.4698H80.4698H80.4698H80.4697H80.4697H80.4697H80.4697H80.4697H80.4696H80.4696H80.4696H80.4696H80.4695H80.4695H80.4695H80.4695H80.4695H80.4694H80.4694H80.4694H80.4694H80.4694H80.4693H80.4693H80.4693H80.4693H80.4692H80.4692H80.4692H80.4692H80.4692H80.4691H80.4691H80.4691H80.4691H80.469H80.469H80.469H80.469H80.469H80.4689H80.4689H80.4689H80.4689H80.4688H80.4688H80.4688H80.4688H80.4688H80.4687H80.4687H80.4687H80.4687H80.4687H80.4686H80.4686H80.4686H80.4686H80.4685H80.4685H80.4685H80.4685H80.4685H80.4684H80.4684H80.4684H80.4684H80.4683H80.4683H80.4683H80.4683H80.4683H80.4682H80.4682H80.4682H80.4682H80.4681H80.4681H80.4681H80.4681H80.4681H80.468H80.468H80.468H80.468H80.468H80.4679H80.4679H80.4679H80.4679H80.4678H80.4678H80.4678H80.4678H80.4678H80.4677H80.4677H80.4677H80.4677H80.4676H80.4676H80.4676H80.4676H80.4676H80.4675H80.4675H80.4675H80.4675H80.4675H80.4674H80.4674H80.4674H80.4674H80.4673H80.4673H80.4673H80.4673H80.4673H80.4672H80.4672H80.4672H80.4672H80.4671H80.4671H80.4671H80.4671H80.4671H80.467H80.467H80.467H80.467H80.4669H80.4669H80.4669H80.4669H80.4669H80.4668H80.4668H80.4668H80.4668H80.4668H80.4667H80.4667H80.4667H80.4667H80.4666H80.4666H80.4666H80.4666H80.4666H80.4665H80.4665H80.4665H80.4665H80.4664H80.4664H80.4664H80.4664H80.4664H80.4663H80.4663H80.4663H80.4663H80.4662H80.4662H80.4662H80.4662H80.4662H80.4661H80.4661H80.4661H80.4661H80.4661H80.466H80.466H80.466H80.466H80.4659H80.4659H80.4659H80.4659H80.4659H80.4658H80.4658H80.4658H80.4658H80.4657H80.4657H80.4657H80.4657H80.4657H80.4656H80.4656H80.4656H80.4656H80.4656H80.4655H80.4655H80.4655H80.4655H80.4654H80.4654H80.4654H80.4654H80.4654H80.4653H80.4653H80.4653H80.4653H80.4652H80.4652H80.4652H80.4652H80.4652H80.4651H80.4651H80.4651H80.4651H80.465H80.465H80.465H80.465H80.465H80.4649H80.4649H80.4649H80.4649H80.4649H80.4648H80.4648H80.4648H80.4648H80.4647H80.4647H80.4647H80.4647H80.4647H80.4646H80.4646H80.4646H80.4646H80.4645H80.4645H80.4645H80.4645H80.4645H80.4644H80.4644H80.4644H80.4644H80.4643H80.4643H80.4643H80.4643H80.4643H80.4642H80.4642H80.4642H80.4642H80.4642H80.4641H80.4641H80.4641H80.4641H80.464H80.464H80.464H80.464H80.464H80.4639H80.4639H80.4639H80.4639H80.4638H80.4638H80.4638H80.4638H80.4638H80.4637H80.4637H80.4637H80.4637H80.4636H80.4636H80.4636H80.4636H80.4636H80.4635H80.4635H80.4635H80.4635H80.4635H80.4634H80.4634H80.4634H80.4634H80.4633H80.4633H80.4633H80.4633H80.4633H80.4632H80.4632H80.4632H80.4632H80.4631H80.4631H80.4631H80.4631H80.4631H80.463H80.463H80.463H80.463H80.463H80.4629H80.4629H80.4629H80.4629H80.4628H80.4628H80.4628H80.4628H80.4628H80.4627H80.4627H80.4627H80.4627H80.4626H80.4626H80.4626H80.4626H80.4626H80.4625H80.4625H80.4625H80.4625H80.4625H80.4624H80.4624H80.4624H80.4624H80.4623H80.4623H80.4623H80.4623H80.4623H80.4622H80.4622H80.4622H80.4622H80.4621H80.4621H80.4621H80.4621H80.4621H80.462H80.462H80.462H80.462H80.4619H80.4619H80.4619H80.4619H80.4619H80.4618H80.4618H80.4618H80.4618H80.4618H80.4617H80.4617H80.4617H80.4617H80.4616H80.4616H80.4616H80.4616H80.4616H80.4615H80.4615H80.4615H80.4615H80.4614H80.4614H80.4614H80.4614H80.4614H80.4613H80.4613H80.4613H80.4613H80.4613H80.4612H80.4612H80.4612H80.4612H80.4611H80.4611H80.4611H80.4611H80.4611H80.461H80.461H80.461H80.461H80.4609H80.4609H80.4609H80.4609H80.4609H80.4608H80.4608H80.4608H80.4608H80.4607H80.4607H80.4607H80.4607H80.4607H80.4606H80.4606H80.4606H80.4606H80.4606H80.4605H80.4605H80.4605H80.4605H80.4604H80.4604H80.4604H80.4604H80.4604H80.4603H80.4603H80.4603H80.4603H80.4602H80.4602H80.4602H80.4602H80.4602H80.4601H80.4601H80.4601H80.4601H80.4601H80.46H80.46C68.5428 6.6 61.8578 14.3129 59.6744 20.0175L59.6741 20.0183M101.268 20.0175L59.6741 20.0183M57.382 37.9114C56.5783 38.7433 56.5558 39.9426 56.6247 40.7477C56.7025 41.6569 56.9568 42.6601 57.2415 43.575C57.5303 44.5032 57.8726 45.4095 58.158 46.1375C58.2649 46.4103 58.3586 46.6456 58.4382 46.8456C58.5868 47.2188 58.6864 47.4688 58.7314 47.6095L57.382 37.9114ZM57.382 37.9114C57.6456 37.6374 57.9294 37.4478 58.2166 37.3254M57.382 37.9114L58.2166 37.3254M61.2453 53.8944C60.6551 53.6439 60.1964 53.2249 59.8626 52.7333C59.3991 52.0506 59.1774 51.2386 59.0519 50.553C58.9257 49.8634 58.8737 49.1573 58.8337 48.6147L58.8317 48.5876C58.8105 48.3009 58.7935 48.072 58.7722 47.8817C58.7517 47.6977 58.7344 47.6224 58.7317 47.6109L61.2453 53.8944ZM61.2453 53.8944C62.2696 57.0222 64.3617 60.8882 67.1206 63.8767L67.1216 63.8779C69.5493 66.5016 74.9175 68.5433 81.3241 68.3921L61.2453 53.8944ZM59.6741 20.0183C58.2876 23.6472 57.9868 28.429 58.0027 32.1762M59.6741 20.0183L58.0027 32.1762M58.0027 32.1762C58.0107 34.0747 58.101 35.7559 58.1892 36.9631M58.0027 32.1762L58.1892 36.9631M58.1892 36.9631C58.1984 37.0891 58.2076 37.2099 58.2166 37.3254M58.1892 36.9631L58.2166 37.3254M94.7163 63.3243C91.8669 66.2465 87.809 68.2424 81.325 68.392L94.7163 63.3243ZM94.7163 63.3243C97.3138 60.661 98.8788 56.6127 99.7075 53.8899M94.7163 63.3243L99.7075 53.8899M99.7075 53.8899C100.293 53.6389 100.748 53.222 101.08 52.7333C101.543 52.0507 101.765 51.2386 101.89 50.5531M99.7075 53.8899L101.89 50.5531M101.89 50.5531C102.017 49.8634 102.069 49.1572 102.109 48.6147M101.89 50.5531L102.109 48.6147M102.109 48.6147L102.111 48.5876M102.109 48.6147L102.111 48.5876M102.111 48.5876C102.132 48.301 102.149 48.072 102.17 47.8817M102.111 48.5876L102.17 47.8817M102.17 47.8817C102.191 47.6977 102.208 47.6223 102.211 47.6109L102.17 47.8817Z" fill="#9AA0A9" stroke="#F6F9FE" stroke-width="2.8"/>
</svg>
