<svg width="161" height="500" viewBox="0 0 161 500" fill="none" xmlns="http://www.w3.org/2000/svg">
<path d="M106.264 12.4915L106.264 12.4914C103.467 7.38799 97.8152 3.70916 91.4793 1.88543C85.1453 0.0622787 78.2448 0.128105 73.0362 2.38166L72.877 2.45055L72.7057 2.42323C63.9416 1.02556 58.8132 6.33516 54.9089 10.6936C53.9906 11.7187 52.5657 14.0179 51.0274 17.1209C49.4977 20.2065 47.8801 24.0373 46.565 28.0893C45.2492 32.1435 44.242 36.4016 43.9221 40.346C43.6014 44.2998 43.9763 47.8783 45.3635 50.6192L45.3636 50.6192C50.0164 59.8142 59.8651 62.2085 63.4448 62.6722L63.4459 62.6724C63.7331 62.7101 64.0384 62.7507 64.3697 62.7947C64.7672 62.8474 65.2023 62.9052 65.689 62.9691L94.3965 63.5555C103.56 62.3644 112.683 59.3976 119.079 53.0181C114.69 52.0678 112.123 49.6144 110.744 46.5836C109.272 43.3502 109.175 39.5166 109.505 36.2819C109.825 33.139 109.767 28.5489 109.245 24.046C108.722 19.5268 107.741 15.1858 106.264 12.4915Z" fill="#9AA0A9" stroke="#9AA0A9" stroke-width="1.19207"/>
<mask id="path-2-outside-1_2516_89051" maskUnits="userSpaceOnUse" x="-0.246094" y="61.3164" width="161" height="439" fill="black">
<rect fill="white" x="-0.246094" y="61.3164" width="161" height="439"/>
<path d="M159.243 275.088C159.243 277.734 157.46 287.003 155.709 289.275C154.105 291.36 147.172 295.607 146.04 295.607C144.9 295.607 144.333 294.475 144.333 294.475C144.333 294.475 142.375 295.146 142.061 293.764C141.632 291.904 143.912 290.771 144.765 290.062C145.615 289.352 147.755 288.18 148.895 285.908C150.027 283.636 149.737 274.901 148.45 274.664C146.409 274.285 146.54 277.838 146.397 279.544C146.254 281.249 146.536 285.193 144.666 285.254C140.806 285.374 141.914 278.213 141.914 275.94C141.914 273.669 140.568 270.825 140.354 268.839C139.929 264.867 143.197 260.604 143.197 257.199C143.197 256.374 141.342 250.46 140.131 245.806C136.764 231.762 124.673 190.357 124.673 183.64C124.673 181.021 124.395 177.545 124.065 174.08C124.018 173.623 123.97 173.166 123.926 172.71C123.875 172.247 123.831 171.78 123.787 171.323C123.732 170.834 123.684 170.355 123.632 169.882C123.581 169.376 123.529 168.881 123.481 168.402C123.426 167.88 123.374 167.374 123.327 166.884C123.271 166.334 123.223 165.806 123.172 165.305C123.172 165.278 123.168 165.256 123.168 165.228C123.132 164.876 123.08 164.343 123.009 163.66C122.957 163.16 122.89 162.577 122.826 161.922C122.759 161.356 122.695 160.74 122.624 160.074C122.556 159.464 122.481 158.809 122.409 158.121C122.33 157.439 122.247 156.724 122.167 155.981C122.084 155.238 121.996 154.474 121.905 153.682V153.676C121.81 152.84 121.714 151.976 121.615 151.107V151.102C121.504 150.145 121.389 149.166 121.274 148.181C121.274 148.176 121.274 148.175 121.274 148.175C121.147 147.042 121.016 145.898 120.884 144.759V144.754C120.714 143.312 120.543 141.87 120.384 140.476C120.376 140.476 120.376 140.468 120.384 140.464C120.13 138.324 119.884 136.271 119.657 134.408C119.653 134.408 119.657 134.401 119.657 134.401C119.602 133.972 119.554 133.555 119.503 133.146C119.376 133.841 119.102 134.845 118.784 136.029C118.597 136.723 118.391 137.474 118.188 138.264C118.184 138.268 118.188 138.268 118.188 138.268C118.006 138.979 117.827 139.71 117.656 140.448C117.493 141.171 117.346 141.905 117.219 142.62C117.184 142.874 117.136 143.125 117.104 143.378C117.045 143.791 116.985 144.281 116.918 144.853C116.918 144.858 116.918 144.858 116.918 144.858C116.846 145.502 116.771 146.239 116.691 147.042C116.628 147.691 116.56 148.39 116.493 149.116C116.433 149.744 116.378 150.398 116.318 151.064C116.27 151.674 116.215 152.301 116.163 152.928C116.107 153.517 116.06 154.106 116.016 154.7C115.965 155.266 115.921 155.833 115.873 156.394C115.834 156.944 115.79 157.494 115.746 158.033C115.702 158.566 115.659 159.09 115.619 159.595C115.579 160.118 115.536 160.63 115.5 161.119C115.46 161.631 115.417 162.126 115.377 162.593C115.337 163.105 115.301 163.583 115.262 164.024C115.222 164.546 115.186 165.019 115.151 165.427C115.123 165.734 115.103 166.01 115.079 166.246C114.567 171.868 112.53 177.226 113.578 184.861C114.305 190.17 117.851 194.895 119.598 198.603C123.358 206.59 126.114 217.553 127.151 223.863C129.069 235.663 129.609 240.894 130.292 244.981C130.971 249.068 134.596 264.416 134.429 274.296C134.258 284.17 121.313 344.623 121.143 347.006C120.972 349.388 121.655 354.328 121.484 357.394C121.313 360.463 120.126 366.078 120.126 368.973C120.126 371.871 124.331 386 124.383 393.326C124.387 394.954 124.371 396.582 124.331 398.206C124.244 402.209 124.037 406.204 123.759 410.198C123.474 414.447 123.108 418.696 122.699 422.941C122.29 427.166 121.837 431.391 121.345 435.612C120.888 439.539 120.404 443.463 119.904 447.382C119.471 450.733 119.026 454.085 118.573 457.432C118.232 459.938 117.89 462.435 117.557 464.937C117.303 466.851 117.061 468.678 117.132 470.596C117.156 471.163 117.176 471.735 117.199 472.303C117.235 473.447 117.279 474.59 117.287 475.734C117.315 482.314 120.07 483.326 123.612 485.606C126.936 487.742 130.847 490.176 136.736 491.431C138.944 491.903 140.886 495.799 136.149 496.398C133.687 496.704 113.792 498.316 108.035 498.316C105.426 498.316 102.34 497.701 101.34 495.434C100.244 492.972 100.359 489.477 101.141 484.966C101.781 481.289 101.189 479.161 101.153 477.001C101.082 473.236 102.265 469.651 101.828 465.862C101.602 463.921 101.324 461.987 101.046 460.057C100.184 454.045 99.2471 448.037 98.3298 442.029C97.2895 435.203 96.2491 428.377 95.2723 421.539C94.5337 416.345 93.7634 411.144 93.3186 405.91C93.2233 404.846 93.128 403.766 93.1637 402.693C93.4377 395.03 95.308 390.944 95.1372 385.833C94.9705 380.723 90.2054 369.143 89.3517 358.418C88.4979 347.689 91.3927 344.965 91.0512 339.687C90.7176 334.406 84.2411 283.829 83.8996 277.872C83.6097 272.728 84.1419 270.836 83.9672 268.228C82.6806 268.465 81.8229 268.734 80.3537 268.773C79.4324 268.795 77.9949 268.558 77.0856 268.344C77.03 270.797 77.3755 273.316 77.1174 277.872C76.7759 283.829 70.3033 334.406 69.9618 339.687C69.6243 344.965 72.5191 347.689 71.6653 358.418C70.8156 369.143 66.0466 380.723 65.8798 385.833C65.709 390.944 67.5793 395.03 67.8533 402.693C67.9049 404.036 67.754 405.394 67.6349 406.724C67.1266 412.116 66.3523 417.481 65.5938 422.838C64.6329 429.644 63.6084 436.442 62.5839 443.24C61.7104 449.062 60.8129 454.887 59.9988 460.716C59.7526 462.511 59.4946 464.306 59.308 466.105C59.1968 467.153 59.0975 468.11 59.0975 469.166C59.0975 471.775 59.9671 474.388 59.9235 477.001C59.8837 479.161 59.2881 481.289 59.9314 484.966C60.7136 489.477 60.8248 492.972 59.7368 495.434C58.7282 497.701 55.6428 498.316 53.034 498.316C47.2801 498.316 27.39 496.704 24.924 496.398C20.1828 495.799 22.1245 491.903 24.3324 491.431C30.2291 490.176 34.1404 487.742 37.4601 485.606C41.0061 483.326 43.7619 482.314 43.7897 475.734C43.7976 472.823 44.1034 469.96 43.7381 467.066C43.4799 464.997 43.1941 462.936 42.9122 460.875C42.5071 457.869 42.0942 454.859 41.6971 451.845C41.2126 448.16 40.7401 444.475 40.2874 440.782C39.7871 436.688 39.3145 432.59 38.8817 428.492C38.437 424.259 38.0279 420.014 37.6745 415.774C37.341 411.664 37.055 407.558 36.8684 403.436C36.7136 400.069 36.6143 396.697 36.6382 393.326C36.6858 386 40.8949 371.871 40.8949 368.973C40.8949 366.078 39.7076 360.463 39.5369 357.394C39.3662 354.328 40.0491 349.388 39.8784 347.006C39.7076 344.623 26.7626 284.17 26.5918 274.296C26.4211 264.416 30.0464 249.068 30.7294 244.981C31.4124 240.894 31.9485 235.663 33.8704 223.863C34.8989 217.553 37.6587 206.59 41.4231 198.603C43.1663 194.895 46.7163 190.17 47.439 184.861C48.4913 177.226 46.4502 172.369 45.9379 166.747C45.5925 162.929 44.2265 145.299 43.9605 143.378C43.6905 141.465 43.1981 138.963 42.3126 135.425C41.0101 146.09 38.151 162.022 37.8532 165.228C37.3728 170.416 36.3443 178.618 36.3443 183.64C36.3443 190.373 23.6613 232.549 20.3337 246.483C18.8526 252.088 17.84 256.181 17.84 257.106C17.84 260.521 21.112 264.796 20.6911 268.778C20.4767 270.764 19.1226 273.619 19.1226 275.896C19.1226 278.174 20.1788 285.776 16.3271 285.397C14.2423 285.193 14.425 281.392 14.5164 279.681C14.6553 277.2 14.6156 274.235 12.5746 274.615C11.284 274.851 10.9862 283.609 12.1298 285.886C13.2615 288.164 15.4177 289.335 16.2715 290.05C17.1252 290.76 19.4084 291.893 18.9796 293.758C18.6579 295.146 16.7003 294.467 16.7003 294.467C16.7003 294.467 16.1285 295.607 14.9888 295.607C13.8532 295.607 6.90412 291.349 5.29591 289.264C3.54475 286.981 1.75391 277.69 1.75391 275.044C1.75391 274.202 3.72344 269.801 5.13707 265.72C6.12979 262.848 6.64602 260.004 6.88031 259.24C7.44814 257.391 6.92793 256.825 7.26545 255.334C7.51959 254.25 7.60696 253.717 8.37334 252.187C8.54806 251.836 9.0206 246.593 9.22709 242.962C10.0927 234.507 11.2165 194.026 12.5825 186.649C14.0755 178.563 16.8552 172.462 17.9392 167.071C19.0153 161.675 18.2688 156.086 18.7493 144.704C18.924 140.492 20.0637 131.518 19.4641 123.731C18.8684 115.94 19.7142 99.3534 25.7579 91.0741C29.0498 86.5632 37.1742 84.9709 45.1835 82.8465C53.1888 80.722 62.1948 77.7915 64.8076 73.4116C65.5224 72.2084 66.9241 67.2568 67.2378 63.7584V63.7544C67.2497 63.6353 67.2616 63.5281 67.2656 63.4169L93.7753 63.7068C93.7753 63.7743 93.7753 63.8339 93.7792 63.9014C93.8308 67.6419 95.4311 72.4308 96.0426 73.4633C98.6555 77.8392 107.828 80.722 115.834 82.8465C123.843 84.9709 131.967 86.5632 135.263 91.0741C141.303 99.3534 142.153 115.94 141.557 123.731C141.497 124.529 141.454 125.343 141.426 126.157C141.327 128.984 141.414 131.883 141.569 134.587V134.595C141.676 136.561 141.819 138.427 141.954 140.087V140.095C142.089 141.826 142.212 143.335 142.26 144.506V144.512C142.268 144.578 142.272 144.644 142.272 144.704C142.331 146.14 142.371 147.488 142.399 148.753C142.431 150.079 142.442 151.311 142.446 152.472V152.477C142.454 153.594 142.454 154.639 142.454 155.624C142.454 156.553 142.446 157.434 142.458 158.27V158.275C142.454 159.062 142.458 159.815 142.474 160.531C142.49 161.179 142.506 161.802 142.542 162.406C142.57 162.956 142.601 163.496 142.649 164.018V164.024C142.697 164.491 142.744 164.953 142.804 165.41C142.859 165.828 142.927 166.241 143.002 166.653C143.026 166.796 143.054 166.934 143.082 167.071C143.129 167.302 143.181 167.539 143.233 167.775C144.4 172.996 147.009 178.915 148.438 186.649C149.801 194.031 150.928 234.579 151.794 242.984C152.004 246.676 152.461 251.934 152.64 252.292C153.398 253.816 153.482 254.349 153.736 255.428C154.077 256.913 153.561 257.479 154.125 259.328C154.363 260.087 154.879 262.925 155.872 265.792C157.278 269.862 159.243 274.252 159.243 275.088Z"/>
</mask>
<path d="M159.243 275.088C159.243 277.734 157.46 287.003 155.709 289.275C154.105 291.36 147.172 295.607 146.04 295.607C144.9 295.607 144.333 294.475 144.333 294.475C144.333 294.475 142.375 295.146 142.061 293.764C141.632 291.904 143.912 290.771 144.765 290.062C145.615 289.352 147.755 288.18 148.895 285.908C150.027 283.636 149.737 274.901 148.45 274.664C146.409 274.285 146.54 277.838 146.397 279.544C146.254 281.249 146.536 285.193 144.666 285.254C140.806 285.374 141.914 278.213 141.914 275.94C141.914 273.669 140.568 270.825 140.354 268.839C139.929 264.867 143.197 260.604 143.197 257.199C143.197 256.374 141.342 250.46 140.131 245.806C136.764 231.762 124.673 190.357 124.673 183.64C124.673 181.021 124.395 177.545 124.065 174.08C124.018 173.623 123.97 173.166 123.926 172.71C123.875 172.247 123.831 171.78 123.787 171.323C123.732 170.834 123.684 170.355 123.632 169.882C123.581 169.376 123.529 168.881 123.481 168.402C123.426 167.88 123.374 167.374 123.327 166.884C123.271 166.334 123.223 165.806 123.172 165.305C123.172 165.278 123.168 165.256 123.168 165.228C123.132 164.876 123.08 164.343 123.009 163.66C122.957 163.16 122.89 162.577 122.826 161.922C122.759 161.356 122.695 160.74 122.624 160.074C122.556 159.464 122.481 158.809 122.409 158.121C122.33 157.439 122.247 156.724 122.167 155.981C122.084 155.238 121.996 154.474 121.905 153.682V153.676C121.81 152.84 121.714 151.976 121.615 151.107V151.102C121.504 150.145 121.389 149.166 121.274 148.181C121.274 148.176 121.274 148.175 121.274 148.175C121.147 147.042 121.016 145.898 120.884 144.759V144.754C120.714 143.312 120.543 141.87 120.384 140.476C120.376 140.476 120.376 140.468 120.384 140.464C120.13 138.324 119.884 136.271 119.657 134.408C119.653 134.408 119.657 134.401 119.657 134.401C119.602 133.972 119.554 133.555 119.503 133.146C119.376 133.841 119.102 134.845 118.784 136.029C118.597 136.723 118.391 137.474 118.188 138.264C118.184 138.268 118.188 138.268 118.188 138.268C118.006 138.979 117.827 139.71 117.656 140.448C117.493 141.171 117.346 141.905 117.219 142.62C117.184 142.874 117.136 143.125 117.104 143.378C117.045 143.791 116.985 144.281 116.918 144.853C116.918 144.858 116.918 144.858 116.918 144.858C116.846 145.502 116.771 146.239 116.691 147.042C116.628 147.691 116.56 148.39 116.493 149.116C116.433 149.744 116.378 150.398 116.318 151.064C116.27 151.674 116.215 152.301 116.163 152.928C116.107 153.517 116.06 154.106 116.016 154.7C115.965 155.266 115.921 155.833 115.873 156.394C115.834 156.944 115.79 157.494 115.746 158.033C115.702 158.566 115.659 159.09 115.619 159.595C115.579 160.118 115.536 160.63 115.5 161.119C115.46 161.631 115.417 162.126 115.377 162.593C115.337 163.105 115.301 163.583 115.262 164.024C115.222 164.546 115.186 165.019 115.151 165.427C115.123 165.734 115.103 166.01 115.079 166.246C114.567 171.868 112.53 177.226 113.578 184.861C114.305 190.17 117.851 194.895 119.598 198.603C123.358 206.59 126.114 217.553 127.151 223.863C129.069 235.663 129.609 240.894 130.292 244.981C130.971 249.068 134.596 264.416 134.429 274.296C134.258 284.17 121.313 344.623 121.143 347.006C120.972 349.388 121.655 354.328 121.484 357.394C121.313 360.463 120.126 366.078 120.126 368.973C120.126 371.871 124.331 386 124.383 393.326C124.387 394.954 124.371 396.582 124.331 398.206C124.244 402.209 124.037 406.204 123.759 410.198C123.474 414.447 123.108 418.696 122.699 422.941C122.29 427.166 121.837 431.391 121.345 435.612C120.888 439.539 120.404 443.463 119.904 447.382C119.471 450.733 119.026 454.085 118.573 457.432C118.232 459.938 117.89 462.435 117.557 464.937C117.303 466.851 117.061 468.678 117.132 470.596C117.156 471.163 117.176 471.735 117.199 472.303C117.235 473.447 117.279 474.59 117.287 475.734C117.315 482.314 120.07 483.326 123.612 485.606C126.936 487.742 130.847 490.176 136.736 491.431C138.944 491.903 140.886 495.799 136.149 496.398C133.687 496.704 113.792 498.316 108.035 498.316C105.426 498.316 102.34 497.701 101.34 495.434C100.244 492.972 100.359 489.477 101.141 484.966C101.781 481.289 101.189 479.161 101.153 477.001C101.082 473.236 102.265 469.651 101.828 465.862C101.602 463.921 101.324 461.987 101.046 460.057C100.184 454.045 99.2471 448.037 98.3298 442.029C97.2895 435.203 96.2491 428.377 95.2723 421.539C94.5337 416.345 93.7634 411.144 93.3186 405.91C93.2233 404.846 93.128 403.766 93.1637 402.693C93.4377 395.03 95.308 390.944 95.1372 385.833C94.9705 380.723 90.2054 369.143 89.3517 358.418C88.4979 347.689 91.3927 344.965 91.0512 339.687C90.7176 334.406 84.2411 283.829 83.8996 277.872C83.6097 272.728 84.1419 270.836 83.9672 268.228C82.6806 268.465 81.8229 268.734 80.3537 268.773C79.4324 268.795 77.9949 268.558 77.0856 268.344C77.03 270.797 77.3755 273.316 77.1174 277.872C76.7759 283.829 70.3033 334.406 69.9618 339.687C69.6243 344.965 72.5191 347.689 71.6653 358.418C70.8156 369.143 66.0466 380.723 65.8798 385.833C65.709 390.944 67.5793 395.03 67.8533 402.693C67.9049 404.036 67.754 405.394 67.6349 406.724C67.1266 412.116 66.3523 417.481 65.5938 422.838C64.6329 429.644 63.6084 436.442 62.5839 443.24C61.7104 449.062 60.8129 454.887 59.9988 460.716C59.7526 462.511 59.4946 464.306 59.308 466.105C59.1968 467.153 59.0975 468.11 59.0975 469.166C59.0975 471.775 59.9671 474.388 59.9235 477.001C59.8837 479.161 59.2881 481.289 59.9314 484.966C60.7136 489.477 60.8248 492.972 59.7368 495.434C58.7282 497.701 55.6428 498.316 53.034 498.316C47.2801 498.316 27.39 496.704 24.924 496.398C20.1828 495.799 22.1245 491.903 24.3324 491.431C30.2291 490.176 34.1404 487.742 37.4601 485.606C41.0061 483.326 43.7619 482.314 43.7897 475.734C43.7976 472.823 44.1034 469.96 43.7381 467.066C43.4799 464.997 43.1941 462.936 42.9122 460.875C42.5071 457.869 42.0942 454.859 41.6971 451.845C41.2126 448.16 40.7401 444.475 40.2874 440.782C39.7871 436.688 39.3145 432.59 38.8817 428.492C38.437 424.259 38.0279 420.014 37.6745 415.774C37.341 411.664 37.055 407.558 36.8684 403.436C36.7136 400.069 36.6143 396.697 36.6382 393.326C36.6858 386 40.8949 371.871 40.8949 368.973C40.8949 366.078 39.7076 360.463 39.5369 357.394C39.3662 354.328 40.0491 349.388 39.8784 347.006C39.7076 344.623 26.7626 284.17 26.5918 274.296C26.4211 264.416 30.0464 249.068 30.7294 244.981C31.4124 240.894 31.9485 235.663 33.8704 223.863C34.8989 217.553 37.6587 206.59 41.4231 198.603C43.1663 194.895 46.7163 190.17 47.439 184.861C48.4913 177.226 46.4502 172.369 45.9379 166.747C45.5925 162.929 44.2265 145.299 43.9605 143.378C43.6905 141.465 43.1981 138.963 42.3126 135.425C41.0101 146.09 38.151 162.022 37.8532 165.228C37.3728 170.416 36.3443 178.618 36.3443 183.64C36.3443 190.373 23.6613 232.549 20.3337 246.483C18.8526 252.088 17.84 256.181 17.84 257.106C17.84 260.521 21.112 264.796 20.6911 268.778C20.4767 270.764 19.1226 273.619 19.1226 275.896C19.1226 278.174 20.1788 285.776 16.3271 285.397C14.2423 285.193 14.425 281.392 14.5164 279.681C14.6553 277.2 14.6156 274.235 12.5746 274.615C11.284 274.851 10.9862 283.609 12.1298 285.886C13.2615 288.164 15.4177 289.335 16.2715 290.05C17.1252 290.76 19.4084 291.893 18.9796 293.758C18.6579 295.146 16.7003 294.467 16.7003 294.467C16.7003 294.467 16.1285 295.607 14.9888 295.607C13.8532 295.607 6.90412 291.349 5.29591 289.264C3.54475 286.981 1.75391 277.69 1.75391 275.044C1.75391 274.202 3.72344 269.801 5.13707 265.72C6.12979 262.848 6.64602 260.004 6.88031 259.24C7.44814 257.391 6.92793 256.825 7.26545 255.334C7.51959 254.25 7.60696 253.717 8.37334 252.187C8.54806 251.836 9.0206 246.593 9.22709 242.962C10.0927 234.507 11.2165 194.026 12.5825 186.649C14.0755 178.563 16.8552 172.462 17.9392 167.071C19.0153 161.675 18.2688 156.086 18.7493 144.704C18.924 140.492 20.0637 131.518 19.4641 123.731C18.8684 115.94 19.7142 99.3534 25.7579 91.0741C29.0498 86.5632 37.1742 84.9709 45.1835 82.8465C53.1888 80.722 62.1948 77.7915 64.8076 73.4116C65.5224 72.2084 66.9241 67.2568 67.2378 63.7584V63.7544C67.2497 63.6353 67.2616 63.5281 67.2656 63.4169L93.7753 63.7068C93.7753 63.7743 93.7753 63.8339 93.7792 63.9014C93.8308 67.6419 95.4311 72.4308 96.0426 73.4633C98.6555 77.8392 107.828 80.722 115.834 82.8465C123.843 84.9709 131.967 86.5632 135.263 91.0741C141.303 99.3534 142.153 115.94 141.557 123.731C141.497 124.529 141.454 125.343 141.426 126.157C141.327 128.984 141.414 131.883 141.569 134.587V134.595C141.676 136.561 141.819 138.427 141.954 140.087V140.095C142.089 141.826 142.212 143.335 142.26 144.506V144.512C142.268 144.578 142.272 144.644 142.272 144.704C142.331 146.14 142.371 147.488 142.399 148.753C142.431 150.079 142.442 151.311 142.446 152.472V152.477C142.454 153.594 142.454 154.639 142.454 155.624C142.454 156.553 142.446 157.434 142.458 158.27V158.275C142.454 159.062 142.458 159.815 142.474 160.531C142.49 161.179 142.506 161.802 142.542 162.406C142.57 162.956 142.601 163.496 142.649 164.018V164.024C142.697 164.491 142.744 164.953 142.804 165.41C142.859 165.828 142.927 166.241 143.002 166.653C143.026 166.796 143.054 166.934 143.082 167.071C143.129 167.302 143.181 167.539 143.233 167.775C144.4 172.996 147.009 178.915 148.438 186.649C149.801 194.031 150.928 234.579 151.794 242.984C152.004 246.676 152.461 251.934 152.64 252.292C153.398 253.816 153.482 254.349 153.736 255.428C154.077 256.913 153.561 257.479 154.125 259.328C154.363 260.087 154.879 262.925 155.872 265.792C157.278 269.862 159.243 274.252 159.243 275.088Z" fill="#F6F9FE"/>
<path d="M159.243 275.088C159.243 277.734 157.46 287.003 155.709 289.275C154.105 291.36 147.172 295.607 146.04 295.607C144.9 295.607 144.333 294.475 144.333 294.475C144.333 294.475 142.375 295.146 142.061 293.764C141.632 291.904 143.912 290.771 144.765 290.062C145.615 289.352 147.755 288.18 148.895 285.908C150.027 283.636 149.737 274.901 148.45 274.664C146.409 274.285 146.54 277.838 146.397 279.544C146.254 281.249 146.536 285.193 144.666 285.254C140.806 285.374 141.914 278.213 141.914 275.94C141.914 273.669 140.568 270.825 140.354 268.839C139.929 264.867 143.197 260.604 143.197 257.199C143.197 256.374 141.342 250.46 140.131 245.806C136.764 231.762 124.673 190.357 124.673 183.64C124.673 181.021 124.395 177.545 124.065 174.08C124.018 173.623 123.97 173.166 123.926 172.71C123.875 172.247 123.831 171.78 123.787 171.323C123.732 170.834 123.684 170.355 123.632 169.882C123.581 169.376 123.529 168.881 123.481 168.402C123.426 167.88 123.374 167.374 123.327 166.884C123.271 166.334 123.223 165.806 123.172 165.305C123.172 165.278 123.168 165.256 123.168 165.228C123.132 164.876 123.08 164.343 123.009 163.66C122.957 163.16 122.89 162.577 122.826 161.922C122.759 161.356 122.695 160.74 122.624 160.074C122.556 159.464 122.481 158.809 122.409 158.121C122.33 157.439 122.247 156.724 122.167 155.981C122.084 155.238 121.996 154.474 121.905 153.682V153.676C121.81 152.84 121.714 151.976 121.615 151.107V151.102C121.504 150.145 121.389 149.166 121.274 148.181C121.274 148.176 121.274 148.175 121.274 148.175C121.147 147.042 121.016 145.898 120.884 144.759V144.754C120.714 143.312 120.543 141.87 120.384 140.476C120.376 140.476 120.376 140.468 120.384 140.464C120.13 138.324 119.884 136.271 119.657 134.408C119.653 134.408 119.657 134.401 119.657 134.401C119.602 133.972 119.554 133.555 119.503 133.146C119.376 133.841 119.102 134.845 118.784 136.029C118.597 136.723 118.391 137.474 118.188 138.264C118.184 138.268 118.188 138.268 118.188 138.268C118.006 138.979 117.827 139.71 117.656 140.448C117.493 141.171 117.346 141.905 117.219 142.62C117.184 142.874 117.136 143.125 117.104 143.378C117.045 143.791 116.985 144.281 116.918 144.853C116.918 144.858 116.918 144.858 116.918 144.858C116.846 145.502 116.771 146.239 116.691 147.042C116.628 147.691 116.56 148.39 116.493 149.116C116.433 149.744 116.378 150.398 116.318 151.064C116.27 151.674 116.215 152.301 116.163 152.928C116.107 153.517 116.06 154.106 116.016 154.7C115.965 155.266 115.921 155.833 115.873 156.394C115.834 156.944 115.79 157.494 115.746 158.033C115.702 158.566 115.659 159.09 115.619 159.595C115.579 160.118 115.536 160.63 115.5 161.119C115.46 161.631 115.417 162.126 115.377 162.593C115.337 163.105 115.301 163.583 115.262 164.024C115.222 164.546 115.186 165.019 115.151 165.427C115.123 165.734 115.103 166.01 115.079 166.246C114.567 171.868 112.53 177.226 113.578 184.861C114.305 190.17 117.851 194.895 119.598 198.603C123.358 206.59 126.114 217.553 127.151 223.863C129.069 235.663 129.609 240.894 130.292 244.981C130.971 249.068 134.596 264.416 134.429 274.296C134.258 284.17 121.313 344.623 121.143 347.006C120.972 349.388 121.655 354.328 121.484 357.394C121.313 360.463 120.126 366.078 120.126 368.973C120.126 371.871 124.331 386 124.383 393.326C124.387 394.954 124.371 396.582 124.331 398.206C124.244 402.209 124.037 406.204 123.759 410.198C123.474 414.447 123.108 418.696 122.699 422.941C122.29 427.166 121.837 431.391 121.345 435.612C120.888 439.539 120.404 443.463 119.904 447.382C119.471 450.733 119.026 454.085 118.573 457.432C118.232 459.938 117.89 462.435 117.557 464.937C117.303 466.851 117.061 468.678 117.132 470.596C117.156 471.163 117.176 471.735 117.199 472.303C117.235 473.447 117.279 474.59 117.287 475.734C117.315 482.314 120.07 483.326 123.612 485.606C126.936 487.742 130.847 490.176 136.736 491.431C138.944 491.903 140.886 495.799 136.149 496.398C133.687 496.704 113.792 498.316 108.035 498.316C105.426 498.316 102.34 497.701 101.34 495.434C100.244 492.972 100.359 489.477 101.141 484.966C101.781 481.289 101.189 479.161 101.153 477.001C101.082 473.236 102.265 469.651 101.828 465.862C101.602 463.921 101.324 461.987 101.046 460.057C100.184 454.045 99.2471 448.037 98.3298 442.029C97.2895 435.203 96.2491 428.377 95.2723 421.539C94.5337 416.345 93.7634 411.144 93.3186 405.91C93.2233 404.846 93.128 403.766 93.1637 402.693C93.4377 395.03 95.308 390.944 95.1372 385.833C94.9705 380.723 90.2054 369.143 89.3517 358.418C88.4979 347.689 91.3927 344.965 91.0512 339.687C90.7176 334.406 84.2411 283.829 83.8996 277.872C83.6097 272.728 84.1419 270.836 83.9672 268.228C82.6806 268.465 81.8229 268.734 80.3537 268.773C79.4324 268.795 77.9949 268.558 77.0856 268.344C77.03 270.797 77.3755 273.316 77.1174 277.872C76.7759 283.829 70.3033 334.406 69.9618 339.687C69.6243 344.965 72.5191 347.689 71.6653 358.418C70.8156 369.143 66.0466 380.723 65.8798 385.833C65.709 390.944 67.5793 395.03 67.8533 402.693C67.9049 404.036 67.754 405.394 67.6349 406.724C67.1266 412.116 66.3523 417.481 65.5938 422.838C64.6329 429.644 63.6084 436.442 62.5839 443.24C61.7104 449.062 60.8129 454.887 59.9988 460.716C59.7526 462.511 59.4946 464.306 59.308 466.105C59.1968 467.153 59.0975 468.11 59.0975 469.166C59.0975 471.775 59.9671 474.388 59.9235 477.001C59.8837 479.161 59.2881 481.289 59.9314 484.966C60.7136 489.477 60.8248 492.972 59.7368 495.434C58.7282 497.701 55.6428 498.316 53.034 498.316C47.2801 498.316 27.39 496.704 24.924 496.398C20.1828 495.799 22.1245 491.903 24.3324 491.431C30.2291 490.176 34.1404 487.742 37.4601 485.606C41.0061 483.326 43.7619 482.314 43.7897 475.734C43.7976 472.823 44.1034 469.96 43.7381 467.066C43.4799 464.997 43.1941 462.936 42.9122 460.875C42.5071 457.869 42.0942 454.859 41.6971 451.845C41.2126 448.16 40.7401 444.475 40.2874 440.782C39.7871 436.688 39.3145 432.59 38.8817 428.492C38.437 424.259 38.0279 420.014 37.6745 415.774C37.341 411.664 37.055 407.558 36.8684 403.436C36.7136 400.069 36.6143 396.697 36.6382 393.326C36.6858 386 40.8949 371.871 40.8949 368.973C40.8949 366.078 39.7076 360.463 39.5369 357.394C39.3662 354.328 40.0491 349.388 39.8784 347.006C39.7076 344.623 26.7626 284.17 26.5918 274.296C26.4211 264.416 30.0464 249.068 30.7294 244.981C31.4124 240.894 31.9485 235.663 33.8704 223.863C34.8989 217.553 37.6587 206.59 41.4231 198.603C43.1663 194.895 46.7163 190.17 47.439 184.861C48.4913 177.226 46.4502 172.369 45.9379 166.747C45.5925 162.929 44.2265 145.299 43.9605 143.378C43.6905 141.465 43.1981 138.963 42.3126 135.425C41.0101 146.09 38.151 162.022 37.8532 165.228C37.3728 170.416 36.3443 178.618 36.3443 183.64C36.3443 190.373 23.6613 232.549 20.3337 246.483C18.8526 252.088 17.84 256.181 17.84 257.106C17.84 260.521 21.112 264.796 20.6911 268.778C20.4767 270.764 19.1226 273.619 19.1226 275.896C19.1226 278.174 20.1788 285.776 16.3271 285.397C14.2423 285.193 14.425 281.392 14.5164 279.681C14.6553 277.2 14.6156 274.235 12.5746 274.615C11.284 274.851 10.9862 283.609 12.1298 285.886C13.2615 288.164 15.4177 289.335 16.2715 290.05C17.1252 290.76 19.4084 291.893 18.9796 293.758C18.6579 295.146 16.7003 294.467 16.7003 294.467C16.7003 294.467 16.1285 295.607 14.9888 295.607C13.8532 295.607 6.90412 291.349 5.29591 289.264C3.54475 286.981 1.75391 277.69 1.75391 275.044C1.75391 274.202 3.72344 269.801 5.13707 265.72C6.12979 262.848 6.64602 260.004 6.88031 259.24C7.44814 257.391 6.92793 256.825 7.26545 255.334C7.51959 254.25 7.60696 253.717 8.37334 252.187C8.54806 251.836 9.0206 246.593 9.22709 242.962C10.0927 234.507 11.2165 194.026 12.5825 186.649C14.0755 178.563 16.8552 172.462 17.9392 167.071C19.0153 161.675 18.2688 156.086 18.7493 144.704C18.924 140.492 20.0637 131.518 19.4641 123.731C18.8684 115.94 19.7142 99.3534 25.7579 91.0741C29.0498 86.5632 37.1742 84.9709 45.1835 82.8465C53.1888 80.722 62.1948 77.7915 64.8076 73.4116C65.5224 72.2084 66.9241 67.2568 67.2378 63.7584V63.7544C67.2497 63.6353 67.2616 63.5281 67.2656 63.4169L93.7753 63.7068C93.7753 63.7743 93.7753 63.8339 93.7792 63.9014C93.8308 67.6419 95.4311 72.4308 96.0426 73.4633C98.6555 77.8392 107.828 80.722 115.834 82.8465C123.843 84.9709 131.967 86.5632 135.263 91.0741C141.303 99.3534 142.153 115.94 141.557 123.731C141.497 124.529 141.454 125.343 141.426 126.157C141.327 128.984 141.414 131.883 141.569 134.587V134.595C141.676 136.561 141.819 138.427 141.954 140.087V140.095C142.089 141.826 142.212 143.335 142.26 144.506V144.512C142.268 144.578 142.272 144.644 142.272 144.704C142.331 146.14 142.371 147.488 142.399 148.753C142.431 150.079 142.442 151.311 142.446 152.472V152.477C142.454 153.594 142.454 154.639 142.454 155.624C142.454 156.553 142.446 157.434 142.458 158.27V158.275C142.454 159.062 142.458 159.815 142.474 160.531C142.49 161.179 142.506 161.802 142.542 162.406C142.57 162.956 142.601 163.496 142.649 164.018V164.024C142.697 164.491 142.744 164.953 142.804 165.41C142.859 165.828 142.927 166.241 143.002 166.653C143.026 166.796 143.054 166.934 143.082 167.071C143.129 167.302 143.181 167.539 143.233 167.775C144.4 172.996 147.009 178.915 148.438 186.649C149.801 194.031 150.928 234.579 151.794 242.984C152.004 246.676 152.461 251.934 152.64 252.292C153.398 253.816 153.482 254.349 153.736 255.428C154.077 256.913 153.561 257.479 154.125 259.328C154.363 260.087 154.879 262.925 155.872 265.792C157.278 269.862 159.243 274.252 159.243 275.088Z" stroke="#9AA0A9" stroke-width="2.38" mask="url(#path-2-outside-1_2516_89051)"/>
<path d="M80.962 217.788C80.9568 219.703 80.8904 221.618 80.875 223.532C80.8725 223.762 81.008 223.998 81.0796 224.23C81.2994 224.092 81.5934 224.003 81.7264 223.806C82.4805 222.686 83.2501 221.567 83.9199 220.396C85.9166 216.908 86.975 213.053 88.243 209.277C89.1225 206.664 89.9662 204.023 91.5078 201.702C92.3847 200.383 93.2974 199.076 94.9617 198.598C96.1173 198.266 96.1326 198.238 96.0482 197.018C95.721 192.36 94.4376 187.966 91.6382 184.223C89.5213 181.393 86.9878 178.872 84.6281 176.226C84.4312 176.006 84.1398 175.855 83.8713 175.72C83.4111 175.49 82.9612 175.561 82.795 176.07C82.2198 177.834 81.4221 179.583 81.2202 181.395C80.9262 184.049 81.0463 186.749 81.0361 189.43C81.0156 194.49 81.031 199.547 81.031 204.606C81.008 204.606 80.9875 204.606 80.9671 204.606C80.9671 209.001 80.9773 213.396 80.962 217.788Z" fill="#9AA0A9"/>
<path d="M79.8375 184.807C79.7429 184.807 79.7454 181.918 79.5051 180.533C79.2571 179.091 78.618 177.715 78.1041 176.327C77.8025 175.509 77.3602 175.379 76.6316 175.844C76.3324 176.036 76.0614 176.284 75.8237 176.547C74.8241 177.639 73.8372 178.743 72.8581 179.85C71.792 181.054 70.708 182.243 69.6828 183.478C68.2639 185.186 67.3512 187.18 66.5152 189.222C65.4261 191.879 64.8867 194.635 64.7333 197.488C64.7026 198.086 64.9199 198.39 65.4926 198.508C66.6456 198.746 67.5097 199.415 68.2588 200.305C70.2657 202.69 71.2525 205.564 72.2419 208.445C73.216 211.27 74.1287 214.118 75.1922 216.91C76.1407 219.397 77.4215 221.732 79.0654 223.843C79.206 224.022 79.4591 224.112 79.6611 224.242C79.7531 224.022 79.9167 223.802 79.9218 223.58C79.9321 223.046 79.84 222.511 79.84 221.977C79.8349 209.585 79.8375 197.196 79.8375 184.807Z" fill="#9AA0A9"/>
<path d="M103.812 95.7134C110.392 92.7234 114.411 88.0655 118.457 87.1323C123.266 86.0205 131.605 90.317 135.46 97.4487C138.161 102.44 141.107 112.792 139.161 124.117C127.503 120.881 127.463 110.449 120.661 104.247C116.21 100.189 108.574 96.5156 103.812 95.7134Z" fill="#9AA0A9"/>
<path d="M128.89 253.342C131.911 259.828 131.848 269.087 131.173 276.589C129.866 291.153 126.241 303.333 124.486 315.988C117.572 276.576 126.65 272.617 128.89 253.342Z" fill="#9AA0A9"/>
<path d="M113.375 484.525C114.102 481.924 114.566 477.842 115.372 473.942C116.19 478.684 117.596 481.928 119.184 483.544C122.305 486.713 128.04 490.318 133.007 492.363C120.61 492.757 116.294 489.818 113.375 484.525Z" fill="#9AA0A9"/>
<path d="M119.941 428.034C117.502 435.959 114.854 439.013 113.393 445.839C111.514 454.595 110.903 466.936 112.737 483.324C114.735 467.961 116.355 462.93 117.363 453.483C118.205 445.613 118.88 436.309 119.941 428.034Z" fill="#9AA0A9"/>
<path d="M99.0117 433.387C101.081 441.44 104.285 445.788 105.476 452.681C107.005 461.524 105.977 472.873 103.967 484.023C103.666 473.512 102.879 468.601 102.169 459.13C101.577 451.236 99.794 441.698 99.0117 433.387Z" fill="#9AA0A9"/>
<path d="M92.7531 326.395C92.8563 308.498 97.0495 277.46 97.0495 277.46L86.3281 268.051C86.3281 268.051 89.489 311.019 92.7531 326.395Z" fill="#9AA0A9"/>
<path d="M101.295 277.211C96.0695 295.828 95.0252 314.745 95.9623 330.216C97.0623 348.375 99.548 365.592 94.1992 372.502C94.1913 372.875 96.3753 378.152 96.7049 378.16C109.96 363.587 109.725 302.344 101.295 277.211Z" fill="#9AA0A9"/>
<path d="M106.043 277.649C118.035 276.582 120.545 292.16 120.922 311.534C121.204 325.833 115.101 351.422 119.075 362.528C119.191 362.489 118.341 369.144 118.698 369.188C106.678 360.301 110.987 301.226 106.043 277.649Z" fill="#9AA0A9"/>
<path d="M128 181.344C139.011 186.682 135.31 217.918 144.999 250.72C144.721 251.278 143.975 251.382 143.506 251.284C136.76 229.325 128.917 202.352 128 181.344Z" fill="#9AA0A9"/>
<path d="M142.724 174.031C144.388 180.048 145.873 184.559 146.652 190.244C148.585 204.303 148.685 234.651 150.757 249.378C150.392 249.767 149.411 249.901 149.018 249.588C146.485 227.979 141.386 199.766 141.164 186.489C141.072 180.97 142.76 178.165 142.724 174.031Z" fill="#9AA0A9"/>
<path d="M140.782 176.906C140.496 178.768 139.686 182.9 139.893 187.286C140.437 199.083 144.924 230.366 147.735 249.879C147.413 250.41 146.667 250.514 146.206 250.329C142.092 226.753 135.517 197.446 135.298 187.638C135.207 183.325 139.452 179.721 140.782 176.906Z" fill="#9AA0A9"/>
<path d="M85.8331 55.2792C84.7014 55.442 83.5736 55.5611 82.4419 55.6366C82.3705 58.988 82.3466 65.3613 82.97 70.5433C83.8635 78.0046 85.7854 81.2369 85.7854 88.2535C85.7854 97.5493 83.5855 103.871 82.982 112.841C82.1084 125.739 82.5134 160.848 82.5134 160.848C86.663 145.479 92.0316 136.805 94.9423 127.541C99.0601 114.437 98.4208 103.053 101.26 96.3978C103.047 92.2124 107.875 91.315 115.766 85.7081C103.607 82.0311 86.6789 80.0337 85.8331 55.2792Z" fill="#9AA0A9"/>
<path d="M97.2148 128.501C103.227 132.186 111.403 133.783 116.585 133.385C116.037 147.115 114.19 164.683 112.709 173.282C109.056 187.574 101.277 192.755 101.825 203.871C96.3848 192.279 95.7216 188.146 84.2656 162.53C87.5773 153.496 93.7243 138.5 97.2148 128.501Z" fill="#9AA0A9"/>
<path d="M85.9429 219.095C77.8741 231.734 78.3943 255.357 87.0231 265.572C94.4764 274.392 113.036 273.633 119.422 264.856C128.296 252.653 125.874 224.325 119.823 211.687C107.318 204.278 92.2288 209.244 85.9429 219.095Z" fill="#9AA0A9"/>
<path d="M111.774 181.892C111.262 184.784 105.278 194.686 104.805 198.243C104.547 200.198 104.655 202.598 106.334 203.919C108.598 205.702 117.675 207.262 121.936 208.859C120.336 199.011 112.465 196.976 111.774 181.892Z" fill="#9AA0A9"/>
<path d="M103.076 373.257C105.021 375.211 107.642 381.1 107.694 385.825C107.742 390.55 108.055 420.094 108.107 424.819C108.158 429.545 104.346 432.312 100.511 433.527C98.5132 426.848 95.7851 409.575 96.0671 397.424C96.1942 391.785 98.5568 383.145 98.1518 381.179C100.518 378.785 101.559 375.636 103.076 373.257Z" fill="#9AA0A9"/>
<path d="M113.046 365.586C111.144 367.572 109.035 381.077 109.087 385.802C109.135 390.528 109.448 420.071 109.5 424.796C109.551 429.522 112.835 431.599 116.699 432.746C118.554 426.035 122.596 412.173 122.088 396.861C121.897 391.223 118.768 379.79 118.363 374.092C115.941 371.741 114.61 367.937 113.046 365.586Z" fill="#9AA0A9"/>
<path d="M103.82 98.0626C100.73 100.755 102.636 113.851 97.8516 125.41C110.411 125.212 113.997 112.255 118.782 105.675C115.192 102.486 109.713 98.9601 103.82 98.0626Z" fill="#9AA0A9"/>
<path d="M97.8594 126.931C103.033 129.246 112.452 131.501 117.626 131.005C119.072 128.198 122.721 115.788 123.547 111.988C112.583 117.937 109.653 125.942 97.8594 126.931Z" fill="#9AA0A9"/>
<path d="M141.448 170.142C141.4 167.511 140.352 136.255 139.363 127.388C135.75 126.788 127.149 119.2 125.334 113.76C123.233 120.752 121.558 130.834 121.407 137.18C121.28 142.553 122.626 152.713 123.067 156.668C123.507 160.624 126.367 178.619 131.958 181.488C131.342 175.422 126.529 148.595 131.914 147.924C137.993 147.165 137.032 170.874 136.623 179.107C139.312 174.456 141.496 172.774 141.448 170.142Z" fill="#9AA0A9"/>
<path d="M87.7969 54.9537C88.0073 62.562 89.6671 68.0457 91.5215 70.5156C91.5215 65.9094 91.5097 56.7605 91.5097 54.0801C90.2787 54.4216 89.0437 54.7155 87.7969 54.9537Z" fill="#9AA0A9"/>
<path d="M148.857 271.325C147.96 268.806 147.527 262.907 147.864 258.328C147.864 258.328 150.608 257.584 151.68 257.533C153.813 264.819 162.104 278.573 149.032 288.855C154.75 278.385 149.921 274.317 148.857 271.325Z" fill="#9AA0A9"/>
<path d="M142.111 268.797C142.488 265.646 143.624 262.002 145.248 258.816C145.987 261.787 146.968 268.109 146.42 270.514C145.8 273.223 144.601 274.708 144.7 279.668C143.64 277.124 141.734 271.948 142.111 268.797Z" fill="#9AA0A9"/>
<path d="M57.0402 95.7134C50.4644 92.7234 46.4419 88.0655 42.3956 87.1323C37.5868 86.0205 29.248 90.317 25.3923 97.4487C22.692 102.44 19.7457 112.792 21.6914 124.117C33.3539 120.881 33.3896 110.449 40.1917 104.247C44.6431 100.189 52.2791 96.5156 57.0402 95.7134Z" fill="#9AA0A9"/>
<path d="M31.9853 253.342C28.9635 259.828 29.031 269.087 29.7021 276.589C31.0085 291.153 34.6339 303.333 36.3891 315.988C43.3024 276.576 34.2249 272.617 31.9853 253.342Z" fill="#9AA0A9"/>
<path d="M47.511 484.525C46.7843 481.924 46.3197 477.842 45.5136 473.942C44.6956 478.684 43.2899 481.928 41.7016 483.544C38.5804 486.713 32.8465 490.318 27.8789 492.363C40.276 492.757 44.5924 489.818 47.511 484.525Z" fill="#9AA0A9"/>
<path d="M40.9297 428.034C43.3678 435.959 46.0164 439.013 47.4777 445.839C49.3559 454.595 49.9674 466.936 48.1329 483.324C46.1355 467.961 44.5154 462.93 43.5068 453.483C42.665 445.613 41.9899 436.309 40.9297 428.034Z" fill="#9AA0A9"/>
<path d="M61.8556 433.387C59.7868 441.44 56.5823 445.788 55.391 452.681C53.8622 461.524 54.8907 472.873 56.8999 484.023C57.2017 473.512 57.988 468.601 58.6988 459.13C59.2905 451.236 61.0734 441.698 61.8556 433.387Z" fill="#9AA0A9"/>
<path d="M68.1207 326.395C68.0175 308.498 63.8281 277.46 63.8281 277.46L74.5456 268.051C74.5456 268.051 71.3848 311.019 68.1207 326.395Z" fill="#9AA0A9"/>
<path d="M59.5913 277.211C64.817 295.828 65.8614 314.745 64.9242 330.216C63.8243 348.375 61.3385 365.592 66.6873 372.502C66.6953 372.875 64.5112 378.152 64.1816 378.16C50.9268 363.587 51.1611 302.344 59.5913 277.211Z" fill="#9AA0A9"/>
<path d="M54.822 277.649C42.8299 276.582 40.3203 292.16 39.9431 311.534C39.6612 325.833 45.7644 351.422 41.7896 362.528C41.6744 362.489 42.5242 369.144 42.1668 369.188C54.1867 360.301 49.8782 301.226 54.822 277.649Z" fill="#9AA0A9"/>
<path d="M32.8704 181.344C21.8592 186.682 25.5601 217.918 15.8711 250.72C16.1491 251.278 16.8956 251.382 17.3641 251.284C24.1107 229.325 31.9532 202.352 32.8704 181.344Z" fill="#9AA0A9"/>
<path d="M18.1425 174.031C16.4787 180.048 14.9936 184.559 14.2153 190.244C12.2854 204.303 12.1822 234.651 10.1094 249.378C10.4747 249.767 11.4555 249.901 11.8526 249.588C14.3821 227.979 19.4807 199.766 19.703 186.489C19.7944 180.97 18.1068 178.165 18.1425 174.031Z" fill="#9AA0A9"/>
<path d="M20.0975 176.906C20.3834 178.768 21.1935 182.9 20.987 187.286C20.443 199.083 15.9559 230.366 13.1445 249.879C13.4662 250.41 14.2127 250.514 14.6733 250.329C18.7872 226.753 25.363 197.446 25.5814 187.638C25.6767 183.325 21.4278 179.721 20.0975 176.906Z" fill="#9AA0A9"/>
<path d="M78.4253 55.7002C77.2817 55.6684 76.146 55.5969 75.0302 55.4738C74.101 80.0457 57.2247 82.039 45.1016 85.7081C52.9917 91.315 57.8203 92.2124 59.6072 96.3978C62.4464 103.053 61.8071 114.437 65.9249 127.541C68.8356 136.805 74.2042 145.479 78.3538 160.848C78.3538 160.848 78.7589 125.739 77.8892 112.841C77.2817 103.871 75.0818 97.5493 75.0818 88.2535C75.0818 81.2369 77.0037 78.0046 77.9011 70.5433C78.5166 65.3971 78.4968 59.0714 78.4253 55.7002Z" fill="#9AA0A9"/>
<path d="M63.6669 128.501C57.655 132.186 49.4789 133.783 44.2969 133.385C44.8449 147.115 46.6914 164.683 48.1725 173.282C51.8257 187.574 59.6047 192.755 59.0567 203.871C64.4968 192.279 65.1599 188.146 76.6159 162.53C73.3042 153.496 67.1573 138.5 63.6669 128.501Z" fill="#9AA0A9"/>
<path d="M74.9191 219.095C82.9879 231.734 82.4678 255.357 73.839 265.572C66.3857 274.392 47.8257 273.633 41.4405 264.856C32.5656 252.653 34.9879 224.325 41.0395 211.687C53.5438 204.278 68.6332 209.244 74.9191 219.095Z" fill="#9AA0A9"/>
<path d="M49.1184 181.892C49.6307 184.784 55.6148 194.686 56.0873 198.243C56.3454 200.198 56.2382 202.598 54.5585 203.919C52.2951 205.702 43.2177 207.262 38.9609 208.859C40.5572 199.011 48.4275 196.976 49.1184 181.892Z" fill="#9AA0A9"/>
<path d="M57.8012 373.257C55.8555 375.211 53.2347 381.1 53.183 385.825C53.1354 390.55 52.8217 420.094 52.77 424.819C52.7184 429.545 56.5305 432.312 60.3703 433.527C62.3637 426.848 65.0918 409.575 64.8098 397.424C64.6828 391.785 62.3201 383.145 62.7251 381.179C60.3585 378.785 59.3181 375.636 57.8012 373.257Z" fill="#9AA0A9"/>
<path d="M47.8205 365.586C49.7225 367.572 51.8311 381.077 51.7794 385.802C51.7318 390.528 51.4181 420.071 51.3665 424.796C51.3189 429.522 48.031 431.599 44.1673 432.746C42.3129 426.035 38.2705 412.173 38.7828 396.861C38.9694 391.223 42.0984 379.79 42.5035 374.092C44.9257 371.741 46.256 367.937 47.8205 365.586Z" fill="#9AA0A9"/>
<path d="M57.0639 98.0626C60.1532 100.755 58.2472 113.851 63.0321 125.41C50.4761 125.212 46.8865 112.255 42.1016 105.675C45.6912 102.486 51.1711 98.9601 57.0639 98.0626Z" fill="#9AA0A9"/>
<path d="M63.0041 126.931C57.834 129.246 48.4111 131.501 43.241 131.005C41.7916 128.198 38.1424 115.788 37.3164 111.988C48.28 117.937 51.2106 125.942 63.0041 126.931Z" fill="#9AA0A9"/>
<path d="M19.4148 170.142C19.4625 167.511 20.5108 136.255 21.4995 127.388C25.1131 126.788 33.714 119.2 35.5287 113.76C37.6293 120.752 39.305 130.834 39.4559 137.18C39.5829 142.553 38.2369 152.713 37.7961 156.668C37.3553 160.624 34.4963 178.619 28.9052 181.488C29.5207 175.422 34.3334 148.595 28.9489 147.924C22.8695 147.165 23.8305 170.874 24.2395 179.107C21.5512 174.456 19.3672 172.774 19.4148 170.142Z" fill="#9AA0A9"/>
<path d="M69.3635 54.4653C69.3595 57.5507 69.3516 66.1079 69.3516 70.5156C71.1821 68.0735 72.8221 62.689 73.0643 55.2238C71.8135 55.0292 70.5826 54.7671 69.3635 54.4653Z" fill="#9AA0A9"/>
<path d="M12.016 271.325C12.9134 268.806 13.3462 262.907 13.0087 258.328C13.0087 258.328 10.2648 257.584 9.19267 257.533C7.06031 264.819 -1.23094 278.573 11.8412 288.855C6.12315 278.385 10.9518 274.317 12.016 271.325Z" fill="#9AA0A9"/>
<path d="M18.7492 268.797C18.372 265.646 17.2363 262.002 15.6122 258.816C14.8736 261.787 13.8928 268.109 14.4408 270.514C15.0602 273.223 16.2595 274.708 16.1602 279.668C17.2204 277.124 19.1264 271.948 18.7492 268.797Z" fill="#9AA0A9"/>
</svg>
