<svg width="60" height="60" viewBox="0 0 60 60" fill="none" xmlns="http://www.w3.org/2000/svg">
<rect x="60" width="60" height="60" rx="30" transform="rotate(90 60 0)" fill="#5DA0EF"/>
<g clip-path="url(#clip0_4309_3477)">
<path d="M37.6049 23.0368H33.8549C32.9674 23.0368 32.2478 22.3172 32.2478 21.4297V17.6797H20.9978C20.1102 17.6797 19.3906 18.3993 19.3906 19.2868H27.4263C27.4376 19.2868 27.4478 19.2928 27.4596 19.2934C27.5069 19.2962 27.5535 19.3057 27.5982 19.3211C27.6155 19.3271 27.6314 19.3313 27.6482 19.3389C27.7065 19.3648 27.7596 19.4011 27.8051 19.4459L33.1622 24.803C33.207 24.8485 33.2433 24.9016 33.2695 24.96C33.2768 24.9767 33.2813 24.9927 33.287 25.0099C33.3025 25.0547 33.3119 25.1012 33.315 25.1486C33.315 25.1603 33.3213 25.1705 33.3213 25.1818V42.3225H35.9999C36.8874 42.3225 37.607 41.6029 37.607 40.7154L37.6049 23.0368Z" fill="white"/>
<path d="M32.2534 25.7126H28.5034C27.6158 25.7126 26.8962 24.993 26.8962 24.1055V20.3555H15.6462C14.7587 20.3555 14.0391 21.0751 14.0391 21.9626V43.3912C14.0391 44.2787 14.7587 44.9983 15.6462 44.9983H30.6462C31.5337 44.9983 32.2534 44.2787 32.2534 43.3912V25.7126ZM18.8605 27.8555H19.9319V28.9269H18.8605V27.8555ZM15.6462 27.8555H17.7891V28.9269H15.6462V27.8555ZM15.6462 31.0698H22.0748V32.1412H15.6462V31.0698ZM25.2891 32.1412H23.1462V31.0698H25.2891V32.1412ZM26.3605 37.4983V38.5698H23.1462V37.4983H26.3605ZM25.2891 34.284V35.3555H21.0033V34.284H25.2891ZM15.6462 34.284H19.9319V35.3555H15.6462V34.284ZM15.6462 37.4983H22.0748V38.5698H15.6462V37.4983ZM19.9319 41.784H15.6462V40.7126H19.9319V41.784ZM25.2891 41.784H21.0033V40.7126H25.2891V41.784ZM27.4319 41.784H26.3605V40.7126H27.4319V41.784ZM26.3605 35.3555V34.284H27.4319V35.3555H26.3605ZM30.6462 41.784H28.5034V40.7126H30.6462V41.784ZM30.6462 38.5698H27.4319V37.4983H30.6462V38.5698ZM30.6462 35.3555H28.5034V34.284H30.6462V35.3555ZM30.6462 32.1412H26.3605V31.0698H30.6462V32.1412ZM30.6462 28.9269H21.0033V27.8555H30.6462V28.9269Z" fill="white"/>
<path d="M42.9643 20.3571H39.2143C38.3267 20.3571 37.6071 19.6375 37.6071 18.75V15H26.3571C25.4696 15 24.75 15.7196 24.75 16.6071H32.7857C32.797 16.6071 32.8072 16.6132 32.8184 16.6137C32.866 16.6166 32.9131 16.626 32.9581 16.6414C32.9748 16.6474 32.9908 16.6516 33.007 16.6592C33.0656 16.6848 33.119 16.7212 33.1645 16.7662L38.5216 22.1233C38.5664 22.1688 38.6027 22.2219 38.6289 22.2803C38.6362 22.297 38.6406 22.313 38.6464 22.3302C38.6618 22.375 38.6712 22.4215 38.6744 22.4689C38.6744 22.4806 38.6807 22.4908 38.6807 22.5021V39.6429H41.3592C42.2468 39.6429 42.9664 38.9233 42.9664 38.0357L42.9643 20.3571Z" fill="white"/>
<path d="M31.4891 24.6415L27.9609 21.1133V24.1057C27.9609 24.4016 28.2008 24.6415 28.4967 24.6415H31.4891Z" fill="white"/>
<path d="M42.2079 19.286L38.6797 15.7578V18.7503C38.6797 19.0461 38.9196 19.286 39.2154 19.286H42.2079Z" fill="white"/>
<path d="M36.8485 21.9657L33.3203 18.4375V21.43C33.3203 21.7258 33.5602 21.9657 33.856 21.9657H36.8485Z" fill="white"/>
</g>
<defs>
<clipPath id="clip0_4309_3477">
<rect width="30" height="30" fill="white" transform="translate(13.5 15)"/>
</clipPath>
</defs>
</svg>
