<svg width="34" height="34" viewBox="0 0 34 34" fill="none" xmlns="http://www.w3.org/2000/svg">
<path d="M27.9818 17.8066V9.98398C27.9818 7.67814 27.9818 6.52522 27.533 5.64451C27.1383 4.86981 26.5084 4.23996 25.7337 3.84523C24.853 3.39648 23.7001 3.39648 21.3943 3.39648H12.6109C10.3051 3.39648 9.15218 3.39648 8.27146 3.84523C7.49676 4.23996 6.86691 4.86981 6.47218 5.64451C6.02344 6.52522 6.02344 7.67814 6.02344 9.98398V24.2569C6.02344 26.5627 6.02344 27.7157 6.47218 28.5964C6.86691 29.3711 7.49676 30.0009 8.27146 30.3957C9.15218 30.8444 10.3051 30.8444 12.6109 30.8444H17.0026M19.7474 15.748H11.513M14.2578 21.2376H11.513M22.4922 10.2585H11.513M20.4336 26.7272L23.1784 29.472L29.3542 23.2962" stroke="#5DA0EF" stroke-width="2" stroke-linecap="round" stroke-linejoin="round"/>
</svg>
