<svg width="41" height="41" viewBox="0 0 41 41" fill="none" xmlns="http://www.w3.org/2000/svg">
<rect width="41" height="41" rx="20.5" fill="#5DA0EF"/>
<path d="M20.6522 20.2032L18.7972 18.3482C18.7565 18.3072 18.7081 18.2746 18.6548 18.2524C18.6015 18.2302 18.5443 18.2188 18.4866 18.2188C18.4288 18.2188 18.3716 18.2302 18.3183 18.2524C18.265 18.2746 18.2166 18.3072 18.1759 18.3482L7.67594 28.8482C7.35024 29.1782 7.16653 29.6226 7.16406 30.0863C7.16379 30.4326 7.26628 30.7712 7.45855 31.0593C7.65083 31.3473 7.92424 31.5718 8.24418 31.7044C8.56412 31.8369 8.9162 31.8716 9.25585 31.804C9.5955 31.7363 9.90744 31.5694 10.1522 31.3244L20.6522 20.8244C20.6932 20.7837 20.7257 20.7354 20.748 20.682C20.7702 20.6287 20.7816 20.5715 20.7816 20.5138C20.7816 20.456 20.7702 20.3988 20.748 20.3455C20.7257 20.2922 20.6932 20.2438 20.6522 20.2032Z" fill="white"/>
<path d="M31.375 29.0625H20.875C20.5269 29.0625 20.1931 29.2008 19.9469 29.4469C19.7008 29.6931 19.5625 30.0269 19.5625 30.375C19.5625 30.7231 19.7008 31.0569 19.9469 31.3031C20.1931 31.5492 20.5269 31.6875 20.875 31.6875H31.375C31.7231 31.6875 32.0569 31.5492 32.3031 31.3031C32.5492 31.0569 32.6875 30.7231 32.6875 30.375C32.6875 30.0269 32.5492 29.6931 32.3031 29.4469C32.0569 29.2008 31.7231 29.0625 31.375 29.0625Z" fill="white"/>
<path d="M28.7511 15.8083C28.7277 15.7321 28.684 15.6637 28.6247 15.6105C28.5653 15.5573 28.4925 15.5213 28.4142 15.5064C25.6623 14.9639 24.0392 13.3627 23.5098 10.6021C23.495 10.5237 23.459 10.4509 23.4058 10.3916C23.3526 10.3322 23.2842 10.2885 23.2079 10.2652C23.1319 10.242 23.0511 10.2399 22.974 10.2592C22.8969 10.2784 22.8265 10.3183 22.7704 10.3746L15.7704 17.3746C15.7142 17.4302 15.6741 17.5 15.6544 17.5767C15.6347 17.6533 15.6362 17.7338 15.6586 17.8097C15.681 17.8856 15.7236 17.9539 15.7819 18.0075C15.8401 18.0611 15.9117 18.0978 15.9892 18.1139C18.6886 18.6871 20.2898 20.3102 20.8761 23.0271C20.8927 23.1043 20.93 23.1756 20.9839 23.2334C21.0378 23.2912 21.1064 23.3332 21.1823 23.3552C21.2248 23.3684 21.2691 23.3743 21.3136 23.3727C21.3711 23.373 21.4282 23.362 21.4815 23.3402C21.5348 23.3184 21.5833 23.2864 21.6242 23.2458L28.6242 16.2458C28.6835 16.1916 28.7267 16.122 28.749 16.0449C28.7714 15.9677 28.7721 15.8858 28.7511 15.8083Z" fill="white"/>
<path d="M30.8052 16.2386C30.5614 15.9946 30.2719 15.8009 29.9532 15.6688C29.6345 15.5367 29.293 15.4688 28.948 15.4688C28.603 15.4688 28.2614 15.5367 27.9428 15.6688C27.6241 15.8009 27.3346 15.9946 27.0908 16.2386L21.5258 21.8036C21.0332 22.2973 20.757 22.9665 20.7578 23.6639C20.7586 24.3613 21.0365 25.0298 21.5302 25.5224C22.0239 26.0149 22.6931 26.2912 23.3905 26.2904C24.0879 26.2895 24.7564 26.0117 25.2489 25.518L30.8052 19.9486C31.2968 19.4564 31.5729 18.7893 31.5729 18.0936C31.5729 17.398 31.2968 16.7308 30.8052 16.2386Z" fill="#5DA0EF"/>
<path d="M23.5354 10.0485C23.5349 9.52963 23.3807 9.02256 23.0923 8.59131C22.8038 8.16006 22.394 7.82396 21.9146 7.62547C21.4352 7.42698 20.9078 7.375 20.3989 7.47609C19.89 7.57719 19.4225 7.82683 19.0554 8.19347L13.486 13.7497C13.2391 13.9929 13.0429 14.2825 12.9085 14.6019C12.7741 14.9213 12.7043 15.2642 12.7031 15.6107C12.7019 15.9572 12.7694 16.3005 12.9015 16.6209C13.0336 16.9412 13.2279 17.2322 13.4731 17.4771C13.7182 17.7219 14.0095 17.9158 14.3299 18.0476C14.6504 18.1794 14.9938 18.2464 15.3403 18.2448C15.6868 18.2432 16.0296 18.173 16.3488 18.0382C16.6681 17.9035 16.9575 17.7069 17.2004 17.4597L22.7654 11.9078C23.0097 11.6638 23.2035 11.3739 23.3356 11.0549C23.4678 10.7358 23.5357 10.3938 23.5354 10.0485Z" fill="#5DA0EF"/>
<path d="M28.2057 16.4792C28.1481 16.4796 28.091 16.4685 28.0377 16.4468C27.9844 16.425 27.9359 16.3929 27.895 16.3524C27.8737 16.3311 27.8547 16.3076 27.8382 16.2824C26.5713 16.0354 25.4069 15.4158 24.4943 14.5032C23.5816 13.5905 22.962 12.4261 22.715 11.1592L22.645 11.1242C22.604 11.0836 22.5715 11.0352 22.5493 10.9819C22.5271 10.9286 22.5156 10.8714 22.5156 10.8136C22.5156 10.7559 22.5271 10.6987 22.5493 10.6454C22.5715 10.5921 22.604 10.5437 22.645 10.503L22.75 10.398C22.8062 10.3418 22.8765 10.3019 22.9536 10.2826C23.0307 10.2633 23.1116 10.2654 23.1875 10.2886C23.2638 10.3119 23.3322 10.3556 23.3854 10.415C23.4386 10.4744 23.4746 10.5472 23.4894 10.6255C24.0363 13.3861 25.6419 15.0005 28.3938 15.5299C28.4721 15.5447 28.5449 15.5807 28.6043 15.6339C28.6636 15.6871 28.7073 15.7555 28.7307 15.8317C28.7539 15.9077 28.756 15.9886 28.7367 16.0657C28.7174 16.1427 28.6775 16.2131 28.6213 16.2692L28.5163 16.3742C28.4303 16.4482 28.3189 16.4858 28.2057 16.4792Z" fill="white"/>
<path d="M21.3154 23.3738C21.2776 23.3784 21.2395 23.3784 21.2017 23.3738C21.1252 23.354 21.0556 23.3138 21.0001 23.2576C20.9447 23.2014 20.9055 23.1312 20.8867 23.0545C20.2917 20.3113 18.6904 18.6882 15.9736 18.1238C15.8961 18.1078 15.8244 18.071 15.7662 18.0174C15.708 17.9638 15.6654 17.8955 15.643 17.8196C15.6205 17.7437 15.6191 17.6632 15.6388 17.5866C15.6585 17.51 15.6986 17.4401 15.7548 17.3845C15.8172 17.3194 15.8983 17.2753 15.9868 17.2581C16.0752 17.2408 16.1669 17.2514 16.2492 17.2882C19.2023 17.9445 21.0398 19.7776 21.7179 22.7438C21.7575 22.824 21.7716 22.9143 21.7583 23.0027C21.745 23.0911 21.705 23.1733 21.6436 23.2382C21.5555 23.3236 21.4381 23.3721 21.3154 23.3738Z" fill="white"/>
<path d="M31.375 31.6875H20.875C20.5269 31.6875 20.1931 31.5492 19.9469 31.3031C19.7008 31.0569 19.5625 30.7231 19.5625 30.375C19.5625 30.0269 19.7008 29.6931 19.9469 29.4469C20.1931 29.2008 20.5269 29.0625 20.875 29.0625H31.375C31.7231 29.0625 32.0569 29.2008 32.3031 29.4469C32.5492 29.6931 32.6875 30.0269 32.6875 30.375C32.6875 30.7231 32.5492 31.0569 32.3031 31.3031C32.0569 31.5492 31.7231 31.6875 31.375 31.6875ZM20.875 29.9375C20.759 29.9375 20.6477 29.9836 20.5656 30.0656C20.4836 30.1477 20.4375 30.259 20.4375 30.375C20.4375 30.491 20.4836 30.6023 20.5656 30.6844C20.6477 30.7664 20.759 30.8125 20.875 30.8125H31.375C31.491 30.8125 31.6023 30.7664 31.6844 30.6844C31.7664 30.6023 31.8125 30.491 31.8125 30.375C31.8125 30.259 31.7664 30.1477 31.6844 30.0656C31.6023 29.9836 31.491 29.9375 31.375 29.9375H20.875Z" fill="white"/>
<path d="M23.3883 26.2832C22.8695 26.2828 22.3624 26.1286 21.9312 25.8401C21.4999 25.5516 21.1638 25.1418 20.9653 24.6624C20.7668 24.1831 20.7148 23.6556 20.8159 23.1467C20.917 22.6378 21.1667 22.1703 21.5333 21.8032L27.0983 16.2382C27.3412 15.9911 27.6306 15.7944 27.9498 15.6597C28.2691 15.525 28.6119 15.4548 28.9584 15.4532C29.3049 15.4515 29.6483 15.5186 29.9688 15.6503C30.2892 15.7821 30.5805 15.976 30.8256 16.2209C31.0708 16.4658 31.2651 16.7567 31.3972 17.0771C31.5293 17.3974 31.5968 17.7407 31.5956 18.0872C31.5944 18.4338 31.5246 18.7766 31.3902 19.096C31.2558 19.4154 31.0596 19.705 30.8127 19.9482L25.2564 25.5176C25.011 25.7622 24.7196 25.9558 24.3989 26.0872C24.0783 26.2186 23.7348 26.2852 23.3883 26.2832ZM28.9577 16.3432C28.7278 16.343 28.5001 16.3881 28.2877 16.476C28.0753 16.5638 27.8822 16.6926 27.7196 16.8551L22.1502 22.4245C21.9875 22.587 21.8584 22.78 21.7703 22.9924C21.6823 23.2049 21.6369 23.4326 21.6369 23.6626C21.6369 23.8926 21.6823 24.1203 21.7703 24.3327C21.8584 24.5452 21.9875 24.7382 22.1502 24.9007C22.3127 25.0634 22.5057 25.1925 22.7182 25.2806C22.9306 25.3686 23.1583 25.414 23.3883 25.414C23.6183 25.414 23.846 25.3686 24.0585 25.2806C24.2709 25.1925 24.4639 25.0634 24.6264 24.9007L30.1914 19.3313C30.4362 19.0869 30.603 18.7753 30.6708 18.4361C30.7386 18.0968 30.7043 17.7451 30.5722 17.4253C30.4402 17.1056 30.2164 16.8321 29.929 16.6395C29.6416 16.4469 29.3036 16.3438 28.9577 16.3432Z" fill="white" stroke="white"/>
<path d="M15.339 18.2424C14.8175 18.2446 14.3071 18.0913 13.873 17.8022C13.4389 17.5131 13.1008 17.1012 12.9018 16.6192C12.7027 16.1371 12.6518 15.6066 12.7555 15.0955C12.8592 14.5843 13.1129 14.1157 13.484 13.7493L19.0534 8.19304C19.2966 7.94618 19.5862 7.7499 19.9056 7.61554C20.225 7.48117 20.5679 7.41138 20.9144 7.41017C21.2609 7.40897 21.6042 7.47638 21.9245 7.60853C22.2449 7.74067 22.5359 7.93493 22.7808 8.1801C23.0256 8.42526 23.2195 8.71649 23.3513 9.03697C23.4831 9.35745 23.5501 9.70085 23.5485 10.0474C23.5469 10.3939 23.4767 10.7366 23.3419 11.0559C23.2072 11.3751 23.0106 11.6645 22.7634 11.9074L17.1984 17.4724C16.9544 17.7168 16.6645 17.9105 16.3455 18.0427C16.0264 18.1748 15.6844 18.2427 15.339 18.2424ZM20.9084 8.29804C20.6782 8.29843 20.4504 8.34423 20.2379 8.43282C20.0255 8.5214 19.8326 8.65104 19.6703 8.81429L14.1009 14.3793C13.7725 14.7077 13.5881 15.153 13.5881 15.6174C13.5881 16.0818 13.7725 16.5272 14.1009 16.8555C14.4293 17.1839 14.8747 17.3684 15.339 17.3684C15.8034 17.3684 16.2488 17.1839 16.5772 16.8555L22.1465 11.2862C22.3916 11.0414 22.5585 10.7295 22.6261 10.3898C22.6937 10.0502 22.6591 9.69809 22.5265 9.37815C22.3939 9.05821 22.1694 8.7848 21.8814 8.59253C21.5933 8.40025 21.2547 8.29776 20.9084 8.29804Z" fill="white" stroke="white"/>
<path d="M8.89844 31.8551C8.43431 31.8551 7.98919 31.6707 7.661 31.3425C7.33281 31.0143 7.14844 30.5692 7.14844 30.1051C7.15091 29.6414 7.33462 29.197 7.66031 28.8669L18.1603 18.3669C18.2427 18.2846 18.3544 18.2383 18.4709 18.2383C18.5874 18.2383 18.6992 18.2846 18.7816 18.3669C18.8639 18.4493 18.9102 18.5611 18.9102 18.6776C18.9102 18.7941 18.8639 18.9058 18.7816 18.9882L8.28156 29.4882C8.11859 29.6521 8.02712 29.8739 8.02712 30.1051C8.02712 30.3362 8.11859 30.558 8.28156 30.7219C8.4455 30.8849 8.66728 30.9764 8.89844 30.9764C9.1296 30.9764 9.35137 30.8849 9.51531 30.7219L20.0153 20.2219C20.0977 20.1396 20.2094 20.0933 20.3259 20.0933C20.4424 20.0933 20.5542 20.1396 20.6366 20.2219C20.7189 20.3043 20.7652 20.4161 20.7652 20.5326C20.7652 20.6491 20.7189 20.7608 20.6366 20.8432L10.1366 31.3432C9.97392 31.5057 9.78087 31.6345 9.56842 31.7223C9.35598 31.8101 9.12832 31.8553 8.89844 31.8551Z" fill="white"/>
</svg>
