<svg width="60" height="60" viewBox="0 0 60 60" fill="none" xmlns="http://www.w3.org/2000/svg">
<rect x="60" width="60" height="60" rx="30" transform="rotate(90 60 0)" fill="#5DA0EF"/>
<path fill-rule="evenodd" clip-rule="evenodd" d="M28.8125 14.1641C28.8125 13.5086 29.3445 12.9766 30 12.9766C30.6555 12.9766 31.1875 13.5086 31.1875 14.1641V20.4974C31.1875 21.1529 30.6555 21.6849 30 21.6849C29.3445 21.6849 28.8125 21.1529 28.8125 20.4974V14.1641Z" fill="white"/>
<path fill-rule="evenodd" clip-rule="evenodd" d="M39.1094 17.332C39.1094 16.6765 39.6414 16.1445 40.2969 16.1445C40.9524 16.1445 41.4844 16.6765 41.4844 17.332V24.457C41.4844 25.1125 40.9524 25.6445 40.2969 25.6445C39.6414 25.6445 39.1094 25.1125 39.1094 24.457V17.332Z" fill="white"/>
<path fill-rule="evenodd" clip-rule="evenodd" d="M18.5234 17.332C18.5234 16.6765 19.0554 16.1445 19.7109 16.1445C20.3664 16.1445 20.8984 16.6765 20.8984 17.332V24.457C20.8984 25.1125 20.3664 25.6445 19.7109 25.6445C19.0554 25.6445 18.5234 25.1125 18.5234 24.457V17.332Z" fill="white"/>
<path fill-rule="evenodd" clip-rule="evenodd" d="M33.2138 15.6995C33.6777 16.1634 33.6777 16.9155 33.2138 17.3794C32.7514 17.8418 31.9978 17.8418 31.5354 17.3794L29.9996 15.8436L28.4638 17.3794C28.0014 17.8418 27.2478 17.8418 26.7854 17.3794C26.3215 16.9155 26.3215 16.1634 26.7854 15.6995L29.1604 13.3245C29.6244 12.8606 30.3749 12.8606 30.8388 13.3245L33.2138 15.6995Z" fill="white"/>
<path fill-rule="evenodd" clip-rule="evenodd" d="M43.5106 18.8675C43.9746 19.3314 43.9746 20.0835 43.5106 20.5474C43.0483 21.0097 42.2946 21.0097 41.8323 20.5474L40.2965 19.0116L38.7606 20.5474C38.2983 21.0097 37.5446 21.0097 37.0823 20.5474C36.6184 20.0835 36.6184 19.3314 37.0823 18.8675L39.4573 16.4925C39.9212 16.0286 40.6717 16.0286 41.1356 16.4925L43.5106 18.8675Z" fill="white"/>
<path fill-rule="evenodd" clip-rule="evenodd" d="M22.9247 18.8675C23.3886 19.3314 23.3886 20.0835 22.9247 20.5474C22.4624 21.0097 21.7087 21.0097 21.2464 20.5474L19.7105 19.0116L18.1747 20.5474C17.7124 21.0097 16.9587 21.0097 16.4964 20.5474C16.0325 20.0835 16.0325 19.3314 16.4964 18.8675L18.8714 16.4925C19.3353 16.0286 20.0858 16.0286 20.5497 16.4925L22.9247 18.8675Z" fill="white"/>
<path fill-rule="evenodd" clip-rule="evenodd" d="M30.0052 22.4766C36.7771 22.4766 42.276 27.9755 42.276 34.7474C42.276 41.5209 36.7771 47.0182 30.0052 47.0182C23.2333 47.0182 17.7344 41.5209 17.7344 34.7474C17.7344 27.9755 23.2333 22.4766 30.0052 22.4766ZM28.8177 28.4141V34.7474C28.8177 35.1654 29.0362 35.5517 29.394 35.7671L33.3524 38.1421C33.9145 38.4793 34.6444 38.2956 34.9816 37.7336C35.3189 37.1715 35.1368 36.4416 34.5747 36.1043L31.1927 34.0761V28.4141C31.1927 27.7586 30.6607 27.2266 30.0052 27.2266C29.3497 27.2266 28.8177 27.7586 28.8177 28.4141Z" fill="white"/>
</svg>
