<svg width="41" height="41" viewBox="0 0 41 41" fill="none" xmlns="http://www.w3.org/2000/svg">
<rect width="41" height="41" rx="20.5" fill="#5DA0EF"/>
<g clip-path="url(#clip0_4312_3143)">
<path d="M32.4781 16.2691C31.9859 15.7766 31.2035 15.7456 30.6744 16.1767C30.5979 16.2391 30.6571 16.1841 29.4922 17.3491L32.5161 20.3731L33.6029 19.2999C34.1284 18.7744 34.1284 17.9195 33.6029 17.394L32.4781 16.2691Z" fill="white"/>
<path d="M23.2952 23.6064L21.5164 27.4182C21.3965 27.675 21.4501 27.9792 21.6505 28.1796C21.8508 28.38 22.1552 28.4335 22.4119 28.3137L26.2237 26.5349C26.3745 26.4645 25.918 26.8918 31.5614 21.3188L28.5434 18.3008C22.9481 23.8962 23.367 23.4526 23.2952 23.6064Z" fill="white"/>
<path d="M27.3571 27.3628C27.1921 27.5257 27.0019 27.658 26.7918 27.7561L22.98 29.5349C22.2304 29.8847 21.3147 29.7515 20.6958 29.1325C20.0969 28.5337 19.9352 27.6157 20.2933 26.8482L22.0722 23.0363C22.1721 22.8222 22.3075 22.629 22.4745 22.4619L28.2051 16.7313V11.0215C28.2051 9.90684 27.2982 9 26.1836 9H13.0215C11.9068 9 11 9.90684 11 11.0215V29.9785C11 31.0932 11.9068 32 13.0215 32H26.1836C27.2982 32 28.2051 31.0932 28.2051 29.9785V26.5253L27.3571 27.3628ZM14.5938 13.3574H24.6563C25.0284 13.3574 25.3301 13.6591 25.3301 14.0312C25.3301 14.4034 25.0284 14.7051 24.6563 14.7051H14.5938C14.2217 14.7051 13.92 14.4034 13.92 14.0312C13.92 13.6591 14.2217 13.3574 14.5938 13.3574ZM14.5938 16.9512H22.5C22.8722 16.9512 23.1739 17.2529 23.1739 17.625C23.1739 17.9971 22.8722 18.2988 22.5 18.2988H14.5938C14.2217 18.2988 13.92 17.9971 13.92 17.625C13.92 17.2529 14.2217 16.9512 14.5938 16.9512ZM13.92 21.2188C13.92 20.8466 14.2217 20.5449 14.5938 20.5449H20.3438C20.7159 20.5449 21.0176 20.8466 21.0176 21.2188C21.0176 21.5909 20.7159 21.8926 20.3438 21.8926H14.5938C14.2217 21.8926 13.92 21.5909 13.92 21.2188Z" fill="white"/>
</g>
<defs>
<clipPath id="clip0_4312_3143">
<rect width="23" height="23" fill="white" transform="translate(11 9)"/>
</clipPath>
</defs>
</svg>
