<svg width="60" height="60" viewBox="0 0 60 60" fill="none" xmlns="http://www.w3.org/2000/svg">
<rect x="60" width="60" height="60" rx="30" transform="rotate(90 60 0)" fill="#5DA0EF"/>
<path d="M24.0997 32.7461H21.9266C20.7509 32.7461 19.7891 33.708 19.7891 34.8836V43.8611C19.7891 45.0486 20.7509 45.9986 21.9266 45.9986H24.0997V32.7461Z" fill="white"/>
<path d="M40.0972 36.6405L38.1259 43.7417C37.7578 45.0717 36.5584 45.998 35.1691 45.998H25.8828V32.7455L29.8016 27.1998C30.2172 26.618 30.8941 26.2617 31.6184 26.2617C32.8772 26.2617 33.8391 27.2948 33.8391 28.4823C33.8391 28.6842 33.8153 28.8861 33.7559 29.088L32.7228 32.7455H37.1403C39.1709 32.7455 40.6434 34.6811 40.0972 36.6405Z" fill="white"/>
<path d="M18.2224 19.0754L19.1142 20.8816C19.1986 21.0514 19.3601 21.1702 19.5489 21.1975L21.5427 21.4872C22.0153 21.5561 22.2041 22.1368 21.8621 22.4705L20.4193 23.8765C20.2839 24.0095 20.221 24.1995 20.2531 24.3871L20.5939 26.3726C20.6746 26.844 20.1806 27.2027 19.7567 26.9806L17.9731 26.0437C17.8056 25.9558 17.6049 25.9558 17.4363 26.0437L15.6527 26.9806C15.2299 27.2027 14.7347 26.844 14.8155 26.3726L15.1563 24.3871C15.1884 24.1995 15.1266 24.0095 14.9901 23.8765L13.5496 22.4705C13.2076 22.1368 13.3964 21.5561 13.8691 21.4872L15.8629 21.1975C16.0505 21.1702 16.2132 21.0514 16.2975 20.8816L17.1893 19.0754C17.4007 18.6467 18.0111 18.6467 18.2224 19.0754Z" fill="white"/>
<path d="M30.5193 14.3254L31.4111 16.1316C31.4954 16.3014 31.6569 16.4202 31.8457 16.4475L33.8396 16.7372C34.3122 16.8061 34.501 17.3868 34.159 17.7205L32.7162 19.1265C32.5808 19.2595 32.5179 19.4495 32.5499 19.6371L32.8907 21.6226C32.9715 22.094 32.4775 22.4527 32.0536 22.2306L30.2699 21.2937C30.1025 21.2058 29.9018 21.2058 29.7332 21.2937L27.9496 22.2306C27.5268 22.4527 27.0316 22.094 27.1124 21.6226L27.4532 19.6371C27.4852 19.4495 27.4235 19.2595 27.2869 19.1265L25.8465 17.7205C25.5045 17.3868 25.6933 16.8061 26.1659 16.7372L28.1597 16.4475C28.3474 16.4202 28.5101 16.3026 28.5944 16.1316L29.4862 14.3254C29.6976 13.8967 30.3079 13.8967 30.5193 14.3254Z" fill="white"/>
<path d="M42.8107 19.0754L43.7026 20.8816C43.7869 21.0514 43.9484 21.1702 44.1372 21.1975L46.131 21.4872C46.6036 21.5561 46.7924 22.1368 46.4504 22.4705L45.0076 23.8765C44.8722 24.0095 44.8093 24.1995 44.8414 24.3871L45.1822 26.3726C45.2629 26.844 44.7689 27.2027 44.345 26.9806L42.5614 26.0437C42.3939 25.9558 42.1932 25.9558 42.0246 26.0437L40.241 26.9806C39.8182 27.2027 39.3231 26.844 39.4038 26.3726L39.7446 24.3871C39.7767 24.1995 39.7149 24.0095 39.5784 23.8765L38.1356 22.4705C37.7936 22.1368 37.9824 21.5561 38.455 21.4872L40.4488 21.1975C40.6364 21.1702 40.7991 21.0526 40.8834 20.8816L41.7752 19.0754C41.989 18.6467 42.5994 18.6467 42.8107 19.0754Z" fill="white"/>
</svg>
