<svg width="243" height="504" viewBox="0 0 243 504" fill="none" xmlns="http://www.w3.org/2000/svg">
<path d="M78.2027 145.421L78.276 148.58C78.305 149.781 78.3496 150.973 78.4102 152.162C78.5141 154.192 78.7797 156.649 79.037 159.025C79.1586 160.142 79.2719 161.208 79.3677 162.202L79.3726 162.244L79.3677 162.337L80.1189 170.545C80.1668 173.552 80.9868 176.022 82.6268 178.09L83.8273 179.604L83.592 180.251C83.5442 180.382 83.4914 180.509 83.4386 180.64C83.2135 181.19 82.9689 181.786 82.8281 182.492C82.6714 183.283 82.5102 184.074 82.3473 184.865C81.8326 187.381 81.3002 189.978 80.9389 192.617C80.3026 197.286 80.4242 201.299 81.3096 204.877L81.3563 205.059L81.2859 205.232C80.5346 207.122 79.0546 210.912 78.837 211.707C78.5796 212.646 78.1962 213.754 77.7903 214.925C77.3872 216.084 76.9735 217.285 76.6859 218.321L76.1151 220.376C73.1596 231.033 69.8096 243.111 68.9065 253.989C68.6954 256.534 68.3517 259.207 67.9875 262.041C67.3017 267.361 66.5951 272.863 66.8349 277.451C67.1401 283.291 67.7813 287.432 68.5899 292.676L68.6074 292.79C68.9 294.685 69.2151 296.736 69.5457 299.066L78.821 331.05C78.9523 334.344 79.0563 337.702 79.1328 341.031C79.1983 343.889 79.1999 346.693 79.2015 349.658V349.979C79.2032 351.231 79.2048 352.495 79.2097 353.785L79.2334 358.42L79.1774 358.543C75.701 365.88 73.4313 373.924 72.4292 382.458C71.5552 389.901 71.0993 400.977 72.4435 409.723C72.7168 411.499 72.9566 413.131 73.1837 414.671L73.2238 414.946C74.4481 423.277 75.2583 428.783 78.2985 438.172C78.9683 440.235 80.1701 443.039 81.5989 445.868L81.7876 446.241L81.495 446.537C80.896 447.141 80.4769 447.983 80.3796 448.786L80.231 449.979C80.0182 451.645 79.7993 453.366 79.7273 455.13L77.8156 466.959L74.942 470.046C71.3633 474.892 68.4638 477.654 63.8622 480.589C62.8585 481.232 59.0973 484.615 56.6631 487.782C55.287 489.571 53.5271 492.252 54.1376 494.858C54.451 496.198 55.3443 497.272 56.652 497.881C61.378 500.042 66.0182 501.988 70.7908 501.988C75.0586 501.988 78.9986 500.431 82.8363 497.234C83.1448 496.976 83.4419 496.723 83.7361 496.473C85.3486 495.103 86.5844 494.05 88.2849 493.356C88.6671 493.2 89.0779 493.056 89.4965 492.904C92.0363 491.999 95.7799 490.658 96.7754 486.556L98.3373 480.128C98.4588 479.658 98.6106 479.083 98.6617 478.457C98.8708 475.852 99.0468 473.243 99.2227 470.634L99.3618 468.561C99.3938 468.084 99.3983 467.606 99.3762 467.145L99.3729 467.085L99.9339 463.398C99.9625 463.216 99.9944 463.055 100.025 462.916C100.147 462.345 100.284 461.693 100.154 460.894C99.9818 459.833 99.8349 458.763 99.6876 457.689C99.2898 454.779 98.8868 451.836 98.0173 448.968C96.8683 445.175 96.6412 439.318 97.4755 435.042C98.5578 429.498 99.8971 425.658 101.317 421.594C102.712 417.597 104.147 413.487 105.324 407.731C106.525 401.84 106.606 394.667 105.528 389.466C104.871 386.302 104.4 383.499 103.901 380.53L103.876 380.373C103.629 378.919 103.378 377.434 103.097 375.857C103.079 375.552 103.068 375.155 103.052 374.651L103.038 374.148C102.843 367.58 102.752 367.031 102.514 366.405L102.181 365.529L102.867 365.61L103.673 363.66C108.111 352.931 110.646 341.284 111.209 329.045C111.586 320.786 111.201 312.692 110.064 304.991L110.019 304.686L110.363 304.373C111.118 303.68 111.586 302.796 111.754 301.751C111.968 300.415 112.47 298.309 112.956 296.275C113.557 293.763 114.174 291.179 114.43 289.348C116.506 279.384 116.803 276.948 117.682 269.716L118.098 266.257C119.009 258.34 119.226 256.462 119.226 251.455V250.901C119.228 248.144 119.229 245.97 118.745 244.317L118.525 243.568L119.28 243.585C120.385 243.611 124.438 243.513 124.478 243.513L125.196 243.496L125.023 244.215C124.494 246.444 124.267 248.444 124.269 250.901V251.455C124.269 256.458 124.486 258.332 125.396 266.223L125.811 269.695C126.693 276.948 126.989 279.384 129.059 289.309C129.321 291.174 129.937 293.754 130.533 296.254C131.023 298.3 131.527 300.402 131.741 301.751C131.909 302.796 132.377 303.676 133.132 304.373L133.476 304.686L133.431 304.991C132.294 312.7 131.909 320.79 132.288 329.045C132.849 341.28 135.384 352.927 139.822 363.66L140.656 365.606L141.316 365.525L140.981 366.405C140.745 367.031 140.652 367.585 140.457 374.144L140.444 374.605C140.428 375.129 140.416 375.548 140.406 375.781C140.12 377.417 139.871 378.893 139.628 380.344L139.594 380.534C139.095 383.503 138.624 386.307 137.968 389.466C136.891 394.667 136.971 401.84 138.173 407.731C139.351 413.499 140.786 417.606 142.175 421.581C143.596 425.654 144.937 429.494 146.019 435.042C146.855 439.318 146.627 445.175 145.478 448.968C144.608 451.836 144.205 454.779 143.815 457.629C143.66 458.758 143.513 459.833 143.341 460.894C143.211 461.693 143.35 462.345 143.46 462.865C143.503 463.068 143.536 463.22 143.563 463.398L144.124 467.081L144.12 467.14C144.097 467.601 144.101 468.079 144.135 468.561L144.277 470.68C144.451 473.277 144.626 475.869 144.835 478.457C144.886 479.087 145.028 479.629 145.147 480.031L145.168 480.149L146.72 486.556C147.717 490.662 151.462 491.999 153.939 492.883C154.406 493.052 154.823 493.2 155.21 493.356C156.911 494.05 158.146 495.099 159.711 496.431C160.027 496.701 160.339 496.968 160.659 497.234C164.495 500.431 168.435 501.984 172.704 501.988C177.478 501.988 182.128 500.038 186.869 497.869C188.159 497.268 189.044 496.198 189.357 494.858C189.968 492.252 188.21 489.571 186.834 487.782C184.403 484.615 180.64 481.232 179.634 480.589C175.033 477.654 172.133 474.892 168.553 470.042L168.433 469.881L165.681 466.959L163.775 455.202C163.696 453.362 163.477 451.641 163.266 449.975L163.115 448.786C163.02 447.983 162.601 447.141 162 446.537L161.706 446.245L161.896 445.868C163.325 443.039 164.527 440.235 165.197 438.172C168.237 428.787 169.045 423.281 170.271 414.946L170.31 414.688C170.537 413.148 170.778 411.507 171.051 409.723C172.397 400.981 171.94 389.906 171.066 382.458C170.065 373.928 167.794 365.88 164.32 358.543L164.263 358.42L164.286 353.785C164.292 352.39 164.293 351.028 164.293 349.683C164.295 346.697 164.297 343.877 164.362 341.031C164.437 337.723 164.543 334.366 164.674 331.05L164.696 330.915L173.438 299.823C173.609 298.58 173.943 297.133 174.266 295.733C174.526 294.6 174.774 293.534 174.905 292.676C175.715 287.432 176.355 283.291 176.662 277.451C176.902 272.867 176.193 267.365 175.509 262.045C175.145 259.216 174.801 256.543 174.588 253.989C173.685 243.107 170.335 231.029 167.378 220.372L166.809 218.321C166.192 216.088 165.636 214.464 164.827 212.536C163.899 210.315 161.864 205.228 161.864 205.228L161.794 205.05L161.84 204.868C162.18 203.523 162.382 202.242 162.457 200.956C162.791 195.192 162.04 189.124 160.09 181.854C159.933 181.27 159.711 180.813 159.475 180.331L159.195 179.752L160.36 178.259C161.941 176.229 162.767 174.013 162.96 171.286L163.759 162.637L163.892 161.821C164.012 161.111 164.131 160.4 164.214 159.685C164.626 156.171 164.858 152.695 164.923 149.053L164.981 145.962L165.99 148.876C166.814 151.257 167.904 153.663 169.47 157.067C169.958 158.125 170.951 159.787 172.103 161.69C172.367 162.125 172.602 162.514 172.773 162.806C173.033 163.246 173.316 163.644 173.613 163.995L173.853 164.274L173.697 164.612C173.492 165.056 173.382 165.437 173.334 165.623C172.349 169.412 172.819 173.358 174.694 177.033C175.923 179.443 176.42 181.786 176.997 184.501C177.402 186.4 177.817 188.354 178.516 190.447C180.921 197.632 184.132 205.951 187.246 213.868C188.945 218.19 190.983 222.271 192.954 226.221C194.83 229.976 196.769 233.863 198.359 237.867C198.541 238.324 198.735 238.777 198.929 239.233L200.07 241.944L200.57 241.822L200.346 242.76C198.522 248.58 199.304 253.088 202.958 257.833L207.847 264.557C209.537 268.004 211.407 271.539 213.977 274.656C214.284 275.036 214.995 275.912 216.284 276.068C216.947 276.144 217.66 276.191 218.265 276.085L218.671 276.018L218.85 276.402C219.074 276.885 219.301 277.367 219.538 277.84C220.541 279.866 222.447 281.025 224.763 281.025C225.845 281.025 226.794 280.716 227.531 280.132L227.867 279.866L228.834 280.644L229.898 280.67C231.725 280.67 233.295 279.815 234.191 278.327C234.944 277.083 235.11 275.535 234.65 274.081L234.524 273.679L234.859 273.438C236.282 272.423 237.117 271.006 237.206 269.454C237.358 266.879 236.018 264.866 235.04 263.398C234.711 262.899 234.418 262.459 234.214 262.07C232.898 259.571 231.514 257.046 230.208 254.674L229.593 253.557L230.805 253.841C231.351 253.963 234.302 254.64 234.888 254.775L235.401 254.691C238.128 254.247 240.045 252.91 241.098 250.724C241.75 249.366 241.314 247.895 241.163 247.476C240.75 246.313 240.013 245.78 239.466 245.539L238.333 245.031C237.108 244.486 235.881 243.936 234.647 243.407L234.517 243.357L232.186 240.384L230.109 238.24C228.006 236.062 225.87 233.846 223.688 231.727C222.75 230.813 221.646 230.073 220.407 229.528L219.642 229.189L220.415 228.424L219.341 226.496C219.224 226.284 219.101 226.073 218.98 225.866C218.671 225.328 218.432 224.914 218.257 224.542C213.33 213.965 210.534 203.545 209.716 192.68C208.811 180.704 205.157 170.22 198.857 161.525C198.564 161.123 197.953 160.282 197.028 159.673L196.588 159.385L196.846 158.916C198.94 155.088 199.502 150.487 199.347 147.709C199.016 141.784 198.46 138.705 195.997 133.224C194.565 130.036 192.941 127.46 191.031 125.354L190.839 125.138L190.893 124.855C190.946 124.58 190.967 124.314 190.959 124.047C190.909 122.618 190.895 121.15 190.881 119.67L190.879 119.505C190.821 113.458 190.764 107.203 188.63 101.473C187.072 97.2858 182.385 91.8008 178.936 89.1196C173.442 84.8483 169.022 83.9009 162.393 82.8479C161.936 82.7718 161.496 82.7337 161.085 82.7252L160.875 82.6788L153.517 79.3589C152.811 79.0544 152.251 78.8133 151.702 78.5511C148.19 76.8637 144.685 75.1638 141.181 73.4552C141.084 73.4087 140.973 73.3538 140.852 73.303L140.487 73.1422L140.516 72.7362C140.57 71.9538 140.537 71.1505 140.414 70.3512C140.245 69.2262 140.136 68.042 140.021 66.786C139.963 66.1643 139.905 65.5216 139.837 64.8534L139.77 64.2106L138.822 62.6288L139.185 62.3116C140.854 60.8569 141.808 58.7383 141.94 56.1924C142.046 54.1794 142.23 52.1154 142.412 50.1827L142.453 49.7557L142.866 49.6795C145.981 49.1212 147.573 44.7908 148.626 41.9235L148.714 41.6825C148.837 41.3442 148.94 41.0649 149.026 40.8788C150.998 36.5483 150.287 33.8376 146.492 31.2241L144.998 30.1879L144.993 29.8877C144.981 28.9953 144.988 27.8239 144.995 27.0669C145.009 25.2357 145.009 24.4999 144.947 24.0178C144.675 21.9287 144.183 18.8288 143.055 16.0714C139.284 6.85635 130.989 1.13434 121.406 1.13434C119.293 1.13434 117.169 1.42194 115.091 1.9971C109.151 3.62949 102.849 9.30072 100.433 15.1918C98.9731 18.7526 98.1294 22.728 97.9281 27.0035C97.8753 28.12 97.8544 29.1433 97.8638 30.1287L97.8671 30.4712L97.1114 30.8815C95.7365 31.3002 94.4676 32.4251 93.6284 33.9645C92.7331 35.6054 92.5621 37.3477 93.1599 38.7433C94.0662 40.8662 95.0589 43.0949 96.3777 45.9791C96.766 46.8291 97.2484 47.8061 98.0607 48.6012C98.6184 49.1509 99.3966 49.5315 100.255 49.6795L100.669 49.7557L100.711 50.187C100.927 52.5003 101.141 54.8855 101.326 57.2538C101.489 59.3344 102.354 61.0557 103.829 62.2313L104.142 62.4808L103.214 65.2763L103.049 67.2343C102.899 68.9682 102.744 70.7571 102.664 72.563L102.645 72.9689L102.267 73.0831C101.874 73.1973 101.545 73.3495 101.332 73.4552C97.8303 75.1638 94.3252 76.8638 90.8153 78.547C90.2588 78.8134 89.695 79.0587 89.0648 79.3294L87.8536 79.858L81.3976 82.7548C81.1545 82.7759 80.9021 82.8056 80.6447 82.8479C74.0164 83.9009 69.5952 84.8483 64.1036 89.1196C60.6542 91.8008 55.9662 97.2858 54.4093 101.473C52.2754 107.203 52.2181 113.453 52.1604 119.501L52.1588 119.619C52.1461 121.117 52.1318 122.601 52.0823 124.047C52.0725 124.314 52.0933 124.58 52.1461 124.855L52.2022 125.138L52.0086 125.354C50.0986 127.464 48.4729 130.036 47.0424 133.224C44.5795 138.709 44.0231 141.788 43.6924 147.709C43.5374 150.487 44.0984 155.088 46.1938 158.916L46.4511 159.385L46.01 159.673C45.0861 160.277 44.4772 161.119 44.1847 161.525C37.8809 170.224 34.2269 180.704 33.3238 192.68C32.5038 203.545 29.7099 213.965 24.7805 224.542C24.6623 224.795 23.5992 227.472 22.9139 229.211L22.8275 229.426L22.6196 229.515C21.3712 230.065 20.2587 230.809 19.3126 231.727C17.1244 233.854 14.9827 236.074 12.911 238.219L10.7771 240.426L8.48369 243.357L8.35398 243.407C7.12644 243.932 5.90545 244.477 4.68773 245.023L3.54325 245.535C2.99331 245.78 2.25024 246.317 1.83614 247.48C1.68761 247.899 1.25266 249.37 1.90653 250.724C2.95649 252.91 4.87309 254.247 7.6015 254.691L8.11461 254.775L13.4082 253.557L12.7944 254.674C11.4887 257.046 10.1012 259.571 8.78894 262.07C8.57944 262.468 8.28074 262.916 7.96239 263.394C6.98282 264.866 5.64316 266.879 5.79538 269.454C5.88622 271.006 6.7189 272.423 8.14162 273.438L8.47715 273.679L8.35112 274.081C7.89079 275.535 8.05855 277.083 8.80981 278.327C9.69527 279.794 11.3046 280.67 13.1156 280.67H14.1402L15.1345 279.866L15.47 280.132C16.2053 280.716 17.1563 281.025 18.2177 281.025C20.5545 281.025 22.4597 279.866 23.4617 277.845C23.6982 277.367 23.927 276.885 24.1524 276.402L24.3296 276.018L24.7376 276.085C25.319 276.187 26.0273 276.149 26.7434 276.064C28.0061 275.912 28.7189 275.036 29.061 274.614C31.5975 271.539 33.4646 268.004 35.1042 264.642L39.9779 257.917C43.6826 253.109 44.4789 248.575 42.6535 242.752L42.3561 241.805L42.9682 241.948L44.1094 239.233C44.3107 238.764 44.501 238.316 44.6802 237.867C46.2658 233.875 48.2028 229.993 50.0761 226.238C52.0598 222.262 54.0963 218.181 55.7935 213.868C58.9025 205.959 62.1117 197.649 64.5238 190.447C65.2239 188.35 65.6392 186.4 66.0406 184.51C66.6176 181.79 67.1164 179.443 68.3456 177.033C70.2204 173.358 70.6902 169.412 69.7073 165.623C69.6578 165.437 69.5457 165.056 69.3411 164.612L69.186 164.274L69.4258 163.995C69.7233 163.644 70.006 163.246 70.265 162.806C70.4361 162.519 70.6681 162.134 70.9299 161.698C72.0838 159.791 73.0814 158.125 73.5688 157.067C75.2681 153.38 76.3614 150.957 77.2084 148.406L78.2027 145.421ZM172.706 503.121H172.704C168.174 503.121 164.009 501.484 159.97 498.114C159.647 497.847 159.334 497.581 159.024 497.319C157.523 496.042 156.346 495.039 154.807 494.413C154.433 494.261 154.032 494.117 153.621 493.969C150.88 492.992 146.796 491.534 145.655 486.831L144.079 480.301C143.958 479.883 143.798 479.261 143.74 478.555C143.531 475.958 143.357 473.357 143.181 470.76L143.039 468.642C143.005 468.134 142.998 467.627 143.021 467.14L142.478 463.575C142.455 463.423 142.426 463.288 142.401 463.169C142.271 462.556 142.094 461.723 142.258 460.708C142.429 459.655 142.575 458.589 142.72 457.528C143.125 454.576 143.534 451.586 144.429 448.63C145.53 444.997 145.746 439.377 144.944 435.266C143.878 429.802 142.549 425.996 141.144 421.97C139.741 417.957 138.291 413.808 137.099 407.964C135.866 401.929 135.787 394.574 136.894 389.229C137.545 386.091 138.015 383.3 138.512 380.344L138.545 380.149C138.79 378.699 139.039 377.218 139.318 375.654C139.319 375.497 139.332 375.087 139.346 374.571L139.36 374.11C139.525 368.562 139.619 367.191 139.813 366.443L138.817 364.113C134.323 353.248 131.759 341.47 131.192 329.1C130.814 320.879 131.188 312.814 132.301 305.122C131.414 304.268 130.861 303.198 130.659 301.937C130.45 300.635 129.953 298.55 129.47 296.533C128.866 293.999 128.243 291.39 127.979 289.508C125.906 279.574 125.608 277.126 124.724 269.856L124.305 266.367C123.388 258.412 123.171 256.526 123.171 251.455V250.901C123.169 248.647 123.364 246.694 123.796 244.659C122.825 244.685 121.083 244.719 119.977 244.723C120.326 246.402 120.326 248.427 120.324 250.901V251.455C120.324 256.53 120.107 258.421 119.188 266.38L118.774 269.839C117.888 277.126 117.589 279.574 115.51 289.546C115.252 291.394 114.628 294.008 114.025 296.533C113.541 298.563 113.044 300.643 112.837 301.937C112.634 303.198 112.081 304.268 111.195 305.122C112.307 312.806 112.681 320.871 112.303 329.1C111.738 341.475 109.172 353.253 104.682 364.108L103.695 366.489C103.88 367.255 103.975 368.684 104.135 374.114L104.15 374.613C104.165 375.112 104.176 375.506 104.186 375.73C104.459 377.231 104.71 378.72 104.956 380.179L104.982 380.335C105.48 383.291 105.948 386.082 106.601 389.229C107.708 394.574 107.629 401.929 106.398 407.964C105.205 413.8 103.757 417.948 102.357 421.957C100.944 426 99.6176 429.802 98.5513 435.266C97.7489 439.377 97.9645 444.997 99.066 448.63C99.9609 451.586 100.37 454.576 100.767 457.469C100.92 458.594 101.066 459.655 101.237 460.708C101.403 461.719 101.225 462.556 101.107 463.11C101.072 463.279 101.043 463.419 101.017 463.575L100.476 467.145C100.497 467.635 100.492 468.138 100.456 468.642L100.324 470.617C100.142 473.327 99.9658 475.941 99.7547 478.55C99.6974 479.257 99.5374 479.883 99.4159 480.305L99.4015 480.403L97.8417 486.831C96.7005 491.534 92.6198 492.988 89.92 493.957C89.4503 494.122 89.0554 494.261 88.688 494.413C87.1486 495.039 85.9722 496.042 84.4808 497.31C84.1375 497.602 83.8351 497.86 83.5249 498.118C79.4859 501.484 75.3192 503.121 70.7908 503.121C65.8041 503.121 61.0458 501.133 56.2044 498.917C54.577 498.156 53.4661 496.811 53.0717 495.124C52.3458 492.037 54.2833 489.051 55.803 487.076C58.3108 483.811 62.2316 480.297 63.2865 479.625C67.7588 476.766 70.5801 474.08 74.0692 469.356L74.1907 469.192L76.7894 466.422L78.6373 455.012C78.7044 453.269 78.9266 451.523 79.141 449.831L79.2911 448.643C79.4028 447.729 79.8263 446.778 80.4467 446.033C79.0706 443.28 77.9147 440.561 77.2579 438.531C74.1858 429.05 73.3723 423.505 72.1383 415.115L72.0986 414.84C71.8731 413.305 71.6317 411.677 71.36 409.905C69.9966 401.041 70.4569 389.842 71.3391 382.319C72.351 373.708 74.6367 365.58 78.134 358.162L78.1115 353.794C78.1049 352.5 78.1049 351.231 78.1033 349.979V349.658C78.1021 346.702 78.1004 343.906 78.0362 341.06C77.9597 337.762 77.8557 334.433 77.7277 331.168L68.4765 299.311C68.1295 296.905 67.8149 294.862 67.5239 292.968L68.0481 292.765L67.5063 292.853C66.6912 287.58 66.0472 283.414 65.7387 277.51C65.4923 272.816 66.2068 267.264 66.8991 261.888C67.2616 259.072 67.6037 256.412 67.8132 253.891C68.7245 242.908 72.0904 230.771 75.0602 220.063L75.6306 218.004C75.9265 216.938 76.3483 215.72 76.7559 214.544C77.1556 213.39 77.5345 212.303 77.7804 211.398C78.0444 210.434 79.8219 205.934 80.202 204.978C79.3214 201.295 79.2064 197.197 79.8538 192.456C80.2179 189.783 80.7552 187.161 81.2732 184.628C81.4361 183.841 81.5961 183.055 81.7524 182.268C81.9156 181.448 82.1951 180.767 82.3997 180.268C82.475 180.082 82.5228 179.968 82.5662 179.849L82.5773 179.82L81.7765 178.809C79.9753 176.534 79.0739 173.836 79.0211 170.554L79.0194 170.414L78.2698 162.316L78.2743 162.227C78.1802 161.322 78.0652 160.265 77.9499 159.195C77.6863 156.759 77.4195 154.281 77.314 152.221C77.3009 151.95 77.2882 151.684 77.2755 151.409C76.566 153.177 75.6981 155.084 74.5598 157.554C74.0467 158.666 73.0335 160.362 71.8604 162.303C71.5998 162.73 71.371 163.111 71.2016 163.394C70.9762 163.779 70.7335 164.134 70.4794 164.464C70.6214 164.815 70.7127 165.12 70.7671 165.331C71.8236 169.399 71.3215 173.628 69.3157 177.561C68.1569 179.837 67.6725 182.112 67.1131 184.747C66.7056 186.671 66.2837 188.658 65.5595 190.819C63.1412 198.043 59.9255 206.374 56.81 214.295C55.0951 218.655 53.0475 222.761 51.0671 226.728C49.189 230.492 47.2613 234.353 45.695 238.299C45.5129 238.756 45.3193 239.212 45.1262 239.665L43.814 242.782C45.6152 248.829 44.717 253.587 40.8458 258.611L36.033 265.238C34.4139 268.579 32.5087 272.182 29.9002 275.345C29.5373 275.793 28.5671 276.99 26.8694 277.189C26.2908 277.261 25.5686 277.316 24.9708 277.261C24.7965 277.629 24.6205 277.997 24.4401 278.365C23.2412 280.775 20.9813 282.158 18.2386 282.158C17.0748 282.158 16.0216 281.858 15.1537 281.287L14.5191 281.799L13.1173 281.803C10.9228 281.803 8.96489 280.729 7.87769 278.931C7.02292 277.51 6.7815 275.785 7.19518 274.127C5.68653 272.926 4.80434 271.306 4.69877 269.522C4.52446 266.553 5.98851 264.358 7.05647 262.755C7.35845 262.299 7.64119 261.871 7.82369 261.529C8.93911 259.406 10.1045 257.27 11.2297 255.223L8.14939 255.93L7.42882 255.811C4.33092 255.304 2.1414 253.764 0.923268 251.231C0.0746281 249.472 0.618019 247.615 0.805014 247.087C1.35495 245.543 2.36195 244.824 3.10829 244.494L4.25113 243.983C5.43407 243.454 6.6166 242.925 7.80609 242.418L9.9637 239.669L12.1184 237.436C14.2106 235.267 16.3588 233.038 18.5598 230.902C19.5475 229.942 20.6981 229.156 21.9817 228.568C22.3525 227.625 23.6361 224.385 23.7911 224.051C28.6596 213.601 31.4203 203.316 32.2305 192.591C33.1495 180.399 36.8755 169.717 43.3041 160.844C43.5709 160.48 44.1413 159.69 44.9981 159.021C42.9825 155.076 42.4375 150.466 42.5958 147.645C42.9363 141.564 43.5087 138.396 46.0469 132.746C47.4819 129.549 49.1108 126.944 51.0225 124.783C50.9889 124.525 50.9763 124.267 50.984 124.005C51.0336 122.567 51.0479 121.095 51.0622 119.607L51.6121 119.497L51.0638 119.488C51.1199 113.344 51.1809 106.987 53.3847 101.067C55.012 96.6895 59.8727 90.9889 63.4432 88.2104C69.1414 83.7784 73.6809 82.8056 80.4786 81.7272C80.731 81.6849 80.9774 81.6553 81.2171 81.63L88.5648 78.3186C89.2567 78.0183 89.8099 77.7815 90.3517 77.5193C93.86 75.8319 97.3638 74.136 100.863 72.4275C101.04 72.3429 101.288 72.2288 101.585 72.1147C101.67 70.423 101.815 68.7524 101.956 67.1327L102.154 64.9717L102.851 62.8741C101.312 61.5082 100.407 59.6052 100.231 57.3469C100.057 55.1266 99.8586 52.8893 99.6556 50.7113C98.7481 50.483 97.9248 50.0348 97.3045 49.4216C96.3568 48.4954 95.8163 47.4085 95.3834 46.4612C94.0613 43.5686 93.0658 41.3314 92.1562 39.2041C91.4164 37.4745 91.605 35.36 92.6726 33.4062C93.6378 31.6342 95.1195 30.3274 96.7419 29.8115L96.7644 29.7989C96.7611 28.8981 96.7836 27.9591 96.8315 26.9484C97.0393 22.5375 97.9121 18.4313 99.4224 14.7478C101.959 8.56918 108.573 2.61469 114.81 0.897705C116.979 0.301422 119.197 0.00109863 121.406 0.00109863C131.437 0.00109863 140.12 5.98929 144.065 15.6273C145.244 18.5115 145.754 21.713 146.035 23.8698C146.107 24.428 146.109 25.1512 146.093 27.0754C146.088 27.7436 146.08 28.7374 146.088 29.5789L147.103 30.281C151.35 33.2076 152.221 36.523 150.018 41.361C149.942 41.5302 149.851 41.7797 149.742 42.0841L149.653 42.3253C148.554 45.3152 146.914 49.781 143.467 50.7072C143.298 52.5045 143.133 54.4076 143.037 56.2514C142.896 58.9369 141.934 61.208 140.248 62.8531L140.836 63.8342L140.928 64.7349C140.997 65.4073 141.057 66.0544 141.114 66.6803C141.228 67.9152 141.333 69.0823 141.499 70.1734C141.613 70.9219 141.658 71.6789 141.632 72.419C141.637 72.4232 141.642 72.4232 141.648 72.4275C145.152 74.136 148.655 75.8319 152.164 77.5193C152.701 77.7772 153.249 78.0141 153.856 78.2763L155.057 78.8008L161.217 81.5961C161.643 81.6088 162.096 81.6511 162.559 81.7272C169.359 82.8056 173.898 83.7784 179.596 88.2104C183.165 90.9889 188.028 96.6895 189.655 101.067C191.859 106.987 191.92 113.344 191.977 119.497L191.979 119.657C191.991 121.129 192.006 122.584 192.056 124.005C192.063 124.267 192.052 124.525 192.017 124.783C193.927 126.944 195.556 129.549 196.993 132.746C199.531 138.396 200.103 141.56 200.444 147.645C200.602 150.466 200.057 155.076 198.041 159.021C198.898 159.69 199.47 160.48 199.734 160.844C206.162 169.717 209.89 180.395 210.809 192.591C211.618 203.312 214.378 213.601 219.247 224.047C219.408 224.394 219.632 224.779 219.868 225.185C220.048 225.497 220.174 225.713 220.293 225.933L221.794 228.635L221.585 228.843C222.643 229.393 223.6 230.086 224.441 230.902C226.636 233.034 228.776 235.25 230.847 237.398L233.001 239.622L235.195 242.418C236.391 242.93 237.581 243.458 238.769 243.991L239.899 244.494C240.642 244.824 241.645 245.543 242.194 247.087C242.381 247.611 242.928 249.463 242.081 251.231C240.86 253.764 238.67 255.304 235.572 255.811L234.853 255.93L234.752 255.904C234.752 255.904 233.031 255.511 231.773 255.223C232.897 257.27 234.062 259.406 235.177 261.529C235.357 261.867 235.633 262.282 235.926 262.726C237.014 264.358 238.477 266.553 238.302 269.522C238.198 271.306 237.316 272.926 235.807 274.127C236.221 275.785 235.978 277.515 235.123 278.931C234.02 280.758 232.112 281.803 229.885 281.803L228.445 281.773L227.846 281.287C226.979 281.858 225.93 282.158 224.783 282.158C222.02 282.158 219.76 280.775 218.561 278.361C218.381 277.997 218.205 277.629 218.032 277.261C217.429 277.32 216.764 277.265 216.157 277.193C214.434 276.99 213.492 275.827 213.138 275.392C210.497 272.186 208.587 268.575 206.917 265.153L202.09 258.526C198.307 253.616 197.408 248.728 199.203 242.727L197.923 239.69C197.726 239.229 197.53 238.764 197.343 238.294C195.772 234.34 193.842 230.475 191.977 226.741C189.997 222.77 187.948 218.663 186.228 214.295C183.109 206.361 179.892 198.03 177.478 190.815C176.758 188.663 176.336 186.675 175.928 184.755C175.365 182.108 174.883 179.837 173.724 177.561C171.716 173.628 171.214 169.399 172.274 165.327C172.327 165.119 172.418 164.815 172.56 164.464C172.304 164.134 172.061 163.779 171.836 163.394C171.667 163.107 171.435 162.722 171.171 162.29C170.001 160.358 168.991 158.666 168.48 157.554C167.449 155.317 166.622 153.502 165.938 151.84C165.825 154.534 165.614 157.169 165.304 159.82C165.217 160.552 165.097 161.284 164.974 162.016L164.848 162.785L164.054 171.378C163.846 174.335 162.943 176.749 161.215 178.97L160.493 179.896C160.724 180.374 160.972 180.898 161.148 181.549C163.131 188.942 163.895 195.129 163.553 201.024C163.477 202.327 163.279 203.621 162.948 204.97C163.314 205.879 165.011 210.116 165.834 212.083C166.665 214.062 167.235 215.724 167.864 218.008L168.433 220.059C171.405 230.767 174.771 242.9 175.683 253.891C175.893 256.42 176.235 259.08 176.598 261.893C177.288 267.268 178.003 272.82 177.758 277.51C177.448 283.414 176.805 287.58 175.99 292.853C175.851 293.754 175.6 294.841 175.334 295.996C175.015 297.37 174.687 298.791 174.509 300.06L165.769 331.164C165.638 334.454 165.535 337.783 165.459 341.06C165.395 343.889 165.393 346.706 165.392 349.683C165.392 351.028 165.39 352.394 165.383 353.79L165.363 358.162C168.858 365.584 171.144 373.713 172.156 382.319C173.04 389.846 173.498 401.041 172.137 409.905C171.863 411.681 171.622 413.318 171.395 414.857L171.357 415.119C170.123 423.509 169.308 429.054 166.239 438.531C165.58 440.561 164.424 443.28 163.048 446.038C163.669 446.782 164.094 447.729 164.205 448.643L164.354 449.831C164.568 451.518 164.791 453.265 164.865 455.083L166.707 466.422L169.426 469.356C172.915 474.08 175.738 476.77 180.211 479.625C181.267 480.301 185.187 483.816 187.694 487.076C189.212 489.055 191.149 492.037 190.425 495.124C190.029 496.811 188.926 498.152 187.316 498.905C182.462 501.125 177.694 503.121 172.706 503.121Z" fill="#9AA0A9"/>
<path d="M135.63 131.588C140.073 132.315 144.411 131.943 148.55 130.266C154.054 128.037 158.726 124.431 163.012 120.284C163.805 119.516 164.045 118.544 163.728 117.535C163.245 115.994 162.8 114.402 162.036 113.004C158.812 107.114 155.66 101.198 153.319 94.8552C152.156 91.7051 147.698 87.8795 144.263 88.9563C139.654 90.4047 135.107 92.0809 130.588 93.808C126.182 95.4929 123.854 98.9893 123.514 103.702C123.196 108.102 123.002 112.54 123.183 116.944C123.454 123.565 128.837 130.469 135.63 131.588Z" fill="#9AA0A9"/>
<path d="M131.208 234.58C135.038 228.514 137.152 221.759 138.717 214.78C140.049 208.845 140.95 202.838 141.257 196.729C141.4 193.886 140.245 192.555 137.526 192.906C133.398 193.443 129.504 194.837 125.615 196.286C124.291 196.784 123.568 197.688 123.374 199.087C123.025 201.562 122.523 204.033 122.404 206.521C122.077 213.352 121.841 227.031 121.917 227.035C121.917 231.167 121.912 235.302 121.92 239.434C121.921 240.976 122.088 241.081 123.538 240.629C126.822 239.607 129.317 237.575 131.208 234.58Z" fill="#9AA0A9"/>
<path d="M119.773 199.581C119.605 197.811 118.748 196.652 117.06 196.181C116.29 195.969 115.57 195.553 114.799 195.345C111.667 194.509 108.546 193.605 105.379 192.952C103.071 192.476 101.619 193.928 101.75 196.194C102.215 204.215 103.418 212.109 105.572 219.824C107.252 225.847 109.415 231.639 113.177 236.647C115.156 239.283 117.879 240.361 120.982 241.277C121.036 240.233 121.112 239.486 121.108 238.739C121.066 229.933 121.129 221.127 120.911 212.33C120.807 208.073 120.176 203.829 119.773 199.581Z" fill="#9AA0A9"/>
<path d="M132.669 234.73C132.478 235.085 132.485 235.555 132.398 235.974C132.821 235.974 133.301 236.109 133.654 235.949C134.906 235.377 136.22 234.857 137.32 234.045C145.606 227.93 151.999 220.114 156.598 210.746C158.157 207.572 159.553 204.284 159.763 200.679C160.123 194.484 159.084 188.446 157.489 182.501C157.358 182.01 157.078 181.561 156.715 180.753C156.247 181.646 155.982 182.153 155.715 182.661C153.533 186.812 150.73 190.473 146.702 192.749C144.377 194.061 143.473 195.681 143.488 198.305C143.516 203.776 142.428 209.087 140.972 214.326C138.986 221.464 136.139 228.23 132.669 234.73Z" fill="#9AA0A9"/>
<path d="M102.627 231.671C104.706 233.451 106.808 235.243 109.494 235.996C109.832 236.093 110.236 235.937 110.608 235.894C110.541 235.544 110.544 235.159 110.396 234.85C109.288 232.58 108.064 230.364 107.038 228.056C102.686 218.277 99.5132 208.168 99.4413 197.252C99.4303 195.429 98.7472 194.144 97.1768 193.32C92.8838 191.054 89.9652 187.38 87.5332 183.211C87.1467 182.547 86.826 181.845 86.4767 181.156C86.3345 181.156 86.1923 181.156 86.0506 181.156C85.8304 181.761 85.5301 182.344 85.4059 182.97C84.7514 186.276 84.0046 189.574 83.5499 192.914C82.9081 197.624 82.9481 202.304 84.7449 206.836C88.6595 216.704 94.7223 224.898 102.627 231.671Z" fill="#9AA0A9"/>
<path d="M122.385 191.657C122.406 193.982 123.714 194.901 125.86 194.295C129.386 193.296 132.921 192.305 136.488 191.477C137.984 191.13 139.102 190.444 139.862 189.14C142.088 185.322 143.349 181.183 143.687 176.747C143.762 175.76 143.381 175.146 142.594 174.602C137.909 171.362 132.71 170.061 127.131 170.295C123.596 170.442 123.148 170.191 122.382 174.815C122.322 175.179 122.317 175.555 122.315 175.927C122.311 178.486 122.313 181.045 122.313 183.604C122.336 183.604 122.358 183.604 122.381 183.604C122.381 186.288 122.363 188.973 122.385 191.657Z" fill="#9AA0A9"/>
<path d="M106.184 191.334C109.912 192.267 113.62 193.284 117.318 194.335C119.138 194.852 120.37 193.931 120.406 191.947C120.498 187.139 120.713 182.33 120.686 177.521C120.677 175.605 120.214 173.675 119.849 171.771C119.656 170.766 118.894 170.254 117.895 170.27C115.431 170.304 112.946 170.174 110.507 170.455C106.89 170.876 103.569 172.284 100.527 174.39C99.6279 175.012 99.1502 175.752 99.3496 176.899C99.8261 181.267 100.975 185.415 103.243 189.182C103.929 190.321 104.875 191.01 106.184 191.334Z" fill="#9AA0A9"/>
<path d="M122.343 166.107C122.366 167.86 122.653 168.141 124.372 168.183C126.524 168.243 128.679 168.255 130.833 168.238C135.067 168.204 138.913 169.465 142.463 171.809C142.839 172.056 143.319 172.132 143.751 172.289C143.874 171.818 144.143 171.33 144.094 170.879C143.697 167.389 143.324 163.895 142.745 160.438C142.586 159.487 141.908 158.494 141.207 157.801C137.29 153.925 132.522 152.048 127.146 151.712C126.456 151.746 125.763 151.755 125.077 151.831C123.161 152.031 122.716 152.472 122.409 154.43C122.351 154.804 122.316 155.181 122.316 155.559C122.316 159.075 122.298 162.591 122.343 166.107Z" fill="#9AA0A9"/>
<path d="M120.602 153.601C120.431 152.55 119.835 152.044 118.779 151.899C112.713 151.065 107.471 153.086 102.757 156.801C101.853 157.511 100.955 158.537 100.59 159.613C99.3328 163.324 98.7835 167.196 98.9291 171.144C98.9441 171.527 99.1755 171.906 99.307 172.289C99.6684 172.153 100.073 172.089 100.381 171.881C102.935 170.128 105.684 168.855 108.754 168.502C110.785 168.272 112.836 168.226 114.877 168.094C114.88 168.115 114.881 168.136 114.883 168.153C116.359 168.153 117.834 168.158 119.308 168.153C120.117 168.149 120.621 167.8 120.712 166.915C121.162 162.473 121.324 158.03 120.602 153.601Z" fill="#9AA0A9"/>
<path d="M122.34 139.084C122.312 141.751 122.308 144.421 122.316 147.087C122.319 148.101 122.853 148.731 123.788 148.955C124.373 149.098 124.978 149.17 125.578 149.229C131.06 149.783 136.262 151.266 141.037 154.181C141.375 154.388 141.734 154.558 142.446 154.934C142.446 154.029 142.546 153.45 142.43 152.922C141.413 148.296 140.377 143.677 139.305 139.063C138.828 137.01 137.687 135.4 135.818 134.517C133.409 133.38 130.94 132.375 128.497 131.31C127.573 130.908 126.804 131.191 126.277 132.007C125.026 133.946 123.812 135.907 122.623 137.889C122.422 138.218 122.345 138.683 122.34 139.084Z" fill="#9AA0A9"/>
<path d="M120.39 137.949C119.19 135.886 117.903 133.878 116.601 131.887C116.123 131.156 115.395 130.959 114.562 131.278C112.785 131.954 110.981 132.568 109.228 133.311C106.054 134.651 103.887 136.861 103.186 140.499C102.433 144.398 101.428 148.25 100.596 152.137C100.439 152.868 100.573 153.662 100.573 154.531C100.912 154.493 101.043 154.51 101.144 154.46C101.436 154.321 101.721 154.161 101.999 153.993C105.517 151.889 109.258 150.401 113.295 149.75C115.127 149.456 116.973 149.221 118.798 148.872C120.307 148.582 120.679 148.049 120.684 146.49C120.69 144.247 120.705 142.003 120.674 139.764C120.664 139.151 120.676 138.437 120.39 137.949Z" fill="#9AA0A9"/>
<path d="M142.17 192.782C143.764 192.137 145.489 191.648 146.866 190.652C150.943 187.704 153.551 183.494 155.327 178.765C156.165 176.534 155.857 174.239 154.521 172.197C152.224 168.688 149.373 165.71 146.235 163.019C145.891 162.723 145.436 162.567 144.759 162.196C144.891 162.943 144.942 163.381 145.047 163.803C146.282 168.76 146.904 173.788 146.543 178.904C146.199 183.819 144.786 188.298 141.212 191.795C141.017 191.985 140.88 192.238 140.461 192.803C141.266 192.803 141.774 192.942 142.17 192.782Z" fill="#9AA0A9"/>
<path d="M102.077 191.881C98.8335 188.889 97.2887 185.019 96.7263 180.694C95.9813 174.954 96.627 169.312 98.0484 163.741C98.162 163.298 98.1956 162.829 98.2678 162.373C98.1747 162.314 98.082 162.259 97.9873 162.196C97.5069 162.529 96.949 162.787 96.5564 163.209C93.9541 165.994 91.2656 168.708 88.849 171.654C86.9198 174.009 86.7258 176.878 88.0208 179.643C89.0348 181.808 90.2097 183.93 91.5667 185.884C93.5939 188.801 96.0982 191.236 99.5017 192.417C100.421 192.738 101.401 193.181 102.527 192.506C102.314 192.206 102.221 192.016 102.077 191.881Z" fill="#9AA0A9"/>
<path d="M110.078 64.5429C109.05 64.1935 108.1 63.5884 106.787 62.9405L105.882 65.7064C105.688 68.0931 105.453 70.4799 105.358 72.8751C105.329 73.5826 105.588 74.3795 105.919 75.0188C107.86 78.7778 110.217 82.2513 113.069 85.2943C114.596 86.9223 116.417 88.2778 118.223 89.5777C119.277 90.3363 119.803 89.9868 119.842 88.6614C119.892 86.9864 119.925 85.2815 119.73 83.6236C119.209 79.1997 117.686 75.0914 116.146 70.9573C114.968 67.7907 113.18 65.5914 110.078 64.5429Z" fill="#9AA0A9"/>
<path d="M123.113 88.7361C123.112 89.9782 123.573 90.259 124.53 89.6932C125.841 88.9147 127.266 88.1447 128.261 87.0089C130.658 84.2566 132.903 81.3468 135.078 78.3988C136.708 76.1868 138 73.7833 137.546 70.7587C137.279 68.9678 137.164 67.1515 136.957 65.0925L135.924 63.344C134.061 64.0289 132.375 64.8033 130.77 65.7306C129.894 66.2369 128.841 66.8281 128.408 67.6831C126.135 72.1923 124.289 76.9099 123.476 81.9636C123.119 84.1842 123.118 86.4772 123.113 88.7361Z" fill="#9AA0A9"/>
<path d="M116.181 68.7942C118.282 73.793 120.011 78.8942 120.443 84.3746C120.475 84.7837 120.579 85.2182 120.762 85.5804C120.913 85.883 121.23 86.0962 121.472 86.3477C121.717 86.092 122.07 85.8747 122.186 85.5636C122.389 85.0224 122.504 84.43 122.56 83.8504C123.014 79.1201 124.381 74.6454 126.18 70.2943C126.521 69.4633 126.828 68.6236 127.149 67.7883H115.852C115.957 68.1122 116.041 68.466 116.181 68.7942Z" fill="#9AA0A9"/>
<path d="M122.416 133.723C123.357 132.383 124.271 131.023 125.161 129.645C125.471 129.169 125.677 128.625 125.943 128.09C125.834 127.745 125.797 127.391 125.631 127.13C124.605 125.495 123.616 123.831 122.484 122.281C121.672 121.165 121.137 121.173 120.313 122.327C119.194 123.886 118.198 125.55 117.232 127.218C117.028 127.572 117.005 128.272 117.207 128.613C118.258 130.37 119.376 132.093 120.542 133.774C121.109 134.587 121.84 134.549 122.416 133.723Z" fill="#9AA0A9"/>
<path d="M52.5922 177.323C52.6142 178.256 52.785 179.186 52.9129 180.355C53.1792 180.026 53.2895 179.925 53.361 179.798C54.8566 177.184 56.1442 174.409 57.882 171.976C61.6142 166.743 64.332 161.025 66.3076 154.896C67.4277 151.416 68.5495 147.936 69.5692 144.422C71.5925 137.449 72.8949 130.324 73.4643 123.068C73.6943 120.15 72.0219 118.76 69.349 119.749C62.0419 122.447 54.9297 122.583 49.5663 134.527C47.2493 139.683 46.7868 142.348 46.4723 147.961C46.3097 150.875 47.1696 155.956 49.5663 159.052C52.8679 163.318 52.4611 171.782 52.5922 177.323Z" fill="#9AA0A9"/>
<path d="M56.7615 123.578C58.4328 122.435 61.0712 121.237 62.8439 120.302C64.9154 119.21 70.7595 118.237 72.8835 117.247C77.0054 115.326 77.1961 116.605 79.66 112.097C82.9084 106.156 87.3101 98.6522 88.7448 92.0531C88.9957 90.9016 88.6793 89.9073 87.855 89.219C86.3874 87.9994 84.875 86.818 83.2691 85.8152C82.6783 85.4498 81.7153 85.5136 81.0134 85.6283C74.526 86.6693 70.6912 87.5405 65.7986 91.3902C62.817 93.7316 58.4153 98.8945 57.0697 102.549C54.6013 109.254 55.1795 117.192 54.938 124.309C54.9299 124.496 55.0238 124.691 55.119 125.078C55.5207 124.708 56.4455 123.795 56.7615 123.578Z" fill="#9AA0A9"/>
<path d="M65.8799 175.849C67.3567 172.933 67.8561 169.751 67.0116 166.484C66.8688 165.938 66.5062 165.252 66.0659 165.049C65.759 164.905 65.0216 165.354 64.6891 165.735C63.3478 167.283 62.0981 168.913 60.7978 170.5C57.9219 174.012 55.2116 177.702 53.4487 181.926C51.4363 186.741 49.8101 191.743 48.1774 196.724C43.9951 209.483 41.2197 222.542 40.7965 236.067C40.768 236.96 40.9206 237.857 40.9906 238.75C41.1416 238.788 41.2925 238.822 41.4452 238.855C41.7076 238.225 41.9827 237.599 42.2322 236.964C45.5131 228.653 50.0294 221.281 53.2818 212.957C56.1256 205.683 59.4468 197.08 61.9137 189.665C63.5322 184.799 63.5623 180.419 65.8799 175.849Z" fill="#9AA0A9"/>
<path d="M28.3725 226.477C32.3261 221.838 35.7596 216.804 38.8342 211.512C45.513 200.008 50.1279 187.785 51.1343 174.294C51.4079 170.633 51.4949 167.036 49.8655 163.608C48.7887 161.341 47.7729 161.197 46.3161 163.197C39.8933 172.014 36.7449 182.107 35.9236 192.928C35.0434 204.542 31.9395 215.436 27.0559 225.863C26.7097 226.6 26.2688 227.291 25.8711 228.003C25.9951 228.126 26.1188 228.244 26.2412 228.367C26.9578 227.74 27.7626 227.198 28.3725 226.477Z" fill="#9AA0A9"/>
<path d="M66.2831 163.004C66.8958 162.949 67.5683 162.03 67.8771 161.509C68.6138 160.264 70.4586 157.33 71.0651 156.017C74.1069 149.454 75.0878 147.26 76.3347 140.621C76.4776 139.859 76.8185 134.896 76.6806 134.138C76.5904 133.643 76.669 131.119 76.6114 130.573C76.2638 127.296 75.6396 122.676 75.4321 123.087C74.8774 125.657 72.7139 137.39 72.3342 138.745C70.6756 144.644 69.0976 150.568 67.5135 156.491C67.0535 158.206 66.6656 159.942 66.2444 161.67C66.3939 161.772 66.1044 163.021 66.2831 163.004Z" fill="#9AA0A9"/>
<path d="M169.525 123.068C170.095 130.324 171.395 137.449 173.42 144.422C174.44 147.936 175.562 151.416 176.682 154.896C178.657 161.025 181.373 166.743 185.107 171.976C186.845 174.409 188.133 177.184 189.628 179.798C189.7 179.925 189.81 180.026 190.077 180.355C190.204 179.186 190.375 178.256 190.396 177.323C190.528 171.782 190.121 163.318 193.423 159.052C195.82 155.956 196.68 150.875 196.517 147.961C196.202 142.348 195.738 139.683 193.423 134.527C188.058 122.583 180.946 122.447 173.639 119.749C170.968 118.76 169.295 120.15 169.525 123.068Z" fill="#9AA0A9"/>
<path d="M154.267 92.0531C155.702 98.6522 160.102 106.156 163.352 112.097C165.816 116.605 166.005 115.326 170.129 117.247C172.253 118.237 178.097 119.21 180.168 120.302C181.941 121.237 184.58 122.435 186.251 123.578C186.567 123.795 187.491 124.708 187.893 125.078C187.989 124.691 188.081 124.496 188.074 124.309C187.833 117.192 188.41 109.254 185.943 102.549C184.597 98.8945 180.195 93.7316 177.214 91.3902C172.321 87.5405 168.486 86.6693 161.999 85.6283C161.296 85.5136 160.334 85.4498 159.743 85.8152C158.137 86.818 156.625 87.9994 155.157 89.219C154.331 89.9073 154.018 90.9016 154.267 92.0531Z" fill="#9AA0A9"/>
<path d="M194.811 196.724C193.179 191.743 191.552 186.741 189.54 181.926C187.777 177.702 185.066 174.012 182.191 170.5C180.89 168.913 179.641 167.283 178.299 165.735C177.967 165.354 177.229 164.905 176.922 165.049C176.482 165.252 176.12 165.938 175.976 166.484C175.132 169.751 175.632 172.933 177.108 175.849C179.426 180.419 179.456 184.799 181.075 189.665C183.54 197.08 186.863 205.683 189.707 212.957C192.959 221.281 197.475 228.653 200.757 236.964C201.006 237.599 201.28 238.225 201.544 238.855C201.696 238.822 201.847 238.788 201.998 238.75C202.067 237.857 202.219 236.96 202.192 236.067C201.769 222.542 198.994 209.483 194.811 196.724Z" fill="#9AA0A9"/>
<path d="M193.135 163.608C191.506 167.036 191.593 170.633 191.865 174.294C192.873 187.785 197.488 200.008 204.167 211.512C207.241 216.804 210.675 221.838 214.626 226.477C215.238 227.198 216.043 227.74 216.758 228.367C216.881 228.244 217.005 228.126 217.129 228.003C216.732 227.291 216.291 226.6 215.945 225.863C211.061 215.436 207.957 204.542 207.077 192.928C206.256 182.107 203.107 172.014 196.683 163.197C195.228 161.197 194.212 161.341 193.135 163.608Z" fill="#9AA0A9"/>
<path d="M176.699 163.004C176.878 163.021 176.588 161.772 176.736 161.67C176.317 159.942 175.929 158.206 175.469 156.491C173.884 150.568 172.306 144.644 170.648 138.745C170.267 137.39 168.103 125.657 167.55 123.087C167.343 122.676 166.719 127.296 166.371 130.573C166.313 131.119 166.392 133.643 166.302 134.138C166.164 134.896 166.504 139.859 166.648 140.621C167.894 147.26 168.876 149.454 171.917 156.017C172.524 157.33 174.369 160.264 175.105 161.509C175.414 162.03 176.087 162.949 176.699 163.004Z" fill="#9AA0A9"/>
<path d="M121.43 101.676C121.619 101.425 121.726 101.341 121.752 101.237C122.43 98.5692 123.467 96.1066 125.263 94.0411C125.479 93.7903 125.442 93.297 125.522 92.9208C125.156 92.8873 124.753 92.7283 124.432 92.8371C122.581 93.4726 120.749 93.5186 118.877 92.9291C118.445 92.7912 117.929 92.9415 117.453 92.9624C117.628 93.4349 117.705 93.9911 117.996 94.359C119.4 96.1401 120.345 98.1553 120.97 100.355C121.085 100.764 121.248 101.157 121.43 101.676Z" fill="#9AA0A9"/>
<path d="M98.9755 44.7944C99.2672 45.4322 99.5907 46.1037 100.069 46.5726C100.381 46.8809 101.022 46.9949 101.472 46.9188L103.267 46.9696C103.587 50.3233 103.901 53.6811 104.164 57.0391C104.282 58.547 104.937 59.6959 106.183 60.3802C110.447 62.7286 115.398 66.1751 120.512 66.1836C126.132 66.1962 131.679 63.4466 136.52 60.7772C138.268 59.8184 139.086 58.1668 139.198 56.0549C139.352 53.0602 139.666 50.0699 139.948 47.0836L141.749 46.864C144.051 47.6623 145.841 41.1914 146.515 39.7089C147.889 36.6846 147.605 35.4597 144.942 33.6223L142.415 31.8652C142.076 31.6328 142.327 25.3183 142.214 24.4525C141.905 22.066 141.43 19.4683 140.518 17.2382C136.371 7.07993 126.038 2.0113 115.865 4.81591C110.79 6.21399 105.147 11.2826 103.066 16.3596C101.653 19.8147 100.958 23.4724 100.783 27.1936C100.704 28.8705 100.692 30.5304 100.792 32.165L98.26 33.5885C96.8085 33.7786 95.2277 36.296 95.7997 37.6349C96.8244 40.0383 97.892 42.4206 98.9755 44.7944Z" fill="#9AA0A9"/>
<path d="M84.2973 448.762C84.1926 448.521 83.7838 448.215 83.5919 448.262C83.3623 448.321 83.0865 448.715 83.0516 448.991C82.7981 451.097 82.4878 453.203 82.4181 455.317L80.3551 468.185L77.1277 471.655C73.5579 476.54 70.4428 479.667 65.4091 482.917C64.8721 483.264 61.3039 486.404 58.9733 489.472C57.1099 491.921 56.0375 494.328 57.9325 495.222C66.3534 499.12 73.179 501.619 81.0824 494.963C83.0946 493.264 84.7215 491.662 87.1917 490.645C89.681 489.62 93.2061 488.959 93.9683 485.786C94.0555 485.421 95.4516 479.612 95.4516 479.612L95.4658 479.443C95.5988 479.006 95.7286 478.57 95.7635 478.125C96.0267 474.837 96.234 471.541 96.4559 468.248C96.6222 465.778 95.8126 463.787 94.1792 461.927C90.5668 457.812 86.55 454.003 84.2973 448.762Z" fill="#9AA0A9"/>
<path d="M100.191 376.244C100.145 375.987 99.9988 368.084 99.7809 367.51C99.5692 368.155 98.375 372.668 98.2984 373.009C97.9979 374.346 97.7182 375.687 97.4287 377.024C95.8872 384.134 94.3126 391.235 92.8191 398.354C92.0256 402.136 91.0968 405.919 90.7246 409.757C90.1359 415.838 89.8244 421.961 89.6526 428.075C89.4742 434.422 90.0838 440.718 91.776 446.866C92.5646 449.734 93.322 452.61 94.0932 455.482C93.8786 455.419 93.7943 455.296 93.7467 455.161C93.0785 453.243 92.3435 451.345 91.7617 449.401C88.9274 439.913 88.089 430.108 87.9954 420.27C87.8919 409.394 87.3655 398.552 86.6081 387.71C86.2551 382.654 86.0499 377.576 86.012 372.503C85.9672 366.54 86.7372 360.632 87.7136 354.758C88.0446 352.772 88.2975 350.769 88.6122 348.597C88.2849 348.728 88.1814 348.732 88.1432 348.787C87.7612 349.322 87.3875 349.862 87.0169 350.402C80.3593 360.101 76.4895 371.032 75.1056 382.843C74.1752 390.788 73.8889 401.322 75.1056 409.25C76.8507 420.628 77.2896 426.228 80.8251 437.163C82.1533 441.275 85.6126 448.195 88.2718 451.649C90.7788 454.904 93.2837 458.16 95.8 461.411C96.1099 461.812 96.4869 462.157 97.0659 462.777C97.1803 462.022 97.3538 461.584 97.2903 461.188C96.6653 457.337 96.3676 453.369 95.2512 449.675C93.9213 445.281 93.7593 438.9 94.6404 434.38C96.8399 423.078 100.155 418.406 102.453 407.121C103.468 402.145 103.727 395.246 102.658 390.084C101.65 385.205 101.068 381.152 100.191 376.244Z" fill="#9AA0A9"/>
<path d="M95.0573 337.277C94.4643 338.417 93.8395 339.573 93.4671 340.797C92.1606 345.104 90.8463 349.41 89.7361 353.772C88.3863 359.079 87.4971 364.482 87.6208 370C87.7549 375.929 87.8596 381.862 88.1174 387.787C88.3331 392.754 88.7438 397.713 89.0935 402.672C89.1307 403.21 89.327 403.735 89.4494 404.269C89.5653 404.269 89.6829 404.273 89.7992 404.277C89.9584 403.748 90.1584 403.223 90.271 402.685C91.8064 395.414 93.2902 388.13 94.8722 380.871C95.671 377.212 96.6505 373.591 97.5334 369.949C98.0246 367.929 98.6577 365.922 98.9282 363.868C99.6677 358.278 99.2008 352.675 98.6399 347.111C98.3162 343.884 97.5396 340.708 96.9016 337.523C96.8196 337.117 96.3911 336.621 96.0207 336.502C95.7918 336.43 95.2442 336.922 95.0573 337.277Z" fill="#9AA0A9"/>
<path d="M104.164 292.562C104.095 292.957 103.998 293.351 103.965 293.751C103.608 298.008 103.304 302.274 102.896 306.528C102.587 309.733 102.324 312.963 101.726 316.121C100.674 321.665 99.3695 327.162 98.2038 332.685C98.0874 333.237 98.054 333.882 98.2168 334.409C100.608 342.139 101.016 350.106 100.961 358.138C100.95 359.653 100.871 361.169 100.823 362.688C100.934 362.701 101.045 362.714 101.155 362.727C105.586 351.953 107.922 340.67 108.455 328.967C109.017 316.605 107.927 304.431 104.658 292.524C104.494 292.537 104.328 292.549 104.164 292.562Z" fill="#9AA0A9"/>
<path d="M101.309 292.518C101.395 287.279 101.239 282.019 100.109 276.911C98.3524 268.965 96.2294 261.108 94.3522 253.188C91.8322 242.548 89.4017 231.884 86.9218 221.231C86.619 219.935 86.2763 218.644 85.8809 217.373C85.7916 217.089 85.4011 216.903 85.1493 216.67C84.9755 216.971 84.754 217.254 84.6409 217.576C84.5471 217.843 84.5597 218.157 84.5597 218.449C84.5565 221.752 84.6169 225.056 84.5483 228.355C84.4622 232.413 84.3969 236.475 84.0881 240.515C83.7564 244.844 83.0791 249.147 82.6853 253.476C81.9187 261.934 81.1459 270.392 80.5673 278.863C80.1797 284.535 79.8259 290.235 79.9838 295.907C80.2641 305.894 80.9737 315.868 81.4519 325.851C81.6938 330.904 81.8726 335.961 81.9872 341.019C82.0827 345.195 82.0431 349.371 82.0639 353.848C82.4287 353.437 82.6678 353.225 82.8383 352.967C85.5047 348.884 88.2621 344.86 90.7947 340.692C93.1824 336.762 95.342 332.675 96.6868 328.215C99.1847 319.939 100.028 311.353 100.89 302.789C101.231 299.384 101.253 295.945 101.309 292.518Z" fill="#9AA0A9"/>
<path d="M115.414 243.769C113.069 241.787 106.912 238.83 104.671 236.726C98.7037 231.123 95.7298 229.365 91.3192 222.339C90.314 220.738 89.3661 219.098 88.3912 217.476C88.2635 217.501 88.1355 217.522 88.0078 217.548C88.0892 218.35 88.1355 219.157 88.2602 219.952C89.4606 227.549 91.4067 234.951 93.6732 242.277C98.8747 259.106 103.071 276.218 106.894 293.427C107.541 296.343 108.107 299.279 108.709 302.203C109.04 301.899 109.165 301.574 109.22 301.236C109.721 298.109 111.484 291.928 111.901 288.788C114.175 277.908 114.297 276.13 115.414 267.024C116.447 258.063 116.654 256.504 116.654 251.45C116.654 246.756 116.708 244.863 115.414 243.769Z" fill="#9AA0A9"/>
<path d="M72.1696 298.842C72.1937 299.138 79.9143 330.158 79.9922 330.445C80.2424 328.462 77.9749 298.36 78.1391 289.447C78.3666 277.002 79.8507 266.423 80.9415 254.029C81.1323 251.869 81.4412 249.716 81.6308 247.556C82.0417 242.858 82.6449 238.156 82.7358 233.45C82.8536 227.403 82.5687 221.348 82.4093 215.293C82.3506 213.06 82.1546 210.827 82.0225 208.599C81.8872 208.599 81.7518 208.603 81.6181 208.608C81.5382 208.916 81.4494 209.225 81.3809 209.538C80.6627 212.794 80.0912 216.092 79.2075 219.301C76.1822 230.282 72.4851 243.133 71.5517 254.427C70.9341 261.903 69.1475 270.867 69.4932 277.489C69.9024 285.324 70.9341 290.089 72.1696 298.842Z" fill="#9AA0A9"/>
<path d="M148.35 337.277C148.165 336.922 147.617 336.43 147.387 336.502C147.018 336.621 146.588 337.117 146.508 337.523C145.868 340.708 145.091 343.884 144.768 347.111C144.207 352.675 143.74 358.278 144.479 363.868C144.75 365.922 145.385 367.929 145.874 369.949C146.759 373.591 147.738 377.212 148.536 380.871C150.117 388.13 151.601 395.414 153.137 402.685C153.251 403.223 153.449 403.748 153.608 404.277C153.726 404.273 153.842 404.269 153.96 404.269C154.082 403.735 154.277 403.21 154.316 402.672C154.664 397.713 155.076 392.754 155.292 387.787C155.55 381.862 155.653 375.929 155.787 370C155.91 364.482 155.021 359.079 153.672 353.772C152.561 349.41 151.247 345.104 149.94 340.797C149.568 339.573 148.943 338.417 148.35 337.277Z" fill="#9AA0A9"/>
<path d="M161.339 353.848C161.36 349.371 161.322 345.195 161.417 341.019C161.532 335.961 161.71 330.904 161.952 325.851C162.429 315.868 163.14 305.894 163.419 295.907C163.578 290.235 163.223 284.535 162.835 278.863C162.257 270.392 161.486 261.934 160.717 253.476C160.325 249.147 159.646 244.844 159.315 240.515C159.007 236.475 158.94 232.413 158.856 228.355C158.786 225.056 158.846 221.752 158.843 218.449C158.843 218.157 158.856 217.843 158.763 217.576C158.649 217.254 158.429 216.971 158.253 216.67C158.001 216.903 157.611 217.089 157.522 217.373C157.126 218.644 156.783 219.935 156.481 221.231C154.001 231.884 151.572 242.548 149.05 253.188C147.174 261.108 145.05 268.965 143.293 276.911C142.163 282.019 142.008 287.279 142.094 292.518C142.15 295.945 142.171 299.384 142.514 302.789C143.374 311.353 144.219 319.939 146.715 328.215C148.061 332.675 150.221 336.762 152.608 340.692C155.142 344.86 157.898 348.884 160.566 352.967C160.735 353.225 160.976 353.437 161.339 353.848Z" fill="#9AA0A9"/>
<path d="M142.598 362.688C142.55 361.169 142.47 359.653 142.461 358.138C142.403 350.106 142.813 342.139 145.203 334.409C145.366 333.882 145.332 333.237 145.216 332.685C144.05 327.162 142.748 321.665 141.695 316.121C141.096 312.963 140.833 309.733 140.525 306.528C140.115 302.274 139.813 298.008 139.455 293.751C139.422 293.351 139.324 292.957 139.256 292.562C139.092 292.549 138.926 292.537 138.761 292.524C135.493 304.431 134.403 316.605 134.965 328.967C135.498 340.67 137.835 351.953 142.264 362.727C142.376 362.714 142.486 362.701 142.598 362.688Z" fill="#9AA0A9"/>
<path d="M147.604 461.411C150.12 458.16 152.625 454.904 155.132 451.649C157.791 448.195 161.25 441.275 162.58 437.163C166.114 426.228 166.553 420.628 168.3 409.25C169.516 401.322 169.23 390.788 168.3 382.843C166.914 371.032 163.044 360.101 156.387 350.402C156.016 349.862 155.644 349.322 155.262 348.787C155.222 348.732 155.119 348.728 154.792 348.597C155.106 350.769 155.359 352.772 155.69 354.758C156.667 360.632 157.437 366.54 157.392 372.503C157.354 377.576 157.149 382.654 156.796 387.71C156.04 398.552 155.512 409.394 155.41 420.27C155.317 430.108 154.478 439.913 151.642 449.401C151.06 451.345 150.327 453.243 149.657 455.161C149.611 455.296 149.526 455.419 149.311 455.482C150.082 452.61 150.839 449.734 151.63 446.866C153.322 440.718 153.93 434.422 153.751 428.075C153.58 421.961 153.27 415.838 152.679 409.757C152.309 405.919 151.378 402.136 150.587 398.354C149.093 391.235 147.517 384.134 145.977 377.024C145.686 375.687 145.406 374.346 145.106 373.009C145.029 372.668 143.835 368.155 143.625 367.51C143.406 368.084 143.259 375.987 143.213 376.244C142.337 381.152 141.754 385.205 140.746 390.084C139.679 395.246 139.937 402.145 140.952 407.121C143.25 418.406 146.564 423.078 148.765 434.38C149.645 438.9 149.483 445.281 148.155 449.675C147.037 453.369 146.741 457.337 146.116 461.188C146.05 461.584 146.225 462.022 146.34 462.777C146.919 462.157 147.294 461.812 147.604 461.411Z" fill="#9AA0A9"/>
<path d="M171.24 298.842C172.474 290.089 173.506 285.324 173.915 277.489C174.261 270.867 172.474 261.903 171.856 254.427C170.923 243.133 167.227 230.282 164.202 219.301C163.318 216.092 162.745 212.794 162.027 209.538C161.958 209.225 161.871 208.916 161.791 208.608C161.656 208.603 161.52 208.599 161.387 208.599C161.253 210.827 161.057 213.06 160.998 215.293C160.839 221.348 160.556 227.403 160.672 233.45C160.764 238.156 161.368 242.858 161.778 247.556C161.966 249.716 162.277 251.869 162.466 254.029C163.559 266.423 165.041 277.002 165.269 289.447C165.433 298.36 163.165 328.462 163.417 330.445C163.493 330.158 171.214 299.138 171.24 298.842Z" fill="#9AA0A9"/>
<path d="M136.908 293.427C140.732 276.218 144.928 259.106 150.129 242.277C152.396 234.951 154.342 227.549 155.541 219.952C155.667 219.157 155.712 218.35 155.795 217.548C155.667 217.522 155.537 217.501 155.41 217.476C154.435 219.098 153.487 220.738 152.482 222.339C148.071 229.365 145.098 231.123 139.132 236.726C136.89 238.83 130.733 241.787 128.389 243.769C127.094 244.863 127.149 246.756 127.149 251.45C127.149 256.504 127.356 258.063 128.389 267.024C129.506 276.13 129.629 277.908 131.901 288.788C132.318 291.928 134.082 298.109 134.583 301.236C134.637 301.574 134.762 301.899 135.093 302.203C135.695 299.279 136.26 296.343 136.908 293.427Z" fill="#9AA0A9"/>
<path d="M178.294 482.917C173.209 479.667 170.063 476.54 166.458 471.655L163.196 468.185L161.112 455.317C161.042 453.203 160.728 451.097 160.472 448.991C160.439 448.715 160.158 448.321 159.926 448.262C159.734 448.215 159.32 448.521 159.214 448.762C156.94 454.003 152.88 457.812 149.233 461.927C147.581 463.787 146.765 465.778 146.931 468.248C147.156 471.541 147.365 474.837 147.631 478.125C147.668 478.57 147.799 479.006 147.933 479.443L147.948 479.612C147.948 479.612 149.356 485.421 149.444 485.786C150.216 488.959 153.777 489.62 156.29 490.645C158.785 491.662 160.429 493.264 162.463 494.963C170.445 501.619 177.34 499.12 185.849 495.222C187.763 494.328 186.678 491.921 184.796 489.472C182.441 486.404 178.837 483.264 178.294 482.917Z" fill="#9AA0A9"/>
<path d="M141.337 136.307C142.559 142.679 143.73 149.064 145.155 155.393C145.55 157.145 146.569 158.845 147.636 160.31C149.034 162.226 150.706 163.943 152.363 165.639C154.937 168.273 156.872 171.273 157.82 174.919C157.919 175.299 158.073 175.662 158.302 176.324C159.688 174.535 160.165 172.725 160.297 170.86L161.104 162.124C161.255 161.158 161.437 160.196 161.551 159.225C162.321 152.629 162.423 146.013 162.027 139.392C161.813 135.817 161.526 132.247 161.202 128.686C161.06 127.12 160.58 126.812 159.218 127.339L144.176 133.235C143.948 133.243 143.711 133.269 143.46 133.311C141.881 133.56 141.024 134.669 141.337 136.307Z" fill="#9AA0A9"/>
<path d="M84.4295 127.438C84.385 127.417 84.3531 127.408 84.3115 127.392L84.1743 127.336V127.341C82.5685 126.684 82.2398 127.336 81.9813 129.84C81.2239 137.211 80.9369 144.599 81.3133 152.004C81.4632 154.948 81.9797 158.964 82.2847 162.201L82.2831 162.256L83.0245 170.313C83.0262 170.381 83.0196 170.444 83.0213 170.512C83.0531 172.575 83.4998 174.549 84.9035 176.324C85.1203 176.053 85.2273 175.968 85.2653 175.863C85.4041 175.473 85.5286 175.075 85.6434 174.672C86.4012 172.037 87.535 169.614 89.3867 167.598C90.9721 165.873 92.562 164.153 94.1348 162.417C96.5846 159.705 98.3791 156.643 98.894 152.881C99.0136 152.013 99.21 151.157 99.379 150.297C100.272 145.751 101.211 141.214 102.042 136.656C102.424 134.563 101.535 133.496 99.5003 133.276C99.4158 133.263 99.3423 133.267 99.2627 133.259V133.254L84.4295 127.438Z" fill="#9AA0A9"/>
<path d="M137.944 76.6041C136.372 80.2832 133.708 83.1357 131.122 86.0386C129.787 87.5363 128.374 88.9626 127.029 90.4518C126.843 90.6574 126.838 91.0349 126.75 91.3285C127.041 91.4208 127.347 91.6222 127.619 91.5803C128.376 91.467 129.123 91.2741 129.865 91.0811C133.234 90.2001 136.606 89.336 139.963 88.4215C141.546 87.9894 143.138 87.5782 144.708 87.1042C144.729 87.1 144.745 87.0958 144.769 87.0874C146.897 86.4833 150.49 88.0061 152.404 89.2478C153.466 86.4665 158.624 84.8557 158.624 84.8557L153.423 82.519C152.253 82.003 151.322 81.6297 150.414 81.1935C146.894 79.5196 143.38 77.8331 139.869 76.1383C139.085 75.7566 138.364 75.6183 137.944 76.6041Z" fill="#9AA0A9"/>
<path d="M119.096 103.702C118.756 98.9893 116.429 95.4929 112.022 93.808C107.503 92.0809 102.955 90.4047 98.3459 88.9563C94.9114 87.8795 90.4535 91.7051 89.29 94.8552C86.9487 101.198 83.7968 107.114 80.5726 113.004C79.8089 114.402 79.3644 115.994 78.8813 117.535C78.5649 118.544 78.804 119.516 79.5969 120.284C83.8851 124.431 88.555 128.037 94.0593 130.266C98.198 131.943 102.536 132.315 106.979 131.588C113.773 130.469 119.155 123.565 119.426 116.944C119.608 112.54 119.414 108.102 119.096 103.702Z" fill="#9AA0A9"/>
<path d="M89.8024 89.2478C91.7159 88.0061 95.3087 86.4833 97.4369 87.0874C97.461 87.0958 97.477 87.1 97.4979 87.1042C99.0677 87.5782 100.66 87.9894 102.243 88.4215C105.601 89.336 108.972 90.2001 112.338 91.0811C113.083 91.2741 113.83 91.467 114.587 91.5803C114.859 91.6222 115.165 91.4208 115.456 91.3285C115.368 91.0349 115.361 90.6574 115.177 90.4518C113.832 88.9626 112.42 87.5363 111.086 86.0386C108.498 83.1357 105.833 80.2832 104.262 76.6041C103.841 75.6183 103.121 75.7566 102.337 76.1383C98.826 77.8331 95.3119 79.5196 91.7913 81.1935C90.8839 81.6297 89.9527 82.003 88.7827 82.519L83.582 84.8557C83.582 84.8557 88.7397 86.4665 89.8024 89.2478Z" fill="#9AA0A9"/>
<path d="M39.1149 237.718C39.3665 232.84 39.9003 227.97 40.3208 223.1C40.3828 222.394 40.4451 221.687 40.5055 220.981L42.0205 212.949L42.0188 212.953C42.1493 212.368 42.2627 211.78 42.3679 211.187C42.4552 210.695 42.3805 210.173 42.3805 209.399C37.9185 215.955 33.6448 222.242 29.3695 228.525L26.4175 231.452C24.5045 231.73 22.7156 232.487 21.3168 233.845C18.4786 236.595 15.7529 239.476 12.9909 242.315L10.3431 245.679L10.3513 245.683C8.48891 246.461 6.64773 247.294 4.80287 248.114C4.56391 248.219 4.38571 249.093 4.54515 249.426C5.26328 250.914 6.57433 251.575 8.19775 251.835C10.7273 251.259 13.3111 250.679 15.8883 250.065L18.1377 250.965C18.0692 251.07 18.0023 251.175 17.9256 251.301C17.8188 251.478 17.7201 251.659 17.623 251.84C15.5266 255.658 13.3906 259.451 11.3581 263.307C10.388 265.149 8.5721 266.903 8.70259 269.132C8.75357 269.994 9.39706 270.621 9.91007 270.978C10.1331 271.129 10.9406 270.536 11.3883 270.162C11.7818 269.83 12.0828 269.355 12.3519 268.901C14.3334 265.536 16.3104 262.168 18.26 258.783C19.1588 257.222 20.0396 255.654 20.8744 254.06L21.5321 254.872C19.423 258.635 17.2948 262.391 15.2701 266.205C13.8444 268.892 12.5668 271.668 11.2607 274.422C10.525 275.974 11.3867 277.681 13.3478 277.635C13.7556 277.307 14.6825 276.853 15.1796 276.096C16.1004 274.7 16.7659 273.127 17.5435 271.63C19.6873 267.496 21.8266 263.362 23.985 259.237L24.7162 260.557C23.1393 263.471 21.5717 266.398 20.0906 269.367C19.0263 271.504 18.072 273.699 17.1386 275.898C16.5811 277.214 17.0831 277.992 18.3603 277.988C19.5902 277.992 20.5795 277.5 21.1468 276.361C21.8792 274.885 22.5182 273.362 23.2318 271.878C24.538 269.166 25.8425 266.449 27.198 263.762L28.2305 264.918C28.0837 265.166 27.9484 265.427 27.8289 265.709C26.9623 267.753 25.8552 269.683 24.9282 271.701C24.7562 272.076 24.8022 272.946 24.9776 273.022C25.4315 273.215 26.0179 273.14 26.5386 273.072C26.7364 273.051 26.9256 272.791 27.0785 272.601C29.5016 269.67 31.2458 266.319 32.9042 262.912L32.9312 262.9L37.9075 256.066C41.213 251.785 41.6351 248.105 39.9256 243.08C39.3523 241.394 39.024 239.493 39.1149 237.718Z" fill="#9AA0A9"/>
<path d="M238.193 248.114C236.35 247.294 234.507 246.461 232.645 245.683L232.653 245.679L230.005 242.315C227.245 239.476 224.519 236.595 221.679 233.845C220.281 232.487 218.493 231.73 216.579 231.452L213.628 228.525C209.353 222.242 205.078 215.955 200.616 209.399C200.616 210.173 200.541 210.695 200.628 211.187C200.734 211.78 200.849 212.368 200.977 212.953V212.949L202.491 220.981C202.553 221.687 202.615 222.394 202.675 223.1C203.097 227.97 203.63 232.84 203.881 237.718C203.972 239.493 203.644 241.394 203.071 243.08C201.363 248.105 201.785 251.785 205.089 256.066L210.065 262.9L210.092 262.912C211.752 266.319 213.496 269.67 215.918 272.601C216.072 272.791 216.261 273.051 216.457 273.072C216.98 273.14 217.566 273.215 218.02 273.022C218.194 272.946 218.24 272.076 218.068 271.701C217.141 269.683 216.034 267.753 215.169 265.709C215.049 265.427 214.914 265.166 214.767 264.918L215.798 263.762C217.155 266.449 218.46 269.166 219.766 271.878C220.478 273.362 221.117 274.885 221.85 276.361C222.417 277.5 223.406 277.992 224.636 277.988C225.913 277.992 226.417 277.214 225.857 275.898C224.924 273.699 223.971 271.504 222.905 269.367C221.424 266.398 219.858 263.471 218.28 260.553L219.012 259.237C221.169 263.362 223.31 267.496 225.453 271.63C226.23 273.127 226.897 274.7 227.816 276.096C228.315 276.853 229.241 277.307 229.649 277.635C231.609 277.681 232.473 275.974 231.735 274.422C230.429 271.668 229.153 268.892 227.726 266.205C225.701 262.391 223.575 258.635 221.464 254.872L222.123 254.06C222.956 255.654 223.838 257.222 224.736 258.783C226.686 262.168 228.663 265.536 230.644 268.901C230.913 269.355 231.216 269.83 231.609 270.162C232.055 270.536 232.863 271.129 233.086 270.978C233.599 270.621 234.244 269.994 234.293 269.132C234.426 266.903 232.61 265.149 231.638 263.307C229.607 259.451 227.469 255.658 225.375 251.84C225.276 251.659 225.177 251.478 225.07 251.301C224.994 251.175 224.927 251.07 224.858 250.965L227.109 250.065C229.685 250.679 232.269 251.259 234.798 251.835C236.422 251.575 237.734 250.914 238.451 249.426C238.61 249.093 238.433 248.219 238.193 248.114Z" fill="#9AA0A9"/>
</svg>
