<svg width="243" height="504" viewBox="0 0 243 504" fill="none" xmlns="http://www.w3.org/2000/svg">
<path d="M75.9756 467.6C74.27 467.6 73.0534 467.714 72.1438 467.959C68.3617 468.982 64.9237 472.268 63.5885 476.137C62.3373 479.761 63.0139 483.614 65.4433 486.705C67.8079 489.712 70.8828 490.642 73.5954 491.462C75.7747 492.122 77.6546 492.689 78.9356 494.173C79.3942 494.702 79.8377 495.37 80.3038 496.076C80.8117 496.841 81.3082 497.594 81.9033 498.313C84.0863 500.969 90.0216 501.954 93.2508 501.954C95.775 501.954 97.8936 501.506 99.5461 500.618L100.376 500.169L100.774 499.235C103.829 491.978 103.298 486.95 102.684 481.127L102.677 481.055L102.684 480.984C102.98 478.544 103.359 475.325 103.692 472.074L103.708 471.947C103.958 469.498 104.246 466.724 103.984 463.92L102.828 455.806C102.787 455.569 102.749 455.34 102.718 455.137C102.643 454.651 102.567 454.173 102.427 453.674C102.252 453.044 102.063 452.423 101.873 451.801C101.646 451.061 101.422 450.321 101.225 449.572C100.554 447.006 100.437 442.498 100.975 439.732C101.555 436.738 101.976 434.184 102.385 431.714C102.851 428.89 103.291 426.217 103.95 422.948L105.443 415.747C105.766 415.269 106.023 414.842 106.156 414.579C108.002 410.985 109.055 407.577 109.385 404.16C109.961 398.147 109.412 392.205 107.699 385.993C107.289 384.505 106.906 383.206 106.554 382.027C105.678 379.066 105.049 376.935 104.716 374.136L104.689 373.895L108.218 368.909C111.553 360.253 112.773 354.65 114.187 348.163C114.593 346.302 115.013 344.369 115.506 342.259C117.579 333.392 119.11 323.805 119.406 317.834C119.679 312.375 119.842 305.846 120.001 299.536C120.168 292.872 120.338 286.068 120.63 280.427C120.68 279.445 120.426 274.98 119.834 265.338L119.815 265.047C119.615 261.752 119.406 258.352 119.395 257.908L119.41 254.289C119.429 253.904 119.425 253.587 119.395 253.286C119.315 252.42 119.004 251.612 118.5 250.961L118.193 250.559L118.523 250.178C119.569 248.96 120.505 247.671 121.305 246.339L121.737 245.615L122.169 246.339C122.965 247.671 123.905 248.96 124.951 250.178L125.281 250.559L124.974 250.961C124.466 251.616 124.155 252.424 124.075 253.295C124.049 253.599 124.045 253.917 124.064 254.263L124.079 257.815C124.068 258.348 123.859 261.765 123.659 265.068L123.64 265.338C123.048 274.976 122.791 279.445 122.84 280.431C123.136 286.068 123.306 292.872 123.469 299.456C123.632 305.85 123.795 312.375 124.068 317.834C124.364 323.809 125.895 333.396 127.968 342.259C128.461 344.369 128.881 346.302 129.283 348.15C130.697 354.65 131.917 360.253 135.256 368.909L138.785 373.89L138.758 374.136C138.425 376.935 137.796 379.066 136.92 382.018C136.56 383.232 136.181 384.517 135.775 385.993C134.062 392.201 133.513 398.142 134.089 404.16C134.419 407.577 135.472 410.985 137.314 414.579C137.447 414.837 137.708 415.26 138.027 415.747L138.118 415.966L139.524 422.948C140.183 426.217 140.623 428.89 141.089 431.714C141.498 434.184 141.919 436.738 142.499 439.732C143.033 442.502 142.92 447.006 142.249 449.568C142.056 450.312 141.832 451.044 141.608 451.78C141.415 452.41 141.226 453.04 141.047 453.67C140.907 454.173 140.831 454.651 140.759 455.116L140.737 455.247C140.71 455.421 140.68 455.611 140.642 455.827L139.482 463.954C139.228 466.728 139.516 469.498 139.766 471.943L139.782 472.078C140.111 475.309 140.494 478.535 140.79 480.984L140.797 481.055L140.79 481.127C140.176 486.95 139.645 491.978 142.7 499.235L143.094 500.169L143.928 500.618C145.577 501.506 147.695 501.954 150.219 501.954C153.452 501.954 159.388 500.969 161.571 498.313C162.166 497.586 162.67 496.829 163.159 496.093C163.636 495.37 164.08 494.702 164.535 494.177C165.819 492.689 167.699 492.122 169.875 491.462C172.592 490.642 175.666 489.712 178.031 486.705C180.46 483.614 181.135 479.761 179.884 476.137C178.546 472.264 175.109 468.978 171.33 467.959C169.522 467.468 166.373 467.477 161.055 467.951L160.437 468.006L160.555 466.496C160.559 466.437 160.57 466.365 160.578 466.293C160.642 465.781 160.71 465.206 160.642 464.534C160.578 463.942 160.521 463.345 160.464 462.753C160.275 460.842 160.081 458.863 159.744 456.88C159.115 453.192 159.278 449.281 160.267 444.57C162.348 434.628 164.5 424.344 167.377 414.444C167.529 413.928 167.684 413.408 167.847 412.879C168.821 409.632 169.92 405.987 169.901 402.062L169.894 400.29L169.924 400.193C170.231 399.238 170.424 398.227 170.508 397.191C170.674 395.026 170.735 389.875 170.477 387.207C170.163 383.984 169.272 380.762 168.416 377.641L168.378 377.51C168.109 376.529 167.836 375.535 167.578 374.529C165.926 368.11 164.565 365.027 162.681 360.756L162.154 359.559L162.355 358.908C162.439 358.637 162.533 358.371 162.628 358.104C162.924 357.276 163.269 356.303 163.394 355.216L163.462 354.65C163.739 352.269 164.027 349.808 163.97 347.279C163.909 344.877 163.761 342.471 163.617 340.145C163.447 337.426 163.291 334.884 163.261 332.301L163.257 331.933L165.308 319.318C165.467 318.515 165.634 317.686 165.751 316.794C166.123 313.952 166.513 311.115 166.907 308.277C167.874 301.274 168.863 294.132 169.522 287.049C170.258 279.145 170.421 271.136 170.58 263.393L170.599 262.37C170.693 257.68 170.565 252.542 170.189 246.203C169.92 241.636 169.329 237.061 168.787 233.183C168.469 230.895 167.385 229.246 165.732 228.536L165.368 228.379L165.402 227.944C165.471 227.005 165.812 220.848 165.816 220.784L165.899 220.446C166.062 219.93 166.365 218.983 166.168 217.883L165.918 216.463C165.308 213.033 164.679 209.498 163.905 206.026C163.341 203.476 162.586 200.503 161.286 197.763L161.12 197.416L161.351 197.116C162.109 196.126 162.446 194.79 162.234 193.636C161.453 189.432 160.695 185.626 159.914 182.002C159.63 180.679 158.815 179.66 157.739 179.275L157.174 179.072L157.424 178.471C160.036 172.264 161.703 165.337 162.829 156.021C162.943 155.086 163.219 152.249 163.219 152.249L163.42 150.198L164.209 152.063C164.243 152.135 164.644 152.955 165.099 153.881L166.134 156C167.802 159.413 169.496 162.884 171.353 166.263C171.887 167.24 172.623 168.191 173.669 169.257L173.945 169.536L173.794 169.917C173.578 170.475 173.468 171.075 173.487 171.621C173.498 172.018 173.494 172.42 173.494 172.822C173.487 174.234 173.479 175.82 173.942 177.414C174.48 179.287 175.264 180.983 176.018 182.624C176.276 183.182 176.523 183.719 176.758 184.256C177.015 184.844 177.307 185.419 177.599 185.994C178.02 186.823 178.418 187.605 178.63 188.329C181.048 196.49 184.133 204.728 187.806 212.817C190.148 217.972 192.596 223.161 194.961 228.18C196.458 231.352 197.944 234.498 199.411 237.657C199.93 238.773 200.665 239.522 201.594 239.877L201.946 240.008V240.427C201.946 242.66 201.992 244.901 202.037 247.079L202.072 248.998C201.738 252.022 202.731 254.716 203.531 256.885C203.671 257.266 203.807 257.642 203.94 258.014C204.747 260.336 205.664 262.776 207.165 264.924L207.241 265.076C207.306 265.258 207.378 265.448 207.476 265.651L208.215 267.216C208.992 268.861 209.796 270.561 210.664 272.227C211.683 274.185 212.657 275.813 213.643 277.209C214.499 278.414 215.932 278.845 216.985 278.845C217.232 278.845 217.474 278.82 217.709 278.773L218.092 278.697L218.267 279.086C219.438 281.708 221.185 283.103 223.459 283.239C224.467 283.289 225.373 283.027 226.097 282.431L226.381 282.198L226.855 282.528C227.416 282.9 228.106 283.095 228.848 283.095C229.394 283.095 230.77 282.981 231.748 281.919C232.801 280.786 233.036 279.226 233.192 278.194C233.279 277.648 233.245 277.107 233.101 276.532L232.995 276.126L233.309 275.889C234.052 275.327 234.473 274.527 234.753 273.973C234.814 273.644 235.03 272.151 235.216 270.781C235.102 270.426 235 270.083 234.901 269.753L234.863 269.639C234.575 268.683 234.28 267.698 233.84 266.73C232.794 264.412 231.691 262.095 230.618 259.862L229.481 257.477L230.599 257.769C231.532 258.014 232.457 258.23 233.37 258.446L233.87 258.56C236.463 259.173 238.919 258.162 240.503 255.819C240.825 255.342 241.807 253.895 241.397 252.128C240.984 250.356 239.593 249.671 238.998 249.379C236.175 247.984 233.514 246.668 231.869 244.144C231.32 243.298 230.736 242.516 230.171 241.759L229.622 241.019C227.723 238.435 225.028 235.234 220.984 233.361C220.559 233.166 220.158 233.039 219.786 232.933L219.457 232.841L219.4 232.468C219.343 232.079 219.244 231.678 219.112 231.267L217.38 226.036C215.769 221.169 214.101 216.137 212.532 211.113C211.922 209.159 211.433 207.172 210.918 205.07C210.705 204.195 208.276 199.15 206.695 195.966L206.635 195.763L205.896 189.665L205.862 187.525C205.71 177.473 201.416 169.38 196.235 160.601L194.431 158.896L194.423 158.634C194.344 153.801 193.555 149.534 192.013 145.584C191.853 145.174 191.664 144.798 191.444 144.464L191.258 144.172L191.406 143.855C191.6 143.436 191.759 142.975 191.888 142.489C192.115 141.609 192.323 140.552 192.157 139.398C192.077 138.84 192.005 138.281 191.933 137.723C191.664 135.685 191.387 133.583 190.788 131.477C190.076 128.978 189.128 126.593 188.211 124.293L188.071 123.942C187.866 123.422 187.662 122.906 187.461 122.385C187.112 121.493 186.638 120.787 186.047 120.284L185.827 120.094L185.846 119.78C185.854 119.552 185.732 117.937 185.611 116.571C185.471 114.939 185.308 113.086 185.02 111.277C183.94 104.515 181.912 99.5544 178.637 95.6681C174.393 90.6317 168.995 86.9316 162.128 84.3521C161.446 84.0984 159.888 83.6924 159.873 83.6839L157.364 82.9016C156.568 82.6521 155.772 82.39 154.98 82.132L154.866 82.094C153.441 81.6246 151.97 81.1425 150.481 80.7112L150.341 80.6476L146.039 77.7383C145.489 77.3746 144.94 77.011 144.386 76.6516L144.121 76.4781C142.673 75.5309 141.301 74.6302 139.952 73.6914C138.212 72.4778 137.352 70.7355 137.246 68.2025C137.193 66.9677 137.117 65.7329 137.038 64.5023L137.015 64.1429L137.295 63.9568C138.497 63.1745 140.138 61.8466 140.532 59.4066C140.756 58.0069 140.884 56.6325 141.013 55.3005L141.028 55.1398C141.108 54.311 141.188 53.4821 141.294 52.6575L141.582 50.3656L142.044 50.1795C142.548 49.9765 143.09 49.7652 143.636 49.41C144.553 48.8179 144.921 47.8791 145.137 47.3167C146.251 44.7075 147.354 42.1153 148.446 39.5104C148.624 39.0875 148.726 38.6942 148.806 38.377L148.931 37.95L148.942 37.5228C148.995 35.3535 146.956 31.9832 144.587 31.2812L144.007 31.0149L144.019 30.6131C144.121 27.0144 143.867 23.7117 143.242 20.519C141.021 9.12253 132.326 1.164 122.097 1.164C121.21 1.164 120.308 1.23175 119.425 1.35437C114.665 2.01831 110.613 4.08606 107.38 7.49866C102.646 12.497 100.202 19.094 99.9061 27.6699C99.8758 28.651 99.8758 29.632 99.9099 30.6595L99.9251 31.1545L99.4892 31.2517C98.2082 31.5435 97.0408 32.5203 96.1994 34.0045C95.1609 35.8398 94.9297 37.9077 95.5816 39.5443L95.6954 39.8317C96.4193 41.6458 97.1393 43.4558 97.8974 45.2531L97.9997 45.4899C98.428 46.509 98.9131 47.6635 99.6219 48.7333C100.346 49.8243 101.475 50.226 102.082 50.3656L102.445 50.4502L102.608 51.8584C102.737 53.0213 102.84 54.1799 102.938 55.3428L102.968 55.6769C103.056 56.7087 103.147 57.7362 103.253 58.7638C103.473 60.8444 104.481 62.4514 106.338 63.6905L106.615 63.8722L106.592 64.2317C106.478 65.8217 106.361 67.4245 106.213 68.9933C105.929 71.9873 104.89 73.0866 104.018 73.7125C102.665 74.6809 101.24 75.624 99.8606 76.5374L98.2574 77.5987C98.0945 77.7086 97.9239 77.8102 97.7154 77.9328L92.7315 80.8929C91.6475 81.1974 90.5749 81.5146 89.5175 81.8318C88.426 82.1574 87.3647 82.4744 86.3035 82.7704L83.9461 83.426C83.9234 83.4345 81.6228 84.073 80.8724 84.3521C74.0085 86.9316 68.6103 90.6317 64.3658 95.6681C61.0923 99.5544 59.0639 104.515 57.9833 111.277C57.693 113.091 57.533 114.947 57.3894 116.584L57.3746 116.757C57.3125 117.463 57.2488 118.169 57.1779 118.867C57.1453 119.18 57.1377 119.484 57.1571 119.78L57.1764 120.094L56.9543 120.284C56.3634 120.787 55.8897 121.493 55.5448 122.385C55.3537 122.876 55.1601 123.367 54.9645 123.857L54.7985 124.276C53.8779 126.589 52.9274 128.982 52.2167 131.477C51.6141 133.583 51.3389 135.685 51.071 137.719C50.9967 138.286 50.9243 138.844 50.8443 139.402C50.6783 140.552 50.8871 141.609 51.1153 142.489C51.2427 142.975 51.4037 143.436 51.5978 143.855L51.7445 144.172L51.5565 144.464C51.3401 144.794 51.1506 145.17 50.991 145.58C49.4481 149.53 48.6605 153.797 48.5775 158.634L48.5733 158.896L46.7685 160.601C41.5852 169.384 37.2918 177.473 37.1424 187.525L36.359 195.877L33.9785 199.56C33.7014 199.996 32.3912 203.819 32.0921 205.036C31.5608 207.202 31.0783 209.172 30.4711 211.113C28.9195 216.082 27.2526 221.114 25.6403 225.981L23.8919 231.267C23.757 231.678 23.6592 232.079 23.6016 232.468L23.5467 232.841L23.2181 232.933C22.8436 233.043 22.4396 233.17 22.0173 233.365C17.9771 235.234 15.2797 238.435 13.3817 241.019L12.8457 241.742C12.2624 242.524 11.6822 243.302 11.1341 244.144C9.48963 246.668 6.82899 247.984 4.01296 249.375C3.41072 249.671 2.01596 250.36 1.60588 252.128C1.19428 253.895 2.1759 255.342 2.49843 255.815C4.08572 258.162 6.5417 259.173 9.1326 258.56C9.13412 258.56 11.4718 258.014 12.403 257.769L13.5223 257.477L12.3898 259.849C11.318 262.091 10.2105 264.408 9.16216 266.73C8.72858 267.685 8.4337 268.666 8.14679 269.614L8.10511 269.749C8.00316 270.083 7.8993 270.43 7.78257 270.785L8.11989 273.72C8.9105 275.174 9.44377 275.699 9.69808 275.893L10.0108 276.126L9.9069 276.532C9.76022 277.107 9.72917 277.686 9.8152 278.249C9.96188 279.2 10.2044 280.79 11.2482 281.911C12.2374 282.981 13.6098 283.095 14.1545 283.095C14.8977 283.095 15.5863 282.896 16.1442 282.528L16.5661 282.236L16.9083 282.431C17.6307 283.027 18.4732 283.302 19.5508 283.239C21.8176 283.103 23.5629 281.708 24.7356 279.086L24.9103 278.697L25.2939 278.773C25.5292 278.82 25.7722 278.845 26.0163 278.845C27.0733 278.845 28.5063 278.414 29.3576 277.209C30.3438 275.813 31.3194 274.185 32.3396 272.227C33.2087 270.561 34.005 268.874 34.7736 267.246L35.5301 265.647C35.6234 265.448 35.6957 265.262 35.7609 265.076L35.8348 264.928C37.3422 262.772 38.2571 260.332 39.0625 258.014C39.175 257.697 39.2918 257.38 39.4104 257.058L39.4726 256.885C40.2719 254.716 41.2653 252.022 40.9351 249.083L40.9693 247.015C41.0121 244.863 41.0553 242.638 41.0568 240.427V240.008L41.4104 239.877C42.3375 239.522 43.0716 238.778 43.5912 237.657C45.0512 234.519 46.5255 231.394 48.0018 228.265C50.3808 223.224 52.8402 218.01 55.1968 212.817C58.8702 204.728 61.9568 196.49 64.3715 188.329C64.5879 187.601 64.9843 186.819 65.4066 185.99C65.6965 185.419 65.9868 184.844 66.2445 184.256C66.4682 183.745 66.702 183.237 66.9359 182.73C67.7352 180.992 68.5201 179.296 69.0632 177.418C69.5283 175.812 69.5192 174.226 69.5105 172.822C69.5089 172.42 69.5059 172.018 69.5165 171.629C69.5324 171.08 69.4229 170.475 69.2069 169.917L69.0602 169.536L69.3327 169.257C70.3795 168.187 71.1167 167.236 71.6526 166.263C73.5158 162.863 75.2138 159.383 76.8587 156.021C77.4537 154.795 79.4852 149.775 79.5079 149.729L80.3834 147.559L80.5009 149.932C80.5047 149.987 80.7738 155.353 80.9368 156.558C81.6342 161.679 82.3543 166.969 83.9613 172.133C84.4881 173.828 85.2196 176.078 86.1936 178.429L86.4513 179.051L85.8601 179.233C84.7155 179.584 83.8551 180.62 83.5557 182.002C82.775 185.631 82.017 189.437 81.24 193.64C81.0277 194.794 81.365 196.126 82.1231 197.116L82.3505 197.416L82.1837 197.767C80.8875 200.503 80.1333 203.476 79.5648 206.026C78.7954 209.493 78.1662 213.029 77.5598 216.446L77.3059 217.879C77.1088 218.983 77.3969 219.892 77.5712 220.438L77.6508 220.772C77.6546 220.835 77.9995 227.005 78.0715 227.944L78.1056 228.379L77.738 228.536C76.0893 229.242 75.0053 230.895 74.6832 233.183C74.145 237.048 73.5537 241.615 73.2846 246.203C72.9094 252.555 72.7805 257.693 72.8753 262.37L72.8942 263.397C73.0534 271.14 73.2164 279.15 73.9517 287.049C74.6149 294.174 75.6079 301.342 76.5668 308.277C76.961 311.115 77.3514 313.952 77.7228 316.79C77.8403 317.682 78.0033 318.515 78.1624 319.318L78.2837 319.932L80.2053 331.827L80.2129 332.296C80.1825 334.901 80.0234 337.447 79.8566 340.141C79.7126 342.467 79.5648 344.877 79.5041 347.275C79.4435 349.808 79.7353 352.277 80.0158 354.667L80.0802 355.216C80.2053 356.303 80.5502 357.276 80.8269 358.058C80.9406 358.371 81.0353 358.637 81.1149 358.904L81.3158 359.563L80.789 360.76C78.9015 365.04 77.5409 368.127 75.896 374.529C75.6307 375.569 75.3502 376.597 75.0697 377.612C74.198 380.766 73.3074 383.997 72.9966 387.207C72.7388 389.862 72.7995 395.013 72.9662 397.191C73.0458 398.223 73.2429 399.233 73.5499 400.189L73.5802 400.286L73.5689 402.067C73.5537 405.991 74.6528 409.644 75.6231 412.867L75.6989 413.121C75.8353 413.569 75.968 414.009 76.0968 414.448C78.9735 424.344 81.1263 434.628 83.2071 444.57C84.1925 449.281 84.3592 453.192 83.73 456.88C83.3889 458.863 83.1957 460.842 83.01 462.753L82.8318 464.538C82.7598 465.219 82.8356 465.815 82.8849 466.213C82.9038 466.365 82.9114 466.437 82.919 466.504L83.0365 468.006L82.4187 467.951C79.7732 467.714 77.6659 467.6 75.9756 467.6ZM150.223 503.121H150.219C147.536 503.117 145.266 502.63 143.477 501.666L142.306 501.04L141.756 499.73C138.588 492.202 139.118 487.031 139.747 481.064C139.452 478.62 139.073 475.419 138.743 472.209L138.732 472.069C138.474 469.57 138.182 466.733 138.451 463.802L139.71 455.044L140.244 455.015L139.732 454.913C139.812 454.414 139.891 453.898 140.054 453.323C140.229 452.685 140.426 452.046 140.619 451.403C140.839 450.685 141.059 449.966 141.248 449.243C141.877 446.832 141.984 442.591 141.48 439.982C140.896 436.966 140.475 434.404 140.066 431.926C139.6 429.109 139.16 426.45 138.508 423.202L137.125 416.339C136.806 415.857 136.552 415.438 136.408 415.155C134.494 411.421 133.395 407.864 133.05 404.283C132.459 398.109 133.024 392.015 134.779 385.655C135.188 384.166 135.571 382.872 135.919 381.692C136.761 378.851 137.367 376.8 137.693 374.225L134.328 369.442C130.932 360.654 129.7 354.992 128.271 348.438C127.869 346.581 127.449 344.657 126.96 342.555C124.871 333.62 123.325 323.945 123.026 317.898C122.753 312.426 122.59 305.888 122.431 299.57C122.26 292.914 122.093 286.119 121.801 280.494C121.748 279.441 121.991 275.141 122.601 265.258L122.616 264.987C122.81 261.854 123.026 258.298 123.037 257.807L123.022 254.297C122.999 253.925 123.007 253.544 123.041 253.177C123.124 252.246 123.416 251.371 123.89 250.618C123.105 249.679 122.381 248.694 121.737 247.688C121.089 248.694 120.369 249.675 119.584 250.618C120.054 251.367 120.346 252.238 120.433 253.168C120.467 253.532 120.471 253.912 120.448 254.327L120.441 257.9C120.448 258.298 120.664 261.841 120.854 264.966L120.873 265.258C121.479 275.141 121.726 279.446 121.673 280.494C121.381 286.119 121.21 292.914 121.047 299.49C120.884 305.888 120.721 312.421 120.448 317.898C120.149 323.94 118.603 333.62 116.514 342.555C116.022 344.657 115.605 346.581 115.203 348.425C113.774 354.992 112.542 360.654 109.146 369.442L109.078 369.573L105.781 374.229C106.107 376.8 106.713 378.851 107.543 381.654C107.896 382.851 108.282 384.154 108.695 385.655C110.45 392.019 111.015 398.113 110.424 404.283C110.075 407.864 108.98 411.421 107.062 415.155C106.918 415.442 106.664 415.861 106.349 416.343L104.966 423.202C104.314 426.45 103.874 429.109 103.408 431.926C102.999 434.404 102.578 436.966 101.994 439.982C101.487 442.591 101.593 446.832 102.226 449.243C102.415 449.978 102.639 450.701 102.859 451.425C103.052 452.059 103.245 452.689 103.42 453.328C103.583 453.898 103.662 454.414 103.742 454.913C103.776 455.133 103.81 455.353 103.855 455.603L105.019 463.768C105.292 466.733 105 469.57 104.742 472.074L104.731 472.205C104.397 475.44 104.022 478.628 103.727 481.064C104.356 487.031 104.886 492.202 101.714 499.73L101.164 501.04L99.9971 501.666C98.2044 502.63 95.9342 503.121 93.2508 503.121C90.2035 503.121 83.749 502.28 81.1339 499.1C80.5047 498.334 79.9893 497.556 79.489 496.803C79.019 496.093 78.5945 495.454 78.1852 494.985C77.1012 493.729 75.3502 493.2 73.3225 492.583C70.4682 491.72 67.2319 490.744 64.6603 487.47C61.9659 484.045 61.2212 479.761 62.6155 475.719C64.0683 471.511 67.7989 467.938 71.8971 466.826C73.766 466.322 76.798 466.306 81.8881 466.737L81.8616 466.454C81.7971 465.946 81.7099 465.231 81.7933 464.403L81.9753 462.627C82.1648 460.694 82.3581 458.694 82.7029 456.66C83.3056 453.141 83.1426 449.382 82.1913 444.832C80.1143 434.916 77.9691 424.657 75.1039 414.804C74.9788 414.372 74.8461 413.932 74.7135 413.493L74.6377 413.252C73.6371 409.928 72.5077 406.177 72.5266 402.058L72.5342 400.485C72.2158 399.462 72.0111 398.388 71.9266 397.292C71.7565 395.068 71.6943 389.799 71.9592 387.08C72.284 383.76 73.1861 380.479 74.0616 377.307C74.3496 376.263 74.6301 375.244 74.8954 374.208C76.5668 367.704 77.9426 364.579 79.8528 360.253L80.1901 359.483L80.1295 359.28C80.0537 359.031 79.9627 358.781 79.8756 358.532C79.561 357.644 79.1896 356.595 79.0455 355.368L78.9811 354.819C78.6968 352.387 78.4012 349.871 78.4619 347.245C78.5187 344.818 78.6703 342.399 78.8143 340.06C78.9811 337.379 79.1365 334.851 79.1706 332.288V331.929L77.1467 319.568C76.9913 318.786 76.8132 317.893 76.6919 316.959C76.3205 314.126 75.9301 311.288 75.5359 308.455C74.5732 301.507 73.5802 294.322 72.917 287.167C72.1741 279.221 72.0111 271.191 71.8527 263.423L71.8334 262.395C71.7356 257.684 71.8675 252.513 72.2461 246.127C72.5152 241.492 73.1103 236.896 73.6522 233.005C74.0047 230.489 75.2176 228.552 77.0027 227.622C76.9041 226.049 76.654 221.596 76.6161 220.92L76.582 220.818C76.4039 220.251 76.0286 219.067 76.2826 217.655L76.5327 216.243C77.1467 212.792 77.7759 209.24 78.5528 205.747C79.1138 203.231 79.8528 200.309 81.1073 197.56C80.3038 196.338 79.9627 194.782 80.2167 193.407C80.9974 189.187 81.7593 185.373 82.5438 181.732C82.8811 180.163 83.7869 178.937 85.0111 178.336C84.1318 176.154 83.4647 174.099 82.972 172.513C81.3385 167.248 80.6108 161.907 79.9059 156.736C79.8073 156.012 79.6823 153.983 79.5875 152.338C78.947 153.89 78.1321 155.843 77.7758 156.575C76.1272 159.954 74.4216 163.447 72.5417 166.872C72.0005 167.853 71.2842 168.804 70.2996 169.845C70.4875 170.449 70.5762 171.071 70.5588 171.663C70.5482 172.039 70.5512 172.424 70.5527 172.813C70.5614 174.302 70.5721 175.993 70.0551 177.774C69.4866 179.74 68.6812 181.486 67.9042 183.174C67.6332 183.762 67.402 184.261 67.1814 184.768C66.9135 185.377 66.6144 185.973 66.3139 186.565C65.9186 187.343 65.5456 188.075 65.3622 188.692C62.9313 196.909 59.8234 205.201 56.1265 213.342C53.7668 218.543 51.3048 223.761 48.9239 228.806C47.4495 231.936 45.9763 235.06 44.5179 238.194C43.9452 239.429 43.1129 240.33 42.0991 240.824C42.093 242.913 42.0517 245.007 42.0115 247.041L41.9748 249.024C42.3345 252.178 41.2816 255.033 40.4379 257.329L40.3742 257.498C40.2586 257.815 40.1434 258.128 40.035 258.437C39.2091 260.809 38.2703 263.313 36.7039 265.575C36.6345 265.774 36.5531 265.977 36.4538 266.188L35.6957 267.787C34.923 269.428 34.1221 271.123 33.2424 272.811C32.1945 274.819 31.192 276.494 30.1782 277.927C29.0957 279.462 27.3193 280.008 26.0163 280.008C25.8415 280.008 25.6668 279.999 25.4951 279.978C24.1436 282.761 22.164 284.249 19.6027 284.402C19.486 284.41 19.3791 284.41 19.2756 284.41C18.2644 284.41 17.3597 284.135 16.5812 283.59C15.8824 284.025 15.0459 284.258 14.1545 284.258C13.4825 284.258 11.7856 284.11 10.5228 282.748C9.23492 281.361 8.95484 279.539 8.78922 278.443C8.69446 277.834 8.70621 277.217 8.81878 276.6C8.31091 276.109 7.7587 275.314 7.20193 274.274L7.09846 273.986L6.71642 270.65L6.76077 270.514C6.89115 270.121 7.00675 269.745 7.1178 269.377L7.15456 269.254C7.45663 268.256 7.76475 267.237 8.23093 266.205C9.28533 263.871 10.3954 261.549 11.4703 259.3L11.5283 259.181C10.511 259.427 9.34901 259.701 9.34901 259.701C6.36432 260.408 3.4979 259.224 1.66653 256.517C1.26971 255.934 0.0587671 254.149 0.5962 251.836C1.13363 249.519 2.91459 248.643 3.58392 248.313C6.27525 246.981 8.81159 245.734 10.292 243.459C10.859 242.588 11.4495 241.793 12.0225 241.027L12.5778 240.279C14.5513 237.594 17.3628 234.261 21.6179 232.287C21.9776 232.122 22.3164 232.003 22.6393 231.902C22.706 231.563 22.7977 231.216 22.9133 230.866L24.6484 225.613C26.2725 220.712 27.9378 215.689 29.4865 210.728C30.0819 208.825 30.5598 206.876 31.0662 204.808C31.3447 203.679 32.7569 199.374 33.1583 198.846L35.3524 195.446L36.1028 187.453C36.254 177.118 40.6467 168.851 45.9381 159.89L46.037 159.768L47.5397 158.347C47.6478 153.463 48.4653 149.132 50.0344 145.115C50.1795 144.747 50.3467 144.396 50.5335 144.075C50.369 143.673 50.2284 143.25 50.1128 142.815C49.854 141.808 49.6156 140.594 49.8153 139.216C49.8922 138.666 49.9662 138.112 50.0374 137.558C50.3114 135.473 50.5957 133.321 51.2218 131.126C51.9503 128.568 52.9141 126.145 53.8453 123.806L54.0109 123.388C54.205 122.901 54.3975 122.411 54.5885 121.92C54.963 120.956 55.4724 120.157 56.1046 119.556C56.1 119.286 56.1133 119.011 56.1428 118.736C56.2126 118.043 56.2747 117.345 56.3369 116.643L56.3517 116.474C56.4953 114.812 56.6598 112.93 56.9573 111.074C58.075 104.079 60.1876 98.9328 63.6063 94.8732C67.9705 89.6887 73.5082 85.8913 80.5426 83.2526C81.3272 82.9566 83.5974 82.3266 83.6922 82.297L86.0496 81.6414C87.1071 81.3496 88.1607 81.0326 89.2143 80.7197C90.2869 80.3983 91.3443 80.081 92.4169 79.7808L97.1545 76.9433C97.4198 76.7911 97.5714 76.7022 97.7192 76.6008L99.33 75.5351C100.698 74.6302 102.116 73.6913 103.454 72.7356C104.132 72.2493 104.939 71.3699 105.174 68.8707C105.311 67.4287 105.421 65.9569 105.527 64.498C103.575 63.1025 102.461 61.2209 102.218 58.8993C102.108 57.8632 102.021 56.8271 101.93 55.7911L101.9 55.457C101.801 54.3026 101.703 53.1523 101.574 52.0063L101.506 51.4058C100.365 51.0591 99.4058 50.3657 98.7843 49.4269C98.0149 48.264 97.5032 47.0544 97.056 45.9888L96.9536 45.7478C96.1918 43.9421 95.4679 42.1237 94.744 40.3054L94.6303 40.0179C93.8344 38.0262 94.0921 35.5437 95.3163 33.3828C96.2184 31.7928 97.4615 30.6892 98.8525 30.2325C98.8297 29.3445 98.8373 28.4861 98.8638 27.6234C99.1708 18.7304 101.722 11.8712 106.664 6.65292C110.06 3.06693 114.308 0.897675 119.296 0.199951C120.221 0.0688477 121.165 0.00109863 122.097 0.00109863C132.819 0.00109863 141.934 8.33603 144.261 20.2696C144.879 23.4327 145.145 26.6972 145.073 30.2282C147.612 31.0824 150.056 34.6642 149.984 37.5567L149.947 38.2333L149.803 38.7196C149.723 39.0325 149.605 39.4934 149.393 40.0051C148.298 42.61 147.195 45.2022 146.088 47.7945C145.842 48.4288 145.372 49.634 144.159 50.4164C143.556 50.8054 142.988 51.0381 142.526 51.2241L142.325 52.8184C142.222 53.6303 142.143 54.4464 142.067 55.2625L142.048 55.4231C141.919 56.7721 141.786 58.1675 141.559 59.6096C141.119 62.3329 139.444 63.8512 138.099 64.773C138.171 65.8979 138.239 67.0227 138.288 68.1476C138.379 70.3212 139.042 71.687 140.505 72.7061C141.847 73.6364 143.208 74.533 144.572 75.4253L144.913 75.6493C145.467 76.013 146.024 76.3724 146.573 76.7403L150.814 79.6073C152.296 80.0387 153.752 80.5123 155.158 80.9732L155.275 81.0114C156.064 81.2736 156.856 81.5315 157.648 81.781L160.134 82.559C160.176 82.5717 161.734 82.9777 162.461 83.2526C169.492 85.8913 175.033 89.6888 179.395 94.869C182.814 98.9329 184.929 104.079 186.047 111.074C186.343 112.926 186.506 114.803 186.65 116.457C186.688 116.88 186.847 118.732 186.881 119.54C187.521 120.148 188.037 120.948 188.416 121.925C188.617 122.44 188.821 122.956 189.026 123.472L189.162 123.819C190.091 126.153 191.05 128.564 191.781 131.122C192.407 133.321 192.691 135.469 192.964 137.546C193.036 138.108 193.108 138.666 193.188 139.216C193.388 140.594 193.15 141.808 192.888 142.81C192.774 143.25 192.634 143.673 192.471 144.075C192.657 144.396 192.824 144.747 192.968 145.119C194.541 149.137 195.355 153.467 195.462 158.347L197.065 159.89C202.356 168.851 206.748 177.114 206.904 187.504L206.934 189.58L207.658 195.496C208.238 196.672 211.619 203.518 211.918 204.736C212.437 206.846 212.919 208.813 213.518 210.728C215.083 215.744 216.75 220.772 218.361 225.635L220.09 230.866C220.203 231.216 220.298 231.563 220.362 231.902C220.677 231.999 221.026 232.122 221.386 232.287C225.642 234.261 228.454 237.594 230.425 240.279L230.963 241.002C231.547 241.784 232.142 242.583 232.71 243.459C234.192 245.73 236.728 246.986 239.411 248.309C240.025 248.614 241.867 249.519 242.406 251.836C242.944 254.145 241.731 255.934 241.333 256.521C239.506 259.224 236.645 260.403 233.654 259.701L233.154 259.583C232.601 259.452 232.04 259.321 231.479 259.186L231.509 259.249C232.612 261.558 233.722 263.875 234.772 266.205C235.242 267.25 235.553 268.273 235.852 269.267L235.887 269.381C235.997 269.749 236.114 270.125 236.243 270.519L236.288 270.662L236.269 270.81C235.792 274.291 235.754 274.363 235.697 274.477C235.417 275.031 234.977 275.902 234.189 276.608C234.302 277.213 234.31 277.809 234.223 278.388C234.056 279.5 233.772 281.357 232.472 282.757C231.221 284.114 229.523 284.258 228.848 284.258C227.958 284.258 227.12 284.025 226.423 283.59C225.562 284.194 224.569 284.469 223.406 284.402C220.84 284.249 218.858 282.761 217.508 279.978C217.334 279.999 217.16 280.008 216.985 280.008C215.685 280.008 213.912 279.462 212.828 277.927C211.808 276.49 210.808 274.819 209.762 272.815C208.882 271.128 208.075 269.415 207.294 267.757L206.559 266.201C206.453 265.981 206.369 265.774 206.297 265.575C204.736 263.317 203.796 260.809 202.966 258.437C202.841 258.069 202.704 257.697 202.564 257.329C201.719 255.033 200.669 252.179 201.033 248.939L200.991 247.104C200.953 245.049 200.908 242.934 200.904 240.824C199.892 240.33 199.058 239.429 198.486 238.194C197.019 235.035 195.534 231.889 194.048 228.743C191.672 223.698 189.219 218.505 186.877 213.342C183.178 205.201 180.07 196.909 177.641 188.692C177.459 188.079 177.087 187.348 176.693 186.565C176.39 185.973 176.087 185.377 175.821 184.768C175.59 184.239 175.348 183.707 175.101 183.178C174.317 181.474 173.513 179.732 172.949 177.77C172.437 176.002 172.444 174.315 172.448 172.822C172.452 172.424 172.452 172.039 172.444 171.659C172.426 171.067 172.516 170.445 172.702 169.845C171.721 168.809 171.004 167.857 170.462 166.872C168.594 163.464 166.892 159.983 165.247 156.617L164.182 154.439C164.148 154.363 164.11 154.287 164.072 154.211C163.996 154.968 163.913 155.763 163.86 156.177C162.757 165.337 161.127 172.23 158.599 178.408C159.751 179.034 160.604 180.235 160.93 181.728C161.715 185.364 162.473 189.183 163.254 193.399C163.507 194.778 163.17 196.338 162.363 197.56C163.621 200.309 164.36 203.231 164.917 205.747C165.698 209.24 166.327 212.792 166.937 216.226L167.191 217.655C167.442 219.072 167.066 220.26 166.884 220.831L166.854 220.932C166.816 221.609 166.57 226.049 166.467 227.622C168.256 228.552 169.469 230.489 169.818 233.005C170.364 236.904 170.959 241.518 171.228 246.127C171.607 252.5 171.736 257.672 171.641 262.395L171.622 263.419C171.463 271.187 171.3 279.221 170.557 287.167C169.898 294.28 168.908 301.439 167.949 308.357C167.544 311.288 167.153 314.126 166.782 316.959C166.661 317.898 166.483 318.786 166.327 319.572L166.206 320.177L164.292 332.034L164.303 332.292C164.334 334.834 164.489 337.358 164.656 340.035C164.804 342.403 164.951 344.822 165.012 347.245C165.073 349.867 164.781 352.379 164.497 354.802L164.428 355.368C164.284 356.595 163.913 357.644 163.614 358.485C163.507 358.781 163.42 359.031 163.344 359.28L163.284 359.483L163.617 360.244C165.524 364.566 166.903 367.691 168.579 374.208C168.836 375.21 169.105 376.195 169.374 377.172L169.412 377.299C170.284 380.47 171.19 383.748 171.512 387.08C171.777 389.816 171.717 395.081 171.546 397.292C171.459 398.396 171.254 399.47 170.936 400.485L170.944 402.058C170.966 406.173 169.837 409.915 168.844 413.222C168.677 413.776 168.518 414.292 168.37 414.804C165.505 424.657 163.356 434.916 161.283 444.832C160.328 449.382 160.165 453.141 160.767 456.66C161.116 458.694 161.309 460.694 161.499 462.627C161.556 463.219 161.616 463.811 161.677 464.398C161.764 465.219 161.677 465.908 161.62 466.365L161.586 466.737C166.676 466.306 169.708 466.322 171.577 466.83C175.674 467.934 179.403 471.507 180.858 475.719C182.253 479.761 181.507 484.045 178.812 487.47C176.242 490.744 173.005 491.72 170.151 492.583C168.124 493.196 166.373 493.729 165.285 494.985C164.879 495.454 164.455 496.093 164.008 496.77C163.492 497.543 162.973 498.33 162.34 499.1C159.725 502.28 153.27 503.121 150.223 503.121Z" fill="#9AA0A9"/>
<path d="M117.356 89.6104C116.098 86.2526 114.152 83.6869 110.584 83.0886C106.213 82.3556 101.831 81.9301 97.4828 82.7895C93.9377 83.4889 90.4721 84.6811 86.9686 85.6543C86.9686 85.8355 86.9686 86.0208 86.9648 86.2019C92.1234 87.9082 94.1687 92.4248 95.3883 97.649C95.8541 99.6417 96.1837 101.676 96.5927 103.686C97.4487 107.929 98.2744 112.226 100.456 115.891C103.982 121.823 107.637 127.663 111.368 133.43C114.712 138.6 118.17 143.668 119.897 149.857C120.257 151.155 120.492 152.494 120.852 154.129C120.954 151.972 121.128 150.135 121.113 148.302C121.007 134.454 120.825 120.602 120.753 106.753C120.723 100.745 119.401 95.0832 117.356 89.6104Z" fill="#9AA0A9"/>
<path d="M135.083 82.7004C131.841 83.0722 129.011 84.1792 127.335 87.5721C125.394 91.4973 124.047 95.7648 123.615 100.134C122.961 106.789 122.802 113.52 122.704 120.225C122.56 129.854 122.654 139.488 122.669 149.117C122.673 150.651 122.806 152.185 122.874 153.719C124.164 145.771 128.375 139.611 132.495 133.387C135.057 129.516 137.618 125.642 140.096 121.704C142.692 117.58 145.03 113.279 146.135 108.314C146.979 104.507 147.667 100.653 148.568 96.8592C149.464 93.0649 150.997 89.6467 154.133 87.4918C154.951 86.9298 155.87 86.5538 156.744 86.0932C156.755 85.9707 156.763 85.8524 156.774 85.7299C154.054 84.8722 151.36 83.9089 148.613 83.1906C144.145 82.0202 139.62 82.1807 135.083 82.7004Z" fill="#9AA0A9"/>
<path d="M122.753 220.15C122.746 223.311 122.648 226.472 122.625 229.633C122.621 230.013 122.821 230.401 122.926 230.785C123.25 230.557 123.683 230.409 123.879 230.084C124.989 228.236 126.122 226.387 127.109 224.454C130.049 218.698 131.607 212.333 133.474 206.1C134.769 201.786 136.011 197.427 138.281 193.594C139.573 191.417 140.916 189.26 143.367 188.471C145.069 187.922 145.091 187.876 144.967 185.862C144.485 178.173 142.595 170.918 138.473 164.739C135.356 160.067 131.626 155.906 128.151 151.538C127.861 151.175 127.432 150.926 127.037 150.702C126.359 150.322 125.697 150.44 125.452 151.28C124.605 154.192 123.431 157.079 123.133 160.071C122.7 164.452 122.877 168.909 122.862 173.336C122.832 181.689 122.855 190.037 122.855 198.389C122.821 198.389 122.791 198.389 122.761 198.389C122.761 205.644 122.776 212.899 122.753 220.15Z" fill="#9AA0A9"/>
<path d="M120.992 165.725C120.852 165.725 120.856 160.958 120.502 158.672C120.137 156.293 119.195 154.024 118.437 151.734C117.993 150.384 117.341 150.169 116.268 150.937C115.827 151.253 115.427 151.662 115.077 152.097C113.604 153.898 112.15 155.72 110.707 157.546C109.136 159.533 107.539 161.494 106.028 163.531C103.937 166.349 102.592 169.639 101.36 173.009C99.7555 177.391 98.9607 181.938 98.7346 186.645C98.6894 187.632 99.0096 188.134 99.8535 188.328C101.553 188.72 102.826 189.826 103.93 191.293C106.887 195.229 108.341 199.969 109.799 204.723C111.234 209.384 112.579 214.082 114.147 218.688C115.544 222.792 117.432 226.643 119.854 230.127C120.061 230.422 120.434 230.57 120.732 230.785C120.867 230.422 121.108 230.06 121.116 229.693C121.131 228.811 120.995 227.93 120.995 227.048C120.988 206.604 120.992 186.164 120.992 165.725Z" fill="#9AA0A9"/>
<path d="M162.588 127.151L162.414 122.295L162.402 122.3C162.383 121.991 162.323 121.654 162.22 121.252C161.925 120.121 161.584 119.002 161.22 117.896C159.309 112.052 156.053 107.344 151.5 103.768C149.541 102.227 148.604 102.695 148.18 105.284C147.543 109.164 146.58 112.956 144.798 116.363C143.24 119.34 141.364 122.11 139.628 124.968L137.118 129.528C134.302 134.329 131.47 139.121 128.665 143.93C127.702 145.586 127.687 147.253 128.764 148.883C132.005 153.79 135.799 158.041 140.507 161.217C144.04 163.602 147.649 163.497 151.246 161.512C155.124 159.376 157.55 155.685 159.449 151.505C162.065 145.759 162.816 139.569 162.857 132.235C162.804 131.192 162.721 129.169 162.588 127.151Z" fill="#9AA0A9"/>
<path d="M114.164 150.024C116.18 147.241 116.331 146.105 114.618 143.094C112.046 138.58 109.338 134.158 106.718 129.673L104.675 125.788L104.509 125.763C104.399 125.48 104.244 125.172 104.017 124.817C102.705 122.756 101.306 120.759 100.092 118.63C97.6598 114.378 96.234 109.69 95.47 104.728C95.1788 102.861 94.2825 102.422 92.8038 103.377C92.1873 103.778 91.5973 104.247 91.0376 104.749C86.3102 108.981 83.2959 114.458 81.6357 120.923C81.4957 121.468 81.4163 121.907 81.3937 122.287H81.3899L81.2046 127.228C81.0798 129.162 80.9927 131.097 80.8906 133.052C80.9814 134.889 81.0306 136.747 81.1705 138.593C81.6697 145.079 83.5115 151.034 87.0023 156.283C89.1428 159.505 91.9642 161.709 95.4549 162.689C98.8624 163.639 101.865 162.326 104.649 160.248C108.363 157.478 111.373 153.876 114.164 150.024Z" fill="#9AA0A9"/>
<path d="M160.579 151.813C160.466 151.779 160.352 151.745 160.242 151.712C160.072 152.104 159.92 152.509 159.727 152.885C158.587 155.117 157.549 157.425 156.261 159.543C154.935 161.716 153.31 163.665 150.893 164.361C147.605 165.311 144.367 165.045 141.219 163.585C140.942 163.458 140.647 163.387 140.09 163.192C143.965 171.036 145.897 179.235 147.336 188.023C148.166 187.391 148.761 187.036 149.249 186.551C151.689 184.116 153.359 181.066 154.769 177.821C157.799 170.83 159.25 163.357 160.174 155.728C160.333 154.425 160.447 153.117 160.579 151.813Z" fill="#9AA0A9"/>
<path d="M103.29 163.201C102.933 163.293 102.787 163.306 102.659 163.365C100.457 164.449 98.1456 164.946 95.7593 164.799C93.1591 164.639 90.589 164.107 88.9343 161.59C87.2083 158.962 85.6925 156.154 84.1166 153.4C83.8277 152.898 83.7001 152.278 83.4938 151.709C83.4037 151.734 83.3099 151.755 83.2161 151.776C83.2049 151.979 83.1598 152.181 83.1898 152.375C84.1053 158.684 84.7019 165.043 86.5855 171.154C87.985 175.687 89.6359 180.031 92.2248 183.86C92.9903 184.986 93.917 186.003 94.8738 186.939C95.9732 188.014 96.3221 187.829 96.5848 186.256C96.6035 186.129 96.6185 186.007 96.6373 185.88C97.6616 179.609 99.0912 173.474 101.444 167.645C102.022 166.216 102.626 164.799 103.29 163.201Z" fill="#9AA0A9"/>
<path d="M129.516 82.394L134.916 80.952C138.273 81.0701 141.636 81.0365 144.992 81.0955C145.163 81.0997 145.33 81.0112 145.785 80.8847C145.296 80.5516 145.034 80.3743 144.765 80.1972C142.717 78.8437 140.646 77.5324 138.625 76.1282C136.05 74.3404 134.833 71.6798 134.693 68.3234C134.571 65.4266 134.306 62.5297 134.2 59.6287C134.04 55.273 132.907 51.2629 130.954 47.5185C130.779 47.1896 130.517 46.9157 130.294 46.6163C130.169 46.6627 130.043 46.709 129.918 46.7596C130.358 52.4689 130.798 58.1783 131.238 63.9128C131.155 63.5544 131.037 63.2129 130.995 62.8587C130.316 57.356 129.672 51.849 128.951 46.3505C128.872 45.7433 128.504 44.959 128.052 44.6639C124.302 42.2309 120.464 42.1847 116.547 44.2803C115.39 44.9001 115.026 45.756 114.965 47.1391C114.689 53.3375 113.926 59.4684 112.485 65.4729C112.334 66.1011 112.08 66.6957 111.871 67.3071C113.213 58.5535 114.074 48.1173 113.335 46.5698C113.016 47.0463 112.686 47.4428 112.447 47.8982C110.976 50.7022 110.013 53.7086 109.751 56.947C109.421 61.0582 109.228 65.1819 108.841 69.2847C108.579 72.0423 107.681 74.5471 105.458 76.1325C103.547 77.4945 101.579 78.7511 99.6297 80.0498C99.2884 80.2775 98.9243 80.4756 98.3555 80.8171C98.8105 80.9563 99.0115 81.0786 99.2125 81.0786C102.777 81.0196 106.346 80.9648 109.91 80.8762L109.907 80.8847L114.586 82.4406C119.368 86.6234 121.31 92.2062 121.871 98.8516C122.713 95.4909 123.278 92.5225 124.207 89.7058C125.178 86.7752 127.139 84.5487 129.516 82.394Z" fill="#9AA0A9"/>
<path d="M100.408 43.9913C100.845 45.0193 101.273 46.0811 101.873 46.9822C102.135 47.3799 102.829 47.5787 103.319 47.5575H104.901C105.057 48.8648 105.201 50.1721 105.353 51.4793C105.614 53.7808 105.759 56.1035 106.001 58.4092C106.176 60.0676 107.246 60.8755 108.608 61.6412C108.696 61.0828 108.764 60.681 108.825 60.2791C109.189 57.7788 109.428 55.2446 109.952 52.7908C110.661 49.4698 111.697 46.208 114.274 44.0842C118.721 40.4163 123.472 40.2134 128.436 42.8363C131.001 44.1944 132.466 46.5761 133.365 49.3429C134.196 51.9025 134.64 54.6311 135.167 57.3049C135.437 58.684 135.513 60.1098 135.703 61.7344C136.924 60.9771 137.945 60.2367 138.161 58.8787C138.518 56.683 138.628 54.4407 138.913 52.2281C139.11 50.6797 139.3 49.123 139.501 47.5703L140.992 47.5788C141.508 47.3546 142.055 47.1853 142.529 46.8765C142.757 46.7326 142.867 46.335 143 46.0304C144.104 43.4412 145.204 40.8521 146.293 38.2587C146.419 37.9583 146.487 37.6241 146.544 37.421C146.574 36.2788 144.935 34.0958 143.998 34.045L141.505 32.886L141.497 32.9155C141.774 28.998 141.672 25.0677 140.897 21.1078C138.765 10.176 129.73 2.83592 119.924 4.2024C115.913 4.76507 112.308 6.4446 109.337 9.57947C104.666 14.5081 102.909 20.8159 102.67 27.7541C102.605 29.6071 102.681 31.4474 102.84 33.2793L100.416 34.0494C98.9548 34.0917 97.5165 36.8415 98.1161 38.3434C98.8675 40.2302 99.6188 42.1214 100.408 43.9913Z" fill="#9AA0A9"/>
<path d="M99.0633 191.336C98.9353 191.154 98.7696 190.989 98.57 190.836L98.5587 190.827L98.5549 190.832C98.3026 190.637 98.0239 190.458 97.7829 190.289C97.5306 190.111 97.1653 190.14 96.6419 190.034C92.3752 190.335 88.7901 192.604 86.1088 196.599C84.1393 199.538 83.1639 203.075 82.3844 206.621C81.5258 210.505 80.8592 214.445 80.1625 218.376C80.0834 218.839 80.3583 219.386 80.4676 219.891C80.9157 219.691 81.5295 219.636 81.7819 219.263C82.7045 217.902 83.6535 216.515 84.3313 214.988C84.5535 214.483 84.787 213.987 85.0167 213.491L88.888 209.135L91.0872 207.558C91.8366 207.066 92.6011 206.612 93.4146 206.311C96.4235 205.187 99.5416 204.39 102.633 203.546C103.925 203.194 104.271 202.986 103.929 201.578C103.375 199.314 102.679 197.087 101.94 194.882C101.733 194.258 101.485 193.838 101.191 193.618L101.214 193.508L99.0633 191.336Z" fill="#9AA0A9"/>
<path d="M88.5874 247.177C88.4626 243.023 87.9486 238.949 85.7188 235.292C84.6794 233.583 83.3415 232.181 81.4064 231.518C79.0896 230.724 77.7253 231.366 77.3927 233.751C76.8031 237.977 76.274 242.229 76.0207 246.493C75.7108 251.775 75.5105 257.081 75.6201 262.38C75.7864 270.515 75.9263 278.676 76.6784 286.782C77.6005 296.666 79.1388 306.503 80.4238 316.356C80.5561 317.361 80.7753 318.353 80.968 319.35L82.9409 331.585C82.9371 331.825 82.9409 332.062 82.9371 332.302C82.8767 337.305 82.3475 342.291 82.2304 347.29C82.1699 349.773 82.4949 352.285 82.7822 354.767C82.9031 355.827 83.3831 356.848 83.7006 357.883C83.8291 357.866 83.9575 357.849 84.086 357.828C84.1919 357.613 84.3091 357.401 84.3998 357.178C86.1081 352.871 87.6123 348.468 89.5662 344.288C93.3683 336.144 95.2807 327.574 95.6133 318.569C95.8741 311.493 96.1236 304.421 96.4372 297.35C96.5355 295.192 96.887 293.056 97.0268 290.899C97.3783 285.444 97.7789 279.989 97.9528 274.526C98.0511 271.402 97.8281 268.253 97.5824 265.128C97.4501 263.461 96.8492 263.06 95.2921 263.562C94.2943 263.883 93.3155 264.259 92.3441 264.655C90.6358 265.285 86.5427 266.479 86.4935 263.638C87.7332 258.234 88.7499 252.792 88.5874 247.177Z" fill="#9AA0A9"/>
<path d="M94.5512 357.066C95.0798 356.618 95.4514 356.324 95.7962 356.003C96.8266 355.047 97.7843 353.997 98.8837 353.147C99.9563 352.319 100.159 351.866 99.4392 350.654C97.5123 347.392 95.9341 343.968 95.0837 340.211C95.0415 340.023 94.9189 339.852 94.6699 339.314C93.4824 341.799 92.4251 344.019 91.364 346.239C90.935 347.136 91.1725 347.896 91.5863 348.771C92.4099 350.521 93.0917 352.349 93.7697 354.172C94.0877 355.03 94.2524 355.948 94.5512 357.066Z" fill="#9AA0A9"/>
<path d="M106.318 206.581C105.809 204.534 104.844 203.927 102.675 204.232C98.1082 204.886 94.3181 206.976 91.0899 209.987C86.2741 214.48 83.3438 220.074 81.1829 226.083C80.5606 227.812 80.8812 228.542 82.6386 229.481C85.5009 231.014 87.3526 233.299 88.2464 236.263C89.5814 240.714 90.3206 245.254 90.1169 249.862C89.9698 253.217 89.506 256.555 89.1817 259.906C88.8385 262.242 89.9699 263.134 92.2929 262.421C98.2666 260.59 103.927 258.127 109.071 254.708C113.789 251.569 117.813 247.849 120.234 242.71C121.513 240.005 121.46 237.779 119.631 235.129C113.544 226.321 108.864 216.88 106.318 206.581Z" fill="#9AA0A9"/>
<path d="M85.6594 194.771C86.4482 193.956 87.0604 192.939 87.898 192.195C89.2726 190.969 90.7713 189.903 92.2812 188.719C90.7788 186.686 89.2839 184.616 87.7402 182.579C87.1054 181.742 86.4106 181.759 86.2228 182.625C85.404 186.418 84.6528 190.225 83.9429 194.039C83.8753 194.412 84.1871 195.114 84.4838 195.248C84.773 195.374 85.3702 195.072 85.6594 194.771Z" fill="#9AA0A9"/>
<path d="M89.8696 350.206C89.4638 350.219 88.9368 350.816 88.7131 351.291C87.5527 353.749 85.6682 356.407 84.595 358.911C81.9938 364.968 80.4922 367.689 78.5659 375.212C77.4738 379.458 76.1315 383.493 75.7485 387.431C75.5096 389.885 75.5741 394.924 75.722 396.869C76.086 401.548 79.0626 404.032 83.0403 405.214C86.0625 406.109 88.1291 404.727 88.3642 401.404C88.641 397.463 88.5576 393.487 88.8913 389.558C89.4411 383.04 90.1085 376.534 90.9085 370.05C91.4773 365.417 92.285 360.831 92.285 356.127C92.2812 354.343 91.8414 352.757 91.0564 351.253C90.81 350.787 90.2601 350.197 89.8696 350.206Z" fill="#9AA0A9"/>
<path d="M116.87 254.32C116.881 254.126 116.889 253.936 116.87 253.742C116.772 252.665 115.634 252.171 114.928 252.956C113.035 255.076 110.514 256.212 108.005 257.285C103.853 259.067 101.937 262.425 101.34 266.598C100.66 271.37 100.248 276.189 99.8323 281.004C99.3373 286.705 98.9103 292.415 98.5551 298.129C98.2415 303.121 97.8372 308.122 97.8825 313.122C97.8863 313.583 97.9052 314.043 97.9165 314.503L97.909 314.533L96.1028 334.624C95.7401 335.891 95.5889 337.2 95.8232 338.556C96.6847 343.505 98.9708 347.834 102.149 351.699C103.139 352.902 103.717 354.089 103.683 355.618C103.66 356.691 103.762 357.763 103.811 358.84L103.906 370.252C104.132 370.294 104.355 370.336 104.582 370.383C105.02 369.534 105.421 368.677 105.897 367.84C110.102 356.927 110.851 351.04 113.061 341.571C114.965 333.416 116.568 323.888 116.87 317.747C117.422 306.644 117.52 291.482 118.094 280.383C118.173 278.829 116.885 259.604 116.855 258.037L116.87 254.32Z" fill="#9AA0A9"/>
<path d="M101.98 368.605C101.991 366.389 102.055 362.672 102.168 360.46C102.247 358.892 102.243 357.316 102.186 355.743C102.149 354.807 101.532 354.383 100.626 354.815C99.6108 355.298 98.5279 355.773 97.7232 356.498C95.6175 358.413 94.4895 360.952 93.8503 363.588C92.1281 370.699 91.3122 377.958 90.7632 385.264C90.6316 389.176 90.3947 393.087 90.3985 397.007C90.4022 401.152 90.9137 405.275 92.2297 409.289C93.2487 412.391 94.8467 415.154 97.821 417.014C99.1032 417.815 100.306 417.794 101.378 416.828C102.01 416.256 103.649 413.921 104.01 413.213C105.841 409.606 106.631 406.598 106.887 403.907C107.439 398.079 106.875 392.596 105.315 386.866C103.288 379.441 101.942 376.95 101.98 368.605Z" fill="#9AA0A9"/>
<path d="M97.1878 456.589C94.8954 455.636 90.2805 457.399 89.4749 459.921C89.0081 461.376 88.4548 462.806 87.8902 464.223L87.8676 464.21C86.2791 468.107 86.1285 468.242 84.2614 471.16C82.6127 471.013 75.4004 470.22 72.8633 470.907C70.0702 471.666 67.2414 474.18 66.1724 477.288C65.3634 479.646 65.5622 482.341 67.5455 484.871C71.1159 489.434 77.2261 487.992 80.8661 492.222C81.9502 493.483 82.7934 495.102 83.8549 496.401C85.5525 498.472 94.1238 500.323 98.3435 498.05C101.027 491.653 100.636 487.49 99.9659 481.126C100.339 478.043 100.7 474.956 101.016 471.864C101.344 468.672 101.686 465.458 100.978 462.249C100.44 459.811 99.5819 457.584 97.1878 456.589Z" fill="#9AA0A9"/>
<path d="M94.0482 416.39C92.4025 414.721 91.4406 412.637 90.7944 410.362C90.6291 409.792 90.4901 409.441 89.7424 409.517C88.5776 409.635 87.3677 409.623 86.2142 409.42C84.9105 409.187 83.648 408.68 82.1075 408.219C82.7011 411.115 83.2459 413.757 83.7908 416.399C84.3431 419.104 84.918 421.801 85.4477 424.506C85.97 427.174 86.4772 429.845 86.9281 432.525C87.379 435.188 87.7547 437.864 88.1643 440.536C87.8712 440.417 87.8111 440.261 87.781 440.1C85.8911 429.693 83.648 419.379 80.9051 409.175C80.2326 406.668 78.0722 404.461 76.34 402.263C76.3212 406.309 77.6964 410.189 78.7184 413.727C81.5965 423.716 83.7119 433.891 85.8272 444.074C86.7628 448.58 87.1385 453.031 86.3683 457.588C85.9512 460.044 85.7634 462.546 85.5041 465.036C85.459 465.48 85.5605 465.949 85.598 466.406C85.7108 466.41 85.8272 466.41 85.9437 466.414C86.0263 465.936 86.1203 465.463 86.1992 464.981C86.6576 462.183 87.4692 459.553 89.2539 457.368C91.7037 454.367 95.7691 453.479 98.6434 455.339C99.1055 455.639 99.5263 456.011 100.229 456.552C100.082 455.732 100.034 455.204 99.8946 454.701C99.5113 453.314 99.0529 451.945 98.6885 450.55C97.8919 447.472 97.7792 442.514 98.3954 439.289C99.5902 433.062 100.109 428.708 101.349 422.49C101.721 420.617 102.096 418.745 102.521 416.619C99.1544 419.7 97.2043 419.595 94.0482 416.39Z" fill="#9AA0A9"/>
<path d="M141.119 203.546C144.215 204.39 147.333 205.187 150.343 206.311C151.152 206.612 151.917 207.066 152.67 207.558L154.87 209.135L158.741 213.487C158.971 213.987 159.205 214.483 159.427 214.988C160.105 216.515 161.05 217.902 161.973 219.263C162.225 219.636 162.843 219.691 163.291 219.891C163.4 219.386 163.675 218.839 163.592 218.376C162.899 214.445 162.229 210.505 161.374 206.621C160.591 203.075 159.619 199.538 157.645 196.599C154.968 192.604 151.382 190.335 147.115 190.034C146.591 190.14 146.222 190.111 145.974 190.289C145.733 190.458 145.454 190.637 145.198 190.832V190.827L145.187 190.836C144.987 190.989 144.818 191.154 144.693 191.336L142.543 193.508L142.565 193.618C142.268 193.838 142.023 194.258 141.812 194.882C141.074 197.087 140.377 199.314 139.827 201.578C139.485 202.986 139.831 203.194 141.119 203.546Z" fill="#9AA0A9"/>
<path d="M144.875 353.147C145.978 353.997 146.936 355.047 147.963 356.003C148.311 356.324 148.683 356.618 149.212 357.066C149.507 355.948 149.675 355.03 149.993 354.172C150.667 352.349 151.349 350.521 152.177 348.771C152.587 347.896 152.828 347.136 152.399 346.239C151.334 344.019 150.277 341.799 149.089 339.314C148.84 339.852 148.721 340.023 148.679 340.211C147.825 343.968 146.25 347.392 144.323 350.654C143.603 351.866 143.806 352.319 144.875 353.147Z" fill="#9AA0A9"/>
<path d="M156.023 182.579C154.479 184.616 152.98 186.686 151.48 188.719C152.991 189.903 154.49 190.969 155.865 192.195C156.703 192.939 157.315 193.956 158.104 194.771C158.394 195.072 158.991 195.374 159.277 195.248C159.577 195.114 159.889 194.412 159.818 194.039C159.111 190.225 158.36 186.418 157.541 182.625C157.353 181.759 156.654 181.742 156.023 182.579Z" fill="#9AA0A9"/>
<path d="M154.874 389.558C155.208 393.487 155.121 397.463 155.398 401.404C155.633 404.727 157.703 406.109 160.725 405.214C164.703 404.032 167.68 401.548 168.04 396.869C168.192 394.924 168.256 389.885 168.017 387.431C167.634 383.493 166.288 379.458 165.2 375.212C163.27 367.689 161.772 364.968 159.171 358.911C158.098 356.407 156.213 353.749 155.053 351.291C154.825 350.816 154.302 350.219 153.896 350.206C153.505 350.197 152.956 350.787 152.709 351.253C151.92 352.757 151.48 354.343 151.48 356.127C151.48 360.831 152.288 365.417 152.857 370.05C153.657 376.534 154.321 383.04 154.874 389.558Z" fill="#9AA0A9"/>
<path d="M142.4 416.828C143.471 417.794 144.674 417.815 145.957 417.014C148.931 415.154 150.525 412.391 151.544 409.289C152.864 405.275 153.375 401.152 153.379 397.007C153.379 393.087 153.146 389.176 153.014 385.264C152.465 377.958 151.649 370.699 149.927 363.588C149.288 360.952 148.16 358.413 146.051 356.498C145.25 355.773 144.167 355.298 143.152 354.815C142.245 354.383 141.625 354.807 141.591 355.743C141.535 357.316 141.531 358.892 141.61 360.46C141.723 362.672 141.787 366.389 141.798 368.605C141.832 376.95 140.489 379.441 138.463 386.866C136.899 392.596 136.338 398.079 136.891 403.907C137.147 406.598 137.936 409.606 139.764 413.213C140.125 413.921 141.768 416.256 142.4 416.828Z" fill="#9AA0A9"/>
<path d="M134.665 254.708C139.809 258.127 145.469 260.59 151.439 262.421C153.762 263.134 154.897 262.242 154.554 259.906C154.23 256.555 153.766 253.217 153.619 249.862C153.415 245.254 154.151 240.714 155.489 236.263C156.379 233.299 158.235 231.014 161.097 229.481C162.855 228.542 163.175 227.812 162.553 226.083C160.392 220.074 157.462 214.48 152.646 209.987C149.418 206.976 145.628 204.886 141.061 204.232C138.892 203.927 137.923 204.534 137.418 206.581C134.872 216.88 130.189 226.321 124.106 235.129C122.277 237.779 122.224 240.005 123.499 242.71C125.923 247.849 129.947 251.569 134.665 254.708Z" fill="#9AA0A9"/>
<path d="M145.049 439.289C145.678 442.514 145.564 447.472 144.752 450.55C144.386 451.945 143.921 453.314 143.532 454.701C143.391 455.204 143.338 455.732 143.193 456.552C143.902 456.011 144.333 455.639 144.801 455.339C147.718 453.479 151.843 454.367 154.328 457.368C156.135 459.553 156.963 462.183 157.428 464.981C157.504 465.463 157.599 465.936 157.687 466.414C157.805 466.41 157.92 466.41 158.038 466.406C158.072 465.949 158.179 465.48 158.133 465.036C157.87 462.546 157.679 460.044 157.256 457.588C156.475 453.031 156.856 448.58 157.805 444.074C159.952 433.891 162.094 423.716 165.018 413.727C166.055 410.189 167.45 406.309 167.427 402.263C165.674 404.461 163.482 406.668 162.799 409.175C160.016 419.379 157.74 429.693 155.819 440.1C155.792 440.261 155.731 440.417 155.43 440.536C155.846 437.864 156.227 435.188 156.684 432.525C157.146 429.845 157.66 427.174 158.19 424.506C158.724 421.801 159.307 419.104 159.871 416.399C160.424 413.757 160.973 411.115 161.579 408.219C160.016 408.68 158.735 409.187 157.409 409.42C156.238 409.623 155.015 409.635 153.833 409.517C153.07 409.441 152.929 409.792 152.765 410.362C152.11 412.637 151.13 414.721 149.464 416.39C146.262 419.595 144.283 419.7 140.867 416.619C141.298 418.745 141.675 420.617 142.057 422.49C143.315 428.708 143.837 433.062 145.049 439.289Z" fill="#9AA0A9"/>
<path d="M139.184 370.383C139.407 370.336 139.633 370.294 139.86 370.252L139.955 358.84C140 357.763 140.102 356.691 140.079 355.618C140.049 354.089 140.627 352.902 141.617 351.699C144.795 347.834 147.081 343.505 147.942 338.556C148.177 337.2 148.026 335.891 147.663 334.624L145.853 314.533L145.849 314.503C145.857 314.043 145.879 313.583 145.883 313.122C145.925 308.122 145.52 303.121 145.211 298.129C144.852 292.415 144.428 286.705 143.933 281.004C143.518 276.189 143.106 271.37 142.422 266.598C141.825 262.425 139.913 259.067 135.76 257.285C133.251 256.212 130.731 255.076 128.834 252.956C128.131 252.171 126.994 252.665 126.896 253.742C126.877 253.936 126.881 254.126 126.896 254.32L126.907 258.037C126.881 259.604 125.592 278.829 125.671 280.383C126.246 291.482 126.344 306.644 126.896 317.747C127.198 323.888 128.8 333.416 130.705 341.571C132.915 351.04 133.663 356.927 137.869 367.84C138.345 368.677 138.745 369.534 139.184 370.383Z" fill="#9AA0A9"/>
<path d="M170.831 470.907C168.267 470.22 160.978 471.013 159.308 471.16C157.42 468.242 157.272 468.107 155.667 464.21L155.644 464.223C155.069 462.806 154.51 461.376 154.042 459.921C153.228 457.399 148.564 455.636 146.247 456.589C143.827 457.584 142.956 459.811 142.416 462.249C141.7 465.458 142.047 468.672 142.378 471.864C142.697 474.956 143.062 478.043 143.435 481.126C142.758 487.49 142.366 491.653 145.079 498.05C149.34 500.323 158.006 498.472 159.722 496.401C160.795 495.102 161.647 493.483 162.743 492.222C166.418 487.992 172.597 489.434 176.203 484.871C178.208 482.341 178.41 479.646 177.592 477.288C176.511 474.18 173.654 471.666 170.831 470.907Z" fill="#9AA0A9"/>
<path d="M151.421 264.655C150.45 264.259 149.467 263.883 148.474 263.562C146.916 263.06 146.315 263.461 146.183 265.128C145.938 268.253 145.715 271.402 145.813 274.526C145.987 279.989 146.387 285.444 146.739 290.899C146.875 293.056 147.23 295.192 147.325 297.35C147.642 304.421 147.891 311.493 148.152 318.569C148.485 327.574 150.393 336.144 154.199 344.288C156.153 348.468 157.654 352.871 159.366 357.178C159.453 357.401 159.574 357.613 159.676 357.828C159.808 357.849 159.937 357.866 160.065 357.883C160.383 356.848 160.859 355.827 160.983 354.767C161.271 352.285 161.596 349.773 161.535 347.29C161.414 342.291 160.889 337.305 160.829 332.302C160.825 332.062 160.829 331.825 160.825 331.585L162.798 319.35C162.99 318.353 163.21 317.361 163.338 316.356C164.627 306.503 166.165 296.666 167.083 286.782C167.839 278.676 167.979 270.515 168.146 262.38C168.255 257.081 168.055 251.775 167.741 246.493C167.492 242.229 166.963 237.977 166.373 233.751C166.037 231.366 164.676 230.724 162.359 231.518C160.424 232.181 159.086 233.583 158.047 235.292C155.817 238.949 155.299 243.023 155.178 247.177C155.012 252.792 156.029 258.234 157.272 263.638C157.223 266.479 153.13 265.285 151.421 264.655Z" fill="#9AA0A9"/>
<path d="M237.803 252.144C234.731 250.619 231.678 249.077 229.661 245.964C228.994 244.933 228.244 243.966 227.52 242.977C225.443 240.139 223.099 237.638 219.943 236.173C219.484 235.961 218.982 235.856 218.5 235.699L213.765 235.222C213.765 235.222 213.78 235.256 213.807 235.311C213.049 235.252 212.273 235.353 211.511 235.678C209.385 236.582 207.335 237.719 205.292 238.838C204.945 239.028 204.594 239.666 204.594 240.101C204.587 243.176 204.67 246.251 204.722 249.326C204.338 252.004 205.54 254.581 206.4 257.06C207.274 259.578 208.138 261.8 209.544 263.654C209.634 263.954 209.694 264.178 209.792 264.38C210.818 266.543 211.813 268.731 212.91 270.852C213.743 272.453 214.647 274.028 215.669 275.485C215.963 275.899 216.875 276.132 217.35 275.95C218.112 275.658 217.787 274.818 217.531 274.21C216.679 272.182 215.695 270.218 214.953 268.144C214.828 267.802 214.681 267.489 214.519 267.198C214.87 266.957 215.25 266.556 215.658 265.914C216.102 266.974 216.566 268.026 217.003 269.09C218.145 271.895 219.284 274.7 220.407 277.513C221.022 279.055 221.84 280.305 223.532 280.406C224.478 280.461 224.968 279.942 224.949 278.717C224.878 278.497 224.772 278.092 224.618 277.711C223.283 274.404 221.983 271.075 220.577 267.806C219.977 266.416 219.303 265.069 218.609 263.734C218.835 263.438 219.099 263.134 219.386 262.826C219.974 264.085 220.565 265.344 221.131 266.619C222.808 270.395 224.418 274.214 226.163 277.952C226.57 278.822 227.339 279.591 228.108 280.102C228.527 280.381 229.499 280.267 229.842 279.895C230.283 279.422 230.411 278.522 230.524 277.779C230.577 277.42 230.325 276.976 230.155 276.605C227.599 270.961 225.047 265.314 222.458 259.688C222.68 259.43 222.88 259.172 223.046 258.919C225.39 263.531 227.739 268.144 230.129 272.727C230.385 273.221 231.267 273.804 231.591 273.652C232.085 273.42 232.349 272.575 232.703 272.009C232.228 270.556 231.927 269.28 231.406 268.123C230 264.993 228.5 261.914 227.038 258.817C226.269 257.187 225.5 255.561 224.708 253.943C224.685 253.82 224.648 253.685 224.595 253.546C225.055 252.515 226.046 252.186 226.046 252.186C226.491 253.001 227.309 253.829 228.123 254.129C230.125 254.855 232.213 255.328 234.286 255.814C235.922 256.203 237.287 255.641 238.278 254.167C239.002 253.094 238.908 252.688 237.803 252.144Z" fill="#9AA0A9"/>
<path d="M187.411 145.27C186.17 145.156 184.883 144.774 183.808 144.223C181.915 143.256 180.166 142.066 178.114 140.822C178.148 141.326 178.182 141.616 178.182 141.906C178.179 144.126 178.36 146.359 178.107 148.562C177.8 151.202 176.714 153.594 173.852 155.058C173.806 155.083 173.768 155.142 173.727 155.196C173.553 155.213 173.231 155.209 172.625 155.146C171.444 155.028 169.877 153.54 169.01 152.615C168.802 152.379 168.594 152.148 168.382 151.913C168.37 151.9 168.359 151.887 168.359 151.887L168.367 151.896C167.78 151.253 167.189 150.609 166.625 149.954C166.504 150.021 166.387 150.084 166.266 150.147C166.334 150.374 166.364 150.614 166.47 150.828C168.775 155.449 170.956 160.107 173.462 164.656C174.344 166.254 175.945 167.624 177.391 168.974C177.819 169.378 178.845 169.369 179.598 169.55L183.187 169.844C183.588 169.92 184.046 169.832 184.58 169.617C186.117 169.004 187.699 168.406 189.327 168.066C190.413 167.835 190.909 167.414 191 166.536C191.261 163.925 191.727 161.305 191.685 158.707C191.625 154.637 191.004 150.618 189.49 146.758C189.141 145.863 188.627 145.375 187.411 145.27Z" fill="#9AA0A9"/>
<path d="M192.501 172.935C196.262 177.254 199.647 181.853 202.461 186.872C202.619 187.152 202.89 187.37 203.106 187.617C203.226 187.546 203.342 187.471 203.462 187.399C203.315 177.861 198.778 169.99 194.044 162.199C193.881 162.203 193.723 162.207 193.564 162.211C193.371 162.643 193.085 163.058 193 163.514C192.559 165.805 192.185 168.109 191.756 170.405C191.57 171.394 191.848 172.185 192.501 172.935Z" fill="#9AA0A9"/>
<path d="M175.839 150.787C175.904 150.566 175.968 150.341 175.991 150.111C176.196 147.908 176.39 145.705 176.526 144.174C176.223 142.052 175.976 140.64 175.82 139.215C174.954 131.314 170.653 125.126 166.339 118.968C165.982 118.453 164.995 118.155 164.342 118.224C163.978 118.258 163.659 119.227 163.401 119.814C163.26 120.137 163.249 120.541 163.252 120.907C163.271 125.717 163.18 130.535 163.363 135.341C163.613 141.95 166.461 147.453 170.751 152.169C173.026 154.674 174.871 154.092 175.839 150.787Z" fill="#9AA0A9"/>
<path d="M174.663 122.073C173.387 121.78 172.119 121.457 170.438 121.046C170.748 122.019 170.87 122.61 171.119 123.16C172.545 126.243 174.177 129.259 175.395 132.41C177.165 136.978 180.77 140.141 184.666 143.115C186.88 144.801 188.888 144.13 189.558 141.58C189.711 140.992 189.849 140.359 189.761 139.772C189.397 137.284 189.171 134.746 188.466 132.334C187.604 129.36 186.344 126.482 185.195 123.583C184.88 122.791 184.39 122.107 183.168 122.409C180.299 123.126 177.467 122.715 174.663 122.073Z" fill="#9AA0A9"/>
<path d="M215.623 233.872C216.733 234.117 216.952 233.559 216.548 232.328C214.344 225.6 212.086 218.893 209.98 212.127C208.976 208.9 208.285 205.559 207.413 202.277C207.311 201.884 206.975 201.559 206.745 201.203C206.45 201.55 206.095 201.855 205.884 202.252C205.722 202.565 205.706 202.988 205.684 203.364C205.559 205.597 205.352 207.834 205.367 210.071C205.401 214.334 205.563 218.597 205.672 222.859C205.537 222.864 205.401 222.868 205.261 222.872C204.132 215.996 203.894 209.039 204.14 202.091C204.385 195.203 203.177 188.906 199.089 183.446C198.821 183.087 198.553 182.723 198.277 182.368V182.364C198.138 182.186 197.998 182.013 197.854 181.844L194.77 178.021C193.415 176.942 192.207 175.961 190.976 175.018L188.632 172.557C188.564 172.443 188.477 172.35 188.368 172.278L188.345 172.252V172.256C188.036 172.07 187.583 172.045 186.982 172.206C185.952 172.485 184.985 173.145 184.061 173.758C183.034 174.439 182.83 175.526 183.321 176.646C183.849 177.864 184.434 179.069 185.144 180.169C186.469 182.22 187.821 184.203 188.515 186.652C190.931 195.177 193.441 203.669 195.907 212.177C196.628 214.66 197.311 217.155 198.009 219.645C197.949 219.667 197.888 219.688 197.828 219.709C197.76 219.569 197.673 219.434 197.628 219.282C195.08 210.668 192.569 202.045 189.984 193.448C188.764 189.396 187.692 185.26 185.22 181.788C183.717 179.674 182.245 177.534 180.727 175.432C179.67 173.965 178.572 172.527 177.451 171.115C177.251 170.861 176.813 170.607 176.567 170.679C176.356 170.742 176.129 171.271 176.137 171.588C176.186 173.259 176.016 175.022 176.465 176.578C177.111 178.811 178.202 180.9 179.134 183.036C179.787 184.525 180.674 185.924 181.131 187.472C183.57 195.748 186.597 203.766 190.123 211.56C193.883 219.878 197.836 228.095 201.671 236.375C202.158 237.428 202.732 237.382 203.566 236.954C207.375 234.996 211.127 232.869 215.623 233.872Z" fill="#9AA0A9"/>
<path d="M149.581 98.9669C149.524 99.9105 149.833 100.51 150.565 101.062C152.35 102.418 154.193 103.744 155.76 105.385C158.812 108.577 161.558 112.143 164.675 115.25C168.619 119.182 173.356 121.141 179.314 121.039C179.925 120.958 181.134 120.797 182.347 120.648C183.098 120.555 183.415 120.1 183.331 119.267C183.075 116.785 182.938 114.273 182.545 111.812C181.702 106.558 180.15 101.598 176.789 97.6196C172.486 92.5149 167.15 89.2251 161.253 87.0106C160.429 86.7046 159.407 86.6706 158.556 86.8874C154.208 88.0137 149.875 93.9345 149.581 98.9669Z" fill="#9AA0A9"/>
<path d="M37.6953 238.838C35.6515 237.719 33.6037 236.582 31.4789 235.678C30.7148 235.357 29.9388 235.252 29.1834 235.311C29.2086 235.256 29.2233 235.222 29.2233 235.222L24.4879 235.699C24.0066 235.856 23.5045 235.961 23.0465 236.173C19.8927 237.638 17.5456 240.139 15.4709 242.977C14.7465 243.966 13.9956 244.933 13.3273 245.964C11.31 249.077 8.25946 250.619 5.18633 252.144C4.08229 252.688 3.98654 253.094 4.71063 254.167C5.70159 255.641 7.06798 256.203 8.70236 255.814C10.774 255.328 12.8648 254.855 14.8645 254.129C15.6817 253.829 16.4988 253.001 16.9451 252.186C16.9451 252.186 17.9331 252.515 18.3922 253.546C18.3424 253.685 18.304 253.82 18.2791 253.943C17.4883 255.561 16.7227 257.187 15.9527 258.817C14.4875 261.914 12.99 264.993 11.584 268.123C11.0642 269.28 10.7623 270.556 10.2866 272.009C10.6402 272.575 10.9037 273.42 11.3986 273.652C11.7239 273.804 12.6044 273.221 12.8618 272.727C15.2516 268.144 17.6002 263.531 19.9429 258.919C20.1106 259.172 20.3107 259.43 20.5301 259.688C17.9417 265.314 15.3903 270.961 12.8339 276.605C12.6647 276.976 12.4114 277.42 12.466 277.779C12.5791 278.522 12.7073 279.422 13.146 279.895C13.4894 280.267 14.4638 280.381 14.8822 280.102C15.6477 279.591 16.4178 278.822 16.8241 277.952C18.5735 274.214 20.1811 270.395 21.8584 266.619C22.4238 265.344 23.0141 264.085 23.6033 262.826C23.8916 263.134 24.1551 263.438 24.3805 263.734C23.6854 265.069 23.0096 266.416 22.4133 267.806C21.0073 271.075 19.7073 274.404 18.3703 277.711C18.2173 278.092 18.111 278.497 18.0405 278.717C18.0198 279.942 18.5116 280.461 19.4581 280.406C21.1487 280.305 21.9674 279.055 22.5829 277.513C23.7062 274.7 24.843 271.895 25.987 269.09C26.4212 268.026 26.8878 266.974 27.3296 265.914C27.739 266.556 28.1204 266.957 28.4695 267.198C28.3089 267.489 28.16 267.802 28.0364 268.144C27.2931 270.218 26.3093 272.182 25.4582 274.21C25.2037 274.818 24.8781 275.658 25.6395 275.95C26.1121 276.132 27.0266 275.899 27.3179 275.485C28.3428 274.028 29.2452 272.453 30.0771 270.852C31.177 268.731 32.1694 266.543 33.1973 264.38C33.2931 264.178 33.3564 263.954 33.4446 263.654C34.8494 261.8 35.7149 259.578 36.5897 257.06C37.4495 254.581 38.6523 252.004 38.2652 249.326C38.3199 246.251 38.402 243.176 38.3949 240.101C38.3934 239.666 38.0413 239.028 37.6953 238.838Z" fill="#9AA0A9"/>
<path d="M40.8749 186.872C43.5983 181.853 46.8734 177.254 50.5143 172.935C51.1467 172.185 51.4141 171.394 51.2346 170.405C50.8194 168.109 50.457 165.805 50.0307 163.514C49.9458 163.058 49.6713 162.643 49.4843 162.211C49.3309 162.207 49.1761 162.203 49.0213 162.199C44.4383 169.99 40.048 177.861 39.9062 187.399C40.0203 187.471 40.1359 187.546 40.2496 187.617C40.4616 187.37 40.723 187.152 40.8749 186.872Z" fill="#9AA0A9"/>
<path d="M66.8572 171.588C66.8662 171.271 66.639 170.742 66.4283 170.679C66.1803 170.607 65.7424 170.861 65.5434 171.115C64.4226 172.527 63.3256 173.965 62.2652 175.432C60.7479 177.534 59.2761 179.674 57.7736 181.788C55.3035 185.26 54.2299 189.396 53.012 193.448C50.4238 202.045 47.9127 210.668 45.366 219.282C45.3218 219.434 45.2346 219.569 45.1667 219.709L44.9839 219.645C45.6842 217.155 46.3686 214.66 47.0867 212.177C49.5526 203.669 52.0607 195.177 54.479 186.652C55.1752 184.203 56.5259 182.22 57.8487 180.169C58.5595 179.069 59.1451 177.864 59.6743 176.646C60.1639 175.526 59.959 174.439 58.934 173.758C58.0095 173.145 57.0435 172.485 56.0113 172.206C55.4096 172.045 54.9585 172.07 54.65 172.256L54.6489 172.252L54.6267 172.278C54.5176 172.35 54.4304 172.443 54.3613 172.557L52.0196 175.018C50.7881 175.961 49.5805 176.942 48.2222 178.021L45.1417 181.839C44.711 182.355 44.3086 182.905 43.9062 183.446C39.817 188.906 38.6105 195.203 38.854 202.091C39.1001 209.039 38.8596 215.996 37.7316 222.872C37.5946 222.868 37.4575 222.864 37.3186 222.859C37.4292 218.597 37.5946 214.334 37.6255 210.071C37.6433 207.834 37.4323 205.597 37.3099 203.364C37.2892 202.988 37.273 202.565 37.108 202.252C36.9 201.855 36.5417 201.55 36.248 201.203C36.0196 201.559 35.6833 201.884 35.5802 202.277C34.7085 205.559 34.0169 208.9 33.0128 212.127C30.9085 218.893 28.6491 225.6 26.4464 232.328C26.0421 233.559 26.2603 234.117 27.3709 233.872C31.8655 232.869 35.6183 234.996 39.4259 236.954C40.262 237.382 40.8359 237.428 41.324 236.375C45.1595 228.095 49.1101 219.878 52.872 211.56C56.396 203.766 59.4236 195.748 61.8612 187.472C62.3184 185.924 63.2089 184.525 63.8579 183.036C64.7914 180.9 65.884 178.811 66.5284 176.578C66.9769 175.022 66.81 173.259 66.8572 171.588Z" fill="#9AA0A9"/>
<path d="M61.0159 120.648C62.2122 120.797 63.4085 120.958 64.0123 121.039C69.9036 121.141 74.5888 119.182 78.4884 115.25C81.5659 112.143 84.2813 108.577 87.3022 105.385C88.8484 103.744 90.6738 102.418 92.4388 101.062C93.1629 100.51 93.4646 99.9105 93.4118 98.9669C93.1214 93.9345 88.8371 88.0137 84.5378 86.8874C83.6967 86.6706 82.686 86.7046 81.8713 87.0106C76.0408 89.2251 70.7627 92.5149 66.5078 97.6196C63.1875 101.598 61.6521 106.558 60.8198 111.812C60.431 114.273 60.2941 116.785 60.0406 119.267C59.9565 120.1 60.2703 120.555 61.0159 120.648Z" fill="#9AA0A9"/>
<path d="M79.7501 120.907C79.7501 120.541 79.7427 120.137 79.6063 119.814C79.3555 119.227 79.0458 118.258 78.6881 118.224C78.0575 118.155 77.0987 118.453 76.7521 118.968C72.5594 125.126 68.384 131.314 67.5428 139.215C67.3913 140.64 67.1538 142.052 66.8555 144.174C66.9897 145.705 67.1781 147.908 67.3769 150.111C67.3986 150.341 67.4621 150.566 67.524 150.787C68.4647 154.092 70.2565 154.674 72.4672 152.169C76.6341 147.453 79.3998 141.95 79.6431 135.341C79.8201 130.535 79.7316 125.717 79.7501 120.907Z" fill="#9AA0A9"/>
<path d="M53.6672 168.066C55.2953 168.406 56.8741 169.004 58.4136 169.617C58.9443 169.832 59.4057 169.92 59.8066 169.844L63.392 169.55C64.1446 169.369 65.1723 169.378 65.6011 168.974C67.0486 167.624 68.6502 166.254 69.5284 164.656C72.0361 160.107 74.2172 155.449 76.5187 150.828C76.6285 150.614 76.6587 150.374 76.7269 150.147C76.6057 150.084 76.4846 150.021 76.3673 149.954C75.8033 150.609 75.2128 151.253 74.626 151.896L74.6298 151.887C74.6298 151.887 74.6185 151.9 74.6071 151.913C74.3989 152.148 74.1907 152.379 73.9825 152.615C73.1119 153.54 71.5452 155.028 70.3683 155.146C69.7604 155.209 69.4383 155.213 69.2638 155.196C69.2237 155.142 69.1839 155.083 69.1381 155.058C66.2768 153.594 65.1901 151.202 64.8857 148.562C64.6313 146.359 64.813 144.126 64.8085 141.906C64.807 141.616 64.8441 141.326 64.8782 140.822C62.8258 142.066 61.0781 143.256 59.1839 144.223C58.1089 144.774 56.8211 145.156 55.5818 145.27C54.3664 145.375 53.8535 145.863 53.5014 146.758C51.9888 150.618 51.3692 154.637 51.3071 158.707C51.2673 161.305 51.7303 163.925 51.9934 166.536C52.082 167.414 52.579 167.835 53.6672 168.066Z" fill="#9AA0A9"/>
<path d="M58.5972 143.115C62.4181 140.141 65.9529 136.978 67.6872 132.41C68.8828 129.259 70.4838 126.243 71.8792 123.16C72.1253 122.61 72.2455 122.019 72.546 121.046C70.8992 121.457 69.6577 121.78 68.4061 122.073C65.6535 122.715 62.8786 123.126 60.0674 122.409C58.8699 122.107 58.3857 122.791 58.0792 123.583C56.9538 126.482 55.7168 129.36 54.8701 132.334C54.1819 134.746 53.9588 137.284 53.6008 139.772C53.5156 140.359 53.6493 140.992 53.8018 141.58C54.4607 144.13 56.4252 144.801 58.5972 143.115Z" fill="#9AA0A9"/>
</svg>
