<svg width="17" height="16" viewBox="0 0 17 16" fill="none" xmlns="http://www.w3.org/2000/svg">
<g clip-path="url(#clip0_7658_48432)">
<path d="M12.4039 9.73833C12.1055 9.42771 11.7457 9.26164 11.3644 9.26164C10.9861 9.26164 10.6232 9.42464 10.3126 9.73525L9.34076 10.704C9.2608 10.6609 9.18084 10.621 9.10396 10.581C8.99324 10.5256 8.88868 10.4733 8.79949 10.418C7.88917 9.83981 7.06189 9.08634 6.26844 8.11144C5.88401 7.62553 5.62568 7.2165 5.43808 6.80132C5.69026 6.57066 5.92399 6.33078 6.15157 6.10013C6.23768 6.01402 6.3238 5.92483 6.40991 5.83872C7.05574 5.19289 7.05574 4.35638 6.40991 3.71054L5.57032 2.87096C5.47499 2.77562 5.37657 2.67721 5.28431 2.5788C5.09979 2.38812 4.90604 2.1913 4.70614 2.00677C4.40782 1.71153 4.05108 1.55469 3.67588 1.55469C3.30068 1.55469 2.93778 1.71153 2.63024 2.00677C2.62717 2.00985 2.62717 2.00985 2.62409 2.01292L1.57845 3.06778C1.1848 3.46144 0.960299 3.9412 0.911092 4.49785C0.837283 5.39586 1.10177 6.23237 1.30474 6.77979C1.80296 8.12374 2.5472 9.36928 3.65742 10.704C5.00445 12.3124 6.62518 13.5826 8.47657 14.4775C9.18392 14.8127 10.1281 15.2095 11.1829 15.2771C11.2475 15.2802 11.3152 15.2833 11.3767 15.2833C12.0871 15.2833 12.6837 15.028 13.1512 14.5206C13.1543 14.5144 13.1604 14.5113 13.1635 14.5052C13.3234 14.3114 13.5079 14.1361 13.7017 13.9485C13.8339 13.8225 13.9692 13.6902 14.1015 13.5518C14.4059 13.2351 14.5659 12.866 14.5659 12.4877C14.5659 12.1064 14.4029 11.7404 14.0923 11.4329L12.4039 9.73833ZM13.5049 12.9767C13.5018 12.9767 13.5018 12.9798 13.5049 12.9767C13.3849 13.1059 13.2619 13.2228 13.1297 13.3519C12.9298 13.5426 12.7268 13.7425 12.5361 13.967C12.2255 14.2991 11.8595 14.456 11.3798 14.456C11.3336 14.456 11.2844 14.456 11.2383 14.4529C10.3249 14.3945 9.47608 14.0377 8.83947 13.7333C7.0988 12.8906 5.57032 11.6943 4.30018 10.1781C3.25147 8.91412 2.55028 7.74547 2.08589 6.4907C1.79988 5.72493 1.69532 5.1283 1.74145 4.5655C1.7722 4.20568 1.9106 3.90737 2.16586 3.65211L3.21457 2.6034C3.36526 2.46193 3.52518 2.38505 3.68203 2.38505C3.87578 2.38505 4.03262 2.50191 4.13104 2.60032C4.13411 2.6034 4.13719 2.60647 4.14026 2.60955C4.32786 2.78485 4.50623 2.9663 4.69383 3.16005C4.78917 3.25846 4.88758 3.35687 4.986 3.45836L5.82558 4.29794C6.15157 4.62394 6.15157 4.92533 5.82558 5.25132C5.73639 5.3405 5.65028 5.42969 5.5611 5.5158C5.30276 5.78029 5.05673 6.02632 4.78917 6.2662C4.78302 6.27235 4.77687 6.27543 4.77379 6.28158C4.50931 6.54606 4.55852 6.80439 4.61387 6.97969C4.61695 6.98892 4.62002 6.99814 4.6231 7.00737C4.84145 7.53634 5.14899 8.03455 5.61645 8.62811L5.61953 8.63118C6.46834 9.67682 7.36328 10.4918 8.35048 11.1161C8.47658 11.1961 8.60574 11.2606 8.72876 11.3222C8.83947 11.3775 8.94404 11.4298 9.03322 11.4852C9.04552 11.4913 9.05783 11.5005 9.07013 11.5067C9.17469 11.559 9.2731 11.5836 9.37459 11.5836C9.62985 11.5836 9.78977 11.4236 9.84205 11.3714L10.8938 10.3196C10.9984 10.215 11.1645 10.0889 11.3582 10.0889C11.5489 10.0889 11.7057 10.2089 11.8011 10.3134C11.8042 10.3165 11.8042 10.3165 11.8072 10.3196L13.5018 12.0141C13.8185 12.3278 13.8185 12.6507 13.5049 12.9767Z" fill="#9AA2AC"/>
<path d="M13.5049 12.9767C13.5018 12.9767 13.5018 12.9798 13.5049 12.9767ZM13.5049 12.9767C13.3849 13.1059 13.2619 13.2228 13.1297 13.3519C12.9298 13.5426 12.7268 13.7425 12.5361 13.967C12.2255 14.2991 11.8595 14.456 11.3798 14.456C11.3336 14.456 11.2844 14.456 11.2383 14.4529C10.3249 14.3945 9.47608 14.0377 8.83947 13.7333C7.0988 12.8906 5.57032 11.6943 4.30018 10.1781C3.25147 8.91412 2.55028 7.74547 2.08589 6.4907C1.79988 5.72493 1.69532 5.1283 1.74145 4.5655C1.7722 4.20568 1.9106 3.90737 2.16586 3.65211L3.21457 2.6034C3.36526 2.46193 3.52518 2.38505 3.68203 2.38505C3.87578 2.38505 4.03262 2.50191 4.13104 2.60032C4.13411 2.6034 4.13719 2.60647 4.14026 2.60955C4.32786 2.78485 4.50623 2.9663 4.69383 3.16005C4.78917 3.25846 4.88758 3.35687 4.986 3.45836L5.82558 4.29794C6.15157 4.62394 6.15157 4.92533 5.82558 5.25132C5.73639 5.3405 5.65028 5.42969 5.5611 5.5158C5.30276 5.78029 5.05673 6.02632 4.78917 6.2662C4.78302 6.27235 4.77687 6.27543 4.77379 6.28158C4.50931 6.54606 4.55852 6.80439 4.61387 6.97969C4.61695 6.98892 4.62002 6.99814 4.6231 7.00737C4.84145 7.53634 5.14899 8.03455 5.61645 8.62811L5.61953 8.63118C6.46834 9.67682 7.36328 10.4918 8.35048 11.1161C8.47658 11.1961 8.60574 11.2606 8.72876 11.3222C8.83947 11.3775 8.94404 11.4298 9.03322 11.4852C9.04552 11.4913 9.05783 11.5005 9.07013 11.5067C9.17469 11.559 9.2731 11.5836 9.37459 11.5836C9.62985 11.5836 9.78977 11.4236 9.84205 11.3714L10.8938 10.3196C10.9984 10.215 11.1645 10.0889 11.3582 10.0889C11.5489 10.0889 11.7057 10.2089 11.8011 10.3134C11.8042 10.3165 11.8042 10.3165 11.8072 10.3196L13.5018 12.0141C13.8185 12.3278 13.8185 12.6507 13.5049 12.9767ZM12.4039 9.73833C12.1055 9.42771 11.7457 9.26164 11.3644 9.26164C10.9861 9.26164 10.6232 9.42464 10.3126 9.73525L9.34076 10.704C9.2608 10.6609 9.18084 10.621 9.10396 10.581C8.99324 10.5256 8.88868 10.4733 8.79949 10.418C7.88917 9.83981 7.06189 9.08634 6.26844 8.11144C5.88401 7.62553 5.62568 7.2165 5.43808 6.80132C5.69026 6.57066 5.92399 6.33078 6.15157 6.10013C6.23768 6.01402 6.3238 5.92483 6.40991 5.83872C7.05574 5.19289 7.05574 4.35638 6.40991 3.71054L5.57032 2.87096C5.47499 2.77562 5.37657 2.67721 5.28431 2.5788C5.09979 2.38812 4.90604 2.1913 4.70614 2.00677C4.40782 1.71153 4.05108 1.55469 3.67588 1.55469C3.30068 1.55469 2.93778 1.71153 2.63024 2.00677C2.62717 2.00985 2.62717 2.00985 2.62409 2.01292L1.57845 3.06778C1.1848 3.46144 0.960299 3.9412 0.911092 4.49785C0.837283 5.39586 1.10177 6.23237 1.30474 6.77979C1.80296 8.12374 2.5472 9.36928 3.65742 10.704C5.00445 12.3124 6.62518 13.5826 8.47657 14.4775C9.18392 14.8127 10.1281 15.2095 11.1829 15.2771C11.2475 15.2802 11.3152 15.2833 11.3767 15.2833C12.0871 15.2833 12.6837 15.028 13.1512 14.5206C13.1543 14.5144 13.1604 14.5113 13.1635 14.5052C13.3234 14.3114 13.5079 14.1361 13.7017 13.9485C13.8339 13.8225 13.9692 13.6902 14.1015 13.5518C14.4059 13.2351 14.5659 12.866 14.5659 12.4877C14.5659 12.1064 14.4029 11.7404 14.0923 11.4329L12.4039 9.73833Z" stroke="#9AA2AC" stroke-width="0.452381"/>
<path d="M8.76362 4.17518C9.56937 4.31049 10.3013 4.69184 10.8856 5.27617C11.47 5.8605 11.8482 6.59244 11.9866 7.3982C12.0205 7.60117 12.1958 7.74264 12.3957 7.74264C12.4203 7.74264 12.4418 7.73957 12.4664 7.73649C12.694 7.69959 12.8447 7.48431 12.8078 7.25673C12.6417 6.28183 12.1804 5.39304 11.4761 4.68877C10.7719 3.9845 9.88307 3.52319 8.90816 3.35712C8.68058 3.32022 8.46838 3.47091 8.4284 3.69541C8.38842 3.91992 8.53604 4.13827 8.76362 4.17518Z" fill="#9AA2AC" stroke="#9AA2AC" stroke-width="0.452381"/>
<path d="M15.4427 7.1387C15.169 5.53334 14.4125 4.07253 13.25 2.91003C12.0875 1.74753 10.6267 0.990978 9.0213 0.717267C8.7968 0.677287 8.5846 0.831057 8.54462 1.05556C8.50771 1.28314 8.65841 1.49534 8.88599 1.53532C10.3191 1.77828 11.6262 2.45794 12.6657 3.49435C13.7051 4.53384 14.3817 5.84088 14.6247 7.27402C14.6585 7.47699 14.8338 7.61846 15.0337 7.61846C15.0583 7.61846 15.0798 7.61539 15.1044 7.61231C15.329 7.57848 15.4827 7.3632 15.4427 7.1387Z" fill="#9AA2AC" stroke="#9AA2AC" stroke-width="0.452381"/>
</g>
<defs>
<clipPath id="clip0_7658_48432">
<rect width="17" height="15.381" fill="white" transform="translate(0 0.3125)"/>
</clipPath>
</defs>
</svg>
