<svg width="60" height="60" viewBox="0 0 60 60" fill="none" xmlns="http://www.w3.org/2000/svg">
<rect x="60" width="60" height="60" rx="30" transform="rotate(90 60 0)" fill="#5DA0EF"/>
<g clip-path="url(#clip0_4310_3525)">
<path d="M35.9739 38.966H34.0641V36.3516C31.4525 37.2126 28.6455 37.2074 26.0953 36.4027V38.966H24.0208C23.1384 38.966 22.6916 40.0333 23.3116 40.662L29.2742 46.705C29.6632 47.0995 30.2999 47.0997 30.6906 46.7063L36.6812 40.6633C37.3035 40.0366 36.8579 38.966 35.9739 38.966Z" fill="white"/>
<path d="M20.4973 15.1484C16.2486 15.857 13 19.5591 13 24.005C13 28.4516 16.2486 32.1524 20.4966 32.861C15.8371 27.8643 15.84 20.1427 20.4973 15.1484Z" fill="white"/>
<path d="M39.5 15.1484C44.1511 20.136 44.1668 27.8573 39.5007 32.861C43.7487 32.1524 46.9973 28.4516 46.9973 24.005C46.9973 19.5591 43.7487 15.857 39.5 15.1484Z" fill="white"/>
<path d="M29.9965 13C23.9287 13 18.9922 17.9365 18.9922 24.0043C18.9922 30.0721 23.9287 35.0086 29.9965 35.0086C36.0643 35.0086 41.0008 30.0721 41.0008 24.0043C41.0008 17.9365 36.0643 13 29.9965 13ZM29.1957 22.509L31.6723 23.72C32.4927 24.1211 33.0229 24.9705 33.0229 25.8838C33.0229 27.0699 32.1609 28.0578 31.0307 28.2557V28.9931C31.0307 29.5432 30.5847 29.9892 30.0346 29.9892C29.4845 29.9892 29.0385 29.5432 29.0385 28.9931V28.2925H27.9727C27.4226 28.2925 26.9766 27.8465 26.9766 27.2964C26.9766 26.7463 27.4226 26.3003 27.9727 26.3003H30.6142C31.054 26.3003 31.1921 25.7027 30.7972 25.5096L28.3207 24.2987C26.2532 23.2878 26.631 20.1048 28.9622 19.6965V19.0256C28.9622 18.4755 29.4082 18.0295 29.9583 18.0295C30.5084 18.0295 30.9544 18.4755 30.9544 19.0256V19.6598H32.0269C32.577 19.6598 33.023 20.1057 33.023 20.6558C33.023 21.206 32.577 21.6519 32.0269 21.6519H29.3787C28.9135 21.6519 28.8129 22.3218 29.1957 22.509Z" fill="white"/>
</g>
<defs>
<clipPath id="clip0_4310_3525">
<rect width="34" height="34" fill="white" transform="translate(13 13)"/>
</clipPath>
</defs>
</svg>
