<svg width="41" height="41" viewBox="0 0 41 41" fill="none" xmlns="http://www.w3.org/2000/svg">
<rect width="41" height="41" rx="20.5" fill="#5DA0EF"/>
<g clip-path="url(#clip0_4312_3157)">
<path d="M20.5002 10.0078C17.2656 10.0078 14.3345 11.5247 12.4159 13.8245L11.6288 13.0497C11.4689 12.8775 11.2229 12.816 11.0015 12.9021C10.7802 12.9636 10.6203 13.1603 10.5956 13.394L10.0053 17.4526C9.93868 17.9522 10.515 18.237 10.7064 18.1413C10.8314 18.1235 15.0264 17.5261 14.7649 17.5633C14.9986 17.5387 15.1831 17.3788 15.2569 17.1574C15.3307 16.936 15.2815 16.6901 15.1093 16.5179L14.1746 15.5832C15.6382 13.7138 17.9544 12.5085 20.5003 12.5085C24.8909 12.5085 28.5231 16.0874 28.5354 20.4781C28.5354 20.4903 28.5354 20.4903 28.5354 20.5027C28.5354 20.659 28.5302 20.8155 28.5205 20.9706C28.4963 21.3595 28.8362 21.6741 29.224 21.6174L30.4635 21.436C30.7573 21.393 30.9789 21.1461 30.9891 20.8494C30.9931 20.7329 30.9951 20.6168 30.9951 20.5026C30.995 14.7449 26.2838 10.0078 20.5002 10.0078Z" fill="white"/>
<path d="M30.2889 22.7419C30.1638 22.7596 25.9689 23.3571 26.2304 23.3199C25.9967 23.3445 25.8122 23.5044 25.7384 23.7258C25.6646 23.9471 25.7138 24.1931 25.8859 24.3653L26.8699 25.3492C25.4186 27.2555 23.0777 28.4977 20.495 28.4977C16.0921 28.4977 12.4599 24.9064 12.4599 20.5035C12.464 20.4235 12.45 20.2512 12.4769 19.9238C12.5094 19.5294 12.1661 19.2093 11.7783 19.2639L10.5389 19.4383C10.2462 19.4796 10.0236 19.7235 10.0103 20.019C9.99486 20.3615 10.0018 20.6374 10.0002 20.7617C10.1355 26.4069 14.8131 30.9984 20.4951 30.9984C23.7665 30.9984 26.7223 29.4569 28.6409 27.1079L29.3665 27.8335C29.528 28.0129 29.7965 28.06 29.9937 27.9811C30.2151 27.9196 30.375 27.7228 30.3996 27.4891L30.9899 23.4306C31.0408 23.0499 30.6893 22.6751 30.2889 22.7419Z" fill="white"/>
</g>
<defs>
<clipPath id="clip0_4312_3157">
<rect width="21" height="21" fill="white" transform="translate(10 10)"/>
</clipPath>
</defs>
</svg>
