<svg width="41" height="41" viewBox="0 0 41 41" fill="none" xmlns="http://www.w3.org/2000/svg">
<rect width="41" height="41" rx="20" fill="#5DA0EF"/>
<g clip-path="url(#clip0_4312_3150)">
<path d="M32.04 28.92L26.52 24C27.6 22.56 28.2 20.64 28.2 18.6C28.2 13.32 23.88 9 18.6 9C13.32 9 9 13.32 9 18.6C9 23.88 13.32 28.2 18.6 28.2C20.64 28.2 22.44 27.6 24 26.52L28.92 32.04C29.64 33.12 31.32 33.36 32.28 32.4C33.24 31.44 33.12 29.76 32.04 28.92ZM18.6 25.8C14.64 25.8 11.4 22.56 11.4 18.6C11.4 14.64 14.64 11.4 18.6 11.4C22.56 11.4 25.8 14.64 25.8 18.6C25.8 22.56 22.56 25.8 18.6 25.8Z" fill="white"/>
<path d="M17.4062 17.3984H19.8062V23.3984H17.4062V17.3984Z" fill="white"/>
<path d="M18.6062 16.1969C19.269 16.1969 19.8062 15.6596 19.8062 14.9969C19.8062 14.3341 19.269 13.7969 18.6062 13.7969C17.9435 13.7969 17.4062 14.3341 17.4062 14.9969C17.4062 15.6596 17.9435 16.1969 18.6062 16.1969Z" fill="white"/>
</g>
<defs>
<clipPath id="clip0_4312_3150">
<rect width="24" height="24" fill="white" transform="translate(9 9)"/>
</clipPath>
</defs>
</svg>
