<svg width="36" height="36" viewBox="0 0 36 36" fill="none" xmlns="http://www.w3.org/2000/svg">
<path d="M19.8632 11.981C19.6383 11.7459 19.2733 11.7459 19.0479 11.981C18.8228 12.2159 18.8228 12.5971 19.0479 12.8322L23.4144 17.391H11.8128C11.4934 17.391 11.2344 17.6615 11.2344 17.9949C11.2344 18.3285 11.4934 18.5987 11.8128 18.5987H23.4086L19.0421 23.1576C18.9338 23.2703 18.8729 23.4236 18.8729 23.5833C18.8729 23.7431 18.9338 23.8961 19.0421 24.009C19.1505 24.123 19.2988 24.1862 19.4528 24.1841C19.6062 24.1833 19.7535 24.1205 19.8632 24.009L25.2129 18.4238C25.3218 18.31 25.3825 18.1555 25.3809 17.9949C25.3798 17.8347 25.3196 17.6815 25.2129 17.5664L19.8632 11.981Z" fill="#131316"/>
<path fill-rule="evenodd" clip-rule="evenodd" d="M1.97886 11.2215C4.7161 4.61229 11.1651 0.3034 18.318 0.304688L18.318 0.304739C23.0103 0.293401 27.5122 2.15954 30.8209 5.48731C37.7259 12.3933 37.7259 23.5896 30.8209 30.495C23.9159 37.401 12.7207 37.401 5.81537 30.495C0.755933 25.4382 -0.75785 17.8309 1.97886 11.2215ZM2.27734 17.9923C2.27734 26.8355 9.47452 34.0337 18.3169 34.0337C27.1592 34.0337 34.3566 26.8355 34.3566 17.9923C34.3566 9.14907 27.1592 1.95117 18.3169 1.95117C9.47452 1.95117 2.27734 9.14907 2.27734 17.9923Z" fill="#131316"/>
</svg>
