<svg width="60" height="60" viewBox="0 0 60 60" fill="none" xmlns="http://www.w3.org/2000/svg">
<rect x="60" width="60" height="60" rx="30" transform="rotate(90 60 0)" fill="#5DA0EF"/>
<path d="M33.2652 21.2266C28.4278 21.2266 24.4922 25.1621 24.4922 29.9995C24.4922 34.837 28.4278 38.7725 33.2652 38.7725C38.1027 38.7725 42.0382 34.837 42.0382 29.9995C42.0382 25.1621 38.1027 21.2266 33.2652 21.2266ZM37.4021 31.0244H32.2404V23.8305H34.2901V28.9747H37.4021V31.0244Z" fill="white"/>
<path d="M33.3039 15.7735C30.183 15.7651 27.2957 16.7625 24.9466 18.4588H17.1897C15.9667 18.4588 14.9754 19.4502 14.9754 20.673C14.9754 21.896 15.9668 22.8873 17.1897 22.8873H20.9424C20.2274 24.1237 19.6937 25.4778 19.3762 26.9132H14.7221C13.4992 26.9133 12.5078 27.9046 12.5078 29.1275C12.5078 30.3505 13.4992 31.3418 14.7221 31.3418H19.1033C19.2356 32.754 19.5743 34.106 20.0891 35.3677H18.5075C17.2846 35.3677 16.2932 36.3591 16.2932 37.582C16.2932 38.8049 17.2846 39.7962 18.5075 39.7962H22.9523C25.5439 42.5232 29.2057 44.2234 33.2648 44.2234C41.1211 44.2235 47.4898 37.8548 47.4898 29.9985C47.4898 22.139 41.1634 15.7947 33.3039 15.7735ZM33.2648 40.8212C27.2971 40.8212 22.4421 35.9661 22.4421 29.9985C22.4421 24.0308 27.2971 19.1758 33.2648 19.1758C39.2324 19.1758 44.0875 24.0308 44.0875 29.9985C44.0875 35.9661 39.2324 40.8212 33.2648 40.8212Z" fill="white"/>
</svg>
