<svg width="1360" height="78" viewBox="0 0 1360 78" fill="none" xmlns="http://www.w3.org/2000/svg">
<g clip-path="url(#clip0_4302_3056)">
<path fill-rule="evenodd" clip-rule="evenodd" d="M32.8335 16.1096C252.884 53.004 715.144 130.508 1313.31 22.4263C1329.56 19.4896 1345.12 17.4279 1360 16.1957V78H6.48698e-06V10.6353C10.258 12.3245 21.2077 14.1603 32.8335 16.1096ZM6.48698e-06 10.6353V0H1360V16.1957C1713.01 -13.0307 1688.32 424.363 1644.23 720.24L1466.76 915.296C1374.86 1074.75 409.831 1209.83 -190.802 897.741C-791.436 585.651 -332.588 213.418 -129.257 57.5361L-76.9829 0C-58.8238 1.28816 -32.989 5.20308 6.48698e-06 10.6353Z" fill="#EA2828"/>
</g>
<defs>
<clipPath id="clip0_4302_3056">
<rect width="1360" height="78" fill="white"/>
</clipPath>
</defs>
</svg>
