<svg width="60" height="60" viewBox="0 0 60 60" fill="none" xmlns="http://www.w3.org/2000/svg">
<rect x="60" width="60" height="60" rx="30" transform="rotate(90 60 0)" fill="#5DA0EF"/>
<path d="M29.3333 30.3268C33.3834 30.3268 36.6667 27.0436 36.6667 22.9935C36.6667 18.9434 33.3834 15.6602 29.3333 15.6602C25.2832 15.6602 22 18.9434 22 22.9935C22 27.0436 25.2832 30.3268 29.3333 30.3268Z" fill="white"/>
<path fill-rule="evenodd" clip-rule="evenodd" d="M31.2307 43.0099C29.8454 41.5219 28.9974 39.5272 28.9974 37.3352C28.9974 35.0912 29.8867 33.0526 31.3321 31.5539C30.6787 31.5032 30.0107 31.4766 29.3307 31.4766C24.9014 31.4766 20.9801 32.5846 18.5454 34.2446C16.6881 35.5112 15.6641 37.1206 15.6641 38.8099V40.7432C15.6641 41.3446 15.9027 41.9219 16.3281 42.3459C16.7534 42.7712 17.3294 43.0099 17.9307 43.0099H31.2307Z" fill="white"/>
<path fill-rule="evenodd" clip-rule="evenodd" d="M37.3281 30.3359C33.4641 30.3359 30.3281 33.4719 30.3281 37.3359C30.3281 41.1999 33.4641 44.3359 37.3281 44.3359C41.1921 44.3359 44.3281 41.1999 44.3281 37.3359C44.3281 33.4719 41.1921 30.3359 37.3281 30.3359ZM34.1068 38.5013L36.1068 39.8346C36.5028 40.0986 37.0321 40.0466 37.3681 39.7093L40.7015 36.3759C41.0921 35.9866 41.0921 35.3519 40.7015 34.9626C40.3121 34.5719 39.6775 34.5719 39.2881 34.9626L36.5335 37.7159L35.2161 36.8373C34.7575 36.5306 34.1361 36.6559 33.8295 37.1146C33.5228 37.5733 33.6481 38.1946 34.1068 38.5013Z" fill="white"/>
</svg>
