<svg width="41" height="41" viewBox="0 0 41 41" fill="none" xmlns="http://www.w3.org/2000/svg">
<rect width="41" height="41" rx="20.5" fill="#5DA0EF"/>
<g clip-path="url(#clip0_4312_3133)">
<path d="M27.0898 32.4766H26.7596C26.4067 30.7382 24.8699 29.4297 23.0273 29.4297H18.9648C17.1223 29.4297 15.5855 30.7382 15.2326 32.4766H14.9023C14.4817 32.4766 14.1406 32.8176 14.1406 33.2383C14.1406 33.659 14.4817 34 14.9023 34H27.0898C27.5105 34 27.8516 33.659 27.8516 33.2383C27.8516 32.8176 27.5105 32.4766 27.0898 32.4766Z" fill="white"/>
<path d="M19.4766 17.6055V27.9069H22.5234V17.6055C22.0526 17.7967 21.5386 17.9029 21 17.9029C20.4614 17.9029 19.9474 17.7967 19.4766 17.6055Z" fill="white"/>
<path d="M22.5234 10.0748V9.52344C22.5234 8.68204 21.8414 8 21 8C20.1586 8 19.4766 8.68204 19.4766 9.52344V10.0748C19.9474 9.88363 20.4614 9.77734 21 9.77734C21.5386 9.77734 22.0526 9.88363 22.5234 10.0748Z" fill="white"/>
<path d="M21 16.3789C22.4023 16.3789 23.5391 15.2421 23.5391 13.8398C23.5391 12.4376 22.4023 11.3008 21 11.3008C19.5977 11.3008 18.4609 12.4376 18.4609 13.8398C18.4609 15.2421 19.5977 16.3789 21 16.3789Z" fill="white"/>
<path d="M16.6328 21.9648C16.6328 21.8598 16.6111 21.7558 16.5689 21.6595L13.4811 14.6016H17.0101C16.9631 14.3547 16.9374 14.1002 16.9374 13.8398C16.9374 13.5794 16.963 13.325 17.0101 13.0781H9.77734C9.35667 13.0781 9.01562 13.4192 9.01562 13.8398C9.01562 14.2605 9.35667 14.6016 9.77734 14.6016H11.1517L8.06388 21.6595C8.02173 21.7558 8 21.8598 8 21.9648C8 24.3449 9.93634 26.2812 12.3164 26.2812C14.6965 26.2812 16.6328 24.3449 16.6328 21.9648ZM9.72671 21.6595L12.3164 15.7402L14.9061 21.6595H9.72671V21.6595Z" fill="white"/>
<path d="M33.9385 21.6595L30.8506 14.6016H32.225C32.6457 14.6016 32.9867 14.2605 32.9867 13.8398C32.9867 13.4192 32.6457 13.0781 32.225 13.0781H24.9922C25.0392 13.325 25.0649 13.5794 25.0649 13.8398C25.0649 14.1002 25.0393 14.3547 24.9922 14.6016H28.5212L25.4334 21.6595C25.3913 21.7558 25.3695 21.8598 25.3695 21.9648C25.3695 24.3449 27.3059 26.2812 29.6859 26.2812C32.066 26.2812 34.0024 24.3449 34.0024 21.9648C34.0024 21.8598 33.9806 21.7558 33.9385 21.6595ZM27.0963 21.6595L29.6859 15.7402L32.2756 21.6595H27.0963V21.6595Z" fill="white"/>
</g>
<defs>
<clipPath id="clip0_4312_3133">
<rect width="26" height="26" fill="white" transform="translate(8 8)"/>
</clipPath>
</defs>
</svg>
