<svg width="21" height="15" viewBox="0 0 21 15" fill="none" xmlns="http://www.w3.org/2000/svg">
<g clip-path="url(#clip0_7792_49898)">
<mask id="mask0_7792_49898" style="mask-type:alpha" maskUnits="userSpaceOnUse" x="0" y="0" width="21" height="15">
<path d="M19.5 0H1.5C0.671573 0 0 0.671573 0 1.5V13.5C0 14.3284 0.671573 15 1.5 15H19.5C20.3284 15 21 14.3284 21 13.5V1.5C21 0.671573 20.3284 0 19.5 0Z" fill="white"/>
</mask>
<g mask="url(#mask0_7792_49898)">
<path d="M21 0H0V15H21V0Z" fill="#EE343C"/>
<path fill-rule="evenodd" clip-rule="evenodd" d="M9.28962 3.28708C9.12109 3.11855 8.85702 3.0924 8.65872 3.22461L8.21667 3.51931C7.89717 3.73227 7.92702 4.21086 8.27037 4.38255L9.22339 4.85904C9.39274 4.94373 9.49977 5.11686 9.49977 5.30625V5.49723C9.49977 5.77338 9.27589 5.99724 8.99974 5.99724H8.61777C8.54014 5.99724 8.46364 5.97916 8.39419 5.94445L6.82208 5.1584C6.62959 5.06216 6.3971 5.09988 6.24492 5.25207L5.99028 5.50671C5.74896 5.74803 5.81498 6.15485 6.12022 6.30747L6.82818 6.66145C7.12742 6.81107 7.15339 7.22814 6.87502 7.41372C6.55202 7.62908 6.65061 8.12738 7.03126 8.20351L7.45272 8.28781C7.85734 8.36873 7.97569 8.89029 7.64554 9.13786L7.26822 9.42091C7.02205 9.60548 7.15262 9.99721 7.46033 9.99721C7.48651 9.99721 7.51257 9.99406 7.53799 9.98768L8.48434 9.75106C8.84314 9.66136 9.12432 10.0604 8.91919 10.3681C8.73987 10.637 8.93269 10.9973 9.25587 10.9973H9.69349C9.87634 10.9973 10.0388 11.1143 10.0966 11.2878C10.2258 11.6753 10.7737 11.6753 10.9029 11.2878C10.9608 11.1143 11.1231 10.9973 11.3061 10.9973H11.7436C12.0669 10.9973 12.2596 10.637 12.0804 10.3681C11.8752 10.0604 12.1563 9.66136 12.5151 9.75106L13.4615 9.98768C13.4869 9.99406 13.513 9.99721 13.5392 9.99721C13.8468 9.99721 13.9774 9.60548 13.7313 9.42091L13.3539 9.13786C13.0238 8.89029 13.1421 8.36873 13.5468 8.28781L13.9683 8.20351C14.3489 8.12738 14.4474 7.62908 14.1245 7.41372C13.8461 7.22814 13.872 6.81107 14.1713 6.66145L14.8793 6.30747C15.1845 6.15485 15.2505 5.74803 15.0092 5.50671L14.7546 5.25207C14.6024 5.09988 14.3699 5.06216 14.1774 5.1584L12.6053 5.94445C12.5359 5.97916 12.4593 5.99724 12.3817 5.99724H11.9997C11.7236 5.99724 11.4997 5.77338 11.4997 5.49723V5.30625C11.4997 5.11686 11.6067 4.94374 11.7761 4.85905C12.0705 4.71183 12.4213 4.53645 12.7293 4.38246C13.0727 4.21077 13.1023 3.73227 12.7829 3.51931L12.3408 3.22461C12.1425 3.0924 11.8785 3.11855 11.7099 3.28708L10.8533 4.14369C10.6581 4.33895 10.3415 4.33894 10.1462 4.14369L9.28962 3.28708Z" fill="#262626"/>
</g>
</g>
<defs>
<clipPath id="clip0_7792_49898">
<rect width="21" height="15" fill="white"/>
</clipPath>
</defs>
</svg>
