<svg width="21" height="15" viewBox="0 0 21 15" fill="none" xmlns="http://www.w3.org/2000/svg">
<g clip-path="url(#clip0_7792_49979)">
<path d="M19.5 0.1875H1.5C0.775126 0.1875 0.1875 0.775126 0.1875 1.5V13.5C0.1875 14.2249 0.775126 14.8125 1.5 14.8125H19.5C20.2249 14.8125 20.8125 14.2249 20.8125 13.5V1.5C20.8125 0.775126 20.2249 0.1875 19.5 0.1875Z" fill="white" stroke="#F5F5F5" stroke-width="0.5"/>
<mask id="mask0_7792_49979" style="mask-type:alpha" maskUnits="userSpaceOnUse" x="-1" y="-1" width="23" height="17">
<path d="M19.5 0.1875H1.5C0.775126 0.1875 0.1875 0.775126 0.1875 1.5V13.5C0.1875 14.2249 0.775126 14.8125 1.5 14.8125H19.5C20.2249 14.8125 20.8125 14.2249 20.8125 13.5V1.5C20.8125 0.775126 20.2249 0.1875 19.5 0.1875Z" fill="white" stroke="white" stroke-width="0.5"/>
</mask>
<g mask="url(#mask0_7792_49979)">
<path d="M21 0H15V15H21V0Z" fill="#FF3131"/>
<path fill-rule="evenodd" clip-rule="evenodd" d="M0 15H6V0H0V15Z" fill="#FF3131"/>
<path fill-rule="evenodd" clip-rule="evenodd" d="M12.0838 6.91615C11.9089 7.09105 11.6134 6.93289 11.662 6.69034L12 5L11 5.5L10.5 4L9.99997 5.5L9 5L9.3381 6.69034C9.38655 6.93289 9.09105 7.09105 8.91615 6.91615L8.67675 6.67678C8.57917 6.57914 8.42085 6.57914 8.3232 6.67678L8.00002 7L7 6.50001L7.5 7.49999L7.17678 7.82324C7.07915 7.92082 7.07915 8.07914 7.17678 8.1768L8.49997 9.50002H9.99997L10.25 11H10.75L11 9.50002H12.5L13.8232 8.1768C13.9208 8.07914 13.9208 7.92082 13.8232 7.82324L13.5 7.49999L14 6.50001L13 7L12.6768 6.67678C12.5791 6.57914 12.4208 6.57914 12.3232 6.67678L12.0838 6.91615Z" fill="#FF3131"/>
</g>
</g>
<defs>
<clipPath id="clip0_7792_49979">
<rect width="21" height="15" fill="white"/>
</clipPath>
</defs>
</svg>
