<svg width="21" height="15" viewBox="0 0 21 15" fill="none" xmlns="http://www.w3.org/2000/svg">
<g clip-path="url(#clip0_7792_50005)">
<path d="M19.5 0H1.5C0.671573 0 0 0.671573 0 1.5V13.5C0 14.3284 0.671573 15 1.5 15H19.5C20.3284 15 21 14.3284 21 13.5V1.5C21 0.671573 20.3284 0 19.5 0Z" fill="white"/>
<mask id="mask0_7792_50005" style="mask-type:alpha" maskUnits="userSpaceOnUse" x="0" y="0" width="21" height="15">
<path d="M19.5 0H1.5C0.671573 0 0 0.671573 0 1.5V13.5C0 14.3284 0.671573 15 1.5 15H19.5C20.3284 15 21 14.3284 21 13.5V1.5C21 0.671573 20.3284 0 19.5 0Z" fill="white"/>
</mask>
<g mask="url(#mask0_7792_50005)">
<g filter="url(#filter0_d_7792_50005)">
<path fill-rule="evenodd" clip-rule="evenodd" d="M0 11H21V7H0V11Z" fill="#0748AE"/>
</g>
<g filter="url(#filter1_d_7792_50005)">
<path fill-rule="evenodd" clip-rule="evenodd" d="M0 15H21V11H0V15Z" fill="#DE2035"/>
</g>
<path fill-rule="evenodd" clip-rule="evenodd" d="M0 7H21V0H0V7Z" fill="#FFD935"/>
</g>
</g>
<defs>
<filter id="filter0_d_7792_50005" x="0" y="7" width="21" height="4" filterUnits="userSpaceOnUse" color-interpolation-filters="sRGB">
<feFlood flood-opacity="0" result="BackgroundImageFix"/>
<feColorMatrix in="SourceAlpha" type="matrix" values="0 0 0 0 0 0 0 0 0 0 0 0 0 0 0 0 0 0 127 0" result="hardAlpha"/>
<feOffset/>
<feColorMatrix type="matrix" values="0 0 0 0 0 0 0 0 0 0 0 0 0 0 0 0 0 0 0.06 0"/>
<feBlend mode="normal" in2="BackgroundImageFix" result="effect1_dropShadow_7792_50005"/>
<feBlend mode="normal" in="SourceGraphic" in2="effect1_dropShadow_7792_50005" result="shape"/>
</filter>
<filter id="filter1_d_7792_50005" x="0" y="11" width="21" height="4" filterUnits="userSpaceOnUse" color-interpolation-filters="sRGB">
<feFlood flood-opacity="0" result="BackgroundImageFix"/>
<feColorMatrix in="SourceAlpha" type="matrix" values="0 0 0 0 0 0 0 0 0 0 0 0 0 0 0 0 0 0 127 0" result="hardAlpha"/>
<feOffset/>
<feColorMatrix type="matrix" values="0 0 0 0 0 0 0 0 0 0 0 0 0 0 0 0 0 0 0.06 0"/>
<feBlend mode="normal" in2="BackgroundImageFix" result="effect1_dropShadow_7792_50005"/>
<feBlend mode="normal" in="SourceGraphic" in2="effect1_dropShadow_7792_50005" result="shape"/>
</filter>
<clipPath id="clip0_7792_50005">
<rect width="21" height="15" fill="white"/>
</clipPath>
</defs>
</svg>
