<svg width="21" height="15" viewBox="0 0 21 15" fill="none" xmlns="http://www.w3.org/2000/svg">
<g clip-path="url(#clip0_7792_50025)">
<path d="M19.5 0.1875H1.5C0.775126 0.1875 0.1875 0.775126 0.1875 1.5V13.5C0.1875 14.2249 0.775126 14.8125 1.5 14.8125H19.5C20.2249 14.8125 20.8125 14.2249 20.8125 13.5V1.5C20.8125 0.775126 20.2249 0.1875 19.5 0.1875Z" fill="white" stroke="#F5F5F5" stroke-width="0.5"/>
<mask id="mask0_7792_50025" style="mask-type:alpha" maskUnits="userSpaceOnUse" x="-1" y="-1" width="23" height="17">
<path d="M19.5 0.1875H1.5C0.775126 0.1875 0.1875 0.775126 0.1875 1.5V13.5C0.1875 14.2249 0.775126 14.8125 1.5 14.8125H19.5C20.2249 14.8125 20.8125 14.2249 20.8125 13.5V1.5C20.8125 0.775126 20.2249 0.1875 19.5 0.1875Z" fill="white" stroke="white" stroke-width="0.5"/>
</mask>
<g mask="url(#mask0_7792_50025)">
<path fill-rule="evenodd" clip-rule="evenodd" d="M15 2.50175C15.2723 2.36559 15.5487 2.67868 15.3798 2.93201L15.0504 3.4261C15.0171 3.47604 14.9743 3.51889 14.9243 3.55219L13.5412 4.47429C13.5138 4.49255 13.4882 4.51348 13.465 4.53676L13.3535 4.6482C13.1583 4.84346 13.1583 5.16004 13.3535 5.35531L13.6464 5.6482C13.8417 5.84346 13.8417 6.16004 13.6464 6.3553L13.2548 6.74692C13.1027 6.89911 12.8702 6.93683 12.6776 6.84058L12.4472 6.72536C12.2002 6.60187 11.8999 6.70198 11.7764 6.94897L11.5926 7.31651C11.5333 7.43512 11.4293 7.52531 11.3035 7.56724L10.0769 7.97606C10.026 7.99309 9.97262 8.00179 9.91884 8.00179H9.30902C9.11964 8.00179 8.94647 8.10874 8.86179 8.27816L8.72364 8.55454C8.60012 8.80151 8.29974 8.90164 8.05277 8.77811L6.57257 8.03801C6.52451 8.01401 6.48063 7.98236 6.44263 7.94441L5.64645 7.1482C5.55268 7.05443 5.5 6.92725 5.5 6.79465V6.3553C5.5 6.16005 5.65829 6.00175 5.85356 6.00175C5.94732 6.00175 6.03725 5.9645 6.10355 5.8982L6.85355 5.1482C6.94732 5.05443 7.0745 5.00176 7.20711 5.00176H7.63959C7.85484 5.00176 8.04594 4.86404 8.11397 4.65987L8.36042 3.9205C8.44014 3.68127 8.68554 3.53887 8.93282 3.58832L10.8897 3.9797C10.9623 3.99422 11.0372 3.99244 11.1091 3.97448L12.9467 3.51507C12.9821 3.50622 13.0165 3.49352 13.0491 3.47721L14 3.00175L15 2.50175Z" fill="#E7832C"/>
<path fill-rule="evenodd" clip-rule="evenodd" d="M10.5 12C10.7762 12 11 11.7761 11 11.4999C11 11.2238 10.7762 11 10.5 11C10.2239 11 10 11.2238 10 11.4999C10 11.7761 10.2239 12 10.5 12Z" fill="#445128"/>
<path opacity="0.75" d="M12 11C12 11 13.5 10.5 14 9.5" stroke="#445128" stroke-width="1.33333" stroke-linecap="round"/>
<path opacity="0.75" d="M9 11C9 11 7.5 10.5 7 9.5" stroke="#445128" stroke-width="1.33333" stroke-linecap="round"/>
</g>
</g>
<defs>
<clipPath id="clip0_7792_50025">
<rect width="21" height="15" fill="white"/>
</clipPath>
</defs>
</svg>
