<svg width="21" height="15" viewBox="0 0 21 15" fill="none" xmlns="http://www.w3.org/2000/svg">
<g clip-path="url(#clip0_7792_50069)">
<path d="M19.5 0.1875H1.5C0.775126 0.1875 0.1875 0.775126 0.1875 1.5V13.5C0.1875 14.2249 0.775126 14.8125 1.5 14.8125H19.5C20.2249 14.8125 20.8125 14.2249 20.8125 13.5V1.5C20.8125 0.775126 20.2249 0.1875 19.5 0.1875Z" fill="white" stroke="#F5F5F5" stroke-width="0.5"/>
<mask id="mask0_7792_50069" style="mask-type:alpha" maskUnits="userSpaceOnUse" x="-1" y="-1" width="23" height="17">
<path d="M19.5 0.1875H1.5C0.775126 0.1875 0.1875 0.775126 0.1875 1.5V13.5C0.1875 14.2249 0.775126 14.8125 1.5 14.8125H19.5C20.2249 14.8125 20.8125 14.2249 20.8125 13.5V1.5C20.8125 0.775126 20.2249 0.1875 19.5 0.1875Z" fill="white" stroke="white" stroke-width="0.5"/>
</mask>
<g mask="url(#mask0_7792_50069)">
<path fill-rule="evenodd" clip-rule="evenodd" d="M0 5H21V0H0V5Z" fill="#E41D33"/>
<path fill-rule="evenodd" clip-rule="evenodd" d="M0 15H21V10H0V15Z" fill="#262626"/>
<path d="M9.27637 7.1118L9.4896 7.53818L9.71903 7.12049L9.72 7.11872L9.72397 7.11164C9.72765 7.1052 9.7332 7.09539 9.74063 7.08271C9.75533 7.05732 9.77723 7.02053 9.8049 6.97616C9.86063 6.88698 9.93855 6.76943 10.0286 6.6531C10.1199 6.53531 10.2176 6.42677 10.3117 6.34994C10.4122 6.2679 10.4746 6.25 10.5 6.25C10.543 6.25 10.6133 6.2733 10.711 6.35147C10.8052 6.42686 10.9001 6.53356 10.9875 6.65C11.0737 6.76499 11.1466 6.88134 11.1981 6.96972C11.2238 7.01365 11.2438 7.05004 11.2571 7.07509C11.2639 7.0876 11.2689 7.09724 11.2721 7.10353L11.2756 7.11037L11.2764 7.11179L11.5 7.55903L11.7236 7.1118L12.1545 6.25H12.5C12.6381 6.25 12.75 6.36193 12.75 6.5V8.06573C12.75 8.26545 12.5275 8.38455 12.3614 8.27378L11.6386 7.79198L11.5757 7.74998H11.5H11H10.75V8.00003V8.49998C10.75 8.63805 10.6381 8.75003 10.5 8.75003C10.3619 8.75003 10.25 8.63805 10.25 8.49998V8.00003V7.74998H9.99997H9.50003H9.42427L9.36135 7.79198L8.63865 8.27378C8.47252 8.38455 8.25 8.26545 8.25 8.06573V6.5C8.25 6.36193 8.3619 6.25 8.49997 6.25H8.8455L9.27637 7.1118Z" fill="#F4B32E" fill-opacity="0.25" stroke="#C6A846" stroke-width="0.666667"/>
</g>
</g>
<defs>
<clipPath id="clip0_7792_50069">
<rect width="21" height="15" fill="white"/>
</clipPath>
</defs>
</svg>
