<svg width="21" height="15" viewBox="0 0 21 15" fill="none" xmlns="http://www.w3.org/2000/svg">
<g clip-path="url(#clip0_7792_50146)">
<path d="M19.5 0H1.5C0.671573 0 0 0.671573 0 1.5V13.5C0 14.3284 0.671573 15 1.5 15H19.5C20.3284 15 21 14.3284 21 13.5V1.5C21 0.671573 20.3284 0 19.5 0Z" fill="white"/>
<mask id="mask0_7792_50146" style="mask-type:alpha" maskUnits="userSpaceOnUse" x="0" y="0" width="21" height="15">
<path d="M19.5 0H1.5C0.671573 0 0 0.671573 0 1.5V13.5C0 14.3284 0.671573 15 1.5 15H19.5C20.3284 15 21 14.3284 21 13.5V1.5C21 0.671573 20.3284 0 19.5 0Z" fill="white"/>
</mask>
<g mask="url(#mask0_7792_50146)">
<path fill-rule="evenodd" clip-rule="evenodd" d="M0 15H21V0H0V15Z" fill="#F0371D"/>
<path fill-rule="evenodd" clip-rule="evenodd" d="M10.4912 6.11241C11.2133 5.508 11.2572 5.37283 11.4303 4.84033C11.488 4.6626 11.4473 4.51661 11.3991 4.34422C11.3298 4.09562 11.2451 3.7921 11.4183 3.25924C10.6304 3.00325 9.71494 3.64732 9.37362 4.69783C9.03229 5.74834 9.39432 6.80747 10.1822 7.06347C10.3232 7.10929 10.3074 7.07616 10.2646 6.98644C10.1895 6.82902 10.0312 6.4974 10.4912 6.11241ZM8.99577 7.21633C8.64409 6.34279 8.52912 6.25925 8.07612 5.93015C7.92492 5.8203 7.77349 5.81393 7.59469 5.8064C7.33684 5.79556 7.022 5.7823 6.56872 5.45298C6.08179 6.12319 6.41146 7.19283 7.30507 7.84205C8.19867 8.49132 9.31782 8.4743 9.80479 7.8041C9.89194 7.68418 9.85557 7.6889 9.75702 7.70195C9.58407 7.72475 9.21979 7.77275 8.99577 7.21633ZM13.5032 7.69348C12.9433 7.69348 12.8012 7.69347 12.0032 7.1935C11.4949 6.87502 11.2284 7.128 11.1019 7.24809C11.0298 7.31653 11.0032 7.34181 11.0032 7.1935C11.0032 6.36507 11.8986 5.6935 13.0032 5.6935C14.1078 5.6935 15.0032 6.36507 15.0032 7.1935C14.4429 7.1935 14.1804 7.36784 13.9654 7.51063C13.8163 7.60963 13.6901 7.69348 13.5032 7.69348ZM13.5032 6.75313C13.5032 6.89119 13.3913 7.00312 13.2532 7.00312C13.1151 7.00312 13.0032 6.89119 13.0032 6.75313C13.0032 6.61505 13.1151 6.50312 13.2532 6.50312C13.3913 6.50312 13.5032 6.61505 13.5032 6.75313ZM11.4423 8.96555C11.2133 9.87897 11.2572 10.0142 11.4303 10.5467C11.488 10.7244 11.6067 10.8186 11.747 10.9298C11.9493 11.0901 12.1962 11.2859 12.3693 11.8188C13.1571 11.5627 13.5192 10.5037 13.1778 9.45313C12.8365 8.4026 11.9211 7.7585 11.1332 8.01455C10.9922 8.06038 11.0244 8.07785 11.1118 8.12525C11.2651 8.2085 11.5881 8.38377 11.4423 8.96555ZM12.3246 10.2561C12.1933 10.2987 12.0522 10.2269 12.0096 10.0956C11.9669 9.96425 12.0387 9.82325 12.1701 9.78058C12.3014 9.7379 12.4425 9.80975 12.4851 9.94108C12.5277 10.0724 12.4559 10.2134 12.3246 10.2561ZM9.58354 8.97972C8.64409 9.04422 8.52912 9.12777 8.07612 9.45687C7.92492 9.56667 7.87212 9.70873 7.80964 9.8765C7.71964 10.1184 7.60977 10.4137 7.15651 10.743C7.64344 11.4132 8.76259 11.4303 9.65622 10.781C10.5498 10.1317 10.8795 9.06215 10.3926 8.39188C10.3054 8.27195 10.2987 8.30802 10.2806 8.40575C10.2489 8.57727 10.182 8.93855 9.58354 8.97972ZM8.62887 10.2177C8.54772 10.1059 8.57247 9.94963 8.68422 9.86847C8.79589 9.78725 8.95227 9.81208 9.03342 9.92375C9.11457 10.0354 9.08982 10.1918 8.97807 10.273C8.86639 10.3541 8.71002 10.3293 8.62887 10.2177ZM7.52337 6.69093C7.60452 6.57923 7.76089 6.55447 7.87257 6.63562C7.98432 6.71678 8.00907 6.87313 7.92792 6.98482C7.84677 7.09653 7.69039 7.12129 7.57872 7.04013C7.46701 6.95898 7.44224 6.80263 7.52337 6.69093ZM10.5359 4.54974C10.6672 4.59241 10.7391 4.73344 10.6964 4.86476C10.6537 4.99607 10.5127 5.06794 10.3814 5.02527C10.2501 4.9826 10.1782 4.84156 10.2209 4.71025C10.2636 4.57894 10.4046 4.50707 10.5359 4.54974Z" fill="white"/>
</g>
</g>
<defs>
<clipPath id="clip0_7792_50146">
<rect width="21" height="15" fill="white"/>
</clipPath>
</defs>
</svg>
