<svg width="21" height="15" viewBox="0 0 21 15" fill="none" xmlns="http://www.w3.org/2000/svg">
<g clip-path="url(#clip0_7792_50177)">
<path d="M19.5 0.1875H1.5C0.775126 0.1875 0.1875 0.775126 0.1875 1.5V13.5C0.1875 14.2249 0.775126 14.8125 1.5 14.8125H19.5C20.2249 14.8125 20.8125 14.2249 20.8125 13.5V1.5C20.8125 0.775126 20.2249 0.1875 19.5 0.1875Z" fill="white" stroke="#F5F5F5" stroke-width="0.5"/>
<mask id="mask0_7792_50177" style="mask-type:alpha" maskUnits="userSpaceOnUse" x="-1" y="-1" width="23" height="17">
<path d="M19.5 0.1875H1.5C0.775126 0.1875 0.1875 0.775126 0.1875 1.5V13.5C0.1875 14.2249 0.775126 14.8125 1.5 14.8125H19.5C20.2249 14.8125 20.8125 14.2249 20.8125 13.5V1.5C20.8125 0.775126 20.2249 0.1875 19.5 0.1875Z" fill="white" stroke="white" stroke-width="0.5"/>
</mask>
<g mask="url(#mask0_7792_50177)">
<path fill-rule="evenodd" clip-rule="evenodd" d="M0 3H21V0H0V3Z" fill="#0E46D4"/>
<path fill-rule="evenodd" clip-rule="evenodd" d="M0 15H21V12H0V15Z" fill="#0E46D4"/>
<path d="M7.78445 8.87774L7.57812 9.24914H8.003H13.003H13.4278L13.2215 8.87774L10.7215 4.37774L10.503 3.98438L10.2844 4.37774L7.78445 8.87774Z" stroke="#093EC5" stroke-width="0.666667"/>
<path d="M7.78445 6.12141L7.57812 5.75H8.003H13.003H13.4278L13.2215 6.12141L10.7215 10.6214L10.503 11.0148L10.2844 10.6214L7.78445 6.12141Z" stroke="#093EC5" stroke-width="0.666667"/>
</g>
</g>
<defs>
<clipPath id="clip0_7792_50177">
<rect width="21" height="15" fill="white"/>
</clipPath>
</defs>
</svg>
