<svg width="21" height="15" viewBox="0 0 21 15" fill="none" xmlns="http://www.w3.org/2000/svg">
<g clip-path="url(#clip0_7792_50187)">
<path d="M19.5 0.1875H1.5C0.775126 0.1875 0.1875 0.775126 0.1875 1.5V13.5C0.1875 14.2249 0.775126 14.8125 1.5 14.8125H19.5C20.2249 14.8125 20.8125 14.2249 20.8125 13.5V1.5C20.8125 0.775126 20.2249 0.1875 19.5 0.1875Z" fill="white" stroke="#F5F5F5" stroke-width="0.5"/>
<mask id="mask0_7792_50187" style="mask-type:alpha" maskUnits="userSpaceOnUse" x="-1" y="-1" width="23" height="17">
<path d="M19.5 0.1875H1.5C0.775126 0.1875 0.1875 0.775126 0.1875 1.5V13.5C0.1875 14.2249 0.775126 14.8125 1.5 14.8125H19.5C20.2249 14.8125 20.8125 14.2249 20.8125 13.5V1.5C20.8125 0.775126 20.2249 0.1875 19.5 0.1875Z" fill="white" stroke="white" stroke-width="0.5"/>
</mask>
<g mask="url(#mask0_7792_50187)">
<path fill-rule="evenodd" clip-rule="evenodd" d="M0 5H21V0H0V5Z" fill="#FFA44A"/>
<path fill-rule="evenodd" clip-rule="evenodd" d="M0 15H21V10H0V15Z" fill="#1A9F0B"/>
<path d="M10.5 9.24997C11.4665 9.24997 12.2499 8.46652 12.2499 7.5C12.2499 6.5335 11.4665 5.75 10.5 5.75C9.53345 5.75 8.75 6.5335 8.75 7.5C8.75 8.46652 9.53345 9.24997 10.5 9.24997Z" fill="#181A93" fill-opacity="0.15" stroke="#181A93" stroke-width="0.666667"/>
<path fill-rule="evenodd" clip-rule="evenodd" d="M10.5 7.99997C10.7762 7.99997 11.0001 7.77617 11.0001 7.5C11.0001 7.22386 10.7762 7 10.5 7C10.2239 7 10 7.22386 10 7.5C10 7.77617 10.2239 7.99997 10.5 7.99997Z" fill="#181A93"/>
</g>
</g>
<defs>
<clipPath id="clip0_7792_50187">
<rect width="21" height="15" fill="white"/>
</clipPath>
</defs>
</svg>
