<svg width="21" height="15" viewBox="0 0 21 15" fill="none" xmlns="http://www.w3.org/2000/svg">
<g clip-path="url(#clip0_7792_50241)">
<path d="M19.5 0.1875H1.5C0.775126 0.1875 0.1875 0.775126 0.1875 1.5V13.5C0.1875 14.2249 0.775126 14.8125 1.5 14.8125H19.5C20.2249 14.8125 20.8125 14.2249 20.8125 13.5V1.5C20.8125 0.775126 20.2249 0.1875 19.5 0.1875Z" fill="white" stroke="#F5F5F5" stroke-width="0.5"/>
<mask id="mask0_7792_50241" style="mask-type:alpha" maskUnits="userSpaceOnUse" x="-1" y="-1" width="23" height="17">
<path d="M19.5 0.1875H1.5C0.775126 0.1875 0.1875 0.775126 0.1875 1.5V13.5C0.1875 14.2249 0.775126 14.8125 1.5 14.8125H19.5C20.2249 14.8125 20.8125 14.2249 20.8125 13.5V1.5C20.8125 0.775126 20.2249 0.1875 19.5 0.1875Z" fill="white" stroke="white" stroke-width="0.5"/>
</mask>
<g mask="url(#mask0_7792_50241)">
<path fill-rule="evenodd" clip-rule="evenodd" d="M10.5 11C12.433 11 14 9.43299 14 7.5C14 5.567 12.433 4 10.5 4C8.56702 4 7 5.567 7 7.5C7 9.43299 8.56702 11 10.5 11Z" fill="#E01B41"/>
<mask id="mask1_7792_50241" style="mask-type:alpha" maskUnits="userSpaceOnUse" x="7" y="4" width="7" height="7">
<path fill-rule="evenodd" clip-rule="evenodd" d="M10.5 11C12.433 11 14 9.43299 14 7.5C14 5.567 12.433 4 10.5 4C8.56702 4 7 5.567 7 7.5C7 9.43299 8.56702 11 10.5 11Z" fill="white"/>
</mask>
<g mask="url(#mask1_7792_50241)">
<path fill-rule="evenodd" clip-rule="evenodd" d="M6.99913 7.99998C7.99915 8.93748 9.49915 9.49998 10.4991 7.99998C11.4991 6.50001 13.4991 6.50001 13.9991 7.99998C14.4991 9.49998 13.9991 11 13.9991 11H6.99913C6.99913 11 5.99913 7.06251 6.99913 7.99998Z" fill="#0E4B9C"/>
</g>
<path opacity="0.75" fill-rule="evenodd" clip-rule="evenodd" d="M4.62728 2.6641C4.69632 2.54453 4.84922 2.50356 4.96879 2.5726L5.4018 2.8226C5.52137 2.89164 5.56235 3.04453 5.49331 3.1641L4.24331 5.32917C4.17428 5.44874 4.02137 5.48971 3.9018 5.42067L3.46879 5.17068C3.34922 5.10164 3.30825 4.94874 3.37728 4.82917L4.62728 2.6641ZM15.5931 2.8226C15.4736 2.89164 15.4326 3.04453 15.5016 3.1641L16.7516 5.32917C16.8206 5.44874 16.9736 5.48971 17.0931 5.42067L17.5262 5.17068C17.6457 5.10164 17.6867 4.94874 17.6177 4.82917L16.3677 2.6641C16.2986 2.54453 16.1457 2.50356 16.0262 2.5726L15.5931 2.8226ZM14.2941 3.5726C14.1745 3.64164 14.1336 3.79453 14.2026 3.9141L15.4526 6.07917C15.5216 6.19874 15.6745 6.23971 15.7941 6.17067L16.2271 5.92068C16.3467 5.85164 16.3877 5.69874 16.3186 5.57917L15.0686 3.4141C14.9996 3.29453 14.8467 3.25356 14.7271 3.3226L14.2941 3.5726ZM3.37728 10.1641C3.30825 10.0445 3.34922 9.89162 3.46879 9.82262L3.9018 9.57257C4.02137 9.50357 4.17428 9.54452 4.24331 9.66407L5.49331 11.8292C5.56235 11.9487 5.52137 12.1016 5.4018 12.1706L4.96879 12.4207C4.84922 12.4897 4.69632 12.4487 4.62728 12.3292L3.37728 10.1641ZM4.76783 9.07262C4.64825 9.14162 4.60729 9.29454 4.67633 9.41409L5.92632 11.5792C5.99536 11.6987 6.14825 11.7397 6.26783 11.6707L6.70084 11.4206C6.82041 11.3516 6.86138 11.1987 6.79235 11.0792L5.54235 8.91407C5.47331 8.79452 5.32041 8.75357 5.20084 8.82257L4.76783 9.07262ZM15.4526 8.91407C15.5216 8.79452 15.6745 8.75357 15.7941 8.82257L16.2271 9.07262C16.3467 9.14162 16.3877 9.29454 16.3186 9.41409L15.0686 11.5792C14.9996 11.6987 14.8467 11.7397 14.7271 11.6707L14.2941 11.4206C14.1745 11.3516 14.1336 11.1987 14.2026 11.0792L15.4526 8.91407ZM17.0931 9.57257C16.9736 9.50357 16.8206 9.54452 16.7516 9.66407L15.5016 11.8292C15.4326 11.9487 15.4736 12.1016 15.5931 12.1706L16.0262 12.4207C16.1457 12.4897 16.2986 12.4487 16.3677 12.3292L17.6177 10.1641C17.6867 10.0445 17.6457 9.89162 17.5262 9.82262L17.0931 9.57257ZM6.26783 3.3226C6.14825 3.25356 5.99536 3.29453 5.92632 3.4141L4.67633 5.57917C4.60729 5.69874 4.64825 5.85164 4.76783 5.92068L5.20084 6.17067C5.32041 6.23971 5.47331 6.19874 5.54235 6.07917L6.79235 3.9141C6.86138 3.79453 6.82041 3.64164 6.70084 3.5726L6.26783 3.3226Z" fill="#262626"/>
</g>
</g>
<defs>
<clipPath id="clip0_7792_50241">
<rect width="21" height="15" fill="white"/>
</clipPath>
</defs>
</svg>
