<svg width="21" height="15" viewBox="0 0 21 15" fill="none" xmlns="http://www.w3.org/2000/svg">
<g clip-path="url(#clip0_7792_50303)">
<path d="M19.5 0H1.5C0.671573 0 0 0.671573 0 1.5V13.5C0 14.3284 0.671573 15 1.5 15H19.5C20.3284 15 21 14.3284 21 13.5V1.5C21 0.671573 20.3284 0 19.5 0Z" fill="white"/>
<mask id="mask0_7792_50303" style="mask-type:alpha" maskUnits="userSpaceOnUse" x="0" y="0" width="21" height="15">
<path d="M19.5 0H1.5C0.671573 0 0 0.671573 0 1.5V13.5C0 14.3284 0.671573 15 1.5 15H19.5C20.3284 15 21 14.3284 21 13.5V1.5C21 0.671573 20.3284 0 19.5 0Z" fill="white"/>
</mask>
<g mask="url(#mask0_7792_50303)">
<path d="M21 0H0V15H21V0Z" fill="#E6BE53"/>
<path fill-rule="evenodd" clip-rule="evenodd" d="M1 13.25C1 13.6642 1.33579 14 1.75 14H19.25C19.6642 14 20 13.6642 20 13.25V1.75C20 1.33579 19.6642 1 19.25 1H1.75C1.33579 1 1 1.33579 1 1.75V13.25Z" fill="#E01826"/>
<path fill-rule="evenodd" clip-rule="evenodd" d="M9.76749 2.74056C9.41492 2.8581 9.30924 3.30563 9.57204 3.56845L9.85359 3.84994C9.94734 3.94372 10.0745 3.99639 10.2071 3.99639H10.7929C10.9255 3.99639 11.0527 3.94372 11.1464 3.84994L11.4279 3.56845C11.6908 3.30562 11.5851 2.8581 11.2325 2.74056L10.6581 2.5491C10.5555 2.51488 10.4445 2.51488 10.3419 2.5491L9.76749 2.74056ZM10.8536 5.14284C10.6583 5.3381 10.3417 5.3381 10.1465 5.14284L9.99999 4.99639L9.25479 4.25122C9.10262 4.09904 8.87019 4.06131 8.67767 4.15756L8.62044 4.18615C8.31519 4.33878 8.24919 4.7456 8.49054 4.98692L8.49999 4.99639L9.24519 5.74156C9.39737 5.89375 9.43509 6.12623 9.33887 6.31873L9.02844 6.93945C9.00977 6.9769 9.00002 7.01818 9.00002 7.06005C9.00002 7.26052 8.78904 7.3909 8.60972 7.30126L8.36754 7.18016C8.18672 7.08976 8.14764 6.84877 8.29059 6.70582C8.40624 6.59016 8.40624 6.40263 8.29059 6.28696L8.05734 6.05377C8.01939 6.01576 7.98774 5.97189 7.96374 5.92382L7.52454 5.04548C7.50827 5.01286 7.49554 4.97854 7.48669 4.94314L7.25478 4.01551C7.15267 3.60706 6.62232 3.49996 6.36972 3.83678L5.6 4.86306C5.53509 4.94961 5.5 5.05487 5.5 5.16306V6.87835C5.5 6.95598 5.51807 7.03254 5.55278 7.10197L5.96372 7.92382C5.98775 7.9719 6.01937 8.01577 6.05738 8.0538L6.94263 8.93902C6.98063 8.97705 7.02451 9.00862 7.07258 9.0327L7.95279 9.4728C7.98384 9.48832 8.01804 9.49642 8.05277 9.49642C8.28872 9.49642 8.36387 9.8145 8.15282 9.92002L8.03687 9.97792C8.01249 9.99015 7.99014 10.0063 7.97087 10.0255L7.74999 10.2464C7.61192 10.3845 7.38807 10.3845 7.25 10.2464C7.11193 10.1083 6.88807 10.1083 6.75 10.2464L6.70944 10.2869C6.58437 10.412 6.55336 10.6031 6.63246 10.7613L6.8618 11.22C6.9465 11.3894 7.11963 11.4964 7.30902 11.4964H7.88199C7.95962 11.4964 8.03612 11.4783 8.10557 11.4436L8.85092 11.0709C8.94767 11.0225 9.02619 10.9441 9.07457 10.8473L9.30122 10.3939C9.39902 10.1983 9.65964 10.156 9.81429 10.3107C9.92229 10.4187 9.93902 10.5878 9.85434 10.7149L9.27737 11.5804C9.12414 11.8101 9.18624 12.1206 9.41604 12.2737L10.2227 12.8115C10.3906 12.9235 10.6094 12.9235 10.7774 12.8115L11.584 12.2737C11.8137 12.1206 11.8758 11.8101 11.7227 11.5804L11.1457 10.7149C11.0609 10.5878 11.0777 10.4187 11.1857 10.3107C11.3403 10.156 11.601 10.1983 11.6987 10.3939L11.9255 10.8473C11.9738 10.9441 12.0523 11.0225 12.149 11.0709L12.8944 11.4436C12.9638 11.4783 13.0404 11.4964 13.118 11.4964H13.691C13.8803 11.4964 14.0535 11.3894 14.1382 11.22L14.3675 10.7613C14.4467 10.6031 14.4156 10.412 14.2906 10.2869L14.25 10.2464C14.1119 10.1083 13.8881 10.1083 13.75 10.2464C13.6119 10.3845 13.388 10.3845 13.25 10.2464L13.0292 10.0255C13.0098 10.0063 12.9875 9.99015 12.9631 9.97792L12.8472 9.92002C12.6362 9.8145 12.7112 9.49642 12.9472 9.49642C12.9819 9.49642 13.0162 9.48832 13.0472 9.4728L13.9274 9.0327C13.9755 9.00862 14.0194 8.97705 14.0573 8.93902L14.9426 8.0538C14.9806 8.01577 15.0122 7.9719 15.0363 7.92382L15.4472 7.10197C15.4819 7.03254 15.5 6.95598 15.5 6.87835V5.16306C15.5 5.05487 15.4649 4.94961 15.4 4.86306L14.6303 3.83678C14.3777 3.49996 13.8473 3.60706 13.7452 4.01551L13.5133 4.94314C13.5044 4.97854 13.4918 5.01286 13.4755 5.04548L13.0363 5.92382C13.0122 5.97189 12.9806 6.01576 12.9426 6.05377L12.7094 6.28696C12.5938 6.40263 12.5938 6.59016 12.7094 6.70582C12.8524 6.84877 12.8132 7.08976 12.6325 7.18016L12.3902 7.30126C12.211 7.3909 12 7.26052 12 7.06005C12 7.01818 11.9903 6.9769 11.9715 6.93945L11.6612 6.31873C11.5649 6.12623 11.6027 5.89375 11.7548 5.74156L12.5 4.99639L12.5095 4.98692C12.7508 4.7456 12.6848 4.33878 12.3795 4.18615L12.3224 4.15756C12.1298 4.06131 11.8973 4.09904 11.7452 4.25122L11 4.99639L10.8536 5.14284Z" fill="#E6BE53"/>
<path fill-rule="evenodd" clip-rule="evenodd" d="M9.5 8.49999C9.5 8.68412 9.81005 8.74532 9.89975 8.58459C10.0741 8.27214 10.287 7.99997 10.5 7.99997C10.713 7.99997 10.9259 8.27214 11.1003 8.58459C11.19 8.74532 11.5 8.68412 11.5 8.49999C11.5 7.67154 11.0523 7 10.5 7C9.94767 7 9.5 7.67154 9.5 8.49999Z" fill="#215F90"/>
</g>
</g>
<defs>
<clipPath id="clip0_7792_50303">
<rect width="21" height="15" fill="white"/>
</clipPath>
</defs>
</svg>
