<svg width="21" height="15" viewBox="0 0 21 15" fill="none" xmlns="http://www.w3.org/2000/svg">
<g clip-path="url(#clip0_7792_50313)">
<path d="M19.5 0H1.5C0.671573 0 0 0.671573 0 1.5V13.5C0 14.3284 0.671573 15 1.5 15H19.5C20.3284 15 21 14.3284 21 13.5V1.5C21 0.671573 20.3284 0 19.5 0Z" fill="white"/>
<mask id="mask0_7792_50313" style="mask-type:alpha" maskUnits="userSpaceOnUse" x="0" y="0" width="21" height="15">
<path d="M19.5 0H1.5C0.671573 0 0 0.671573 0 1.5V13.5C0 14.3284 0.671573 15 1.5 15H19.5C20.3284 15 21 14.3284 21 13.5V1.5C21 0.671573 20.3284 0 19.5 0Z" fill="white"/>
</mask>
<g mask="url(#mask0_7792_50313)">
<path d="M21 0H0V15H21V0Z" fill="#E81B26"/>
<path fill-rule="evenodd" clip-rule="evenodd" d="M10.5 10C11.8807 10 13 8.88073 13 7.49998C13 6.11929 11.8807 5 10.5 5C9.1193 5 8 6.11929 8 7.49998C8 8.88073 9.1193 10 10.5 10Z" fill="#FFE94F"/>
<path fill-rule="evenodd" clip-rule="evenodd" d="M7.65315 5.45899C7.80412 5.24894 7.97782 5.05629 8.17057 4.88465L1.46833 -2.64844L-0.539062 -0.419004L7.65315 5.45899ZM8.17057 10.1144C7.97782 9.94282 7.80412 9.75014 7.65315 9.54007L-0.539062 15.4181L1.46833 17.6475L8.17057 10.1144ZM9.81052 10.9322L8.99707 14.9995H11.9971L11.1836 10.9322C10.9616 10.9764 10.732 10.9996 10.4971 10.9996C10.2621 10.9996 10.0325 10.9764 9.81052 10.9322ZM13.341 9.54007C13.19 9.75014 13.0164 9.94282 12.8236 10.1144L19.5259 17.6475L21.5332 15.4181L13.341 9.54007ZM7.03183 7.99462C7.00893 7.83284 6.99709 7.66762 6.99709 7.49954C6.99709 7.3315 7.00893 7.16623 7.03182 7.0045L-0.00291127 5.99954V8.99954L7.03183 7.99462ZM9.81052 4.06685L8.99707 -0.00045681H11.9971L11.1836 4.06685C10.9616 4.0227 10.732 3.99954 10.4971 3.99954C10.2621 3.99954 10.0325 4.0227 9.81052 4.06685ZM13.9624 7.0045C13.9852 7.16623 13.9971 7.3315 13.9971 7.49954C13.9971 7.66762 13.9852 7.83284 13.9624 7.99462L20.9971 8.99954V5.99954L13.9624 7.0045ZM13.341 5.45899C13.19 5.24894 13.0164 5.05629 12.8236 4.88465L19.5259 -2.64844L21.5332 -0.419004L13.341 5.45899Z" fill="#FFE94F"/>
</g>
</g>
<defs>
<clipPath id="clip0_7792_50313">
<rect width="21" height="15" fill="white"/>
</clipPath>
</defs>
</svg>
