<svg width="21" height="15" viewBox="0 0 21 15" fill="none" xmlns="http://www.w3.org/2000/svg">
<g clip-path="url(#clip0_7792_50322)">
<path d="M19.5 0.1875H1.5C0.775126 0.1875 0.1875 0.775126 0.1875 1.5V13.5C0.1875 14.2249 0.775126 14.8125 1.5 14.8125H19.5C20.2249 14.8125 20.8125 14.2249 20.8125 13.5V1.5C20.8125 0.775126 20.2249 0.1875 19.5 0.1875Z" fill="white" stroke="#F5F5F5" stroke-width="0.5"/>
<mask id="mask0_7792_50322" style="mask-type:alpha" maskUnits="userSpaceOnUse" x="-1" y="-1" width="23" height="17">
<path d="M19.5 0.1875H1.5C0.775126 0.1875 0.1875 0.775126 0.1875 1.5V13.5C0.1875 14.2249 0.775126 14.8125 1.5 14.8125H19.5C20.2249 14.8125 20.8125 14.2249 20.8125 13.5V1.5C20.8125 0.775126 20.2249 0.1875 19.5 0.1875Z" fill="white" stroke="white" stroke-width="0.5"/>
</mask>
<g mask="url(#mask0_7792_50322)">
<path fill-rule="evenodd" clip-rule="evenodd" d="M11 15H21V0H11V15Z" fill="#DE233C"/>
<path fill-rule="evenodd" clip-rule="evenodd" d="M3.99999 2H3V3H2V3.99999H3V5H3.99999V3.99999H5V3H3.99999V2Z" fill="#CCCCCD"/>
<mask id="mask1_7792_50322" style="mask-type:luminance" maskUnits="userSpaceOnUse" x="1" y="1" width="5" height="5">
<path d="M5.75 1.25H1.25V5.75H5.75V1.25Z" fill="white"/>
<path fill-rule="evenodd" clip-rule="evenodd" d="M3.99999 2H3V3H2V3.99999H3V5H3.99999V3.99999H5V3H3.99999V2Z" fill="black"/>
</mask>
<g mask="url(#mask1_7792_50322)">
<path d="M3 2V1.5H2.5V2H3ZM4 2H4.5V1.5H4V2ZM3 3V3.5H3.5V3H3ZM2 3V2.5H1.5V3H2ZM2 4H1.5V4.5H2V4ZM3 4H3.5V3.5H3V4ZM3 5H2.5V5.5H3V5ZM4 5V5.5H4.5V5H4ZM4 4V3.5H3.5V4H4ZM5 4V4.5H5.5V4H5ZM5 3H5.5V2.5H5V3ZM4 3H3.5V3.5H4V3ZM3 2.5H4V1.5H3V2.5ZM3.5 3V2H2.5V3H3.5ZM2 3.5H3V2.5H2V3.5ZM2.5 4V3H1.5V4H2.5ZM3 3.5H2V4.5H3V3.5ZM3.5 5V4H2.5V5H3.5ZM4 4.5H3V5.5H4V4.5ZM3.5 4V5H4.5V4H3.5ZM5 3.5H4V4.5H5V3.5ZM4.5 3V4H5.5V3H4.5ZM4 3.5H5V2.5H4V3.5ZM3.5 2V3H4.5V2H3.5Z" fill="#7B716A" fill-opacity="0.66"/>
</g>
<path fill-rule="evenodd" clip-rule="evenodd" d="M3.5 4C3.77614 4 4 3.77614 4 3.5C4 3.22386 3.77614 3 3.5 3C3.22386 3 3 3.22386 3 3.5C3 3.77614 3.22386 4 3.5 4Z" fill="#7B716A"/>
</g>
</g>
<defs>
<clipPath id="clip0_7792_50322">
<rect width="21" height="15" fill="white"/>
</clipPath>
</defs>
</svg>
