<svg width="21" height="15" viewBox="0 0 21 15" fill="none" xmlns="http://www.w3.org/2000/svg">
<g clip-path="url(#clip0_7792_50336)">
<path d="M19.5 0.1875H1.5C0.775126 0.1875 0.1875 0.775126 0.1875 1.5V13.5C0.1875 14.2249 0.775126 14.8125 1.5 14.8125H19.5C20.2249 14.8125 20.8125 14.2249 20.8125 13.5V1.5C20.8125 0.775126 20.2249 0.1875 19.5 0.1875Z" fill="white" stroke="#F5F5F5" stroke-width="0.5"/>
<mask id="mask0_7792_50336" style="mask-type:alpha" maskUnits="userSpaceOnUse" x="-1" y="-1" width="23" height="17">
<path d="M19.5 0.1875H1.5C0.775126 0.1875 0.1875 0.775126 0.1875 1.5V13.5C0.1875 14.2249 0.775126 14.8125 1.5 14.8125H19.5C20.2249 14.8125 20.8125 14.2249 20.8125 13.5V1.5C20.8125 0.775126 20.2249 0.1875 19.5 0.1875Z" fill="white" stroke="white" stroke-width="0.5"/>
</mask>
<g mask="url(#mask0_7792_50336)">
<path d="M21 0H14V15H21V0Z" fill="#E3283E"/>
<path fill-rule="evenodd" clip-rule="evenodd" d="M0 15H7V0H0V15Z" fill="#128A60"/>
<path d="M9.00005 7C9.00005 6.72385 8.77617 6.5 8.50002 6.5C8.22387 6.5 8 6.72385 8 7H9.00005ZM9.2468 9.16359C9.48568 9.30219 9.7916 9.22089 9.9302 8.98201C10.0688 8.74321 9.9875 8.43721 9.7487 8.29861L9.2468 9.16359ZM11.3067 8.26486C11.0742 8.41366 11.0062 8.72289 11.1549 8.95546C11.3037 9.18811 11.613 9.25606 11.8455 9.10734L11.3067 8.26486ZM13 7C13 6.72385 12.7761 6.5 12.5 6.5C12.2239 6.5 12 6.72385 12 7H13ZM8 7C8 7.92481 8.50243 8.73166 9.2468 9.16359L9.7487 8.29861C9.29998 8.03829 9.00005 7.55386 9.00005 7H8ZM11.8455 9.10734C12.5387 8.66401 13 7.88604 13 7H12C12 7.53076 11.7247 7.99756 11.3067 8.26486L11.8455 9.10734Z" fill="#8C9157"/>
<path fill-rule="evenodd" clip-rule="evenodd" d="M10.5 8.00001C11.0523 8.00001 11.5 7.32843 11.5 6.5C11.5 5.67157 11.0523 5 10.5 5C9.94767 5 9.5 5.67157 9.5 6.5C9.5 7.32843 9.94767 8.00001 10.5 8.00001Z" fill="#C59262"/>
</g>
</g>
<defs>
<clipPath id="clip0_7792_50336">
<rect width="21" height="15" fill="white"/>
</clipPath>
</defs>
</svg>
