<svg width="21" height="15" viewBox="0 0 21 15" fill="none" xmlns="http://www.w3.org/2000/svg">
<g clip-path="url(#clip0_7792_50346)">
<path d="M19.5 0H1.5C0.671573 0 0 0.671573 0 1.5V13.5C0 14.3284 0.671573 15 1.5 15H19.5C20.3284 15 21 14.3284 21 13.5V1.5C21 0.671573 20.3284 0 19.5 0Z" fill="white"/>
<mask id="mask0_7792_50346" style="mask-type:alpha" maskUnits="userSpaceOnUse" x="0" y="0" width="21" height="15">
<path d="M19.5 0H1.5C0.671573 0 0 0.671573 0 1.5V13.5C0 14.3284 0.671573 15 1.5 15H19.5C20.3284 15 21 14.3284 21 13.5V1.5C21 0.671573 20.3284 0 19.5 0Z" fill="white"/>
</mask>
<g mask="url(#mask0_7792_50346)">
<path fill-rule="evenodd" clip-rule="evenodd" d="M21 0H9.99998V0.999997H21V0ZM21 2H9.99998V3H21V2ZM9.99998 4H21V5H9.99998V4ZM21 6H9.99998V7H21V6ZM0 8.00002H21V9H0V8.00002ZM21 9.99998H0V11H21V9.99998ZM0 12H21V13H0V12ZM21 14H0V15H21V14Z" fill="#E1244A"/>
<path d="M12 0H0V8.00002H12V0Z" fill="#0C3F8E"/>
<path fill-rule="evenodd" clip-rule="evenodd" d="M5 7C5.70883 7 6.36024 6.75417 6.87363 6.34311C6.60168 6.44455 6.30731 6.5 6 6.5C4.61929 6.5 3.5 5.38071 3.5 4C3.5 2.61929 4.61929 1.5 6 1.5C6.30731 1.5 6.60168 1.55545 6.87363 1.6569C6.36024 1.24584 5.70883 1 5 1C3.34314 1 2 2.34314 2 4C2 5.65686 3.34314 7 5 7ZM7.13223 5.80194L8.00003 4.82L8.86778 5.80194L8.64113 4.51127L9.94988 4.44504L8.79945 3.81753L9.56363 2.75302L8.35575 3.2612L8.00003 2.00001L7.64423 3.2612L6.43633 2.75302L7.20056 3.81753L6.05014 4.44504L7.35889 4.51127L7.13223 5.80194Z" fill="#FFD34F"/>
</g>
</g>
<defs>
<clipPath id="clip0_7792_50346">
<rect width="21" height="15" fill="white"/>
</clipPath>
</defs>
</svg>
