<svg width="21" height="15" viewBox="0 0 21 15" fill="none" xmlns="http://www.w3.org/2000/svg">
<g clip-path="url(#clip0_7792_50383)">
<path d="M19.5 0.1875H1.5C0.775126 0.1875 0.1875 0.775126 0.1875 1.5V13.5C0.1875 14.2249 0.775126 14.8125 1.5 14.8125H19.5C20.2249 14.8125 20.8125 14.2249 20.8125 13.5V1.5C20.8125 0.775126 20.2249 0.1875 19.5 0.1875Z" fill="white" stroke="#F5F5F5" stroke-width="0.5"/>
<mask id="mask0_7792_50383" style="mask-type:alpha" maskUnits="userSpaceOnUse" x="-1" y="-1" width="23" height="17">
<path d="M19.5 0.1875H1.5C0.775126 0.1875 0.1875 0.775126 0.1875 1.5V13.5C0.1875 14.2249 0.775126 14.8125 1.5 14.8125H19.5C20.2249 14.8125 20.8125 14.2249 20.8125 13.5V1.5C20.8125 0.775126 20.2249 0.1875 19.5 0.1875Z" fill="white" stroke="white" stroke-width="0.5"/>
</mask>
<g mask="url(#mask0_7792_50383)">
<path fill-rule="evenodd" clip-rule="evenodd" d="M0 15H21V7H9.3333L9.99998 7.5L0 15Z" fill="#DD1C34"/>
<path fill-rule="evenodd" clip-rule="evenodd" d="M21 7H9.3333L0 0H21V7Z" fill="#0D4BC3"/>
<path fill-rule="evenodd" clip-rule="evenodd" d="M1.5 3C1.77614 3 2.00001 2.77614 2.00001 2.49999C2.00001 2.22385 1.77614 2 1.5 2C1.22386 2 1 2.22385 1 2.49999C1 2.77614 1.22386 3 1.5 3ZM7.5 8.00001C7.77615 8.00001 8.00002 7.77613 8.00002 7.49998C8.00002 7.22386 7.77615 7 7.5 7C7.22386 7 7 7.22386 7 7.49998C7 7.77613 7.22386 8.00001 7.5 8.00001ZM2.00001 12.5C2.00001 12.7762 1.77614 13 1.5 13C1.22386 13 1 12.7762 1 12.5C1 12.2239 1.22386 12 1.5 12C1.77614 12 2.00001 12.2239 2.00001 12.5ZM3.39906 8.49493L2.5433 9.80968L2.86784 8.27488C2.81561 8.23221 2.76778 8.18436 2.72513 8.13216L1.1903 8.45668L2.50503 7.60093C2.50171 7.56778 2.5 7.53411 2.5 7.49998C2.5 7.46593 2.50171 7.43225 2.50503 7.39906L1.1903 6.54329L2.72513 6.86784C2.76778 6.81561 2.81561 6.76778 2.86784 6.72512L2.5433 5.1903L3.39906 6.50503C3.43226 6.5017 3.46593 6.5 3.5 6.5C3.53408 6.5 3.56775 6.5017 3.60095 6.50503L4.45671 5.1903L4.13216 6.72512C4.18439 6.76778 4.23222 6.81561 4.27488 6.86784L5.8097 6.54329L4.49497 7.39906C4.4983 7.43225 4.5 7.46593 4.5 7.49998C4.5 7.53411 4.4983 7.56778 4.49497 7.60093L5.8097 8.45668L4.27488 8.13216C4.23222 8.18436 4.18439 8.23221 4.13216 8.27488L4.45671 9.80968L3.60095 8.49493C3.56775 8.49831 3.53408 8.50003 3.5 8.50003C3.46593 8.50003 3.43226 8.49831 3.39906 8.49493Z" fill="#FDD64D"/>
</g>
</g>
<defs>
<clipPath id="clip0_7792_50383">
<rect width="21" height="15" fill="white"/>
</clipPath>
</defs>
</svg>
