<svg width="21" height="15" viewBox="0 0 21 15" fill="none" xmlns="http://www.w3.org/2000/svg">
<g clip-path="url(#clip0_7792_50399)">
<path d="M19.5 0.1875H1.5C0.775126 0.1875 0.1875 0.775126 0.1875 1.5V13.5C0.1875 14.2249 0.775126 14.8125 1.5 14.8125H19.5C20.2249 14.8125 20.8125 14.2249 20.8125 13.5V1.5C20.8125 0.775126 20.2249 0.1875 19.5 0.1875Z" fill="white" stroke="#F5F5F5" stroke-width="0.5"/>
<mask id="mask0_7792_50399" style="mask-type:alpha" maskUnits="userSpaceOnUse" x="-1" y="-1" width="22" height="16">
<path d="M19.3125 0H1.3125C0.587626 0 0 0.587626 0 1.3125V13.3125C0 14.0374 0.587626 14.625 1.3125 14.625H19.3125C20.0374 14.625 20.625 14.0374 20.625 13.3125V1.3125C20.625 0.587626 20.0374 0 19.3125 0Z" fill="white" stroke="white" stroke-width="0.5"/>
</mask>
<g mask="url(#mask0_7792_50399)">
<path fill-rule="evenodd" clip-rule="evenodd" d="M20.8125 6.8125H9.8125V-0.1875H20.8125V6.8125Z" fill="#E52448"/>
<path fill-rule="evenodd" clip-rule="evenodd" d="M9.81248 14.8125H-0.1875V6.8125H9.81248V14.8125Z" fill="#1367AE"/>
<path fill-rule="evenodd" clip-rule="evenodd" d="M4.81617 4.1325L3.6406 4.93054L4.0363 3.5659L2.91406 2.69446L4.33419 2.64911L4.81617 1.3125L5.29816 2.64911L6.71829 2.69446L5.59604 3.5659L5.99174 4.93054L4.81617 4.1325Z" fill="#1367AE"/>
<path fill-rule="evenodd" clip-rule="evenodd" d="M15.3162 11.6325L14.1406 12.4305L14.5363 11.0659L13.4141 10.1944L14.8342 10.1491L15.3162 8.8125L15.7982 10.1491L17.2183 10.1944L16.0961 11.0659L16.4918 12.4305L15.3162 11.6325Z" fill="#E52448"/>
</g>
</g>
<defs>
<clipPath id="clip0_7792_50399">
<rect width="21" height="15" fill="white"/>
</clipPath>
</defs>
</svg>
