<svg width="21" height="15" viewBox="0 0 21 15" fill="none" xmlns="http://www.w3.org/2000/svg">
<g clip-path="url(#clip0_7792_50409)">
<path d="M19.5 0.1875H1.5C0.775126 0.1875 0.1875 0.775126 0.1875 1.5V13.5C0.1875 14.2249 0.775126 14.8125 1.5 14.8125H19.5C20.2249 14.8125 20.8125 14.2249 20.8125 13.5V1.5C20.8125 0.775126 20.2249 0.1875 19.5 0.1875Z" fill="white" stroke="#F5F5F5" stroke-width="0.5"/>
<mask id="mask0_7792_50409" style="mask-type:alpha" maskUnits="userSpaceOnUse" x="-1" y="-1" width="22" height="16">
<path d="M19.3125 0H1.3125C0.587626 0 0 0.587626 0 1.3125V13.3125C0 14.0374 0.587626 14.625 1.3125 14.625H19.3125C20.0374 14.625 20.625 14.0374 20.625 13.3125V1.3125C20.625 0.587626 20.0374 0 19.3125 0Z" fill="white" stroke="white" stroke-width="0.5"/>
</mask>
<g mask="url(#mask0_7792_50409)">
<path fill-rule="evenodd" clip-rule="evenodd" d="M5.8125 -0.1875H-0.1875V5.8125H5.8125V-0.1875ZM8.8125 -0.1875V5.8125H20.8125V-0.1875H8.8125ZM20.8125 8.8125H8.8125V14.8125H20.8125V8.8125ZM5.8125 14.8125V8.8125H-0.1875V14.8125H5.8125Z" fill="#F14247"/>
<path fill-rule="evenodd" clip-rule="evenodd" d="M-0.1875 7.81252H6.8125V14.8125H7.81252V7.81252H20.8125V6.8125H7.81252V-0.1875H6.8125V6.8125H-0.1875V7.81252Z" fill="#0A3A85"/>
</g>
</g>
<defs>
<clipPath id="clip0_7792_50409">
<rect width="21" height="15" fill="white"/>
</clipPath>
</defs>
</svg>
