<svg width="21" height="15" viewBox="0 0 21 15" fill="none" xmlns="http://www.w3.org/2000/svg">
<g clip-path="url(#clip0_7792_50457)">
<path d="M19.5 0.1875H1.5C0.775126 0.1875 0.1875 0.775126 0.1875 1.5V13.5C0.1875 14.2249 0.775126 14.8125 1.5 14.8125H19.5C20.2249 14.8125 20.8125 14.2249 20.8125 13.5V1.5C20.8125 0.775126 20.2249 0.1875 19.5 0.1875Z" fill="white" stroke="#F5F5F5" stroke-width="0.5"/>
<mask id="mask0_7792_50457" style="mask-type:alpha" maskUnits="userSpaceOnUse" x="-1" y="-1" width="23" height="17">
<path d="M19.5 0.1875H1.5C0.775126 0.1875 0.1875 0.775126 0.1875 1.5V13.5C0.1875 14.2249 0.775126 14.8125 1.5 14.8125H19.5C20.2249 14.8125 20.8125 14.2249 20.8125 13.5V1.5C20.8125 0.775126 20.2249 0.1875 19.5 0.1875Z" fill="white" stroke="white" stroke-width="0.5"/>
</mask>
<g mask="url(#mask0_7792_50457)">
<path fill-rule="evenodd" clip-rule="evenodd" d="M0 10H21V5H0V10Z" fill="#17508F"/>
<path fill-rule="evenodd" clip-rule="evenodd" d="M0 5H21V0H0V5Z" fill="#E1444D"/>
<path fill-rule="evenodd" clip-rule="evenodd" d="M4.5 7.49998C4.5 7.01621 4.75774 5.93838 4.90312 5.36892C4.95886 5.15063 5.15621 5 5.38151 5H7.6194C7.84425 5 8.04135 5.15003 8.0973 5.36782C8.24273 5.93396 8.49997 7.00515 8.49997 7.49998C8.49997 8.05873 8.12475 9.52558 8.0244 9.90786C8.00827 9.96928 7.9809 10.0258 7.9404 10.0747C7.74878 10.3069 7.12438 11 6.5 11C5.87523 11 5.25046 10.306 5.05924 10.0744C5.01901 10.0256 4.99169 9.96951 4.97554 9.90846C4.87513 9.52888 4.5 8.07261 4.5 7.49998Z" fill="white"/>
<mask id="mask1_7792_50457" style="mask-type:alpha" maskUnits="userSpaceOnUse" x="4" y="5" width="5" height="6">
<path fill-rule="evenodd" clip-rule="evenodd" d="M4.5 7.49998C4.5 7.01621 4.75774 5.93838 4.90312 5.36892C4.95886 5.15063 5.15621 5 5.38151 5H7.6194C7.84425 5 8.04135 5.15003 8.0973 5.36782C8.24273 5.93396 8.49997 7.00515 8.49997 7.49998C8.49997 8.05873 8.12475 9.52558 8.0244 9.90786C8.00827 9.96928 7.9809 10.0258 7.9404 10.0747C7.74878 10.3069 7.12438 11 6.5 11C5.87523 11 5.25046 10.306 5.05924 10.0744C5.01901 10.0256 4.99169 9.96951 4.97554 9.90846C4.87513 9.52888 4.5 8.07261 4.5 7.49998Z" fill="white"/>
</mask>
<g mask="url(#mask1_7792_50457)">
<path d="M8.49997 5.5L4.5 10.5" stroke="#E1444D" stroke-width="1.33333" stroke-linecap="square"/>
<path d="M4.5 5.5L8.49997 10.5" stroke="#E1444D" stroke-width="1.33333" stroke-linecap="square"/>
</g>
</g>
</g>
<defs>
<clipPath id="clip0_7792_50457">
<rect width="21" height="15" fill="white"/>
</clipPath>
</defs>
</svg>
