<svg width="21" height="15" viewBox="0 0 21 15" fill="none" xmlns="http://www.w3.org/2000/svg">
<g clip-path="url(#clip0_7792_50472)">
<path d="M19.5 0H1.5C0.671573 0 0 0.671573 0 1.5V13.5C0 14.3284 0.671573 15 1.5 15H19.5C20.3284 15 21 14.3284 21 13.5V1.5C21 0.671573 20.3284 0 19.5 0Z" fill="white"/>
<mask id="mask0_7792_50472" style="mask-type:alpha" maskUnits="userSpaceOnUse" x="0" y="0" width="21" height="15">
<path d="M19.5 0H1.5C0.671573 0 0 0.671573 0 1.5V13.5C0 14.3284 0.671573 15 1.5 15H19.5C20.3284 15 21 14.3284 21 13.5V1.5C21 0.671573 20.3284 0 19.5 0Z" fill="white"/>
</mask>
<g mask="url(#mask0_7792_50472)">
<path d="M21 0H0V15H21V0Z" fill="#128C4B"/>
<path fill-rule="evenodd" clip-rule="evenodd" d="M5 8.99631H13V8.30533C13 7.93363 13.3912 7.69191 13.7236 7.85811L14 7.99633V8.99631H15.5C15.7761 8.99631 16 9.22018 16 9.49633V9.99636C16 10.5486 15.5523 10.9963 15 10.9963H13.5C13.2239 10.9963 13 10.7725 13 10.4963V9.99636H6.2071C6.07449 9.99636 5.94732 9.94363 5.85355 9.84988L5 8.99631Z" fill="white"/>
<path fill-rule="evenodd" clip-rule="evenodd" d="M5 6.10355C5 6.03726 5.02634 5.97366 5.07322 5.92678L5.32322 5.67678C5.42086 5.57915 5.42086 5.42086 5.32322 5.32322L5.07322 5.07323C5.02634 5.02634 5 4.96275 5 4.89645V4.25C5 4.11193 5.11192 4 5.25 4H5.80902C5.91449 4 6 4.08551 6 4.19099C6 4.39251 6.27168 4.45665 6.3618 4.2764L6.43634 4.12733C6.47536 4.04929 6.5551 4 6.64235 4H7.74998C7.88805 4 8.00003 4.11193 8.00003 4.25C8.00003 4.38807 7.88805 4.5 7.74998 4.5H7.25C7.11193 4.5 6.99999 4.61193 6.99999 4.75C6.99999 4.88807 7.11193 5 7.25 5H7.74998C7.88805 5 8.00003 5.11193 8.00003 5.25V6.75C8.00003 6.88807 7.88805 7 7.74998 7H7.25C7.11193 7 6.99999 6.88807 6.99999 6.75V6.25C6.99999 6.11193 7.11193 6 7.25 6C7.38807 6 7.5 5.88807 7.5 5.75C7.5 5.61193 7.38807 5.5 7.25 5.5H6.75C6.61193 5.5 6.5 5.61193 6.5 5.75V6.75C6.5 6.88807 6.38807 7 6.24999 7C6.11193 7 6 6.88807 6 6.75V6.25C6 6.11193 5.88807 6 5.75 6C5.61193 6 5.5 6.11193 5.5 6.25V6.75C5.5 6.88807 5.38807 7 5.25 7C5.11192 7 5 6.88807 5 6.75V6.10355Z" fill="white"/>
<path fill-rule="evenodd" clip-rule="evenodd" d="M13 6.10355C13 6.03726 13.0264 5.97366 13.0733 5.92678L13.3232 5.67678C13.4209 5.57915 13.4209 5.42086 13.3232 5.32322L13.0733 5.07323C13.0264 5.02634 13 4.96275 13 4.89645V4.25C13 4.11193 13.112 4 13.2501 4H13.809C13.9146 4 14.0001 4.08551 14.0001 4.19099C14.0001 4.39251 14.2717 4.45665 14.3618 4.2764L14.4364 4.12733C14.4754 4.04929 14.5551 4 14.6424 4H15.75C15.8881 4 16 4.11193 16 4.25C16 4.38807 15.8881 4.5 15.75 4.5H15.25C15.1119 4.5 15 4.61193 15 4.75C15 4.88807 15.1119 5 15.25 5H15.75C15.8881 5 16 5.11193 16 5.25V6.75C16 6.88807 15.8881 7 15.75 7H15.25C15.1119 7 15 6.88807 15 6.75V6.25C15 6.11193 15.1119 6 15.25 6C15.3881 6 15.5001 5.88807 15.5001 5.75C15.5001 5.61193 15.3881 5.5 15.25 5.5H14.7501C14.612 5.5 14.5 5.61193 14.5 5.75V6.75C14.5 6.88807 14.3881 7 14.25 7C14.112 7 14.0001 6.88807 14.0001 6.75V6.25C14.0001 6.11193 13.8881 6 13.75 6C13.6119 6 13.5 6.11193 13.5 6.25V6.75C13.5 6.88807 13.3881 7 13.2501 7C13.112 7 13 6.88807 13 6.75V6.10355Z" fill="white"/>
<path fill-rule="evenodd" clip-rule="evenodd" d="M12 4.74766C12 4.88703 11.9219 5.07812 11.8195 5.18051L11.6805 5.31949C11.5808 5.41919 11.5781 5.57813 11.6805 5.68051L11.8195 5.81949C11.9192 5.91918 12 6.10702 12 6.25235V6.74766C12 6.88703 11.893 7 11.7476 7H11.2523C11.113 7 11 6.89298 11 6.74766V6.25235C11 6.11298 10.9538 6.09229 10.884 6.23193L10.616 6.76807C10.5519 6.89616 10.3823 7 10.2523 7H9.24773C9.11093 7 9 6.88403 9 6.75C9 6.61193 9.10703 6.5 9.25238 6.5H9.74767C9.88702 6.5 9.99997 6.38403 9.99997 6.25C9.99997 6.11193 9.89295 6 9.74767 6H9.25238C9.11295 6 9 5.89247 9 5.75476V4.24524C9 4.1098 9.10703 4 9.25238 4H9.74767C9.88702 4 9.99997 4.10702 9.99997 4.25234V4.74766C9.99997 4.88703 9.88402 5 9.75 5C9.61193 5 9.50003 5.11597 9.50003 5.25C9.50003 5.38807 9.60705 5.5 9.75233 5.5H10.2476C10.387 5.5 10.5 5.3823 10.5 5.2523V4.24769C10.5 4.1109 10.6159 4 10.75 4C10.888 4 11 4.10702 11 4.25234V4.74766C11 4.88703 11.116 5 11.25 5C11.3881 5 11.5 4.89299 11.5 4.74766V4.25234C11.5 4.11298 11.616 4 11.75 4C11.8881 4 12 4.10702 12 4.25234V4.74766Z" fill="white"/>
</g>
</g>
<defs>
<clipPath id="clip0_7792_50472">
<rect width="21" height="15" fill="white"/>
</clipPath>
</defs>
</svg>
