<svg width="21" height="15" viewBox="0 0 21 15" fill="none" xmlns="http://www.w3.org/2000/svg">
<g clip-path="url(#clip0_7792_50491)">
<path d="M19.5 0.1875H1.5C0.775126 0.1875 0.1875 0.775126 0.1875 1.5V13.5C0.1875 14.2249 0.775126 14.8125 1.5 14.8125H19.5C20.2249 14.8125 20.8125 14.2249 20.8125 13.5V1.5C20.8125 0.775126 20.2249 0.1875 19.5 0.1875Z" fill="white" stroke="#F5F5F5" stroke-width="0.5"/>
<mask id="mask0_7792_50491" style="mask-type:alpha" maskUnits="userSpaceOnUse" x="-1" y="-1" width="23" height="17">
<path d="M19.5 0.1875H1.5C0.775126 0.1875 0.1875 0.775126 0.1875 1.5V13.5C0.1875 14.2249 0.775126 14.8125 1.5 14.8125H19.5C20.2249 14.8125 20.8125 14.2249 20.8125 13.5V1.5C20.8125 0.775126 20.2249 0.1875 19.5 0.1875Z" fill="white" stroke="white" stroke-width="0.5"/>
</mask>
<g mask="url(#mask0_7792_50491)">
<path fill-rule="evenodd" clip-rule="evenodd" d="M0 8.00002H21V0H0V8.00002Z" fill="#E12237"/>
<path fill-rule="evenodd" clip-rule="evenodd" d="M5 7C5.70883 7 6.36024 6.75417 6.87363 6.34311C6.60168 6.44455 6.30731 6.5 6 6.5C4.61929 6.5 3.5 5.38071 3.5 4C3.5 2.61929 4.61929 1.5 6 1.5C6.30731 1.5 6.60168 1.55545 6.87363 1.65689C6.36024 1.24583 5.70883 1 5 1C3.34314 1 2 2.34314 2 4C2 5.65686 3.34314 7 5 7ZM6 3.50001C6 3.77615 5.77614 4 5.5 4C5.22385 4 5 3.77615 5 3.50001C5 3.22386 5.22385 3 5.5 3C5.77614 3 6 3.22386 6 3.50001ZM6.5 6C6.77614 6 6.99999 5.77614 6.99999 5.5C6.99999 5.22386 6.77614 5 6.5 5C6.22386 5 6 5.22386 6 5.5C6 5.77614 6.22386 6 6.5 6ZM9 5.5C9 5.77614 8.77613 6 8.49998 6C8.22383 6 8.00003 5.77614 8.00003 5.5C8.00003 5.22386 8.22383 5 8.49998 5C8.77613 5 9 5.22386 9 5.5ZM9.50003 4C9.7761 4 9.99998 3.77615 9.99998 3.50001C9.99998 3.22386 9.7761 3 9.50003 3C9.22388 3 9 3.22386 9 3.50001C9 3.77615 9.22388 4 9.50003 4ZM8.00003 2.00001C8.00003 2.27615 7.77615 2.5 7.5 2.5C7.22386 2.5 6.99999 2.27615 6.99999 2.00001C6.99999 1.72386 7.22386 1.5 7.5 1.5C7.77615 1.5 8.00003 1.72386 8.00003 2.00001Z" fill="white"/>
</g>
</g>
<defs>
<clipPath id="clip0_7792_50491">
<rect width="21" height="15" fill="white"/>
</clipPath>
</defs>
</svg>
