<svg width="21" height="15" viewBox="0 0 21 15" fill="none" xmlns="http://www.w3.org/2000/svg">
<g clip-path="url(#clip0_7792_50499)">
<path d="M19.5 0.1875H1.5C0.775126 0.1875 0.1875 0.775126 0.1875 1.5V13.5C0.1875 14.2249 0.775126 14.8125 1.5 14.8125H19.5C20.2249 14.8125 20.8125 14.2249 20.8125 13.5V1.5C20.8125 0.775126 20.2249 0.1875 19.5 0.1875Z" fill="white" stroke="#F5F5F5" stroke-width="0.5"/>
<mask id="mask0_7792_50499" style="mask-type:alpha" maskUnits="userSpaceOnUse" x="-1" y="-1" width="23" height="17">
<path d="M19.5 0.1875H1.5C0.775126 0.1875 0.1875 0.775126 0.1875 1.5V13.5C0.1875 14.2249 0.775126 14.8125 1.5 14.8125H19.5C20.2249 14.8125 20.8125 14.2249 20.8125 13.5V1.5C20.8125 0.775126 20.2249 0.1875 19.5 0.1875Z" fill="white" stroke="white" stroke-width="0.5"/>
</mask>
<g mask="url(#mask0_7792_50499)">
<path fill-rule="evenodd" clip-rule="evenodd" d="M0 10H21V5H0V10Z" fill="#0C47B7"/>
<path fill-rule="evenodd" clip-rule="evenodd" d="M0 15H21V10H0V15Z" fill="#E53B35"/>
<path d="M5.21006 2.5C4.40407 2.5 3.74215 3.13695 3.71117 3.94236L3.51674 8.99768C3.49913 9.45548 3.69164 9.8961 4.03944 10.1942L6.1962 12.0429C6.94518 12.6849 8.05038 12.6849 8.79941 12.0429L10.9561 10.1942C11.304 9.8961 11.4964 9.45548 11.4789 8.99768L11.2844 3.94236C11.2534 3.13695 10.5915 2.5 9.7855 2.5H5.21006Z" fill="#F73744" stroke="white" stroke-width="1.33333"/>
<mask id="mask1_7792_50499" style="mask-type:alpha" maskUnits="userSpaceOnUse" x="2" y="1" width="11" height="13">
<path d="M5.21006 2.5C4.40407 2.5 3.74215 3.13695 3.71117 3.94236L3.51674 8.99768C3.49913 9.45548 3.69164 9.8961 4.03944 10.1942L6.1962 12.0429C6.94518 12.6849 8.05038 12.6849 8.79941 12.0429L10.9561 10.1942C11.304 9.8961 11.4964 9.45548 11.4789 8.99768L11.2844 3.94236C11.2534 3.13695 10.5915 2.5 9.7855 2.5H5.21006Z" fill="white" stroke="white" stroke-width="1.33333"/>
</mask>
<g mask="url(#mask1_7792_50499)">
<path fill-rule="evenodd" clip-rule="evenodd" d="M7 8.24997C7 8.1119 6.88807 8 6.75 8H5.75C5.61193 8 5.5 7.8881 5.5 7.75002V7.25C5.5 7.11193 5.61193 7 5.75 7H6.75C6.88807 7 7 6.88808 7 6.75V6.25C7 6.11193 6.88807 6 6.75 6H6.25C6.11193 6 6 5.88807 6 5.75V5.25C6 5.11193 6.11193 5 6.25 5H6.75C6.88807 5 7 4.88807 7 4.75V4.25C7 4.11193 7.11193 4 7.25 4H7.74999C7.88807 4 7.99997 4.11193 7.99997 4.25V4.75C7.99997 4.88807 8.11194 5 8.25002 5H8.74997C8.88804 5 9.00002 5.11193 9.00002 5.25V5.75C9.00002 5.88807 8.88804 6 8.74997 6H8.25002C8.11194 6 7.99997 6.11193 7.99997 6.25V6.75C7.99997 6.88808 8.11194 7 8.25002 7H9.24999C9.38807 7 9.49997 7.11193 9.49997 7.25V7.75002C9.49997 7.8881 9.38807 8 9.24999 8H8.25002C8.11194 8 7.99997 8.1119 7.99997 8.24997V9.74997C7.99997 9.88805 7.88807 10 7.74999 10H7.25C7.11193 10 7 9.88805 7 9.74997V8.24997Z" fill="white"/>
<path fill-rule="evenodd" clip-rule="evenodd" d="M8.40262 10.0691C8.24167 9.7325 7.89803 9.5 7.5 9.5C7.10201 9.5 6.75832 9.7325 6.59735 10.0691C5.38159 10.2606 4.5 10.8288 4.5 11.5C4.5 12.3285 5.84314 13 7.5 13C9.15683 13 10.5 12.3285 10.5 11.5C10.5 10.8288 9.61845 10.2606 8.40262 10.0691Z" fill="#1251A1"/>
</g>
</g>
</g>
<defs>
<clipPath id="clip0_7792_50499">
<rect width="21" height="15" fill="white"/>
</clipPath>
</defs>
</svg>
