<svg width="21" height="15" viewBox="0 0 21 15" fill="none" xmlns="http://www.w3.org/2000/svg">
<g clip-path="url(#clip0_7792_50531)">
<path d="M19.5 0H1.5C0.671573 0 0 0.671573 0 1.5V13.5C0 14.3284 0.671573 15 1.5 15H19.5C20.3284 15 21 14.3284 21 13.5V1.5C21 0.671573 20.3284 0 19.5 0Z" fill="white"/>
<mask id="mask0_7792_50531" style="mask-type:alpha" maskUnits="userSpaceOnUse" x="0" y="0" width="21" height="15">
<path d="M19.5 0H1.5C0.671573 0 0 0.671573 0 1.5V13.5C0 14.3284 0.671573 15 1.5 15H19.5C20.3284 15 21 14.3284 21 13.5V1.5C21 0.671573 20.3284 0 19.5 0Z" fill="white"/>
</mask>
<g mask="url(#mask0_7792_50531)">
<path d="M21 0H0V15H21V0Z" fill="#E92434"/>
<path fill-rule="evenodd" clip-rule="evenodd" d="M14.2694 8.07588L13.3508 9.18963L13.4134 7.7473L12.0703 7.2178L13.4613 6.83161L13.5499 5.39062L14.3471 6.59428L15.7449 6.2332L14.8464 7.3633L15.6219 8.58108L14.2694 8.07588Z" fill="white"/>
<path fill-rule="evenodd" clip-rule="evenodd" d="M13.0521 10.2631C12.2287 11.3201 10.9437 12 9.50001 12C7.01472 12 5 9.98527 5 7.5C5 5.01472 7.01472 3 9.50001 3C10.9437 3 12.2287 3.67987 13.0521 4.73691C12.4167 4.27508 11.6177 4 10.75 4C8.67891 4 7 5.567 7 7.5C7 9.43297 8.67891 11 10.75 11C11.6177 11 12.4167 10.7249 13.0521 10.2631Z" fill="white"/>
</g>
</g>
<defs>
<clipPath id="clip0_7792_50531">
<rect width="21" height="15" fill="white"/>
</clipPath>
</defs>
</svg>
