<svg width="21" height="15" viewBox="0 0 21 15" fill="none" xmlns="http://www.w3.org/2000/svg">
<g clip-path="url(#clip0_7792_50549)">
<path d="M19.5 0H1.5C0.671573 0 0 0.671573 0 1.5V13.5C0 14.3284 0.671573 15 1.5 15H19.5C20.3284 15 21 14.3284 21 13.5V1.5C21 0.671573 20.3284 0 19.5 0Z" fill="white"/>
<mask id="mask0_7792_50549" style="mask-type:alpha" maskUnits="userSpaceOnUse" x="0" y="0" width="21" height="15">
<path d="M19.5 0H1.5C0.671573 0 0 0.671573 0 1.5V13.5C0 14.3284 0.671573 15 1.5 15H19.5C20.3284 15 21 14.3284 21 13.5V1.5C21 0.671573 20.3284 0 19.5 0Z" fill="white"/>
</mask>
<g mask="url(#mask0_7792_50549)">
<path fill-rule="evenodd" clip-rule="evenodd" d="M21 0H0V0.999997H21V0ZM21 2H0V3H21V2ZM0 4H21V5H0V4ZM21 6H0V7H21V6ZM0 8.00002H21V9H0V8.00002ZM21 9.99998H0V11H21V9.99998ZM0 12H21V13H0V12ZM21 14H0V15H21V14Z" fill="#D02F44"/>
<path d="M9 0H0V7H9V0Z" fill="#46467F"/>
<g filter="url(#filter0_d_7792_50549)">
<path fill-rule="evenodd" clip-rule="evenodd" d="M2.00001 1.5C2.00001 1.77615 1.77614 2.00001 1.5 2.00001C1.22386 2.00001 1 1.77615 1 1.5C1 1.22386 1.22386 1 1.5 1C1.77614 1 2.00001 1.22386 2.00001 1.5ZM4 1.5C4 1.77615 3.77615 2.00001 3.5 2.00001C3.22386 2.00001 3 1.77615 3 1.5C3 1.22386 3.22386 1 3.5 1C3.77615 1 4 1.22386 4 1.5ZM5.5 2.00001C5.77614 2.00001 6 1.77615 6 1.5C6 1.22386 5.77614 1 5.5 1C5.22386 1 5 1.22386 5 1.5C5 1.77615 5.22386 2.00001 5.5 2.00001ZM8.00002 1.5C8.00002 1.77615 7.77615 2.00001 7.5 2.00001C7.22386 2.00001 7 1.77615 7 1.5C7 1.22386 7.22386 1 7.5 1C7.77615 1 8.00002 1.22386 8.00002 1.5ZM2.5 3C2.77614 3 3 2.77614 3 2.5C3 2.22386 2.77614 2.00001 2.5 2.00001C2.22386 2.00001 2.00001 2.22386 2.00001 2.5C2.00001 2.77614 2.22386 3 2.5 3ZM5 2.5C5 2.77614 4.77614 3 4.5 3C4.22386 3 4 2.77614 4 2.5C4 2.22386 4.22386 2.00001 4.5 2.00001C4.77614 2.00001 5 2.22386 5 2.5ZM6.50001 3C6.77615 3 7 2.77614 7 2.5C7 2.22386 6.77615 2.00001 6.50001 2.00001C6.22386 2.00001 6 2.22386 6 2.5C6 2.77614 6.22386 3 6.50001 3ZM8.00002 3.50001C8.00002 3.77615 7.77615 4 7.5 4C7.22386 4 7 3.77615 7 3.50001C7 3.22386 7.22386 3 7.5 3C7.77615 3 8.00002 3.22386 8.00002 3.50001ZM5.5 4C5.77614 4 6 3.77615 6 3.50001C6 3.22386 5.77614 3 5.5 3C5.22386 3 5 3.22386 5 3.50001C5 3.77615 5.22386 4 5.5 4ZM4 3.50001C4 3.77615 3.77615 4 3.5 4C3.22386 4 3 3.77615 3 3.50001C3 3.22386 3.22386 3 3.5 3C3.77615 3 4 3.22386 4 3.50001ZM1.5 4C1.77614 4 2.00001 3.77615 2.00001 3.50001C2.00001 3.22386 1.77614 3 1.5 3C1.22386 3 1 3.22386 1 3.50001C1 3.77615 1.22386 4 1.5 4ZM3 4.5C3 4.77614 2.77614 5 2.5 5C2.22386 5 2.00001 4.77614 2.00001 4.5C2.00001 4.22386 2.22386 4 2.5 4C2.77614 4 3 4.22386 3 4.5ZM4.5 5C4.77614 5 5 4.77614 5 4.5C5 4.22386 4.77614 4 4.5 4C4.22386 4 4 4.22386 4 4.5C4 4.77614 4.22386 5 4.5 5ZM7 4.5C7 4.77614 6.77615 5 6.50001 5C6.22386 5 6 4.77614 6 4.5C6 4.22386 6.22386 4 6.50001 4C6.77615 4 7 4.22386 7 4.5ZM7.5 6C7.77615 6 8.00002 5.77614 8.00002 5.5C8.00002 5.22386 7.77615 5 7.5 5C7.22386 5 7 5.22386 7 5.5C7 5.77614 7.22386 6 7.5 6ZM6 5.5C6 5.77614 5.77614 6 5.5 6C5.22386 6 5 5.77614 5 5.5C5 5.22386 5.22386 5 5.5 5C5.77614 5 6 5.22386 6 5.5ZM3.5 6C3.77615 6 4 5.77614 4 5.5C4 5.22386 3.77615 5 3.5 5C3.22386 5 3 5.22386 3 5.5C3 5.77614 3.22386 6 3.5 6ZM2.00001 5.5C2.00001 5.77614 1.77614 6 1.5 6C1.22386 6 1 5.77614 1 5.5C1 5.22386 1.22386 5 1.5 5C1.77614 5 2.00001 5.22386 2.00001 5.5Z" fill="url(#paint0_linear_7792_50549)"/>
</g>
</g>
</g>
<defs>
<filter id="filter0_d_7792_50549" x="1" y="1" width="7" height="6" filterUnits="userSpaceOnUse" color-interpolation-filters="sRGB">
<feFlood flood-opacity="0" result="BackgroundImageFix"/>
<feColorMatrix in="SourceAlpha" type="matrix" values="0 0 0 0 0 0 0 0 0 0 0 0 0 0 0 0 0 0 127 0" result="hardAlpha"/>
<feOffset dy="1"/>
<feColorMatrix type="matrix" values="0 0 0 0 0 0 0 0 0 0 0 0 0 0 0 0 0 0 0.06 0"/>
<feBlend mode="normal" in2="BackgroundImageFix" result="effect1_dropShadow_7792_50549"/>
<feBlend mode="normal" in="SourceGraphic" in2="effect1_dropShadow_7792_50549" result="shape"/>
</filter>
<linearGradient id="paint0_linear_7792_50549" x1="1" y1="1" x2="1" y2="6" gradientUnits="userSpaceOnUse">
<stop stop-color="white"/>
<stop offset="1" stop-color="#F0F0F0"/>
</linearGradient>
<clipPath id="clip0_7792_50549">
<rect width="21" height="15" fill="white"/>
</clipPath>
</defs>
</svg>
