<svg width="21" height="15" viewBox="0 0 21 15" fill="none" xmlns="http://www.w3.org/2000/svg">
<g clip-path="url(#clip0_7792_50559)">
<path d="M19.5 0.1875H1.5C0.775126 0.1875 0.1875 0.775126 0.1875 1.5V13.5C0.1875 14.2249 0.775126 14.8125 1.5 14.8125H19.5C20.2249 14.8125 20.8125 14.2249 20.8125 13.5V1.5C20.8125 0.775126 20.2249 0.1875 19.5 0.1875Z" fill="white" stroke="#F5F5F5" stroke-width="0.5"/>
<mask id="mask0_7792_50559" style="mask-type:alpha" maskUnits="userSpaceOnUse" x="-1" y="-3" width="23" height="17">
<path d="M19.5 -1.8125H1.5C0.775126 -1.8125 0.1875 -1.22487 0.1875 -0.5V11.5C0.1875 12.2249 0.775126 12.8125 1.5 12.8125H19.5C20.2249 12.8125 20.8125 12.2249 20.8125 11.5V-0.5C20.8125 -1.22487 20.2249 -1.8125 19.5 -1.8125Z" fill="white" stroke="white" stroke-width="0.5"/>
</mask>
<g mask="url(#mask0_7792_50559)">
<path fill-rule="evenodd" clip-rule="evenodd" d="M21 0H9.99998V1.99999H21V0ZM9.99998 4V5.99998H21V4H9.99998ZM9.99998 8H0V10H21V8H9.99998ZM0 13V12H21V13H0Z" fill="#0E4DC5"/>
<path fill-rule="evenodd" clip-rule="evenodd" d="M5 4.9937L4.33243 5.99018L4.16334 4.80274L3.12953 5.4109L3.49239 4.26768L2.29709 4.36706L3.12005 3.49449L2 3.06541L3.12005 2.63632L2.29709 1.76375L3.49239 1.86314L3.12953 0.71991L4.16334 1.32807L4.33243 0.140625L5 1.13711L5.66756 0.140625L5.83665 1.32807L6.87047 0.71991L6.5076 1.86314L7.70288 1.76375L6.87995 2.63632L8.00003 3.06541L6.87995 3.49449L7.70288 4.36706L6.5076 4.26768L6.87047 5.4109L5.83665 4.80274L5.66756 5.99018L5 4.9937ZM5 4.97449C6.05436 4.97449 6.90909 4.11977 6.90909 3.06541C6.90909 2.01104 6.05436 1.15631 5 1.15631C3.94563 1.15631 3.0909 2.01104 3.0909 3.06541C3.0909 4.11977 3.94563 4.97449 5 4.97449ZM6.5 3.00272C6.5 3.83115 5.82843 4.50272 5 4.50272C4.17157 4.50272 3.5 3.83115 3.5 3.00272C3.5 2.17429 4.17157 1.50272 5 1.50272C5.82843 1.50272 6.5 2.17429 6.5 3.00272Z" fill="#FED443"/>
</g>
</g>
<defs>
<clipPath id="clip0_7792_50559">
<rect width="21" height="15" fill="white"/>
</clipPath>
</defs>
</svg>
