<svg width="33" height="35" viewBox="0 0 33 35" fill="none" xmlns="http://www.w3.org/2000/svg">
<path fill-rule="evenodd" clip-rule="evenodd" d="M31.423 24.0993C31.4793 24.2377 31.5354 24.3759 31.5914 24.5104C32.0388 25.7881 32.1771 26.9949 31.9004 28.2018C31.5206 30.7555 29.8294 32.9648 27.4125 33.9319C26.5484 34.3117 25.5829 34.4839 24.6158 34.4839C24.339 34.4839 23.9947 34.4501 23.7179 34.4147C22.5786 34.2763 21.4056 33.8981 20.2663 33.2416C18.8857 32.4483 17.505 31.309 15.986 29.6516C14.467 31.309 13.1217 32.4483 11.7057 33.2416C10.5664 33.8981 9.39334 34.2763 8.25407 34.4147C7.97729 34.4501 7.63294 34.4839 7.35617 34.4839C6.38907 34.4839 5.45738 34.3117 4.55948 33.9319C2.17796 32.9664 0.451349 30.7909 0.0715921 28.2018C-0.100586 26.9595 0.0378002 25.7511 0.48675 24.4734C0.647664 24.055 0.819842 23.6399 1.00489 23.2311C1.12809 22.9547 1.25128 22.6849 1.37136 22.422C1.52104 22.0942 1.66587 21.777 1.79981 21.4708L1.8336 21.4016C4.21513 16.2233 6.80423 10.9759 9.46253 5.79773L9.56552 5.59176C9.82019 5.11498 10.0735 4.60959 10.328 4.10191C10.35 4.05787 10.3721 4.01381 10.3942 3.96975C10.7386 3.34862 11.1183 2.69209 11.6365 2.07096C12.7774 0.759514 14.3302 0 16.0568 0C17.748 0 19.3362 0.759514 20.4417 2.14177C20.9465 2.70983 21.2776 3.3075 21.5952 3.88062C21.6248 3.93416 21.6544 3.98748 21.6839 4.04055C21.706 4.08454 21.7281 4.12852 21.7501 4.17249C22.0046 4.68024 22.2579 5.18571 22.5127 5.66256L22.6156 5.87014C25.3077 11.0484 27.863 16.2958 30.2446 21.474L30.2784 21.5078C30.409 21.8045 30.549 22.1116 30.6935 22.4286C30.8177 22.7011 30.9453 22.981 31.0733 23.2682C31.1895 23.5244 31.3064 23.8122 31.423 24.0993ZM29.796 27.9231C29.5546 29.719 28.3462 31.2718 26.655 31.9621C25.8263 32.3064 24.9284 32.411 24.0305 32.3064C23.168 32.2035 22.3039 31.9267 21.4076 31.4102C20.1653 30.7182 18.9214 29.6498 17.4716 28.0615C19.7501 25.2649 21.1308 22.7111 21.6489 20.4326C21.8903 19.3625 21.9257 18.3954 21.8211 17.4975C21.6827 16.635 21.3722 15.8401 20.8894 15.1498C19.8193 13.597 18.0235 12.6991 16.0218 12.6991C14.02 12.6991 12.2242 13.6308 11.1541 15.1498C10.6714 15.8401 10.3608 16.635 10.2224 17.4975C10.084 18.3954 10.1194 19.3963 10.3946 20.4326C10.9127 22.7111 12.3272 25.3003 14.5719 28.0953C13.1559 29.6835 11.8798 30.7536 10.636 31.4439C9.73808 31.9621 8.87558 32.2389 8.01308 32.3419C7.12322 32.4416 6.22372 32.3225 5.39018 31.9975C3.69898 31.3072 2.49051 29.7527 2.24914 27.9585C2.14616 27.0961 2.21535 26.2336 2.5597 25.2665C2.6308 25.0276 2.73563 24.7896 2.85038 24.529L2.8504 24.5289C2.90187 24.4121 2.95534 24.2906 3.00865 24.1626C3.231 23.6542 3.48338 23.1157 3.73687 22.5749L3.80196 22.436L3.83736 22.3668C6.21889 17.2224 8.7742 11.975 11.4325 6.86594L11.5355 6.65836C11.6767 6.39481 11.8175 6.12163 11.9583 5.84843C12.0935 5.58618 12.2286 5.32391 12.3642 5.07014C12.641 4.51821 12.9515 4.00006 13.3313 3.55111C14.057 2.7224 15.0225 2.27345 16.0926 2.27345C17.1626 2.27345 18.1297 2.7224 18.8539 3.55111C19.2336 4.00006 19.5442 4.51821 19.8209 5.07014C19.9564 5.32368 20.0914 5.58532 20.2265 5.84694C20.3674 6.11996 20.5083 6.39297 20.6497 6.65675L20.7542 6.86433C23.3771 12.0071 25.9325 17.2545 28.314 22.399V22.4328C28.4541 22.7121 28.5851 23.0096 28.716 23.3068C28.8437 23.5969 28.9714 23.8868 29.1073 24.1594C29.1617 24.2906 29.2163 24.4148 29.2688 24.5341L29.2688 24.5342L29.2688 24.5342C29.3823 24.7923 29.4858 25.0278 29.5562 25.2632C29.8314 26.1628 29.9344 27.0252 29.796 27.9231ZM16.0324 26.2969C14.169 23.9491 12.9606 21.7398 12.5454 19.8764C12.3732 19.0815 12.3378 18.3912 12.4424 17.77C12.5116 17.2181 12.7192 16.7337 12.9944 16.3202C13.6509 15.3885 14.7548 14.8012 16.0324 14.8012C17.3101 14.8012 18.4494 15.3547 19.0705 16.3202C19.3473 16.7354 19.5532 17.2181 19.6224 17.77C19.7254 18.3912 19.6916 19.1169 19.5194 19.8764C19.1059 21.706 17.8974 23.9153 16.0324 26.2969Z" fill="#E0565B"/>
</svg>
