<svg width="26" height="27" viewBox="0 0 26 27" fill="none" xmlns="http://www.w3.org/2000/svg">
<path d="M12.9924 4.23438C8.95371 4.23438 5.67973 7.50876 5.67973 11.5479V15.4507L4.11271 19.3725C4.01267 19.6229 4.0433 19.9065 4.19446 20.1298C4.34563 20.353 4.59764 20.4867 4.86721 20.4867H9.74229C9.74229 22.288 11.1912 23.7372 12.9924 23.7372C14.7935 23.7372 16.2424 22.288 16.2424 20.4867H21.1175C21.3871 20.4867 21.6391 20.353 21.7902 20.1298C21.9414 19.9065 21.972 19.6229 21.872 19.3725L20.305 15.4507V11.5479C20.305 7.50876 17.031 4.23438 12.9924 4.23438ZM14.6174 20.4867C14.6174 21.3904 13.896 22.1119 12.9924 22.1119C12.0887 22.1119 11.3673 21.3904 11.3673 20.4867H14.6174ZM7.30476 11.5479C7.30476 8.40635 9.85119 5.85961 12.9924 5.85961C16.1335 5.85961 18.68 8.40635 18.68 11.5479V15.6071C18.68 15.7104 18.6997 15.8127 18.738 15.9087L19.9178 18.8615H6.06689L7.24675 15.9087C7.28507 15.8127 7.30476 15.7104 7.30476 15.6071V11.5479Z" fill="#767F8A"/>
</svg>
