<svg width="19" height="19" viewBox="0 0 19 19" fill="none" xmlns="http://www.w3.org/2000/svg">
<path d="M12.9297 8.98996H12.2131V6.61496C12.2131 5.86535 11.6092 5.25781 10.8641 5.25781H8.2505C7.50541 5.25781 6.90154 5.86535 6.90154 6.61496V8.98996H6.1849C5.99836 8.98996 5.84766 9.14157 5.84766 9.32924V13.4007C5.84766 13.5883 5.99836 13.74 6.1849 13.74H12.9297C13.1163 13.74 13.267 13.5883 13.267 13.4007V9.32924C13.267 9.14157 13.1163 8.98996 12.9297 8.98996ZM9.8524 11.5028V12.0647C9.8524 12.1114 9.81446 12.1496 9.76809 12.1496H9.34654C9.30017 12.1496 9.26223 12.1114 9.26223 12.0647V11.5028C9.17524 11.44 9.1103 11.351 9.07678 11.2486C9.04325 11.1463 9.04287 11.0359 9.07567 10.9334C9.10848 10.8308 9.17279 10.7413 9.25934 10.6779C9.34589 10.6144 9.45022 10.5803 9.55732 10.5803C9.66441 10.5803 9.76874 10.6144 9.85529 10.6779C9.94184 10.7413 10.0062 10.8308 10.039 10.9334C10.0718 11.0359 10.0714 11.1463 10.0379 11.2486C10.0043 11.351 9.9394 11.44 9.8524 11.5028ZM11.4543 8.98996H7.66033V6.61496C7.66033 6.28733 7.92485 6.02121 8.2505 6.02121H10.8641C11.1898 6.02121 11.4543 6.28733 11.4543 6.61496V8.98996Z" fill="#8D939F"/>
<path d="M18.4988 9.5C18.4988 14.4734 14.4922 18.5 9.55605 18.5C4.61994 18.5 0.613281 14.4734 0.613281 9.5C0.613281 4.52658 4.61994 0.5 9.55605 0.5C14.4922 0.5 18.4988 4.52658 18.4988 9.5Z" stroke="#8D939F"/>
</svg>
