<svg width="21" height="22" viewBox="0 0 21 22" fill="none" xmlns="http://www.w3.org/2000/svg">
<path d="M18.375 9.58594H2.625M14 2.58594V6.08594M7 2.58594V6.08594M6.825 20.0859H14.175C15.6451 20.0859 16.3802 20.0859 16.9417 19.7998C17.4356 19.5482 17.8372 19.1466 18.0889 18.6527C18.375 18.0911 18.375 17.3561 18.375 15.8859V8.53594C18.375 7.0658 18.375 6.33073 18.0889 5.76921C17.8372 5.27529 17.4356 4.87371 16.9417 4.62205C16.3802 4.33594 15.6451 4.33594 14.175 4.33594H6.825C5.35486 4.33594 4.61979 4.33594 4.05827 4.62205C3.56435 4.87371 3.16278 5.27529 2.91111 5.76921C2.625 6.33073 2.625 7.0658 2.625 8.53594V15.8859C2.625 17.3561 2.625 18.0911 2.91111 18.6527C3.16278 19.1466 3.56435 19.5482 4.05827 19.7998C4.61979 20.0859 5.35486 20.0859 6.825 20.0859Z" stroke="#BDC4D1" stroke-width="1.75" stroke-linecap="round" stroke-linejoin="round"/>
</svg>
