<svg width="19" height="20" viewBox="0 0 19 20" fill="none" xmlns="http://www.w3.org/2000/svg">
<g clip-path="url(#clip0_2444_56114)">
<path d="M12.8227 3.15922C13.5957 3.15922 13.9822 3.15922 14.2993 3.24662C15.1599 3.4838 15.8321 4.17519 16.0627 5.06035C16.1477 5.38653 16.1477 5.78409 16.1477 6.57922V14.4452C16.1477 15.8818 16.1477 16.6 15.8759 17.1487C15.6368 17.6313 15.2553 18.0237 14.786 18.2697C14.2526 18.5492 13.5543 18.5492 12.1577 18.5492H6.83766C5.44103 18.5492 4.74271 18.5492 4.20927 18.2697C3.74004 18.0237 3.35854 17.6313 3.11946 17.1487C2.84766 16.6 2.84766 15.8818 2.84766 14.4452V6.57922C2.84766 5.78409 2.84766 5.38653 2.93263 5.06035C3.16322 4.17519 3.8354 3.4838 4.69598 3.24662C5.0131 3.15922 5.39962 3.15922 6.17266 3.15922M7.50266 4.86922H11.4927C11.9582 4.86922 12.191 4.86922 12.3688 4.77603C12.5252 4.69406 12.6524 4.56326 12.7321 4.40238C12.8227 4.21949 12.8227 3.98006 12.8227 3.50122V2.81722C12.8227 2.33837 12.8227 2.09895 12.7321 1.91606C12.6524 1.75518 12.5252 1.62438 12.3688 1.54241C12.191 1.44922 11.9582 1.44922 11.4927 1.44922H7.50266C7.03711 1.44922 6.80434 1.44922 6.62653 1.54241C6.47012 1.62438 6.34295 1.75518 6.26326 1.91606C6.17266 2.09895 6.17266 2.33837 6.17266 2.81722V3.50122C6.17266 3.98006 6.17266 4.21949 6.26326 4.40238C6.34295 4.56326 6.47012 4.69406 6.62653 4.77603C6.80434 4.86922 7.03711 4.86922 7.50266 4.86922Z" stroke="#8D939F" stroke-width="1.5" stroke-linecap="round" stroke-linejoin="round"/>
<path d="M11.1484 11.6667H6.39844M7.98177 14.8333H6.39844M12.7318 8.5H6.39844" stroke="#8D939F" stroke-width="1.58333" stroke-linecap="round" stroke-linejoin="round"/>
</g>
<defs>
<clipPath id="clip0_2444_56114">
<rect width="19" height="19" fill="white" transform="translate(0 0.5)"/>
</clipPath>
</defs>
</svg>
