<svg width="14" height="14" viewBox="0 0 14 14" fill="none" xmlns="http://www.w3.org/2000/svg">
<path fill-rule="evenodd" clip-rule="evenodd" d="M12.7546 1.00287C13.1632 1.41728 13.1632 2.08918 12.7546 2.50359L8.3156 7.00574L12.7546 11.5079C13.1632 11.9223 13.1632 12.5942 12.7546 13.0086C12.346 13.423 11.6835 13.423 11.2749 13.0086L6.83594 8.50646L2.39695 13.0086C1.98835 13.423 1.32588 13.423 0.917286 13.0086C0.508689 12.5942 0.508689 11.9223 0.917286 11.5079L5.35627 7.00574L0.917286 2.50359C0.508689 2.08918 0.508689 1.41728 0.917286 1.00287C1.32588 0.58846 1.98835 0.58846 2.39695 1.00287L6.83594 5.50503L11.2749 1.00287C11.6835 0.58846 12.346 0.58846 12.7546 1.00287Z" fill="white"/>
</svg>
