<svg width="19" height="20" viewBox="0 0 19 20" fill="none" xmlns="http://www.w3.org/2000/svg">
<path d="M17.4173 8.41536H1.58398M8.70898 11.582H4.75065M1.58398 6.99036L1.58398 13.007C1.58398 13.8938 1.58398 14.3372 1.75656 14.6758C1.90836 14.9738 2.15058 15.216 2.4485 15.3678C2.78719 15.5404 3.23057 15.5404 4.11732 15.5404L14.884 15.5404C15.7707 15.5404 16.2141 15.5404 16.5528 15.3678C16.8507 15.216 17.0929 14.9738 17.2447 14.6758C17.4173 14.3372 17.4173 13.8938 17.4173 13.007V6.99037C17.4173 6.10362 17.4173 5.66024 17.2447 5.32155C17.0929 5.02362 16.8507 4.7814 16.5528 4.62961C16.2141 4.45703 15.7707 4.45703 14.884 4.45703L4.11732 4.45703C3.23057 4.45703 2.78719 4.45703 2.4485 4.6296C2.15058 4.7814 1.90836 5.02362 1.75656 5.32155C1.58398 5.66024 1.58398 6.10361 1.58398 6.99036Z" stroke="#8D939F" stroke-width="1.5" stroke-linecap="round" stroke-linejoin="round"/>
</svg>
