<svg width="23" height="24" viewBox="0 0 23 24" fill="none" xmlns="http://www.w3.org/2000/svg">
<path fill-rule="evenodd" clip-rule="evenodd" d="M1.60338 16.8274C1.06575 17.7551 1.05904 18.9051 1.58517 19.8395C2.11417 20.7805 3.10125 21.3594 4.16788 21.3594H18.8265C19.8932 21.3594 20.8803 20.7805 21.4093 19.8395C21.9354 18.9051 21.9287 17.7551 21.391 16.8274C19.322 13.2509 16.1106 7.70121 14.0627 4.16017C13.5279 3.23633 12.5514 2.67188 11.4972 2.67188C10.443 2.67188 9.4665 3.23633 8.93175 4.16017L1.60338 16.8274ZM2.84729 17.5471L10.1766 4.87987C10.4517 4.40358 10.9538 4.10938 11.4972 4.10938C12.0406 4.10938 12.5428 4.40358 12.8178 4.87987L20.1471 17.5471C20.4298 18.0359 20.4337 18.6415 20.1567 19.1341C19.8836 19.62 19.3766 19.9219 18.8265 19.9219H4.16788C3.61779 19.9219 3.11084 19.62 2.83771 19.1341C2.56075 18.6415 2.56459 18.0359 2.84729 17.5471Z" fill="#BD1145"/>
<path d="M11.4974 18.6042C12.0267 18.6042 12.4557 18.1751 12.4557 17.6458C12.4557 17.1166 12.0267 16.6875 11.4974 16.6875C10.9681 16.6875 10.5391 17.1166 10.5391 17.6458C10.5391 18.1751 10.9681 18.6042 11.4974 18.6042Z" fill="#BD1145"/>
<path fill-rule="evenodd" clip-rule="evenodd" d="M10.2969 9.01042L10.776 14.7604C10.776 15.1572 11.098 15.4792 11.4948 15.4792C11.8915 15.4792 12.2135 15.1572 12.2135 14.7604L12.6927 9.01042C12.6927 8.61367 12.4531 7.8125 11.4948 7.8125C10.5365 7.8125 10.2969 8.61367 10.2969 9.01042Z" fill="#BD1145"/>
</svg>
