<svg width="14" height="16" viewBox="0 0 14 16" fill="none" xmlns="http://www.w3.org/2000/svg">
<path d="M9.77778 3.83344V3.27789C9.77778 2.50004 9.77778 2.11111 9.6264 1.81401C9.49324 1.55267 9.28077 1.3402 9.01943 1.20704C8.72233 1.05566 8.33341 1.05566 7.55556 1.05566H6.44444C5.66659 1.05566 5.27767 1.05566 4.98057 1.20704C4.71923 1.3402 4.50676 1.55267 4.3736 1.81401C4.22222 2.11111 4.22222 2.50004 4.22222 3.27789V3.83344M5.61111 7.65289V11.1251M8.38889 7.65289V11.1251M0.75 3.83344H13.25M11.8611 3.83344V11.6112C11.8611 12.778 11.8611 13.3614 11.634 13.807C11.4343 14.199 11.1156 14.5177 10.7236 14.7175C10.2779 14.9446 9.69455 14.9446 8.52778 14.9446H5.47222C4.30545 14.9446 3.72206 14.9446 3.27641 14.7175C2.8844 14.5177 2.56569 14.199 2.36596 13.807C2.13889 13.3614 2.13889 12.778 2.13889 11.6112V3.83344" stroke="#131316" stroke-width="1.2" stroke-linecap="round" stroke-linejoin="round"/>
</svg>
