<svg width="14" height="16" viewBox="0 0 14 16" fill="none" xmlns="http://www.w3.org/2000/svg">
<path d="M8.46738 1.15825V4.06237C8.46738 4.45613 8.46738 4.65301 8.54735 4.80341C8.61769 4.9357 8.72992 5.04326 8.86796 5.11067C9.0249 5.1873 9.23034 5.1873 9.64123 5.1873H12.6716M8.46738 11.515H4.06547M9.93469 8.70267H4.06547M12.8693 6.58514V11.6556C12.8693 12.8369 12.8693 13.4276 12.6294 13.8787C12.4184 14.2756 12.0817 14.5983 11.6676 14.8005C11.1967 15.0304 10.5804 15.0304 9.34777 15.0304H4.65239C3.41974 15.0304 2.80341 15.0304 2.3326 14.8005C1.91847 14.5983 1.58176 14.2756 1.37075 13.8787C1.13086 13.4276 1.13086 12.8369 1.13086 11.6556V4.34355C1.13086 3.16226 1.13086 2.57161 1.37075 2.12042C1.58176 1.72354 1.91847 1.40087 2.3326 1.19864C2.80341 0.96875 3.41974 0.96875 4.65239 0.96875H7.00872C7.54705 0.96875 7.81622 0.96875 8.06952 1.02703C8.2941 1.0787 8.50879 1.16392 8.70571 1.27957C8.92783 1.41001 9.11816 1.59241 9.49882 1.95721L11.8379 4.19879C12.2185 4.56359 12.4089 4.74599 12.545 4.95885C12.6656 5.14757 12.7546 5.35332 12.8085 5.56854C12.8693 5.81128 12.8693 6.06924 12.8693 6.58514Z" stroke="#148BDF" stroke-width="1.4" stroke-linecap="round" stroke-linejoin="round"/>
</svg>
