<svg width="20" height="4" viewBox="0 0 20 4" fill="none" xmlns="http://www.w3.org/2000/svg">
<g clip-path="url(#clip0_5248_88139)">
<path d="M9.18516 1.98854C9.18516 2.43957 9.55079 2.80521 10.0018 2.80521C10.4529 2.80521 10.8185 2.43957 10.8185 1.98854C10.8185 1.53751 10.4529 1.17187 10.0018 1.17187C9.55079 1.17187 9.18516 1.53751 9.18516 1.98854Z" stroke="#131316" stroke-width="1.5" stroke-linecap="round" stroke-linejoin="round"/>
<path d="M14.9018 1.98854C14.9018 2.43957 15.2675 2.80521 15.7185 2.80521C16.1695 2.80521 16.5352 2.43957 16.5352 1.98854C16.5352 1.53751 16.1695 1.17187 15.7185 1.17187C15.2675 1.17187 14.9018 1.53751 14.9018 1.98854Z" stroke="#131316" stroke-width="1.5" stroke-linecap="round" stroke-linejoin="round"/>
<path d="M3.46849 1.98854C3.46849 2.43957 3.83412 2.80521 4.28516 2.80521C4.73619 2.80521 5.10182 2.43957 5.10182 1.98854C5.10182 1.53751 4.73619 1.17187 4.28516 1.17187C3.83412 1.17187 3.46849 1.53751 3.46849 1.98854Z" stroke="#131316" stroke-width="1.5" stroke-linecap="round" stroke-linejoin="round"/>
</g>
<defs>
<clipPath id="clip0_5248_88139">
<rect width="3.26667" height="19.6" fill="white" transform="translate(19.8008 0.367188) rotate(90)"/>
</clipPath>
</defs>
</svg>
