<svg width="12" height="18" viewBox="0 0 12 18" fill="none" xmlns="http://www.w3.org/2000/svg">
<path d="M3.53401 4.33364C3.92386 4.33364 4.23989 4.01761 4.23989 3.62776C4.23989 3.23791 3.92386 2.92188 3.53401 2.92188C3.14416 2.92188 2.82812 3.23791 2.82812 3.62776C2.82812 4.01761 3.14416 4.33364 3.53401 4.33364Z" stroke="#8D939F" stroke-width="1.41176" stroke-linecap="round" stroke-linejoin="round"/>
<path d="M3.53401 9.27482C3.92386 9.27482 4.23989 8.95878 4.23989 8.56893C4.23989 8.17909 3.92386 7.86305 3.53401 7.86305C3.14416 7.86305 2.82812 8.17909 2.82812 8.56893C2.82812 8.95878 3.14416 9.27482 3.53401 9.27482Z" stroke="#8D939F" stroke-width="1.41176" stroke-linecap="round" stroke-linejoin="round"/>
<path d="M3.53401 14.216C3.92386 14.216 4.23989 13.9 4.23989 13.5101C4.23989 13.1203 3.92386 12.8042 3.53401 12.8042C3.14416 12.8042 2.82812 13.1203 2.82812 13.5101C2.82812 13.9 3.14416 14.216 3.53401 14.216Z" stroke="#8D939F" stroke-width="1.41176" stroke-linecap="round" stroke-linejoin="round"/>
<path d="M8.47518 4.33364C8.86503 4.33364 9.18107 4.01761 9.18107 3.62776C9.18107 3.23791 8.86503 2.92188 8.47518 2.92188C8.08534 2.92188 7.7693 3.23791 7.7693 3.62776C7.7693 4.01761 8.08534 4.33364 8.47518 4.33364Z" stroke="#8D939F" stroke-width="1.41176" stroke-linecap="round" stroke-linejoin="round"/>
<path d="M8.47518 9.27482C8.86503 9.27482 9.18107 8.95878 9.18107 8.56893C9.18107 8.17909 8.86503 7.86305 8.47518 7.86305C8.08534 7.86305 7.7693 8.17909 7.7693 8.56893C7.7693 8.95878 8.08534 9.27482 8.47518 9.27482Z" stroke="#8D939F" stroke-width="1.41176" stroke-linecap="round" stroke-linejoin="round"/>
<path d="M8.47518 14.216C8.86503 14.216 9.18107 13.9 9.18107 13.5101C9.18107 13.1203 8.86503 12.8042 8.47518 12.8042C8.08534 12.8042 7.7693 13.1203 7.7693 13.5101C7.7693 13.9 8.08534 14.216 8.47518 14.216Z" stroke="#8D939F" stroke-width="1.41176" stroke-linecap="round" stroke-linejoin="round"/>
</svg>
