<svg width="16" height="16" viewBox="0 0 16 16" fill="none" xmlns="http://www.w3.org/2000/svg">
<g clip-path="url(#clip0_2401_1910)">
<path d="M7.875 5.46794L10.1654 7.75833L10.1763 7.63835C10.1763 6.43498 9.19835 5.45703 7.99497 5.45703L7.875 5.46794Z" fill="#9AA2AC"/>
<path d="M7.99904 4.00135C10.0059 4.00135 11.6346 5.63008 11.6346 7.6369C11.6346 8.10588 11.5401 8.55305 11.3765 8.96386L13.5033 11.0906C14.6012 10.1745 15.4665 8.98932 16.0009 7.6369C14.7394 4.44491 11.6382 2.18359 7.99907 2.18359C6.98111 2.18359 6.00681 2.36536 5.10156 2.69256L6.67211 4.25946C7.08288 4.09951 7.53006 4.00135 7.99904 4.00135Z" fill="#9AA2AC"/>
<path d="M0.727096 2.02081L2.3849 3.67862L2.71575 4.00946C1.51602 4.94743 0.567144 6.19443 0 7.63772C1.25791 10.8297 4.36265 13.091 7.99819 13.091C9.12522 13.091 10.2013 12.8729 11.1866 12.4766L11.4956 12.7856L13.6151 14.9088L14.5422 13.9854L1.65416 1.09375L0.727096 2.02081ZM4.74802 6.03809L5.8714 7.16147C5.83868 7.31781 5.81687 7.47412 5.81687 7.63772C5.81687 8.84109 6.79482 9.81904 7.99819 9.81904C8.16179 9.81904 8.31813 9.79723 8.47083 9.76451L9.59421 10.8879C9.11067 11.1278 8.57263 11.2733 7.99819 11.2733C5.99138 11.2733 4.36265 9.64453 4.36265 7.63772C4.36265 7.06331 4.50808 6.52524 4.74802 6.03809Z" fill="#9AA2AC"/>
</g>
<defs>
<clipPath id="clip0_2401_1910">
<rect width="16" height="16" fill="white"/>
</clipPath>
</defs>
</svg>
