<svg width="16" height="16" viewBox="0 0 16 16" fill="none" xmlns="http://www.w3.org/2000/svg">
<path d="M8 2.54297C4.57941 2.54297 1.6002 4.69137 0 7.87637C1.6002 11.062 4.57941 13.2098 8 13.2098C11.4206 13.2098 14.3998 11.062 16 7.87637C14.3998 4.69137 11.4206 2.54297 8 2.54297ZM8 11.2098C6.15879 11.2098 4.6666 9.71758 4.6666 7.87637C4.6666 6.03516 6.15879 4.54297 8 4.54297C9.84121 4.54297 11.3334 6.03516 11.3334 7.87637C11.3334 9.71758 9.84121 11.2098 8 11.2098Z" fill="#9AA2AC"/>
<path d="M8 9.875C9.10457 9.875 10 8.97957 10 7.875C10 6.77043 9.10457 5.875 8 5.875C6.89543 5.875 6 6.77043 6 7.875C6 8.97957 6.89543 9.875 8 9.875Z" fill="#9AA2AC"/>
</svg>
