<svg width="18" height="18" viewBox="0 0 18 18" fill="none" xmlns="http://www.w3.org/2000/svg">
<path fill-rule="evenodd" clip-rule="evenodd" d="M10.1406 5.77905V3.6236C10.1406 3.26589 10.3567 2.94289 10.6875 2.80547C11.0183 2.66876 11.3986 2.74456 11.6522 2.99743L16.4639 7.80914C16.8096 8.15481 16.8096 8.7158 16.4639 9.06147L11.6522 13.8732C11.3986 14.1261 11.0183 14.2018 10.6875 14.0651C10.3567 13.9277 10.1406 13.6047 10.1406 13.247V11.0916H8.58229C6.72079 11.0916 4.96767 11.9678 3.85063 13.4574L2.59688 15.1291C2.45946 15.3118 2.22075 15.3869 2.004 15.3146C1.78725 15.2417 1.64062 15.0391 1.64062 14.8103V14.102C1.64062 9.5056 5.36717 5.77905 9.96354 5.77905H10.1406ZM2.76758 13.1308L3.00063 12.8199C4.31813 11.0632 6.38646 10.0291 8.58229 10.0291H10.6719C10.9651 10.0291 11.2031 10.2671 11.2031 10.5603V12.8192L15.587 8.43531L11.2031 4.05143V6.3103C11.2031 6.60355 10.9651 6.84156 10.6719 6.84156H9.96354C6.28304 6.84156 3.24217 9.57997 2.76758 13.1308Z" fill="white" stroke="white" stroke-width="0.284211"/>
</svg>
