<svg width="18" height="18" viewBox="0 0 18 18" fill="none" xmlns="http://www.w3.org/2000/svg">
<path d="M11.3888 0.4375H6.60836C2.27965 0.4375 0.433594 2.28356 0.433594 6.61227V11.3927C0.433594 15.7214 2.27965 17.5675 6.60836 17.5675H11.3888C15.7175 17.5675 17.5636 15.7214 17.5636 11.3927V6.61227C17.5636 2.28356 15.7175 0.4375 11.3888 0.4375ZM10.7913 16.3724H6.60836C2.93218 16.3724 1.62871 15.0689 1.62871 11.3927V6.61227C1.62871 2.93609 2.93218 1.63262 6.60836 1.63262H10.7913V16.3724ZM16.3685 11.3927C16.3685 14.8618 15.206 16.2162 11.9864 16.358V1.64696C15.206 1.78878 16.3685 3.14324 16.3685 6.61227V11.3927ZM6.23389 6.54056L8.27356 8.58023C8.32906 8.63565 8.37309 8.70148 8.40314 8.77393C8.43318 8.84639 8.44864 8.92406 8.44864 9.0025C8.44864 9.08094 8.43318 9.15861 8.40314 9.23107C8.37309 9.30352 8.32906 9.36935 8.27356 9.42477L6.23389 11.4644C6.12114 11.5732 5.97017 11.6334 5.81349 11.632C5.65681 11.6305 5.50696 11.5676 5.39622 11.4568C5.28548 11.3459 5.22271 11.196 5.22142 11.0393C5.22014 10.8827 5.28044 10.7317 5.38934 10.6191L7.00673 9.0025L5.38934 7.38591C5.28044 7.27326 5.22014 7.12234 5.22142 6.96566C5.22271 6.80898 5.28548 6.65908 5.39622 6.54823C5.50696 6.43739 5.65681 6.37447 5.81349 6.37304C5.97017 6.3716 6.12114 6.43176 6.23389 6.54056Z" fill="#8D939F"/>
</svg>
