<svg width="9" height="9" viewBox="0 0 9 9" fill="none" xmlns="http://www.w3.org/2000/svg">
<path d="M7.81645 3.98996H7.09981V1.61496C7.09981 0.865346 6.49594 0.257812 5.75085 0.257812H3.13722C2.39213 0.257812 1.78826 0.865346 1.78826 1.61496V3.98996H1.07162C0.88508 3.98996 0.734375 4.14157 0.734375 4.32924V8.40067C0.734375 8.58834 0.88508 8.73996 1.07162 8.73996H7.81645C8.00299 8.73996 8.15369 8.58834 8.15369 8.40067V4.32924C8.15369 4.14157 8.00299 3.98996 7.81645 3.98996ZM4.73912 6.50279V7.06473C4.73912 7.11138 4.70118 7.14955 4.65481 7.14955H4.23326C4.18689 7.14955 4.14895 7.11138 4.14895 7.06473V6.50279C4.06195 6.43995 3.99702 6.35097 3.9635 6.24864C3.92997 6.14631 3.92958 6.03592 3.96239 5.93336C3.9952 5.83079 4.05951 5.74135 4.14606 5.6779C4.23261 5.61444 4.33694 5.58026 4.44403 5.58026C4.55113 5.58026 4.65546 5.61444 4.74201 5.6779C4.82856 5.74135 4.89287 5.83079 4.92568 5.93336C4.95848 6.03592 4.9581 6.14631 4.92457 6.24864C4.89105 6.35097 4.82612 6.43995 4.73912 6.50279V6.50279ZM6.34102 3.98996H2.54705V1.61496C2.54705 1.28733 2.81157 1.02121 3.13722 1.02121H5.75085C6.0765 1.02121 6.34102 1.28733 6.34102 1.61496V3.98996Z" fill="#9AA2AC"/>
</svg>
