<svg width="36" height="36" viewBox="0 0 36 36" fill="none" xmlns="http://www.w3.org/2000/svg">
<g clip-path="url(#clip0_7510_125915)">
<path d="M34.9698 4.92194C34.4402 4.39144 33.5809 4.39052 33.0513 4.91969L16.7744 21.1536L10.9018 14.7753C10.3944 14.2245 9.5364 14.1888 8.98466 14.6962C8.43334 15.2036 8.39804 16.062 8.90549 16.6133L15.7347 24.0299C15.9848 24.3018 16.3348 24.4596 16.7038 24.4673C16.7138 24.4677 16.7233 24.4677 16.7328 24.4677C17.0915 24.4677 17.4365 24.3252 17.6907 24.072L34.9671 6.84084C35.498 6.31174 35.4989 5.45245 34.9698 4.92194Z" fill="#02AF72"/>
<path d="M34.6432 16.6432C33.8938 16.6432 33.2864 17.2505 33.2864 18C33.2864 26.4293 26.4293 33.2864 18 33.2864C9.57122 33.2864 2.71357 26.4293 2.71357 18C2.71357 9.57122 9.57122 2.71357 18 2.71357C18.7494 2.71357 19.3568 2.10621 19.3568 1.35682C19.3568 0.607359 18.7494 0 18 0C8.07469 0 0 8.07469 0 18C0 27.9249 8.07469 36 18 36C27.9249 36 36 27.9249 36 18C36 17.2506 35.3926 16.6432 34.6432 16.6432Z" fill="#02AF72"/>
</g>
<defs>
<clipPath id="clip0_7510_125915">
<rect width="36" height="36" fill="white"/>
</clipPath>
</defs>
</svg>
