<svg width="20" height="20" viewBox="0 0 20 20" fill="none" xmlns="http://www.w3.org/2000/svg">
<path d="M3.42079 18.4571L3.42079 12.8177M3.42079 12.8177C4.45897 12.8177 5.30057 11.9761 5.30057 10.938C5.30057 9.89978 4.45897 9.05817 3.42079 9.05817C2.38262 9.05817 1.54102 9.89978 1.54102 10.938C1.54102 11.9761 2.38262 12.8177 3.42079 12.8177ZM3.42079 5.29862V1.53906M10 18.4571V12.8177M10 5.29862V1.53906M10 5.29862C8.96184 5.29862 8.12024 6.14022 8.12024 7.1784C8.12024 8.21657 8.96184 9.05817 10 9.05817C11.0382 9.05817 11.8798 8.21657 11.8798 7.1784C11.8798 6.14022 11.0382 5.29862 10 5.29862ZM16.5792 18.4571V14.6975M16.5792 14.6975C17.6174 14.6975 18.459 13.8559 18.459 12.8177C18.459 11.7796 17.6174 10.938 16.5792 10.938C15.5411 10.938 14.6995 11.7796 14.6995 12.8177C14.6995 13.8559 15.5411 14.6975 16.5792 14.6975ZM16.5792 7.1784V1.53906" stroke="#8D939F" stroke-width="1.5" stroke-linecap="round" stroke-linejoin="round"/>
</svg>
