<svg width="18" height="22" viewBox="0 0 18 22" fill="none" xmlns="http://www.w3.org/2000/svg">
<path d="M11.0174 1.5965V5.58966C11.0174 6.13109 11.0174 6.4018 11.1274 6.6086C11.2241 6.7905 11.3784 6.93839 11.5682 7.03108C11.784 7.13645 12.0665 7.13645 12.6314 7.13645H16.7982M11.0174 15.837H4.96478M13.035 11.9701H4.96478M17.07 9.05847V16.0304C17.07 17.6547 17.07 18.4668 16.7402 19.0872C16.45 19.6329 15.9871 20.0766 15.4176 20.3546C14.7703 20.6707 13.9228 20.6707 12.2279 20.6707H5.77179C4.0769 20.6707 3.22945 20.6707 2.58208 20.3546C2.01265 20.0766 1.54968 19.6329 1.25954 19.0872C0.929688 18.4668 0.929688 17.6547 0.929688 16.0304V5.97629C0.929688 4.35201 0.929688 3.53988 1.25954 2.91948C1.54968 2.37377 2.01265 1.9301 2.58208 1.65204C3.22945 1.33594 4.0769 1.33594 5.77179 1.33594H9.01174C9.75195 1.33594 10.1221 1.33594 10.4703 1.41607C10.7791 1.48712 11.0743 1.6043 11.3451 1.76331C11.6505 1.94267 11.9122 2.19347 12.4356 2.69506L15.6518 5.77725C16.1752 6.27885 16.4369 6.52965 16.6241 6.82233C16.79 7.08182 16.9123 7.36472 16.9864 7.66064C17.07 7.99442 17.07 8.34911 17.07 9.05847Z" stroke="#8D939F" stroke-width="1.5" stroke-linecap="round" stroke-linejoin="round"/>
</svg>
