<svg width="22" height="22" viewBox="0 0 22 22" fill="none" xmlns="http://www.w3.org/2000/svg">
<path d="M11.655 10.5979V8.26679C12.1537 8.35091 12.6239 8.55553 13.0259 8.86281C13.106 8.91777 13.2001 8.94758 13.2974 8.94889C13.6093 8.94889 13.8637 8.6979 13.867 8.38599C13.8676 8.25222 13.8153 8.12374 13.7213 8.02838C13.1405 7.53103 12.412 7.23766 11.6484 7.19395V6.41249C11.6484 6.1893 11.4676 6.00851 11.2445 6.00851C11.2398 6.00786 11.2352 6.00786 11.2305 6.00786C11.0041 6.00454 10.8173 6.18535 10.814 6.41249V7.16746C9.32392 7.27341 8.31069 8.19395 8.31069 9.41909C8.31069 10.9224 9.58883 11.3396 10.814 11.6707V14.3197C10.1676 14.233 9.55836 13.9648 9.05902 13.5449C8.96499 13.4701 8.84841 13.4284 8.72789 13.4257C8.42259 13.4469 8.1875 13.7025 8.19146 14.0085C8.1908 14.1423 8.24311 14.2707 8.33715 14.3661C9.02125 14.982 9.90072 15.3363 10.8206 15.3661V16.0946C10.8206 16.0992 10.8212 16.1038 10.8212 16.1085C10.8318 16.335 11.0245 16.5098 11.251 16.4985C11.4742 16.4985 11.655 16.3178 11.655 16.0946V15.3529C13.4629 15.2337 14.1914 14.1343 14.1914 12.9688C14.1914 11.4058 12.8802 10.929 11.655 10.5979ZM10.8206 10.386C10.0988 10.1741 9.53586 9.95553 9.53586 9.33963C9.53586 8.72374 10.0458 8.28003 10.8206 8.22044V10.386ZM11.655 14.333V11.9224C12.4034 12.1343 12.9862 12.4191 12.9795 13.1144C12.9795 13.6178 12.6352 14.2138 11.655 14.333Z" fill="#8D939F" stroke="#8D939F" stroke-width="0.3"/>
<path d="M17.744 3.17895L17.6328 3.08362C17.5295 2.99624 17.4342 2.9168 17.3548 2.86119C16.9496 2.54342 16.5047 2.24949 16.0043 1.97145C15.5753 1.74107 15.1781 1.55041 14.7968 1.39948C10.7214 -0.221115 6.05827 0.922833 3.18252 4.25935L3.08719 4.37056C2.9998 4.47384 2.91242 4.57711 2.86476 4.64861C2.8012 4.72805 2.74559 4.81543 2.68204 4.90282L2.34839 3.75092C2.22923 3.32989 1.78436 3.08362 1.36332 3.20278C0.942288 3.32194 0.696022 3.76681 0.815183 4.18785L1.68903 7.23838C1.74464 7.43698 1.87969 7.61175 2.07035 7.71502C2.18951 7.77857 2.32456 7.81035 2.45166 7.81035C2.52316 7.81035 2.6026 7.80241 2.6741 7.77857L5.73257 6.90472C6.1536 6.78556 6.39987 6.34069 6.28071 5.91966C6.16155 5.49862 5.72462 5.25236 5.29564 5.37152L4.02459 5.73694C4.06431 5.68928 4.09609 5.63367 4.13581 5.58601C4.18347 5.51451 4.24703 5.45096 4.30263 5.38741L4.39796 5.26824C6.82091 2.46398 10.7691 1.49481 14.2089 2.86913C14.5346 2.99624 14.8683 3.15512 15.2337 3.35372C15.6547 3.59204 16.0281 3.83037 16.4015 4.1243C16.473 4.17196 16.5365 4.22757 16.6001 4.28318L16.7192 4.37851C18.6338 6.03882 19.73 8.44588 19.73 10.98C19.73 11.417 20.0875 11.7744 20.5244 11.7744C20.9614 11.7744 21.3188 11.417 21.3188 10.98C21.3188 7.97718 20.024 5.13319 17.7361 3.15512L17.744 3.17895Z" fill="#8D939F"/>
<path d="M4.25452 18.8227L4.36574 18.918C4.46901 19.0054 4.57229 19.0928 4.64378 19.1405C5.04893 19.4662 5.4938 19.7522 5.99428 20.0302C6.42326 20.2606 6.82046 20.4513 7.20178 20.6022C8.43311 21.0947 9.72005 21.3251 10.999 21.3251C13.9384 21.3251 16.8141 20.062 18.824 17.7423L18.9193 17.6311C19.0067 17.5278 19.0861 17.4325 19.1417 17.3531C19.2053 17.2736 19.2609 17.1862 19.3244 17.0988L19.6501 18.2507C19.7455 18.6003 20.0712 18.8227 20.4128 18.8227C20.4843 18.8227 20.5558 18.8148 20.6352 18.7909C21.0562 18.6718 21.3025 18.2269 21.1834 17.8059L20.3095 14.7474C20.2539 14.5488 20.1188 14.374 19.9282 14.2708C19.7455 14.1675 19.523 14.1437 19.3244 14.1993L16.266 15.0731C15.8449 15.1923 15.5987 15.6371 15.7178 16.0582C15.837 16.4792 16.2819 16.7255 16.7029 16.6063L17.9739 16.2409C17.9342 16.2886 17.9024 16.3442 17.8627 16.3918C17.8151 16.4633 17.7595 16.5269 17.7038 16.5904L17.6006 16.7096C15.1776 19.5138 11.2294 20.483 7.78964 19.1087C7.47187 18.9816 7.13028 18.8227 6.76485 18.6162C6.34382 18.3858 5.97044 18.1395 5.59707 17.8456C5.52558 17.7979 5.46202 17.7423 5.39847 17.6788L5.27931 17.5834C3.36479 15.9311 2.2685 13.5161 2.2685 10.9819C2.2685 10.545 1.91102 10.1875 1.4741 10.1875C1.03717 10.1875 0.679688 10.545 0.679688 10.9819C0.679688 13.9848 1.98252 16.8288 4.26247 18.8068L4.25452 18.8227Z" fill="#8D939F"/>
</svg>
