<svg width="18" height="18" viewBox="0 0 18 18" fill="none" xmlns="http://www.w3.org/2000/svg">
<path d="M5.8 1H2.42222C1.9244 1 1.67549 1 1.48534 1.09688C1.31809 1.1821 1.1821 1.31809 1.09688 1.48534C1 1.67549 1 1.9244 1 2.42222V5.8C1 6.29782 1 6.54674 1.09688 6.73688C1.1821 6.90414 1.31809 7.04012 1.48534 7.12534C1.67549 7.22222 1.9244 7.22222 2.42222 7.22222H5.8C6.29782 7.22222 6.54674 7.22222 6.73688 7.12534C6.90414 7.04012 7.04012 6.90414 7.12534 6.73688C7.22222 6.54674 7.22222 6.29782 7.22222 5.8V2.42222C7.22222 1.9244 7.22222 1.67549 7.12534 1.48534C7.04012 1.31809 6.90414 1.1821 6.73688 1.09688C6.54674 1 6.29782 1 5.8 1Z" stroke="#8D939F" stroke-width="1.36364" stroke-linecap="round" stroke-linejoin="round"/>
<path d="M15.5778 1H12.2C11.7022 1 11.4533 1 11.2631 1.09688C11.0959 1.1821 10.9599 1.31809 10.8747 1.48534C10.7778 1.67549 10.7778 1.9244 10.7778 2.42222V5.8C10.7778 6.29782 10.7778 6.54674 10.8747 6.73688C10.9599 6.90414 11.0959 7.04012 11.2631 7.12534C11.4533 7.22222 11.7022 7.22222 12.2 7.22222H15.5778C16.0756 7.22222 16.3245 7.22222 16.5147 7.12534C16.6819 7.04012 16.8179 6.90414 16.9031 6.73688C17 6.54674 17 6.29782 17 5.8V2.42222C17 1.9244 17 1.67549 16.9031 1.48534C16.8179 1.31809 16.6819 1.1821 16.5147 1.09688C16.3245 1 16.0756 1 15.5778 1Z" stroke="#8D939F" stroke-width="1.36364" stroke-linecap="round" stroke-linejoin="round"/>
<path d="M15.5778 10.7778H12.2C11.7022 10.7778 11.4533 10.7778 11.2631 10.8747C11.0959 10.9599 10.9599 11.0959 10.8747 11.2631C10.7778 11.4533 10.7778 11.7022 10.7778 12.2V15.5778C10.7778 16.0756 10.7778 16.3245 10.8747 16.5147C10.9599 16.6819 11.0959 16.8179 11.2631 16.9031C11.4533 17 11.7022 17 12.2 17H15.5778C16.0756 17 16.3245 17 16.5147 16.9031C16.6819 16.8179 16.8179 16.6819 16.9031 16.5147C17 16.3245 17 16.0756 17 15.5778V12.2C17 11.7022 17 11.4533 16.9031 11.2631C16.8179 11.0959 16.6819 10.9599 16.5147 10.8747C16.3245 10.7778 16.0756 10.7778 15.5778 10.7778Z" stroke="#8D939F" stroke-width="1.36364" stroke-linecap="round" stroke-linejoin="round"/>
<path d="M5.8 10.7778H2.42222C1.9244 10.7778 1.67549 10.7778 1.48534 10.8747C1.31809 10.9599 1.1821 11.0959 1.09688 11.2631C1 11.4533 1 11.7022 1 12.2V15.5778C1 16.0756 1 16.3245 1.09688 16.5147C1.1821 16.6819 1.31809 16.8179 1.48534 16.9031C1.67549 17 1.9244 17 2.42222 17H5.8C6.29782 17 6.54674 17 6.73688 16.9031C6.90414 16.8179 7.04012 16.6819 7.12534 16.5147C7.22222 16.3245 7.22222 16.0756 7.22222 15.5778V12.2C7.22222 11.7022 7.22222 11.4533 7.12534 11.2631C7.04012 11.0959 6.90414 10.9599 6.73688 10.8747C6.54674 10.7778 6.29782 10.7778 5.8 10.7778Z" stroke="#8D939F" stroke-width="1.36364" stroke-linecap="round" stroke-linejoin="round"/>
</svg>
