<svg width="20" height="20" viewBox="0 0 20 20" fill="none" xmlns="http://www.w3.org/2000/svg">
<path d="M9.72429 13.0625C9.20964 13.0625 8.79297 13.4914 8.79297 14.0061C8.79297 14.5085 9.19737 14.9497 9.72429 14.9497C10.2512 14.9497 10.6679 14.5085 10.6679 14.0061C10.6679 13.4914 10.239 13.0625 9.72429 13.0625Z" fill="#8D939F"/>
<path d="M9.88286 5.92188C8.22851 5.92188 7.46875 6.90221 7.46875 7.56395C7.46875 8.0419 7.87312 8.26247 8.20401 8.26247C8.86572 8.26247 8.59614 7.31888 9.84609 7.31888C10.4588 7.31888 10.949 7.58849 10.949 8.15219C10.949 8.81397 10.2628 9.19383 9.85836 9.53696C9.503 9.84331 9.03732 10.3458 9.03732 11.3996C9.03732 12.0368 9.20884 12.2207 9.7113 12.2207C10.3118 12.2207 10.4343 11.9511 10.4343 11.7183C10.4343 11.081 10.4466 10.7134 11.1206 10.1865C11.4514 9.92912 12.4931 9.09582 12.4931 7.94389C12.4931 6.79196 11.4514 5.92188 9.88286 5.92188Z" fill="#8D939F"/>
<path d="M10 0.5C4.74962 0.5 0.5 4.74891 0.5 10V18.7578C0.5 19.1677 0.832277 19.5 1.24219 19.5H10C15.2503 19.5 19.5 15.2511 19.5 10C19.5 4.74962 15.2511 0.5 10 0.5ZM10 18.0156H1.98438V10C1.98438 5.56999 5.5694 1.98438 10 1.98438C14.43 1.98438 18.0156 5.5694 18.0156 10C18.0156 14.43 14.4306 18.0156 10 18.0156Z" fill="#8D939F"/>
</svg>
