<svg width="22" height="22" viewBox="0 0 22 22" fill="none" xmlns="http://www.w3.org/2000/svg">
<path d="M20.0972 19.1879V17.3684C20.0972 15.6728 18.9375 14.248 17.368 13.8441M14.1839 3.07702C15.5175 3.61685 16.4582 4.92429 16.4582 6.45147C16.4582 7.97864 15.5175 9.28609 14.1839 9.82592M15.5485 19.1879C15.5485 17.4923 15.5485 16.6445 15.2715 15.9758C14.9021 15.0842 14.1937 14.3757 13.3021 14.0064C12.6333 13.7294 11.7856 13.7294 10.09 13.7294H7.3608C5.66525 13.7294 4.81748 13.7294 4.14874 14.0064C3.25709 14.3757 2.54868 15.0842 2.17934 15.9758C1.90234 16.6445 1.90234 17.4923 1.90234 19.1879M12.3644 6.45147C12.3644 8.46122 10.7352 10.0904 8.72541 10.0904C6.71566 10.0904 5.08644 8.46122 5.08644 6.45147C5.08644 4.44172 6.71566 2.8125 8.72541 2.8125C10.7352 2.8125 12.3644 4.44172 12.3644 6.45147Z" stroke="#8D939F" stroke-width="1.5" stroke-linecap="round" stroke-linejoin="round"/>
</svg>
