<svg width="16" height="18" viewBox="0 0 16 18" fill="none" xmlns="http://www.w3.org/2000/svg">
<path d="M9.02218 8.22925H4.38876M5.93323 11.3172H4.38876M10.5667 5.14125H4.38876M13.6556 7.84325V4.98685C13.6556 3.68977 13.6556 3.04123 13.4031 2.54581C13.181 2.11002 12.8266 1.75572 12.3907 1.53368C11.8951 1.28125 11.2463 1.28125 9.94887 1.28125H5.00655C3.70906 1.28125 3.06032 1.28125 2.56475 1.53368C2.12883 1.75572 1.77442 2.11002 1.55231 2.54581C1.2998 3.04123 1.2998 3.68977 1.2998 4.98685V13.0156C1.2998 14.3127 1.2998 14.9613 1.55231 15.4567C1.77442 15.8925 2.12883 16.2468 2.56475 16.4688C3.06032 16.7212 3.70906 16.7212 5.00655 16.7212H7.09159M15.2001 16.7212L14.0417 15.5632M14.814 13.6332C14.814 15.1255 13.6039 16.3352 12.1111 16.3352C10.6184 16.3352 9.4083 15.1255 9.4083 13.6332C9.4083 12.141 10.6184 10.9312 12.1111 10.9312C13.6039 10.9312 14.814 12.141 14.814 13.6332Z" stroke="white" stroke-width="1.4" stroke-linecap="round" stroke-linejoin="round"/>
</svg>
