<svg width="8" height="7" viewBox="0 0 8 7" fill="none" xmlns="http://www.w3.org/2000/svg">
<path fill-rule="evenodd" clip-rule="evenodd" d="M6.80637 0.35031C7.00011 0.547083 7.00011 0.866115 6.80637 1.06289L4.70159 3.20062L6.80637 5.33835C7.00011 5.53513 7.00011 5.85416 6.80637 6.05093C6.61263 6.2477 6.29852 6.2477 6.10478 6.05093L4 3.9132L1.89522 6.05093C1.70148 6.2477 1.38737 6.2477 1.19363 6.05093C0.999887 5.85416 0.999887 5.53513 1.19363 5.33835L3.29841 3.20062L1.19363 1.06289C0.999887 0.866115 0.999887 0.547083 1.19363 0.35031C1.38737 0.153537 1.70148 0.153537 1.89522 0.35031L4 2.48804L6.10478 0.35031C6.29852 0.153537 6.61263 0.153537 6.80637 0.35031Z" fill="#9AA2AC" stroke="#9AA2AC" stroke-width="0.3"/>
</svg>
