<svg width="15" height="18" viewBox="0 0 15 18" fill="none" xmlns="http://www.w3.org/2000/svg">
<path d="M12.9853 9.38097V5.02215C12.9853 3.73732 12.9853 3.09491 12.7353 2.60417C12.5153 2.17251 12.1643 1.82155 11.7327 1.60161C11.2419 1.35156 10.5995 1.35156 9.31471 1.35156H4.42059C3.13576 1.35156 2.49335 1.35156 2.00261 1.60161C1.57094 1.82155 1.21999 2.17251 1.00004 2.60417C0.75 3.09491 0.75 3.73732 0.75 5.02215V12.9751C0.75 14.2599 0.75 14.9023 1.00004 15.3931C1.21999 15.8247 1.57094 16.1757 2.00261 16.3956C2.49335 16.6457 3.13576 16.6457 4.42059 16.6457H6.86765M8.39706 8.23392H3.80882M5.33824 11.2927H3.80882M9.92647 5.17509H3.80882M8.77941 14.3516L10.3088 15.881L13.75 12.4398" stroke="#131316" stroke-width="1.4" stroke-linecap="round" stroke-linejoin="round"/>
</svg>
