<svg width="9" height="10" viewBox="0 0 9 10" fill="none" xmlns="http://www.w3.org/2000/svg">
<path d="M7.92973 4.49093H7.2131V2.11593C7.2131 1.36632 6.60922 0.758789 5.86413 0.758789H3.2505C2.50541 0.758789 1.90154 1.36632 1.90154 2.11593V4.49093H1.1849C0.998361 4.49093 0.847656 4.64255 0.847656 4.83022V8.90165C0.847656 9.08931 0.998361 9.24093 1.1849 9.24093H7.92973C8.11627 9.24093 8.26698 9.08931 8.26698 8.90165V4.83022C8.26698 4.64255 8.11627 4.49093 7.92973 4.49093ZM4.8524 7.00377V7.56571C4.8524 7.61236 4.81446 7.65053 4.76809 7.65053H4.34654C4.30017 7.65053 4.26223 7.61236 4.26223 7.56571V7.00377C4.17524 6.94093 4.1103 6.85194 4.07678 6.74962C4.04325 6.64729 4.04287 6.5369 4.07567 6.43433C4.10848 6.33177 4.17279 6.24233 4.25934 6.17887C4.34589 6.11542 4.45022 6.08123 4.55732 6.08123C4.66441 6.08123 4.76874 6.11542 4.85529 6.17887C4.94185 6.24233 5.00615 6.33177 5.03896 6.43433C5.07177 6.5369 5.07138 6.64729 5.03785 6.74962C5.00433 6.85194 4.9394 6.94093 4.8524 7.00377V7.00377ZM6.4543 4.49093H2.66033V2.11593C2.66033 1.78831 2.92485 1.52218 3.2505 1.52218H5.86413C6.18978 1.52218 6.4543 1.78831 6.4543 2.11593V4.49093Z" fill="#9AA2AC"/>
</svg>
