<svg width="19" height="20" viewBox="0 0 19 20" fill="none" xmlns="http://www.w3.org/2000/svg">
<path d="M9.50065 12.3737C10.8123 12.3737 11.8757 11.3104 11.8757 9.9987C11.8757 8.68702 10.8123 7.6237 9.50065 7.6237C8.18897 7.6237 7.12565 8.68702 7.12565 9.9987C7.12565 11.3104 8.18897 12.3737 9.50065 12.3737Z" stroke="#8D939F" stroke-width="1.5" stroke-linecap="round" stroke-linejoin="round"/>
<path d="M14.8264 12.1578C14.7306 12.3749 14.702 12.6157 14.7444 12.8491C14.7867 13.0826 14.898 13.298 15.0639 13.4676L15.1071 13.5108C15.2409 13.6445 15.3471 13.8032 15.4195 13.978C15.492 14.1527 15.5292 14.34 15.5292 14.5292C15.5292 14.7183 15.492 14.9057 15.4195 15.0804C15.3471 15.2551 15.2409 15.4139 15.1071 15.5476C14.9734 15.6814 14.8147 15.7876 14.6399 15.86C14.4652 15.9324 14.2779 15.9697 14.0887 15.9697C13.8996 15.9697 13.7123 15.9324 13.5375 15.86C13.3628 15.7876 13.204 15.6814 13.0703 15.5476L13.0272 15.5044C12.8575 15.3385 12.6421 15.2272 12.4087 15.1848C12.1752 15.1425 11.9344 15.1711 11.7173 15.2669C11.5045 15.3581 11.3229 15.5096 11.195 15.7027C11.0672 15.8958 10.9985 16.122 10.9976 16.3536V16.476C10.9976 16.8577 10.846 17.2238 10.576 17.4938C10.3061 17.7637 9.93998 17.9154 9.55823 17.9154C9.17648 17.9154 8.81036 17.7637 8.54042 17.4938C8.27048 17.2238 8.11883 16.8577 8.11883 16.476V16.4112C8.11326 16.173 8.03615 15.942 7.89753 15.7481C7.75891 15.5543 7.5652 15.4067 7.34156 15.3245C7.12449 15.2287 6.88369 15.2001 6.65023 15.2424C6.41676 15.2847 6.20133 15.396 6.03171 15.562L5.98853 15.6051C5.85485 15.739 5.6961 15.8451 5.52136 15.9176C5.34662 15.99 5.15932 16.0273 4.97016 16.0273C4.781 16.0273 4.5937 15.99 4.41896 15.9176C4.24422 15.8451 4.08547 15.739 3.95179 15.6051C3.81796 15.4715 3.71179 15.3127 3.63935 15.138C3.56692 14.9632 3.52963 14.7759 3.52963 14.5868C3.52963 14.3976 3.56692 14.2103 3.63935 14.0356C3.71179 13.8608 3.81796 13.7021 3.95179 13.5684L3.99497 13.5252C4.16089 13.3556 4.27219 13.1402 4.31452 12.9067C4.35685 12.6732 4.32827 12.4324 4.23247 12.2154C4.14124 12.0025 3.98976 11.821 3.79667 11.6931C3.60358 11.5652 3.37732 11.4966 3.14573 11.4957H3.02338C2.64163 11.4957 2.27551 11.344 2.00557 11.0741C1.73563 10.8041 1.58398 10.438 1.58398 10.0563C1.58398 9.67452 1.73563 9.30841 2.00557 9.03847C2.27551 8.76853 2.64163 8.61688 3.02338 8.61688H3.08815C3.32637 8.61131 3.5574 8.5342 3.75121 8.39558C3.94502 8.25696 4.09264 8.06324 4.17489 7.83961C4.2707 7.62254 4.29927 7.38174 4.25694 7.14827C4.21461 6.91481 4.10331 6.69938 3.93739 6.52976L3.89421 6.48658C3.76038 6.3529 3.65421 6.19415 3.58178 6.01941C3.50934 5.84467 3.47206 5.65736 3.47206 5.46821C3.47206 5.27905 3.50934 5.09174 3.58178 4.917C3.65421 4.74226 3.76038 4.58352 3.89421 4.44983C4.02789 4.316 4.18664 4.20984 4.36138 4.1374C4.53612 4.06496 4.72342 4.02768 4.91258 4.02768C5.10174 4.02768 5.28905 4.06496 5.46379 4.1374C5.63852 4.20984 5.79727 4.316 5.93095 4.44983L5.97414 4.49302C6.14375 4.65893 6.35919 4.77023 6.59265 4.81256C6.82612 4.8549 7.06691 4.82632 7.28398 4.73052H7.34156C7.55442 4.63929 7.73597 4.4878 7.86384 4.29471C7.99171 4.10163 8.06033 3.87536 8.06126 3.64377V3.52143C8.06126 3.13967 8.21291 2.77356 8.48285 2.50362C8.75279 2.23368 9.1189 2.08203 9.50065 2.08203C9.8824 2.08203 10.2485 2.23368 10.5185 2.50362C10.7884 2.77356 10.94 3.13967 10.94 3.52143V3.5862C10.941 3.81779 11.0096 4.04405 11.1375 4.23714C11.2653 4.43023 11.4469 4.58171 11.6597 4.67294C11.8768 4.76874 12.1176 4.79732 12.3511 4.75499C12.5845 4.71266 12.8 4.60136 12.9696 4.43544L13.0128 4.39226C13.1465 4.25843 13.3052 4.15226 13.4799 4.07982C13.6547 4.00739 13.842 3.9701 14.0311 3.9701C14.2203 3.9701 14.4076 4.00739 14.5823 4.07982C14.7571 4.15226 14.9158 4.25843 15.0495 4.39226C15.1833 4.52594 15.2895 4.68469 15.362 4.85943C15.4344 5.03417 15.4717 5.22147 15.4717 5.41063C15.4717 5.59979 15.4344 5.78709 15.362 5.96183C15.2895 6.13657 15.1833 6.29532 15.0495 6.429L15.0063 6.47218C14.8404 6.6418 14.7291 6.85723 14.6868 7.0907C14.6445 7.32416 14.673 7.56496 14.7688 7.78203V7.83961C14.8601 8.05247 15.0115 8.23401 15.2046 8.36189C15.3977 8.48976 15.624 8.55838 15.8556 8.5593H15.9779C16.3597 8.5593 16.7258 8.71095 16.9957 8.98089C17.2657 9.25083 17.4173 9.61695 17.4173 9.9987C17.4173 10.3804 17.2657 10.7466 16.9957 11.0165C16.7258 11.2864 16.3597 11.4381 15.9779 11.4381H15.9132C15.6816 11.439 15.4553 11.5076 15.2622 11.6355C15.0691 11.7634 14.9176 11.9449 14.8264 12.1578Z" stroke="#8D939F" stroke-width="1.5" stroke-linecap="round" stroke-linejoin="round"/>
</svg>
