<svg width="19" height="18" viewBox="0 0 19 18" fill="none" xmlns="http://www.w3.org/2000/svg">
<path d="M16.25 6.75001L16.25 2.25001M16.25 2.25001H11.75M16.25 2.25001L9.5 9M8 2.25H6.35C5.08988 2.25 4.45982 2.25 3.97852 2.49524C3.55516 2.71095 3.21095 3.05516 2.99524 3.47852C2.75 3.95982 2.75 4.58988 2.75 5.85V12.15C2.75 13.4101 2.75 14.0402 2.99524 14.5215C3.21095 14.9448 3.55516 15.289 3.97852 15.5048C4.45982 15.75 5.08988 15.75 6.35 15.75H12.65C13.9101 15.75 14.5402 15.75 15.0215 15.5048C15.4448 15.289 15.789 14.9448 16.0048 14.5215C16.25 14.0402 16.25 13.4101 16.25 12.15V10.5" stroke="#5DA0EF" stroke-width="1.5375" stroke-linecap="round" stroke-linejoin="round"/>
</svg>
