<svg width="16" height="19" viewBox="0 0 16 19" fill="none" xmlns="http://www.w3.org/2000/svg">
<g clip-path="url(#clip0_2745_35834)">
<path d="M10.9275 6.9218C10.6961 6.68752 10.3209 6.68752 10.0895 6.9218L6.79444 10.258L5.91003 9.3626C5.67865 9.12832 5.3034 9.12832 5.07198 9.3626C4.84059 9.59688 4.84059 9.97681 5.07198 10.2111L6.37545 11.5309C6.60688 11.7652 6.98208 11.7652 7.21351 11.5309L10.9275 7.7703C11.159 7.53602 11.159 7.15612 10.9275 6.9218Z" fill="#5DA0EF"/>
<path d="M15.0193 4.25208L8.30122 0.205416C8.11451 0.0929863 7.88198 0.0929863 7.69528 0.205416L0.977118 4.25208C0.797569 4.36025 0.6875 4.55621 0.6875 4.76775V7.07776C0.6875 11.9432 3.46389 16.387 7.78427 18.0806C7.92181 18.1345 8.07451 18.1346 8.21219 18.0806C12.5221 16.3912 15.3089 11.957 15.3089 7.07776V4.76775C15.309 4.55618 15.1989 4.36025 15.0193 4.25208ZM14.1238 7.07776C14.1238 11.5548 11.574 15.368 7.99823 16.8746C4.42035 15.3671 1.87274 11.5521 1.87274 7.07776V5.10898L7.99826 1.41926L14.1238 5.10898L14.1238 7.07776Z" fill="#5DA0EF"/>
</g>
<defs>
<clipPath id="clip0_2745_35834">
<rect width="16" height="18" fill="white" transform="translate(0 0.121094)"/>
</clipPath>
</defs>
</svg>
