<svg width="14" height="12" viewBox="0 0 14 12" fill="none" xmlns="http://www.w3.org/2000/svg">
<path fill-rule="evenodd" clip-rule="evenodd" d="M11.0288 1.95531V10.0763C11.0288 10.3496 10.7614 10.5712 10.4317 10.5712C10.1019 10.5712 9.83457 10.3496 9.83457 10.0763V1.95531L8.04401 3.4394C7.81082 3.63267 7.43276 3.63267 7.19958 3.4394C6.9664 3.24613 6.9664 2.93278 7.19958 2.73951L10.0095 0.410578C10.2426 0.217307 10.6207 0.217307 10.8539 0.410578L13.6638 2.73951C13.8969 2.93278 13.8969 3.24613 13.6638 3.4394C13.4306 3.63267 13.0525 3.63267 12.8193 3.4394L11.0288 1.95531ZM4.00408 1.92499C4.00408 1.65167 3.73675 1.43009 3.40698 1.43009C3.07721 1.43009 2.80988 1.65167 2.80988 1.92499V10.0459L1.01931 8.56185C0.78613 8.36858 0.408068 8.36858 0.174886 8.56185C-0.0582954 8.75512 -0.0582954 9.06847 0.174886 9.26174L2.98476 11.5907C3.21795 11.7839 3.59601 11.7839 3.82919 11.5907L6.63907 9.26174C6.87225 9.06847 6.87225 8.75512 6.63907 8.56185C6.40589 8.36858 6.02782 8.36858 5.79464 8.56185L4.00408 10.0459V1.92499Z" fill="#5DA0EF"/>
</svg>
