<svg width="16" height="16" viewBox="0 0 16 16" fill="none" xmlns="http://www.w3.org/2000/svg">
<path d="M8.53133 0.419571L10.3894 4.33823C10.4399 4.44483 10.5158 4.53746 10.6103 4.60803C10.7048 4.67861 10.8151 4.72498 10.9317 4.74311L15.1396 5.38658C15.2711 5.40688 15.3945 5.46311 15.4962 5.54906C15.5978 5.63501 15.6738 5.74736 15.7156 5.87372C15.7575 6.00008 15.7637 6.13554 15.7335 6.26518C15.7033 6.39483 15.6378 6.51361 15.5444 6.60846L12.4572 9.76797C12.3772 9.84987 12.3178 9.9496 12.2838 10.059C12.2499 10.1683 12.2424 10.2842 12.262 10.397L13.0139 14.4602C13.0379 14.5904 13.0256 14.7246 12.9786 14.8482C12.9315 14.9718 12.8514 15.0802 12.747 15.1615C12.6426 15.2428 12.5179 15.2938 12.3865 15.3091C12.2551 15.3245 12.122 15.3034 12.0017 15.2483L8.20598 13.5203C8.11179 13.4774 8.00947 13.4551 7.90594 13.4551C7.80241 13.4551 7.70009 13.4774 7.60589 13.5203L3.78122 15.2411C3.66156 15.2956 3.5293 15.3164 3.39867 15.3014C3.26804 15.2863 3.144 15.2359 3.03989 15.1556C2.93577 15.0753 2.85554 14.9681 2.80781 14.8456C2.76008 14.723 2.74667 14.5898 2.76902 14.4602L3.49202 10.4404C3.51161 10.3275 3.50413 10.2117 3.4702 10.1023C3.43626 9.99298 3.37683 9.89325 3.29681 9.81135L0.209596 6.63738C0.118221 6.54233 0.0545769 6.4241 0.0255504 6.29548C-0.00347597 6.16687 0.00322024 6.03276 0.0449146 5.90768C0.0866089 5.7826 0.161714 5.6713 0.262104 5.58582C0.362493 5.50035 0.484345 5.44395 0.614477 5.42274L4.82234 4.77926C4.94264 4.75758 5.05547 4.70576 5.1503 4.62863C5.24513 4.5515 5.31886 4.45159 5.36459 4.33823L7.22993 0.419571C7.28913 0.297332 7.38157 0.194242 7.49666 0.122109C7.61174 0.0499764 7.74481 0.0117188 7.88063 0.0117188C8.01645 0.0117188 8.14953 0.0499764 8.26461 0.122109C8.37969 0.194242 8.47213 0.297332 8.53133 0.419571Z" fill="#F4C727"/>
</svg>
