<svg width="19" height="19" viewBox="0 0 19 19" fill="none" xmlns="http://www.w3.org/2000/svg">
<g clip-path="url(#clip0_4302_60008)">
<path d="M9.5 5.5625C9.13906 5.5625 8.84375 5.85781 8.84375 6.21875V6.33688C8.0825 6.60594 7.53125 7.32781 7.53125 8.1875C7.53125 9.27031 8.41719 10.1562 9.5 10.1562C9.86094 10.1562 10.1562 10.4516 10.1562 10.8125C10.1562 11.1734 9.86094 11.4688 9.5 11.4688C9.22438 11.4688 8.96844 11.285 8.88313 11.0225C8.77156 10.6812 8.3975 10.4909 8.05625 10.6025C7.715 10.7141 7.52469 11.0881 7.63625 11.4294C7.83312 12.02 8.28594 12.4662 8.84375 12.6631V12.7812C8.84375 13.1422 9.13906 13.4375 9.5 13.4375C9.86094 13.4375 10.1562 13.1422 10.1562 12.7812V12.6631C10.9175 12.3941 11.4688 11.6722 11.4688 10.8125C11.4688 9.72969 10.5828 8.84375 9.5 8.84375C9.13906 8.84375 8.84375 8.54844 8.84375 8.1875C8.84375 7.82656 9.13906 7.53125 9.5 7.53125C9.77562 7.53125 10.0316 7.715 10.1169 7.9775C10.2284 8.31875 10.6025 8.50906 10.9438 8.3975C11.285 8.28594 11.4753 7.91188 11.3638 7.57063C11.1669 6.98 10.7141 6.53375 10.1562 6.33688V6.21875C10.1562 5.85781 9.86094 5.5625 9.5 5.5625Z" fill="#8D939F"/>
<path d="M15.072 3.03591L14.9801 2.95716C14.8948 2.88497 14.8161 2.81934 14.7504 2.77341C14.4157 2.51091 14.0482 2.26809 13.6348 2.03841C13.2804 1.84809 12.9523 1.69059 12.6373 1.56591C9.27074 0.227156 5.41855 1.17216 3.04293 3.92841L2.96418 4.02028C2.89199 4.10559 2.8198 4.19091 2.78043 4.24997C2.72793 4.31559 2.68199 4.38778 2.62949 4.45997L2.35387 3.50841C2.25543 3.16059 1.88793 2.95716 1.54012 3.05559C1.1923 3.15403 0.988867 3.52153 1.0873 3.86934L1.80918 6.38934C1.85512 6.55341 1.96668 6.69778 2.12418 6.78309C2.22262 6.83559 2.33418 6.86184 2.43918 6.86184C2.49824 6.86184 2.56387 6.85528 2.62293 6.83559L5.14949 6.11372C5.4973 6.01528 5.70074 5.64778 5.60231 5.29997C5.50387 4.95216 5.14293 4.74872 4.78855 4.84716L3.73855 5.14903C3.77137 5.10966 3.79762 5.06372 3.83043 5.02434C3.86981 4.96528 3.92231 4.91278 3.96824 4.86028L4.04699 4.76184C6.04856 2.44528 9.31012 1.64466 12.1517 2.77997C12.4207 2.88497 12.6964 3.01622 12.9982 3.18028C13.3461 3.37716 13.6545 3.57403 13.9629 3.81684C14.022 3.85622 14.0745 3.90216 14.127 3.94809L14.2254 4.02684C15.807 5.39841 16.7126 7.38684 16.7126 9.48028C16.7126 9.84122 17.0079 10.1365 17.3689 10.1365C17.7298 10.1365 18.0251 9.84122 18.0251 9.48028C18.0251 6.99966 16.9554 4.65028 15.0654 3.01622L15.072 3.03591Z" fill="#8D939F"/>
<path d="M3.92969 15.9655L4.02156 16.0442C4.10688 16.1164 4.19219 16.1886 4.25125 16.228C4.58594 16.497 4.95344 16.7333 5.36688 16.963C5.72125 17.1533 6.04938 17.3108 6.36438 17.4355C7.38156 17.8423 8.44469 18.0327 9.50125 18.0327C11.9294 18.0327 14.305 16.9892 15.9653 15.073L16.0441 14.9811C16.1163 14.8958 16.1819 14.817 16.2278 14.7514C16.2803 14.6858 16.3263 14.6136 16.3788 14.5414L16.6478 15.493C16.7266 15.7817 16.9956 15.9655 17.2778 15.9655C17.3369 15.9655 17.3959 15.9589 17.4616 15.9392C17.8094 15.8408 18.0128 15.4733 17.9144 15.1255L17.1925 12.5989C17.1466 12.4348 17.035 12.2905 16.8775 12.2052C16.7266 12.1198 16.5428 12.1002 16.3788 12.1461L13.8522 12.868C13.5044 12.9664 13.3009 13.3339 13.3994 13.6817C13.4978 14.0295 13.8653 14.233 14.2131 14.1345L15.2631 13.8327C15.2303 13.872 15.2041 13.918 15.1713 13.9573C15.1319 14.0164 15.0859 14.0689 15.04 14.1214L14.9547 14.2198C12.9531 16.5364 9.69156 17.337 6.85 16.2017C6.5875 16.0967 6.30531 15.9655 6.00344 15.7948C5.65563 15.6045 5.34719 15.4011 5.03875 15.1583C4.97969 15.1189 4.92719 15.073 4.87469 15.0205L4.77625 14.9417C3.19469 13.5767 2.28906 11.5817 2.28906 9.48828C2.28906 9.12734 1.99375 8.83203 1.63281 8.83203C1.27188 8.83203 0.976562 9.12734 0.976562 9.48828C0.976562 11.9689 2.05281 14.3183 3.93625 15.9523L3.92969 15.9655Z" fill="#8D939F"/>
</g>
<defs>
<clipPath id="clip0_4302_60008">
<rect width="19" height="19" fill="white"/>
</clipPath>
</defs>
</svg>
