<svg width="26" height="27" viewBox="0 0 26 27" fill="none" xmlns="http://www.w3.org/2000/svg">
<path d="M15.4563 2.9334V7.4202C15.4563 8.02856 15.4563 8.33274 15.5746 8.5651C15.6788 8.76949 15.845 8.93567 16.0494 9.03981C16.2817 9.1582 16.5859 9.1582 17.1943 9.1582H21.681M10.025 16.7619L13.2838 13.502M13.2838 13.502L16.5425 16.7619M13.2838 13.502V20.1495M15.4563 2.64062H9.80775C7.98268 2.64062 7.07014 2.64062 6.37306 2.99581C5.75989 3.30823 5.26136 3.80676 4.94893 4.41993C4.59375 5.11702 4.59375 6.02955 4.59375 7.85462V19.1516C4.59375 20.9767 4.59375 21.8892 4.94893 22.5863C5.26136 23.1995 5.75989 23.698 6.37306 24.0104C7.07014 24.3656 7.98268 24.3656 9.80775 24.3656H16.7598C18.5848 24.3656 19.4974 24.3656 20.1944 24.0104C20.8076 23.698 21.3061 23.1995 21.6186 22.5863C21.9738 21.8892 21.9738 20.9767 21.9738 19.1516V9.15812L15.4563 2.64062Z" stroke="#5DA0EF" stroke-width="1.8" stroke-linecap="round" stroke-linejoin="round"/>
</svg>
