<svg width="19" height="19" viewBox="0 0 19 19" fill="none" xmlns="http://www.w3.org/2000/svg">
<path d="M17.8541 17.0173V15.3466C17.8541 13.7895 16.7892 12.4813 15.348 12.1103M12.4241 2.22336C13.6487 2.71907 14.5126 3.91965 14.5126 5.32199C14.5126 6.72434 13.6487 7.92492 12.4241 8.42062M13.6772 17.0173C13.6772 15.4604 13.6772 14.6819 13.4228 14.0678C13.0837 13.249 12.4332 12.5985 11.6144 12.2594C11.0003 12.005 10.2219 12.005 8.66491 12.005H6.15877C4.60181 12.005 3.82334 12.005 3.20926 12.2594C2.3905 12.5985 1.73999 13.249 1.40084 14.0678C1.14648 14.6819 1.14648 15.4604 1.14648 17.0173M10.7534 5.32199C10.7534 7.16746 9.25731 8.66352 7.41184 8.66352C5.56637 8.66352 4.07032 7.16746 4.07032 5.32199C4.07032 3.47652 5.56637 1.98047 7.41184 1.98047C9.25731 1.98047 10.7534 3.47652 10.7534 5.32199Z" stroke="#8D939F" stroke-width="1.5" stroke-linecap="round" stroke-linejoin="round"/>
</svg>
