<svg width="19" height="20" viewBox="0 0 19 20" fill="none" xmlns="http://www.w3.org/2000/svg">
<path d="M15.8346 17.125C15.8346 16.0202 15.8346 15.4678 15.6983 15.0183C15.3913 14.0062 14.5993 13.2142 13.5872 12.9072C13.1377 12.7708 12.5853 12.7708 11.4805 12.7708H7.52214C6.41732 12.7708 5.8649 12.7708 5.4154 12.9072C4.40333 13.2142 3.61133 14.0062 3.30433 15.0183C3.16797 15.4678 3.16797 16.0202 3.16797 17.125M13.0638 6.4375C13.0638 8.40501 11.4688 10 9.5013 10C7.53379 10 5.9388 8.40501 5.9388 6.4375C5.9388 4.46999 7.53379 2.875 9.5013 2.875C11.4688 2.875 13.0638 4.46999 13.0638 6.4375Z" stroke="#8D939F" stroke-width="1.5" stroke-linecap="round" stroke-linejoin="round"/>
</svg>
