<svg width="14" height="14" viewBox="0 0 14 14" fill="none" xmlns="http://www.w3.org/2000/svg">
<rect x="1.0625" y="1.0625" width="11.875" height="11.875" rx="5.9375" stroke="#9AA2AC" stroke-width="0.625"/>
<path fill-rule="evenodd" clip-rule="evenodd" d="M9.80637 4.35031C10.0001 4.54708 10.0001 4.86612 9.80637 5.06289L7.70159 7.20062L9.80637 9.33835C10.0001 9.53513 10.0001 9.85416 9.80637 10.0509C9.61263 10.2477 9.29852 10.2477 9.10478 10.0509L7 7.9132L4.89522 10.0509C4.70148 10.2477 4.38737 10.2477 4.19363 10.0509C3.99989 9.85416 3.99989 9.53513 4.19363 9.33835L6.29841 7.20062L4.19363 5.06289C3.99989 4.86612 3.99989 4.54708 4.19363 4.35031C4.38737 4.15354 4.70148 4.15354 4.89522 4.35031L7 6.48804L9.10478 4.35031C9.29852 4.15354 9.61263 4.15354 9.80637 4.35031Z" fill="#9AA2AC" stroke="#9AA2AC" stroke-width="0.3"/>
</svg>
